<?xml version="1.0" encoding="utf-8"?>
<svg xmlns="http://www.w3.org/2000/svg" xmlns:xlink="http://www.w3.org/1999/xlink" width="600" height="400" viewBox="0 0 2400 1600">
<defs>
  <clipPath id="clip230">
    <rect x="0" y="0" width="2400" height="1600"/>
  </clipPath>
</defs>
<path clip-path="url(#clip230)" d="
M0 1600 L2400 1600 L2400 0 L0 0  Z
  " fill="#ffffff" fill-rule="evenodd" fill-opacity="1"/>
<defs>
  <clipPath id="clip231">
    <rect x="480" y="0" width="1681" height="1600"/>
  </clipPath>
</defs>
<path clip-path="url(#clip230)" d="
M102.74 1505.26 L2352.76 1505.26 L2352.76 47.2441 L102.74 47.2441  Z
  " fill="#ffffff" fill-rule="evenodd" fill-opacity="1"/>
<defs>
  <clipPath id="clip232">
    <rect x="102" y="47" width="2251" height="1459"/>
  </clipPath>
</defs>
<polyline clip-path="url(#clip232)" style="stroke:#000000; stroke-width:2; stroke-opacity:0.1; fill:none" points="
  166.42,1505.26 166.42,47.2441 
  "/>
<polyline clip-path="url(#clip232)" style="stroke:#000000; stroke-width:2; stroke-opacity:0.1; fill:none" points="
  188.764,1505.26 188.764,47.2441 
  "/>
<polyline clip-path="url(#clip232)" style="stroke:#000000; stroke-width:2; stroke-opacity:0.1; fill:none" points="
  233.451,1505.26 233.451,47.2441 
  "/>
<polyline clip-path="url(#clip232)" style="stroke:#000000; stroke-width:2; stroke-opacity:0.1; fill:none" points="
  322.826,1505.26 322.826,47.2441 
  "/>
<polyline clip-path="url(#clip232)" style="stroke:#000000; stroke-width:2; stroke-opacity:0.1; fill:none" points="
  501.576,1505.26 501.576,47.2441 
  "/>
<polyline clip-path="url(#clip232)" style="stroke:#000000; stroke-width:2; stroke-opacity:0.1; fill:none" points="
  859.076,1505.26 859.076,47.2441 
  "/>
<polyline clip-path="url(#clip232)" style="stroke:#000000; stroke-width:2; stroke-opacity:0.1; fill:none" points="
  1216.58,1505.26 1216.58,47.2441 
  "/>
<polyline clip-path="url(#clip232)" style="stroke:#000000; stroke-width:2; stroke-opacity:0.1; fill:none" points="
  1574.08,1505.26 1574.08,47.2441 
  "/>
<polyline clip-path="url(#clip232)" style="stroke:#000000; stroke-width:2; stroke-opacity:0.1; fill:none" points="
  1931.58,1505.26 1931.58,47.2441 
  "/>
<polyline clip-path="url(#clip232)" style="stroke:#000000; stroke-width:2; stroke-opacity:0.1; fill:none" points="
  2289.08,1505.26 2289.08,47.2441 
  "/>
<polyline clip-path="url(#clip230)" style="stroke:#000000; stroke-width:4; stroke-opacity:1; fill:none" points="
  102.74,1505.26 2352.76,1505.26 
  "/>
<polyline clip-path="url(#clip230)" style="stroke:#000000; stroke-width:4; stroke-opacity:1; fill:none" points="
  166.42,1505.26 166.42,1487.76 
  "/>
<polyline clip-path="url(#clip230)" style="stroke:#000000; stroke-width:4; stroke-opacity:1; fill:none" points="
  188.764,1505.26 188.764,1487.76 
  "/>
<polyline clip-path="url(#clip230)" style="stroke:#000000; stroke-width:4; stroke-opacity:1; fill:none" points="
  233.451,1505.26 233.451,1487.76 
  "/>
<polyline clip-path="url(#clip230)" style="stroke:#000000; stroke-width:4; stroke-opacity:1; fill:none" points="
  322.826,1505.26 322.826,1487.76 
  "/>
<polyline clip-path="url(#clip230)" style="stroke:#000000; stroke-width:4; stroke-opacity:1; fill:none" points="
  501.576,1505.26 501.576,1487.76 
  "/>
<polyline clip-path="url(#clip230)" style="stroke:#000000; stroke-width:4; stroke-opacity:1; fill:none" points="
  859.076,1505.26 859.076,1487.76 
  "/>
<polyline clip-path="url(#clip230)" style="stroke:#000000; stroke-width:4; stroke-opacity:1; fill:none" points="
  1216.58,1505.26 1216.58,1487.76 
  "/>
<polyline clip-path="url(#clip230)" style="stroke:#000000; stroke-width:4; stroke-opacity:1; fill:none" points="
  1574.08,1505.26 1574.08,1487.76 
  "/>
<polyline clip-path="url(#clip230)" style="stroke:#000000; stroke-width:4; stroke-opacity:1; fill:none" points="
  1931.58,1505.26 1931.58,1487.76 
  "/>
<polyline clip-path="url(#clip230)" style="stroke:#000000; stroke-width:4; stroke-opacity:1; fill:none" points="
  2289.08,1505.26 2289.08,1487.76 
  "/>
<path clip-path="url(#clip230)" d="M 0 0 M156.802 1562 L164.441 1562 L164.441 1535.63 L156.131 1537.3 L156.131 1533.04 L164.394 1531.37 L169.07 1531.37 L169.07 1562 L176.709 1562 L176.709 1565.93 L156.802 1565.93 L156.802 1562 Z" fill="#000000" fill-rule="evenodd" fill-opacity="1" /><path clip-path="url(#clip230)" d="M 0 0 M183.416 1562 L199.736 1562 L199.736 1565.93 L177.791 1565.93 L177.791 1562 Q180.453 1559.24 185.037 1554.61 Q189.643 1549.96 190.824 1548.62 Q193.069 1546.09 193.949 1544.36 Q194.852 1542.6 194.852 1540.91 Q194.852 1538.15 192.907 1536.42 Q190.986 1534.68 187.884 1534.68 Q185.685 1534.68 183.231 1535.45 Q180.801 1536.21 178.023 1537.76 L178.023 1533.04 Q180.847 1531.9 183.301 1531.33 Q185.754 1530.75 187.791 1530.75 Q193.162 1530.75 196.356 1533.43 Q199.551 1536.12 199.551 1540.61 Q199.551 1542.74 198.74 1544.66 Q197.953 1546.56 195.847 1549.15 Q195.268 1549.82 192.166 1553.04 Q189.065 1556.23 183.416 1562 Z" fill="#000000" fill-rule="evenodd" fill-opacity="1" /><path clip-path="url(#clip230)" d="M 0 0 M236.46 1535.45 L224.655 1553.89 L236.46 1553.89 L236.46 1535.45 M235.233 1531.37 L241.113 1531.37 L241.113 1553.89 L246.044 1553.89 L246.044 1557.78 L241.113 1557.78 L241.113 1565.93 L236.46 1565.93 L236.46 1557.78 L220.859 1557.78 L220.859 1553.27 L235.233 1531.37 Z" fill="#000000" fill-rule="evenodd" fill-opacity="1" /><path clip-path="url(#clip230)" d="M 0 0 M322.826 1549.52 Q319.493 1549.52 317.572 1551.3 Q315.673 1553.08 315.673 1556.21 Q315.673 1559.33 317.572 1561.12 Q319.493 1562.9 322.826 1562.9 Q326.159 1562.9 328.081 1561.12 Q330.002 1559.31 330.002 1556.21 Q330.002 1553.08 328.081 1551.3 Q326.183 1549.52 322.826 1549.52 M318.15 1547.53 Q315.141 1546.79 313.451 1544.73 Q311.784 1542.67 311.784 1539.71 Q311.784 1535.56 314.724 1533.15 Q317.687 1530.75 322.826 1530.75 Q327.988 1530.75 330.928 1533.15 Q333.868 1535.56 333.868 1539.71 Q333.868 1542.67 332.178 1544.73 Q330.511 1546.79 327.525 1547.53 Q330.905 1548.32 332.78 1550.61 Q334.678 1552.9 334.678 1556.21 Q334.678 1561.23 331.599 1563.92 Q328.544 1566.6 322.826 1566.6 Q317.109 1566.6 314.03 1563.92 Q310.974 1561.23 310.974 1556.21 Q310.974 1552.9 312.872 1550.61 Q314.771 1548.32 318.15 1547.53 M316.437 1540.14 Q316.437 1542.83 318.104 1544.33 Q319.794 1545.84 322.826 1545.84 Q325.835 1545.84 327.525 1544.33 Q329.238 1542.83 329.238 1540.14 Q329.238 1537.46 327.525 1535.96 Q325.835 1534.45 322.826 1534.45 Q319.794 1534.45 318.104 1535.96 Q316.437 1537.46 316.437 1540.14 Z" fill="#000000" fill-rule="evenodd" fill-opacity="1" /><path clip-path="url(#clip230)" d="M 0 0 M476.183 1562 L483.822 1562 L483.822 1535.63 L475.511 1537.3 L475.511 1533.04 L483.775 1531.37 L488.451 1531.37 L488.451 1562 L496.09 1562 L496.09 1565.93 L476.183 1565.93 L476.183 1562 Z" fill="#000000" fill-rule="evenodd" fill-opacity="1" /><path clip-path="url(#clip230)" d="M 0 0 M516.113 1546.79 Q512.965 1546.79 511.113 1548.94 Q509.284 1551.09 509.284 1554.84 Q509.284 1558.57 511.113 1560.75 Q512.965 1562.9 516.113 1562.9 Q519.261 1562.9 521.09 1560.75 Q522.942 1558.57 522.942 1554.84 Q522.942 1551.09 521.09 1548.94 Q519.261 1546.79 516.113 1546.79 M525.395 1532.14 L525.395 1536.39 Q523.636 1535.56 521.831 1535.12 Q520.048 1534.68 518.289 1534.68 Q513.659 1534.68 511.206 1537.81 Q508.775 1540.93 508.428 1547.25 Q509.794 1545.24 511.854 1544.17 Q513.914 1543.08 516.391 1543.08 Q521.599 1543.08 524.608 1546.26 Q527.641 1549.4 527.641 1554.84 Q527.641 1560.17 524.493 1563.39 Q521.345 1566.6 516.113 1566.6 Q510.118 1566.6 506.946 1562.02 Q503.775 1557.41 503.775 1548.69 Q503.775 1540.49 507.664 1535.63 Q511.553 1530.75 518.104 1530.75 Q519.863 1530.75 521.645 1531.09 Q523.451 1531.44 525.395 1532.14 Z" fill="#000000" fill-rule="evenodd" fill-opacity="1" /><path clip-path="url(#clip230)" d="M 0 0 M848.717 1547.3 Q852.074 1548.02 853.949 1550.28 Q855.847 1552.55 855.847 1555.89 Q855.847 1561 852.328 1563.8 Q848.81 1566.6 842.329 1566.6 Q840.153 1566.6 837.838 1566.16 Q835.546 1565.75 833.092 1564.89 L833.092 1560.38 Q835.037 1561.51 837.352 1562.09 Q839.667 1562.67 842.19 1562.67 Q846.588 1562.67 848.879 1560.93 Q851.194 1559.2 851.194 1555.89 Q851.194 1552.83 849.041 1551.12 Q846.912 1549.38 843.092 1549.38 L839.065 1549.38 L839.065 1545.54 L843.278 1545.54 Q846.727 1545.54 848.555 1544.17 Q850.384 1542.78 850.384 1540.19 Q850.384 1537.53 848.486 1536.12 Q846.611 1534.68 843.092 1534.68 Q841.171 1534.68 838.972 1535.1 Q836.773 1535.52 834.134 1536.39 L834.134 1532.23 Q836.796 1531.49 839.111 1531.12 Q841.449 1530.75 843.509 1530.75 Q848.833 1530.75 851.935 1533.18 Q855.037 1535.58 855.037 1539.71 Q855.037 1542.58 853.393 1544.57 Q851.75 1546.53 848.717 1547.3 Z" fill="#000000" fill-rule="evenodd" fill-opacity="1" /><path clip-path="url(#clip230)" d="M 0 0 M868.74 1562 L885.06 1562 L885.06 1565.93 L863.115 1565.93 L863.115 1562 Q865.777 1559.24 870.361 1554.61 Q874.967 1549.96 876.148 1548.62 Q878.393 1546.09 879.273 1544.36 Q880.176 1542.6 880.176 1540.91 Q880.176 1538.15 878.231 1536.42 Q876.31 1534.68 873.208 1534.68 Q871.009 1534.68 868.555 1535.45 Q866.125 1536.21 863.347 1537.76 L863.347 1533.04 Q866.171 1531.9 868.625 1531.33 Q871.078 1530.75 873.115 1530.75 Q878.486 1530.75 881.68 1533.43 Q884.875 1536.12 884.875 1540.61 Q884.875 1542.74 884.064 1544.66 Q883.277 1546.56 881.171 1549.15 Q880.592 1549.82 877.49 1553.04 Q874.389 1556.23 868.74 1562 Z" fill="#000000" fill-rule="evenodd" fill-opacity="1" /><path clip-path="url(#clip230)" d="M 0 0 M1204.79 1535.45 L1192.99 1553.89 L1204.79 1553.89 L1204.79 1535.45 M1203.57 1531.37 L1209.45 1531.37 L1209.45 1553.89 L1214.38 1553.89 L1214.38 1557.78 L1209.45 1557.78 L1209.45 1565.93 L1204.79 1565.93 L1204.79 1557.78 L1189.19 1557.78 L1189.19 1553.27 L1203.57 1531.37 Z" fill="#000000" fill-rule="evenodd" fill-opacity="1" /><path clip-path="url(#clip230)" d="M 0 0 M1232.11 1549.52 Q1228.78 1549.52 1226.85 1551.3 Q1224.96 1553.08 1224.96 1556.21 Q1224.96 1559.33 1226.85 1561.12 Q1228.78 1562.9 1232.11 1562.9 Q1235.44 1562.9 1237.36 1561.12 Q1239.28 1559.31 1239.28 1556.21 Q1239.28 1553.08 1237.36 1551.3 Q1235.46 1549.52 1232.11 1549.52 M1227.43 1547.53 Q1224.42 1546.79 1222.73 1544.73 Q1221.07 1542.67 1221.07 1539.71 Q1221.07 1535.56 1224.01 1533.15 Q1226.97 1530.75 1232.11 1530.75 Q1237.27 1530.75 1240.21 1533.15 Q1243.15 1535.56 1243.15 1539.71 Q1243.15 1542.67 1241.46 1544.73 Q1239.79 1546.79 1236.81 1547.53 Q1240.19 1548.32 1242.06 1550.61 Q1243.96 1552.9 1243.96 1556.21 Q1243.96 1561.23 1240.88 1563.92 Q1237.83 1566.6 1232.11 1566.6 Q1226.39 1566.6 1223.31 1563.92 Q1220.26 1561.23 1220.26 1556.21 Q1220.26 1552.9 1222.15 1550.61 Q1224.05 1548.32 1227.43 1547.53 M1225.72 1540.14 Q1225.72 1542.83 1227.39 1544.33 Q1229.08 1545.84 1232.11 1545.84 Q1235.12 1545.84 1236.81 1544.33 Q1238.52 1542.83 1238.52 1540.14 Q1238.52 1537.46 1236.81 1535.96 Q1235.12 1534.45 1232.11 1534.45 Q1229.08 1534.45 1227.39 1535.96 Q1225.72 1537.46 1225.72 1540.14 Z" fill="#000000" fill-rule="evenodd" fill-opacity="1" /><path clip-path="url(#clip230)" d="M 0 0 M1559.24 1546.79 Q1556.09 1546.79 1554.24 1548.94 Q1552.41 1551.09 1552.41 1554.84 Q1552.41 1558.57 1554.24 1560.75 Q1556.09 1562.9 1559.24 1562.9 Q1562.39 1562.9 1564.22 1560.75 Q1566.07 1558.57 1566.07 1554.84 Q1566.07 1551.09 1564.22 1548.94 Q1562.39 1546.79 1559.24 1546.79 M1568.52 1532.14 L1568.52 1536.39 Q1566.76 1535.56 1564.96 1535.12 Q1563.17 1534.68 1561.41 1534.68 Q1556.78 1534.68 1554.33 1537.81 Q1551.9 1540.93 1551.55 1547.25 Q1552.92 1545.24 1554.98 1544.17 Q1557.04 1543.08 1559.52 1543.08 Q1564.72 1543.08 1567.73 1546.26 Q1570.77 1549.4 1570.77 1554.84 Q1570.77 1560.17 1567.62 1563.39 Q1564.47 1566.6 1559.24 1566.6 Q1553.24 1566.6 1550.07 1562.02 Q1546.9 1557.41 1546.9 1548.69 Q1546.9 1540.49 1550.79 1535.63 Q1554.68 1530.75 1561.23 1530.75 Q1562.99 1530.75 1564.77 1531.09 Q1566.58 1531.44 1568.52 1532.14 Z" fill="#000000" fill-rule="evenodd" fill-opacity="1" /><path clip-path="url(#clip230)" d="M 0 0 M1591.67 1535.45 L1579.86 1553.89 L1591.67 1553.89 L1591.67 1535.45 M1590.44 1531.37 L1596.32 1531.37 L1596.32 1553.89 L1601.25 1553.89 L1601.25 1557.78 L1596.32 1557.78 L1596.32 1565.93 L1591.67 1565.93 L1591.67 1557.78 L1576.07 1557.78 L1576.07 1553.27 L1590.44 1531.37 Z" fill="#000000" fill-rule="evenodd" fill-opacity="1" /><path clip-path="url(#clip230)" d="M 0 0 M1916.45 1549.52 Q1913.12 1549.52 1911.19 1551.3 Q1909.3 1553.08 1909.3 1556.21 Q1909.3 1559.33 1911.19 1561.12 Q1913.12 1562.9 1916.45 1562.9 Q1919.78 1562.9 1921.7 1561.12 Q1923.62 1559.31 1923.62 1556.21 Q1923.62 1553.08 1921.7 1551.3 Q1919.81 1549.52 1916.45 1549.52 M1911.77 1547.53 Q1908.76 1546.79 1907.07 1544.73 Q1905.41 1542.67 1905.41 1539.71 Q1905.41 1535.56 1908.35 1533.15 Q1911.31 1530.75 1916.45 1530.75 Q1921.61 1530.75 1924.55 1533.15 Q1927.49 1535.56 1927.49 1539.71 Q1927.49 1542.67 1925.8 1544.73 Q1924.13 1546.79 1921.15 1547.53 Q1924.53 1548.32 1926.4 1550.61 Q1928.3 1552.9 1928.3 1556.21 Q1928.3 1561.23 1925.22 1563.92 Q1922.17 1566.6 1916.45 1566.6 Q1910.73 1566.6 1907.65 1563.92 Q1904.6 1561.23 1904.6 1556.21 Q1904.6 1552.9 1906.5 1550.61 Q1908.39 1548.32 1911.77 1547.53 M1910.06 1540.14 Q1910.06 1542.83 1911.73 1544.33 Q1913.42 1545.84 1916.45 1545.84 Q1919.46 1545.84 1921.15 1544.33 Q1922.86 1542.83 1922.86 1540.14 Q1922.86 1537.46 1921.15 1535.96 Q1919.46 1534.45 1916.45 1534.45 Q1913.42 1534.45 1911.73 1535.96 Q1910.06 1537.46 1910.06 1540.14 Z" fill="#000000" fill-rule="evenodd" fill-opacity="1" /><path clip-path="url(#clip230)" d="M 0 0 M1946.61 1534.45 Q1943 1534.45 1941.17 1538.02 Q1939.37 1541.56 1939.37 1548.69 Q1939.37 1555.79 1941.17 1559.36 Q1943 1562.9 1946.61 1562.9 Q1950.25 1562.9 1952.05 1559.36 Q1953.88 1555.79 1953.88 1548.69 Q1953.88 1541.56 1952.05 1538.02 Q1950.25 1534.45 1946.61 1534.45 M1946.61 1530.75 Q1952.42 1530.75 1955.48 1535.35 Q1958.56 1539.94 1958.56 1548.69 Q1958.56 1557.41 1955.48 1562.02 Q1952.42 1566.6 1946.61 1566.6 Q1940.8 1566.6 1937.72 1562.02 Q1934.67 1557.41 1934.67 1548.69 Q1934.67 1539.94 1937.72 1535.35 Q1940.8 1530.75 1946.61 1530.75 Z" fill="#000000" fill-rule="evenodd" fill-opacity="1" /><path clip-path="url(#clip230)" d="M 0 0 M2264.12 1565.21 L2264.12 1560.96 Q2265.88 1561.79 2267.69 1562.23 Q2269.49 1562.67 2271.23 1562.67 Q2275.86 1562.67 2278.29 1559.57 Q2280.74 1556.44 2281.09 1550.1 Q2279.75 1552.09 2277.69 1553.15 Q2275.63 1554.22 2273.13 1554.22 Q2267.94 1554.22 2264.91 1551.09 Q2261.9 1547.95 2261.9 1542.51 Q2261.9 1537.18 2265.05 1533.96 Q2268.2 1530.75 2273.43 1530.75 Q2279.42 1530.75 2282.57 1535.35 Q2285.74 1539.94 2285.74 1548.69 Q2285.74 1556.86 2281.85 1561.74 Q2277.99 1566.6 2271.44 1566.6 Q2269.68 1566.6 2267.87 1566.26 Q2266.07 1565.91 2264.12 1565.21 M2273.43 1550.56 Q2276.58 1550.56 2278.4 1548.41 Q2280.26 1546.26 2280.26 1542.51 Q2280.26 1538.78 2278.4 1536.63 Q2276.58 1534.45 2273.43 1534.45 Q2270.28 1534.45 2268.43 1536.63 Q2266.6 1538.78 2266.6 1542.51 Q2266.6 1546.26 2268.43 1548.41 Q2270.28 1550.56 2273.43 1550.56 Z" fill="#000000" fill-rule="evenodd" fill-opacity="1" /><path clip-path="url(#clip230)" d="M 0 0 M2304.72 1546.79 Q2301.58 1546.79 2299.72 1548.94 Q2297.9 1551.09 2297.9 1554.84 Q2297.9 1558.57 2299.72 1560.75 Q2301.58 1562.9 2304.72 1562.9 Q2307.87 1562.9 2309.7 1560.75 Q2311.55 1558.57 2311.55 1554.84 Q2311.55 1551.09 2309.7 1548.94 Q2307.87 1546.79 2304.72 1546.79 M2314.01 1532.14 L2314.01 1536.39 Q2312.25 1535.56 2310.44 1535.12 Q2308.66 1534.68 2306.9 1534.68 Q2302.27 1534.68 2299.82 1537.81 Q2297.39 1540.93 2297.04 1547.25 Q2298.4 1545.24 2300.47 1544.17 Q2302.53 1543.08 2305 1543.08 Q2310.21 1543.08 2313.22 1546.26 Q2316.25 1549.4 2316.25 1554.84 Q2316.25 1560.17 2313.1 1563.39 Q2309.96 1566.6 2304.72 1566.6 Q2298.73 1566.6 2295.56 1562.02 Q2292.39 1557.41 2292.39 1548.69 Q2292.39 1540.49 2296.28 1535.63 Q2300.16 1530.75 2306.72 1530.75 Q2308.47 1530.75 2310.26 1531.09 Q2312.06 1531.44 2314.01 1532.14 Z" fill="#000000" fill-rule="evenodd" fill-opacity="1" /><path clip-path="url(#clip230)" d="M 0 0 M1098.3 1602.6 L1138.5 1602.6 L1138.5 1608.01 L1121.63 1608.01 L1121.63 1650.12 L1115.17 1650.12 L1115.17 1608.01 L1098.3 1608.01 L1098.3 1602.6 Z" fill="#000000" fill-rule="evenodd" fill-opacity="1" /><path clip-path="url(#clip230)" d="M 0 0 M1174.09 1628.61 L1174.09 1650.12 L1168.23 1650.12 L1168.23 1628.8 Q1168.23 1623.74 1166.26 1621.22 Q1164.28 1618.71 1160.34 1618.71 Q1155.59 1618.71 1152.86 1621.73 Q1150.12 1624.76 1150.12 1629.98 L1150.12 1650.12 L1144.23 1650.12 L1144.23 1600.6 L1150.12 1600.6 L1150.12 1620.01 Q1152.22 1616.8 1155.05 1615.21 Q1157.92 1613.62 1161.64 1613.62 Q1167.78 1613.62 1170.93 1617.44 Q1174.09 1621.22 1174.09 1628.61 Z" fill="#000000" fill-rule="evenodd" fill-opacity="1" /><path clip-path="url(#clip230)" d="M 0 0 M1206.42 1619.95 Q1205.44 1619.38 1204.26 1619.12 Q1203.11 1618.84 1201.71 1618.84 Q1196.75 1618.84 1194.07 1622.08 Q1191.43 1625.3 1191.43 1631.35 L1191.43 1650.12 L1185.54 1650.12 L1185.54 1614.48 L1191.43 1614.48 L1191.43 1620.01 Q1193.28 1616.77 1196.24 1615.21 Q1199.2 1613.62 1203.43 1613.62 Q1204.04 1613.62 1204.77 1613.71 Q1205.5 1613.78 1206.39 1613.93 L1206.42 1619.95 Z" fill="#000000" fill-rule="evenodd" fill-opacity="1" /><path clip-path="url(#clip230)" d="M 0 0 M1241.63 1630.84 L1241.63 1633.7 L1214.7 1633.7 Q1215.08 1639.75 1218.33 1642.93 Q1221.61 1646.08 1227.43 1646.08 Q1230.8 1646.08 1233.95 1645.25 Q1237.14 1644.43 1240.26 1642.77 L1240.26 1648.31 Q1237.11 1649.65 1233.8 1650.35 Q1230.49 1651.05 1227.08 1651.05 Q1218.55 1651.05 1213.55 1646.08 Q1208.59 1641.12 1208.59 1632.65 Q1208.59 1623.9 1213.3 1618.77 Q1218.04 1613.62 1226.06 1613.62 Q1233.25 1613.62 1237.42 1618.26 Q1241.63 1622.88 1241.63 1630.84 M1235.77 1629.12 Q1235.71 1624.31 1233.06 1621.45 Q1230.45 1618.58 1226.12 1618.58 Q1221.22 1618.58 1218.26 1621.35 Q1215.33 1624.12 1214.89 1629.15 L1235.77 1629.12 Z" fill="#000000" fill-rule="evenodd" fill-opacity="1" /><path clip-path="url(#clip230)" d="M 0 0 M1267.44 1632.2 Q1260.34 1632.2 1257.6 1633.83 Q1254.87 1635.45 1254.87 1639.37 Q1254.87 1642.48 1256.9 1644.33 Q1258.97 1646.15 1262.5 1646.15 Q1267.37 1646.15 1270.3 1642.71 Q1273.26 1639.24 1273.26 1633.51 L1273.26 1632.2 L1267.44 1632.2 M1279.12 1629.79 L1279.12 1650.12 L1273.26 1650.12 L1273.26 1644.71 Q1271.26 1647.96 1268.27 1649.52 Q1265.27 1651.05 1260.95 1651.05 Q1255.47 1651.05 1252.22 1647.99 Q1249.01 1644.9 1249.01 1639.75 Q1249.01 1633.73 1253.02 1630.68 Q1257.06 1627.62 1265.05 1627.62 L1273.26 1627.62 L1273.26 1627.05 Q1273.26 1623.01 1270.59 1620.81 Q1267.95 1618.58 1263.14 1618.58 Q1260.09 1618.58 1257.19 1619.31 Q1254.29 1620.05 1251.62 1621.51 L1251.62 1616.1 Q1254.83 1614.86 1257.86 1614.25 Q1260.88 1613.62 1263.75 1613.62 Q1271.48 1613.62 1275.3 1617.63 Q1279.12 1621.64 1279.12 1629.79 Z" fill="#000000" fill-rule="evenodd" fill-opacity="1" /><path clip-path="url(#clip230)" d="M 0 0 M1314.64 1619.89 L1314.64 1600.6 L1320.5 1600.6 L1320.5 1650.12 L1314.64 1650.12 L1314.64 1644.78 Q1312.79 1647.96 1309.96 1649.52 Q1307.16 1651.05 1303.21 1651.05 Q1296.75 1651.05 1292.68 1645.89 Q1288.64 1640.73 1288.64 1632.33 Q1288.64 1623.93 1292.68 1618.77 Q1296.75 1613.62 1303.21 1613.62 Q1307.16 1613.62 1309.96 1615.18 Q1312.79 1616.7 1314.64 1619.89 M1294.68 1632.33 Q1294.68 1638.79 1297.33 1642.48 Q1300 1646.15 1304.65 1646.15 Q1309.29 1646.15 1311.97 1642.48 Q1314.64 1638.79 1314.64 1632.33 Q1314.64 1625.87 1311.97 1622.21 Q1309.29 1618.52 1304.65 1618.52 Q1300 1618.52 1297.33 1622.21 Q1294.68 1625.87 1294.68 1632.33 Z" fill="#000000" fill-rule="evenodd" fill-opacity="1" /><path clip-path="url(#clip230)" d="M 0 0 M1355.28 1615.53 L1355.28 1621.06 Q1352.8 1619.79 1350.13 1619.15 Q1347.46 1618.52 1344.59 1618.52 Q1340.23 1618.52 1338.03 1619.85 Q1335.87 1621.19 1335.87 1623.87 Q1335.87 1625.9 1337.43 1627.08 Q1338.99 1628.23 1343.7 1629.28 L1345.7 1629.72 Q1351.94 1631.06 1354.55 1633.51 Q1357.19 1635.93 1357.19 1640.29 Q1357.19 1645.25 1353.25 1648.15 Q1349.33 1651.05 1342.46 1651.05 Q1339.59 1651.05 1336.47 1650.47 Q1333.39 1649.93 1329.95 1648.82 L1329.95 1642.77 Q1333.2 1644.46 1336.35 1645.32 Q1339.5 1646.15 1342.59 1646.15 Q1346.72 1646.15 1348.95 1644.74 Q1351.18 1643.31 1351.18 1640.73 Q1351.18 1638.35 1349.56 1637.07 Q1347.96 1635.8 1342.52 1634.62 L1340.48 1634.15 Q1335.04 1633 1332.62 1630.64 Q1330.2 1628.26 1330.2 1624.12 Q1330.2 1619.09 1333.77 1616.35 Q1337.33 1613.62 1343.89 1613.62 Q1347.14 1613.62 1350 1614.09 Q1352.87 1614.57 1355.28 1615.53 Z" fill="#000000" fill-rule="evenodd" fill-opacity="1" /><polyline clip-path="url(#clip232)" style="stroke:#000000; stroke-width:2; stroke-opacity:0.1; fill:none" points="
  102.74,1485.53 2352.76,1485.53 
  "/>
<polyline clip-path="url(#clip232)" style="stroke:#000000; stroke-width:2; stroke-opacity:0.1; fill:none" points="
  102.74,1270.22 2352.76,1270.22 
  "/>
<polyline clip-path="url(#clip232)" style="stroke:#000000; stroke-width:2; stroke-opacity:0.1; fill:none" points="
  102.74,1054.92 2352.76,1054.92 
  "/>
<polyline clip-path="url(#clip232)" style="stroke:#000000; stroke-width:2; stroke-opacity:0.1; fill:none" points="
  102.74,839.618 2352.76,839.618 
  "/>
<polyline clip-path="url(#clip232)" style="stroke:#000000; stroke-width:2; stroke-opacity:0.1; fill:none" points="
  102.74,624.316 2352.76,624.316 
  "/>
<polyline clip-path="url(#clip232)" style="stroke:#000000; stroke-width:2; stroke-opacity:0.1; fill:none" points="
  102.74,409.014 2352.76,409.014 
  "/>
<polyline clip-path="url(#clip232)" style="stroke:#000000; stroke-width:2; stroke-opacity:0.1; fill:none" points="
  102.74,193.711 2352.76,193.711 
  "/>
<polyline clip-path="url(#clip230)" style="stroke:#000000; stroke-width:4; stroke-opacity:1; fill:none" points="
  102.74,1505.26 102.74,47.2441 
  "/>
<polyline clip-path="url(#clip230)" style="stroke:#000000; stroke-width:4; stroke-opacity:1; fill:none" points="
  102.74,1485.53 129.74,1485.53 
  "/>
<polyline clip-path="url(#clip230)" style="stroke:#000000; stroke-width:4; stroke-opacity:1; fill:none" points="
  102.74,1270.22 129.74,1270.22 
  "/>
<polyline clip-path="url(#clip230)" style="stroke:#000000; stroke-width:4; stroke-opacity:1; fill:none" points="
  102.74,1054.92 129.74,1054.92 
  "/>
<polyline clip-path="url(#clip230)" style="stroke:#000000; stroke-width:4; stroke-opacity:1; fill:none" points="
  102.74,839.618 129.74,839.618 
  "/>
<polyline clip-path="url(#clip230)" style="stroke:#000000; stroke-width:4; stroke-opacity:1; fill:none" points="
  102.74,624.316 129.74,624.316 
  "/>
<polyline clip-path="url(#clip230)" style="stroke:#000000; stroke-width:4; stroke-opacity:1; fill:none" points="
  102.74,409.014 129.74,409.014 
  "/>
<polyline clip-path="url(#clip230)" style="stroke:#000000; stroke-width:4; stroke-opacity:1; fill:none" points="
  102.74,193.711 129.74,193.711 
  "/>
<path clip-path="url(#clip230)" d="M 0 0 M54.7958 1471.32 Q51.1847 1471.32 49.356 1474.89 Q47.5504 1478.43 47.5504 1485.56 Q47.5504 1492.67 49.356 1496.23 Q51.1847 1499.77 54.7958 1499.77 Q58.43 1499.77 60.2356 1496.23 Q62.0643 1492.67 62.0643 1485.56 Q62.0643 1478.43 60.2356 1474.89 Q58.43 1471.32 54.7958 1471.32 M54.7958 1467.62 Q60.6059 1467.62 63.6615 1472.23 Q66.7402 1476.81 66.7402 1485.56 Q66.7402 1494.29 63.6615 1498.89 Q60.6059 1503.48 54.7958 1503.48 Q48.9856 1503.48 45.9069 1498.89 Q42.8514 1494.29 42.8514 1485.56 Q42.8514 1476.81 45.9069 1472.23 Q48.9856 1467.62 54.7958 1467.62 Z" fill="#000000" fill-rule="evenodd" fill-opacity="1" /><path clip-path="url(#clip230)" d="M 0 0 M15.4441 1283.57 L23.083 1283.57 L23.083 1257.2 L14.7728 1258.87 L14.7728 1254.61 L23.0367 1252.94 L27.7126 1252.94 L27.7126 1283.57 L35.3514 1283.57 L35.3514 1287.5 L15.4441 1287.5 L15.4441 1283.57 Z" fill="#000000" fill-rule="evenodd" fill-opacity="1" /><path clip-path="url(#clip230)" d="M 0 0 M54.7958 1256.02 Q51.1847 1256.02 49.356 1259.59 Q47.5504 1263.13 47.5504 1270.26 Q47.5504 1277.36 49.356 1280.93 Q51.1847 1284.47 54.7958 1284.47 Q58.43 1284.47 60.2356 1280.93 Q62.0643 1277.36 62.0643 1270.26 Q62.0643 1263.13 60.2356 1259.59 Q58.43 1256.02 54.7958 1256.02 M54.7958 1252.32 Q60.6059 1252.32 63.6615 1256.92 Q66.7402 1261.51 66.7402 1270.26 Q66.7402 1278.98 63.6615 1283.59 Q60.6059 1288.17 54.7958 1288.17 Q48.9856 1288.17 45.9069 1283.59 Q42.8514 1278.98 42.8514 1270.26 Q42.8514 1261.51 45.9069 1256.92 Q48.9856 1252.32 54.7958 1252.32 Z" fill="#000000" fill-rule="evenodd" fill-opacity="1" /><path clip-path="url(#clip230)" d="M 0 0 M18.6617 1068.27 L34.9811 1068.27 L34.9811 1072.2 L13.0367 1072.2 L13.0367 1068.27 Q15.6988 1065.51 20.2821 1060.88 Q24.8885 1056.23 26.0691 1054.89 Q28.3144 1052.36 29.1941 1050.63 Q30.0968 1048.87 30.0968 1047.18 Q30.0968 1044.42 28.1524 1042.69 Q26.2311 1040.95 23.1293 1040.95 Q20.9302 1040.95 18.4765 1041.71 Q16.046 1042.48 13.2682 1044.03 L13.2682 1039.31 Q16.0923 1038.17 18.546 1037.59 Q20.9997 1037.02 23.0367 1037.02 Q28.407 1037.02 31.6015 1039.7 Q34.7959 1042.39 34.7959 1046.88 Q34.7959 1049.01 33.9857 1050.93 Q33.1987 1052.83 31.0922 1055.42 Q30.5135 1056.09 27.4117 1059.31 Q24.3098 1062.5 18.6617 1068.27 Z" fill="#000000" fill-rule="evenodd" fill-opacity="1" /><path clip-path="url(#clip230)" d="M 0 0 M54.7958 1040.72 Q51.1847 1040.72 49.356 1044.28 Q47.5504 1047.83 47.5504 1054.96 Q47.5504 1062.06 49.356 1065.63 Q51.1847 1069.17 54.7958 1069.17 Q58.43 1069.17 60.2356 1065.63 Q62.0643 1062.06 62.0643 1054.96 Q62.0643 1047.83 60.2356 1044.28 Q58.43 1040.72 54.7958 1040.72 M54.7958 1037.02 Q60.6059 1037.02 63.6615 1041.62 Q66.7402 1046.21 66.7402 1054.96 Q66.7402 1063.68 63.6615 1068.29 Q60.6059 1072.87 54.7958 1072.87 Q48.9856 1072.87 45.9069 1068.29 Q42.8514 1063.68 42.8514 1054.96 Q42.8514 1046.21 45.9069 1041.62 Q48.9856 1037.02 54.7958 1037.02 Z" fill="#000000" fill-rule="evenodd" fill-opacity="1" /><path clip-path="url(#clip230)" d="M 0 0 M28.8005 838.264 Q32.157 838.982 34.032 841.25 Q35.9301 843.519 35.9301 846.852 Q35.9301 851.968 32.4116 854.769 Q28.8931 857.57 22.4117 857.57 Q20.2358 857.57 17.921 857.13 Q15.6293 856.713 13.1756 855.857 L13.1756 851.343 Q15.1201 852.477 17.4349 853.056 Q19.7497 853.634 22.2728 853.634 Q26.6709 853.634 28.9626 851.898 Q31.2774 850.162 31.2774 846.852 Q31.2774 843.797 29.1246 842.084 Q26.995 840.347 23.1756 840.347 L19.1478 840.347 L19.1478 836.505 L23.3608 836.505 Q26.8098 836.505 28.6385 835.139 Q30.4672 833.75 30.4672 831.158 Q30.4672 828.496 28.5691 827.084 Q26.6941 825.648 23.1756 825.648 Q21.2543 825.648 19.0552 826.065 Q16.8562 826.482 14.2173 827.361 L14.2173 823.195 Q16.8793 822.454 19.1941 822.084 Q21.5321 821.713 23.5922 821.713 Q28.9163 821.713 32.0181 824.144 Q35.12 826.551 35.12 830.672 Q35.12 833.542 33.4764 835.533 Q31.8329 837.5 28.8005 838.264 Z" fill="#000000" fill-rule="evenodd" fill-opacity="1" /><path clip-path="url(#clip230)" d="M 0 0 M54.7958 825.417 Q51.1847 825.417 49.356 828.982 Q47.5504 832.523 47.5504 839.653 Q47.5504 846.759 49.356 850.324 Q51.1847 853.866 54.7958 853.866 Q58.43 853.866 60.2356 850.324 Q62.0643 846.759 62.0643 839.653 Q62.0643 832.523 60.2356 828.982 Q58.43 825.417 54.7958 825.417 M54.7958 821.713 Q60.6059 821.713 63.6615 826.32 Q66.7402 830.903 66.7402 839.653 Q66.7402 848.38 63.6615 852.986 Q60.6059 857.57 54.7958 857.57 Q48.9856 857.57 45.9069 852.986 Q42.8514 848.38 42.8514 839.653 Q42.8514 830.903 45.9069 826.32 Q48.9856 821.713 54.7958 821.713 Z" fill="#000000" fill-rule="evenodd" fill-opacity="1" /><path clip-path="url(#clip230)" d="M 0 0 M27.4811 611.11 L15.6756 629.559 L27.4811 629.559 L27.4811 611.11 M26.2543 607.036 L32.1339 607.036 L32.1339 629.559 L37.0644 629.559 L37.0644 633.448 L32.1339 633.448 L32.1339 641.596 L27.4811 641.596 L27.4811 633.448 L11.8793 633.448 L11.8793 628.934 L26.2543 607.036 Z" fill="#000000" fill-rule="evenodd" fill-opacity="1" /><path clip-path="url(#clip230)" d="M 0 0 M54.7958 610.115 Q51.1847 610.115 49.356 613.679 Q47.5504 617.221 47.5504 624.351 Q47.5504 631.457 49.356 635.022 Q51.1847 638.564 54.7958 638.564 Q58.43 638.564 60.2356 635.022 Q62.0643 631.457 62.0643 624.351 Q62.0643 617.221 60.2356 613.679 Q58.43 610.115 54.7958 610.115 M54.7958 606.411 Q60.6059 606.411 63.6615 611.017 Q66.7402 615.601 66.7402 624.351 Q66.7402 633.077 63.6615 637.684 Q60.6059 642.267 54.7958 642.267 Q48.9856 642.267 45.9069 637.684 Q42.8514 633.077 42.8514 624.351 Q42.8514 615.601 45.9069 611.017 Q48.9856 606.411 54.7958 606.411 Z" fill="#000000" fill-rule="evenodd" fill-opacity="1" /><path clip-path="url(#clip230)" d="M 0 0 M14.6803 391.734 L33.0366 391.734 L33.0366 395.669 L18.9626 395.669 L18.9626 404.141 Q19.9811 403.794 20.9997 403.632 Q22.0182 403.446 23.0367 403.446 Q28.8237 403.446 32.2033 406.618 Q35.5829 409.789 35.5829 415.206 Q35.5829 420.784 32.1107 423.886 Q28.6385 426.965 22.3191 426.965 Q20.1432 426.965 17.8747 426.594 Q15.6293 426.224 13.2219 425.483 L13.2219 420.784 Q15.3052 421.919 17.5275 422.474 Q19.7497 423.03 22.2265 423.03 Q26.2311 423.03 28.5691 420.923 Q30.907 418.817 30.907 415.206 Q30.907 411.595 28.5691 409.488 Q26.2311 407.382 22.2265 407.382 Q20.3515 407.382 18.4765 407.798 Q16.6247 408.215 14.6803 409.095 L14.6803 391.734 Z" fill="#000000" fill-rule="evenodd" fill-opacity="1" /><path clip-path="url(#clip230)" d="M 0 0 M54.7958 394.812 Q51.1847 394.812 49.356 398.377 Q47.5504 401.919 47.5504 409.048 Q47.5504 416.155 49.356 419.719 Q51.1847 423.261 54.7958 423.261 Q58.43 423.261 60.2356 419.719 Q62.0643 416.155 62.0643 409.048 Q62.0643 401.919 60.2356 398.377 Q58.43 394.812 54.7958 394.812 M54.7958 391.109 Q60.6059 391.109 63.6615 395.715 Q66.7402 400.298 66.7402 409.048 Q66.7402 417.775 63.6615 422.382 Q60.6059 426.965 54.7958 426.965 Q48.9856 426.965 45.9069 422.382 Q42.8514 417.775 42.8514 409.048 Q42.8514 400.298 45.9069 395.715 Q48.9856 391.109 54.7958 391.109 Z" fill="#000000" fill-rule="evenodd" fill-opacity="1" /><path clip-path="url(#clip230)" d="M 0 0 M25.2126 191.848 Q22.0645 191.848 20.2126 194 Q18.3839 196.153 18.3839 199.903 Q18.3839 203.63 20.2126 205.806 Q22.0645 207.959 25.2126 207.959 Q28.3607 207.959 30.1894 205.806 Q32.0413 203.63 32.0413 199.903 Q32.0413 196.153 30.1894 194 Q28.3607 191.848 25.2126 191.848 M34.495 177.195 L34.495 181.454 Q32.7357 180.621 30.9302 180.181 Q29.1478 179.741 27.3885 179.741 Q22.7589 179.741 20.3052 182.866 Q17.8747 185.991 17.5275 192.311 Q18.8932 190.297 20.9534 189.232 Q23.0135 188.144 25.4904 188.144 Q30.6987 188.144 33.7079 191.315 Q36.7403 194.463 36.7403 199.903 Q36.7403 205.227 33.5922 208.445 Q30.4441 211.662 25.2126 211.662 Q19.2173 211.662 16.046 207.079 Q12.8747 202.473 12.8747 193.746 Q12.8747 185.551 16.7636 180.69 Q20.6524 175.806 27.2033 175.806 Q28.9626 175.806 30.745 176.153 Q32.5505 176.501 34.495 177.195 Z" fill="#000000" fill-rule="evenodd" fill-opacity="1" /><path clip-path="url(#clip230)" d="M 0 0 M54.7958 179.51 Q51.1847 179.51 49.356 183.075 Q47.5504 186.616 47.5504 193.746 Q47.5504 200.852 49.356 204.417 Q51.1847 207.959 54.7958 207.959 Q58.43 207.959 60.2356 204.417 Q62.0643 200.852 62.0643 193.746 Q62.0643 186.616 60.2356 183.075 Q58.43 179.51 54.7958 179.51 M54.7958 175.806 Q60.6059 175.806 63.6615 180.413 Q66.7402 184.996 66.7402 193.746 Q66.7402 202.473 63.6615 207.079 Q60.6059 211.662 54.7958 211.662 Q48.9856 211.662 45.9069 207.079 Q42.8514 202.473 42.8514 193.746 Q42.8514 184.996 45.9069 180.413 Q48.9856 175.806 54.7958 175.806 Z" fill="#000000" fill-rule="evenodd" fill-opacity="1" /><path clip-path="url(#clip230)" d="M 0 0 M-85.8967 906.081 L-85.8967 865.881 L-80.4858 865.881 L-80.4858 882.75 L-38.3767 882.75 L-38.3767 889.211 L-80.4858 889.211 L-80.4858 906.081 L-85.8967 906.081 Z" fill="#000000" fill-rule="evenodd" fill-opacity="1" /><path clip-path="url(#clip230)" d="M 0 0 M-74.0246 861.934 L-74.0246 856.078 L-38.3767 856.078 L-38.3767 861.934 L-74.0246 861.934 M-87.9019 861.934 L-87.9019 856.078 L-80.4858 856.078 L-80.4858 861.934 L-87.9019 861.934 Z" fill="#000000" fill-rule="evenodd" fill-opacity="1" /><path clip-path="url(#clip230)" d="M 0 0 M-67.1815 816.069 Q-71.1282 813.873 -73.0061 810.818 Q-74.884 807.762 -74.884 803.625 Q-74.884 798.055 -70.9691 795.031 Q-67.086 792.007 -59.8927 792.007 L-38.3767 792.007 L-38.3767 797.895 L-59.7018 797.895 Q-64.8262 797.895 -67.3088 799.71 Q-69.7914 801.524 -69.7914 805.248 Q-69.7914 809.799 -66.7677 812.441 Q-63.744 815.083 -58.5241 815.083 L-38.3767 815.083 L-38.3767 820.971 L-59.7018 820.971 Q-64.858 820.971 -67.3088 822.785 Q-69.7914 824.6 -69.7914 828.387 Q-69.7914 832.875 -66.7359 835.517 Q-63.7122 838.158 -58.5241 838.158 L-38.3767 838.158 L-38.3767 844.047 L-74.0246 844.047 L-74.0246 838.158 L-68.4865 838.158 Q-71.7648 836.153 -73.3244 833.352 Q-74.884 830.551 -74.884 826.7 Q-74.884 822.817 -72.9106 820.112 Q-70.9372 817.374 -67.1815 816.069 Z" fill="#000000" fill-rule="evenodd" fill-opacity="1" /><path clip-path="url(#clip230)" d="M 0 0 M-57.6648 749.834 L-54.8002 749.834 L-54.8002 776.761 Q-48.7528 776.379 -45.5699 773.133 Q-42.4189 769.854 -42.4189 764.03 Q-42.4189 760.656 -43.2464 757.505 Q-44.074 754.322 -45.7291 751.203 L-40.1909 751.203 Q-38.8541 754.354 -38.1539 757.664 Q-37.4536 760.974 -37.4536 764.38 Q-37.4536 772.91 -42.4189 777.907 Q-47.3841 782.872 -55.8505 782.872 Q-64.6034 782.872 -69.7278 778.162 Q-74.884 773.419 -74.884 765.398 Q-74.884 758.205 -70.237 754.036 Q-65.6219 749.834 -57.6648 749.834 M-59.3835 755.691 Q-64.1896 755.754 -67.0542 758.396 Q-69.9187 761.006 -69.9187 765.335 Q-69.9187 770.236 -67.1497 773.196 Q-64.3806 776.125 -59.3517 776.57 L-59.3835 755.691 Z" fill="#000000" fill-rule="evenodd" fill-opacity="1" /><path clip-path="url(#clip230)" d="M 0 0 M-87.8382 705.433 Q-80.5176 709.699 -73.3562 711.767 Q-66.1948 713.836 -58.8424 713.836 Q-51.49 713.836 -44.2649 711.767 Q-37.0717 709.667 -29.783 705.433 L-29.783 710.526 Q-37.2627 715.3 -44.4877 717.687 Q-51.7128 720.043 -58.8424 720.043 Q-65.9402 720.043 -73.1334 717.687 Q-80.3267 715.332 -87.8382 710.526 L-87.8382 705.433 Z" fill="#000000" fill-rule="evenodd" fill-opacity="1" /><path clip-path="url(#clip230)" d="M 0 0 M-72.9743 671.345 L-67.4361 671.345 Q-68.7093 673.828 -69.3458 676.501 Q-69.9824 679.175 -69.9824 682.04 Q-69.9824 686.4 -68.6456 688.596 Q-67.3088 690.761 -64.6352 690.761 Q-62.5982 690.761 -61.4205 689.201 Q-60.2747 687.641 -59.2243 682.931 L-58.7787 680.926 Q-57.442 674.687 -54.9912 672.077 Q-52.5722 669.435 -48.2117 669.435 Q-43.2464 669.435 -40.35 673.382 Q-37.4536 677.297 -37.4536 684.172 Q-37.4536 687.037 -38.0265 690.156 Q-38.5676 693.243 -39.6816 696.681 L-45.7291 696.681 Q-44.0421 693.434 -43.1828 690.283 Q-42.3552 687.132 -42.3552 684.045 Q-42.3552 679.907 -43.7557 677.679 Q-45.188 675.451 -47.7661 675.451 Q-50.1532 675.451 -51.4264 677.074 Q-52.6995 678.666 -53.8772 684.108 L-54.3546 686.145 Q-55.5004 691.588 -57.8557 694.007 Q-60.2429 696.426 -64.3806 696.426 Q-69.4095 696.426 -72.1467 692.861 Q-74.884 689.296 -74.884 682.74 Q-74.884 679.493 -74.4066 676.629 Q-73.9291 673.764 -72.9743 671.345 Z" fill="#000000" fill-rule="evenodd" fill-opacity="1" /><path clip-path="url(#clip230)" d="M 0 0 M-87.8382 661.033 L-87.8382 655.94 Q-80.3267 651.166 -73.1334 648.811 Q-65.9402 646.423 -58.8424 646.423 Q-51.7128 646.423 -44.4877 648.811 Q-37.2627 651.166 -29.783 655.94 L-29.783 661.033 Q-37.0717 656.799 -44.2649 654.731 Q-51.49 652.63 -58.8424 652.63 Q-66.1948 652.63 -73.3562 654.731 Q-80.5176 656.799 -87.8382 661.033 Z" fill="#000000" fill-rule="evenodd" fill-opacity="1" /><polyline clip-path="url(#clip232)" style="stroke:#009af9; stroke-width:4; stroke-opacity:1; fill:none" points="
  166.42,1464 188.764,1444.01 233.451,1413.42 322.826,1362.73 501.576,1257.46 859.076,1059 1216.58,902.311 1574.08,771.884 1931.58,646.525 2289.08,623.341 
  
  "/>
<circle clip-path="url(#clip232)" cx="166.42" cy="1464" r="14" fill="#009af9" fill-rule="evenodd" fill-opacity="1" stroke="#000000" stroke-opacity="1" stroke-width="3.2"/>
<circle clip-path="url(#clip232)" cx="188.764" cy="1444.01" r="14" fill="#009af9" fill-rule="evenodd" fill-opacity="1" stroke="#000000" stroke-opacity="1" stroke-width="3.2"/>
<circle clip-path="url(#clip232)" cx="233.451" cy="1413.42" r="14" fill="#009af9" fill-rule="evenodd" fill-opacity="1" stroke="#000000" stroke-opacity="1" stroke-width="3.2"/>
<circle clip-path="url(#clip232)" cx="322.826" cy="1362.73" r="14" fill="#009af9" fill-rule="evenodd" fill-opacity="1" stroke="#000000" stroke-opacity="1" stroke-width="3.2"/>
<circle clip-path="url(#clip232)" cx="501.576" cy="1257.46" r="14" fill="#009af9" fill-rule="evenodd" fill-opacity="1" stroke="#000000" stroke-opacity="1" stroke-width="3.2"/>
<circle clip-path="url(#clip232)" cx="859.076" cy="1059" r="14" fill="#009af9" fill-rule="evenodd" fill-opacity="1" stroke="#000000" stroke-opacity="1" stroke-width="3.2"/>
<circle clip-path="url(#clip232)" cx="1216.58" cy="902.311" r="14" fill="#009af9" fill-rule="evenodd" fill-opacity="1" stroke="#000000" stroke-opacity="1" stroke-width="3.2"/>
<circle clip-path="url(#clip232)" cx="1574.08" cy="771.884" r="14" fill="#009af9" fill-rule="evenodd" fill-opacity="1" stroke="#000000" stroke-opacity="1" stroke-width="3.2"/>
<circle clip-path="url(#clip232)" cx="1931.58" cy="646.525" r="14" fill="#009af9" fill-rule="evenodd" fill-opacity="1" stroke="#000000" stroke-opacity="1" stroke-width="3.2"/>
<circle clip-path="url(#clip232)" cx="2289.08" cy="623.341" r="14" fill="#009af9" fill-rule="evenodd" fill-opacity="1" stroke="#000000" stroke-opacity="1" stroke-width="3.2"/>
<polyline clip-path="url(#clip232)" style="stroke:#e26f46; stroke-width:4; stroke-opacity:1; fill:none" points="
  166.42,1464 188.764,1435.08 233.451,1383.46 322.826,1305.71 501.576,1185.32 859.076,905.716 1216.58,645.338 1574.08,440.895 1931.58,307.195 2289.08,88.5087 
  
  "/>
<path clip-path="url(#clip232)" d="M150.42 1448 L150.42 1480 L182.42 1480 L182.42 1448 L150.42 1448 Z" fill="#e26f46" fill-rule="evenodd" fill-opacity="1" stroke="#000000" stroke-opacity="1" stroke-width="3.2"/>
<path clip-path="url(#clip232)" d="M172.764 1419.08 L172.764 1451.08 L204.764 1451.08 L204.764 1419.08 L172.764 1419.08 Z" fill="#e26f46" fill-rule="evenodd" fill-opacity="1" stroke="#000000" stroke-opacity="1" stroke-width="3.2"/>
<path clip-path="url(#clip232)" d="M217.451 1367.46 L217.451 1399.46 L249.451 1399.46 L249.451 1367.46 L217.451 1367.46 Z" fill="#e26f46" fill-rule="evenodd" fill-opacity="1" stroke="#000000" stroke-opacity="1" stroke-width="3.2"/>
<path clip-path="url(#clip232)" d="M306.826 1289.71 L306.826 1321.71 L338.826 1321.71 L338.826 1289.71 L306.826 1289.71 Z" fill="#e26f46" fill-rule="evenodd" fill-opacity="1" stroke="#000000" stroke-opacity="1" stroke-width="3.2"/>
<path clip-path="url(#clip232)" d="M485.576 1169.32 L485.576 1201.32 L517.576 1201.32 L517.576 1169.32 L485.576 1169.32 Z" fill="#e26f46" fill-rule="evenodd" fill-opacity="1" stroke="#000000" stroke-opacity="1" stroke-width="3.2"/>
<path clip-path="url(#clip232)" d="M843.076 889.716 L843.076 921.716 L875.076 921.716 L875.076 889.716 L843.076 889.716 Z" fill="#e26f46" fill-rule="evenodd" fill-opacity="1" stroke="#000000" stroke-opacity="1" stroke-width="3.2"/>
<path clip-path="url(#clip232)" d="M1200.58 629.338 L1200.58 661.338 L1232.58 661.338 L1232.58 629.338 L1200.58 629.338 Z" fill="#e26f46" fill-rule="evenodd" fill-opacity="1" stroke="#000000" stroke-opacity="1" stroke-width="3.2"/>
<path clip-path="url(#clip232)" d="M1558.08 424.895 L1558.08 456.895 L1590.08 456.895 L1590.08 424.895 L1558.08 424.895 Z" fill="#e26f46" fill-rule="evenodd" fill-opacity="1" stroke="#000000" stroke-opacity="1" stroke-width="3.2"/>
<path clip-path="url(#clip232)" d="M1915.58 291.195 L1915.58 323.195 L1947.58 323.195 L1947.58 291.195 L1915.58 291.195 Z" fill="#e26f46" fill-rule="evenodd" fill-opacity="1" stroke="#000000" stroke-opacity="1" stroke-width="3.2"/>
<path clip-path="url(#clip232)" d="M2273.08 72.5087 L2273.08 104.509 L2305.08 104.509 L2305.08 72.5087 L2273.08 72.5087 Z" fill="#e26f46" fill-rule="evenodd" fill-opacity="1" stroke="#000000" stroke-opacity="1" stroke-width="3.2"/>
<path clip-path="url(#clip230)" d="
M177.741 277.285 L689.223 277.285 L689.223 95.8446 L177.741 95.8446  Z
  " fill="#ffffff" fill-rule="evenodd" fill-opacity="1"/>
<polyline clip-path="url(#clip230)" style="stroke:#000000; stroke-width:4; stroke-opacity:1; fill:none" points="
  177.741,277.285 689.223,277.285 689.223,95.8446 177.741,95.8446 177.741,277.285 
  "/>
<polyline clip-path="url(#clip230)" style="stroke:#009af9; stroke-width:4; stroke-opacity:1; fill:none" points="
  202.741,156.325 352.742,156.325 
  "/>
<circle clip-path="url(#clip230)" cx="277.741" cy="156.325" r="23" fill="#009af9" fill-rule="evenodd" fill-opacity="1" stroke="#000000" stroke-opacity="1" stroke-width="5.12"/>
<path clip-path="url(#clip230)" d="M 0 0 M378.413 169.669 L386.052 169.669 L386.052 143.304 L377.742 144.971 L377.742 140.711 L386.006 139.045 L390.682 139.045 L390.682 169.669 L398.321 169.669 L398.321 173.605 L378.413 173.605 L378.413 169.669 Z" fill="#000000" fill-rule="evenodd" fill-opacity="1" /><path clip-path="url(#clip230)" d="M 0 0 M417.765 142.123 Q414.154 142.123 412.325 145.688 Q410.52 149.23 410.52 156.359 Q410.52 163.466 412.325 167.031 Q414.154 170.572 417.765 170.572 Q421.399 170.572 423.205 167.031 Q425.033 163.466 425.033 156.359 Q425.033 149.23 423.205 145.688 Q421.399 142.123 417.765 142.123 M417.765 138.42 Q423.575 138.42 426.631 143.026 Q429.709 147.609 429.709 156.359 Q429.709 165.086 426.631 169.693 Q423.575 174.276 417.765 174.276 Q411.955 174.276 408.876 169.693 Q405.821 165.086 405.821 156.359 Q405.821 147.609 408.876 143.026 Q411.955 138.42 417.765 138.42 Z" fill="#000000" fill-rule="evenodd" fill-opacity="1" /><path clip-path="url(#clip230)" d="M 0 0 M441.955 169.669 L458.274 169.669 L458.274 173.605 L436.33 173.605 L436.33 169.669 Q438.992 166.915 443.575 162.285 Q448.182 157.632 449.362 156.29 Q451.607 153.767 452.487 152.031 Q453.39 150.271 453.39 148.582 Q453.39 145.827 451.445 144.091 Q449.524 142.355 446.422 142.355 Q444.223 142.355 441.77 143.119 Q439.339 143.883 436.561 145.433 L436.561 140.711 Q439.385 139.577 441.839 138.998 Q444.293 138.42 446.33 138.42 Q451.7 138.42 454.894 141.105 Q458.089 143.79 458.089 148.281 Q458.089 150.41 457.279 152.332 Q456.492 154.23 454.385 156.822 Q453.806 157.494 450.705 160.711 Q447.603 163.906 441.955 169.669 Z" fill="#000000" fill-rule="evenodd" fill-opacity="1" /><path clip-path="url(#clip230)" d="M 0 0 M480.936 143.119 L469.13 161.568 L480.936 161.568 L480.936 143.119 M479.709 139.045 L485.589 139.045 L485.589 161.568 L490.519 161.568 L490.519 165.457 L485.589 165.457 L485.589 173.605 L480.936 173.605 L480.936 165.457 L465.334 165.457 L465.334 160.943 L479.709 139.045 Z" fill="#000000" fill-rule="evenodd" fill-opacity="1" /><path clip-path="url(#clip230)" d="M 0 0 M519.2 147.679 L509.825 160.295 L519.686 173.605 L514.663 173.605 L507.116 163.419 L499.57 173.605 L494.547 173.605 L504.616 160.04 L495.403 147.679 L500.427 147.679 L507.302 156.915 L514.177 147.679 L519.2 147.679 Z" fill="#000000" fill-rule="evenodd" fill-opacity="1" /><path clip-path="url(#clip230)" d="M 0 0 M525.126 139.045 L547.348 139.045 L547.348 141.035 L534.801 173.605 L529.917 173.605 L541.723 142.98 L525.126 142.98 L525.126 139.045 Z" fill="#000000" fill-rule="evenodd" fill-opacity="1" /><path clip-path="url(#clip230)" d="M 0 0 M567.047 154.461 Q563.898 154.461 562.047 156.614 Q560.218 158.767 560.218 162.517 Q560.218 166.244 562.047 168.419 Q563.898 170.572 567.047 170.572 Q570.195 170.572 572.023 168.419 Q573.875 166.244 573.875 162.517 Q573.875 158.767 572.023 156.614 Q570.195 154.461 567.047 154.461 M576.329 139.809 L576.329 144.068 Q574.57 143.234 572.764 142.795 Q570.982 142.355 569.223 142.355 Q564.593 142.355 562.139 145.48 Q559.709 148.605 559.361 154.924 Q560.727 152.91 562.787 151.845 Q564.848 150.758 567.324 150.758 Q572.533 150.758 575.542 153.929 Q578.574 157.077 578.574 162.517 Q578.574 167.841 575.426 171.058 Q572.278 174.276 567.047 174.276 Q561.051 174.276 557.88 169.693 Q554.709 165.086 554.709 156.359 Q554.709 148.165 558.598 143.304 Q562.486 138.42 569.037 138.42 Q570.797 138.42 572.579 138.767 Q574.385 139.114 576.329 139.809 Z" fill="#000000" fill-rule="evenodd" fill-opacity="1" /><path clip-path="url(#clip230)" d="M 0 0 M596.63 157.193 Q593.296 157.193 591.375 158.975 Q589.477 160.757 589.477 163.882 Q589.477 167.007 591.375 168.79 Q593.296 170.572 596.63 170.572 Q599.963 170.572 601.884 168.79 Q603.806 166.984 603.806 163.882 Q603.806 160.757 601.884 158.975 Q599.986 157.193 596.63 157.193 M591.954 155.202 Q588.945 154.461 587.255 152.401 Q585.588 150.341 585.588 147.378 Q585.588 143.234 588.528 140.827 Q591.491 138.42 596.63 138.42 Q601.792 138.42 604.732 140.827 Q607.671 143.234 607.671 147.378 Q607.671 150.341 605.982 152.401 Q604.315 154.461 601.329 155.202 Q604.708 155.989 606.583 158.281 Q608.482 160.572 608.482 163.882 Q608.482 168.906 605.403 171.591 Q602.347 174.276 596.63 174.276 Q590.912 174.276 587.834 171.591 Q584.778 168.906 584.778 163.882 Q584.778 160.572 586.676 158.281 Q588.574 155.989 591.954 155.202 M590.241 147.818 Q590.241 150.503 591.908 152.008 Q593.597 153.512 596.63 153.512 Q599.639 153.512 601.329 152.008 Q603.042 150.503 603.042 147.818 Q603.042 145.133 601.329 143.628 Q599.639 142.123 596.63 142.123 Q593.597 142.123 591.908 143.628 Q590.241 145.133 590.241 147.818 Z" fill="#000000" fill-rule="evenodd" fill-opacity="1" /><polyline clip-path="url(#clip230)" style="stroke:#e26f46; stroke-width:4; stroke-opacity:1; fill:none" points="
  202.741,216.805 352.742,216.805 
  "/>
<path clip-path="url(#clip230)" d="M252.141 191.205 L252.141 242.405 L303.341 242.405 L303.341 191.205 L252.141 191.205 Z" fill="#e26f46" fill-rule="evenodd" fill-opacity="1" stroke="#000000" stroke-opacity="1" stroke-width="5.12"/>
<path clip-path="url(#clip230)" d="M 0 0 M378.413 230.149 L386.052 230.149 L386.052 203.784 L377.742 205.451 L377.742 201.191 L386.006 199.525 L390.682 199.525 L390.682 230.149 L398.321 230.149 L398.321 234.085 L378.413 234.085 L378.413 230.149 Z" fill="#000000" fill-rule="evenodd" fill-opacity="1" /><path clip-path="url(#clip230)" d="M 0 0 M407.904 233.367 L407.904 229.108 Q409.663 229.941 411.469 230.381 Q413.274 230.821 415.01 230.821 Q419.64 230.821 422.071 227.719 Q424.524 224.594 424.871 218.251 Q423.529 220.242 421.469 221.307 Q419.409 222.372 416.909 222.372 Q411.723 222.372 408.691 219.247 Q405.682 216.099 405.682 210.659 Q405.682 205.335 408.83 202.117 Q411.978 198.9 417.209 198.9 Q423.205 198.9 426.353 203.506 Q429.524 208.089 429.524 216.839 Q429.524 225.011 425.635 229.895 Q421.77 234.756 415.219 234.756 Q413.459 234.756 411.654 234.409 Q409.848 234.061 407.904 233.367 M417.209 218.714 Q420.358 218.714 422.186 216.562 Q424.038 214.409 424.038 210.659 Q424.038 206.932 422.186 204.779 Q420.358 202.603 417.209 202.603 Q414.061 202.603 412.209 204.779 Q410.381 206.932 410.381 210.659 Q410.381 214.409 412.209 216.562 Q414.061 218.714 417.209 218.714 Z" fill="#000000" fill-rule="evenodd" fill-opacity="1" /><path clip-path="url(#clip230)" d="M 0 0 M441.955 230.149 L458.274 230.149 L458.274 234.085 L436.33 234.085 L436.33 230.149 Q438.992 227.395 443.575 222.765 Q448.182 218.112 449.362 216.77 Q451.607 214.247 452.487 212.511 Q453.39 210.751 453.39 209.062 Q453.39 206.307 451.445 204.571 Q449.524 202.835 446.422 202.835 Q444.223 202.835 441.77 203.599 Q439.339 204.363 436.561 205.913 L436.561 201.191 Q439.385 200.057 441.839 199.478 Q444.293 198.9 446.33 198.9 Q451.7 198.9 454.894 201.585 Q458.089 204.27 458.089 208.761 Q458.089 210.89 457.279 212.812 Q456.492 214.71 454.385 217.302 Q453.806 217.974 450.705 221.191 Q447.603 224.386 441.955 230.149 Z" fill="#000000" fill-rule="evenodd" fill-opacity="1" /><path clip-path="url(#clip230)" d="M 0 0 M478.089 202.603 Q474.478 202.603 472.649 206.168 Q470.843 209.71 470.843 216.839 Q470.843 223.946 472.649 227.511 Q474.478 231.052 478.089 231.052 Q481.723 231.052 483.529 227.511 Q485.357 223.946 485.357 216.839 Q485.357 209.71 483.529 206.168 Q481.723 202.603 478.089 202.603 M478.089 198.9 Q483.899 198.9 486.954 203.506 Q490.033 208.089 490.033 216.839 Q490.033 225.566 486.954 230.173 Q483.899 234.756 478.089 234.756 Q472.279 234.756 469.2 230.173 Q466.144 225.566 466.144 216.839 Q466.144 208.089 469.2 203.506 Q472.279 198.9 478.089 198.9 Z" fill="#000000" fill-rule="evenodd" fill-opacity="1" /><path clip-path="url(#clip230)" d="M 0 0 M519.2 208.159 L509.825 220.775 L519.686 234.085 L514.663 234.085 L507.116 223.899 L499.57 234.085 L494.547 234.085 L504.616 220.52 L495.403 208.159 L500.427 208.159 L507.302 217.395 L514.177 208.159 L519.2 208.159 Z" fill="#000000" fill-rule="evenodd" fill-opacity="1" /><path clip-path="url(#clip230)" d="M 0 0 M527.116 230.149 L534.755 230.149 L534.755 203.784 L526.445 205.451 L526.445 201.191 L534.709 199.525 L539.385 199.525 L539.385 230.149 L547.024 230.149 L547.024 234.085 L527.116 234.085 L527.116 230.149 Z" fill="#000000" fill-rule="evenodd" fill-opacity="1" /><path clip-path="url(#clip230)" d="M 0 0 M566.468 202.603 Q562.857 202.603 561.028 206.168 Q559.223 209.71 559.223 216.839 Q559.223 223.946 561.028 227.511 Q562.857 231.052 566.468 231.052 Q570.102 231.052 571.908 227.511 Q573.736 223.946 573.736 216.839 Q573.736 209.71 571.908 206.168 Q570.102 202.603 566.468 202.603 M566.468 198.9 Q572.278 198.9 575.334 203.506 Q578.412 208.089 578.412 216.839 Q578.412 225.566 575.334 230.173 Q572.278 234.756 566.468 234.756 Q560.658 234.756 557.579 230.173 Q554.524 225.566 554.524 216.839 Q554.524 208.089 557.579 203.506 Q560.658 198.9 566.468 198.9 Z" fill="#000000" fill-rule="evenodd" fill-opacity="1" /><path clip-path="url(#clip230)" d="M 0 0 M590.658 230.149 L606.977 230.149 L606.977 234.085 L585.033 234.085 L585.033 230.149 Q587.695 227.395 592.278 222.765 Q596.884 218.112 598.065 216.77 Q600.31 214.247 601.19 212.511 Q602.093 210.751 602.093 209.062 Q602.093 206.307 600.148 204.571 Q598.227 202.835 595.125 202.835 Q592.926 202.835 590.472 203.599 Q588.042 204.363 585.264 205.913 L585.264 201.191 Q588.088 200.057 590.542 199.478 Q592.996 198.9 595.033 198.9 Q600.403 198.9 603.597 201.585 Q606.792 204.27 606.792 208.761 Q606.792 210.89 605.982 212.812 Q605.195 214.71 603.088 217.302 Q602.509 217.974 599.408 221.191 Q596.306 224.386 590.658 230.149 Z" fill="#000000" fill-rule="evenodd" fill-opacity="1" /><path clip-path="url(#clip230)" d="M 0 0 M629.639 203.599 L617.833 222.048 L629.639 222.048 L629.639 203.599 M628.412 199.525 L634.292 199.525 L634.292 222.048 L639.222 222.048 L639.222 225.937 L634.292 225.937 L634.292 234.085 L629.639 234.085 L629.639 225.937 L614.037 225.937 L614.037 221.423 L628.412 199.525 Z" fill="#000000" fill-rule="evenodd" fill-opacity="1" /></svg>
