<?xml version="1.0" encoding="utf-8"?>
<svg xmlns="http://www.w3.org/2000/svg" xmlns:xlink="http://www.w3.org/1999/xlink" width="600" height="400" viewBox="0 0 2400 1600">
<defs>
  <clipPath id="clip200">
    <rect x="0" y="0" width="2400" height="1600"/>
  </clipPath>
</defs>
<path clip-path="url(#clip200)" d="
M0 1600 L2400 1600 L2400 0 L0 0  Z
  " fill="#ffffff" fill-rule="evenodd" fill-opacity="1"/>
<defs>
  <clipPath id="clip201">
    <rect x="480" y="0" width="1681" height="1600"/>
  </clipPath>
</defs>
<path clip-path="url(#clip200)" d="
M102.74 1505.26 L2352.76 1505.26 L2352.76 47.2441 L102.74 47.2441  Z
  " fill="#ffffff" fill-rule="evenodd" fill-opacity="1"/>
<defs>
  <clipPath id="clip202">
    <rect x="102" y="47" width="2251" height="1459"/>
  </clipPath>
</defs>
<polyline clip-path="url(#clip202)" style="stroke:#000000; stroke-width:2; stroke-opacity:0.1; fill:none" points="
  166.42,1505.26 166.42,47.2441 
  "/>
<polyline clip-path="url(#clip202)" style="stroke:#000000; stroke-width:2; stroke-opacity:0.1; fill:none" points="
  188.764,1505.26 188.764,47.2441 
  "/>
<polyline clip-path="url(#clip202)" style="stroke:#000000; stroke-width:2; stroke-opacity:0.1; fill:none" points="
  233.451,1505.26 233.451,47.2441 
  "/>
<polyline clip-path="url(#clip202)" style="stroke:#000000; stroke-width:2; stroke-opacity:0.1; fill:none" points="
  322.826,1505.26 322.826,47.2441 
  "/>
<polyline clip-path="url(#clip202)" style="stroke:#000000; stroke-width:2; stroke-opacity:0.1; fill:none" points="
  501.576,1505.26 501.576,47.2441 
  "/>
<polyline clip-path="url(#clip202)" style="stroke:#000000; stroke-width:2; stroke-opacity:0.1; fill:none" points="
  859.076,1505.26 859.076,47.2441 
  "/>
<polyline clip-path="url(#clip202)" style="stroke:#000000; stroke-width:2; stroke-opacity:0.1; fill:none" points="
  1216.58,1505.26 1216.58,47.2441 
  "/>
<polyline clip-path="url(#clip202)" style="stroke:#000000; stroke-width:2; stroke-opacity:0.1; fill:none" points="
  1574.08,1505.26 1574.08,47.2441 
  "/>
<polyline clip-path="url(#clip202)" style="stroke:#000000; stroke-width:2; stroke-opacity:0.1; fill:none" points="
  1931.58,1505.26 1931.58,47.2441 
  "/>
<polyline clip-path="url(#clip202)" style="stroke:#000000; stroke-width:2; stroke-opacity:0.1; fill:none" points="
  2289.08,1505.26 2289.08,47.2441 
  "/>
<polyline clip-path="url(#clip200)" style="stroke:#000000; stroke-width:4; stroke-opacity:1; fill:none" points="
  102.74,1505.26 2352.76,1505.26 
  "/>
<polyline clip-path="url(#clip200)" style="stroke:#000000; stroke-width:4; stroke-opacity:1; fill:none" points="
  166.42,1505.26 166.42,1487.76 
  "/>
<polyline clip-path="url(#clip200)" style="stroke:#000000; stroke-width:4; stroke-opacity:1; fill:none" points="
  188.764,1505.26 188.764,1487.76 
  "/>
<polyline clip-path="url(#clip200)" style="stroke:#000000; stroke-width:4; stroke-opacity:1; fill:none" points="
  233.451,1505.26 233.451,1487.76 
  "/>
<polyline clip-path="url(#clip200)" style="stroke:#000000; stroke-width:4; stroke-opacity:1; fill:none" points="
  322.826,1505.26 322.826,1487.76 
  "/>
<polyline clip-path="url(#clip200)" style="stroke:#000000; stroke-width:4; stroke-opacity:1; fill:none" points="
  501.576,1505.26 501.576,1487.76 
  "/>
<polyline clip-path="url(#clip200)" style="stroke:#000000; stroke-width:4; stroke-opacity:1; fill:none" points="
  859.076,1505.26 859.076,1487.76 
  "/>
<polyline clip-path="url(#clip200)" style="stroke:#000000; stroke-width:4; stroke-opacity:1; fill:none" points="
  1216.58,1505.26 1216.58,1487.76 
  "/>
<polyline clip-path="url(#clip200)" style="stroke:#000000; stroke-width:4; stroke-opacity:1; fill:none" points="
  1574.08,1505.26 1574.08,1487.76 
  "/>
<polyline clip-path="url(#clip200)" style="stroke:#000000; stroke-width:4; stroke-opacity:1; fill:none" points="
  1931.58,1505.26 1931.58,1487.76 
  "/>
<polyline clip-path="url(#clip200)" style="stroke:#000000; stroke-width:4; stroke-opacity:1; fill:none" points="
  2289.08,1505.26 2289.08,1487.76 
  "/>
<path clip-path="url(#clip200)" d="M 0 0 M156.802 1562 L164.441 1562 L164.441 1535.63 L156.131 1537.3 L156.131 1533.04 L164.394 1531.37 L169.07 1531.37 L169.07 1562 L176.709 1562 L176.709 1565.93 L156.802 1565.93 L156.802 1562 Z" fill="#000000" fill-rule="evenodd" fill-opacity="1" /><path clip-path="url(#clip200)" d="M 0 0 M183.416 1562 L199.736 1562 L199.736 1565.93 L177.791 1565.93 L177.791 1562 Q180.453 1559.24 185.037 1554.61 Q189.643 1549.96 190.824 1548.62 Q193.069 1546.09 193.949 1544.36 Q194.852 1542.6 194.852 1540.91 Q194.852 1538.15 192.907 1536.42 Q190.986 1534.68 187.884 1534.68 Q185.685 1534.68 183.231 1535.45 Q180.801 1536.21 178.023 1537.76 L178.023 1533.04 Q180.847 1531.9 183.301 1531.33 Q185.754 1530.75 187.791 1530.75 Q193.162 1530.75 196.356 1533.43 Q199.551 1536.12 199.551 1540.61 Q199.551 1542.74 198.74 1544.66 Q197.953 1546.56 195.847 1549.15 Q195.268 1549.82 192.166 1553.04 Q189.065 1556.23 183.416 1562 Z" fill="#000000" fill-rule="evenodd" fill-opacity="1" /><path clip-path="url(#clip200)" d="M 0 0 M236.46 1535.45 L224.655 1553.89 L236.46 1553.89 L236.46 1535.45 M235.233 1531.37 L241.113 1531.37 L241.113 1553.89 L246.044 1553.89 L246.044 1557.78 L241.113 1557.78 L241.113 1565.93 L236.46 1565.93 L236.46 1557.78 L220.859 1557.78 L220.859 1553.27 L235.233 1531.37 Z" fill="#000000" fill-rule="evenodd" fill-opacity="1" /><path clip-path="url(#clip200)" d="M 0 0 M322.826 1549.52 Q319.493 1549.52 317.572 1551.3 Q315.673 1553.08 315.673 1556.21 Q315.673 1559.33 317.572 1561.12 Q319.493 1562.9 322.826 1562.9 Q326.159 1562.9 328.081 1561.12 Q330.002 1559.31 330.002 1556.21 Q330.002 1553.08 328.081 1551.3 Q326.183 1549.52 322.826 1549.52 M318.15 1547.53 Q315.141 1546.79 313.451 1544.73 Q311.784 1542.67 311.784 1539.71 Q311.784 1535.56 314.724 1533.15 Q317.687 1530.75 322.826 1530.75 Q327.988 1530.75 330.928 1533.15 Q333.868 1535.56 333.868 1539.71 Q333.868 1542.67 332.178 1544.73 Q330.511 1546.79 327.525 1547.53 Q330.905 1548.32 332.78 1550.61 Q334.678 1552.9 334.678 1556.21 Q334.678 1561.23 331.599 1563.92 Q328.544 1566.6 322.826 1566.6 Q317.109 1566.6 314.03 1563.92 Q310.974 1561.23 310.974 1556.21 Q310.974 1552.9 312.872 1550.61 Q314.771 1548.32 318.15 1547.53 M316.437 1540.14 Q316.437 1542.83 318.104 1544.33 Q319.794 1545.84 322.826 1545.84 Q325.835 1545.84 327.525 1544.33 Q329.238 1542.83 329.238 1540.14 Q329.238 1537.46 327.525 1535.96 Q325.835 1534.45 322.826 1534.45 Q319.794 1534.45 318.104 1535.96 Q316.437 1537.46 316.437 1540.14 Z" fill="#000000" fill-rule="evenodd" fill-opacity="1" /><path clip-path="url(#clip200)" d="M 0 0 M476.183 1562 L483.822 1562 L483.822 1535.63 L475.511 1537.3 L475.511 1533.04 L483.775 1531.37 L488.451 1531.37 L488.451 1562 L496.09 1562 L496.09 1565.93 L476.183 1565.93 L476.183 1562 Z" fill="#000000" fill-rule="evenodd" fill-opacity="1" /><path clip-path="url(#clip200)" d="M 0 0 M516.113 1546.79 Q512.965 1546.79 511.113 1548.94 Q509.284 1551.09 509.284 1554.84 Q509.284 1558.57 511.113 1560.75 Q512.965 1562.9 516.113 1562.9 Q519.261 1562.9 521.09 1560.75 Q522.942 1558.57 522.942 1554.84 Q522.942 1551.09 521.09 1548.94 Q519.261 1546.79 516.113 1546.79 M525.395 1532.14 L525.395 1536.39 Q523.636 1535.56 521.831 1535.12 Q520.048 1534.68 518.289 1534.68 Q513.659 1534.68 511.206 1537.81 Q508.775 1540.93 508.428 1547.25 Q509.794 1545.24 511.854 1544.17 Q513.914 1543.08 516.391 1543.08 Q521.599 1543.08 524.608 1546.26 Q527.641 1549.4 527.641 1554.84 Q527.641 1560.17 524.493 1563.39 Q521.345 1566.6 516.113 1566.6 Q510.118 1566.6 506.946 1562.02 Q503.775 1557.41 503.775 1548.69 Q503.775 1540.49 507.664 1535.63 Q511.553 1530.75 518.104 1530.75 Q519.863 1530.75 521.645 1531.09 Q523.451 1531.44 525.395 1532.14 Z" fill="#000000" fill-rule="evenodd" fill-opacity="1" /><path clip-path="url(#clip200)" d="M 0 0 M848.717 1547.3 Q852.074 1548.02 853.949 1550.28 Q855.847 1552.55 855.847 1555.89 Q855.847 1561 852.328 1563.8 Q848.81 1566.6 842.329 1566.6 Q840.153 1566.6 837.838 1566.16 Q835.546 1565.75 833.092 1564.89 L833.092 1560.38 Q835.037 1561.51 837.352 1562.09 Q839.667 1562.67 842.19 1562.67 Q846.588 1562.67 848.879 1560.93 Q851.194 1559.2 851.194 1555.89 Q851.194 1552.83 849.041 1551.12 Q846.912 1549.38 843.092 1549.38 L839.065 1549.38 L839.065 1545.54 L843.278 1545.54 Q846.727 1545.54 848.555 1544.17 Q850.384 1542.78 850.384 1540.19 Q850.384 1537.53 848.486 1536.12 Q846.611 1534.68 843.092 1534.68 Q841.171 1534.68 838.972 1535.1 Q836.773 1535.52 834.134 1536.39 L834.134 1532.23 Q836.796 1531.49 839.111 1531.12 Q841.449 1530.75 843.509 1530.75 Q848.833 1530.75 851.935 1533.18 Q855.037 1535.58 855.037 1539.71 Q855.037 1542.58 853.393 1544.57 Q851.75 1546.53 848.717 1547.3 Z" fill="#000000" fill-rule="evenodd" fill-opacity="1" /><path clip-path="url(#clip200)" d="M 0 0 M868.74 1562 L885.06 1562 L885.06 1565.93 L863.115 1565.93 L863.115 1562 Q865.777 1559.24 870.361 1554.61 Q874.967 1549.96 876.148 1548.62 Q878.393 1546.09 879.273 1544.36 Q880.176 1542.6 880.176 1540.91 Q880.176 1538.15 878.231 1536.42 Q876.31 1534.68 873.208 1534.68 Q871.009 1534.68 868.555 1535.45 Q866.125 1536.21 863.347 1537.76 L863.347 1533.04 Q866.171 1531.9 868.625 1531.33 Q871.078 1530.75 873.115 1530.75 Q878.486 1530.75 881.68 1533.43 Q884.875 1536.12 884.875 1540.61 Q884.875 1542.74 884.064 1544.66 Q883.277 1546.56 881.171 1549.15 Q880.592 1549.82 877.49 1553.04 Q874.389 1556.23 868.74 1562 Z" fill="#000000" fill-rule="evenodd" fill-opacity="1" /><path clip-path="url(#clip200)" d="M 0 0 M1204.79 1535.45 L1192.99 1553.89 L1204.79 1553.89 L1204.79 1535.45 M1203.57 1531.37 L1209.45 1531.37 L1209.45 1553.89 L1214.38 1553.89 L1214.38 1557.78 L1209.45 1557.78 L1209.45 1565.93 L1204.79 1565.93 L1204.79 1557.78 L1189.19 1557.78 L1189.19 1553.27 L1203.57 1531.37 Z" fill="#000000" fill-rule="evenodd" fill-opacity="1" /><path clip-path="url(#clip200)" d="M 0 0 M1232.11 1549.52 Q1228.78 1549.52 1226.85 1551.3 Q1224.96 1553.08 1224.96 1556.21 Q1224.96 1559.33 1226.85 1561.12 Q1228.78 1562.9 1232.11 1562.9 Q1235.44 1562.9 1237.36 1561.12 Q1239.28 1559.31 1239.28 1556.21 Q1239.28 1553.08 1237.36 1551.3 Q1235.46 1549.52 1232.11 1549.52 M1227.43 1547.53 Q1224.42 1546.79 1222.73 1544.73 Q1221.07 1542.67 1221.07 1539.71 Q1221.07 1535.56 1224.01 1533.15 Q1226.97 1530.75 1232.11 1530.75 Q1237.27 1530.75 1240.21 1533.15 Q1243.15 1535.56 1243.15 1539.71 Q1243.15 1542.67 1241.46 1544.73 Q1239.79 1546.79 1236.81 1547.53 Q1240.19 1548.32 1242.06 1550.61 Q1243.96 1552.9 1243.96 1556.21 Q1243.96 1561.23 1240.88 1563.92 Q1237.83 1566.6 1232.11 1566.6 Q1226.39 1566.6 1223.31 1563.92 Q1220.26 1561.23 1220.26 1556.21 Q1220.26 1552.9 1222.15 1550.61 Q1224.05 1548.32 1227.43 1547.53 M1225.72 1540.14 Q1225.72 1542.83 1227.39 1544.33 Q1229.08 1545.84 1232.11 1545.84 Q1235.12 1545.84 1236.81 1544.33 Q1238.52 1542.83 1238.52 1540.14 Q1238.52 1537.46 1236.81 1535.96 Q1235.12 1534.45 1232.11 1534.45 Q1229.08 1534.45 1227.39 1535.96 Q1225.72 1537.46 1225.72 1540.14 Z" fill="#000000" fill-rule="evenodd" fill-opacity="1" /><path clip-path="url(#clip200)" d="M 0 0 M1559.24 1546.79 Q1556.09 1546.79 1554.24 1548.94 Q1552.41 1551.09 1552.41 1554.84 Q1552.41 1558.57 1554.24 1560.75 Q1556.09 1562.9 1559.24 1562.9 Q1562.39 1562.9 1564.22 1560.75 Q1566.07 1558.57 1566.07 1554.84 Q1566.07 1551.09 1564.22 1548.94 Q1562.39 1546.79 1559.24 1546.79 M1568.52 1532.14 L1568.52 1536.39 Q1566.76 1535.56 1564.96 1535.12 Q1563.17 1534.68 1561.41 1534.68 Q1556.78 1534.68 1554.33 1537.81 Q1551.9 1540.93 1551.55 1547.25 Q1552.92 1545.24 1554.98 1544.17 Q1557.04 1543.08 1559.52 1543.08 Q1564.72 1543.08 1567.73 1546.26 Q1570.77 1549.4 1570.77 1554.84 Q1570.77 1560.17 1567.62 1563.39 Q1564.47 1566.6 1559.24 1566.6 Q1553.24 1566.6 1550.07 1562.02 Q1546.9 1557.41 1546.9 1548.69 Q1546.9 1540.49 1550.79 1535.63 Q1554.68 1530.75 1561.23 1530.75 Q1562.99 1530.75 1564.77 1531.09 Q1566.58 1531.44 1568.52 1532.14 Z" fill="#000000" fill-rule="evenodd" fill-opacity="1" /><path clip-path="url(#clip200)" d="M 0 0 M1591.67 1535.45 L1579.86 1553.89 L1591.67 1553.89 L1591.67 1535.45 M1590.44 1531.37 L1596.32 1531.37 L1596.32 1553.89 L1601.25 1553.89 L1601.25 1557.78 L1596.32 1557.78 L1596.32 1565.93 L1591.67 1565.93 L1591.67 1557.78 L1576.07 1557.78 L1576.07 1553.27 L1590.44 1531.37 Z" fill="#000000" fill-rule="evenodd" fill-opacity="1" /><path clip-path="url(#clip200)" d="M 0 0 M1916.45 1549.52 Q1913.12 1549.52 1911.19 1551.3 Q1909.3 1553.08 1909.3 1556.21 Q1909.3 1559.33 1911.19 1561.12 Q1913.12 1562.9 1916.45 1562.9 Q1919.78 1562.9 1921.7 1561.12 Q1923.62 1559.31 1923.62 1556.21 Q1923.62 1553.08 1921.7 1551.3 Q1919.81 1549.52 1916.45 1549.52 M1911.77 1547.53 Q1908.76 1546.79 1907.07 1544.73 Q1905.41 1542.67 1905.41 1539.71 Q1905.41 1535.56 1908.35 1533.15 Q1911.31 1530.75 1916.45 1530.75 Q1921.61 1530.75 1924.55 1533.15 Q1927.49 1535.56 1927.49 1539.71 Q1927.49 1542.67 1925.8 1544.73 Q1924.13 1546.79 1921.15 1547.53 Q1924.53 1548.32 1926.4 1550.61 Q1928.3 1552.9 1928.3 1556.21 Q1928.3 1561.23 1925.22 1563.92 Q1922.17 1566.6 1916.45 1566.6 Q1910.73 1566.6 1907.65 1563.92 Q1904.6 1561.23 1904.6 1556.21 Q1904.6 1552.9 1906.5 1550.61 Q1908.39 1548.32 1911.77 1547.53 M1910.06 1540.14 Q1910.06 1542.83 1911.73 1544.33 Q1913.42 1545.84 1916.45 1545.84 Q1919.46 1545.84 1921.15 1544.33 Q1922.86 1542.83 1922.86 1540.14 Q1922.86 1537.46 1921.15 1535.96 Q1919.46 1534.45 1916.45 1534.45 Q1913.42 1534.45 1911.73 1535.96 Q1910.06 1537.46 1910.06 1540.14 Z" fill="#000000" fill-rule="evenodd" fill-opacity="1" /><path clip-path="url(#clip200)" d="M 0 0 M1946.61 1534.45 Q1943 1534.45 1941.17 1538.02 Q1939.37 1541.56 1939.37 1548.69 Q1939.37 1555.79 1941.17 1559.36 Q1943 1562.9 1946.61 1562.9 Q1950.25 1562.9 1952.05 1559.36 Q1953.88 1555.79 1953.88 1548.69 Q1953.88 1541.56 1952.05 1538.02 Q1950.25 1534.45 1946.61 1534.45 M1946.61 1530.75 Q1952.42 1530.75 1955.48 1535.35 Q1958.56 1539.94 1958.56 1548.69 Q1958.56 1557.41 1955.48 1562.02 Q1952.42 1566.6 1946.61 1566.6 Q1940.8 1566.6 1937.72 1562.02 Q1934.67 1557.41 1934.67 1548.69 Q1934.67 1539.94 1937.72 1535.35 Q1940.8 1530.75 1946.61 1530.75 Z" fill="#000000" fill-rule="evenodd" fill-opacity="1" /><path clip-path="url(#clip200)" d="M 0 0 M2264.12 1565.21 L2264.12 1560.96 Q2265.88 1561.79 2267.69 1562.23 Q2269.49 1562.67 2271.23 1562.67 Q2275.86 1562.67 2278.29 1559.57 Q2280.74 1556.44 2281.09 1550.1 Q2279.75 1552.09 2277.69 1553.15 Q2275.63 1554.22 2273.13 1554.22 Q2267.94 1554.22 2264.91 1551.09 Q2261.9 1547.95 2261.9 1542.51 Q2261.9 1537.18 2265.05 1533.96 Q2268.2 1530.75 2273.43 1530.75 Q2279.42 1530.75 2282.57 1535.35 Q2285.74 1539.94 2285.74 1548.69 Q2285.74 1556.86 2281.85 1561.74 Q2277.99 1566.6 2271.44 1566.6 Q2269.68 1566.6 2267.87 1566.26 Q2266.07 1565.91 2264.12 1565.21 M2273.43 1550.56 Q2276.58 1550.56 2278.4 1548.41 Q2280.26 1546.26 2280.26 1542.51 Q2280.26 1538.78 2278.4 1536.63 Q2276.58 1534.45 2273.43 1534.45 Q2270.28 1534.45 2268.43 1536.63 Q2266.6 1538.78 2266.6 1542.51 Q2266.6 1546.26 2268.43 1548.41 Q2270.28 1550.56 2273.43 1550.56 Z" fill="#000000" fill-rule="evenodd" fill-opacity="1" /><path clip-path="url(#clip200)" d="M 0 0 M2304.72 1546.79 Q2301.58 1546.79 2299.72 1548.94 Q2297.9 1551.09 2297.9 1554.84 Q2297.9 1558.57 2299.72 1560.75 Q2301.58 1562.9 2304.72 1562.9 Q2307.87 1562.9 2309.7 1560.75 Q2311.55 1558.57 2311.55 1554.84 Q2311.55 1551.09 2309.7 1548.94 Q2307.87 1546.79 2304.72 1546.79 M2314.01 1532.14 L2314.01 1536.39 Q2312.25 1535.56 2310.44 1535.12 Q2308.66 1534.68 2306.9 1534.68 Q2302.27 1534.68 2299.82 1537.81 Q2297.39 1540.93 2297.04 1547.25 Q2298.4 1545.24 2300.47 1544.17 Q2302.53 1543.08 2305 1543.08 Q2310.21 1543.08 2313.22 1546.26 Q2316.25 1549.4 2316.25 1554.84 Q2316.25 1560.17 2313.1 1563.39 Q2309.96 1566.6 2304.72 1566.6 Q2298.73 1566.6 2295.56 1562.02 Q2292.39 1557.41 2292.39 1548.69 Q2292.39 1540.49 2296.28 1535.63 Q2300.16 1530.75 2306.72 1530.75 Q2308.47 1530.75 2310.26 1531.09 Q2312.06 1531.44 2314.01 1532.14 Z" fill="#000000" fill-rule="evenodd" fill-opacity="1" /><path clip-path="url(#clip200)" d="M 0 0 M1098.3 1602.6 L1138.5 1602.6 L1138.5 1608.01 L1121.63 1608.01 L1121.63 1650.12 L1115.17 1650.12 L1115.17 1608.01 L1098.3 1608.01 L1098.3 1602.6 Z" fill="#000000" fill-rule="evenodd" fill-opacity="1" /><path clip-path="url(#clip200)" d="M 0 0 M1174.09 1628.61 L1174.09 1650.12 L1168.23 1650.12 L1168.23 1628.8 Q1168.23 1623.74 1166.26 1621.22 Q1164.28 1618.71 1160.34 1618.71 Q1155.59 1618.71 1152.86 1621.73 Q1150.12 1624.76 1150.12 1629.98 L1150.12 1650.12 L1144.23 1650.12 L1144.23 1600.6 L1150.12 1600.6 L1150.12 1620.01 Q1152.22 1616.8 1155.05 1615.21 Q1157.92 1613.62 1161.64 1613.62 Q1167.78 1613.62 1170.93 1617.44 Q1174.09 1621.22 1174.09 1628.61 Z" fill="#000000" fill-rule="evenodd" fill-opacity="1" /><path clip-path="url(#clip200)" d="M 0 0 M1206.42 1619.95 Q1205.44 1619.38 1204.26 1619.12 Q1203.11 1618.84 1201.71 1618.84 Q1196.75 1618.84 1194.07 1622.08 Q1191.43 1625.3 1191.43 1631.35 L1191.43 1650.12 L1185.54 1650.12 L1185.54 1614.48 L1191.43 1614.48 L1191.43 1620.01 Q1193.28 1616.77 1196.24 1615.21 Q1199.2 1613.62 1203.43 1613.62 Q1204.04 1613.62 1204.77 1613.71 Q1205.5 1613.78 1206.39 1613.93 L1206.42 1619.95 Z" fill="#000000" fill-rule="evenodd" fill-opacity="1" /><path clip-path="url(#clip200)" d="M 0 0 M1241.63 1630.84 L1241.63 1633.7 L1214.7 1633.7 Q1215.08 1639.75 1218.33 1642.93 Q1221.61 1646.08 1227.43 1646.08 Q1230.8 1646.08 1233.95 1645.25 Q1237.14 1644.43 1240.26 1642.77 L1240.26 1648.31 Q1237.11 1649.65 1233.8 1650.35 Q1230.49 1651.05 1227.08 1651.05 Q1218.55 1651.05 1213.55 1646.08 Q1208.59 1641.12 1208.59 1632.65 Q1208.59 1623.9 1213.3 1618.77 Q1218.04 1613.62 1226.06 1613.62 Q1233.25 1613.62 1237.42 1618.26 Q1241.63 1622.88 1241.63 1630.84 M1235.77 1629.12 Q1235.71 1624.31 1233.06 1621.45 Q1230.45 1618.58 1226.12 1618.58 Q1221.22 1618.58 1218.26 1621.35 Q1215.33 1624.12 1214.89 1629.15 L1235.77 1629.12 Z" fill="#000000" fill-rule="evenodd" fill-opacity="1" /><path clip-path="url(#clip200)" d="M 0 0 M1267.44 1632.2 Q1260.34 1632.2 1257.6 1633.83 Q1254.87 1635.45 1254.87 1639.37 Q1254.87 1642.48 1256.9 1644.33 Q1258.97 1646.15 1262.5 1646.15 Q1267.37 1646.15 1270.3 1642.71 Q1273.26 1639.24 1273.26 1633.51 L1273.26 1632.2 L1267.44 1632.2 M1279.12 1629.79 L1279.12 1650.12 L1273.26 1650.12 L1273.26 1644.71 Q1271.26 1647.96 1268.27 1649.52 Q1265.27 1651.05 1260.95 1651.05 Q1255.47 1651.05 1252.22 1647.99 Q1249.01 1644.9 1249.01 1639.75 Q1249.01 1633.73 1253.02 1630.68 Q1257.06 1627.62 1265.05 1627.62 L1273.26 1627.62 L1273.26 1627.05 Q1273.26 1623.01 1270.59 1620.81 Q1267.95 1618.58 1263.14 1618.58 Q1260.09 1618.58 1257.19 1619.31 Q1254.29 1620.05 1251.62 1621.51 L1251.62 1616.1 Q1254.83 1614.86 1257.86 1614.25 Q1260.88 1613.62 1263.75 1613.62 Q1271.48 1613.62 1275.3 1617.63 Q1279.12 1621.64 1279.12 1629.79 Z" fill="#000000" fill-rule="evenodd" fill-opacity="1" /><path clip-path="url(#clip200)" d="M 0 0 M1314.64 1619.89 L1314.64 1600.6 L1320.5 1600.6 L1320.5 1650.12 L1314.64 1650.12 L1314.64 1644.78 Q1312.79 1647.96 1309.96 1649.52 Q1307.16 1651.05 1303.21 1651.05 Q1296.75 1651.05 1292.68 1645.89 Q1288.64 1640.73 1288.64 1632.33 Q1288.64 1623.93 1292.68 1618.77 Q1296.75 1613.62 1303.21 1613.62 Q1307.16 1613.62 1309.96 1615.18 Q1312.79 1616.7 1314.64 1619.89 M1294.68 1632.33 Q1294.68 1638.79 1297.33 1642.48 Q1300 1646.15 1304.65 1646.15 Q1309.29 1646.15 1311.97 1642.48 Q1314.64 1638.79 1314.64 1632.33 Q1314.64 1625.87 1311.97 1622.21 Q1309.29 1618.52 1304.65 1618.52 Q1300 1618.52 1297.33 1622.21 Q1294.68 1625.87 1294.68 1632.33 Z" fill="#000000" fill-rule="evenodd" fill-opacity="1" /><path clip-path="url(#clip200)" d="M 0 0 M1355.28 1615.53 L1355.28 1621.06 Q1352.8 1619.79 1350.13 1619.15 Q1347.46 1618.52 1344.59 1618.52 Q1340.23 1618.52 1338.03 1619.85 Q1335.87 1621.19 1335.87 1623.87 Q1335.87 1625.9 1337.43 1627.08 Q1338.99 1628.23 1343.7 1629.28 L1345.7 1629.72 Q1351.94 1631.06 1354.55 1633.51 Q1357.19 1635.93 1357.19 1640.29 Q1357.19 1645.25 1353.25 1648.15 Q1349.33 1651.05 1342.46 1651.05 Q1339.59 1651.05 1336.47 1650.47 Q1333.39 1649.93 1329.95 1648.82 L1329.95 1642.77 Q1333.2 1644.46 1336.35 1645.32 Q1339.5 1646.15 1342.59 1646.15 Q1346.72 1646.15 1348.95 1644.74 Q1351.18 1643.31 1351.18 1640.73 Q1351.18 1638.35 1349.56 1637.07 Q1347.96 1635.8 1342.52 1634.62 L1340.48 1634.15 Q1335.04 1633 1332.62 1630.64 Q1330.2 1628.26 1330.2 1624.12 Q1330.2 1619.09 1333.77 1616.35 Q1337.33 1613.62 1343.89 1613.62 Q1347.14 1613.62 1350 1614.09 Q1352.87 1614.57 1355.28 1615.53 Z" fill="#000000" fill-rule="evenodd" fill-opacity="1" /><polyline clip-path="url(#clip202)" style="stroke:#000000; stroke-width:2; stroke-opacity:0.1; fill:none" points="
  102.74,1485.53 2352.76,1485.53 
  "/>
<polyline clip-path="url(#clip202)" style="stroke:#000000; stroke-width:2; stroke-opacity:0.1; fill:none" points="
  102.74,1095.22 2352.76,1095.22 
  "/>
<polyline clip-path="url(#clip202)" style="stroke:#000000; stroke-width:2; stroke-opacity:0.1; fill:none" points="
  102.74,704.919 2352.76,704.919 
  "/>
<polyline clip-path="url(#clip202)" style="stroke:#000000; stroke-width:2; stroke-opacity:0.1; fill:none" points="
  102.74,314.615 2352.76,314.615 
  "/>
<polyline clip-path="url(#clip200)" style="stroke:#000000; stroke-width:4; stroke-opacity:1; fill:none" points="
  102.74,1505.26 102.74,47.2441 
  "/>
<polyline clip-path="url(#clip200)" style="stroke:#000000; stroke-width:4; stroke-opacity:1; fill:none" points="
  102.74,1485.53 129.74,1485.53 
  "/>
<polyline clip-path="url(#clip200)" style="stroke:#000000; stroke-width:4; stroke-opacity:1; fill:none" points="
  102.74,1095.22 129.74,1095.22 
  "/>
<polyline clip-path="url(#clip200)" style="stroke:#000000; stroke-width:4; stroke-opacity:1; fill:none" points="
  102.74,704.919 129.74,704.919 
  "/>
<polyline clip-path="url(#clip200)" style="stroke:#000000; stroke-width:4; stroke-opacity:1; fill:none" points="
  102.74,314.615 129.74,314.615 
  "/>
<path clip-path="url(#clip200)" d="M 0 0 M54.7958 1471.32 Q51.1847 1471.32 49.356 1474.89 Q47.5504 1478.43 47.5504 1485.56 Q47.5504 1492.67 49.356 1496.23 Q51.1847 1499.77 54.7958 1499.77 Q58.43 1499.77 60.2356 1496.23 Q62.0643 1492.67 62.0643 1485.56 Q62.0643 1478.43 60.2356 1474.89 Q58.43 1471.32 54.7958 1471.32 M54.7958 1467.62 Q60.6059 1467.62 63.6615 1472.23 Q66.7402 1476.81 66.7402 1485.56 Q66.7402 1494.29 63.6615 1498.89 Q60.6059 1503.48 54.7958 1503.48 Q48.9856 1503.48 45.9069 1498.89 Q42.8514 1494.29 42.8514 1485.56 Q42.8514 1476.81 45.9069 1472.23 Q48.9856 1467.62 54.7958 1467.62 Z" fill="#000000" fill-rule="evenodd" fill-opacity="1" /><path clip-path="url(#clip200)" d="M 0 0 M-41.662 1108.57 L-25.3427 1108.57 L-25.3427 1112.5 L-47.287 1112.5 L-47.287 1108.57 Q-44.625 1105.81 -40.0417 1101.18 Q-35.4352 1096.53 -34.2547 1095.19 Q-32.0093 1092.66 -31.1297 1090.93 Q-30.2269 1089.17 -30.2269 1087.48 Q-30.2269 1084.72 -32.1713 1082.99 Q-34.0926 1081.25 -37.1945 1081.25 Q-39.3935 1081.25 -41.8472 1082.02 Q-44.2778 1082.78 -47.0555 1084.33 L-47.0555 1079.61 Q-44.2315 1078.47 -41.7778 1077.9 Q-39.3241 1077.32 -37.2871 1077.32 Q-31.9167 1077.32 -28.7223 1080 Q-25.5279 1082.69 -25.5279 1087.18 Q-25.5279 1089.31 -26.338 1091.23 Q-27.1251 1093.13 -29.2316 1095.72 Q-29.8103 1096.39 -32.9121 1099.61 Q-36.0139 1102.8 -41.662 1108.57 Z" fill="#000000" fill-rule="evenodd" fill-opacity="1" /><path clip-path="url(#clip200)" d="M 0 0 M-5.52797 1081.02 Q-9.13907 1081.02 -10.9678 1084.59 Q-12.7733 1088.13 -12.7733 1095.26 Q-12.7733 1102.36 -10.9678 1105.93 Q-9.13907 1109.47 -5.52797 1109.47 Q-1.89373 1109.47 -0.0881881 1105.93 Q1.74051 1102.36 1.74051 1095.26 Q1.74051 1088.13 -0.0881881 1084.59 Q-1.89373 1081.02 -5.52797 1081.02 M-5.52797 1077.32 Q0.28218 1077.32 3.33772 1081.92 Q6.41641 1086.51 6.41641 1095.26 Q6.41641 1103.98 3.33772 1108.59 Q0.28218 1113.17 -5.52797 1113.17 Q-11.3381 1113.17 -14.4168 1108.59 Q-17.4724 1103.98 -17.4724 1095.26 Q-17.4724 1086.51 -14.4168 1081.92 Q-11.3381 1077.32 -5.52797 1077.32 Z" fill="#000000" fill-rule="evenodd" fill-opacity="1" /><path clip-path="url(#clip200)" d="M 0 0 M24.6339 1081.02 Q21.0228 1081.02 19.1941 1084.59 Q17.3886 1088.13 17.3886 1095.26 Q17.3886 1102.36 19.1941 1105.93 Q21.0228 1109.47 24.6339 1109.47 Q28.2681 1109.47 30.0737 1105.93 Q31.9024 1102.36 31.9024 1095.26 Q31.9024 1088.13 30.0737 1084.59 Q28.2681 1081.02 24.6339 1081.02 M24.6339 1077.32 Q30.4441 1077.32 33.4996 1081.92 Q36.5783 1086.51 36.5783 1095.26 Q36.5783 1103.98 33.4996 1108.59 Q30.4441 1113.17 24.6339 1113.17 Q18.8237 1113.17 15.7451 1108.59 Q12.6895 1103.98 12.6895 1095.26 Q12.6895 1086.51 15.7451 1081.92 Q18.8237 1077.32 24.6339 1077.32 Z" fill="#000000" fill-rule="evenodd" fill-opacity="1" /><path clip-path="url(#clip200)" d="M 0 0 M54.7958 1081.02 Q51.1847 1081.02 49.356 1084.59 Q47.5504 1088.13 47.5504 1095.26 Q47.5504 1102.36 49.356 1105.93 Q51.1847 1109.47 54.7958 1109.47 Q58.43 1109.47 60.2356 1105.93 Q62.0643 1102.36 62.0643 1095.26 Q62.0643 1088.13 60.2356 1084.59 Q58.43 1081.02 54.7958 1081.02 M54.7958 1077.32 Q60.6059 1077.32 63.6615 1081.92 Q66.7402 1086.51 66.7402 1095.26 Q66.7402 1103.98 63.6615 1108.59 Q60.6059 1113.17 54.7958 1113.17 Q48.9856 1113.17 45.9069 1108.59 Q42.8514 1103.98 42.8514 1095.26 Q42.8514 1086.51 45.9069 1081.92 Q48.9856 1077.32 54.7958 1077.32 Z" fill="#000000" fill-rule="evenodd" fill-opacity="1" /><path clip-path="url(#clip200)" d="M 0 0 M-32.8426 691.713 L-44.6481 710.162 L-32.8426 710.162 L-32.8426 691.713 M-34.0695 687.639 L-28.1899 687.639 L-28.1899 710.162 L-23.2594 710.162 L-23.2594 714.051 L-28.1899 714.051 L-28.1899 722.199 L-32.8426 722.199 L-32.8426 714.051 L-48.4444 714.051 L-48.4444 709.537 L-34.0695 687.639 Z" fill="#000000" fill-rule="evenodd" fill-opacity="1" /><path clip-path="url(#clip200)" d="M 0 0 M-5.52797 690.717 Q-9.13907 690.717 -10.9678 694.282 Q-12.7733 697.824 -12.7733 704.953 Q-12.7733 712.06 -10.9678 715.625 Q-9.13907 719.166 -5.52797 719.166 Q-1.89373 719.166 -0.0881881 715.625 Q1.74051 712.06 1.74051 704.953 Q1.74051 697.824 -0.0881881 694.282 Q-1.89373 690.717 -5.52797 690.717 M-5.52797 687.014 Q0.28218 687.014 3.33772 691.62 Q6.41641 696.204 6.41641 704.953 Q6.41641 713.68 3.33772 718.287 Q0.28218 722.87 -5.52797 722.87 Q-11.3381 722.87 -14.4168 718.287 Q-17.4724 713.68 -17.4724 704.953 Q-17.4724 696.204 -14.4168 691.62 Q-11.3381 687.014 -5.52797 687.014 Z" fill="#000000" fill-rule="evenodd" fill-opacity="1" /><path clip-path="url(#clip200)" d="M 0 0 M24.6339 690.717 Q21.0228 690.717 19.1941 694.282 Q17.3886 697.824 17.3886 704.953 Q17.3886 712.06 19.1941 715.625 Q21.0228 719.166 24.6339 719.166 Q28.2681 719.166 30.0737 715.625 Q31.9024 712.06 31.9024 704.953 Q31.9024 697.824 30.0737 694.282 Q28.2681 690.717 24.6339 690.717 M24.6339 687.014 Q30.4441 687.014 33.4996 691.62 Q36.5783 696.204 36.5783 704.953 Q36.5783 713.68 33.4996 718.287 Q30.4441 722.87 24.6339 722.87 Q18.8237 722.87 15.7451 718.287 Q12.6895 713.68 12.6895 704.953 Q12.6895 696.204 15.7451 691.62 Q18.8237 687.014 24.6339 687.014 Z" fill="#000000" fill-rule="evenodd" fill-opacity="1" /><path clip-path="url(#clip200)" d="M 0 0 M54.7958 690.717 Q51.1847 690.717 49.356 694.282 Q47.5504 697.824 47.5504 704.953 Q47.5504 712.06 49.356 715.625 Q51.1847 719.166 54.7958 719.166 Q58.43 719.166 60.2356 715.625 Q62.0643 712.06 62.0643 704.953 Q62.0643 697.824 60.2356 694.282 Q58.43 690.717 54.7958 690.717 M54.7958 687.014 Q60.6059 687.014 63.6615 691.62 Q66.7402 696.204 66.7402 704.953 Q66.7402 713.68 63.6615 718.287 Q60.6059 722.87 54.7958 722.87 Q48.9856 722.87 45.9069 718.287 Q42.8514 713.68 42.8514 704.953 Q42.8514 696.204 45.9069 691.62 Q48.9856 687.014 54.7958 687.014 Z" fill="#000000" fill-rule="evenodd" fill-opacity="1" /><path clip-path="url(#clip200)" d="M 0 0 M-35.1111 312.752 Q-38.2593 312.752 -40.1111 314.905 Q-41.9398 317.058 -41.9398 320.807 Q-41.9398 324.534 -40.1111 326.71 Q-38.2593 328.863 -35.1111 328.863 Q-31.963 328.863 -30.1343 326.71 Q-28.2825 324.534 -28.2825 320.807 Q-28.2825 317.058 -30.1343 314.905 Q-31.963 312.752 -35.1111 312.752 M-25.8288 298.099 L-25.8288 302.359 Q-27.588 301.525 -29.3936 301.085 Q-31.176 300.646 -32.9352 300.646 Q-37.5648 300.646 -40.0185 303.771 Q-42.4491 306.896 -42.7963 313.215 Q-41.4306 311.201 -39.3704 310.136 Q-37.3102 309.048 -34.8334 309.048 Q-29.6251 309.048 -26.6158 312.22 Q-23.5834 315.368 -23.5834 320.807 Q-23.5834 326.132 -26.7316 329.349 Q-29.8797 332.567 -35.1111 332.567 Q-41.1065 332.567 -44.2778 327.983 Q-47.449 323.377 -47.449 314.65 Q-47.449 306.456 -43.5602 301.595 Q-39.6713 296.71 -33.1204 296.71 Q-31.3612 296.71 -29.5788 297.058 Q-27.7732 297.405 -25.8288 298.099 Z" fill="#000000" fill-rule="evenodd" fill-opacity="1" /><path clip-path="url(#clip200)" d="M 0 0 M-5.52797 300.414 Q-9.13907 300.414 -10.9678 303.979 Q-12.7733 307.521 -12.7733 314.65 Q-12.7733 321.757 -10.9678 325.321 Q-9.13907 328.863 -5.52797 328.863 Q-1.89373 328.863 -0.0881881 325.321 Q1.74051 321.757 1.74051 314.65 Q1.74051 307.521 -0.0881881 303.979 Q-1.89373 300.414 -5.52797 300.414 M-5.52797 296.71 Q0.28218 296.71 3.33772 301.317 Q6.41641 305.9 6.41641 314.65 Q6.41641 323.377 3.33772 327.983 Q0.28218 332.567 -5.52797 332.567 Q-11.3381 332.567 -14.4168 327.983 Q-17.4724 323.377 -17.4724 314.65 Q-17.4724 305.9 -14.4168 301.317 Q-11.3381 296.71 -5.52797 296.71 Z" fill="#000000" fill-rule="evenodd" fill-opacity="1" /><path clip-path="url(#clip200)" d="M 0 0 M24.6339 300.414 Q21.0228 300.414 19.1941 303.979 Q17.3886 307.521 17.3886 314.65 Q17.3886 321.757 19.1941 325.321 Q21.0228 328.863 24.6339 328.863 Q28.2681 328.863 30.0737 325.321 Q31.9024 321.757 31.9024 314.65 Q31.9024 307.521 30.0737 303.979 Q28.2681 300.414 24.6339 300.414 M24.6339 296.71 Q30.4441 296.71 33.4996 301.317 Q36.5783 305.9 36.5783 314.65 Q36.5783 323.377 33.4996 327.983 Q30.4441 332.567 24.6339 332.567 Q18.8237 332.567 15.7451 327.983 Q12.6895 323.377 12.6895 314.65 Q12.6895 305.9 15.7451 301.317 Q18.8237 296.71 24.6339 296.71 Z" fill="#000000" fill-rule="evenodd" fill-opacity="1" /><path clip-path="url(#clip200)" d="M 0 0 M54.7958 300.414 Q51.1847 300.414 49.356 303.979 Q47.5504 307.521 47.5504 314.65 Q47.5504 321.757 49.356 325.321 Q51.1847 328.863 54.7958 328.863 Q58.43 328.863 60.2356 325.321 Q62.0643 321.757 62.0643 314.65 Q62.0643 307.521 60.2356 303.979 Q58.43 300.414 54.7958 300.414 M54.7958 296.71 Q60.6059 296.71 63.6615 301.317 Q66.7402 305.9 66.7402 314.65 Q66.7402 323.377 63.6615 327.983 Q60.6059 332.567 54.7958 332.567 Q48.9856 332.567 45.9069 327.983 Q42.8514 323.377 42.8514 314.65 Q42.8514 305.9 45.9069 301.317 Q48.9856 296.71 54.7958 296.71 Z" fill="#000000" fill-rule="evenodd" fill-opacity="1" /><path clip-path="url(#clip200)" d="M 0 0 M-146.22 906.081 L-146.22 865.881 L-140.81 865.881 L-140.81 882.75 L-98.7004 882.75 L-98.7004 889.211 L-140.81 889.211 L-140.81 906.081 L-146.22 906.081 Z" fill="#000000" fill-rule="evenodd" fill-opacity="1" /><path clip-path="url(#clip200)" d="M 0 0 M-134.348 861.934 L-134.348 856.078 L-98.7004 856.078 L-98.7004 861.934 L-134.348 861.934 M-148.226 861.934 L-148.226 856.078 L-140.81 856.078 L-140.81 861.934 L-148.226 861.934 Z" fill="#000000" fill-rule="evenodd" fill-opacity="1" /><path clip-path="url(#clip200)" d="M 0 0 M-127.505 816.069 Q-131.452 813.873 -133.33 810.818 Q-135.208 807.762 -135.208 803.625 Q-135.208 798.055 -131.293 795.031 Q-127.41 792.007 -120.216 792.007 L-98.7004 792.007 L-98.7004 797.895 L-120.026 797.895 Q-125.15 797.895 -127.633 799.71 Q-130.115 801.524 -130.115 805.248 Q-130.115 809.799 -127.091 812.441 Q-124.068 815.083 -118.848 815.083 L-98.7004 815.083 L-98.7004 820.971 L-120.026 820.971 Q-125.182 820.971 -127.633 822.785 Q-130.115 824.6 -130.115 828.387 Q-130.115 832.875 -127.06 835.517 Q-124.036 838.158 -118.848 838.158 L-98.7004 838.158 L-98.7004 844.047 L-134.348 844.047 L-134.348 838.158 L-128.81 838.158 Q-132.089 836.153 -133.648 833.352 Q-135.208 830.551 -135.208 826.7 Q-135.208 822.817 -133.234 820.112 Q-131.261 817.374 -127.505 816.069 Z" fill="#000000" fill-rule="evenodd" fill-opacity="1" /><path clip-path="url(#clip200)" d="M 0 0 M-117.989 749.834 L-115.124 749.834 L-115.124 776.761 Q-109.077 776.379 -105.894 773.133 Q-102.743 769.854 -102.743 764.03 Q-102.743 760.656 -103.57 757.505 Q-104.398 754.322 -106.053 751.203 L-100.515 751.203 Q-99.1778 754.354 -98.4776 757.664 Q-97.7774 760.974 -97.7774 764.38 Q-97.7774 772.91 -102.743 777.907 Q-107.708 782.872 -116.174 782.872 Q-124.927 782.872 -130.052 778.162 Q-135.208 773.419 -135.208 765.398 Q-135.208 758.205 -130.561 754.036 Q-125.946 749.834 -117.989 749.834 M-119.707 755.691 Q-124.513 755.754 -127.378 758.396 Q-130.242 761.006 -130.242 765.335 Q-130.242 770.236 -127.473 773.196 Q-124.704 776.125 -119.675 776.57 L-119.707 755.691 Z" fill="#000000" fill-rule="evenodd" fill-opacity="1" /><path clip-path="url(#clip200)" d="M 0 0 M-148.162 705.433 Q-140.841 709.699 -133.68 711.767 Q-126.519 713.836 -119.166 713.836 Q-111.814 713.836 -104.589 711.767 Q-97.3954 709.667 -90.1067 705.433 L-90.1067 710.526 Q-97.5864 715.3 -104.811 717.687 Q-112.037 720.043 -119.166 720.043 Q-126.264 720.043 -133.457 717.687 Q-140.65 715.332 -148.162 710.526 L-148.162 705.433 Z" fill="#000000" fill-rule="evenodd" fill-opacity="1" /><path clip-path="url(#clip200)" d="M 0 0 M-133.298 671.345 L-127.76 671.345 Q-129.033 673.828 -129.67 676.501 Q-130.306 679.175 -130.306 682.04 Q-130.306 686.4 -128.969 688.596 Q-127.633 690.761 -124.959 690.761 Q-122.922 690.761 -121.744 689.201 Q-120.598 687.641 -119.548 682.931 L-119.103 680.926 Q-117.766 674.687 -115.315 672.077 Q-112.896 669.435 -108.535 669.435 Q-103.57 669.435 -100.674 673.382 Q-97.7774 677.297 -97.7774 684.172 Q-97.7774 687.037 -98.3503 690.156 Q-98.8914 693.243 -100.005 696.681 L-106.053 696.681 Q-104.366 693.434 -103.507 690.283 Q-102.679 687.132 -102.679 684.045 Q-102.679 679.907 -104.079 677.679 Q-105.512 675.451 -108.09 675.451 Q-110.477 675.451 -111.75 677.074 Q-113.023 678.666 -114.201 684.108 L-114.678 686.145 Q-115.824 691.588 -118.179 694.007 Q-120.567 696.426 -124.704 696.426 Q-129.733 696.426 -132.47 692.861 Q-135.208 689.296 -135.208 682.74 Q-135.208 679.493 -134.73 676.629 Q-134.253 673.764 -133.298 671.345 Z" fill="#000000" fill-rule="evenodd" fill-opacity="1" /><path clip-path="url(#clip200)" d="M 0 0 M-148.162 661.033 L-148.162 655.94 Q-140.65 651.166 -133.457 648.811 Q-126.264 646.423 -119.166 646.423 Q-112.037 646.423 -104.811 648.811 Q-97.5864 651.166 -90.1067 655.94 L-90.1067 661.033 Q-97.3954 656.799 -104.589 654.731 Q-111.814 652.63 -119.166 652.63 Q-126.519 652.63 -133.68 654.731 Q-140.841 656.799 -148.162 661.033 Z" fill="#000000" fill-rule="evenodd" fill-opacity="1" /><polyline clip-path="url(#clip202)" style="stroke:#009af9; stroke-width:4; stroke-opacity:1; fill:none" points="
  166.42,88.5087 188.764,889.248 233.451,1190.84 322.826,1318.25 501.576,1385.33 859.076,1433.65 1216.58,1449.73 1574.08,1456.73 1931.58,1460 2289.08,1464 
  
  "/>
<circle clip-path="url(#clip202)" cx="166.42" cy="88.5087" r="14" fill="#009af9" fill-rule="evenodd" fill-opacity="1" stroke="#000000" stroke-opacity="1" stroke-width="3.2"/>
<circle clip-path="url(#clip202)" cx="188.764" cy="889.248" r="14" fill="#009af9" fill-rule="evenodd" fill-opacity="1" stroke="#000000" stroke-opacity="1" stroke-width="3.2"/>
<circle clip-path="url(#clip202)" cx="233.451" cy="1190.84" r="14" fill="#009af9" fill-rule="evenodd" fill-opacity="1" stroke="#000000" stroke-opacity="1" stroke-width="3.2"/>
<circle clip-path="url(#clip202)" cx="322.826" cy="1318.25" r="14" fill="#009af9" fill-rule="evenodd" fill-opacity="1" stroke="#000000" stroke-opacity="1" stroke-width="3.2"/>
<circle clip-path="url(#clip202)" cx="501.576" cy="1385.33" r="14" fill="#009af9" fill-rule="evenodd" fill-opacity="1" stroke="#000000" stroke-opacity="1" stroke-width="3.2"/>
<circle clip-path="url(#clip202)" cx="859.076" cy="1433.65" r="14" fill="#009af9" fill-rule="evenodd" fill-opacity="1" stroke="#000000" stroke-opacity="1" stroke-width="3.2"/>
<circle clip-path="url(#clip202)" cx="1216.58" cy="1449.73" r="14" fill="#009af9" fill-rule="evenodd" fill-opacity="1" stroke="#000000" stroke-opacity="1" stroke-width="3.2"/>
<circle clip-path="url(#clip202)" cx="1574.08" cy="1456.73" r="14" fill="#009af9" fill-rule="evenodd" fill-opacity="1" stroke="#000000" stroke-opacity="1" stroke-width="3.2"/>
<circle clip-path="url(#clip202)" cx="1931.58" cy="1460" r="14" fill="#009af9" fill-rule="evenodd" fill-opacity="1" stroke="#000000" stroke-opacity="1" stroke-width="3.2"/>
<circle clip-path="url(#clip202)" cx="2289.08" cy="1464" r="14" fill="#009af9" fill-rule="evenodd" fill-opacity="1" stroke="#000000" stroke-opacity="1" stroke-width="3.2"/>
</svg>
