<?xml version="1.0" encoding="utf-8"?>
<svg xmlns="http://www.w3.org/2000/svg" xmlns:xlink="http://www.w3.org/1999/xlink" width="600" height="400" viewBox="0 0 2400 1600">
<defs>
  <clipPath id="clip170">
    <rect x="0" y="0" width="2400" height="1600"/>
  </clipPath>
</defs>
<path clip-path="url(#clip170)" d="
M0 1600 L2400 1600 L2400 0 L0 0  Z
  " fill="#ffffff" fill-rule="evenodd" fill-opacity="1"/>
<defs>
  <clipPath id="clip171">
    <rect x="480" y="0" width="1681" height="1600"/>
  </clipPath>
</defs>
<path clip-path="url(#clip170)" d="
M102.74 1505.26 L2352.76 1505.26 L2352.76 47.2441 L102.74 47.2441  Z
  " fill="#ffffff" fill-rule="evenodd" fill-opacity="1"/>
<defs>
  <clipPath id="clip172">
    <rect x="102" y="47" width="2251" height="1459"/>
  </clipPath>
</defs>
<polyline clip-path="url(#clip172)" style="stroke:#000000; stroke-width:2; stroke-opacity:0.1; fill:none" points="
  166.42,1505.26 166.42,47.2441 
  "/>
<polyline clip-path="url(#clip172)" style="stroke:#000000; stroke-width:2; stroke-opacity:0.1; fill:none" points="
  188.764,1505.26 188.764,47.2441 
  "/>
<polyline clip-path="url(#clip172)" style="stroke:#000000; stroke-width:2; stroke-opacity:0.1; fill:none" points="
  233.451,1505.26 233.451,47.2441 
  "/>
<polyline clip-path="url(#clip172)" style="stroke:#000000; stroke-width:2; stroke-opacity:0.1; fill:none" points="
  322.826,1505.26 322.826,47.2441 
  "/>
<polyline clip-path="url(#clip172)" style="stroke:#000000; stroke-width:2; stroke-opacity:0.1; fill:none" points="
  501.576,1505.26 501.576,47.2441 
  "/>
<polyline clip-path="url(#clip172)" style="stroke:#000000; stroke-width:2; stroke-opacity:0.1; fill:none" points="
  859.076,1505.26 859.076,47.2441 
  "/>
<polyline clip-path="url(#clip172)" style="stroke:#000000; stroke-width:2; stroke-opacity:0.1; fill:none" points="
  1216.58,1505.26 1216.58,47.2441 
  "/>
<polyline clip-path="url(#clip172)" style="stroke:#000000; stroke-width:2; stroke-opacity:0.1; fill:none" points="
  1574.08,1505.26 1574.08,47.2441 
  "/>
<polyline clip-path="url(#clip172)" style="stroke:#000000; stroke-width:2; stroke-opacity:0.1; fill:none" points="
  1931.58,1505.26 1931.58,47.2441 
  "/>
<polyline clip-path="url(#clip172)" style="stroke:#000000; stroke-width:2; stroke-opacity:0.1; fill:none" points="
  2289.08,1505.26 2289.08,47.2441 
  "/>
<polyline clip-path="url(#clip170)" style="stroke:#000000; stroke-width:4; stroke-opacity:1; fill:none" points="
  102.74,1505.26 2352.76,1505.26 
  "/>
<polyline clip-path="url(#clip170)" style="stroke:#000000; stroke-width:4; stroke-opacity:1; fill:none" points="
  166.42,1505.26 166.42,1487.76 
  "/>
<polyline clip-path="url(#clip170)" style="stroke:#000000; stroke-width:4; stroke-opacity:1; fill:none" points="
  188.764,1505.26 188.764,1487.76 
  "/>
<polyline clip-path="url(#clip170)" style="stroke:#000000; stroke-width:4; stroke-opacity:1; fill:none" points="
  233.451,1505.26 233.451,1487.76 
  "/>
<polyline clip-path="url(#clip170)" style="stroke:#000000; stroke-width:4; stroke-opacity:1; fill:none" points="
  322.826,1505.26 322.826,1487.76 
  "/>
<polyline clip-path="url(#clip170)" style="stroke:#000000; stroke-width:4; stroke-opacity:1; fill:none" points="
  501.576,1505.26 501.576,1487.76 
  "/>
<polyline clip-path="url(#clip170)" style="stroke:#000000; stroke-width:4; stroke-opacity:1; fill:none" points="
  859.076,1505.26 859.076,1487.76 
  "/>
<polyline clip-path="url(#clip170)" style="stroke:#000000; stroke-width:4; stroke-opacity:1; fill:none" points="
  1216.58,1505.26 1216.58,1487.76 
  "/>
<polyline clip-path="url(#clip170)" style="stroke:#000000; stroke-width:4; stroke-opacity:1; fill:none" points="
  1574.08,1505.26 1574.08,1487.76 
  "/>
<polyline clip-path="url(#clip170)" style="stroke:#000000; stroke-width:4; stroke-opacity:1; fill:none" points="
  1931.58,1505.26 1931.58,1487.76 
  "/>
<polyline clip-path="url(#clip170)" style="stroke:#000000; stroke-width:4; stroke-opacity:1; fill:none" points="
  2289.08,1505.26 2289.08,1487.76 
  "/>
<path clip-path="url(#clip170)" d="M 0 0 M156.802 1562 L164.441 1562 L164.441 1535.63 L156.131 1537.3 L156.131 1533.04 L164.394 1531.37 L169.07 1531.37 L169.07 1562 L176.709 1562 L176.709 1565.93 L156.802 1565.93 L156.802 1562 Z" fill="#000000" fill-rule="evenodd" fill-opacity="1" /><path clip-path="url(#clip170)" d="M 0 0 M183.416 1562 L199.736 1562 L199.736 1565.93 L177.791 1565.93 L177.791 1562 Q180.453 1559.24 185.037 1554.61 Q189.643 1549.96 190.824 1548.62 Q193.069 1546.09 193.949 1544.36 Q194.852 1542.6 194.852 1540.91 Q194.852 1538.15 192.907 1536.42 Q190.986 1534.68 187.884 1534.68 Q185.685 1534.68 183.231 1535.45 Q180.801 1536.21 178.023 1537.76 L178.023 1533.04 Q180.847 1531.9 183.301 1531.33 Q185.754 1530.75 187.791 1530.75 Q193.162 1530.75 196.356 1533.43 Q199.551 1536.12 199.551 1540.61 Q199.551 1542.74 198.74 1544.66 Q197.953 1546.56 195.847 1549.15 Q195.268 1549.82 192.166 1553.04 Q189.065 1556.23 183.416 1562 Z" fill="#000000" fill-rule="evenodd" fill-opacity="1" /><path clip-path="url(#clip170)" d="M 0 0 M236.46 1535.45 L224.655 1553.89 L236.46 1553.89 L236.46 1535.45 M235.233 1531.37 L241.113 1531.37 L241.113 1553.89 L246.044 1553.89 L246.044 1557.78 L241.113 1557.78 L241.113 1565.93 L236.46 1565.93 L236.46 1557.78 L220.859 1557.78 L220.859 1553.27 L235.233 1531.37 Z" fill="#000000" fill-rule="evenodd" fill-opacity="1" /><path clip-path="url(#clip170)" d="M 0 0 M322.826 1549.52 Q319.493 1549.52 317.572 1551.3 Q315.673 1553.08 315.673 1556.21 Q315.673 1559.33 317.572 1561.12 Q319.493 1562.9 322.826 1562.9 Q326.159 1562.9 328.081 1561.12 Q330.002 1559.31 330.002 1556.21 Q330.002 1553.08 328.081 1551.3 Q326.183 1549.52 322.826 1549.52 M318.15 1547.53 Q315.141 1546.79 313.451 1544.73 Q311.784 1542.67 311.784 1539.71 Q311.784 1535.56 314.724 1533.15 Q317.687 1530.75 322.826 1530.75 Q327.988 1530.75 330.928 1533.15 Q333.868 1535.56 333.868 1539.71 Q333.868 1542.67 332.178 1544.73 Q330.511 1546.79 327.525 1547.53 Q330.905 1548.32 332.78 1550.61 Q334.678 1552.9 334.678 1556.21 Q334.678 1561.23 331.599 1563.92 Q328.544 1566.6 322.826 1566.6 Q317.109 1566.6 314.03 1563.92 Q310.974 1561.23 310.974 1556.21 Q310.974 1552.9 312.872 1550.61 Q314.771 1548.32 318.15 1547.53 M316.437 1540.14 Q316.437 1542.83 318.104 1544.33 Q319.794 1545.84 322.826 1545.84 Q325.835 1545.84 327.525 1544.33 Q329.238 1542.83 329.238 1540.14 Q329.238 1537.46 327.525 1535.96 Q325.835 1534.45 322.826 1534.45 Q319.794 1534.45 318.104 1535.96 Q316.437 1537.46 316.437 1540.14 Z" fill="#000000" fill-rule="evenodd" fill-opacity="1" /><path clip-path="url(#clip170)" d="M 0 0 M476.183 1562 L483.822 1562 L483.822 1535.63 L475.511 1537.3 L475.511 1533.04 L483.775 1531.37 L488.451 1531.37 L488.451 1562 L496.09 1562 L496.09 1565.93 L476.183 1565.93 L476.183 1562 Z" fill="#000000" fill-rule="evenodd" fill-opacity="1" /><path clip-path="url(#clip170)" d="M 0 0 M516.113 1546.79 Q512.965 1546.79 511.113 1548.94 Q509.284 1551.09 509.284 1554.84 Q509.284 1558.57 511.113 1560.75 Q512.965 1562.9 516.113 1562.9 Q519.261 1562.9 521.09 1560.75 Q522.942 1558.57 522.942 1554.84 Q522.942 1551.09 521.09 1548.94 Q519.261 1546.79 516.113 1546.79 M525.395 1532.14 L525.395 1536.39 Q523.636 1535.56 521.831 1535.12 Q520.048 1534.68 518.289 1534.68 Q513.659 1534.68 511.206 1537.81 Q508.775 1540.93 508.428 1547.25 Q509.794 1545.24 511.854 1544.17 Q513.914 1543.08 516.391 1543.08 Q521.599 1543.08 524.608 1546.26 Q527.641 1549.4 527.641 1554.84 Q527.641 1560.17 524.493 1563.39 Q521.345 1566.6 516.113 1566.6 Q510.118 1566.6 506.946 1562.02 Q503.775 1557.41 503.775 1548.69 Q503.775 1540.49 507.664 1535.63 Q511.553 1530.75 518.104 1530.75 Q519.863 1530.75 521.645 1531.09 Q523.451 1531.44 525.395 1532.14 Z" fill="#000000" fill-rule="evenodd" fill-opacity="1" /><path clip-path="url(#clip170)" d="M 0 0 M848.717 1547.3 Q852.074 1548.02 853.949 1550.28 Q855.847 1552.55 855.847 1555.89 Q855.847 1561 852.328 1563.8 Q848.81 1566.6 842.329 1566.6 Q840.153 1566.6 837.838 1566.16 Q835.546 1565.75 833.092 1564.89 L833.092 1560.38 Q835.037 1561.51 837.352 1562.09 Q839.667 1562.67 842.19 1562.67 Q846.588 1562.67 848.879 1560.93 Q851.194 1559.2 851.194 1555.89 Q851.194 1552.83 849.041 1551.12 Q846.912 1549.38 843.092 1549.38 L839.065 1549.38 L839.065 1545.54 L843.278 1545.54 Q846.727 1545.54 848.555 1544.17 Q850.384 1542.78 850.384 1540.19 Q850.384 1537.53 848.486 1536.12 Q846.611 1534.68 843.092 1534.68 Q841.171 1534.68 838.972 1535.1 Q836.773 1535.52 834.134 1536.39 L834.134 1532.23 Q836.796 1531.49 839.111 1531.12 Q841.449 1530.75 843.509 1530.75 Q848.833 1530.75 851.935 1533.18 Q855.037 1535.58 855.037 1539.71 Q855.037 1542.58 853.393 1544.57 Q851.75 1546.53 848.717 1547.3 Z" fill="#000000" fill-rule="evenodd" fill-opacity="1" /><path clip-path="url(#clip170)" d="M 0 0 M868.74 1562 L885.06 1562 L885.06 1565.93 L863.115 1565.93 L863.115 1562 Q865.777 1559.24 870.361 1554.61 Q874.967 1549.96 876.148 1548.62 Q878.393 1546.09 879.273 1544.36 Q880.176 1542.6 880.176 1540.91 Q880.176 1538.15 878.231 1536.42 Q876.31 1534.68 873.208 1534.68 Q871.009 1534.68 868.555 1535.45 Q866.125 1536.21 863.347 1537.76 L863.347 1533.04 Q866.171 1531.9 868.625 1531.33 Q871.078 1530.75 873.115 1530.75 Q878.486 1530.75 881.68 1533.43 Q884.875 1536.12 884.875 1540.61 Q884.875 1542.74 884.064 1544.66 Q883.277 1546.56 881.171 1549.15 Q880.592 1549.82 877.49 1553.04 Q874.389 1556.23 868.74 1562 Z" fill="#000000" fill-rule="evenodd" fill-opacity="1" /><path clip-path="url(#clip170)" d="M 0 0 M1204.79 1535.45 L1192.99 1553.89 L1204.79 1553.89 L1204.79 1535.45 M1203.57 1531.37 L1209.45 1531.37 L1209.45 1553.89 L1214.38 1553.89 L1214.38 1557.78 L1209.45 1557.78 L1209.45 1565.93 L1204.79 1565.93 L1204.79 1557.78 L1189.19 1557.78 L1189.19 1553.27 L1203.57 1531.37 Z" fill="#000000" fill-rule="evenodd" fill-opacity="1" /><path clip-path="url(#clip170)" d="M 0 0 M1232.11 1549.52 Q1228.78 1549.52 1226.85 1551.3 Q1224.96 1553.08 1224.96 1556.21 Q1224.96 1559.33 1226.85 1561.12 Q1228.78 1562.9 1232.11 1562.9 Q1235.44 1562.9 1237.36 1561.12 Q1239.28 1559.31 1239.28 1556.21 Q1239.28 1553.08 1237.36 1551.3 Q1235.46 1549.52 1232.11 1549.52 M1227.43 1547.53 Q1224.42 1546.79 1222.73 1544.73 Q1221.07 1542.67 1221.07 1539.71 Q1221.07 1535.56 1224.01 1533.15 Q1226.97 1530.75 1232.11 1530.75 Q1237.27 1530.75 1240.21 1533.15 Q1243.15 1535.56 1243.15 1539.71 Q1243.15 1542.67 1241.46 1544.73 Q1239.79 1546.79 1236.81 1547.53 Q1240.19 1548.32 1242.06 1550.61 Q1243.96 1552.9 1243.96 1556.21 Q1243.96 1561.23 1240.88 1563.92 Q1237.83 1566.6 1232.11 1566.6 Q1226.39 1566.6 1223.31 1563.92 Q1220.26 1561.23 1220.26 1556.21 Q1220.26 1552.9 1222.15 1550.61 Q1224.05 1548.32 1227.43 1547.53 M1225.72 1540.14 Q1225.72 1542.83 1227.39 1544.33 Q1229.08 1545.84 1232.11 1545.84 Q1235.12 1545.84 1236.81 1544.33 Q1238.52 1542.83 1238.52 1540.14 Q1238.52 1537.46 1236.81 1535.96 Q1235.12 1534.45 1232.11 1534.45 Q1229.08 1534.45 1227.39 1535.96 Q1225.72 1537.46 1225.72 1540.14 Z" fill="#000000" fill-rule="evenodd" fill-opacity="1" /><path clip-path="url(#clip170)" d="M 0 0 M1559.24 1546.79 Q1556.09 1546.79 1554.24 1548.94 Q1552.41 1551.09 1552.41 1554.84 Q1552.41 1558.57 1554.24 1560.75 Q1556.09 1562.9 1559.24 1562.9 Q1562.39 1562.9 1564.22 1560.75 Q1566.07 1558.57 1566.07 1554.84 Q1566.07 1551.09 1564.22 1548.94 Q1562.39 1546.79 1559.24 1546.79 M1568.52 1532.14 L1568.52 1536.39 Q1566.76 1535.56 1564.96 1535.12 Q1563.17 1534.68 1561.41 1534.68 Q1556.78 1534.68 1554.33 1537.81 Q1551.9 1540.93 1551.55 1547.25 Q1552.92 1545.24 1554.98 1544.17 Q1557.04 1543.08 1559.52 1543.08 Q1564.72 1543.08 1567.73 1546.26 Q1570.77 1549.4 1570.77 1554.84 Q1570.77 1560.17 1567.62 1563.39 Q1564.47 1566.6 1559.24 1566.6 Q1553.24 1566.6 1550.07 1562.02 Q1546.9 1557.41 1546.9 1548.69 Q1546.9 1540.49 1550.79 1535.63 Q1554.68 1530.75 1561.23 1530.75 Q1562.99 1530.75 1564.77 1531.09 Q1566.58 1531.44 1568.52 1532.14 Z" fill="#000000" fill-rule="evenodd" fill-opacity="1" /><path clip-path="url(#clip170)" d="M 0 0 M1591.67 1535.45 L1579.86 1553.89 L1591.67 1553.89 L1591.67 1535.45 M1590.44 1531.37 L1596.32 1531.37 L1596.32 1553.89 L1601.25 1553.89 L1601.25 1557.78 L1596.32 1557.78 L1596.32 1565.93 L1591.67 1565.93 L1591.67 1557.78 L1576.07 1557.78 L1576.07 1553.27 L1590.44 1531.37 Z" fill="#000000" fill-rule="evenodd" fill-opacity="1" /><path clip-path="url(#clip170)" d="M 0 0 M1916.45 1549.52 Q1913.12 1549.52 1911.19 1551.3 Q1909.3 1553.08 1909.3 1556.21 Q1909.3 1559.33 1911.19 1561.12 Q1913.12 1562.9 1916.45 1562.9 Q1919.78 1562.9 1921.7 1561.12 Q1923.62 1559.31 1923.62 1556.21 Q1923.62 1553.08 1921.7 1551.3 Q1919.81 1549.52 1916.45 1549.52 M1911.77 1547.53 Q1908.76 1546.79 1907.07 1544.73 Q1905.41 1542.67 1905.41 1539.71 Q1905.41 1535.56 1908.35 1533.15 Q1911.31 1530.75 1916.45 1530.75 Q1921.61 1530.75 1924.55 1533.15 Q1927.49 1535.56 1927.49 1539.71 Q1927.49 1542.67 1925.8 1544.73 Q1924.13 1546.79 1921.15 1547.53 Q1924.53 1548.32 1926.4 1550.61 Q1928.3 1552.9 1928.3 1556.21 Q1928.3 1561.23 1925.22 1563.92 Q1922.17 1566.6 1916.45 1566.6 Q1910.73 1566.6 1907.65 1563.92 Q1904.6 1561.23 1904.6 1556.21 Q1904.6 1552.9 1906.5 1550.61 Q1908.39 1548.32 1911.77 1547.53 M1910.06 1540.14 Q1910.06 1542.83 1911.73 1544.33 Q1913.42 1545.84 1916.45 1545.84 Q1919.46 1545.84 1921.15 1544.33 Q1922.86 1542.83 1922.86 1540.14 Q1922.86 1537.46 1921.15 1535.96 Q1919.46 1534.45 1916.45 1534.45 Q1913.42 1534.45 1911.73 1535.96 Q1910.06 1537.46 1910.06 1540.14 Z" fill="#000000" fill-rule="evenodd" fill-opacity="1" /><path clip-path="url(#clip170)" d="M 0 0 M1946.61 1534.45 Q1943 1534.45 1941.17 1538.02 Q1939.37 1541.56 1939.37 1548.69 Q1939.37 1555.79 1941.17 1559.36 Q1943 1562.9 1946.61 1562.9 Q1950.25 1562.9 1952.05 1559.36 Q1953.88 1555.79 1953.88 1548.69 Q1953.88 1541.56 1952.05 1538.02 Q1950.25 1534.45 1946.61 1534.45 M1946.61 1530.75 Q1952.42 1530.75 1955.48 1535.35 Q1958.56 1539.94 1958.56 1548.69 Q1958.56 1557.41 1955.48 1562.02 Q1952.42 1566.6 1946.61 1566.6 Q1940.8 1566.6 1937.72 1562.02 Q1934.67 1557.41 1934.67 1548.69 Q1934.67 1539.94 1937.72 1535.35 Q1940.8 1530.75 1946.61 1530.75 Z" fill="#000000" fill-rule="evenodd" fill-opacity="1" /><path clip-path="url(#clip170)" d="M 0 0 M2264.12 1565.21 L2264.12 1560.96 Q2265.88 1561.79 2267.69 1562.23 Q2269.49 1562.67 2271.23 1562.67 Q2275.86 1562.67 2278.29 1559.57 Q2280.74 1556.44 2281.09 1550.1 Q2279.75 1552.09 2277.69 1553.15 Q2275.63 1554.22 2273.13 1554.22 Q2267.94 1554.22 2264.91 1551.09 Q2261.9 1547.95 2261.9 1542.51 Q2261.9 1537.18 2265.05 1533.96 Q2268.2 1530.75 2273.43 1530.75 Q2279.42 1530.75 2282.57 1535.35 Q2285.74 1539.94 2285.74 1548.69 Q2285.74 1556.86 2281.85 1561.74 Q2277.99 1566.6 2271.44 1566.6 Q2269.68 1566.6 2267.87 1566.26 Q2266.07 1565.91 2264.12 1565.21 M2273.43 1550.56 Q2276.58 1550.56 2278.4 1548.41 Q2280.26 1546.26 2280.26 1542.51 Q2280.26 1538.78 2278.4 1536.63 Q2276.58 1534.45 2273.43 1534.45 Q2270.28 1534.45 2268.43 1536.63 Q2266.6 1538.78 2266.6 1542.51 Q2266.6 1546.26 2268.43 1548.41 Q2270.28 1550.56 2273.43 1550.56 Z" fill="#000000" fill-rule="evenodd" fill-opacity="1" /><path clip-path="url(#clip170)" d="M 0 0 M2304.72 1546.79 Q2301.58 1546.79 2299.72 1548.94 Q2297.9 1551.09 2297.9 1554.84 Q2297.9 1558.57 2299.72 1560.75 Q2301.58 1562.9 2304.72 1562.9 Q2307.87 1562.9 2309.7 1560.75 Q2311.55 1558.57 2311.55 1554.84 Q2311.55 1551.09 2309.7 1548.94 Q2307.87 1546.79 2304.72 1546.79 M2314.01 1532.14 L2314.01 1536.39 Q2312.25 1535.56 2310.44 1535.12 Q2308.66 1534.68 2306.9 1534.68 Q2302.27 1534.68 2299.82 1537.81 Q2297.39 1540.93 2297.04 1547.25 Q2298.4 1545.24 2300.47 1544.17 Q2302.53 1543.08 2305 1543.08 Q2310.21 1543.08 2313.22 1546.26 Q2316.25 1549.4 2316.25 1554.84 Q2316.25 1560.17 2313.1 1563.39 Q2309.96 1566.6 2304.72 1566.6 Q2298.73 1566.6 2295.56 1562.02 Q2292.39 1557.41 2292.39 1548.69 Q2292.39 1540.49 2296.28 1535.63 Q2300.16 1530.75 2306.72 1530.75 Q2308.47 1530.75 2310.26 1531.09 Q2312.06 1531.44 2314.01 1532.14 Z" fill="#000000" fill-rule="evenodd" fill-opacity="1" /><path clip-path="url(#clip170)" d="M 0 0 M1098.3 1602.6 L1138.5 1602.6 L1138.5 1608.01 L1121.63 1608.01 L1121.63 1650.12 L1115.17 1650.12 L1115.17 1608.01 L1098.3 1608.01 L1098.3 1602.6 Z" fill="#000000" fill-rule="evenodd" fill-opacity="1" /><path clip-path="url(#clip170)" d="M 0 0 M1174.09 1628.61 L1174.09 1650.12 L1168.23 1650.12 L1168.23 1628.8 Q1168.23 1623.74 1166.26 1621.22 Q1164.28 1618.71 1160.34 1618.71 Q1155.59 1618.71 1152.86 1621.73 Q1150.12 1624.76 1150.12 1629.98 L1150.12 1650.12 L1144.23 1650.12 L1144.23 1600.6 L1150.12 1600.6 L1150.12 1620.01 Q1152.22 1616.8 1155.05 1615.21 Q1157.92 1613.62 1161.64 1613.62 Q1167.78 1613.62 1170.93 1617.44 Q1174.09 1621.22 1174.09 1628.61 Z" fill="#000000" fill-rule="evenodd" fill-opacity="1" /><path clip-path="url(#clip170)" d="M 0 0 M1206.42 1619.95 Q1205.44 1619.38 1204.26 1619.12 Q1203.11 1618.84 1201.71 1618.84 Q1196.75 1618.84 1194.07 1622.08 Q1191.43 1625.3 1191.43 1631.35 L1191.43 1650.12 L1185.54 1650.12 L1185.54 1614.48 L1191.43 1614.48 L1191.43 1620.01 Q1193.28 1616.77 1196.24 1615.21 Q1199.2 1613.62 1203.43 1613.62 Q1204.04 1613.62 1204.77 1613.71 Q1205.5 1613.78 1206.39 1613.93 L1206.42 1619.95 Z" fill="#000000" fill-rule="evenodd" fill-opacity="1" /><path clip-path="url(#clip170)" d="M 0 0 M1241.63 1630.84 L1241.63 1633.7 L1214.7 1633.7 Q1215.08 1639.75 1218.33 1642.93 Q1221.61 1646.08 1227.43 1646.08 Q1230.8 1646.08 1233.95 1645.25 Q1237.14 1644.43 1240.26 1642.77 L1240.26 1648.31 Q1237.11 1649.65 1233.8 1650.35 Q1230.49 1651.05 1227.08 1651.05 Q1218.55 1651.05 1213.55 1646.08 Q1208.59 1641.12 1208.59 1632.65 Q1208.59 1623.9 1213.3 1618.77 Q1218.04 1613.62 1226.06 1613.62 Q1233.25 1613.62 1237.42 1618.26 Q1241.63 1622.88 1241.63 1630.84 M1235.77 1629.12 Q1235.71 1624.31 1233.06 1621.45 Q1230.45 1618.58 1226.12 1618.58 Q1221.22 1618.58 1218.26 1621.35 Q1215.33 1624.12 1214.89 1629.15 L1235.77 1629.12 Z" fill="#000000" fill-rule="evenodd" fill-opacity="1" /><path clip-path="url(#clip170)" d="M 0 0 M1267.44 1632.2 Q1260.34 1632.2 1257.6 1633.83 Q1254.87 1635.45 1254.87 1639.37 Q1254.87 1642.48 1256.9 1644.33 Q1258.97 1646.15 1262.5 1646.15 Q1267.37 1646.15 1270.3 1642.71 Q1273.26 1639.24 1273.26 1633.51 L1273.26 1632.2 L1267.44 1632.2 M1279.12 1629.79 L1279.12 1650.12 L1273.26 1650.12 L1273.26 1644.71 Q1271.26 1647.96 1268.27 1649.52 Q1265.27 1651.05 1260.95 1651.05 Q1255.47 1651.05 1252.22 1647.99 Q1249.01 1644.9 1249.01 1639.75 Q1249.01 1633.73 1253.02 1630.68 Q1257.06 1627.62 1265.05 1627.62 L1273.26 1627.62 L1273.26 1627.05 Q1273.26 1623.01 1270.59 1620.81 Q1267.95 1618.58 1263.14 1618.58 Q1260.09 1618.58 1257.19 1619.31 Q1254.29 1620.05 1251.62 1621.51 L1251.62 1616.1 Q1254.83 1614.86 1257.86 1614.25 Q1260.88 1613.62 1263.75 1613.62 Q1271.48 1613.62 1275.3 1617.63 Q1279.12 1621.64 1279.12 1629.79 Z" fill="#000000" fill-rule="evenodd" fill-opacity="1" /><path clip-path="url(#clip170)" d="M 0 0 M1314.64 1619.89 L1314.64 1600.6 L1320.5 1600.6 L1320.5 1650.12 L1314.64 1650.12 L1314.64 1644.78 Q1312.79 1647.96 1309.96 1649.52 Q1307.16 1651.05 1303.21 1651.05 Q1296.75 1651.05 1292.68 1645.89 Q1288.64 1640.73 1288.64 1632.33 Q1288.64 1623.93 1292.68 1618.77 Q1296.75 1613.62 1303.21 1613.62 Q1307.16 1613.62 1309.96 1615.18 Q1312.79 1616.7 1314.64 1619.89 M1294.68 1632.33 Q1294.68 1638.79 1297.33 1642.48 Q1300 1646.15 1304.65 1646.15 Q1309.29 1646.15 1311.97 1642.48 Q1314.64 1638.79 1314.64 1632.33 Q1314.64 1625.87 1311.97 1622.21 Q1309.29 1618.52 1304.65 1618.52 Q1300 1618.52 1297.33 1622.21 Q1294.68 1625.87 1294.68 1632.33 Z" fill="#000000" fill-rule="evenodd" fill-opacity="1" /><path clip-path="url(#clip170)" d="M 0 0 M1355.28 1615.53 L1355.28 1621.06 Q1352.8 1619.79 1350.13 1619.15 Q1347.46 1618.52 1344.59 1618.52 Q1340.23 1618.52 1338.03 1619.85 Q1335.87 1621.19 1335.87 1623.87 Q1335.87 1625.9 1337.43 1627.08 Q1338.99 1628.23 1343.7 1629.28 L1345.7 1629.72 Q1351.94 1631.06 1354.55 1633.51 Q1357.19 1635.93 1357.19 1640.29 Q1357.19 1645.25 1353.25 1648.15 Q1349.33 1651.05 1342.46 1651.05 Q1339.59 1651.05 1336.47 1650.47 Q1333.39 1649.93 1329.95 1648.82 L1329.95 1642.77 Q1333.2 1644.46 1336.35 1645.32 Q1339.5 1646.15 1342.59 1646.15 Q1346.72 1646.15 1348.95 1644.74 Q1351.18 1643.31 1351.18 1640.73 Q1351.18 1638.35 1349.56 1637.07 Q1347.96 1635.8 1342.52 1634.62 L1340.48 1634.15 Q1335.04 1633 1332.62 1630.64 Q1330.2 1628.26 1330.2 1624.12 Q1330.2 1619.09 1333.77 1616.35 Q1337.33 1613.62 1343.89 1613.62 Q1347.14 1613.62 1350 1614.09 Q1352.87 1614.57 1355.28 1615.53 Z" fill="#000000" fill-rule="evenodd" fill-opacity="1" /><polyline clip-path="url(#clip172)" style="stroke:#000000; stroke-width:2; stroke-opacity:0.1; fill:none" points="
  102.74,1499.22 2352.76,1499.22 
  "/>
<polyline clip-path="url(#clip172)" style="stroke:#000000; stroke-width:2; stroke-opacity:0.1; fill:none" points="
  102.74,1267.91 2352.76,1267.91 
  "/>
<polyline clip-path="url(#clip172)" style="stroke:#000000; stroke-width:2; stroke-opacity:0.1; fill:none" points="
  102.74,1036.6 2352.76,1036.6 
  "/>
<polyline clip-path="url(#clip172)" style="stroke:#000000; stroke-width:2; stroke-opacity:0.1; fill:none" points="
  102.74,805.281 2352.76,805.281 
  "/>
<polyline clip-path="url(#clip172)" style="stroke:#000000; stroke-width:2; stroke-opacity:0.1; fill:none" points="
  102.74,573.967 2352.76,573.967 
  "/>
<polyline clip-path="url(#clip172)" style="stroke:#000000; stroke-width:2; stroke-opacity:0.1; fill:none" points="
  102.74,342.653 2352.76,342.653 
  "/>
<polyline clip-path="url(#clip172)" style="stroke:#000000; stroke-width:2; stroke-opacity:0.1; fill:none" points="
  102.74,111.339 2352.76,111.339 
  "/>
<polyline clip-path="url(#clip170)" style="stroke:#000000; stroke-width:4; stroke-opacity:1; fill:none" points="
  102.74,1505.26 102.74,47.2441 
  "/>
<polyline clip-path="url(#clip170)" style="stroke:#000000; stroke-width:4; stroke-opacity:1; fill:none" points="
  102.74,1499.22 129.74,1499.22 
  "/>
<polyline clip-path="url(#clip170)" style="stroke:#000000; stroke-width:4; stroke-opacity:1; fill:none" points="
  102.74,1267.91 129.74,1267.91 
  "/>
<polyline clip-path="url(#clip170)" style="stroke:#000000; stroke-width:4; stroke-opacity:1; fill:none" points="
  102.74,1036.6 129.74,1036.6 
  "/>
<polyline clip-path="url(#clip170)" style="stroke:#000000; stroke-width:4; stroke-opacity:1; fill:none" points="
  102.74,805.281 129.74,805.281 
  "/>
<polyline clip-path="url(#clip170)" style="stroke:#000000; stroke-width:4; stroke-opacity:1; fill:none" points="
  102.74,573.967 129.74,573.967 
  "/>
<polyline clip-path="url(#clip170)" style="stroke:#000000; stroke-width:4; stroke-opacity:1; fill:none" points="
  102.74,342.653 129.74,342.653 
  "/>
<polyline clip-path="url(#clip170)" style="stroke:#000000; stroke-width:4; stroke-opacity:1; fill:none" points="
  102.74,111.339 129.74,111.339 
  "/>
<path clip-path="url(#clip170)" d="M 0 0 M54.7958 1485.02 Q51.1847 1485.02 49.356 1488.59 Q47.5504 1492.13 47.5504 1499.26 Q47.5504 1506.36 49.356 1509.93 Q51.1847 1513.47 54.7958 1513.47 Q58.43 1513.47 60.2356 1509.93 Q62.0643 1506.36 62.0643 1499.26 Q62.0643 1492.13 60.2356 1488.59 Q58.43 1485.02 54.7958 1485.02 M54.7958 1481.32 Q60.6059 1481.32 63.6615 1485.92 Q66.7402 1490.51 66.7402 1499.26 Q66.7402 1507.98 63.6615 1512.59 Q60.6059 1517.17 54.7958 1517.17 Q48.9856 1517.17 45.9069 1512.59 Q42.8514 1507.98 42.8514 1499.26 Q42.8514 1490.51 45.9069 1485.92 Q48.9856 1481.32 54.7958 1481.32 Z" fill="#000000" fill-rule="evenodd" fill-opacity="1" /><path clip-path="url(#clip170)" d="M 0 0 M-11.5002 1281.25 L4.81919 1281.25 L4.81919 1285.19 L-17.1251 1285.19 L-17.1251 1281.25 Q-14.4631 1278.5 -9.8798 1273.87 Q-5.27335 1269.22 -4.0928 1267.87 Q-1.84744 1265.35 -0.967813 1263.62 Q-0.0650401 1261.86 -0.0650401 1260.17 Q-0.0650401 1257.41 -2.00947 1255.68 Q-3.93076 1253.94 -7.0326 1253.94 Q-9.23166 1253.94 -11.6853 1254.7 Q-14.1159 1255.47 -16.8937 1257.02 L-16.8937 1252.3 Q-14.0696 1251.16 -11.6159 1250.58 Q-9.16221 1250 -7.12519 1250 Q-1.75485 1250 1.43958 1252.69 Q4.63401 1255.37 4.63401 1259.87 Q4.63401 1261.99 3.82383 1263.92 Q3.0368 1265.81 0.930325 1268.41 Q0.351624 1269.08 -2.75021 1272.3 Q-5.85205 1275.49 -11.5002 1281.25 Z" fill="#000000" fill-rule="evenodd" fill-opacity="1" /><path clip-path="url(#clip170)" d="M 0 0 M24.6339 1253.71 Q21.0228 1253.71 19.1941 1257.27 Q17.3886 1260.81 17.3886 1267.94 Q17.3886 1275.05 19.1941 1278.62 Q21.0228 1282.16 24.6339 1282.16 Q28.2681 1282.16 30.0737 1278.62 Q31.9024 1275.05 31.9024 1267.94 Q31.9024 1260.81 30.0737 1257.27 Q28.2681 1253.71 24.6339 1253.71 M24.6339 1250 Q30.4441 1250 33.4996 1254.61 Q36.5783 1259.19 36.5783 1267.94 Q36.5783 1276.67 33.4996 1281.28 Q30.4441 1285.86 24.6339 1285.86 Q18.8237 1285.86 15.7451 1281.28 Q12.6895 1276.67 12.6895 1267.94 Q12.6895 1259.19 15.7451 1254.61 Q18.8237 1250 24.6339 1250 Z" fill="#000000" fill-rule="evenodd" fill-opacity="1" /><path clip-path="url(#clip170)" d="M 0 0 M54.7958 1253.71 Q51.1847 1253.71 49.356 1257.27 Q47.5504 1260.81 47.5504 1267.94 Q47.5504 1275.05 49.356 1278.62 Q51.1847 1282.16 54.7958 1282.16 Q58.43 1282.16 60.2356 1278.62 Q62.0643 1275.05 62.0643 1267.94 Q62.0643 1260.81 60.2356 1257.27 Q58.43 1253.71 54.7958 1253.71 M54.7958 1250 Q60.6059 1250 63.6615 1254.61 Q66.7402 1259.19 66.7402 1267.94 Q66.7402 1276.67 63.6615 1281.28 Q60.6059 1285.86 54.7958 1285.86 Q48.9856 1285.86 45.9069 1281.28 Q42.8514 1276.67 42.8514 1267.94 Q42.8514 1259.19 45.9069 1254.61 Q48.9856 1250 54.7958 1250 Z" fill="#000000" fill-rule="evenodd" fill-opacity="1" /><path clip-path="url(#clip170)" d="M 0 0 M-2.68077 1023.39 L-14.4863 1041.84 L-2.68077 1041.84 L-2.68077 1023.39 M-3.90761 1019.32 L1.97199 1019.32 L1.97199 1041.84 L6.90252 1041.84 L6.90252 1045.73 L1.97199 1045.73 L1.97199 1053.88 L-2.68077 1053.88 L-2.68077 1045.73 L-18.2825 1045.73 L-18.2825 1041.21 L-3.90761 1019.32 Z" fill="#000000" fill-rule="evenodd" fill-opacity="1" /><path clip-path="url(#clip170)" d="M 0 0 M24.6339 1022.39 Q21.0228 1022.39 19.1941 1025.96 Q17.3886 1029.5 17.3886 1036.63 Q17.3886 1043.74 19.1941 1047.3 Q21.0228 1050.84 24.6339 1050.84 Q28.2681 1050.84 30.0737 1047.3 Q31.9024 1043.74 31.9024 1036.63 Q31.9024 1029.5 30.0737 1025.96 Q28.2681 1022.39 24.6339 1022.39 M24.6339 1018.69 Q30.4441 1018.69 33.4996 1023.3 Q36.5783 1027.88 36.5783 1036.63 Q36.5783 1045.36 33.4996 1049.96 Q30.4441 1054.55 24.6339 1054.55 Q18.8237 1054.55 15.7451 1049.96 Q12.6895 1045.36 12.6895 1036.63 Q12.6895 1027.88 15.7451 1023.3 Q18.8237 1018.69 24.6339 1018.69 Z" fill="#000000" fill-rule="evenodd" fill-opacity="1" /><path clip-path="url(#clip170)" d="M 0 0 M54.7958 1022.39 Q51.1847 1022.39 49.356 1025.96 Q47.5504 1029.5 47.5504 1036.63 Q47.5504 1043.74 49.356 1047.3 Q51.1847 1050.84 54.7958 1050.84 Q58.43 1050.84 60.2356 1047.3 Q62.0643 1043.74 62.0643 1036.63 Q62.0643 1029.5 60.2356 1025.96 Q58.43 1022.39 54.7958 1022.39 M54.7958 1018.69 Q60.6059 1018.69 63.6615 1023.3 Q66.7402 1027.88 66.7402 1036.63 Q66.7402 1045.36 63.6615 1049.96 Q60.6059 1054.55 54.7958 1054.55 Q48.9856 1054.55 45.9069 1049.96 Q42.8514 1045.36 42.8514 1036.63 Q42.8514 1027.88 45.9069 1023.3 Q48.9856 1018.69 54.7958 1018.69 Z" fill="#000000" fill-rule="evenodd" fill-opacity="1" /><path clip-path="url(#clip170)" d="M 0 0 M-4.94927 803.418 Q-8.0974 803.418 -9.94925 805.57 Q-11.7779 807.723 -11.7779 811.473 Q-11.7779 815.2 -9.94925 817.376 Q-8.0974 819.529 -4.94927 819.529 Q-1.80114 819.529 0.027552 817.376 Q1.87939 815.2 1.87939 811.473 Q1.87939 807.723 0.027552 805.57 Q-1.80114 803.418 -4.94927 803.418 M4.33308 788.765 L4.33308 793.024 Q2.57383 792.191 0.768289 791.751 Q-1.01411 791.311 -2.77336 791.311 Q-7.40296 791.311 -9.85665 794.436 Q-12.2872 797.561 -12.6344 803.88 Q-11.2687 801.867 -9.20851 800.802 Q-7.14834 799.714 -4.6715 799.714 Q0.536809 799.714 3.54605 802.885 Q6.57844 806.033 6.57844 811.473 Q6.57844 816.797 3.43031 820.015 Q0.28218 823.232 -4.94927 823.232 Q-10.9446 823.232 -14.1159 818.649 Q-17.2872 814.042 -17.2872 805.316 Q-17.2872 797.121 -13.3983 792.26 Q-9.50943 787.376 -2.95854 787.376 Q-1.19929 787.376 0.583105 787.723 Q2.38865 788.07 4.33308 788.765 Z" fill="#000000" fill-rule="evenodd" fill-opacity="1" /><path clip-path="url(#clip170)" d="M 0 0 M24.6339 791.08 Q21.0228 791.08 19.1941 794.644 Q17.3886 798.186 17.3886 805.316 Q17.3886 812.422 19.1941 815.987 Q21.0228 819.529 24.6339 819.529 Q28.2681 819.529 30.0737 815.987 Q31.9024 812.422 31.9024 805.316 Q31.9024 798.186 30.0737 794.644 Q28.2681 791.08 24.6339 791.08 M24.6339 787.376 Q30.4441 787.376 33.4996 791.982 Q36.5783 796.566 36.5783 805.316 Q36.5783 814.042 33.4996 818.649 Q30.4441 823.232 24.6339 823.232 Q18.8237 823.232 15.7451 818.649 Q12.6895 814.042 12.6895 805.316 Q12.6895 796.566 15.7451 791.982 Q18.8237 787.376 24.6339 787.376 Z" fill="#000000" fill-rule="evenodd" fill-opacity="1" /><path clip-path="url(#clip170)" d="M 0 0 M54.7958 791.08 Q51.1847 791.08 49.356 794.644 Q47.5504 798.186 47.5504 805.316 Q47.5504 812.422 49.356 815.987 Q51.1847 819.529 54.7958 819.529 Q58.43 819.529 60.2356 815.987 Q62.0643 812.422 62.0643 805.316 Q62.0643 798.186 60.2356 794.644 Q58.43 791.08 54.7958 791.08 M54.7958 787.376 Q60.6059 787.376 63.6615 791.982 Q66.7402 796.566 66.7402 805.316 Q66.7402 814.042 63.6615 818.649 Q60.6059 823.232 54.7958 823.232 Q48.9856 823.232 45.9069 818.649 Q42.8514 814.042 42.8514 805.316 Q42.8514 796.566 45.9069 791.982 Q48.9856 787.376 54.7958 787.376 Z" fill="#000000" fill-rule="evenodd" fill-opacity="1" /><path clip-path="url(#clip170)" d="M 0 0 M-5.52797 574.835 Q-8.86129 574.835 -10.7826 576.617 Q-12.6807 578.4 -12.6807 581.525 Q-12.6807 584.65 -10.7826 586.432 Q-8.86129 588.214 -5.52797 588.214 Q-2.19466 588.214 -0.273372 586.432 Q1.64791 584.626 1.64791 581.525 Q1.64791 578.4 -0.273372 576.617 Q-2.17151 574.835 -5.52797 574.835 M-10.2039 572.844 Q-13.2131 572.103 -14.9029 570.043 Q-16.5696 567.983 -16.5696 565.02 Q-16.5696 560.877 -13.6298 558.469 Q-10.6668 556.062 -5.52797 556.062 Q-0.365964 556.062 2.57383 558.469 Q5.51363 560.877 5.51363 565.02 Q5.51363 567.983 3.82383 570.043 Q2.15717 572.103 -0.828925 572.844 Q2.55069 573.631 4.42568 575.923 Q6.32381 578.214 6.32381 581.525 Q6.32381 586.548 3.24513 589.233 Q0.189588 591.918 -5.52797 591.918 Q-11.2455 591.918 -14.3242 589.233 Q-17.3798 586.548 -17.3798 581.525 Q-17.3798 578.214 -15.4816 575.923 Q-13.5835 573.631 -10.2039 572.844 M-11.9168 565.46 Q-11.9168 568.145 -10.2502 569.65 Q-8.56036 571.154 -5.52797 571.154 Q-2.51873 571.154 -0.828925 569.65 Q0.884029 568.145 0.884029 565.46 Q0.884029 562.775 -0.828925 561.27 Q-2.51873 559.766 -5.52797 559.766 Q-8.56036 559.766 -10.2502 561.27 Q-11.9168 562.775 -11.9168 565.46 Z" fill="#000000" fill-rule="evenodd" fill-opacity="1" /><path clip-path="url(#clip170)" d="M 0 0 M24.6339 559.766 Q21.0228 559.766 19.1941 563.33 Q17.3886 566.872 17.3886 574.002 Q17.3886 581.108 19.1941 584.673 Q21.0228 588.214 24.6339 588.214 Q28.2681 588.214 30.0737 584.673 Q31.9024 581.108 31.9024 574.002 Q31.9024 566.872 30.0737 563.33 Q28.2681 559.766 24.6339 559.766 M24.6339 556.062 Q30.4441 556.062 33.4996 560.668 Q36.5783 565.252 36.5783 574.002 Q36.5783 582.728 33.4996 587.335 Q30.4441 591.918 24.6339 591.918 Q18.8237 591.918 15.7451 587.335 Q12.6895 582.728 12.6895 574.002 Q12.6895 565.252 15.7451 560.668 Q18.8237 556.062 24.6339 556.062 Z" fill="#000000" fill-rule="evenodd" fill-opacity="1" /><path clip-path="url(#clip170)" d="M 0 0 M54.7958 559.766 Q51.1847 559.766 49.356 563.33 Q47.5504 566.872 47.5504 574.002 Q47.5504 581.108 49.356 584.673 Q51.1847 588.214 54.7958 588.214 Q58.43 588.214 60.2356 584.673 Q62.0643 581.108 62.0643 574.002 Q62.0643 566.872 60.2356 563.33 Q58.43 559.766 54.7958 559.766 M54.7958 556.062 Q60.6059 556.062 63.6615 560.668 Q66.7402 565.252 66.7402 574.002 Q66.7402 582.728 63.6615 587.335 Q60.6059 591.918 54.7958 591.918 Q48.9856 591.918 45.9069 587.335 Q42.8514 582.728 42.8514 574.002 Q42.8514 565.252 45.9069 560.668 Q48.9856 556.062 54.7958 556.062 Z" fill="#000000" fill-rule="evenodd" fill-opacity="1" /><path clip-path="url(#clip170)" d="M 0 0 M-44.8796 355.998 L-37.2408 355.998 L-37.2408 329.632 L-45.5509 331.299 L-45.5509 327.039 L-37.2871 325.373 L-32.6112 325.373 L-32.6112 355.998 L-24.9723 355.998 L-24.9723 359.933 L-44.8796 359.933 L-44.8796 355.998 Z" fill="#000000" fill-rule="evenodd" fill-opacity="1" /><path clip-path="url(#clip170)" d="M 0 0 M-5.52797 328.451 Q-9.13907 328.451 -10.9678 332.016 Q-12.7733 335.558 -12.7733 342.687 Q-12.7733 349.794 -10.9678 353.359 Q-9.13907 356.9 -5.52797 356.9 Q-1.89373 356.9 -0.0881881 353.359 Q1.74051 349.794 1.74051 342.687 Q1.74051 335.558 -0.0881881 332.016 Q-1.89373 328.451 -5.52797 328.451 M-5.52797 324.748 Q0.28218 324.748 3.33772 329.354 Q6.41641 333.937 6.41641 342.687 Q6.41641 351.414 3.33772 356.021 Q0.28218 360.604 -5.52797 360.604 Q-11.3381 360.604 -14.4168 356.021 Q-17.4724 351.414 -17.4724 342.687 Q-17.4724 333.937 -14.4168 329.354 Q-11.3381 324.748 -5.52797 324.748 Z" fill="#000000" fill-rule="evenodd" fill-opacity="1" /><path clip-path="url(#clip170)" d="M 0 0 M24.6339 328.451 Q21.0228 328.451 19.1941 332.016 Q17.3886 335.558 17.3886 342.687 Q17.3886 349.794 19.1941 353.359 Q21.0228 356.9 24.6339 356.9 Q28.2681 356.9 30.0737 353.359 Q31.9024 349.794 31.9024 342.687 Q31.9024 335.558 30.0737 332.016 Q28.2681 328.451 24.6339 328.451 M24.6339 324.748 Q30.4441 324.748 33.4996 329.354 Q36.5783 333.937 36.5783 342.687 Q36.5783 351.414 33.4996 356.021 Q30.4441 360.604 24.6339 360.604 Q18.8237 360.604 15.7451 356.021 Q12.6895 351.414 12.6895 342.687 Q12.6895 333.937 15.7451 329.354 Q18.8237 324.748 24.6339 324.748 Z" fill="#000000" fill-rule="evenodd" fill-opacity="1" /><path clip-path="url(#clip170)" d="M 0 0 M54.7958 328.451 Q51.1847 328.451 49.356 332.016 Q47.5504 335.558 47.5504 342.687 Q47.5504 349.794 49.356 353.359 Q51.1847 356.9 54.7958 356.9 Q58.43 356.9 60.2356 353.359 Q62.0643 349.794 62.0643 342.687 Q62.0643 335.558 60.2356 332.016 Q58.43 328.451 54.7958 328.451 M54.7958 324.748 Q60.6059 324.748 63.6615 329.354 Q66.7402 333.937 66.7402 342.687 Q66.7402 351.414 63.6615 356.021 Q60.6059 360.604 54.7958 360.604 Q48.9856 360.604 45.9069 356.021 Q42.8514 351.414 42.8514 342.687 Q42.8514 333.937 45.9069 329.354 Q48.9856 324.748 54.7958 324.748 Z" fill="#000000" fill-rule="evenodd" fill-opacity="1" /><path clip-path="url(#clip170)" d="M 0 0 M-44.8796 124.683 L-37.2408 124.683 L-37.2408 98.3179 L-45.5509 99.9845 L-45.5509 95.7253 L-37.2871 94.0586 L-32.6112 94.0586 L-32.6112 124.683 L-24.9723 124.683 L-24.9723 128.619 L-44.8796 128.619 L-44.8796 124.683 Z" fill="#000000" fill-rule="evenodd" fill-opacity="1" /><path clip-path="url(#clip170)" d="M 0 0 M-11.5002 124.683 L4.81919 124.683 L4.81919 128.619 L-17.1251 128.619 L-17.1251 124.683 Q-14.4631 121.929 -9.8798 117.299 Q-5.27335 112.646 -4.0928 111.304 Q-1.84744 108.781 -0.967813 107.045 Q-0.0650401 105.285 -0.0650401 103.596 Q-0.0650401 100.841 -2.00947 99.1049 Q-3.93076 97.3688 -7.0326 97.3688 Q-9.23166 97.3688 -11.6853 98.1327 Q-14.1159 98.8966 -16.8937 100.447 L-16.8937 95.7253 Q-14.0696 94.591 -11.6159 94.0123 Q-9.16221 93.4336 -7.12519 93.4336 Q-1.75485 93.4336 1.43958 96.1188 Q4.63401 98.804 4.63401 103.295 Q4.63401 105.424 3.82383 107.346 Q3.0368 109.244 0.930325 111.836 Q0.351624 112.508 -2.75021 115.725 Q-5.85205 118.92 -11.5002 124.683 Z" fill="#000000" fill-rule="evenodd" fill-opacity="1" /><path clip-path="url(#clip170)" d="M 0 0 M24.6339 97.1373 Q21.0228 97.1373 19.1941 100.702 Q17.3886 104.244 17.3886 111.373 Q17.3886 118.48 19.1941 122.045 Q21.0228 125.586 24.6339 125.586 Q28.2681 125.586 30.0737 122.045 Q31.9024 118.48 31.9024 111.373 Q31.9024 104.244 30.0737 100.702 Q28.2681 97.1373 24.6339 97.1373 M24.6339 93.4336 Q30.4441 93.4336 33.4996 98.0401 Q36.5783 102.623 36.5783 111.373 Q36.5783 120.1 33.4996 124.707 Q30.4441 129.29 24.6339 129.29 Q18.8237 129.29 15.7451 124.707 Q12.6895 120.1 12.6895 111.373 Q12.6895 102.623 15.7451 98.0401 Q18.8237 93.4336 24.6339 93.4336 Z" fill="#000000" fill-rule="evenodd" fill-opacity="1" /><path clip-path="url(#clip170)" d="M 0 0 M54.7958 97.1373 Q51.1847 97.1373 49.356 100.702 Q47.5504 104.244 47.5504 111.373 Q47.5504 118.48 49.356 122.045 Q51.1847 125.586 54.7958 125.586 Q58.43 125.586 60.2356 122.045 Q62.0643 118.48 62.0643 111.373 Q62.0643 104.244 60.2356 100.702 Q58.43 97.1373 54.7958 97.1373 M54.7958 93.4336 Q60.6059 93.4336 63.6615 98.0401 Q66.7402 102.623 66.7402 111.373 Q66.7402 120.1 63.6615 124.707 Q60.6059 129.29 54.7958 129.29 Q48.9856 129.29 45.9069 124.707 Q42.8514 120.1 42.8514 111.373 Q42.8514 102.623 45.9069 98.0401 Q48.9856 93.4336 54.7958 93.4336 Z" fill="#000000" fill-rule="evenodd" fill-opacity="1" /><path clip-path="url(#clip170)" d="M 0 0 M-143.327 906.081 L-143.327 865.881 L-137.916 865.881 L-137.916 882.75 L-95.8069 882.75 L-95.8069 889.211 L-137.916 889.211 L-137.916 906.081 L-143.327 906.081 Z" fill="#000000" fill-rule="evenodd" fill-opacity="1" /><path clip-path="url(#clip170)" d="M 0 0 M-131.455 861.934 L-131.455 856.078 L-95.8069 856.078 L-95.8069 861.934 L-131.455 861.934 M-145.332 861.934 L-145.332 856.078 L-137.916 856.078 L-137.916 861.934 L-145.332 861.934 Z" fill="#000000" fill-rule="evenodd" fill-opacity="1" /><path clip-path="url(#clip170)" d="M 0 0 M-124.612 816.069 Q-128.558 813.873 -130.436 810.818 Q-132.314 807.762 -132.314 803.625 Q-132.314 798.055 -128.399 795.031 Q-124.516 792.007 -117.323 792.007 L-95.8069 792.007 L-95.8069 797.895 L-117.132 797.895 Q-122.256 797.895 -124.739 799.71 Q-127.222 801.524 -127.222 805.248 Q-127.222 809.799 -124.198 812.441 Q-121.174 815.083 -115.954 815.083 L-95.8069 815.083 L-95.8069 820.971 L-117.132 820.971 Q-122.288 820.971 -124.739 822.785 Q-127.222 824.6 -127.222 828.387 Q-127.222 832.875 -124.166 835.517 Q-121.142 838.158 -115.954 838.158 L-95.8069 838.158 L-95.8069 844.047 L-131.455 844.047 L-131.455 838.158 L-125.917 838.158 Q-129.195 836.153 -130.755 833.352 Q-132.314 830.551 -132.314 826.7 Q-132.314 822.817 -130.341 820.112 Q-128.367 817.374 -124.612 816.069 Z" fill="#000000" fill-rule="evenodd" fill-opacity="1" /><path clip-path="url(#clip170)" d="M 0 0 M-115.095 749.834 L-112.23 749.834 L-112.23 776.761 Q-106.183 776.379 -103 773.133 Q-99.8491 769.854 -99.8491 764.03 Q-99.8491 760.656 -100.677 757.505 Q-101.504 754.322 -103.159 751.203 L-97.6211 751.203 Q-96.2843 754.354 -95.5841 757.664 Q-94.8839 760.974 -94.8839 764.38 Q-94.8839 772.91 -99.8491 777.907 Q-104.814 782.872 -113.281 782.872 Q-122.034 782.872 -127.158 778.162 Q-132.314 773.419 -132.314 765.398 Q-132.314 758.205 -127.667 754.036 Q-123.052 749.834 -115.095 749.834 M-116.814 755.691 Q-121.62 755.754 -124.484 758.396 Q-127.349 761.006 -127.349 765.335 Q-127.349 770.236 -124.58 773.196 Q-121.811 776.125 -116.782 776.57 L-116.814 755.691 Z" fill="#000000" fill-rule="evenodd" fill-opacity="1" /><path clip-path="url(#clip170)" d="M 0 0 M-145.268 705.433 Q-137.948 709.699 -130.786 711.767 Q-123.625 713.836 -116.273 713.836 Q-108.92 713.836 -101.695 711.767 Q-94.5019 709.667 -87.2132 705.433 L-87.2132 710.526 Q-94.6929 715.3 -101.918 717.687 Q-109.143 720.043 -116.273 720.043 Q-123.37 720.043 -130.564 717.687 Q-137.757 715.332 -145.268 710.526 L-145.268 705.433 Z" fill="#000000" fill-rule="evenodd" fill-opacity="1" /><path clip-path="url(#clip170)" d="M 0 0 M-130.405 671.345 L-124.866 671.345 Q-126.139 673.828 -126.776 676.501 Q-127.413 679.175 -127.413 682.04 Q-127.413 686.4 -126.076 688.596 Q-124.739 690.761 -122.065 690.761 Q-120.028 690.761 -118.851 689.201 Q-117.705 687.641 -116.655 682.931 L-116.209 680.926 Q-114.872 674.687 -112.421 672.077 Q-110.002 669.435 -105.642 669.435 Q-100.677 669.435 -97.7803 673.382 Q-94.8839 677.297 -94.8839 684.172 Q-94.8839 687.037 -95.4568 690.156 Q-95.9979 693.243 -97.1119 696.681 L-103.159 696.681 Q-101.472 693.434 -100.613 690.283 Q-99.7855 687.132 -99.7855 684.045 Q-99.7855 679.907 -101.186 677.679 Q-102.618 675.451 -105.196 675.451 Q-107.583 675.451 -108.857 677.074 Q-110.13 678.666 -111.307 684.108 L-111.785 686.145 Q-112.931 691.588 -115.286 694.007 Q-117.673 696.426 -121.811 696.426 Q-126.84 696.426 -129.577 692.861 Q-132.314 689.296 -132.314 682.74 Q-132.314 679.493 -131.837 676.629 Q-131.359 673.764 -130.405 671.345 Z" fill="#000000" fill-rule="evenodd" fill-opacity="1" /><path clip-path="url(#clip170)" d="M 0 0 M-145.268 661.033 L-145.268 655.94 Q-137.757 651.166 -130.564 648.811 Q-123.37 646.423 -116.273 646.423 Q-109.143 646.423 -101.918 648.811 Q-94.6929 651.166 -87.2132 655.94 L-87.2132 661.033 Q-94.5019 656.799 -101.695 654.731 Q-108.92 652.63 -116.273 652.63 Q-123.625 652.63 -130.786 654.731 Q-137.948 656.799 -145.268 661.033 Z" fill="#000000" fill-rule="evenodd" fill-opacity="1" /><polyline clip-path="url(#clip172)" style="stroke:#009af9; stroke-width:4; stroke-opacity:1; fill:none" points="
  166.42,88.5087 188.764,767.671 233.451,1077.98 322.826,1251.88 501.576,1366.04 859.076,1428.01 1216.58,1447.14 1574.08,1456.66 1931.58,1463.02 2289.08,1464 
  
  "/>
<circle clip-path="url(#clip172)" cx="166.42" cy="88.5087" r="14" fill="#009af9" fill-rule="evenodd" fill-opacity="1" stroke="#000000" stroke-opacity="1" stroke-width="3.2"/>
<circle clip-path="url(#clip172)" cx="188.764" cy="767.671" r="14" fill="#009af9" fill-rule="evenodd" fill-opacity="1" stroke="#000000" stroke-opacity="1" stroke-width="3.2"/>
<circle clip-path="url(#clip172)" cx="233.451" cy="1077.98" r="14" fill="#009af9" fill-rule="evenodd" fill-opacity="1" stroke="#000000" stroke-opacity="1" stroke-width="3.2"/>
<circle clip-path="url(#clip172)" cx="322.826" cy="1251.88" r="14" fill="#009af9" fill-rule="evenodd" fill-opacity="1" stroke="#000000" stroke-opacity="1" stroke-width="3.2"/>
<circle clip-path="url(#clip172)" cx="501.576" cy="1366.04" r="14" fill="#009af9" fill-rule="evenodd" fill-opacity="1" stroke="#000000" stroke-opacity="1" stroke-width="3.2"/>
<circle clip-path="url(#clip172)" cx="859.076" cy="1428.01" r="14" fill="#009af9" fill-rule="evenodd" fill-opacity="1" stroke="#000000" stroke-opacity="1" stroke-width="3.2"/>
<circle clip-path="url(#clip172)" cx="1216.58" cy="1447.14" r="14" fill="#009af9" fill-rule="evenodd" fill-opacity="1" stroke="#000000" stroke-opacity="1" stroke-width="3.2"/>
<circle clip-path="url(#clip172)" cx="1574.08" cy="1456.66" r="14" fill="#009af9" fill-rule="evenodd" fill-opacity="1" stroke="#000000" stroke-opacity="1" stroke-width="3.2"/>
<circle clip-path="url(#clip172)" cx="1931.58" cy="1463.02" r="14" fill="#009af9" fill-rule="evenodd" fill-opacity="1" stroke="#000000" stroke-opacity="1" stroke-width="3.2"/>
<circle clip-path="url(#clip172)" cx="2289.08" cy="1464" r="14" fill="#009af9" fill-rule="evenodd" fill-opacity="1" stroke="#000000" stroke-opacity="1" stroke-width="3.2"/>
</svg>
