<?xml version="1.0" encoding="utf-8"?>
<svg xmlns="http://www.w3.org/2000/svg" xmlns:xlink="http://www.w3.org/1999/xlink" width="600" height="400" viewBox="0 0 2400 1600">
<defs>
  <clipPath id="clip630">
    <rect x="0" y="0" width="2400" height="1600"/>
  </clipPath>
</defs>
<path clip-path="url(#clip630)" d="
M0 1600 L2400 1600 L2400 0 L0 0  Z
  " fill="#ffffff" fill-rule="evenodd" fill-opacity="1"/>
<defs>
  <clipPath id="clip631">
    <rect x="480" y="0" width="1681" height="1600"/>
  </clipPath>
</defs>
<path clip-path="url(#clip630)" d="
M102.74 1458.42 L2352.76 1458.42 L2352.76 47.2441 L102.74 47.2441  Z
  " fill="#ffffff" fill-rule="evenodd" fill-opacity="1"/>
<defs>
  <clipPath id="clip632">
    <rect x="102" y="47" width="2251" height="1412"/>
  </clipPath>
</defs>
<polyline clip-path="url(#clip632)" style="stroke:#000000; stroke-width:2; stroke-opacity:0.1; fill:none" points="
  166.42,1458.42 166.42,47.2441 
  "/>
<polyline clip-path="url(#clip632)" style="stroke:#000000; stroke-width:2; stroke-opacity:0.1; fill:none" points="
  402.271,1458.42 402.271,47.2441 
  "/>
<polyline clip-path="url(#clip632)" style="stroke:#000000; stroke-width:2; stroke-opacity:0.1; fill:none" points="
  638.121,1458.42 638.121,47.2441 
  "/>
<polyline clip-path="url(#clip632)" style="stroke:#000000; stroke-width:2; stroke-opacity:0.1; fill:none" points="
  873.972,1458.42 873.972,47.2441 
  "/>
<polyline clip-path="url(#clip632)" style="stroke:#000000; stroke-width:2; stroke-opacity:0.1; fill:none" points="
  1109.82,1458.42 1109.82,47.2441 
  "/>
<polyline clip-path="url(#clip632)" style="stroke:#000000; stroke-width:2; stroke-opacity:0.1; fill:none" points="
  1345.67,1458.42 1345.67,47.2441 
  "/>
<polyline clip-path="url(#clip632)" style="stroke:#000000; stroke-width:2; stroke-opacity:0.1; fill:none" points="
  1581.52,1458.42 1581.52,47.2441 
  "/>
<polyline clip-path="url(#clip632)" style="stroke:#000000; stroke-width:2; stroke-opacity:0.1; fill:none" points="
  1817.37,1458.42 1817.37,47.2441 
  "/>
<polyline clip-path="url(#clip632)" style="stroke:#000000; stroke-width:2; stroke-opacity:0.1; fill:none" points="
  2053.23,1458.42 2053.23,47.2441 
  "/>
<polyline clip-path="url(#clip632)" style="stroke:#000000; stroke-width:2; stroke-opacity:0.1; fill:none" points="
  2289.08,1458.42 2289.08,47.2441 
  "/>
<polyline clip-path="url(#clip630)" style="stroke:#000000; stroke-width:4; stroke-opacity:1; fill:none" points="
  102.74,1458.42 2352.76,1458.42 
  "/>
<polyline clip-path="url(#clip630)" style="stroke:#000000; stroke-width:4; stroke-opacity:1; fill:none" points="
  166.42,1458.42 166.42,1441.48 
  "/>
<polyline clip-path="url(#clip630)" style="stroke:#000000; stroke-width:4; stroke-opacity:1; fill:none" points="
  402.271,1458.42 402.271,1441.48 
  "/>
<polyline clip-path="url(#clip630)" style="stroke:#000000; stroke-width:4; stroke-opacity:1; fill:none" points="
  638.121,1458.42 638.121,1441.48 
  "/>
<polyline clip-path="url(#clip630)" style="stroke:#000000; stroke-width:4; stroke-opacity:1; fill:none" points="
  873.972,1458.42 873.972,1441.48 
  "/>
<polyline clip-path="url(#clip630)" style="stroke:#000000; stroke-width:4; stroke-opacity:1; fill:none" points="
  1109.82,1458.42 1109.82,1441.48 
  "/>
<polyline clip-path="url(#clip630)" style="stroke:#000000; stroke-width:4; stroke-opacity:1; fill:none" points="
  1345.67,1458.42 1345.67,1441.48 
  "/>
<polyline clip-path="url(#clip630)" style="stroke:#000000; stroke-width:4; stroke-opacity:1; fill:none" points="
  1581.52,1458.42 1581.52,1441.48 
  "/>
<polyline clip-path="url(#clip630)" style="stroke:#000000; stroke-width:4; stroke-opacity:1; fill:none" points="
  1817.37,1458.42 1817.37,1441.48 
  "/>
<polyline clip-path="url(#clip630)" style="stroke:#000000; stroke-width:4; stroke-opacity:1; fill:none" points="
  2053.23,1458.42 2053.23,1441.48 
  "/>
<polyline clip-path="url(#clip630)" style="stroke:#000000; stroke-width:4; stroke-opacity:1; fill:none" points="
  2289.08,1458.42 2289.08,1441.48 
  "/>
<path clip-path="url(#clip630)" d="M 0 0 M132.747 1536.69 L140.386 1536.69 L140.386 1510.32 L132.076 1511.99 L132.076 1507.73 L140.34 1506.06 L145.016 1506.06 L145.016 1536.69 L152.655 1536.69 L152.655 1540.62 L132.747 1540.62 L132.747 1536.69 Z" fill="#000000" fill-rule="evenodd" fill-opacity="1" /><path clip-path="url(#clip630)" d="M 0 0 M172.099 1509.14 Q168.488 1509.14 166.659 1512.71 Q164.854 1516.25 164.854 1523.38 Q164.854 1530.49 166.659 1534.05 Q168.488 1537.59 172.099 1537.59 Q175.733 1537.59 177.539 1534.05 Q179.368 1530.49 179.368 1523.38 Q179.368 1516.25 177.539 1512.71 Q175.733 1509.14 172.099 1509.14 M172.099 1505.44 Q177.909 1505.44 180.965 1510.05 Q184.043 1514.63 184.043 1523.38 Q184.043 1532.11 180.965 1536.71 Q177.909 1541.3 172.099 1541.3 Q166.289 1541.3 163.21 1536.71 Q160.155 1532.11 160.155 1523.38 Q160.155 1514.63 163.21 1510.05 Q166.289 1505.44 172.099 1505.44 Z" fill="#000000" fill-rule="evenodd" fill-opacity="1" /><path clip-path="url(#clip630)" d="M 0 0 M184.589 1510.02 L190.795 1510.02 L190.795 1488.59 L184.043 1489.95 L184.043 1486.49 L190.758 1485.13 L194.557 1485.13 L194.557 1510.02 L200.764 1510.02 L200.764 1513.21 L184.589 1513.21 L184.589 1510.02 Z" fill="#000000" fill-rule="evenodd" fill-opacity="1" /><path clip-path="url(#clip630)" d="M 0 0 M368.043 1536.69 L375.682 1536.69 L375.682 1510.32 L367.372 1511.99 L367.372 1507.73 L375.636 1506.06 L380.312 1506.06 L380.312 1536.69 L387.951 1536.69 L387.951 1540.62 L368.043 1540.62 L368.043 1536.69 Z" fill="#000000" fill-rule="evenodd" fill-opacity="1" /><path clip-path="url(#clip630)" d="M 0 0 M407.395 1509.14 Q403.784 1509.14 401.955 1512.71 Q400.15 1516.25 400.15 1523.38 Q400.15 1530.49 401.955 1534.05 Q403.784 1537.59 407.395 1537.59 Q411.029 1537.59 412.835 1534.05 Q414.663 1530.49 414.663 1523.38 Q414.663 1516.25 412.835 1512.71 Q411.029 1509.14 407.395 1509.14 M407.395 1505.44 Q413.205 1505.44 416.261 1510.05 Q419.339 1514.63 419.339 1523.38 Q419.339 1532.11 416.261 1536.71 Q413.205 1541.3 407.395 1541.3 Q401.585 1541.3 398.506 1536.71 Q395.451 1532.11 395.451 1523.38 Q395.451 1514.63 398.506 1510.05 Q401.585 1505.44 407.395 1505.44 Z" fill="#000000" fill-rule="evenodd" fill-opacity="1" /><path clip-path="url(#clip630)" d="M 0 0 M423.91 1510.02 L437.169 1510.02 L437.169 1513.21 L419.339 1513.21 L419.339 1510.02 Q421.502 1507.78 425.226 1504.02 Q428.969 1500.24 429.928 1499.15 Q431.752 1497.1 432.467 1495.68 Q433.201 1494.26 433.201 1492.88 Q433.201 1490.64 431.621 1489.23 Q430.06 1487.82 427.54 1487.82 Q425.753 1487.82 423.759 1488.44 Q421.784 1489.06 419.527 1490.32 L419.527 1486.49 Q421.822 1485.57 423.816 1485.1 Q425.809 1484.63 427.464 1484.63 Q431.828 1484.63 434.423 1486.81 Q437.019 1488.99 437.019 1492.64 Q437.019 1494.37 436.36 1495.93 Q435.721 1497.47 434.009 1499.58 Q433.539 1500.12 431.019 1502.74 Q428.499 1505.33 423.91 1510.02 Z" fill="#000000" fill-rule="evenodd" fill-opacity="1" /><path clip-path="url(#clip630)" d="M 0 0 M603.565 1536.69 L611.204 1536.69 L611.204 1510.32 L602.894 1511.99 L602.894 1507.73 L611.157 1506.06 L615.833 1506.06 L615.833 1536.69 L623.472 1536.69 L623.472 1540.62 L603.565 1540.62 L603.565 1536.69 Z" fill="#000000" fill-rule="evenodd" fill-opacity="1" /><path clip-path="url(#clip630)" d="M 0 0 M642.917 1509.14 Q639.305 1509.14 637.477 1512.71 Q635.671 1516.25 635.671 1523.38 Q635.671 1530.49 637.477 1534.05 Q639.305 1537.59 642.917 1537.59 Q646.551 1537.59 648.356 1534.05 Q650.185 1530.49 650.185 1523.38 Q650.185 1516.25 648.356 1512.71 Q646.551 1509.14 642.917 1509.14 M642.917 1505.44 Q648.727 1505.44 651.782 1510.05 Q654.861 1514.63 654.861 1523.38 Q654.861 1532.11 651.782 1536.71 Q648.727 1541.3 642.917 1541.3 Q637.106 1541.3 634.028 1536.71 Q630.972 1532.11 630.972 1523.38 Q630.972 1514.63 634.028 1510.05 Q637.106 1505.44 642.917 1505.44 Z" fill="#000000" fill-rule="evenodd" fill-opacity="1" /><path clip-path="url(#clip630)" d="M 0 0 M667.556 1498.07 Q670.283 1498.66 671.807 1500.5 Q673.349 1502.34 673.349 1505.05 Q673.349 1509.21 670.49 1511.48 Q667.631 1513.76 662.365 1513.76 Q660.597 1513.76 658.716 1513.4 Q656.855 1513.06 654.861 1512.37 L654.861 1508.7 Q656.441 1509.62 658.322 1510.09 Q660.202 1510.56 662.252 1510.56 Q665.826 1510.56 667.688 1509.15 Q669.569 1507.74 669.569 1505.05 Q669.569 1502.57 667.819 1501.18 Q666.089 1499.77 662.986 1499.77 L659.713 1499.77 L659.713 1496.64 L663.136 1496.64 Q665.939 1496.64 667.424 1495.53 Q668.91 1494.41 668.91 1492.3 Q668.91 1490.14 667.368 1488.99 Q665.845 1487.82 662.986 1487.82 Q661.425 1487.82 659.638 1488.16 Q657.851 1488.5 655.707 1489.21 L655.707 1485.83 Q657.87 1485.23 659.751 1484.93 Q661.651 1484.63 663.324 1484.63 Q667.65 1484.63 670.17 1486.6 Q672.691 1488.56 672.691 1491.9 Q672.691 1494.24 671.355 1495.85 Q670.02 1497.45 667.556 1498.07 Z" fill="#000000" fill-rule="evenodd" fill-opacity="1" /><path clip-path="url(#clip630)" d="M 0 0 M838.428 1536.69 L846.067 1536.69 L846.067 1510.32 L837.757 1511.99 L837.757 1507.73 L846.021 1506.06 L850.697 1506.06 L850.697 1536.69 L858.335 1536.69 L858.335 1540.62 L838.428 1540.62 L838.428 1536.69 Z" fill="#000000" fill-rule="evenodd" fill-opacity="1" /><path clip-path="url(#clip630)" d="M 0 0 M877.78 1509.14 Q874.169 1509.14 872.34 1512.71 Q870.534 1516.25 870.534 1523.38 Q870.534 1530.49 872.34 1534.05 Q874.169 1537.59 877.78 1537.59 Q881.414 1537.59 883.22 1534.05 Q885.048 1530.49 885.048 1523.38 Q885.048 1516.25 883.22 1512.71 Q881.414 1509.14 877.78 1509.14 M877.78 1505.44 Q883.59 1505.44 886.646 1510.05 Q889.724 1514.63 889.724 1523.38 Q889.724 1532.11 886.646 1536.71 Q883.59 1541.3 877.78 1541.3 Q871.97 1541.3 868.891 1536.71 Q865.835 1532.11 865.835 1523.38 Q865.835 1514.63 868.891 1510.05 Q871.97 1505.44 877.78 1505.44 Z" fill="#000000" fill-rule="evenodd" fill-opacity="1" /><path clip-path="url(#clip630)" d="M 0 0 M902.401 1488.44 L892.809 1503.43 L902.401 1503.43 L902.401 1488.44 M901.404 1485.13 L906.181 1485.13 L906.181 1503.43 L910.187 1503.43 L910.187 1506.59 L906.181 1506.59 L906.181 1513.21 L902.401 1513.21 L902.401 1506.59 L889.724 1506.59 L889.724 1502.93 L901.404 1485.13 Z" fill="#000000" fill-rule="evenodd" fill-opacity="1" /><path clip-path="url(#clip630)" d="M 0 0 M1075.43 1536.69 L1083.07 1536.69 L1083.07 1510.32 L1074.75 1511.99 L1074.75 1507.73 L1083.02 1506.06 L1087.69 1506.06 L1087.69 1536.69 L1095.33 1536.69 L1095.33 1540.62 L1075.43 1540.62 L1075.43 1536.69 Z" fill="#000000" fill-rule="evenodd" fill-opacity="1" /><path clip-path="url(#clip630)" d="M 0 0 M1114.78 1509.14 Q1111.17 1509.14 1109.34 1512.71 Q1107.53 1516.25 1107.53 1523.38 Q1107.53 1530.49 1109.34 1534.05 Q1111.17 1537.59 1114.78 1537.59 Q1118.41 1537.59 1120.22 1534.05 Q1122.05 1530.49 1122.05 1523.38 Q1122.05 1516.25 1120.22 1512.71 Q1118.41 1509.14 1114.78 1509.14 M1114.78 1505.44 Q1120.59 1505.44 1123.64 1510.05 Q1126.72 1514.63 1126.72 1523.38 Q1126.72 1532.11 1123.64 1536.71 Q1120.59 1541.3 1114.78 1541.3 Q1108.97 1541.3 1105.89 1536.71 Q1102.83 1532.11 1102.83 1523.38 Q1102.83 1514.63 1105.89 1510.05 Q1108.97 1505.44 1114.78 1505.44 Z" fill="#000000" fill-rule="evenodd" fill-opacity="1" /><path clip-path="url(#clip630)" d="M 0 0 M1127.91 1485.13 L1142.82 1485.13 L1142.82 1488.33 L1131.39 1488.33 L1131.39 1495.21 Q1132.21 1494.93 1133.04 1494.8 Q1133.87 1494.65 1134.7 1494.65 Q1139.4 1494.65 1142.14 1497.23 Q1144.89 1499.8 1144.89 1504.2 Q1144.89 1508.74 1142.07 1511.26 Q1139.25 1513.76 1134.11 1513.76 Q1132.35 1513.76 1130.5 1513.46 Q1128.68 1513.16 1126.72 1512.56 L1126.72 1508.74 Q1128.41 1509.66 1130.22 1510.11 Q1132.03 1510.56 1134.04 1510.56 Q1137.29 1510.56 1139.19 1508.85 Q1141.09 1507.14 1141.09 1504.2 Q1141.09 1501.27 1139.19 1499.56 Q1137.29 1497.85 1134.04 1497.85 Q1132.51 1497.85 1130.99 1498.19 Q1129.49 1498.52 1127.91 1499.24 L1127.91 1485.13 Z" fill="#000000" fill-rule="evenodd" fill-opacity="1" /><path clip-path="url(#clip630)" d="M 0 0 M1310.67 1536.69 L1318.3 1536.69 L1318.3 1510.32 L1309.99 1511.99 L1309.99 1507.73 L1318.26 1506.06 L1322.93 1506.06 L1322.93 1536.69 L1330.57 1536.69 L1330.57 1540.62 L1310.67 1540.62 L1310.67 1536.69 Z" fill="#000000" fill-rule="evenodd" fill-opacity="1" /><path clip-path="url(#clip630)" d="M 0 0 M1350.02 1509.14 Q1346.41 1509.14 1344.58 1512.71 Q1342.77 1516.25 1342.77 1523.38 Q1342.77 1530.49 1344.58 1534.05 Q1346.41 1537.59 1350.02 1537.59 Q1353.65 1537.59 1355.46 1534.05 Q1357.29 1530.49 1357.29 1523.38 Q1357.29 1516.25 1355.46 1512.71 Q1353.65 1509.14 1350.02 1509.14 M1350.02 1505.44 Q1355.83 1505.44 1358.88 1510.05 Q1361.96 1514.63 1361.96 1523.38 Q1361.96 1532.11 1358.88 1536.71 Q1355.83 1541.3 1350.02 1541.3 Q1344.21 1541.3 1341.13 1536.71 Q1338.07 1532.11 1338.07 1523.38 Q1338.07 1514.63 1341.13 1510.05 Q1344.21 1505.44 1350.02 1505.44 Z" fill="#000000" fill-rule="evenodd" fill-opacity="1" /><path clip-path="url(#clip630)" d="M 0 0 M1371.99 1497.66 Q1369.43 1497.66 1367.92 1499.41 Q1366.44 1501.16 1366.44 1504.2 Q1366.44 1507.23 1367.92 1509 Q1369.43 1510.75 1371.99 1510.75 Q1374.54 1510.75 1376.03 1509 Q1377.53 1507.23 1377.53 1504.2 Q1377.53 1501.16 1376.03 1499.41 Q1374.54 1497.66 1371.99 1497.66 M1379.53 1485.75 L1379.53 1489.21 Q1378.1 1488.54 1376.63 1488.18 Q1375.18 1487.82 1373.75 1487.82 Q1369.99 1487.82 1368 1490.36 Q1366.02 1492.9 1365.74 1498.04 Q1366.85 1496.4 1368.53 1495.53 Q1370.2 1494.65 1372.21 1494.65 Q1376.44 1494.65 1378.89 1497.23 Q1381.35 1499.78 1381.35 1504.2 Q1381.35 1508.53 1378.79 1511.14 Q1376.24 1513.76 1371.99 1513.76 Q1367.11 1513.76 1364.54 1510.03 Q1361.96 1506.29 1361.96 1499.2 Q1361.96 1492.54 1365.12 1488.59 Q1368.28 1484.63 1373.6 1484.63 Q1375.03 1484.63 1376.48 1484.91 Q1377.95 1485.19 1379.53 1485.75 Z" fill="#000000" fill-rule="evenodd" fill-opacity="1" /><path clip-path="url(#clip630)" d="M 0 0 M1547.18 1536.69 L1554.82 1536.69 L1554.82 1510.32 L1546.51 1511.99 L1546.51 1507.73 L1554.78 1506.06 L1559.45 1506.06 L1559.45 1536.69 L1567.09 1536.69 L1567.09 1540.62 L1547.18 1540.62 L1547.18 1536.69 Z" fill="#000000" fill-rule="evenodd" fill-opacity="1" /><path clip-path="url(#clip630)" d="M 0 0 M1586.54 1509.14 Q1582.92 1509.14 1581.1 1512.71 Q1579.29 1516.25 1579.29 1523.38 Q1579.29 1530.49 1581.1 1534.05 Q1582.92 1537.59 1586.54 1537.59 Q1590.17 1537.59 1591.98 1534.05 Q1593.8 1530.49 1593.8 1523.38 Q1593.8 1516.25 1591.98 1512.71 Q1590.17 1509.14 1586.54 1509.14 M1586.54 1505.44 Q1592.35 1505.44 1595.4 1510.05 Q1598.48 1514.63 1598.48 1523.38 Q1598.48 1532.11 1595.4 1536.71 Q1592.35 1541.3 1586.54 1541.3 Q1580.73 1541.3 1577.65 1536.71 Q1574.59 1532.11 1574.59 1523.38 Q1574.59 1514.63 1577.65 1510.05 Q1580.73 1505.44 1586.54 1505.44 Z" fill="#000000" fill-rule="evenodd" fill-opacity="1" /><path clip-path="url(#clip630)" d="M 0 0 M1598.48 1485.13 L1616.54 1485.13 L1616.54 1486.75 L1606.34 1513.21 L1602.37 1513.21 L1611.97 1488.33 L1598.48 1488.33 L1598.48 1485.13 Z" fill="#000000" fill-rule="evenodd" fill-opacity="1" /><path clip-path="url(#clip630)" d="M 0 0 M1782.43 1536.69 L1790.07 1536.69 L1790.07 1510.32 L1781.76 1511.99 L1781.76 1507.73 L1790.03 1506.06 L1794.7 1506.06 L1794.7 1536.69 L1802.34 1536.69 L1802.34 1540.62 L1782.43 1540.62 L1782.43 1536.69 Z" fill="#000000" fill-rule="evenodd" fill-opacity="1" /><path clip-path="url(#clip630)" d="M 0 0 M1821.78 1509.14 Q1818.17 1509.14 1816.34 1512.71 Q1814.54 1516.25 1814.54 1523.38 Q1814.54 1530.49 1816.34 1534.05 Q1818.17 1537.59 1821.78 1537.59 Q1825.42 1537.59 1827.22 1534.05 Q1829.05 1530.49 1829.05 1523.38 Q1829.05 1516.25 1827.22 1512.71 Q1825.42 1509.14 1821.78 1509.14 M1821.78 1505.44 Q1827.59 1505.44 1830.65 1510.05 Q1833.73 1514.63 1833.73 1523.38 Q1833.73 1532.11 1830.65 1536.71 Q1827.59 1541.3 1821.78 1541.3 Q1815.97 1541.3 1812.9 1536.71 Q1809.84 1532.11 1809.84 1523.38 Q1809.84 1514.63 1812.9 1510.05 Q1815.97 1505.44 1821.78 1505.44 Z" fill="#000000" fill-rule="evenodd" fill-opacity="1" /><path clip-path="url(#clip630)" d="M 0 0 M1843.36 1499.88 Q1840.65 1499.88 1839.09 1501.33 Q1837.55 1502.78 1837.55 1505.31 Q1837.55 1507.85 1839.09 1509.3 Q1840.65 1510.75 1843.36 1510.75 Q1846.07 1510.75 1847.63 1509.3 Q1849.19 1507.83 1849.19 1505.31 Q1849.19 1502.78 1847.63 1501.33 Q1846.09 1499.88 1843.36 1499.88 M1839.56 1498.26 Q1837.11 1497.66 1835.74 1495.99 Q1834.39 1494.31 1834.39 1491.9 Q1834.39 1488.54 1836.78 1486.58 Q1839.18 1484.63 1843.36 1484.63 Q1847.55 1484.63 1849.94 1486.58 Q1852.33 1488.54 1852.33 1491.9 Q1852.33 1494.31 1850.96 1495.99 Q1849.6 1497.66 1847.18 1498.26 Q1849.92 1498.9 1851.45 1500.76 Q1852.99 1502.62 1852.99 1505.31 Q1852.99 1509.4 1850.49 1511.58 Q1848 1513.76 1843.36 1513.76 Q1838.71 1513.76 1836.21 1511.58 Q1833.73 1509.4 1833.73 1505.31 Q1833.73 1502.62 1835.27 1500.76 Q1836.81 1498.9 1839.56 1498.26 M1838.17 1492.26 Q1838.17 1494.44 1839.52 1495.67 Q1840.89 1496.89 1843.36 1496.89 Q1845.8 1496.89 1847.18 1495.67 Q1848.57 1494.44 1848.57 1492.26 Q1848.57 1490.08 1847.18 1488.86 Q1845.8 1487.63 1843.36 1487.63 Q1840.89 1487.63 1839.52 1488.86 Q1838.17 1490.08 1838.17 1492.26 Z" fill="#000000" fill-rule="evenodd" fill-opacity="1" /><path clip-path="url(#clip630)" d="M 0 0 M2018.23 1536.69 L2025.87 1536.69 L2025.87 1510.32 L2017.56 1511.99 L2017.56 1507.73 L2025.82 1506.06 L2030.5 1506.06 L2030.5 1536.69 L2038.13 1536.69 L2038.13 1540.62 L2018.23 1540.62 L2018.23 1536.69 Z" fill="#000000" fill-rule="evenodd" fill-opacity="1" /><path clip-path="url(#clip630)" d="M 0 0 M2057.58 1509.14 Q2053.97 1509.14 2052.14 1512.71 Q2050.33 1516.25 2050.33 1523.38 Q2050.33 1530.49 2052.14 1534.05 Q2053.97 1537.59 2057.58 1537.59 Q2061.21 1537.59 2063.02 1534.05 Q2064.85 1530.49 2064.85 1523.38 Q2064.85 1516.25 2063.02 1512.71 Q2061.21 1509.14 2057.58 1509.14 M2057.58 1505.44 Q2063.39 1505.44 2066.44 1510.05 Q2069.52 1514.63 2069.52 1523.38 Q2069.52 1532.11 2066.44 1536.71 Q2063.39 1541.3 2057.58 1541.3 Q2051.77 1541.3 2048.69 1536.71 Q2045.63 1532.11 2045.63 1523.38 Q2045.63 1514.63 2048.69 1510.05 Q2051.77 1505.44 2057.58 1505.44 Z" fill="#000000" fill-rule="evenodd" fill-opacity="1" /><path clip-path="url(#clip630)" d="M 0 0 M2071.33 1512.63 L2071.33 1509.17 Q2072.76 1509.85 2074.23 1510.2 Q2075.69 1510.56 2077.1 1510.56 Q2080.86 1510.56 2082.84 1508.04 Q2084.83 1505.5 2085.11 1500.35 Q2084.02 1501.97 2082.35 1502.83 Q2080.68 1503.7 2078.64 1503.7 Q2074.43 1503.7 2071.97 1501.16 Q2069.52 1498.6 2069.52 1494.18 Q2069.52 1489.85 2072.08 1487.24 Q2074.64 1484.63 2078.89 1484.63 Q2083.76 1484.63 2086.32 1488.37 Q2088.9 1492.09 2088.9 1499.2 Q2088.9 1505.84 2085.74 1509.81 Q2082.59 1513.76 2077.27 1513.76 Q2075.84 1513.76 2074.38 1513.48 Q2072.91 1513.19 2071.33 1512.63 M2078.89 1500.73 Q2081.45 1500.73 2082.93 1498.98 Q2084.44 1497.23 2084.44 1494.18 Q2084.44 1491.15 2082.93 1489.4 Q2081.45 1487.63 2078.89 1487.63 Q2076.33 1487.63 2074.83 1489.4 Q2073.34 1491.15 2073.34 1494.18 Q2073.34 1497.23 2074.83 1498.98 Q2076.33 1500.73 2078.89 1500.73 Z" fill="#000000" fill-rule="evenodd" fill-opacity="1" /><path clip-path="url(#clip630)" d="M 0 0 M2242.65 1536.69 L2250.29 1536.69 L2250.29 1510.32 L2241.98 1511.99 L2241.98 1507.73 L2250.24 1506.06 L2254.92 1506.06 L2254.92 1536.69 L2262.56 1536.69 L2262.56 1540.62 L2242.65 1540.62 L2242.65 1536.69 Z" fill="#000000" fill-rule="evenodd" fill-opacity="1" /><path clip-path="url(#clip630)" d="M 0 0 M2282 1509.14 Q2278.39 1509.14 2276.56 1512.71 Q2274.76 1516.25 2274.76 1523.38 Q2274.76 1530.49 2276.56 1534.05 Q2278.39 1537.59 2282 1537.59 Q2285.64 1537.59 2287.44 1534.05 Q2289.27 1530.49 2289.27 1523.38 Q2289.27 1516.25 2287.44 1512.71 Q2285.64 1509.14 2282 1509.14 M2282 1505.44 Q2287.81 1505.44 2290.87 1510.05 Q2293.95 1514.63 2293.95 1523.38 Q2293.95 1532.11 2290.87 1536.71 Q2287.81 1541.3 2282 1541.3 Q2276.19 1541.3 2273.11 1536.71 Q2270.06 1532.11 2270.06 1523.38 Q2270.06 1514.63 2273.11 1510.05 Q2276.19 1505.44 2282 1505.44 Z" fill="#000000" fill-rule="evenodd" fill-opacity="1" /><path clip-path="url(#clip630)" d="M 0 0 M2294.49 1510.02 L2300.7 1510.02 L2300.7 1488.59 L2293.95 1489.95 L2293.95 1486.49 L2300.66 1485.13 L2304.46 1485.13 L2304.46 1510.02 L2310.67 1510.02 L2310.67 1513.21 L2294.49 1513.21 L2294.49 1510.02 Z" fill="#000000" fill-rule="evenodd" fill-opacity="1" /><path clip-path="url(#clip630)" d="M 0 0 M2326.47 1487.63 Q2323.53 1487.63 2322.05 1490.53 Q2320.58 1493.41 2320.58 1499.2 Q2320.58 1504.98 2322.05 1507.87 Q2323.53 1510.75 2326.47 1510.75 Q2329.42 1510.75 2330.89 1507.87 Q2332.37 1504.98 2332.37 1499.2 Q2332.37 1493.41 2330.89 1490.53 Q2329.42 1487.63 2326.47 1487.63 M2326.47 1484.63 Q2331.19 1484.63 2333.67 1488.37 Q2336.17 1492.09 2336.17 1499.2 Q2336.17 1506.29 2333.67 1510.03 Q2331.19 1513.76 2326.47 1513.76 Q2321.75 1513.76 2319.24 1510.03 Q2316.76 1506.29 2316.76 1499.2 Q2316.76 1492.09 2319.24 1488.37 Q2321.75 1484.63 2326.47 1484.63 Z" fill="#000000" fill-rule="evenodd" fill-opacity="1" /><path clip-path="url(#clip630)" d="M 0 0 M1077.31 1574.19 L1083.74 1574.19 L1083.74 1621.71 L1077.31 1621.71 L1077.31 1574.19 Z" fill="#000000" fill-rule="evenodd" fill-opacity="1" /><path clip-path="url(#clip630)" d="M 0 0 M1102.07 1575.94 L1102.07 1586.06 L1114.14 1586.06 L1114.14 1590.61 L1102.07 1590.61 L1102.07 1609.96 Q1102.07 1614.32 1103.25 1615.56 Q1104.46 1616.8 1108.12 1616.8 L1114.14 1616.8 L1114.14 1621.71 L1108.12 1621.71 Q1101.34 1621.71 1098.76 1619.19 Q1096.18 1616.64 1096.18 1609.96 L1096.18 1590.61 L1091.89 1590.61 L1091.89 1586.06 L1096.18 1586.06 L1096.18 1575.94 L1102.07 1575.94 Z" fill="#000000" fill-rule="evenodd" fill-opacity="1" /><path clip-path="url(#clip630)" d="M 0 0 M1152.33 1602.42 L1152.33 1605.28 L1125.4 1605.28 Q1125.79 1611.33 1129.03 1614.51 Q1132.31 1617.66 1138.13 1617.66 Q1141.51 1617.66 1144.66 1616.84 Q1147.84 1616.01 1150.96 1614.35 L1150.96 1619.89 Q1147.81 1621.23 1144.5 1621.93 Q1141.19 1622.63 1137.78 1622.63 Q1129.25 1622.63 1124.26 1617.66 Q1119.29 1612.7 1119.29 1604.23 Q1119.29 1595.48 1124 1590.35 Q1128.75 1585.2 1136.77 1585.2 Q1143.96 1585.2 1148.13 1589.85 Q1152.33 1594.46 1152.33 1602.42 M1146.47 1600.7 Q1146.41 1595.89 1143.77 1593.03 Q1141.16 1590.16 1136.83 1590.16 Q1131.93 1590.16 1128.97 1592.93 Q1126.04 1595.7 1125.59 1600.73 L1146.47 1600.7 Z" fill="#000000" fill-rule="evenodd" fill-opacity="1" /><path clip-path="url(#clip630)" d="M 0 0 M1182.6 1591.53 Q1181.61 1590.96 1180.43 1590.7 Q1179.29 1590.42 1177.89 1590.42 Q1172.92 1590.42 1170.25 1593.66 Q1167.61 1596.88 1167.61 1602.93 L1167.61 1621.71 L1161.72 1621.71 L1161.72 1586.06 L1167.61 1586.06 L1167.61 1591.6 Q1169.45 1588.35 1172.41 1586.79 Q1175.37 1585.2 1179.61 1585.2 Q1180.21 1585.2 1180.94 1585.29 Q1181.68 1585.36 1182.57 1585.52 L1182.6 1591.53 Z" fill="#000000" fill-rule="evenodd" fill-opacity="1" /><path clip-path="url(#clip630)" d="M 0 0 M1204.94 1603.79 Q1197.85 1603.79 1195.11 1605.41 Q1192.37 1607.03 1192.37 1610.95 Q1192.37 1614.07 1194.41 1615.91 Q1196.48 1617.73 1200.01 1617.73 Q1204.88 1617.73 1207.81 1614.29 Q1210.77 1610.82 1210.77 1605.09 L1210.77 1603.79 L1204.94 1603.79 M1216.62 1601.37 L1216.62 1621.71 L1210.77 1621.71 L1210.77 1616.29 Q1208.76 1619.54 1205.77 1621.1 Q1202.78 1622.63 1198.45 1622.63 Q1192.98 1622.63 1189.73 1619.57 Q1186.51 1616.49 1186.51 1611.33 Q1186.51 1605.31 1190.52 1602.26 Q1194.57 1599.2 1202.56 1599.2 L1210.77 1599.2 L1210.77 1598.63 Q1210.77 1594.59 1208.09 1592.39 Q1205.45 1590.16 1200.65 1590.16 Q1197.59 1590.16 1194.69 1590.9 Q1191.8 1591.63 1189.12 1593.09 L1189.12 1587.68 Q1192.34 1586.44 1195.36 1585.83 Q1198.39 1585.2 1201.25 1585.2 Q1208.99 1585.2 1212.8 1589.21 Q1216.62 1593.22 1216.62 1601.37 Z" fill="#000000" fill-rule="evenodd" fill-opacity="1" /><path clip-path="url(#clip630)" d="M 0 0 M1234.48 1575.94 L1234.48 1586.06 L1246.54 1586.06 L1246.54 1590.61 L1234.48 1590.61 L1234.48 1609.96 Q1234.48 1614.32 1235.66 1615.56 Q1236.87 1616.8 1240.53 1616.8 L1246.54 1616.8 L1246.54 1621.71 L1240.53 1621.71 Q1233.75 1621.71 1231.17 1619.19 Q1228.59 1616.64 1228.59 1609.96 L1228.59 1590.61 L1224.29 1590.61 L1224.29 1586.06 L1228.59 1586.06 L1228.59 1575.94 L1234.48 1575.94 Z" fill="#000000" fill-rule="evenodd" fill-opacity="1" /><path clip-path="url(#clip630)" d="M 0 0 M1254.25 1586.06 L1260.1 1586.06 L1260.1 1621.71 L1254.25 1621.71 L1254.25 1586.06 M1254.25 1572.18 L1260.1 1572.18 L1260.1 1579.6 L1254.25 1579.6 L1254.25 1572.18 Z" fill="#000000" fill-rule="evenodd" fill-opacity="1" /><path clip-path="url(#clip630)" d="M 0 0 M1286.17 1590.16 Q1281.46 1590.16 1278.72 1593.86 Q1275.98 1597.52 1275.98 1603.91 Q1275.98 1610.31 1278.69 1614 Q1281.43 1617.66 1286.17 1617.66 Q1290.85 1617.66 1293.59 1613.97 Q1296.32 1610.28 1296.32 1603.91 Q1296.32 1597.58 1293.59 1593.89 Q1290.85 1590.16 1286.17 1590.16 M1286.17 1585.2 Q1293.81 1585.2 1298.17 1590.16 Q1302.53 1595.13 1302.53 1603.91 Q1302.53 1612.67 1298.17 1617.66 Q1293.81 1622.63 1286.17 1622.63 Q1278.5 1622.63 1274.14 1617.66 Q1269.81 1612.67 1269.81 1603.91 Q1269.81 1595.13 1274.14 1590.16 Q1278.5 1585.2 1286.17 1585.2 Z" fill="#000000" fill-rule="evenodd" fill-opacity="1" /><path clip-path="url(#clip630)" d="M 0 0 M1341.87 1600.19 L1341.87 1621.71 L1336.01 1621.71 L1336.01 1600.38 Q1336.01 1595.32 1334.04 1592.81 Q1332.07 1590.29 1328.12 1590.29 Q1323.38 1590.29 1320.64 1593.31 Q1317.9 1596.34 1317.9 1601.56 L1317.9 1621.71 L1312.01 1621.71 L1312.01 1586.06 L1317.9 1586.06 L1317.9 1591.6 Q1320 1588.38 1322.84 1586.79 Q1325.7 1585.2 1329.42 1585.2 Q1335.57 1585.2 1338.72 1589.02 Q1341.87 1592.81 1341.87 1600.19 Z" fill="#000000" fill-rule="evenodd" fill-opacity="1" /><path clip-path="url(#clip630)" d="M 0 0 M1376.28 1587.11 L1376.28 1592.65 Q1373.79 1591.37 1371.12 1590.74 Q1368.45 1590.1 1365.58 1590.1 Q1361.22 1590.1 1359.02 1591.44 Q1356.86 1592.77 1356.86 1595.45 Q1356.86 1597.48 1358.42 1598.66 Q1359.98 1599.81 1364.69 1600.86 L1366.7 1601.3 Q1372.93 1602.64 1375.54 1605.09 Q1378.19 1607.51 1378.19 1611.87 Q1378.19 1616.84 1374.24 1619.73 Q1370.32 1622.63 1363.45 1622.63 Q1360.58 1622.63 1357.47 1622.06 Q1354.38 1621.51 1350.94 1620.4 L1350.94 1614.35 Q1354.19 1616.04 1357.34 1616.9 Q1360.49 1617.73 1363.58 1617.73 Q1367.71 1617.73 1369.94 1616.33 Q1372.17 1614.89 1372.17 1612.32 Q1372.17 1609.93 1370.55 1608.66 Q1368.96 1607.38 1363.51 1606.2 L1361.48 1605.73 Q1356.03 1604.58 1353.61 1602.23 Q1351.19 1599.84 1351.19 1595.7 Q1351.19 1590.67 1354.76 1587.94 Q1358.32 1585.2 1364.88 1585.2 Q1368.13 1585.2 1370.99 1585.68 Q1373.86 1586.15 1376.28 1587.11 Z" fill="#000000" fill-rule="evenodd" fill-opacity="1" /><polyline clip-path="url(#clip632)" style="stroke:#000000; stroke-width:2; stroke-opacity:0.1; fill:none" points="
  102.74,1375.41 2352.76,1375.41 
  "/>
<polyline clip-path="url(#clip632)" style="stroke:#000000; stroke-width:2; stroke-opacity:0.1; fill:none" points="
  102.74,1043.37 2352.76,1043.37 
  "/>
<polyline clip-path="url(#clip632)" style="stroke:#000000; stroke-width:2; stroke-opacity:0.1; fill:none" points="
  102.74,711.325 2352.76,711.325 
  "/>
<polyline clip-path="url(#clip632)" style="stroke:#000000; stroke-width:2; stroke-opacity:0.1; fill:none" points="
  102.74,379.285 2352.76,379.285 
  "/>
<polyline clip-path="url(#clip632)" style="stroke:#000000; stroke-width:2; stroke-opacity:0.1; fill:none" points="
  102.74,47.2441 2352.76,47.2441 
  "/>
<polyline clip-path="url(#clip630)" style="stroke:#000000; stroke-width:4; stroke-opacity:1; fill:none" points="
  102.74,1458.42 102.74,47.2441 
  "/>
<polyline clip-path="url(#clip630)" style="stroke:#000000; stroke-width:4; stroke-opacity:1; fill:none" points="
  102.74,1375.41 129.74,1375.41 
  "/>
<polyline clip-path="url(#clip630)" style="stroke:#000000; stroke-width:4; stroke-opacity:1; fill:none" points="
  102.74,1043.37 129.74,1043.37 
  "/>
<polyline clip-path="url(#clip630)" style="stroke:#000000; stroke-width:4; stroke-opacity:1; fill:none" points="
  102.74,711.325 129.74,711.325 
  "/>
<polyline clip-path="url(#clip630)" style="stroke:#000000; stroke-width:4; stroke-opacity:1; fill:none" points="
  102.74,379.285 129.74,379.285 
  "/>
<polyline clip-path="url(#clip630)" style="stroke:#000000; stroke-width:4; stroke-opacity:1; fill:none" points="
  102.74,47.2441 129.74,47.2441 
  "/>
<path clip-path="url(#clip630)" d="M 0 0 M54.7958 1361.21 Q51.1847 1361.21 49.356 1364.77 Q47.5504 1368.31 47.5504 1375.44 Q47.5504 1382.55 49.356 1386.11 Q51.1847 1389.65 54.7958 1389.65 Q58.43 1389.65 60.2356 1386.11 Q62.0643 1382.55 62.0643 1375.44 Q62.0643 1368.31 60.2356 1364.77 Q58.43 1361.21 54.7958 1361.21 M54.7958 1357.5 Q60.6059 1357.5 63.6615 1362.11 Q66.7402 1366.69 66.7402 1375.44 Q66.7402 1384.17 63.6615 1388.77 Q60.6059 1393.36 54.7958 1393.36 Q48.9856 1393.36 45.9069 1388.77 Q42.8514 1384.17 42.8514 1375.44 Q42.8514 1366.69 45.9069 1362.11 Q48.9856 1357.5 54.7958 1357.5 Z" fill="#000000" fill-rule="evenodd" fill-opacity="1" /><path clip-path="url(#clip630)" d="M 0 0 M18.6617 1056.71 L34.9811 1056.71 L34.9811 1060.65 L13.0367 1060.65 L13.0367 1056.71 Q15.6988 1053.96 20.2821 1049.33 Q24.8885 1044.67 26.0691 1043.33 Q28.3144 1040.81 29.1941 1039.07 Q30.0968 1037.31 30.0968 1035.62 Q30.0968 1032.87 28.1524 1031.13 Q26.2311 1029.4 23.1293 1029.4 Q20.9302 1029.4 18.4765 1030.16 Q16.046 1030.92 13.2682 1032.47 L13.2682 1027.75 Q16.0923 1026.62 18.546 1026.04 Q20.9997 1025.46 23.0367 1025.46 Q28.407 1025.46 31.6015 1028.15 Q34.7959 1030.83 34.7959 1035.32 Q34.7959 1037.45 33.9857 1039.37 Q33.1987 1041.27 31.0922 1043.86 Q30.5135 1044.53 27.4117 1047.75 Q24.3098 1050.95 18.6617 1056.71 Z" fill="#000000" fill-rule="evenodd" fill-opacity="1" /><path clip-path="url(#clip630)" d="M 0 0 M54.7958 1029.16 Q51.1847 1029.16 49.356 1032.73 Q47.5504 1036.27 47.5504 1043.4 Q47.5504 1050.51 49.356 1054.07 Q51.1847 1057.61 54.7958 1057.61 Q58.43 1057.61 60.2356 1054.07 Q62.0643 1050.51 62.0643 1043.4 Q62.0643 1036.27 60.2356 1032.73 Q58.43 1029.16 54.7958 1029.16 M54.7958 1025.46 Q60.6059 1025.46 63.6615 1030.07 Q66.7402 1034.65 66.7402 1043.4 Q66.7402 1052.13 63.6615 1056.73 Q60.6059 1061.32 54.7958 1061.32 Q48.9856 1061.32 45.9069 1056.73 Q42.8514 1052.13 42.8514 1043.4 Q42.8514 1034.65 45.9069 1030.07 Q48.9856 1025.46 54.7958 1025.46 Z" fill="#000000" fill-rule="evenodd" fill-opacity="1" /><path clip-path="url(#clip630)" d="M 0 0 M27.4811 698.119 L15.6756 716.568 L27.4811 716.568 L27.4811 698.119 M26.2543 694.045 L32.1339 694.045 L32.1339 716.568 L37.0644 716.568 L37.0644 720.457 L32.1339 720.457 L32.1339 728.605 L27.4811 728.605 L27.4811 720.457 L11.8793 720.457 L11.8793 715.943 L26.2543 694.045 Z" fill="#000000" fill-rule="evenodd" fill-opacity="1" /><path clip-path="url(#clip630)" d="M 0 0 M54.7958 697.124 Q51.1847 697.124 49.356 700.689 Q47.5504 704.23 47.5504 711.36 Q47.5504 718.466 49.356 722.031 Q51.1847 725.573 54.7958 725.573 Q58.43 725.573 60.2356 722.031 Q62.0643 718.466 62.0643 711.36 Q62.0643 704.23 60.2356 700.689 Q58.43 697.124 54.7958 697.124 M54.7958 693.42 Q60.6059 693.42 63.6615 698.027 Q66.7402 702.61 66.7402 711.36 Q66.7402 720.087 63.6615 724.693 Q60.6059 729.277 54.7958 729.277 Q48.9856 729.277 45.9069 724.693 Q42.8514 720.087 42.8514 711.36 Q42.8514 702.61 45.9069 698.027 Q48.9856 693.42 54.7958 693.42 Z" fill="#000000" fill-rule="evenodd" fill-opacity="1" /><path clip-path="url(#clip630)" d="M 0 0 M25.2126 377.421 Q22.0645 377.421 20.2126 379.574 Q18.3839 381.727 18.3839 385.477 Q18.3839 389.204 20.2126 391.38 Q22.0645 393.532 25.2126 393.532 Q28.3607 393.532 30.1894 391.38 Q32.0413 389.204 32.0413 385.477 Q32.0413 381.727 30.1894 379.574 Q28.3607 377.421 25.2126 377.421 M34.495 362.769 L34.495 367.028 Q32.7357 366.194 30.9302 365.755 Q29.1478 365.315 27.3885 365.315 Q22.7589 365.315 20.3052 368.44 Q17.8747 371.565 17.5275 377.884 Q18.8932 375.87 20.9534 374.806 Q23.0135 373.718 25.4904 373.718 Q30.6987 373.718 33.7079 376.889 Q36.7403 380.037 36.7403 385.477 Q36.7403 390.801 33.5922 394.018 Q30.4441 397.236 25.2126 397.236 Q19.2173 397.236 16.046 392.653 Q12.8747 388.046 12.8747 379.319 Q12.8747 371.125 16.7636 366.264 Q20.6524 361.38 27.2033 361.38 Q28.9626 361.38 30.745 361.727 Q32.5505 362.074 34.495 362.769 Z" fill="#000000" fill-rule="evenodd" fill-opacity="1" /><path clip-path="url(#clip630)" d="M 0 0 M54.7958 365.083 Q51.1847 365.083 49.356 368.648 Q47.5504 372.19 47.5504 379.319 Q47.5504 386.426 49.356 389.991 Q51.1847 393.532 54.7958 393.532 Q58.43 393.532 60.2356 389.991 Q62.0643 386.426 62.0643 379.319 Q62.0643 372.19 60.2356 368.648 Q58.43 365.083 54.7958 365.083 M54.7958 361.38 Q60.6059 361.38 63.6615 365.986 Q66.7402 370.569 66.7402 379.319 Q66.7402 388.046 63.6615 392.653 Q60.6059 397.236 54.7958 397.236 Q48.9856 397.236 45.9069 392.653 Q42.8514 388.046 42.8514 379.319 Q42.8514 370.569 45.9069 365.986 Q48.9856 361.38 54.7958 361.38 Z" fill="#000000" fill-rule="evenodd" fill-opacity="1" /><path clip-path="url(#clip630)" d="M 0 0 M24.6339 48.1121 Q21.3006 48.1121 19.3793 49.8945 Q17.4812 51.6769 17.4812 54.8019 Q17.4812 57.9269 19.3793 59.7093 Q21.3006 61.4917 24.6339 61.4917 Q27.9672 61.4917 29.8885 59.7093 Q31.8098 57.9038 31.8098 54.8019 Q31.8098 51.6769 29.8885 49.8945 Q27.9904 48.1121 24.6339 48.1121 M19.958 46.1214 Q16.9488 45.3807 15.259 43.3205 Q13.5923 41.2603 13.5923 38.2974 Q13.5923 34.1539 16.5321 31.7465 Q19.495 29.3391 24.6339 29.3391 Q29.7959 29.3391 32.7357 31.7465 Q35.6755 34.1539 35.6755 38.2974 Q35.6755 41.2603 33.9857 43.3205 Q32.319 45.3807 29.333 46.1214 Q32.7126 46.9084 34.5876 49.2001 Q36.4857 51.4918 36.4857 54.8019 Q36.4857 59.825 33.407 62.5102 Q30.3515 65.1954 24.6339 65.1954 Q18.9163 65.1954 15.8377 62.5102 Q12.7821 59.825 12.7821 54.8019 Q12.7821 51.4918 14.6803 49.2001 Q16.5784 46.9084 19.958 46.1214 M18.245 38.7372 Q18.245 41.4224 19.9117 42.927 Q21.6015 44.4316 24.6339 44.4316 Q27.6431 44.4316 29.333 42.927 Q31.0459 41.4224 31.0459 38.7372 Q31.0459 36.052 29.333 34.5474 Q27.6431 33.0428 24.6339 33.0428 Q21.6015 33.0428 19.9117 34.5474 Q18.245 36.052 18.245 38.7372 Z" fill="#000000" fill-rule="evenodd" fill-opacity="1" /><path clip-path="url(#clip630)" d="M 0 0 M54.7958 33.0428 Q51.1847 33.0428 49.356 36.6076 Q47.5504 40.1492 47.5504 47.2788 Q47.5504 54.3853 49.356 57.9501 Q51.1847 61.4917 54.7958 61.4917 Q58.43 61.4917 60.2356 57.9501 Q62.0643 54.3853 62.0643 47.2788 Q62.0643 40.1492 60.2356 36.6076 Q58.43 33.0428 54.7958 33.0428 M54.7958 29.3391 Q60.6059 29.3391 63.6615 33.9456 Q66.7402 38.5289 66.7402 47.2788 Q66.7402 56.0056 63.6615 60.6121 Q60.6059 65.1954 54.7958 65.1954 Q48.9856 65.1954 45.9069 60.6121 Q42.8514 56.0056 42.8514 47.2788 Q42.8514 38.5289 45.9069 33.9456 Q48.9856 29.3391 54.7958 29.3391 Z" fill="#000000" fill-rule="evenodd" fill-opacity="1" /><path clip-path="url(#clip630)" d="M 0 0 M-85.8967 882.659 L-85.8967 842.46 L-80.4858 842.46 L-80.4858 859.329 L-38.3767 859.329 L-38.3767 865.79 L-80.4858 865.79 L-80.4858 882.659 L-85.8967 882.659 Z" fill="#000000" fill-rule="evenodd" fill-opacity="1" /><path clip-path="url(#clip630)" d="M 0 0 M-74.0246 838.513 L-74.0246 832.656 L-38.3767 832.656 L-38.3767 838.513 L-74.0246 838.513 M-87.9019 838.513 L-87.9019 832.656 L-80.4858 832.656 L-80.4858 838.513 L-87.9019 838.513 Z" fill="#000000" fill-rule="evenodd" fill-opacity="1" /><path clip-path="url(#clip630)" d="M 0 0 M-67.1815 792.648 Q-71.1282 790.452 -73.0061 787.396 Q-74.884 784.341 -74.884 780.203 Q-74.884 774.633 -70.9691 771.609 Q-67.086 768.585 -59.8927 768.585 L-38.3767 768.585 L-38.3767 774.474 L-59.7018 774.474 Q-64.8262 774.474 -67.3088 776.288 Q-69.7914 778.102 -69.7914 781.826 Q-69.7914 786.378 -66.7677 789.019 Q-63.744 791.661 -58.5241 791.661 L-38.3767 791.661 L-38.3767 797.549 L-59.7018 797.549 Q-64.858 797.549 -67.3088 799.364 Q-69.7914 801.178 -69.7914 804.966 Q-69.7914 809.453 -66.7359 812.095 Q-63.7122 814.737 -58.5241 814.737 L-38.3767 814.737 L-38.3767 820.625 L-74.0246 820.625 L-74.0246 814.737 L-68.4865 814.737 Q-71.7648 812.732 -73.3244 809.931 Q-74.884 807.13 -74.884 803.279 Q-74.884 799.396 -72.9106 796.69 Q-70.9372 793.953 -67.1815 792.648 Z" fill="#000000" fill-rule="evenodd" fill-opacity="1" /><path clip-path="url(#clip630)" d="M 0 0 M-57.6648 726.413 L-54.8002 726.413 L-54.8002 753.34 Q-48.7528 752.958 -45.5699 749.711 Q-42.4189 746.433 -42.4189 740.608 Q-42.4189 737.234 -43.2464 734.083 Q-44.074 730.901 -45.7291 727.781 L-40.1909 727.781 Q-38.8541 730.932 -38.1539 734.243 Q-37.4536 737.553 -37.4536 740.958 Q-37.4536 749.488 -42.4189 754.485 Q-47.3841 759.451 -55.8505 759.451 Q-64.6034 759.451 -69.7278 754.74 Q-74.884 749.998 -74.884 741.977 Q-74.884 734.784 -70.237 730.614 Q-65.6219 726.413 -57.6648 726.413 M-59.3835 732.269 Q-64.1896 732.333 -67.0542 734.975 Q-69.9187 737.585 -69.9187 741.913 Q-69.9187 746.815 -67.1497 749.775 Q-64.3806 752.703 -59.3517 753.149 L-59.3835 732.269 Z" fill="#000000" fill-rule="evenodd" fill-opacity="1" /><path clip-path="url(#clip630)" d="M 0 0 M-87.8382 682.012 Q-80.5176 686.277 -73.3562 688.346 Q-66.1948 690.415 -58.8424 690.415 Q-51.49 690.415 -44.2649 688.346 Q-37.0717 686.245 -29.783 682.012 L-29.783 687.104 Q-37.2627 691.879 -44.4877 694.266 Q-51.7128 696.621 -58.8424 696.621 Q-65.9402 696.621 -73.1334 694.266 Q-80.3267 691.911 -87.8382 687.104 L-87.8382 682.012 Z" fill="#000000" fill-rule="evenodd" fill-opacity="1" /><path clip-path="url(#clip630)" d="M 0 0 M-72.9743 647.924 L-67.4361 647.924 Q-68.7093 650.406 -69.3458 653.08 Q-69.9824 655.753 -69.9824 658.618 Q-69.9824 662.978 -68.6456 665.175 Q-67.3088 667.339 -64.6352 667.339 Q-62.5982 667.339 -61.4205 665.779 Q-60.2747 664.22 -59.2243 659.509 L-58.7787 657.504 Q-57.442 651.266 -54.9912 648.656 Q-52.5722 646.014 -48.2117 646.014 Q-43.2464 646.014 -40.35 649.961 Q-37.4536 653.875 -37.4536 660.75 Q-37.4536 663.615 -38.0265 666.734 Q-38.5676 669.822 -39.6816 673.259 L-45.7291 673.259 Q-44.0421 670.013 -43.1828 666.862 Q-42.3552 663.71 -42.3552 660.623 Q-42.3552 656.485 -43.7557 654.257 Q-45.188 652.029 -47.7661 652.029 Q-50.1532 652.029 -51.4264 653.653 Q-52.6995 655.244 -53.8772 660.687 L-54.3546 662.724 Q-55.5004 668.166 -57.8557 670.585 Q-60.2429 673.004 -64.3806 673.004 Q-69.4095 673.004 -72.1467 669.44 Q-74.884 665.875 -74.884 659.318 Q-74.884 656.072 -74.4066 653.207 Q-73.9291 650.342 -72.9743 647.924 Z" fill="#000000" fill-rule="evenodd" fill-opacity="1" /><path clip-path="url(#clip630)" d="M 0 0 M-87.8382 637.611 L-87.8382 632.519 Q-80.3267 627.744 -73.1334 625.389 Q-65.9402 623.002 -58.8424 623.002 Q-51.7128 623.002 -44.4877 625.389 Q-37.2627 627.744 -29.783 632.519 L-29.783 637.611 Q-37.0717 633.378 -44.2649 631.309 Q-51.49 629.208 -58.8424 629.208 Q-66.1948 629.208 -73.3562 631.309 Q-80.5176 633.378 -87.8382 637.611 Z" fill="#000000" fill-rule="evenodd" fill-opacity="1" /><polyline clip-path="url(#clip632)" style="stroke:#009af9; stroke-width:4; stroke-opacity:1; fill:none" points="
  166.42,1375.41 402.271,1375.41 638.121,1375.41 873.972,1375.41 1109.82,1375.39 1345.67,1375.28 1581.52,1374.16 1817.37,1362.97 2053.23,1251 2289.08,130.015 
  
  "/>
<circle clip-path="url(#clip632)" cx="166.42" cy="1375.41" r="14" fill="#009af9" fill-rule="evenodd" fill-opacity="1" stroke="#000000" stroke-opacity="1" stroke-width="3.2"/>
<circle clip-path="url(#clip632)" cx="402.271" cy="1375.41" r="14" fill="#009af9" fill-rule="evenodd" fill-opacity="1" stroke="#000000" stroke-opacity="1" stroke-width="3.2"/>
<circle clip-path="url(#clip632)" cx="638.121" cy="1375.41" r="14" fill="#009af9" fill-rule="evenodd" fill-opacity="1" stroke="#000000" stroke-opacity="1" stroke-width="3.2"/>
<circle clip-path="url(#clip632)" cx="873.972" cy="1375.41" r="14" fill="#009af9" fill-rule="evenodd" fill-opacity="1" stroke="#000000" stroke-opacity="1" stroke-width="3.2"/>
<circle clip-path="url(#clip632)" cx="1109.82" cy="1375.39" r="14" fill="#009af9" fill-rule="evenodd" fill-opacity="1" stroke="#000000" stroke-opacity="1" stroke-width="3.2"/>
<circle clip-path="url(#clip632)" cx="1345.67" cy="1375.28" r="14" fill="#009af9" fill-rule="evenodd" fill-opacity="1" stroke="#000000" stroke-opacity="1" stroke-width="3.2"/>
<circle clip-path="url(#clip632)" cx="1581.52" cy="1374.16" r="14" fill="#009af9" fill-rule="evenodd" fill-opacity="1" stroke="#000000" stroke-opacity="1" stroke-width="3.2"/>
<circle clip-path="url(#clip632)" cx="1817.37" cy="1362.97" r="14" fill="#009af9" fill-rule="evenodd" fill-opacity="1" stroke="#000000" stroke-opacity="1" stroke-width="3.2"/>
<circle clip-path="url(#clip632)" cx="2053.23" cy="1251" r="14" fill="#009af9" fill-rule="evenodd" fill-opacity="1" stroke="#000000" stroke-opacity="1" stroke-width="3.2"/>
<circle clip-path="url(#clip632)" cx="2289.08" cy="130.015" r="14" fill="#009af9" fill-rule="evenodd" fill-opacity="1" stroke="#000000" stroke-opacity="1" stroke-width="3.2"/>
<path clip-path="url(#clip630)" d="
M177.741 215.243 L795.773 215.243 L795.773 94.2832 L177.741 94.2832  Z
  " fill="#ffffff" fill-rule="evenodd" fill-opacity="1"/>
<polyline clip-path="url(#clip630)" style="stroke:#000000; stroke-width:4; stroke-opacity:1; fill:none" points="
  177.741,215.243 795.773,215.243 795.773,94.2832 177.741,94.2832 177.741,215.243 
  "/>
<polyline clip-path="url(#clip630)" style="stroke:#009af9; stroke-width:4; stroke-opacity:1; fill:none" points="
  202.741,154.763 352.742,154.763 
  "/>
<circle clip-path="url(#clip630)" cx="277.741" cy="154.763" r="23" fill="#009af9" fill-rule="evenodd" fill-opacity="1" stroke="#000000" stroke-opacity="1" stroke-width="5.12"/>
<path clip-path="url(#clip630)" d="M 0 0 M399.987 138.617 L399.987 143.178 Q397.325 141.904 394.964 141.279 Q392.603 140.654 390.404 140.654 Q386.585 140.654 384.501 142.136 Q382.441 143.617 382.441 146.349 Q382.441 148.641 383.807 149.821 Q385.196 150.978 389.038 151.696 L391.862 152.275 Q397.094 153.27 399.571 155.793 Q402.071 158.293 402.071 162.506 Q402.071 167.529 398.691 170.122 Q395.335 172.714 388.83 172.714 Q386.376 172.714 383.599 172.159 Q380.844 171.603 377.881 170.515 L377.881 165.701 Q380.728 167.298 383.46 168.108 Q386.191 168.918 388.83 168.918 Q392.835 168.918 395.011 167.344 Q397.186 165.77 397.186 162.853 Q397.186 160.307 395.612 158.872 Q394.061 157.437 390.497 156.719 L387.649 156.164 Q382.418 155.122 380.08 152.9 Q377.742 150.678 377.742 146.719 Q377.742 142.136 380.96 139.497 Q384.2 136.858 389.872 136.858 Q392.302 136.858 394.825 137.298 Q397.348 137.738 399.987 138.617 Z" fill="#000000" fill-rule="evenodd" fill-opacity="1" /><path clip-path="url(#clip630)" d="M 0 0 M409.177 146.117 L413.436 146.117 L413.436 172.043 L409.177 172.043 L409.177 146.117 M409.177 136.025 L413.436 136.025 L413.436 141.418 L409.177 141.418 L409.177 136.025 Z" fill="#000000" fill-rule="evenodd" fill-opacity="1" /><path clip-path="url(#clip630)" d="M 0 0 M443.899 156.395 L443.899 172.043 L439.64 172.043 L439.64 156.534 Q439.64 152.853 438.205 151.025 Q436.77 149.196 433.899 149.196 Q430.45 149.196 428.459 151.395 Q426.469 153.594 426.469 157.39 L426.469 172.043 L422.186 172.043 L422.186 146.117 L426.469 146.117 L426.469 150.145 Q427.996 147.807 430.057 146.65 Q432.14 145.492 434.848 145.492 Q439.316 145.492 441.607 148.27 Q443.899 151.025 443.899 156.395 Z" fill="#000000" fill-rule="evenodd" fill-opacity="1" /><path clip-path="url(#clip630)" d="M 0 0 M469.455 158.779 Q469.455 154.15 467.533 151.603 Q465.635 149.057 462.186 149.057 Q458.76 149.057 456.839 151.603 Q454.941 154.15 454.941 158.779 Q454.941 163.386 456.839 165.932 Q458.76 168.478 462.186 168.478 Q465.635 168.478 467.533 165.932 Q469.455 163.386 469.455 158.779 M473.714 168.826 Q473.714 175.446 470.774 178.664 Q467.834 181.904 461.769 181.904 Q459.524 181.904 457.533 181.557 Q455.543 181.233 453.668 180.539 L453.668 176.395 Q455.543 177.414 457.371 177.9 Q459.2 178.386 461.098 178.386 Q465.288 178.386 467.371 176.187 Q469.455 174.011 469.455 169.589 L469.455 167.483 Q468.135 169.775 466.075 170.909 Q464.015 172.043 461.144 172.043 Q456.376 172.043 453.459 168.409 Q450.543 164.775 450.543 158.779 Q450.543 152.761 453.459 149.127 Q456.376 145.492 461.144 145.492 Q464.015 145.492 466.075 146.627 Q468.135 147.761 469.455 150.053 L469.455 146.117 L473.714 146.117 L473.714 168.826 Z" fill="#000000" fill-rule="evenodd" fill-opacity="1" /><path clip-path="url(#clip630)" d="M 0 0 M482.487 136.025 L486.746 136.025 L486.746 172.043 L482.487 172.043 L482.487 136.025 Z" fill="#000000" fill-rule="evenodd" fill-opacity="1" /><path clip-path="url(#clip630)" d="M 0 0 M517.834 158.015 L517.834 160.099 L498.251 160.099 Q498.528 164.497 500.89 166.812 Q503.274 169.103 507.51 169.103 Q509.964 169.103 512.255 168.502 Q514.57 167.9 516.839 166.696 L516.839 170.724 Q514.547 171.696 512.14 172.205 Q509.732 172.714 507.255 172.714 Q501.052 172.714 497.417 169.103 Q493.806 165.492 493.806 159.335 Q493.806 152.969 497.232 149.242 Q500.681 145.492 506.515 145.492 Q511.746 145.492 514.778 148.872 Q517.834 152.228 517.834 158.015 M513.575 156.765 Q513.528 153.27 511.607 151.187 Q509.709 149.103 506.561 149.103 Q502.996 149.103 500.843 151.117 Q498.714 153.131 498.39 156.789 L513.575 156.765 Z" fill="#000000" fill-rule="evenodd" fill-opacity="1" /><path clip-path="url(#clip630)" d="M 0 0 M544.107 138.756 L544.107 146.117 L552.88 146.117 L552.88 149.428 L544.107 149.428 L544.107 163.502 Q544.107 166.673 544.963 167.576 Q545.843 168.478 548.505 168.478 L552.88 168.478 L552.88 172.043 L548.505 172.043 Q543.575 172.043 541.7 170.214 Q539.825 168.363 539.825 163.502 L539.825 149.428 L536.7 149.428 L536.7 146.117 L539.825 146.117 L539.825 138.756 L544.107 138.756 Z" fill="#000000" fill-rule="evenodd" fill-opacity="1" /><path clip-path="url(#clip630)" d="M 0 0 M580.033 156.395 L580.033 172.043 L575.773 172.043 L575.773 156.534 Q575.773 152.853 574.338 151.025 Q572.903 149.196 570.033 149.196 Q566.584 149.196 564.593 151.395 Q562.602 153.594 562.602 157.39 L562.602 172.043 L558.32 172.043 L558.32 136.025 L562.602 136.025 L562.602 150.145 Q564.13 147.807 566.19 146.65 Q568.273 145.492 570.982 145.492 Q575.449 145.492 577.741 148.27 Q580.033 151.025 580.033 156.395 Z" fill="#000000" fill-rule="evenodd" fill-opacity="1" /><path clip-path="url(#clip630)" d="M 0 0 M603.551 150.099 Q602.833 149.682 601.977 149.497 Q601.144 149.289 600.125 149.289 Q596.514 149.289 594.57 151.65 Q592.648 153.988 592.648 158.386 L592.648 172.043 L588.366 172.043 L588.366 146.117 L592.648 146.117 L592.648 150.145 Q593.991 147.784 596.144 146.65 Q598.296 145.492 601.375 145.492 Q601.815 145.492 602.347 145.562 Q602.88 145.608 603.528 145.724 L603.551 150.099 Z" fill="#000000" fill-rule="evenodd" fill-opacity="1" /><path clip-path="url(#clip630)" d="M 0 0 M629.153 158.015 L629.153 160.099 L609.57 160.099 Q609.847 164.497 612.208 166.812 Q614.593 169.103 618.829 169.103 Q621.282 169.103 623.574 168.502 Q625.889 167.9 628.157 166.696 L628.157 170.724 Q625.866 171.696 623.458 172.205 Q621.051 172.714 618.574 172.714 Q612.37 172.714 608.736 169.103 Q605.125 165.492 605.125 159.335 Q605.125 152.969 608.551 149.242 Q612 145.492 617.833 145.492 Q623.065 145.492 626.097 148.872 Q629.153 152.228 629.153 158.015 M624.894 156.765 Q624.847 153.27 622.926 151.187 Q621.028 149.103 617.88 149.103 Q614.315 149.103 612.162 151.117 Q610.033 153.131 609.708 156.789 L624.894 156.765 Z" fill="#000000" fill-rule="evenodd" fill-opacity="1" /><path clip-path="url(#clip630)" d="M 0 0 M647.926 159.011 Q642.764 159.011 640.773 160.191 Q638.782 161.372 638.782 164.219 Q638.782 166.488 640.264 167.83 Q641.768 169.15 644.338 169.15 Q647.88 169.15 650.009 166.65 Q652.162 164.127 652.162 159.96 L652.162 159.011 L647.926 159.011 M656.421 157.252 L656.421 172.043 L652.162 172.043 L652.162 168.108 Q650.704 170.469 648.528 171.603 Q646.352 172.714 643.204 172.714 Q639.222 172.714 636.861 170.492 Q634.523 168.247 634.523 164.497 Q634.523 160.122 637.44 157.9 Q640.38 155.678 646.19 155.678 L652.162 155.678 L652.162 155.261 Q652.162 152.321 650.217 150.724 Q648.296 149.103 644.801 149.103 Q642.579 149.103 640.472 149.636 Q638.366 150.168 636.421 151.233 L636.421 147.298 Q638.759 146.395 640.958 145.955 Q643.157 145.492 645.241 145.492 Q650.866 145.492 653.643 148.409 Q656.421 151.326 656.421 157.252 Z" fill="#000000" fill-rule="evenodd" fill-opacity="1" /><path clip-path="url(#clip630)" d="M 0 0 M682.254 150.053 L682.254 136.025 L686.514 136.025 L686.514 172.043 L682.254 172.043 L682.254 168.154 Q680.912 170.469 678.852 171.603 Q676.815 172.714 673.944 172.714 Q669.245 172.714 666.282 168.964 Q663.342 165.215 663.342 159.103 Q663.342 152.992 666.282 149.242 Q669.245 145.492 673.944 145.492 Q676.815 145.492 678.852 146.627 Q680.912 147.738 682.254 150.053 M667.741 159.103 Q667.741 163.802 669.662 166.488 Q671.606 169.15 674.986 169.15 Q678.365 169.15 680.31 166.488 Q682.254 163.802 682.254 159.103 Q682.254 154.404 680.31 151.742 Q678.365 149.057 674.986 149.057 Q671.606 149.057 669.662 151.742 Q667.741 154.404 667.741 159.103 Z" fill="#000000" fill-rule="evenodd" fill-opacity="1" /><path clip-path="url(#clip630)" d="M 0 0 M717.462 158.015 L717.462 160.099 L697.879 160.099 Q698.157 164.497 700.518 166.812 Q702.902 169.103 707.138 169.103 Q709.592 169.103 711.884 168.502 Q714.199 167.9 716.467 166.696 L716.467 170.724 Q714.175 171.696 711.768 172.205 Q709.361 172.714 706.884 172.714 Q700.68 172.714 697.046 169.103 Q693.435 165.492 693.435 159.335 Q693.435 152.969 696.861 149.242 Q700.31 145.492 706.143 145.492 Q711.375 145.492 714.407 148.872 Q717.462 152.228 717.462 158.015 M713.203 156.765 Q713.157 153.27 711.236 151.187 Q709.338 149.103 706.189 149.103 Q702.625 149.103 700.472 151.117 Q698.342 153.131 698.018 156.789 L713.203 156.765 Z" fill="#000000" fill-rule="evenodd" fill-opacity="1" /><path clip-path="url(#clip630)" d="M 0 0 M741.513 150.053 L741.513 136.025 L745.773 136.025 L745.773 172.043 L741.513 172.043 L741.513 168.154 Q740.171 170.469 738.111 171.603 Q736.073 172.714 733.203 172.714 Q728.504 172.714 725.541 168.964 Q722.601 165.215 722.601 159.103 Q722.601 152.992 725.541 149.242 Q728.504 145.492 733.203 145.492 Q736.073 145.492 738.111 146.627 Q740.171 147.738 741.513 150.053 M726.999 159.103 Q726.999 163.802 728.921 166.488 Q730.865 169.15 734.245 169.15 Q737.624 169.15 739.569 166.488 Q741.513 163.802 741.513 159.103 Q741.513 154.404 739.569 151.742 Q737.624 149.057 734.245 149.057 Q730.865 149.057 728.921 151.742 Q726.999 154.404 726.999 159.103 Z" fill="#000000" fill-rule="evenodd" fill-opacity="1" /></svg>
