<?xml version="1.0" encoding="utf-8"?>
<svg xmlns="http://www.w3.org/2000/svg" xmlns:xlink="http://www.w3.org/1999/xlink" width="600" height="400" viewBox="0 0 2400 1600">
<defs>
  <clipPath id="clip900">
    <rect x="0" y="0" width="2400" height="1600"/>
  </clipPath>
</defs>
<path clip-path="url(#clip900)" d="
M0 1600 L2400 1600 L2400 0 L0 0  Z
  " fill="#ffffff" fill-rule="evenodd" fill-opacity="1"/>
<defs>
  <clipPath id="clip901">
    <rect x="480" y="0" width="1681" height="1600"/>
  </clipPath>
</defs>
<path clip-path="url(#clip900)" d="
M102.74 1505.26 L2352.76 1505.26 L2352.76 47.2441 L102.74 47.2441  Z
  " fill="#ffffff" fill-rule="evenodd" fill-opacity="1"/>
<defs>
  <clipPath id="clip902">
    <rect x="102" y="47" width="2251" height="1459"/>
  </clipPath>
</defs>
<polyline clip-path="url(#clip902)" style="stroke:#000000; stroke-width:2; stroke-opacity:0.1; fill:none" points="
  166.42,1505.26 166.42,47.2441 
  "/>
<polyline clip-path="url(#clip902)" style="stroke:#000000; stroke-width:2; stroke-opacity:0.1; fill:none" points="
  431.752,1505.26 431.752,47.2441 
  "/>
<polyline clip-path="url(#clip902)" style="stroke:#000000; stroke-width:2; stroke-opacity:0.1; fill:none" points="
  697.084,1505.26 697.084,47.2441 
  "/>
<polyline clip-path="url(#clip902)" style="stroke:#000000; stroke-width:2; stroke-opacity:0.1; fill:none" points="
  962.416,1505.26 962.416,47.2441 
  "/>
<polyline clip-path="url(#clip902)" style="stroke:#000000; stroke-width:2; stroke-opacity:0.1; fill:none" points="
  1227.75,1505.26 1227.75,47.2441 
  "/>
<polyline clip-path="url(#clip902)" style="stroke:#000000; stroke-width:2; stroke-opacity:0.1; fill:none" points="
  1493.08,1505.26 1493.08,47.2441 
  "/>
<polyline clip-path="url(#clip902)" style="stroke:#000000; stroke-width:2; stroke-opacity:0.1; fill:none" points="
  1758.41,1505.26 1758.41,47.2441 
  "/>
<polyline clip-path="url(#clip902)" style="stroke:#000000; stroke-width:2; stroke-opacity:0.1; fill:none" points="
  2023.74,1505.26 2023.74,47.2441 
  "/>
<polyline clip-path="url(#clip902)" style="stroke:#000000; stroke-width:2; stroke-opacity:0.1; fill:none" points="
  2289.08,1505.26 2289.08,47.2441 
  "/>
<polyline clip-path="url(#clip900)" style="stroke:#000000; stroke-width:4; stroke-opacity:1; fill:none" points="
  102.74,1505.26 2352.76,1505.26 
  "/>
<polyline clip-path="url(#clip900)" style="stroke:#000000; stroke-width:4; stroke-opacity:1; fill:none" points="
  166.42,1505.26 166.42,1487.76 
  "/>
<polyline clip-path="url(#clip900)" style="stroke:#000000; stroke-width:4; stroke-opacity:1; fill:none" points="
  431.752,1505.26 431.752,1487.76 
  "/>
<polyline clip-path="url(#clip900)" style="stroke:#000000; stroke-width:4; stroke-opacity:1; fill:none" points="
  697.084,1505.26 697.084,1487.76 
  "/>
<polyline clip-path="url(#clip900)" style="stroke:#000000; stroke-width:4; stroke-opacity:1; fill:none" points="
  962.416,1505.26 962.416,1487.76 
  "/>
<polyline clip-path="url(#clip900)" style="stroke:#000000; stroke-width:4; stroke-opacity:1; fill:none" points="
  1227.75,1505.26 1227.75,1487.76 
  "/>
<polyline clip-path="url(#clip900)" style="stroke:#000000; stroke-width:4; stroke-opacity:1; fill:none" points="
  1493.08,1505.26 1493.08,1487.76 
  "/>
<polyline clip-path="url(#clip900)" style="stroke:#000000; stroke-width:4; stroke-opacity:1; fill:none" points="
  1758.41,1505.26 1758.41,1487.76 
  "/>
<polyline clip-path="url(#clip900)" style="stroke:#000000; stroke-width:4; stroke-opacity:1; fill:none" points="
  2023.74,1505.26 2023.74,1487.76 
  "/>
<polyline clip-path="url(#clip900)" style="stroke:#000000; stroke-width:4; stroke-opacity:1; fill:none" points="
  2289.08,1505.26 2289.08,1487.76 
  "/>
<path clip-path="url(#clip900)" d="M 0 0 M161.073 1562 L177.392 1562 L177.392 1565.93 L155.448 1565.93 L155.448 1562 Q158.11 1559.24 162.693 1554.61 Q167.299 1549.96 168.48 1548.62 Q170.725 1546.09 171.605 1544.36 Q172.508 1542.6 172.508 1540.91 Q172.508 1538.15 170.563 1536.42 Q168.642 1534.68 165.54 1534.68 Q163.341 1534.68 160.887 1535.45 Q158.457 1536.21 155.679 1537.76 L155.679 1533.04 Q158.503 1531.9 160.957 1531.33 Q163.411 1530.75 165.448 1530.75 Q170.818 1530.75 174.012 1533.43 Q177.207 1536.12 177.207 1540.61 Q177.207 1542.74 176.397 1544.66 Q175.61 1546.56 173.503 1549.15 Q172.924 1549.82 169.823 1553.04 Q166.721 1556.23 161.073 1562 Z" fill="#000000" fill-rule="evenodd" fill-opacity="1" /><path clip-path="url(#clip900)" d="M 0 0 M434.761 1535.45 L422.956 1553.89 L434.761 1553.89 L434.761 1535.45 M433.534 1531.37 L439.414 1531.37 L439.414 1553.89 L444.344 1553.89 L444.344 1557.78 L439.414 1557.78 L439.414 1565.93 L434.761 1565.93 L434.761 1557.78 L419.159 1557.78 L419.159 1553.27 L433.534 1531.37 Z" fill="#000000" fill-rule="evenodd" fill-opacity="1" /><path clip-path="url(#clip900)" d="M 0 0 M697.084 1549.52 Q693.751 1549.52 691.829 1551.3 Q689.931 1553.08 689.931 1556.21 Q689.931 1559.33 691.829 1561.12 Q693.751 1562.9 697.084 1562.9 Q700.417 1562.9 702.339 1561.12 Q704.26 1559.31 704.26 1556.21 Q704.26 1553.08 702.339 1551.3 Q700.44 1549.52 697.084 1549.52 M692.408 1547.53 Q689.399 1546.79 687.709 1544.73 Q686.042 1542.67 686.042 1539.71 Q686.042 1535.56 688.982 1533.15 Q691.945 1530.75 697.084 1530.75 Q702.246 1530.75 705.186 1533.15 Q708.126 1535.56 708.126 1539.71 Q708.126 1542.67 706.436 1544.73 Q704.769 1546.79 701.783 1547.53 Q705.163 1548.32 707.038 1550.61 Q708.936 1552.9 708.936 1556.21 Q708.936 1561.23 705.857 1563.92 Q702.802 1566.6 697.084 1566.6 Q691.366 1566.6 688.288 1563.92 Q685.232 1561.23 685.232 1556.21 Q685.232 1552.9 687.13 1550.61 Q689.028 1548.32 692.408 1547.53 M690.695 1540.14 Q690.695 1542.83 692.362 1544.33 Q694.052 1545.84 697.084 1545.84 Q700.093 1545.84 701.783 1544.33 Q703.496 1542.83 703.496 1540.14 Q703.496 1537.46 701.783 1535.96 Q700.093 1534.45 697.084 1534.45 Q694.052 1534.45 692.362 1535.96 Q690.695 1537.46 690.695 1540.14 Z" fill="#000000" fill-rule="evenodd" fill-opacity="1" /><path clip-path="url(#clip900)" d="M 0 0 M937.023 1562 L944.661 1562 L944.661 1535.63 L936.351 1537.3 L936.351 1533.04 L944.615 1531.37 L949.291 1531.37 L949.291 1562 L956.93 1562 L956.93 1565.93 L937.023 1565.93 L937.023 1562 Z" fill="#000000" fill-rule="evenodd" fill-opacity="1" /><path clip-path="url(#clip900)" d="M 0 0 M976.953 1546.79 Q973.805 1546.79 971.953 1548.94 Q970.124 1551.09 970.124 1554.84 Q970.124 1558.57 971.953 1560.75 Q973.805 1562.9 976.953 1562.9 Q980.101 1562.9 981.93 1560.75 Q983.782 1558.57 983.782 1554.84 Q983.782 1551.09 981.93 1548.94 Q980.101 1546.79 976.953 1546.79 M986.235 1532.14 L986.235 1536.39 Q984.476 1535.56 982.671 1535.12 Q980.888 1534.68 979.129 1534.68 Q974.499 1534.68 972.046 1537.81 Q969.615 1540.93 969.268 1547.25 Q970.634 1545.24 972.694 1544.17 Q974.754 1543.08 977.231 1543.08 Q982.439 1543.08 985.448 1546.26 Q988.481 1549.4 988.481 1554.84 Q988.481 1560.17 985.333 1563.39 Q982.184 1566.6 976.953 1566.6 Q970.958 1566.6 967.786 1562.02 Q964.615 1557.41 964.615 1548.69 Q964.615 1540.49 968.504 1535.63 Q972.393 1530.75 978.944 1530.75 Q980.703 1530.75 982.485 1531.09 Q984.291 1531.44 986.235 1532.14 Z" fill="#000000" fill-rule="evenodd" fill-opacity="1" /><path clip-path="url(#clip900)" d="M 0 0 M1217.39 1547.3 Q1220.75 1548.02 1222.62 1550.28 Q1224.52 1552.55 1224.52 1555.89 Q1224.52 1561 1221 1563.8 Q1217.48 1566.6 1211 1566.6 Q1208.82 1566.6 1206.51 1566.16 Q1204.22 1565.75 1201.76 1564.89 L1201.76 1560.38 Q1203.71 1561.51 1206.02 1562.09 Q1208.34 1562.67 1210.86 1562.67 Q1215.26 1562.67 1217.55 1560.93 Q1219.87 1559.2 1219.87 1555.89 Q1219.87 1552.83 1217.71 1551.12 Q1215.58 1549.38 1211.76 1549.38 L1207.74 1549.38 L1207.74 1545.54 L1211.95 1545.54 Q1215.4 1545.54 1217.23 1544.17 Q1219.06 1542.78 1219.06 1540.19 Q1219.06 1537.53 1217.16 1536.12 Q1215.28 1534.68 1211.76 1534.68 Q1209.84 1534.68 1207.64 1535.1 Q1205.44 1535.52 1202.81 1536.39 L1202.81 1532.23 Q1205.47 1531.49 1207.78 1531.12 Q1210.12 1530.75 1212.18 1530.75 Q1217.51 1530.75 1220.61 1533.18 Q1223.71 1535.58 1223.71 1539.71 Q1223.71 1542.58 1222.07 1544.57 Q1220.42 1546.53 1217.39 1547.3 Z" fill="#000000" fill-rule="evenodd" fill-opacity="1" /><path clip-path="url(#clip900)" d="M 0 0 M1237.41 1562 L1253.73 1562 L1253.73 1565.93 L1231.79 1565.93 L1231.79 1562 Q1234.45 1559.24 1239.03 1554.61 Q1243.64 1549.96 1244.82 1548.62 Q1247.07 1546.09 1247.94 1544.36 Q1248.85 1542.6 1248.85 1540.91 Q1248.85 1538.15 1246.9 1536.42 Q1244.98 1534.68 1241.88 1534.68 Q1239.68 1534.68 1237.23 1535.45 Q1234.8 1536.21 1232.02 1537.76 L1232.02 1533.04 Q1234.84 1531.9 1237.3 1531.33 Q1239.75 1530.75 1241.79 1530.75 Q1247.16 1530.75 1250.35 1533.43 Q1253.55 1536.12 1253.55 1540.61 Q1253.55 1542.74 1252.74 1544.66 Q1251.95 1546.56 1249.84 1549.15 Q1249.26 1549.82 1246.16 1553.04 Q1243.06 1556.23 1237.41 1562 Z" fill="#000000" fill-rule="evenodd" fill-opacity="1" /><path clip-path="url(#clip900)" d="M 0 0 M1481.3 1535.45 L1469.49 1553.89 L1481.3 1553.89 L1481.3 1535.45 M1480.07 1531.37 L1485.95 1531.37 L1485.95 1553.89 L1490.88 1553.89 L1490.88 1557.78 L1485.95 1557.78 L1485.95 1565.93 L1481.3 1565.93 L1481.3 1557.78 L1465.7 1557.78 L1465.7 1553.27 L1480.07 1531.37 Z" fill="#000000" fill-rule="evenodd" fill-opacity="1" /><path clip-path="url(#clip900)" d="M 0 0 M1508.61 1549.52 Q1505.28 1549.52 1503.36 1551.3 Q1501.46 1553.08 1501.46 1556.21 Q1501.46 1559.33 1503.36 1561.12 Q1505.28 1562.9 1508.61 1562.9 Q1511.95 1562.9 1513.87 1561.12 Q1515.79 1559.31 1515.79 1556.21 Q1515.79 1553.08 1513.87 1551.3 Q1511.97 1549.52 1508.61 1549.52 M1503.94 1547.53 Q1500.93 1546.79 1499.24 1544.73 Q1497.57 1542.67 1497.57 1539.71 Q1497.57 1535.56 1500.51 1533.15 Q1503.47 1530.75 1508.61 1530.75 Q1513.77 1530.75 1516.71 1533.15 Q1519.65 1535.56 1519.65 1539.71 Q1519.65 1542.67 1517.96 1544.73 Q1516.3 1546.79 1513.31 1547.53 Q1516.69 1548.32 1518.57 1550.61 Q1520.46 1552.9 1520.46 1556.21 Q1520.46 1561.23 1517.39 1563.92 Q1514.33 1566.6 1508.61 1566.6 Q1502.89 1566.6 1499.82 1563.92 Q1496.76 1561.23 1496.76 1556.21 Q1496.76 1552.9 1498.66 1550.61 Q1500.56 1548.32 1503.94 1547.53 M1502.22 1540.14 Q1502.22 1542.83 1503.89 1544.33 Q1505.58 1545.84 1508.61 1545.84 Q1511.62 1545.84 1513.31 1544.33 Q1515.02 1542.83 1515.02 1540.14 Q1515.02 1537.46 1513.31 1535.96 Q1511.62 1534.45 1508.61 1534.45 Q1505.58 1534.45 1503.89 1535.96 Q1502.22 1537.46 1502.22 1540.14 Z" fill="#000000" fill-rule="evenodd" fill-opacity="1" /><path clip-path="url(#clip900)" d="M 0 0 M1743.57 1546.79 Q1740.43 1546.79 1738.57 1548.94 Q1736.75 1551.09 1736.75 1554.84 Q1736.75 1558.57 1738.57 1560.75 Q1740.43 1562.9 1743.57 1562.9 Q1746.72 1562.9 1748.55 1560.75 Q1750.4 1558.57 1750.4 1554.84 Q1750.4 1551.09 1748.55 1548.94 Q1746.72 1546.79 1743.57 1546.79 M1752.86 1532.14 L1752.86 1536.39 Q1751.1 1535.56 1749.29 1535.12 Q1747.51 1534.68 1745.75 1534.68 Q1741.12 1534.68 1738.67 1537.81 Q1736.24 1540.93 1735.89 1547.25 Q1737.25 1545.24 1739.32 1544.17 Q1741.38 1543.08 1743.85 1543.08 Q1749.06 1543.08 1752.07 1546.26 Q1755.1 1549.4 1755.1 1554.84 Q1755.1 1560.17 1751.95 1563.39 Q1748.81 1566.6 1743.57 1566.6 Q1737.58 1566.6 1734.41 1562.02 Q1731.24 1557.41 1731.24 1548.69 Q1731.24 1540.49 1735.13 1535.63 Q1739.01 1530.75 1745.56 1530.75 Q1747.32 1530.75 1749.11 1531.09 Q1750.91 1531.44 1752.86 1532.14 Z" fill="#000000" fill-rule="evenodd" fill-opacity="1" /><path clip-path="url(#clip900)" d="M 0 0 M1776 1535.45 L1764.2 1553.89 L1776 1553.89 L1776 1535.45 M1774.78 1531.37 L1780.66 1531.37 L1780.66 1553.89 L1785.59 1553.89 L1785.59 1557.78 L1780.66 1557.78 L1780.66 1565.93 L1776 1565.93 L1776 1557.78 L1760.4 1557.78 L1760.4 1553.27 L1774.78 1531.37 Z" fill="#000000" fill-rule="evenodd" fill-opacity="1" /><path clip-path="url(#clip900)" d="M 0 0 M2008.62 1549.52 Q2005.28 1549.52 2003.36 1551.3 Q2001.46 1553.08 2001.46 1556.21 Q2001.46 1559.33 2003.36 1561.12 Q2005.28 1562.9 2008.62 1562.9 Q2011.95 1562.9 2013.87 1561.12 Q2015.79 1559.31 2015.79 1556.21 Q2015.79 1553.08 2013.87 1551.3 Q2011.97 1549.52 2008.62 1549.52 M2003.94 1547.53 Q2000.93 1546.79 1999.24 1544.73 Q1997.58 1542.67 1997.58 1539.71 Q1997.58 1535.56 2000.52 1533.15 Q2003.48 1530.75 2008.62 1530.75 Q2013.78 1530.75 2016.72 1533.15 Q2019.66 1535.56 2019.66 1539.71 Q2019.66 1542.67 2017.97 1544.73 Q2016.3 1546.79 2013.32 1547.53 Q2016.7 1548.32 2018.57 1550.61 Q2020.47 1552.9 2020.47 1556.21 Q2020.47 1561.23 2017.39 1563.92 Q2014.33 1566.6 2008.62 1566.6 Q2002.9 1566.6 1999.82 1563.92 Q1996.77 1561.23 1996.77 1556.21 Q1996.77 1552.9 1998.66 1550.61 Q2000.56 1548.32 2003.94 1547.53 M2002.23 1540.14 Q2002.23 1542.83 2003.89 1544.33 Q2005.58 1545.84 2008.62 1545.84 Q2011.63 1545.84 2013.32 1544.33 Q2015.03 1542.83 2015.03 1540.14 Q2015.03 1537.46 2013.32 1535.96 Q2011.63 1534.45 2008.62 1534.45 Q2005.58 1534.45 2003.89 1535.96 Q2002.23 1537.46 2002.23 1540.14 Z" fill="#000000" fill-rule="evenodd" fill-opacity="1" /><path clip-path="url(#clip900)" d="M 0 0 M2038.78 1534.45 Q2035.17 1534.45 2033.34 1538.02 Q2031.53 1541.56 2031.53 1548.69 Q2031.53 1555.79 2033.34 1559.36 Q2035.17 1562.9 2038.78 1562.9 Q2042.41 1562.9 2044.22 1559.36 Q2046.05 1555.79 2046.05 1548.69 Q2046.05 1541.56 2044.22 1538.02 Q2042.41 1534.45 2038.78 1534.45 M2038.78 1530.75 Q2044.59 1530.75 2047.64 1535.35 Q2050.72 1539.94 2050.72 1548.69 Q2050.72 1557.41 2047.64 1562.02 Q2044.59 1566.6 2038.78 1566.6 Q2032.97 1566.6 2029.89 1562.02 Q2026.83 1557.41 2026.83 1548.69 Q2026.83 1539.94 2029.89 1535.35 Q2032.97 1530.75 2038.78 1530.75 Z" fill="#000000" fill-rule="evenodd" fill-opacity="1" /><path clip-path="url(#clip900)" d="M 0 0 M2264.12 1565.21 L2264.12 1560.96 Q2265.88 1561.79 2267.69 1562.23 Q2269.49 1562.67 2271.23 1562.67 Q2275.86 1562.67 2278.29 1559.57 Q2280.74 1556.44 2281.09 1550.1 Q2279.75 1552.09 2277.69 1553.15 Q2275.63 1554.22 2273.13 1554.22 Q2267.94 1554.22 2264.91 1551.09 Q2261.9 1547.95 2261.9 1542.51 Q2261.9 1537.18 2265.05 1533.96 Q2268.2 1530.75 2273.43 1530.75 Q2279.42 1530.75 2282.57 1535.35 Q2285.74 1539.94 2285.74 1548.69 Q2285.74 1556.86 2281.85 1561.74 Q2277.99 1566.6 2271.44 1566.6 Q2269.68 1566.6 2267.87 1566.26 Q2266.07 1565.91 2264.12 1565.21 M2273.43 1550.56 Q2276.58 1550.56 2278.4 1548.41 Q2280.26 1546.26 2280.26 1542.51 Q2280.26 1538.78 2278.4 1536.63 Q2276.58 1534.45 2273.43 1534.45 Q2270.28 1534.45 2268.43 1536.63 Q2266.6 1538.78 2266.6 1542.51 Q2266.6 1546.26 2268.43 1548.41 Q2270.28 1550.56 2273.43 1550.56 Z" fill="#000000" fill-rule="evenodd" fill-opacity="1" /><path clip-path="url(#clip900)" d="M 0 0 M2304.72 1546.79 Q2301.58 1546.79 2299.72 1548.94 Q2297.9 1551.09 2297.9 1554.84 Q2297.9 1558.57 2299.72 1560.75 Q2301.58 1562.9 2304.72 1562.9 Q2307.87 1562.9 2309.7 1560.75 Q2311.55 1558.57 2311.55 1554.84 Q2311.55 1551.09 2309.7 1548.94 Q2307.87 1546.79 2304.72 1546.79 M2314.01 1532.14 L2314.01 1536.39 Q2312.25 1535.56 2310.44 1535.12 Q2308.66 1534.68 2306.9 1534.68 Q2302.27 1534.68 2299.82 1537.81 Q2297.39 1540.93 2297.04 1547.25 Q2298.4 1545.24 2300.47 1544.17 Q2302.53 1543.08 2305 1543.08 Q2310.21 1543.08 2313.22 1546.26 Q2316.25 1549.4 2316.25 1554.84 Q2316.25 1560.17 2313.1 1563.39 Q2309.96 1566.6 2304.72 1566.6 Q2298.73 1566.6 2295.56 1562.02 Q2292.39 1557.41 2292.39 1548.69 Q2292.39 1540.49 2296.28 1535.63 Q2300.16 1530.75 2306.72 1530.75 Q2308.47 1530.75 2310.26 1531.09 Q2312.06 1531.44 2314.01 1532.14 Z" fill="#000000" fill-rule="evenodd" fill-opacity="1" /><path clip-path="url(#clip900)" d="M 0 0 M1061.81 1621.45 L1052.55 1621.45 L1049.87 1632.08 L1059.2 1632.08 L1061.81 1621.45 M1057.04 1603.34 L1053.73 1616.54 L1063.02 1616.54 L1066.36 1603.34 L1071.45 1603.34 L1068.18 1616.54 L1078.11 1616.54 L1078.11 1621.45 L1066.93 1621.45 L1064.32 1632.08 L1074.45 1632.08 L1074.45 1636.95 L1063.08 1636.95 L1059.77 1650.12 L1054.68 1650.12 L1057.96 1636.95 L1048.63 1636.95 L1045.35 1650.12 L1040.23 1650.12 L1043.54 1636.95 L1033.51 1636.95 L1033.51 1632.08 L1044.72 1632.08 L1047.39 1621.45 L1037.14 1621.45 L1037.14 1616.54 L1048.63 1616.54 L1051.88 1603.34 L1057.04 1603.34 Z" fill="#000000" fill-rule="evenodd" fill-opacity="1" /><path clip-path="url(#clip900)" d="M 0 0 M1116.65 1607.89 L1116.65 1625.74 L1124.73 1625.74 Q1129.22 1625.74 1131.67 1623.42 Q1134.12 1621.1 1134.12 1616.8 Q1134.12 1612.53 1131.67 1610.21 Q1129.22 1607.89 1124.73 1607.89 L1116.65 1607.89 M1110.22 1602.6 L1124.73 1602.6 Q1132.72 1602.6 1136.8 1606.23 Q1140.9 1609.83 1140.9 1616.8 Q1140.9 1623.83 1136.8 1627.43 Q1132.72 1631.03 1124.73 1631.03 L1116.65 1631.03 L1116.65 1650.12 L1110.22 1650.12 L1110.22 1602.6 Z" fill="#000000" fill-rule="evenodd" fill-opacity="1" /><path clip-path="url(#clip900)" d="M 0 0 M1168.79 1619.95 Q1167.8 1619.38 1166.62 1619.12 Q1165.48 1618.84 1164.08 1618.84 Q1159.11 1618.84 1156.44 1622.08 Q1153.79 1625.3 1153.79 1631.35 L1153.79 1650.12 L1147.91 1650.12 L1147.91 1614.48 L1153.79 1614.48 L1153.79 1620.01 Q1155.64 1616.77 1158.6 1615.21 Q1161.56 1613.62 1165.79 1613.62 Q1166.4 1613.62 1167.13 1613.71 Q1167.86 1613.78 1168.75 1613.93 L1168.79 1619.95 Z" fill="#000000" fill-rule="evenodd" fill-opacity="1" /><path clip-path="url(#clip900)" d="M 0 0 M1187.31 1618.58 Q1182.6 1618.58 1179.86 1622.27 Q1177.12 1625.93 1177.12 1632.33 Q1177.12 1638.73 1179.83 1642.42 Q1182.57 1646.08 1187.31 1646.08 Q1191.99 1646.08 1194.73 1642.39 Q1197.46 1638.7 1197.46 1632.33 Q1197.46 1626 1194.73 1622.31 Q1191.99 1618.58 1187.31 1618.58 M1187.31 1613.62 Q1194.95 1613.62 1199.31 1618.58 Q1203.67 1623.55 1203.67 1632.33 Q1203.67 1641.08 1199.31 1646.08 Q1194.95 1651.05 1187.31 1651.05 Q1179.64 1651.05 1175.28 1646.08 Q1170.95 1641.08 1170.95 1632.33 Q1170.95 1623.55 1175.28 1618.58 Q1179.64 1613.62 1187.31 1613.62 Z" fill="#000000" fill-rule="evenodd" fill-opacity="1" /><path clip-path="url(#clip900)" d="M 0 0 M1239.03 1615.84 L1239.03 1621.32 Q1236.55 1619.95 1234.03 1619.28 Q1231.55 1618.58 1229.01 1618.58 Q1223.31 1618.58 1220.16 1622.21 Q1217.01 1625.81 1217.01 1632.33 Q1217.01 1638.86 1220.16 1642.48 Q1223.31 1646.08 1229.01 1646.08 Q1231.55 1646.08 1234.03 1645.41 Q1236.55 1644.71 1239.03 1643.34 L1239.03 1648.76 Q1236.58 1649.9 1233.94 1650.47 Q1231.33 1651.05 1228.37 1651.05 Q1220.32 1651.05 1215.57 1645.99 Q1210.83 1640.93 1210.83 1632.33 Q1210.83 1623.61 1215.61 1618.61 Q1220.41 1613.62 1228.75 1613.62 Q1231.46 1613.62 1234.03 1614.19 Q1236.61 1614.73 1239.03 1615.84 Z" fill="#000000" fill-rule="evenodd" fill-opacity="1" /><path clip-path="url(#clip900)" d="M 0 0 M1279.71 1630.84 L1279.71 1633.7 L1252.78 1633.7 Q1253.16 1639.75 1256.41 1642.93 Q1259.69 1646.08 1265.51 1646.08 Q1268.89 1646.08 1272.04 1645.25 Q1275.22 1644.43 1278.34 1642.77 L1278.34 1648.31 Q1275.19 1649.65 1271.88 1650.35 Q1268.57 1651.05 1265.16 1651.05 Q1256.63 1651.05 1251.64 1646.08 Q1246.67 1641.12 1246.67 1632.65 Q1246.67 1623.9 1251.38 1618.77 Q1256.12 1613.62 1264.14 1613.62 Q1271.34 1613.62 1275.51 1618.26 Q1279.71 1622.88 1279.71 1630.84 M1273.85 1629.12 Q1273.79 1624.31 1271.15 1621.45 Q1268.54 1618.58 1264.21 1618.58 Q1259.31 1618.58 1256.35 1621.35 Q1253.42 1624.12 1252.97 1629.15 L1273.85 1629.12 Z" fill="#000000" fill-rule="evenodd" fill-opacity="1" /><path clip-path="url(#clip900)" d="M 0 0 M1312.05 1615.53 L1312.05 1621.06 Q1309.56 1619.79 1306.89 1619.15 Q1304.22 1618.52 1301.35 1618.52 Q1296.99 1618.52 1294.79 1619.85 Q1292.63 1621.19 1292.63 1623.87 Q1292.63 1625.9 1294.19 1627.08 Q1295.75 1628.23 1300.46 1629.28 L1302.47 1629.72 Q1308.7 1631.06 1311.31 1633.51 Q1313.96 1635.93 1313.96 1640.29 Q1313.96 1645.25 1310.01 1648.15 Q1306.09 1651.05 1299.22 1651.05 Q1296.35 1651.05 1293.24 1650.47 Q1290.15 1649.93 1286.71 1648.82 L1286.71 1642.77 Q1289.96 1644.46 1293.11 1645.32 Q1296.26 1646.15 1299.35 1646.15 Q1303.48 1646.15 1305.71 1644.74 Q1307.94 1643.31 1307.94 1640.73 Q1307.94 1638.35 1306.32 1637.07 Q1304.73 1635.8 1299.28 1634.62 L1297.25 1634.15 Q1291.8 1633 1289.38 1630.64 Q1286.97 1628.26 1286.97 1624.12 Q1286.97 1619.09 1290.53 1616.35 Q1294.09 1613.62 1300.65 1613.62 Q1303.9 1613.62 1306.76 1614.09 Q1309.63 1614.57 1312.05 1615.53 Z" fill="#000000" fill-rule="evenodd" fill-opacity="1" /><path clip-path="url(#clip900)" d="M 0 0 M1346.01 1615.53 L1346.01 1621.06 Q1343.52 1619.79 1340.85 1619.15 Q1338.18 1618.52 1335.31 1618.52 Q1330.95 1618.52 1328.76 1619.85 Q1326.59 1621.19 1326.59 1623.87 Q1326.59 1625.9 1328.15 1627.08 Q1329.71 1628.23 1334.42 1629.28 L1336.43 1629.72 Q1342.66 1631.06 1345.27 1633.51 Q1347.92 1635.93 1347.92 1640.29 Q1347.92 1645.25 1343.97 1648.15 Q1340.06 1651.05 1333.18 1651.05 Q1330.32 1651.05 1327.2 1650.47 Q1324.11 1649.93 1320.67 1648.82 L1320.67 1642.77 Q1323.92 1644.46 1327.07 1645.32 Q1330.22 1646.15 1333.31 1646.15 Q1337.45 1646.15 1339.67 1644.74 Q1341.9 1643.31 1341.9 1640.73 Q1341.9 1638.35 1340.28 1637.07 Q1338.69 1635.8 1333.24 1634.62 L1331.21 1634.15 Q1325.76 1633 1323.35 1630.64 Q1320.93 1628.26 1320.93 1624.12 Q1320.93 1619.09 1324.49 1616.35 Q1328.06 1613.62 1334.61 1613.62 Q1337.86 1613.62 1340.72 1614.09 Q1343.59 1614.57 1346.01 1615.53 Z" fill="#000000" fill-rule="evenodd" fill-opacity="1" /><path clip-path="url(#clip900)" d="M 0 0 M1387.73 1630.84 L1387.73 1633.7 L1360.81 1633.7 Q1361.19 1639.75 1364.44 1642.93 Q1367.71 1646.08 1373.54 1646.08 Q1376.91 1646.08 1380.06 1645.25 Q1383.25 1644.43 1386.37 1642.77 L1386.37 1648.31 Q1383.21 1649.65 1379.9 1650.35 Q1376.59 1651.05 1373.19 1651.05 Q1364.66 1651.05 1359.66 1646.08 Q1354.7 1641.12 1354.7 1632.65 Q1354.7 1623.9 1359.41 1618.77 Q1364.15 1613.62 1372.17 1613.62 Q1379.36 1613.62 1383.53 1618.26 Q1387.73 1622.88 1387.73 1630.84 M1381.88 1629.12 Q1381.81 1624.31 1379.17 1621.45 Q1376.56 1618.58 1372.23 1618.58 Q1367.33 1618.58 1364.37 1621.35 Q1361.44 1624.12 1361 1629.15 L1381.88 1629.12 Z" fill="#000000" fill-rule="evenodd" fill-opacity="1" /><path clip-path="url(#clip900)" d="M 0 0 M1420.07 1615.53 L1420.07 1621.06 Q1417.59 1619.79 1414.92 1619.15 Q1412.24 1618.52 1409.38 1618.52 Q1405.02 1618.52 1402.82 1619.85 Q1400.66 1621.19 1400.66 1623.87 Q1400.66 1625.9 1402.22 1627.08 Q1403.78 1628.23 1408.49 1629.28 L1410.49 1629.72 Q1416.73 1631.06 1419.34 1633.51 Q1421.98 1635.93 1421.98 1640.29 Q1421.98 1645.25 1418.03 1648.15 Q1414.12 1651.05 1407.25 1651.05 Q1404.38 1651.05 1401.26 1650.47 Q1398.17 1649.93 1394.74 1648.82 L1394.74 1642.77 Q1397.98 1644.46 1401.13 1645.32 Q1404.28 1646.15 1407.37 1646.15 Q1411.51 1646.15 1413.74 1644.74 Q1415.97 1643.31 1415.97 1640.73 Q1415.97 1638.35 1414.34 1637.07 Q1412.75 1635.8 1407.31 1634.62 L1405.27 1634.15 Q1399.83 1633 1397.41 1630.64 Q1394.99 1628.26 1394.99 1624.12 Q1394.99 1619.09 1398.56 1616.35 Q1402.12 1613.62 1408.68 1613.62 Q1411.92 1613.62 1414.79 1614.09 Q1417.65 1614.57 1420.07 1615.53 Z" fill="#000000" fill-rule="evenodd" fill-opacity="1" /><polyline clip-path="url(#clip902)" style="stroke:#000000; stroke-width:2; stroke-opacity:0.1; fill:none" points="
  102.74,1490.25 2352.76,1490.25 
  "/>
<polyline clip-path="url(#clip902)" style="stroke:#000000; stroke-width:2; stroke-opacity:0.1; fill:none" points="
  102.74,1227.72 2352.76,1227.72 
  "/>
<polyline clip-path="url(#clip902)" style="stroke:#000000; stroke-width:2; stroke-opacity:0.1; fill:none" points="
  102.74,965.201 2352.76,965.201 
  "/>
<polyline clip-path="url(#clip902)" style="stroke:#000000; stroke-width:2; stroke-opacity:0.1; fill:none" points="
  102.74,702.678 2352.76,702.678 
  "/>
<polyline clip-path="url(#clip902)" style="stroke:#000000; stroke-width:2; stroke-opacity:0.1; fill:none" points="
  102.74,440.154 2352.76,440.154 
  "/>
<polyline clip-path="url(#clip902)" style="stroke:#000000; stroke-width:2; stroke-opacity:0.1; fill:none" points="
  102.74,177.631 2352.76,177.631 
  "/>
<polyline clip-path="url(#clip900)" style="stroke:#000000; stroke-width:4; stroke-opacity:1; fill:none" points="
  102.74,1505.26 102.74,47.2441 
  "/>
<polyline clip-path="url(#clip900)" style="stroke:#000000; stroke-width:4; stroke-opacity:1; fill:none" points="
  102.74,1490.25 129.74,1490.25 
  "/>
<polyline clip-path="url(#clip900)" style="stroke:#000000; stroke-width:4; stroke-opacity:1; fill:none" points="
  102.74,1227.72 129.74,1227.72 
  "/>
<polyline clip-path="url(#clip900)" style="stroke:#000000; stroke-width:4; stroke-opacity:1; fill:none" points="
  102.74,965.201 129.74,965.201 
  "/>
<polyline clip-path="url(#clip900)" style="stroke:#000000; stroke-width:4; stroke-opacity:1; fill:none" points="
  102.74,702.678 129.74,702.678 
  "/>
<polyline clip-path="url(#clip900)" style="stroke:#000000; stroke-width:4; stroke-opacity:1; fill:none" points="
  102.74,440.154 129.74,440.154 
  "/>
<polyline clip-path="url(#clip900)" style="stroke:#000000; stroke-width:4; stroke-opacity:1; fill:none" points="
  102.74,177.631 129.74,177.631 
  "/>
<path clip-path="url(#clip900)" d="M 0 0 M54.7958 1476.05 Q51.1847 1476.05 49.356 1479.61 Q47.5504 1483.15 47.5504 1490.28 Q47.5504 1497.39 49.356 1500.95 Q51.1847 1504.5 54.7958 1504.5 Q58.43 1504.5 60.2356 1500.95 Q62.0643 1497.39 62.0643 1490.28 Q62.0643 1483.15 60.2356 1479.61 Q58.43 1476.05 54.7958 1476.05 M54.7958 1472.34 Q60.6059 1472.34 63.6615 1476.95 Q66.7402 1481.53 66.7402 1490.28 Q66.7402 1499.01 63.6615 1503.62 Q60.6059 1508.2 54.7958 1508.2 Q48.9856 1508.2 45.9069 1503.62 Q42.8514 1499.01 42.8514 1490.28 Q42.8514 1481.53 45.9069 1476.95 Q48.9856 1472.34 54.7958 1472.34 Z" fill="#000000" fill-rule="evenodd" fill-opacity="1" /><path clip-path="url(#clip900)" d="M 0 0 M15.4441 1241.07 L23.083 1241.07 L23.083 1214.7 L14.7728 1216.37 L14.7728 1212.11 L23.0367 1210.44 L27.7126 1210.44 L27.7126 1241.07 L35.3514 1241.07 L35.3514 1245 L15.4441 1245 L15.4441 1241.07 Z" fill="#000000" fill-rule="evenodd" fill-opacity="1" /><path clip-path="url(#clip900)" d="M 0 0 M54.7958 1213.52 Q51.1847 1213.52 49.356 1217.09 Q47.5504 1220.63 47.5504 1227.76 Q47.5504 1234.87 49.356 1238.43 Q51.1847 1241.97 54.7958 1241.97 Q58.43 1241.97 60.2356 1238.43 Q62.0643 1234.87 62.0643 1227.76 Q62.0643 1220.63 60.2356 1217.09 Q58.43 1213.52 54.7958 1213.52 M54.7958 1209.82 Q60.6059 1209.82 63.6615 1214.43 Q66.7402 1219.01 66.7402 1227.76 Q66.7402 1236.49 63.6615 1241.09 Q60.6059 1245.68 54.7958 1245.68 Q48.9856 1245.68 45.9069 1241.09 Q42.8514 1236.49 42.8514 1227.76 Q42.8514 1219.01 45.9069 1214.43 Q48.9856 1209.82 54.7958 1209.82 Z" fill="#000000" fill-rule="evenodd" fill-opacity="1" /><path clip-path="url(#clip900)" d="M 0 0 M18.6617 978.546 L34.9811 978.546 L34.9811 982.481 L13.0367 982.481 L13.0367 978.546 Q15.6988 975.791 20.2821 971.161 Q24.8885 966.509 26.0691 965.166 Q28.3144 962.643 29.1941 960.907 Q30.0968 959.148 30.0968 957.458 Q30.0968 954.703 28.1524 952.967 Q26.2311 951.231 23.1293 951.231 Q20.9302 951.231 18.4765 951.995 Q16.046 952.759 13.2682 954.31 L13.2682 949.588 Q16.0923 948.453 18.546 947.875 Q20.9997 947.296 23.0367 947.296 Q28.407 947.296 31.6015 949.981 Q34.7959 952.666 34.7959 957.157 Q34.7959 959.287 33.9857 961.208 Q33.1987 963.106 31.0922 965.699 Q30.5135 966.37 27.4117 969.587 Q24.3098 972.782 18.6617 978.546 Z" fill="#000000" fill-rule="evenodd" fill-opacity="1" /><path clip-path="url(#clip900)" d="M 0 0 M54.7958 951 Q51.1847 951 49.356 954.564 Q47.5504 958.106 47.5504 965.236 Q47.5504 972.342 49.356 975.907 Q51.1847 979.448 54.7958 979.448 Q58.43 979.448 60.2356 975.907 Q62.0643 972.342 62.0643 965.236 Q62.0643 958.106 60.2356 954.564 Q58.43 951 54.7958 951 M54.7958 947.296 Q60.6059 947.296 63.6615 951.902 Q66.7402 956.486 66.7402 965.236 Q66.7402 973.962 63.6615 978.569 Q60.6059 983.152 54.7958 983.152 Q48.9856 983.152 45.9069 978.569 Q42.8514 973.962 42.8514 965.236 Q42.8514 956.486 45.9069 951.902 Q48.9856 947.296 54.7958 947.296 Z" fill="#000000" fill-rule="evenodd" fill-opacity="1" /><path clip-path="url(#clip900)" d="M 0 0 M28.8005 701.323 Q32.157 702.041 34.032 704.309 Q35.9301 706.578 35.9301 709.911 Q35.9301 715.027 32.4116 717.828 Q28.8931 720.629 22.4117 720.629 Q20.2358 720.629 17.921 720.189 Q15.6293 719.772 13.1756 718.916 L13.1756 714.402 Q15.1201 715.536 17.4349 716.115 Q19.7497 716.694 22.2728 716.694 Q26.6709 716.694 28.9626 714.958 Q31.2774 713.221 31.2774 709.911 Q31.2774 706.856 29.1246 705.143 Q26.995 703.407 23.1756 703.407 L19.1478 703.407 L19.1478 699.564 L23.3608 699.564 Q26.8098 699.564 28.6385 698.198 Q30.4672 696.809 30.4672 694.217 Q30.4672 691.555 28.5691 690.143 Q26.6941 688.708 23.1756 688.708 Q21.2543 688.708 19.0552 689.124 Q16.8562 689.541 14.2173 690.421 L14.2173 686.254 Q16.8793 685.513 19.1941 685.143 Q21.5321 684.773 23.5922 684.773 Q28.9163 684.773 32.0181 687.203 Q35.12 689.61 35.12 693.731 Q35.12 696.601 33.4764 698.592 Q31.8329 700.559 28.8005 701.323 Z" fill="#000000" fill-rule="evenodd" fill-opacity="1" /><path clip-path="url(#clip900)" d="M 0 0 M54.7958 688.476 Q51.1847 688.476 49.356 692.041 Q47.5504 695.583 47.5504 702.712 Q47.5504 709.819 49.356 713.383 Q51.1847 716.925 54.7958 716.925 Q58.43 716.925 60.2356 713.383 Q62.0643 709.819 62.0643 702.712 Q62.0643 695.583 60.2356 692.041 Q58.43 688.476 54.7958 688.476 M54.7958 684.773 Q60.6059 684.773 63.6615 689.379 Q66.7402 693.962 66.7402 702.712 Q66.7402 711.439 63.6615 716.045 Q60.6059 720.629 54.7958 720.629 Q48.9856 720.629 45.9069 716.045 Q42.8514 711.439 42.8514 702.712 Q42.8514 693.962 45.9069 689.379 Q48.9856 684.773 54.7958 684.773 Z" fill="#000000" fill-rule="evenodd" fill-opacity="1" /><path clip-path="url(#clip900)" d="M 0 0 M27.4811 426.948 L15.6756 445.397 L27.4811 445.397 L27.4811 426.948 M26.2543 422.874 L32.1339 422.874 L32.1339 445.397 L37.0644 445.397 L37.0644 449.286 L32.1339 449.286 L32.1339 457.434 L27.4811 457.434 L27.4811 449.286 L11.8793 449.286 L11.8793 444.772 L26.2543 422.874 Z" fill="#000000" fill-rule="evenodd" fill-opacity="1" /><path clip-path="url(#clip900)" d="M 0 0 M54.7958 425.953 Q51.1847 425.953 49.356 429.518 Q47.5504 433.059 47.5504 440.189 Q47.5504 447.295 49.356 450.86 Q51.1847 454.402 54.7958 454.402 Q58.43 454.402 60.2356 450.86 Q62.0643 447.295 62.0643 440.189 Q62.0643 433.059 60.2356 429.518 Q58.43 425.953 54.7958 425.953 M54.7958 422.249 Q60.6059 422.249 63.6615 426.856 Q66.7402 431.439 66.7402 440.189 Q66.7402 448.916 63.6615 453.522 Q60.6059 458.105 54.7958 458.105 Q48.9856 458.105 45.9069 453.522 Q42.8514 448.916 42.8514 440.189 Q42.8514 431.439 45.9069 426.856 Q48.9856 422.249 54.7958 422.249 Z" fill="#000000" fill-rule="evenodd" fill-opacity="1" /><path clip-path="url(#clip900)" d="M 0 0 M14.6803 160.351 L33.0366 160.351 L33.0366 164.286 L18.9626 164.286 L18.9626 172.758 Q19.9811 172.411 20.9997 172.249 Q22.0182 172.064 23.0367 172.064 Q28.8237 172.064 32.2033 175.235 Q35.5829 178.406 35.5829 183.823 Q35.5829 189.402 32.1107 192.503 Q28.6385 195.582 22.3191 195.582 Q20.1432 195.582 17.8747 195.212 Q15.6293 194.841 13.2219 194.101 L13.2219 189.402 Q15.3052 190.536 17.5275 191.091 Q19.7497 191.647 22.2265 191.647 Q26.2311 191.647 28.5691 189.54 Q30.907 187.434 30.907 183.823 Q30.907 180.212 28.5691 178.105 Q26.2311 175.999 22.2265 175.999 Q20.3515 175.999 18.4765 176.416 Q16.6247 176.832 14.6803 177.712 L14.6803 160.351 Z" fill="#000000" fill-rule="evenodd" fill-opacity="1" /><path clip-path="url(#clip900)" d="M 0 0 M54.7958 163.429 Q51.1847 163.429 49.356 166.994 Q47.5504 170.536 47.5504 177.666 Q47.5504 184.772 49.356 188.337 Q51.1847 191.878 54.7958 191.878 Q58.43 191.878 60.2356 188.337 Q62.0643 184.772 62.0643 177.666 Q62.0643 170.536 60.2356 166.994 Q58.43 163.429 54.7958 163.429 M54.7958 159.726 Q60.6059 159.726 63.6615 164.332 Q66.7402 168.916 66.7402 177.666 Q66.7402 186.392 63.6615 190.999 Q60.6059 195.582 54.7958 195.582 Q48.9856 195.582 45.9069 190.999 Q42.8514 186.392 42.8514 177.666 Q42.8514 168.916 45.9069 164.332 Q48.9856 159.726 54.7958 159.726 Z" fill="#000000" fill-rule="evenodd" fill-opacity="1" /><path clip-path="url(#clip900)" d="M 0 0 M-84.3371 885.249 L-78.0668 885.249 Q-79.8174 888.909 -80.6768 892.156 Q-81.5362 895.402 -81.5362 898.426 Q-81.5362 903.678 -79.4991 906.542 Q-77.4621 909.375 -73.7063 909.375 Q-70.5553 909.375 -68.9321 907.497 Q-67.3406 905.587 -66.3539 900.304 L-65.5582 896.421 Q-64.1896 889.227 -60.7203 885.822 Q-57.2828 882.384 -51.49 882.384 Q-44.5832 882.384 -41.0184 887.031 Q-37.4536 891.646 -37.4536 900.59 Q-37.4536 903.964 -38.2175 907.783 Q-38.9814 911.571 -40.4773 915.645 L-47.0977 915.645 Q-44.9015 911.73 -43.7875 907.974 Q-42.6735 904.219 -42.6735 900.59 Q-42.6735 895.084 -44.8379 892.092 Q-47.0022 889.1 -51.0126 889.1 Q-54.5137 889.1 -56.4871 891.264 Q-58.4605 893.397 -59.4471 898.298 L-60.211 902.213 Q-61.6433 909.407 -64.6989 912.621 Q-67.7544 915.836 -73.1971 915.836 Q-79.4991 915.836 -83.1276 911.412 Q-86.756 906.956 -86.756 899.158 Q-86.756 895.816 -86.1513 892.347 Q-85.5465 888.877 -84.3371 885.249 Z" fill="#000000" fill-rule="evenodd" fill-opacity="1" /><path clip-path="url(#clip900)" d="M 0 0 M-43.7239 866.947 L-24.8177 866.947 L-24.8177 872.836 L-74.0246 872.836 L-74.0246 866.947 L-68.6138 866.947 Q-71.7966 865.101 -73.3244 862.3 Q-74.884 859.468 -74.884 855.553 Q-74.884 849.06 -69.7278 845.018 Q-64.5715 840.943 -56.1688 840.943 Q-47.7661 840.943 -42.6099 845.018 Q-37.4536 849.06 -37.4536 855.553 Q-37.4536 859.468 -38.9814 862.3 Q-40.541 865.101 -43.7239 866.947 M-56.1688 847.023 Q-62.63 847.023 -66.2903 849.696 Q-69.9824 852.338 -69.9824 856.985 Q-69.9824 861.632 -66.2903 864.306 Q-62.63 866.947 -56.1688 866.947 Q-49.7076 866.947 -46.0155 864.306 Q-42.3552 861.632 -42.3552 856.985 Q-42.3552 852.338 -46.0155 849.696 Q-49.7076 847.023 -56.1688 847.023 Z" fill="#000000" fill-rule="evenodd" fill-opacity="1" /><path clip-path="url(#clip900)" d="M 0 0 M-57.6648 800.744 L-54.8002 800.744 L-54.8002 827.671 Q-48.7528 827.289 -45.5699 824.043 Q-42.4189 820.764 -42.4189 814.94 Q-42.4189 811.566 -43.2464 808.415 Q-44.074 805.232 -45.7291 802.113 L-40.1909 802.113 Q-38.8541 805.264 -38.1539 808.574 Q-37.4536 811.884 -37.4536 815.29 Q-37.4536 823.82 -42.4189 828.817 Q-47.3841 833.782 -55.8505 833.782 Q-64.6034 833.782 -69.7278 829.071 Q-74.884 824.329 -74.884 816.308 Q-74.884 809.115 -70.237 804.945 Q-65.6219 800.744 -57.6648 800.744 M-59.3835 806.6 Q-64.1896 806.664 -67.0542 809.306 Q-69.9187 811.916 -69.9187 816.245 Q-69.9187 821.146 -67.1497 824.106 Q-64.3806 827.034 -59.3517 827.48 L-59.3835 806.6 Z" fill="#000000" fill-rule="evenodd" fill-opacity="1" /><path clip-path="url(#clip900)" d="M 0 0 M-57.6648 760.64 L-54.8002 760.64 L-54.8002 787.567 Q-48.7528 787.185 -45.5699 783.939 Q-42.4189 780.66 -42.4189 774.836 Q-42.4189 771.462 -43.2464 768.311 Q-44.074 765.128 -45.7291 762.009 L-40.1909 762.009 Q-38.8541 765.16 -38.1539 768.47 Q-37.4536 771.78 -37.4536 775.186 Q-37.4536 783.716 -42.4189 788.713 Q-47.3841 793.678 -55.8505 793.678 Q-64.6034 793.678 -69.7278 788.967 Q-74.884 784.225 -74.884 776.204 Q-74.884 769.011 -70.237 764.841 Q-65.6219 760.64 -57.6648 760.64 M-59.3835 766.497 Q-64.1896 766.56 -67.0542 769.202 Q-69.9187 771.812 -69.9187 776.141 Q-69.9187 781.042 -67.1497 784.002 Q-64.3806 786.93 -59.3517 787.376 L-59.3835 766.497 Z" fill="#000000" fill-rule="evenodd" fill-opacity="1" /><path clip-path="url(#clip900)" d="M 0 0 M-68.6138 727.57 L-87.9019 727.57 L-87.9019 721.714 L-38.3767 721.714 L-38.3767 727.57 L-43.7239 727.57 Q-40.541 729.416 -38.9814 732.249 Q-37.4536 735.05 -37.4536 738.997 Q-37.4536 745.458 -42.6099 749.532 Q-47.7661 753.574 -56.1688 753.574 Q-64.5715 753.574 -69.7278 749.532 Q-74.884 745.458 -74.884 738.997 Q-74.884 735.05 -73.3244 732.249 Q-71.7966 729.416 -68.6138 727.57 M-56.1688 747.527 Q-49.7076 747.527 -46.0155 744.885 Q-42.3552 742.211 -42.3552 737.564 Q-42.3552 732.917 -46.0155 730.244 Q-49.7076 727.57 -56.1688 727.57 Q-62.63 727.57 -66.2903 730.244 Q-69.9824 732.917 -69.9824 737.564 Q-69.9824 742.211 -66.2903 744.885 Q-62.63 747.527 -56.1688 747.527 Z" fill="#000000" fill-rule="evenodd" fill-opacity="1" /><path clip-path="url(#clip900)" d="M 0 0 M-52.4449 710.256 L-74.0246 710.256 L-74.0246 704.399 L-52.6677 704.399 Q-47.6069 704.399 -45.0607 702.426 Q-42.5462 700.452 -42.5462 696.506 Q-42.5462 691.763 -45.5699 689.026 Q-48.5936 686.257 -53.8135 686.257 L-74.0246 686.257 L-74.0246 680.4 L-38.3767 680.4 L-38.3767 686.257 L-43.8512 686.257 Q-40.6047 688.389 -39.0132 691.222 Q-37.4536 694.023 -37.4536 697.747 Q-37.4536 703.89 -41.2731 707.073 Q-45.0925 710.256 -52.4449 710.256 M-74.884 695.519 L-74.884 695.519 Z" fill="#000000" fill-rule="evenodd" fill-opacity="1" /><path clip-path="url(#clip900)" d="M 0 0 M-43.7239 662.672 L-24.8177 662.672 L-24.8177 668.56 L-74.0246 668.56 L-74.0246 662.672 L-68.6138 662.672 Q-71.7966 660.826 -73.3244 658.025 Q-74.884 655.192 -74.884 651.277 Q-74.884 644.784 -69.7278 640.742 Q-64.5715 636.668 -56.1688 636.668 Q-47.7661 636.668 -42.6099 640.742 Q-37.4536 644.784 -37.4536 651.277 Q-37.4536 655.192 -38.9814 658.025 Q-40.541 660.826 -43.7239 662.672 M-56.1688 642.747 Q-62.63 642.747 -66.2903 645.421 Q-69.9824 648.063 -69.9824 652.71 Q-69.9824 657.356 -66.2903 660.03 Q-62.63 662.672 -56.1688 662.672 Q-49.7076 662.672 -46.0155 660.03 Q-42.3552 657.356 -42.3552 652.71 Q-42.3552 648.063 -46.0155 645.421 Q-49.7076 642.747 -56.1688 642.747 Z" fill="#000000" fill-rule="evenodd" fill-opacity="1" /><polyline clip-path="url(#clip902)" style="stroke:#009af9; stroke-width:4; stroke-opacity:1; fill:none" points="
  166.42,1464 431.752,1412.37 697.084,1314.04 962.416,1133.94 1227.75,835.491 1493.08,604.526 1758.41,419.098 2023.74,217.243 2289.08,88.5087 
  "/>
<polyline clip-path="url(#clip902)" style="stroke:#e26f46; stroke-width:4; stroke-opacity:1; fill:none" points="
  166.42,1464 431.752,1421.59 697.084,1354.87 962.416,1306.08 1227.75,1253.36 1493.08,1247.98 1758.41,1235.75 2023.74,1229.35 2289.08,1244.06 
  "/>
<path clip-path="url(#clip900)" d="
M177.741 277.285 L748.088 277.285 L748.088 95.8446 L177.741 95.8446  Z
  " fill="#ffffff" fill-rule="evenodd" fill-opacity="1"/>
<polyline clip-path="url(#clip900)" style="stroke:#000000; stroke-width:4; stroke-opacity:1; fill:none" points="
  177.741,277.285 748.088,277.285 748.088,95.8446 177.741,95.8446 177.741,277.285 
  "/>
<polyline clip-path="url(#clip900)" style="stroke:#009af9; stroke-width:4; stroke-opacity:1; fill:none" points="
  202.741,156.325 352.742,156.325 
  "/>
<path clip-path="url(#clip900)" d="M 0 0 M377.742 139.045 L382.464 139.045 L389.733 168.257 L396.978 139.045 L402.233 139.045 L409.501 168.257 L416.747 139.045 L421.492 139.045 L412.811 173.605 L406.932 173.605 L399.64 143.605 L392.279 173.605 L386.399 173.605 L377.742 139.045 Z" fill="#000000" fill-rule="evenodd" fill-opacity="1" /><path clip-path="url(#clip900)" d="M 0 0 M434.779 150.665 Q431.353 150.665 429.362 153.35 Q427.371 156.012 427.371 160.665 Q427.371 165.318 429.339 168.003 Q431.33 170.665 434.779 170.665 Q438.182 170.665 440.172 167.98 Q442.163 165.294 442.163 160.665 Q442.163 156.058 440.172 153.373 Q438.182 150.665 434.779 150.665 M434.779 147.054 Q440.334 147.054 443.506 150.665 Q446.677 154.276 446.677 160.665 Q446.677 167.031 443.506 170.665 Q440.334 174.276 434.779 174.276 Q429.2 174.276 426.029 170.665 Q422.881 167.031 422.881 160.665 Q422.881 154.276 426.029 150.665 Q429.2 147.054 434.779 147.054 Z" fill="#000000" fill-rule="evenodd" fill-opacity="1" /><path clip-path="url(#clip900)" d="M 0 0 M468.76 151.66 Q468.043 151.244 467.186 151.058 Q466.353 150.85 465.334 150.85 Q461.723 150.85 459.779 153.211 Q457.857 155.549 457.857 159.947 L457.857 173.605 L453.575 173.605 L453.575 147.679 L457.857 147.679 L457.857 151.707 Q459.2 149.345 461.353 148.211 Q463.506 147.054 466.584 147.054 Q467.024 147.054 467.556 147.123 Q468.089 147.17 468.737 147.285 L468.76 151.66 Z" fill="#000000" fill-rule="evenodd" fill-opacity="1" /><path clip-path="url(#clip900)" d="M 0 0 M473.066 137.586 L477.348 137.586 L477.348 158.859 L490.056 147.679 L495.496 147.679 L481.746 159.808 L496.075 173.605 L490.519 173.605 L477.348 160.943 L477.348 173.605 L473.066 173.605 L473.066 137.586 Z" fill="#000000" fill-rule="evenodd" fill-opacity="1" /><path clip-path="url(#clip900)" d="M 0 0 M500.681 147.679 L504.94 147.679 L504.94 173.605 L500.681 173.605 L500.681 147.679 M500.681 137.586 L504.94 137.586 L504.94 142.98 L500.681 142.98 L500.681 137.586 Z" fill="#000000" fill-rule="evenodd" fill-opacity="1" /><path clip-path="url(#clip900)" d="M 0 0 M535.403 157.957 L535.403 173.605 L531.144 173.605 L531.144 158.095 Q531.144 154.415 529.709 152.586 Q528.274 150.758 525.403 150.758 Q521.954 150.758 519.964 152.957 Q517.973 155.156 517.973 158.952 L517.973 173.605 L513.69 173.605 L513.69 147.679 L517.973 147.679 L517.973 151.707 Q519.501 149.369 521.561 148.211 Q523.644 147.054 526.352 147.054 Q530.82 147.054 533.112 149.832 Q535.403 152.586 535.403 157.957 Z" fill="#000000" fill-rule="evenodd" fill-opacity="1" /><path clip-path="url(#clip900)" d="M 0 0 M560.959 160.341 Q560.959 155.711 559.037 153.165 Q557.139 150.619 553.69 150.619 Q550.264 150.619 548.343 153.165 Q546.445 155.711 546.445 160.341 Q546.445 164.947 548.343 167.494 Q550.264 170.04 553.69 170.04 Q557.139 170.04 559.037 167.494 Q560.959 164.947 560.959 160.341 M565.218 170.387 Q565.218 177.007 562.278 180.225 Q559.338 183.466 553.274 183.466 Q551.028 183.466 549.037 183.118 Q547.047 182.794 545.172 182.1 L545.172 177.956 Q547.047 178.975 548.875 179.461 Q550.704 179.947 552.602 179.947 Q556.792 179.947 558.875 177.748 Q560.959 175.572 560.959 171.151 L560.959 169.044 Q559.639 171.336 557.579 172.47 Q555.519 173.605 552.649 173.605 Q547.88 173.605 544.963 169.97 Q542.047 166.336 542.047 160.341 Q542.047 154.322 544.963 150.688 Q547.88 147.054 552.649 147.054 Q555.519 147.054 557.579 148.188 Q559.639 149.322 560.959 151.614 L560.959 147.679 L565.218 147.679 L565.218 170.387 Z" fill="#000000" fill-rule="evenodd" fill-opacity="1" /><path clip-path="url(#clip900)" d="M 0 0 M584.454 139.045 L613.69 139.045 L613.69 142.98 L601.421 142.98 L601.421 173.605 L596.722 173.605 L596.722 142.98 L584.454 142.98 L584.454 139.045 Z" fill="#000000" fill-rule="evenodd" fill-opacity="1" /><path clip-path="url(#clip900)" d="M 0 0 M616.56 147.679 L620.819 147.679 L620.819 173.605 L616.56 173.605 L616.56 147.679 M616.56 137.586 L620.819 137.586 L620.819 142.98 L616.56 142.98 L616.56 137.586 Z" fill="#000000" fill-rule="evenodd" fill-opacity="1" /><path clip-path="url(#clip900)" d="M 0 0 M649.917 152.656 Q651.514 149.785 653.736 148.42 Q655.958 147.054 658.967 147.054 Q663.018 147.054 665.217 149.901 Q667.416 152.725 667.416 157.957 L667.416 173.605 L663.134 173.605 L663.134 158.095 Q663.134 154.369 661.815 152.563 Q660.495 150.758 657.787 150.758 Q654.477 150.758 652.555 152.957 Q650.634 155.156 650.634 158.952 L650.634 173.605 L646.352 173.605 L646.352 158.095 Q646.352 154.345 645.032 152.563 Q643.713 150.758 640.958 150.758 Q637.694 150.758 635.773 152.98 Q633.852 155.179 633.852 158.952 L633.852 173.605 L629.569 173.605 L629.569 147.679 L633.852 147.679 L633.852 151.707 Q635.31 149.322 637.347 148.188 Q639.384 147.054 642.185 147.054 Q645.009 147.054 646.977 148.489 Q648.967 149.924 649.917 152.656 Z" fill="#000000" fill-rule="evenodd" fill-opacity="1" /><path clip-path="url(#clip900)" d="M 0 0 M698.088 159.577 L698.088 161.66 L678.504 161.66 Q678.782 166.058 681.143 168.373 Q683.527 170.665 687.764 170.665 Q690.217 170.665 692.509 170.063 Q694.824 169.461 697.092 168.257 L697.092 172.285 Q694.801 173.257 692.393 173.767 Q689.986 174.276 687.509 174.276 Q681.305 174.276 677.671 170.665 Q674.06 167.054 674.06 160.896 Q674.06 154.531 677.486 150.804 Q680.935 147.054 686.768 147.054 Q692 147.054 695.032 150.433 Q698.088 153.79 698.088 159.577 M693.828 158.327 Q693.782 154.832 691.861 152.748 Q689.963 150.665 686.815 150.665 Q683.25 150.665 681.097 152.679 Q678.967 154.693 678.643 158.35 L693.828 158.327 Z" fill="#000000" fill-rule="evenodd" fill-opacity="1" /><polyline clip-path="url(#clip900)" style="stroke:#e26f46; stroke-width:4; stroke-opacity:1; fill:none" points="
  202.741,216.805 352.742,216.805 
  "/>
<path clip-path="url(#clip900)" d="M 0 0 M377.742 199.525 L406.978 199.525 L406.978 203.46 L394.71 203.46 L394.71 234.085 L390.011 234.085 L390.011 203.46 L377.742 203.46 L377.742 199.525 Z" fill="#000000" fill-rule="evenodd" fill-opacity="1" /><path clip-path="url(#clip900)" d="M 0 0 M413.297 211.145 Q409.872 211.145 407.881 213.83 Q405.89 216.492 405.89 221.145 Q405.89 225.798 407.858 228.483 Q409.848 231.145 413.297 231.145 Q416.7 231.145 418.691 228.46 Q420.682 225.774 420.682 221.145 Q420.682 216.538 418.691 213.853 Q416.7 211.145 413.297 211.145 M413.297 207.534 Q418.853 207.534 422.024 211.145 Q425.196 214.756 425.196 221.145 Q425.196 227.511 422.024 231.145 Q418.853 234.756 413.297 234.756 Q407.719 234.756 404.547 231.145 Q401.399 227.511 401.399 221.145 Q401.399 214.756 404.547 211.145 Q407.719 207.534 413.297 207.534 Z" fill="#000000" fill-rule="evenodd" fill-opacity="1" /><path clip-path="url(#clip900)" d="M 0 0 M436.469 200.798 L436.469 208.159 L445.242 208.159 L445.242 211.469 L436.469 211.469 L436.469 225.543 Q436.469 228.714 437.325 229.617 Q438.205 230.52 440.867 230.52 L445.242 230.52 L445.242 234.085 L440.867 234.085 Q435.936 234.085 434.061 232.256 Q432.186 230.404 432.186 225.543 L432.186 211.469 L429.061 211.469 L429.061 208.159 L432.186 208.159 L432.186 200.798 L436.469 200.798 Z" fill="#000000" fill-rule="evenodd" fill-opacity="1" /><path clip-path="url(#clip900)" d="M 0 0 M462.626 221.052 Q457.464 221.052 455.473 222.233 Q453.482 223.413 453.482 226.261 Q453.482 228.529 454.964 229.872 Q456.469 231.191 459.038 231.191 Q462.58 231.191 464.709 228.691 Q466.862 226.168 466.862 222.001 L466.862 221.052 L462.626 221.052 M471.121 219.293 L471.121 234.085 L466.862 234.085 L466.862 230.149 Q465.404 232.511 463.228 233.645 Q461.052 234.756 457.904 234.756 Q453.922 234.756 451.561 232.534 Q449.223 230.288 449.223 226.538 Q449.223 222.163 452.14 219.941 Q455.08 217.719 460.89 217.719 L466.862 217.719 L466.862 217.302 Q466.862 214.363 464.918 212.765 Q462.996 211.145 459.501 211.145 Q457.279 211.145 455.172 211.677 Q453.066 212.21 451.121 213.275 L451.121 209.339 Q453.459 208.437 455.658 207.997 Q457.857 207.534 459.941 207.534 Q465.566 207.534 468.343 210.45 Q471.121 213.367 471.121 219.293 Z" fill="#000000" fill-rule="evenodd" fill-opacity="1" /><path clip-path="url(#clip900)" d="M 0 0 M479.894 198.066 L484.154 198.066 L484.154 234.085 L479.894 234.085 L479.894 198.066 Z" fill="#000000" fill-rule="evenodd" fill-opacity="1" /><path clip-path="url(#clip900)" d="M 0 0 M503.528 199.525 L532.764 199.525 L532.764 203.46 L520.496 203.46 L520.496 234.085 L515.797 234.085 L515.797 203.46 L503.528 203.46 L503.528 199.525 Z" fill="#000000" fill-rule="evenodd" fill-opacity="1" /><path clip-path="url(#clip900)" d="M 0 0 M535.635 208.159 L539.894 208.159 L539.894 234.085 L535.635 234.085 L535.635 208.159 M535.635 198.066 L539.894 198.066 L539.894 203.46 L535.635 203.46 L535.635 198.066 Z" fill="#000000" fill-rule="evenodd" fill-opacity="1" /><path clip-path="url(#clip900)" d="M 0 0 M568.991 213.136 Q570.588 210.265 572.81 208.9 Q575.033 207.534 578.042 207.534 Q582.093 207.534 584.292 210.381 Q586.491 213.205 586.491 218.437 L586.491 234.085 L582.209 234.085 L582.209 218.575 Q582.209 214.849 580.889 213.043 Q579.57 211.238 576.861 211.238 Q573.551 211.238 571.63 213.437 Q569.709 215.636 569.709 219.432 L569.709 234.085 L565.426 234.085 L565.426 218.575 Q565.426 214.825 564.107 213.043 Q562.787 211.238 560.033 211.238 Q556.769 211.238 554.848 213.46 Q552.926 215.659 552.926 219.432 L552.926 234.085 L548.644 234.085 L548.644 208.159 L552.926 208.159 L552.926 212.187 Q554.385 209.802 556.422 208.668 Q558.459 207.534 561.26 207.534 Q564.084 207.534 566.051 208.969 Q568.042 210.404 568.991 213.136 Z" fill="#000000" fill-rule="evenodd" fill-opacity="1" /><path clip-path="url(#clip900)" d="M 0 0 M617.162 220.057 L617.162 222.14 L597.579 222.14 Q597.857 226.538 600.218 228.853 Q602.602 231.145 606.838 231.145 Q609.292 231.145 611.583 230.543 Q613.898 229.941 616.167 228.737 L616.167 232.765 Q613.875 233.737 611.468 234.247 Q609.06 234.756 606.583 234.756 Q600.38 234.756 596.746 231.145 Q593.134 227.534 593.134 221.376 Q593.134 215.011 596.56 211.284 Q600.009 207.534 605.843 207.534 Q611.074 207.534 614.107 210.913 Q617.162 214.27 617.162 220.057 M612.903 218.807 Q612.857 215.312 610.935 213.228 Q609.037 211.145 605.889 211.145 Q602.324 211.145 600.171 213.159 Q598.042 215.173 597.718 218.83 L612.903 218.807 Z" fill="#000000" fill-rule="evenodd" fill-opacity="1" /></svg>
