<?xml version="1.0" encoding="utf-8"?>
<svg xmlns="http://www.w3.org/2000/svg" xmlns:xlink="http://www.w3.org/1999/xlink" width="600" height="400" viewBox="0 0 2400 1600">
<defs>
  <clipPath id="clip690">
    <rect x="0" y="0" width="2400" height="1600"/>
  </clipPath>
</defs>
<path clip-path="url(#clip690)" d="
M0 1600 L2400 1600 L2400 0 L0 0  Z
  " fill="#ffffff" fill-rule="evenodd" fill-opacity="1"/>
<defs>
  <clipPath id="clip691">
    <rect x="480" y="0" width="1681" height="1600"/>
  </clipPath>
</defs>
<path clip-path="url(#clip690)" d="
M102.74 1458.42 L2352.76 1458.42 L2352.76 47.2441 L102.74 47.2441  Z
  " fill="#ffffff" fill-rule="evenodd" fill-opacity="1"/>
<defs>
  <clipPath id="clip692">
    <rect x="102" y="47" width="2251" height="1412"/>
  </clipPath>
</defs>
<polyline clip-path="url(#clip692)" style="stroke:#000000; stroke-width:2; stroke-opacity:0.1; fill:none" points="
  402.271,1458.42 402.271,47.2441 
  "/>
<polyline clip-path="url(#clip692)" style="stroke:#000000; stroke-width:2; stroke-opacity:0.1; fill:none" points="
  873.972,1458.42 873.972,47.2441 
  "/>
<polyline clip-path="url(#clip692)" style="stroke:#000000; stroke-width:2; stroke-opacity:0.1; fill:none" points="
  1345.67,1458.42 1345.67,47.2441 
  "/>
<polyline clip-path="url(#clip692)" style="stroke:#000000; stroke-width:2; stroke-opacity:0.1; fill:none" points="
  1817.37,1458.42 1817.37,47.2441 
  "/>
<polyline clip-path="url(#clip692)" style="stroke:#000000; stroke-width:2; stroke-opacity:0.1; fill:none" points="
  2289.08,1458.42 2289.08,47.2441 
  "/>
<polyline clip-path="url(#clip690)" style="stroke:#000000; stroke-width:4; stroke-opacity:1; fill:none" points="
  102.74,1458.42 2352.76,1458.42 
  "/>
<polyline clip-path="url(#clip690)" style="stroke:#000000; stroke-width:4; stroke-opacity:1; fill:none" points="
  402.271,1458.42 402.271,1441.48 
  "/>
<polyline clip-path="url(#clip690)" style="stroke:#000000; stroke-width:4; stroke-opacity:1; fill:none" points="
  873.972,1458.42 873.972,1441.48 
  "/>
<polyline clip-path="url(#clip690)" style="stroke:#000000; stroke-width:4; stroke-opacity:1; fill:none" points="
  1345.67,1458.42 1345.67,1441.48 
  "/>
<polyline clip-path="url(#clip690)" style="stroke:#000000; stroke-width:4; stroke-opacity:1; fill:none" points="
  1817.37,1458.42 1817.37,1441.48 
  "/>
<polyline clip-path="url(#clip690)" style="stroke:#000000; stroke-width:4; stroke-opacity:1; fill:none" points="
  2289.08,1458.42 2289.08,1441.48 
  "/>
<path clip-path="url(#clip690)" d="M 0 0 M368.043 1536.69 L375.682 1536.69 L375.682 1510.32 L367.372 1511.99 L367.372 1507.73 L375.636 1506.06 L380.312 1506.06 L380.312 1536.69 L387.951 1536.69 L387.951 1540.62 L368.043 1540.62 L368.043 1536.69 Z" fill="#000000" fill-rule="evenodd" fill-opacity="1" /><path clip-path="url(#clip690)" d="M 0 0 M407.395 1509.14 Q403.784 1509.14 401.955 1512.71 Q400.15 1516.25 400.15 1523.38 Q400.15 1530.49 401.955 1534.05 Q403.784 1537.59 407.395 1537.59 Q411.029 1537.59 412.835 1534.05 Q414.663 1530.49 414.663 1523.38 Q414.663 1516.25 412.835 1512.71 Q411.029 1509.14 407.395 1509.14 M407.395 1505.44 Q413.205 1505.44 416.261 1510.05 Q419.339 1514.63 419.339 1523.38 Q419.339 1532.11 416.261 1536.71 Q413.205 1541.3 407.395 1541.3 Q401.585 1541.3 398.506 1536.71 Q395.451 1532.11 395.451 1523.38 Q395.451 1514.63 398.506 1510.05 Q401.585 1505.44 407.395 1505.44 Z" fill="#000000" fill-rule="evenodd" fill-opacity="1" /><path clip-path="url(#clip690)" d="M 0 0 M423.91 1510.02 L437.169 1510.02 L437.169 1513.21 L419.339 1513.21 L419.339 1510.02 Q421.502 1507.78 425.226 1504.02 Q428.969 1500.24 429.928 1499.15 Q431.752 1497.1 432.467 1495.68 Q433.201 1494.26 433.201 1492.88 Q433.201 1490.64 431.621 1489.23 Q430.06 1487.82 427.54 1487.82 Q425.753 1487.82 423.759 1488.44 Q421.784 1489.06 419.527 1490.32 L419.527 1486.49 Q421.822 1485.57 423.816 1485.1 Q425.809 1484.63 427.464 1484.63 Q431.828 1484.63 434.423 1486.81 Q437.019 1488.99 437.019 1492.64 Q437.019 1494.37 436.36 1495.93 Q435.721 1497.47 434.009 1499.58 Q433.539 1500.12 431.019 1502.74 Q428.499 1505.33 423.91 1510.02 Z" fill="#000000" fill-rule="evenodd" fill-opacity="1" /><path clip-path="url(#clip690)" d="M 0 0 M838.428 1536.69 L846.067 1536.69 L846.067 1510.32 L837.757 1511.99 L837.757 1507.73 L846.021 1506.06 L850.697 1506.06 L850.697 1536.69 L858.335 1536.69 L858.335 1540.62 L838.428 1540.62 L838.428 1536.69 Z" fill="#000000" fill-rule="evenodd" fill-opacity="1" /><path clip-path="url(#clip690)" d="M 0 0 M877.78 1509.14 Q874.169 1509.14 872.34 1512.71 Q870.534 1516.25 870.534 1523.38 Q870.534 1530.49 872.34 1534.05 Q874.169 1537.59 877.78 1537.59 Q881.414 1537.59 883.22 1534.05 Q885.048 1530.49 885.048 1523.38 Q885.048 1516.25 883.22 1512.71 Q881.414 1509.14 877.78 1509.14 M877.78 1505.44 Q883.59 1505.44 886.646 1510.05 Q889.724 1514.63 889.724 1523.38 Q889.724 1532.11 886.646 1536.71 Q883.59 1541.3 877.78 1541.3 Q871.97 1541.3 868.891 1536.71 Q865.835 1532.11 865.835 1523.38 Q865.835 1514.63 868.891 1510.05 Q871.97 1505.44 877.78 1505.44 Z" fill="#000000" fill-rule="evenodd" fill-opacity="1" /><path clip-path="url(#clip690)" d="M 0 0 M902.401 1488.44 L892.809 1503.43 L902.401 1503.43 L902.401 1488.44 M901.404 1485.13 L906.181 1485.13 L906.181 1503.43 L910.187 1503.43 L910.187 1506.59 L906.181 1506.59 L906.181 1513.21 L902.401 1513.21 L902.401 1506.59 L889.724 1506.59 L889.724 1502.93 L901.404 1485.13 Z" fill="#000000" fill-rule="evenodd" fill-opacity="1" /><path clip-path="url(#clip690)" d="M 0 0 M1310.67 1536.69 L1318.3 1536.69 L1318.3 1510.32 L1309.99 1511.99 L1309.99 1507.73 L1318.26 1506.06 L1322.93 1506.06 L1322.93 1536.69 L1330.57 1536.69 L1330.57 1540.62 L1310.67 1540.62 L1310.67 1536.69 Z" fill="#000000" fill-rule="evenodd" fill-opacity="1" /><path clip-path="url(#clip690)" d="M 0 0 M1350.02 1509.14 Q1346.41 1509.14 1344.58 1512.71 Q1342.77 1516.25 1342.77 1523.38 Q1342.77 1530.49 1344.58 1534.05 Q1346.41 1537.59 1350.02 1537.59 Q1353.65 1537.59 1355.46 1534.05 Q1357.29 1530.49 1357.29 1523.38 Q1357.29 1516.25 1355.46 1512.71 Q1353.65 1509.14 1350.02 1509.14 M1350.02 1505.44 Q1355.83 1505.44 1358.88 1510.05 Q1361.96 1514.63 1361.96 1523.38 Q1361.96 1532.11 1358.88 1536.71 Q1355.83 1541.3 1350.02 1541.3 Q1344.21 1541.3 1341.13 1536.71 Q1338.07 1532.11 1338.07 1523.38 Q1338.07 1514.63 1341.13 1510.05 Q1344.21 1505.44 1350.02 1505.44 Z" fill="#000000" fill-rule="evenodd" fill-opacity="1" /><path clip-path="url(#clip690)" d="M 0 0 M1371.99 1497.66 Q1369.43 1497.66 1367.92 1499.41 Q1366.44 1501.16 1366.44 1504.2 Q1366.44 1507.23 1367.92 1509 Q1369.43 1510.75 1371.99 1510.75 Q1374.54 1510.75 1376.03 1509 Q1377.53 1507.23 1377.53 1504.2 Q1377.53 1501.16 1376.03 1499.41 Q1374.54 1497.66 1371.99 1497.66 M1379.53 1485.75 L1379.53 1489.21 Q1378.1 1488.54 1376.63 1488.18 Q1375.18 1487.82 1373.75 1487.82 Q1369.99 1487.82 1368 1490.36 Q1366.02 1492.9 1365.74 1498.04 Q1366.85 1496.4 1368.53 1495.53 Q1370.2 1494.65 1372.21 1494.65 Q1376.44 1494.65 1378.89 1497.23 Q1381.35 1499.78 1381.35 1504.2 Q1381.35 1508.53 1378.79 1511.14 Q1376.24 1513.76 1371.99 1513.76 Q1367.11 1513.76 1364.54 1510.03 Q1361.96 1506.29 1361.96 1499.2 Q1361.96 1492.54 1365.12 1488.59 Q1368.28 1484.63 1373.6 1484.63 Q1375.03 1484.63 1376.48 1484.91 Q1377.95 1485.19 1379.53 1485.75 Z" fill="#000000" fill-rule="evenodd" fill-opacity="1" /><path clip-path="url(#clip690)" d="M 0 0 M1782.43 1536.69 L1790.07 1536.69 L1790.07 1510.32 L1781.76 1511.99 L1781.76 1507.73 L1790.03 1506.06 L1794.7 1506.06 L1794.7 1536.69 L1802.34 1536.69 L1802.34 1540.62 L1782.43 1540.62 L1782.43 1536.69 Z" fill="#000000" fill-rule="evenodd" fill-opacity="1" /><path clip-path="url(#clip690)" d="M 0 0 M1821.78 1509.14 Q1818.17 1509.14 1816.34 1512.71 Q1814.54 1516.25 1814.54 1523.38 Q1814.54 1530.49 1816.34 1534.05 Q1818.17 1537.59 1821.78 1537.59 Q1825.42 1537.59 1827.22 1534.05 Q1829.05 1530.49 1829.05 1523.38 Q1829.05 1516.25 1827.22 1512.71 Q1825.42 1509.14 1821.78 1509.14 M1821.78 1505.44 Q1827.59 1505.44 1830.65 1510.05 Q1833.73 1514.63 1833.73 1523.38 Q1833.73 1532.11 1830.65 1536.71 Q1827.59 1541.3 1821.78 1541.3 Q1815.97 1541.3 1812.9 1536.71 Q1809.84 1532.11 1809.84 1523.38 Q1809.84 1514.63 1812.9 1510.05 Q1815.97 1505.44 1821.78 1505.44 Z" fill="#000000" fill-rule="evenodd" fill-opacity="1" /><path clip-path="url(#clip690)" d="M 0 0 M1843.36 1499.88 Q1840.65 1499.88 1839.09 1501.33 Q1837.55 1502.78 1837.55 1505.31 Q1837.55 1507.85 1839.09 1509.3 Q1840.65 1510.75 1843.36 1510.75 Q1846.07 1510.75 1847.63 1509.3 Q1849.19 1507.83 1849.19 1505.31 Q1849.19 1502.78 1847.63 1501.33 Q1846.09 1499.88 1843.36 1499.88 M1839.56 1498.26 Q1837.11 1497.66 1835.74 1495.99 Q1834.39 1494.31 1834.39 1491.9 Q1834.39 1488.54 1836.78 1486.58 Q1839.18 1484.63 1843.36 1484.63 Q1847.55 1484.63 1849.94 1486.58 Q1852.33 1488.54 1852.33 1491.9 Q1852.33 1494.31 1850.96 1495.99 Q1849.6 1497.66 1847.18 1498.26 Q1849.92 1498.9 1851.45 1500.76 Q1852.99 1502.62 1852.99 1505.31 Q1852.99 1509.4 1850.49 1511.58 Q1848 1513.76 1843.36 1513.76 Q1838.71 1513.76 1836.21 1511.58 Q1833.73 1509.4 1833.73 1505.31 Q1833.73 1502.62 1835.27 1500.76 Q1836.81 1498.9 1839.56 1498.26 M1838.17 1492.26 Q1838.17 1494.44 1839.52 1495.67 Q1840.89 1496.89 1843.36 1496.89 Q1845.8 1496.89 1847.18 1495.67 Q1848.57 1494.44 1848.57 1492.26 Q1848.57 1490.08 1847.18 1488.86 Q1845.8 1487.63 1843.36 1487.63 Q1840.89 1487.63 1839.52 1488.86 Q1838.17 1490.08 1838.17 1492.26 Z" fill="#000000" fill-rule="evenodd" fill-opacity="1" /><path clip-path="url(#clip690)" d="M 0 0 M2242.65 1536.69 L2250.29 1536.69 L2250.29 1510.32 L2241.98 1511.99 L2241.98 1507.73 L2250.24 1506.06 L2254.92 1506.06 L2254.92 1536.69 L2262.56 1536.69 L2262.56 1540.62 L2242.65 1540.62 L2242.65 1536.69 Z" fill="#000000" fill-rule="evenodd" fill-opacity="1" /><path clip-path="url(#clip690)" d="M 0 0 M2282 1509.14 Q2278.39 1509.14 2276.56 1512.71 Q2274.76 1516.25 2274.76 1523.38 Q2274.76 1530.49 2276.56 1534.05 Q2278.39 1537.59 2282 1537.59 Q2285.64 1537.59 2287.44 1534.05 Q2289.27 1530.49 2289.27 1523.38 Q2289.27 1516.25 2287.44 1512.71 Q2285.64 1509.14 2282 1509.14 M2282 1505.44 Q2287.81 1505.44 2290.87 1510.05 Q2293.95 1514.63 2293.95 1523.38 Q2293.95 1532.11 2290.87 1536.71 Q2287.81 1541.3 2282 1541.3 Q2276.19 1541.3 2273.11 1536.71 Q2270.06 1532.11 2270.06 1523.38 Q2270.06 1514.63 2273.11 1510.05 Q2276.19 1505.44 2282 1505.44 Z" fill="#000000" fill-rule="evenodd" fill-opacity="1" /><path clip-path="url(#clip690)" d="M 0 0 M2294.49 1510.02 L2300.7 1510.02 L2300.7 1488.59 L2293.95 1489.95 L2293.95 1486.49 L2300.66 1485.13 L2304.46 1485.13 L2304.46 1510.02 L2310.67 1510.02 L2310.67 1513.21 L2294.49 1513.21 L2294.49 1510.02 Z" fill="#000000" fill-rule="evenodd" fill-opacity="1" /><path clip-path="url(#clip690)" d="M 0 0 M2326.47 1487.63 Q2323.53 1487.63 2322.05 1490.53 Q2320.58 1493.41 2320.58 1499.2 Q2320.58 1504.98 2322.05 1507.87 Q2323.53 1510.75 2326.47 1510.75 Q2329.42 1510.75 2330.89 1507.87 Q2332.37 1504.98 2332.37 1499.2 Q2332.37 1493.41 2330.89 1490.53 Q2329.42 1487.63 2326.47 1487.63 M2326.47 1484.63 Q2331.19 1484.63 2333.67 1488.37 Q2336.17 1492.09 2336.17 1499.2 Q2336.17 1506.29 2333.67 1510.03 Q2331.19 1513.76 2326.47 1513.76 Q2321.75 1513.76 2319.24 1510.03 Q2316.76 1506.29 2316.76 1499.2 Q2316.76 1492.09 2319.24 1488.37 Q2321.75 1484.63 2326.47 1484.63 Z" fill="#000000" fill-rule="evenodd" fill-opacity="1" /><path clip-path="url(#clip690)" d="M 0 0 M1077.31 1574.19 L1083.74 1574.19 L1083.74 1621.71 L1077.31 1621.71 L1077.31 1574.19 Z" fill="#000000" fill-rule="evenodd" fill-opacity="1" /><path clip-path="url(#clip690)" d="M 0 0 M1102.07 1575.94 L1102.07 1586.06 L1114.14 1586.06 L1114.14 1590.61 L1102.07 1590.61 L1102.07 1609.96 Q1102.07 1614.32 1103.25 1615.56 Q1104.46 1616.8 1108.12 1616.8 L1114.14 1616.8 L1114.14 1621.71 L1108.12 1621.71 Q1101.34 1621.71 1098.76 1619.19 Q1096.18 1616.64 1096.18 1609.96 L1096.18 1590.61 L1091.89 1590.61 L1091.89 1586.06 L1096.18 1586.06 L1096.18 1575.94 L1102.07 1575.94 Z" fill="#000000" fill-rule="evenodd" fill-opacity="1" /><path clip-path="url(#clip690)" d="M 0 0 M1152.33 1602.42 L1152.33 1605.28 L1125.4 1605.28 Q1125.79 1611.33 1129.03 1614.51 Q1132.31 1617.66 1138.13 1617.66 Q1141.51 1617.66 1144.66 1616.84 Q1147.84 1616.01 1150.96 1614.35 L1150.96 1619.89 Q1147.81 1621.23 1144.5 1621.93 Q1141.19 1622.63 1137.78 1622.63 Q1129.25 1622.63 1124.26 1617.66 Q1119.29 1612.7 1119.29 1604.23 Q1119.29 1595.48 1124 1590.35 Q1128.75 1585.2 1136.77 1585.2 Q1143.96 1585.2 1148.13 1589.85 Q1152.33 1594.46 1152.33 1602.42 M1146.47 1600.7 Q1146.41 1595.89 1143.77 1593.03 Q1141.16 1590.16 1136.83 1590.16 Q1131.93 1590.16 1128.97 1592.93 Q1126.04 1595.7 1125.59 1600.73 L1146.47 1600.7 Z" fill="#000000" fill-rule="evenodd" fill-opacity="1" /><path clip-path="url(#clip690)" d="M 0 0 M1182.6 1591.53 Q1181.61 1590.96 1180.43 1590.7 Q1179.29 1590.42 1177.89 1590.42 Q1172.92 1590.42 1170.25 1593.66 Q1167.61 1596.88 1167.61 1602.93 L1167.61 1621.71 L1161.72 1621.71 L1161.72 1586.06 L1167.61 1586.06 L1167.61 1591.6 Q1169.45 1588.35 1172.41 1586.79 Q1175.37 1585.2 1179.61 1585.2 Q1180.21 1585.2 1180.94 1585.29 Q1181.68 1585.36 1182.57 1585.52 L1182.6 1591.53 Z" fill="#000000" fill-rule="evenodd" fill-opacity="1" /><path clip-path="url(#clip690)" d="M 0 0 M1204.94 1603.79 Q1197.85 1603.79 1195.11 1605.41 Q1192.37 1607.03 1192.37 1610.95 Q1192.37 1614.07 1194.41 1615.91 Q1196.48 1617.73 1200.01 1617.73 Q1204.88 1617.73 1207.81 1614.29 Q1210.77 1610.82 1210.77 1605.09 L1210.77 1603.79 L1204.94 1603.79 M1216.62 1601.37 L1216.62 1621.71 L1210.77 1621.71 L1210.77 1616.29 Q1208.76 1619.54 1205.77 1621.1 Q1202.78 1622.63 1198.45 1622.63 Q1192.98 1622.63 1189.73 1619.57 Q1186.51 1616.49 1186.51 1611.33 Q1186.51 1605.31 1190.52 1602.26 Q1194.57 1599.2 1202.56 1599.2 L1210.77 1599.2 L1210.77 1598.63 Q1210.77 1594.59 1208.09 1592.39 Q1205.45 1590.16 1200.65 1590.16 Q1197.59 1590.16 1194.69 1590.9 Q1191.8 1591.63 1189.12 1593.09 L1189.12 1587.68 Q1192.34 1586.44 1195.36 1585.83 Q1198.39 1585.2 1201.25 1585.2 Q1208.99 1585.2 1212.8 1589.21 Q1216.62 1593.22 1216.62 1601.37 Z" fill="#000000" fill-rule="evenodd" fill-opacity="1" /><path clip-path="url(#clip690)" d="M 0 0 M1234.48 1575.94 L1234.48 1586.06 L1246.54 1586.06 L1246.54 1590.61 L1234.48 1590.61 L1234.48 1609.96 Q1234.48 1614.32 1235.66 1615.56 Q1236.87 1616.8 1240.53 1616.8 L1246.54 1616.8 L1246.54 1621.71 L1240.53 1621.71 Q1233.75 1621.71 1231.17 1619.19 Q1228.59 1616.64 1228.59 1609.96 L1228.59 1590.61 L1224.29 1590.61 L1224.29 1586.06 L1228.59 1586.06 L1228.59 1575.94 L1234.48 1575.94 Z" fill="#000000" fill-rule="evenodd" fill-opacity="1" /><path clip-path="url(#clip690)" d="M 0 0 M1254.25 1586.06 L1260.1 1586.06 L1260.1 1621.71 L1254.25 1621.71 L1254.25 1586.06 M1254.25 1572.18 L1260.1 1572.18 L1260.1 1579.6 L1254.25 1579.6 L1254.25 1572.18 Z" fill="#000000" fill-rule="evenodd" fill-opacity="1" /><path clip-path="url(#clip690)" d="M 0 0 M1286.17 1590.16 Q1281.46 1590.16 1278.72 1593.86 Q1275.98 1597.52 1275.98 1603.91 Q1275.98 1610.31 1278.69 1614 Q1281.43 1617.66 1286.17 1617.66 Q1290.85 1617.66 1293.59 1613.97 Q1296.32 1610.28 1296.32 1603.91 Q1296.32 1597.58 1293.59 1593.89 Q1290.85 1590.16 1286.17 1590.16 M1286.17 1585.2 Q1293.81 1585.2 1298.17 1590.16 Q1302.53 1595.13 1302.53 1603.91 Q1302.53 1612.67 1298.17 1617.66 Q1293.81 1622.63 1286.17 1622.63 Q1278.5 1622.63 1274.14 1617.66 Q1269.81 1612.67 1269.81 1603.91 Q1269.81 1595.13 1274.14 1590.16 Q1278.5 1585.2 1286.17 1585.2 Z" fill="#000000" fill-rule="evenodd" fill-opacity="1" /><path clip-path="url(#clip690)" d="M 0 0 M1341.87 1600.19 L1341.87 1621.71 L1336.01 1621.71 L1336.01 1600.38 Q1336.01 1595.32 1334.04 1592.81 Q1332.07 1590.29 1328.12 1590.29 Q1323.38 1590.29 1320.64 1593.31 Q1317.9 1596.34 1317.9 1601.56 L1317.9 1621.71 L1312.01 1621.71 L1312.01 1586.06 L1317.9 1586.06 L1317.9 1591.6 Q1320 1588.38 1322.84 1586.79 Q1325.7 1585.2 1329.42 1585.2 Q1335.57 1585.2 1338.72 1589.02 Q1341.87 1592.81 1341.87 1600.19 Z" fill="#000000" fill-rule="evenodd" fill-opacity="1" /><path clip-path="url(#clip690)" d="M 0 0 M1376.28 1587.11 L1376.28 1592.65 Q1373.79 1591.37 1371.12 1590.74 Q1368.45 1590.1 1365.58 1590.1 Q1361.22 1590.1 1359.02 1591.44 Q1356.86 1592.77 1356.86 1595.45 Q1356.86 1597.48 1358.42 1598.66 Q1359.98 1599.81 1364.69 1600.86 L1366.7 1601.3 Q1372.93 1602.64 1375.54 1605.09 Q1378.19 1607.51 1378.19 1611.87 Q1378.19 1616.84 1374.24 1619.73 Q1370.32 1622.63 1363.45 1622.63 Q1360.58 1622.63 1357.47 1622.06 Q1354.38 1621.51 1350.94 1620.4 L1350.94 1614.35 Q1354.19 1616.04 1357.34 1616.9 Q1360.49 1617.73 1363.58 1617.73 Q1367.71 1617.73 1369.94 1616.33 Q1372.17 1614.89 1372.17 1612.32 Q1372.17 1609.93 1370.55 1608.66 Q1368.96 1607.38 1363.51 1606.2 L1361.48 1605.73 Q1356.03 1604.58 1353.61 1602.23 Q1351.19 1599.84 1351.19 1595.7 Q1351.19 1590.67 1354.76 1587.94 Q1358.32 1585.2 1364.88 1585.2 Q1368.13 1585.2 1370.99 1585.68 Q1373.86 1586.15 1376.28 1587.11 Z" fill="#000000" fill-rule="evenodd" fill-opacity="1" /><polyline clip-path="url(#clip692)" style="stroke:#000000; stroke-width:2; stroke-opacity:0.1; fill:none" points="
  102.74,1458.42 2352.76,1458.42 
  "/>
<polyline clip-path="url(#clip692)" style="stroke:#000000; stroke-width:2; stroke-opacity:0.1; fill:none" points="
  102.74,1105.62 2352.76,1105.62 
  "/>
<polyline clip-path="url(#clip692)" style="stroke:#000000; stroke-width:2; stroke-opacity:0.1; fill:none" points="
  102.74,752.83 2352.76,752.83 
  "/>
<polyline clip-path="url(#clip692)" style="stroke:#000000; stroke-width:2; stroke-opacity:0.1; fill:none" points="
  102.74,400.037 2352.76,400.037 
  "/>
<polyline clip-path="url(#clip692)" style="stroke:#000000; stroke-width:2; stroke-opacity:0.1; fill:none" points="
  102.74,47.2441 2352.76,47.2441 
  "/>
<polyline clip-path="url(#clip690)" style="stroke:#000000; stroke-width:4; stroke-opacity:1; fill:none" points="
  102.74,1458.42 102.74,47.2441 
  "/>
<polyline clip-path="url(#clip690)" style="stroke:#000000; stroke-width:4; stroke-opacity:1; fill:none" points="
  102.74,1458.42 129.74,1458.42 
  "/>
<polyline clip-path="url(#clip690)" style="stroke:#000000; stroke-width:4; stroke-opacity:1; fill:none" points="
  102.74,1105.62 129.74,1105.62 
  "/>
<polyline clip-path="url(#clip690)" style="stroke:#000000; stroke-width:4; stroke-opacity:1; fill:none" points="
  102.74,752.83 129.74,752.83 
  "/>
<polyline clip-path="url(#clip690)" style="stroke:#000000; stroke-width:4; stroke-opacity:1; fill:none" points="
  102.74,400.037 129.74,400.037 
  "/>
<polyline clip-path="url(#clip690)" style="stroke:#000000; stroke-width:4; stroke-opacity:1; fill:none" points="
  102.74,47.2441 129.74,47.2441 
  "/>
<path clip-path="url(#clip690)" d="M 0 0 M54.7958 1444.22 Q51.1847 1444.22 49.356 1447.78 Q47.5504 1451.32 47.5504 1458.45 Q47.5504 1465.56 49.356 1469.12 Q51.1847 1472.66 54.7958 1472.66 Q58.43 1472.66 60.2356 1469.12 Q62.0643 1465.56 62.0643 1458.45 Q62.0643 1451.32 60.2356 1447.78 Q58.43 1444.22 54.7958 1444.22 M54.7958 1440.51 Q60.6059 1440.51 63.6615 1445.12 Q66.7402 1449.7 66.7402 1458.45 Q66.7402 1467.18 63.6615 1471.78 Q60.6059 1476.37 54.7958 1476.37 Q48.9856 1476.37 45.9069 1471.78 Q42.8514 1467.18 42.8514 1458.45 Q42.8514 1449.7 45.9069 1445.12 Q48.9856 1440.51 54.7958 1440.51 Z" fill="#000000" fill-rule="evenodd" fill-opacity="1" /><path clip-path="url(#clip690)" d="M 0 0 M18.6617 1118.97 L34.9811 1118.97 L34.9811 1122.9 L13.0367 1122.9 L13.0367 1118.97 Q15.6988 1116.21 20.2821 1111.58 Q24.8885 1106.93 26.0691 1105.59 Q28.3144 1103.07 29.1941 1101.33 Q30.0968 1099.57 30.0968 1097.88 Q30.0968 1095.13 28.1524 1093.39 Q26.2311 1091.65 23.1293 1091.65 Q20.9302 1091.65 18.4765 1092.42 Q16.046 1093.18 13.2682 1094.73 L13.2682 1090.01 Q16.0923 1088.88 18.546 1088.3 Q20.9997 1087.72 23.0367 1087.72 Q28.407 1087.72 31.6015 1090.4 Q34.7959 1093.09 34.7959 1097.58 Q34.7959 1099.71 33.9857 1101.63 Q33.1987 1103.53 31.0922 1106.12 Q30.5135 1106.79 27.4117 1110.01 Q24.3098 1113.2 18.6617 1118.97 Z" fill="#000000" fill-rule="evenodd" fill-opacity="1" /><path clip-path="url(#clip690)" d="M 0 0 M54.7958 1091.42 Q51.1847 1091.42 49.356 1094.99 Q47.5504 1098.53 47.5504 1105.66 Q47.5504 1112.76 49.356 1116.33 Q51.1847 1119.87 54.7958 1119.87 Q58.43 1119.87 60.2356 1116.33 Q62.0643 1112.76 62.0643 1105.66 Q62.0643 1098.53 60.2356 1094.99 Q58.43 1091.42 54.7958 1091.42 M54.7958 1087.72 Q60.6059 1087.72 63.6615 1092.32 Q66.7402 1096.91 66.7402 1105.66 Q66.7402 1114.39 63.6615 1118.99 Q60.6059 1123.57 54.7958 1123.57 Q48.9856 1123.57 45.9069 1118.99 Q42.8514 1114.39 42.8514 1105.66 Q42.8514 1096.91 45.9069 1092.32 Q48.9856 1087.72 54.7958 1087.72 Z" fill="#000000" fill-rule="evenodd" fill-opacity="1" /><path clip-path="url(#clip690)" d="M 0 0 M27.4811 739.624 L15.6756 758.073 L27.4811 758.073 L27.4811 739.624 M26.2543 735.55 L32.1339 735.55 L32.1339 758.073 L37.0644 758.073 L37.0644 761.962 L32.1339 761.962 L32.1339 770.11 L27.4811 770.11 L27.4811 761.962 L11.8793 761.962 L11.8793 757.448 L26.2543 735.55 Z" fill="#000000" fill-rule="evenodd" fill-opacity="1" /><path clip-path="url(#clip690)" d="M 0 0 M54.7958 738.629 Q51.1847 738.629 49.356 742.194 Q47.5504 745.735 47.5504 752.865 Q47.5504 759.972 49.356 763.536 Q51.1847 767.078 54.7958 767.078 Q58.43 767.078 60.2356 763.536 Q62.0643 759.972 62.0643 752.865 Q62.0643 745.735 60.2356 742.194 Q58.43 738.629 54.7958 738.629 M54.7958 734.925 Q60.6059 734.925 63.6615 739.532 Q66.7402 744.115 66.7402 752.865 Q66.7402 761.592 63.6615 766.198 Q60.6059 770.782 54.7958 770.782 Q48.9856 770.782 45.9069 766.198 Q42.8514 761.592 42.8514 752.865 Q42.8514 744.115 45.9069 739.532 Q48.9856 734.925 54.7958 734.925 Z" fill="#000000" fill-rule="evenodd" fill-opacity="1" /><path clip-path="url(#clip690)" d="M 0 0 M25.2126 398.174 Q22.0645 398.174 20.2126 400.327 Q18.3839 402.479 18.3839 406.229 Q18.3839 409.956 20.2126 412.132 Q22.0645 414.285 25.2126 414.285 Q28.3607 414.285 30.1894 412.132 Q32.0413 409.956 32.0413 406.229 Q32.0413 402.479 30.1894 400.327 Q28.3607 398.174 25.2126 398.174 M34.495 383.521 L34.495 387.78 Q32.7357 386.947 30.9302 386.507 Q29.1478 386.067 27.3885 386.067 Q22.7589 386.067 20.3052 389.192 Q17.8747 392.317 17.5275 398.637 Q18.8932 396.623 20.9534 395.558 Q23.0135 394.47 25.4904 394.47 Q30.6987 394.47 33.7079 397.641 Q36.7403 400.79 36.7403 406.229 Q36.7403 411.553 33.5922 414.771 Q30.4441 417.989 25.2126 417.989 Q19.2173 417.989 16.046 413.405 Q12.8747 408.799 12.8747 400.072 Q12.8747 391.878 16.7636 387.016 Q20.6524 382.132 27.2033 382.132 Q28.9626 382.132 30.745 382.479 Q32.5505 382.827 34.495 383.521 Z" fill="#000000" fill-rule="evenodd" fill-opacity="1" /><path clip-path="url(#clip690)" d="M 0 0 M54.7958 385.836 Q51.1847 385.836 49.356 389.401 Q47.5504 392.942 47.5504 400.072 Q47.5504 407.178 49.356 410.743 Q51.1847 414.285 54.7958 414.285 Q58.43 414.285 60.2356 410.743 Q62.0643 407.178 62.0643 400.072 Q62.0643 392.942 60.2356 389.401 Q58.43 385.836 54.7958 385.836 M54.7958 382.132 Q60.6059 382.132 63.6615 386.739 Q66.7402 391.322 66.7402 400.072 Q66.7402 408.799 63.6615 413.405 Q60.6059 417.989 54.7958 417.989 Q48.9856 417.989 45.9069 413.405 Q42.8514 408.799 42.8514 400.072 Q42.8514 391.322 45.9069 386.739 Q48.9856 382.132 54.7958 382.132 Z" fill="#000000" fill-rule="evenodd" fill-opacity="1" /><path clip-path="url(#clip690)" d="M 0 0 M24.6339 48.1121 Q21.3006 48.1121 19.3793 49.8945 Q17.4812 51.6769 17.4812 54.8019 Q17.4812 57.9269 19.3793 59.7093 Q21.3006 61.4917 24.6339 61.4917 Q27.9672 61.4917 29.8885 59.7093 Q31.8098 57.9038 31.8098 54.8019 Q31.8098 51.6769 29.8885 49.8945 Q27.9904 48.1121 24.6339 48.1121 M19.958 46.1214 Q16.9488 45.3807 15.259 43.3205 Q13.5923 41.2603 13.5923 38.2974 Q13.5923 34.1539 16.5321 31.7465 Q19.495 29.3391 24.6339 29.3391 Q29.7959 29.3391 32.7357 31.7465 Q35.6755 34.1539 35.6755 38.2974 Q35.6755 41.2603 33.9857 43.3205 Q32.319 45.3807 29.333 46.1214 Q32.7126 46.9084 34.5876 49.2001 Q36.4857 51.4918 36.4857 54.8019 Q36.4857 59.825 33.407 62.5102 Q30.3515 65.1954 24.6339 65.1954 Q18.9163 65.1954 15.8377 62.5102 Q12.7821 59.825 12.7821 54.8019 Q12.7821 51.4918 14.6803 49.2001 Q16.5784 46.9084 19.958 46.1214 M18.245 38.7372 Q18.245 41.4224 19.9117 42.927 Q21.6015 44.4316 24.6339 44.4316 Q27.6431 44.4316 29.333 42.927 Q31.0459 41.4224 31.0459 38.7372 Q31.0459 36.052 29.333 34.5474 Q27.6431 33.0428 24.6339 33.0428 Q21.6015 33.0428 19.9117 34.5474 Q18.245 36.052 18.245 38.7372 Z" fill="#000000" fill-rule="evenodd" fill-opacity="1" /><path clip-path="url(#clip690)" d="M 0 0 M54.7958 33.0428 Q51.1847 33.0428 49.356 36.6076 Q47.5504 40.1492 47.5504 47.2788 Q47.5504 54.3853 49.356 57.9501 Q51.1847 61.4917 54.7958 61.4917 Q58.43 61.4917 60.2356 57.9501 Q62.0643 54.3853 62.0643 47.2788 Q62.0643 40.1492 60.2356 36.6076 Q58.43 33.0428 54.7958 33.0428 M54.7958 29.3391 Q60.6059 29.3391 63.6615 33.9456 Q66.7402 38.5289 66.7402 47.2788 Q66.7402 56.0056 63.6615 60.6121 Q60.6059 65.1954 54.7958 65.1954 Q48.9856 65.1954 45.9069 60.6121 Q42.8514 56.0056 42.8514 47.2788 Q42.8514 38.5289 45.9069 33.9456 Q48.9856 29.3391 54.7958 29.3391 Z" fill="#000000" fill-rule="evenodd" fill-opacity="1" /><path clip-path="url(#clip690)" d="M 0 0 M-85.8967 882.659 L-85.8967 842.46 L-80.4858 842.46 L-80.4858 859.329 L-38.3767 859.329 L-38.3767 865.79 L-80.4858 865.79 L-80.4858 882.659 L-85.8967 882.659 Z" fill="#000000" fill-rule="evenodd" fill-opacity="1" /><path clip-path="url(#clip690)" d="M 0 0 M-74.0246 838.513 L-74.0246 832.656 L-38.3767 832.656 L-38.3767 838.513 L-74.0246 838.513 M-87.9019 838.513 L-87.9019 832.656 L-80.4858 832.656 L-80.4858 838.513 L-87.9019 838.513 Z" fill="#000000" fill-rule="evenodd" fill-opacity="1" /><path clip-path="url(#clip690)" d="M 0 0 M-67.1815 792.648 Q-71.1282 790.452 -73.0061 787.396 Q-74.884 784.341 -74.884 780.203 Q-74.884 774.633 -70.9691 771.609 Q-67.086 768.585 -59.8927 768.585 L-38.3767 768.585 L-38.3767 774.474 L-59.7018 774.474 Q-64.8262 774.474 -67.3088 776.288 Q-69.7914 778.102 -69.7914 781.826 Q-69.7914 786.378 -66.7677 789.019 Q-63.744 791.661 -58.5241 791.661 L-38.3767 791.661 L-38.3767 797.549 L-59.7018 797.549 Q-64.858 797.549 -67.3088 799.364 Q-69.7914 801.178 -69.7914 804.966 Q-69.7914 809.453 -66.7359 812.095 Q-63.7122 814.737 -58.5241 814.737 L-38.3767 814.737 L-38.3767 820.625 L-74.0246 820.625 L-74.0246 814.737 L-68.4865 814.737 Q-71.7648 812.732 -73.3244 809.931 Q-74.884 807.13 -74.884 803.279 Q-74.884 799.396 -72.9106 796.69 Q-70.9372 793.953 -67.1815 792.648 Z" fill="#000000" fill-rule="evenodd" fill-opacity="1" /><path clip-path="url(#clip690)" d="M 0 0 M-57.6648 726.413 L-54.8002 726.413 L-54.8002 753.34 Q-48.7528 752.958 -45.5699 749.711 Q-42.4189 746.433 -42.4189 740.608 Q-42.4189 737.234 -43.2464 734.083 Q-44.074 730.901 -45.7291 727.781 L-40.1909 727.781 Q-38.8541 730.932 -38.1539 734.243 Q-37.4536 737.553 -37.4536 740.958 Q-37.4536 749.488 -42.4189 754.485 Q-47.3841 759.451 -55.8505 759.451 Q-64.6034 759.451 -69.7278 754.74 Q-74.884 749.998 -74.884 741.977 Q-74.884 734.784 -70.237 730.614 Q-65.6219 726.413 -57.6648 726.413 M-59.3835 732.269 Q-64.1896 732.333 -67.0542 734.975 Q-69.9187 737.585 -69.9187 741.913 Q-69.9187 746.815 -67.1497 749.775 Q-64.3806 752.703 -59.3517 753.149 L-59.3835 732.269 Z" fill="#000000" fill-rule="evenodd" fill-opacity="1" /><path clip-path="url(#clip690)" d="M 0 0 M-87.8382 682.012 Q-80.5176 686.277 -73.3562 688.346 Q-66.1948 690.415 -58.8424 690.415 Q-51.49 690.415 -44.2649 688.346 Q-37.0717 686.245 -29.783 682.012 L-29.783 687.104 Q-37.2627 691.879 -44.4877 694.266 Q-51.7128 696.621 -58.8424 696.621 Q-65.9402 696.621 -73.1334 694.266 Q-80.3267 691.911 -87.8382 687.104 L-87.8382 682.012 Z" fill="#000000" fill-rule="evenodd" fill-opacity="1" /><path clip-path="url(#clip690)" d="M 0 0 M-72.9743 647.924 L-67.4361 647.924 Q-68.7093 650.406 -69.3458 653.08 Q-69.9824 655.753 -69.9824 658.618 Q-69.9824 662.978 -68.6456 665.175 Q-67.3088 667.339 -64.6352 667.339 Q-62.5982 667.339 -61.4205 665.779 Q-60.2747 664.22 -59.2243 659.509 L-58.7787 657.504 Q-57.442 651.266 -54.9912 648.656 Q-52.5722 646.014 -48.2117 646.014 Q-43.2464 646.014 -40.35 649.961 Q-37.4536 653.875 -37.4536 660.75 Q-37.4536 663.615 -38.0265 666.734 Q-38.5676 669.822 -39.6816 673.259 L-45.7291 673.259 Q-44.0421 670.013 -43.1828 666.862 Q-42.3552 663.71 -42.3552 660.623 Q-42.3552 656.485 -43.7557 654.257 Q-45.188 652.029 -47.7661 652.029 Q-50.1532 652.029 -51.4264 653.653 Q-52.6995 655.244 -53.8772 660.687 L-54.3546 662.724 Q-55.5004 668.166 -57.8557 670.585 Q-60.2429 673.004 -64.3806 673.004 Q-69.4095 673.004 -72.1467 669.44 Q-74.884 665.875 -74.884 659.318 Q-74.884 656.072 -74.4066 653.207 Q-73.9291 650.342 -72.9743 647.924 Z" fill="#000000" fill-rule="evenodd" fill-opacity="1" /><path clip-path="url(#clip690)" d="M 0 0 M-87.8382 637.611 L-87.8382 632.519 Q-80.3267 627.744 -73.1334 625.389 Q-65.9402 623.002 -58.8424 623.002 Q-51.7128 623.002 -44.4877 625.389 Q-37.2627 627.744 -29.783 632.519 L-29.783 637.611 Q-37.0717 633.378 -44.2649 631.309 Q-51.49 629.208 -58.8424 629.208 Q-66.1948 629.208 -73.3562 631.309 Q-80.5176 633.378 -87.8382 637.611 Z" fill="#000000" fill-rule="evenodd" fill-opacity="1" /><polyline clip-path="url(#clip692)" style="stroke:#009af9; stroke-width:4; stroke-opacity:1; fill:none" points="
  166.42,1458.42 402.271,1458.42 638.121,1458.42 873.972,1458.42 1109.82,1458.4 1345.67,1458.28 1581.52,1457.1 1817.37,1445.2 2053.23,1326.23 2289.08,135.189 
  
  "/>
<circle clip-path="url(#clip692)" cx="166.42" cy="1458.42" r="14" fill="#009af9" fill-rule="evenodd" fill-opacity="1" stroke="#000000" stroke-opacity="1" stroke-width="3.2"/>
<circle clip-path="url(#clip692)" cx="402.271" cy="1458.42" r="14" fill="#009af9" fill-rule="evenodd" fill-opacity="1" stroke="#000000" stroke-opacity="1" stroke-width="3.2"/>
<circle clip-path="url(#clip692)" cx="638.121" cy="1458.42" r="14" fill="#009af9" fill-rule="evenodd" fill-opacity="1" stroke="#000000" stroke-opacity="1" stroke-width="3.2"/>
<circle clip-path="url(#clip692)" cx="873.972" cy="1458.42" r="14" fill="#009af9" fill-rule="evenodd" fill-opacity="1" stroke="#000000" stroke-opacity="1" stroke-width="3.2"/>
<circle clip-path="url(#clip692)" cx="1109.82" cy="1458.4" r="14" fill="#009af9" fill-rule="evenodd" fill-opacity="1" stroke="#000000" stroke-opacity="1" stroke-width="3.2"/>
<circle clip-path="url(#clip692)" cx="1345.67" cy="1458.28" r="14" fill="#009af9" fill-rule="evenodd" fill-opacity="1" stroke="#000000" stroke-opacity="1" stroke-width="3.2"/>
<circle clip-path="url(#clip692)" cx="1581.52" cy="1457.1" r="14" fill="#009af9" fill-rule="evenodd" fill-opacity="1" stroke="#000000" stroke-opacity="1" stroke-width="3.2"/>
<circle clip-path="url(#clip692)" cx="1817.37" cy="1445.2" r="14" fill="#009af9" fill-rule="evenodd" fill-opacity="1" stroke="#000000" stroke-opacity="1" stroke-width="3.2"/>
<circle clip-path="url(#clip692)" cx="2053.23" cy="1326.23" r="14" fill="#009af9" fill-rule="evenodd" fill-opacity="1" stroke="#000000" stroke-opacity="1" stroke-width="3.2"/>
<circle clip-path="url(#clip692)" cx="2289.08" cy="135.189" r="14" fill="#009af9" fill-rule="evenodd" fill-opacity="1" stroke="#000000" stroke-opacity="1" stroke-width="3.2"/>
<polyline clip-path="url(#clip692)" style="stroke:#e26f46; stroke-width:4; stroke-opacity:1; fill:none" points="
  166.42,1443.32 402.271,1458.41 638.121,1458.41 873.972,1458.41 1109.82,1458.4 1345.67,1458.28 1581.52,1457 1817.37,1444.72 2053.23,1313.23 2289.08,95.4933 
  
  "/>
<path clip-path="url(#clip692)" d="M150.42 1427.32 L150.42 1459.32 L182.42 1459.32 L182.42 1427.32 L150.42 1427.32 Z" fill="#e26f46" fill-rule="evenodd" fill-opacity="1" stroke="#000000" stroke-opacity="1" stroke-width="3.2"/>
<path clip-path="url(#clip692)" d="M386.271 1442.41 L386.271 1474.41 L418.271 1474.41 L418.271 1442.41 L386.271 1442.41 Z" fill="#e26f46" fill-rule="evenodd" fill-opacity="1" stroke="#000000" stroke-opacity="1" stroke-width="3.2"/>
<path clip-path="url(#clip692)" d="M622.121 1442.41 L622.121 1474.41 L654.121 1474.41 L654.121 1442.41 L622.121 1442.41 Z" fill="#e26f46" fill-rule="evenodd" fill-opacity="1" stroke="#000000" stroke-opacity="1" stroke-width="3.2"/>
<path clip-path="url(#clip692)" d="M857.972 1442.41 L857.972 1474.41 L889.972 1474.41 L889.972 1442.41 L857.972 1442.41 Z" fill="#e26f46" fill-rule="evenodd" fill-opacity="1" stroke="#000000" stroke-opacity="1" stroke-width="3.2"/>
<path clip-path="url(#clip692)" d="M1093.82 1442.4 L1093.82 1474.4 L1125.82 1474.4 L1125.82 1442.4 L1093.82 1442.4 Z" fill="#e26f46" fill-rule="evenodd" fill-opacity="1" stroke="#000000" stroke-opacity="1" stroke-width="3.2"/>
<path clip-path="url(#clip692)" d="M1329.67 1442.28 L1329.67 1474.28 L1361.67 1474.28 L1361.67 1442.28 L1329.67 1442.28 Z" fill="#e26f46" fill-rule="evenodd" fill-opacity="1" stroke="#000000" stroke-opacity="1" stroke-width="3.2"/>
<path clip-path="url(#clip692)" d="M1565.52 1441 L1565.52 1473 L1597.52 1473 L1597.52 1441 L1565.52 1441 Z" fill="#e26f46" fill-rule="evenodd" fill-opacity="1" stroke="#000000" stroke-opacity="1" stroke-width="3.2"/>
<path clip-path="url(#clip692)" d="M1801.37 1428.72 L1801.37 1460.72 L1833.37 1460.72 L1833.37 1428.72 L1801.37 1428.72 Z" fill="#e26f46" fill-rule="evenodd" fill-opacity="1" stroke="#000000" stroke-opacity="1" stroke-width="3.2"/>
<path clip-path="url(#clip692)" d="M2037.23 1297.23 L2037.23 1329.23 L2069.23 1329.23 L2069.23 1297.23 L2037.23 1297.23 Z" fill="#e26f46" fill-rule="evenodd" fill-opacity="1" stroke="#000000" stroke-opacity="1" stroke-width="3.2"/>
<path clip-path="url(#clip692)" d="M2273.08 79.4933 L2273.08 111.493 L2305.08 111.493 L2305.08 79.4933 L2273.08 79.4933 Z" fill="#e26f46" fill-rule="evenodd" fill-opacity="1" stroke="#000000" stroke-opacity="1" stroke-width="3.2"/>
<polyline clip-path="url(#clip692)" style="stroke:#3da44d; stroke-width:4; stroke-opacity:1; fill:none" points="
  166.42,1443.48 402.271,1458.36 638.121,1458.41 873.972,1458.41 1109.82,1458.41 1345.67,1458.37 1581.52,1457.96 1817.37,1453.88 2053.23,1409.88 2289.08,995.012 
  
  "/>
<path clip-path="url(#clip692)" d="M166.42 1427.48 L162.66 1438.29 L151.204 1438.53 L160.34 1445.46 L157.012 1456.42 L166.42 1449.88 L175.828 1456.42 L172.5 1445.46 L181.636 1438.53 L170.18 1438.29 L166.42 1427.48 Z" fill="#3da44d" fill-rule="evenodd" fill-opacity="1" stroke="#000000" stroke-opacity="1" stroke-width="3.2"/>
<path clip-path="url(#clip692)" d="M402.271 1442.36 L398.511 1453.18 L387.055 1453.42 L396.191 1460.34 L392.863 1471.3 L402.271 1464.76 L411.679 1471.3 L408.351 1460.34 L417.487 1453.42 L406.031 1453.18 L402.271 1442.36 Z" fill="#3da44d" fill-rule="evenodd" fill-opacity="1" stroke="#000000" stroke-opacity="1" stroke-width="3.2"/>
<path clip-path="url(#clip692)" d="M638.121 1442.41 L634.361 1453.23 L622.905 1453.47 L632.041 1460.4 L628.713 1471.36 L638.121 1464.81 L647.529 1471.36 L644.201 1460.4 L653.337 1453.47 L641.881 1453.23 L638.121 1442.41 Z" fill="#3da44d" fill-rule="evenodd" fill-opacity="1" stroke="#000000" stroke-opacity="1" stroke-width="3.2"/>
<path clip-path="url(#clip692)" d="M873.972 1442.41 L870.212 1453.23 L858.756 1453.47 L867.892 1460.4 L864.564 1471.36 L873.972 1464.81 L883.38 1471.36 L880.052 1460.4 L889.188 1453.47 L877.732 1453.23 L873.972 1442.41 Z" fill="#3da44d" fill-rule="evenodd" fill-opacity="1" stroke="#000000" stroke-opacity="1" stroke-width="3.2"/>
<path clip-path="url(#clip692)" d="M1109.82 1442.41 L1106.06 1453.23 L1094.61 1453.47 L1103.74 1460.39 L1100.41 1471.35 L1109.82 1464.81 L1119.23 1471.35 L1115.9 1460.39 L1125.04 1453.47 L1113.58 1453.23 L1109.82 1442.41 Z" fill="#3da44d" fill-rule="evenodd" fill-opacity="1" stroke="#000000" stroke-opacity="1" stroke-width="3.2"/>
<path clip-path="url(#clip692)" d="M1345.67 1442.37 L1341.91 1453.18 L1330.46 1453.42 L1339.59 1460.35 L1336.27 1471.31 L1345.67 1464.77 L1355.08 1471.31 L1351.75 1460.35 L1360.89 1453.42 L1349.43 1453.18 L1345.67 1442.37 Z" fill="#3da44d" fill-rule="evenodd" fill-opacity="1" stroke="#000000" stroke-opacity="1" stroke-width="3.2"/>
<path clip-path="url(#clip692)" d="M1581.52 1441.96 L1577.76 1452.77 L1566.31 1453.01 L1575.44 1459.94 L1572.12 1470.9 L1581.52 1464.36 L1590.93 1470.9 L1587.6 1459.94 L1596.74 1453.01 L1585.28 1452.77 L1581.52 1441.96 Z" fill="#3da44d" fill-rule="evenodd" fill-opacity="1" stroke="#000000" stroke-opacity="1" stroke-width="3.2"/>
<path clip-path="url(#clip692)" d="M1817.37 1437.88 L1813.61 1448.69 L1802.16 1448.93 L1811.29 1455.86 L1807.97 1466.82 L1817.37 1460.28 L1826.78 1466.82 L1823.45 1455.86 L1832.59 1448.93 L1821.13 1448.69 L1817.37 1437.88 Z" fill="#3da44d" fill-rule="evenodd" fill-opacity="1" stroke="#000000" stroke-opacity="1" stroke-width="3.2"/>
<path clip-path="url(#clip692)" d="M2053.23 1393.88 L2049.47 1404.69 L2038.01 1404.93 L2047.15 1411.86 L2043.82 1422.82 L2053.23 1416.28 L2062.63 1422.82 L2059.31 1411.86 L2068.44 1404.93 L2056.99 1404.69 L2053.23 1393.88 Z" fill="#3da44d" fill-rule="evenodd" fill-opacity="1" stroke="#000000" stroke-opacity="1" stroke-width="3.2"/>
<path clip-path="url(#clip692)" d="M2289.08 979.012 L2285.32 989.828 L2273.86 990.068 L2283 996.996 L2279.67 1007.96 L2289.08 1001.41 L2298.48 1007.96 L2295.16 996.996 L2304.29 990.068 L2292.84 989.828 L2289.08 979.012 Z" fill="#3da44d" fill-rule="evenodd" fill-opacity="1" stroke="#000000" stroke-opacity="1" stroke-width="3.2"/>
<polyline clip-path="url(#clip692)" style="stroke:#c271d2; stroke-width:4; stroke-opacity:1; fill:none" points="
  166.42,1443.35 402.271,1458.4 638.121,1458.41 873.972,1458.41 1109.82,1458.41 1345.67,1458.39 1581.52,1458.22 1817.37,1456.46 2053.23,1438.18 2289.08,1254.32 
  
  "/>
<path clip-path="url(#clip692)" d="M166.42 1427.35 L150.42 1443.35 L166.42 1459.35 L182.42 1443.35 L166.42 1427.35 Z" fill="#c271d2" fill-rule="evenodd" fill-opacity="1" stroke="#000000" stroke-opacity="1" stroke-width="3.2"/>
<path clip-path="url(#clip692)" d="M402.271 1442.4 L386.271 1458.4 L402.271 1474.4 L418.271 1458.4 L402.271 1442.4 Z" fill="#c271d2" fill-rule="evenodd" fill-opacity="1" stroke="#000000" stroke-opacity="1" stroke-width="3.2"/>
<path clip-path="url(#clip692)" d="M638.121 1442.41 L622.121 1458.41 L638.121 1474.41 L654.121 1458.41 L638.121 1442.41 Z" fill="#c271d2" fill-rule="evenodd" fill-opacity="1" stroke="#000000" stroke-opacity="1" stroke-width="3.2"/>
<path clip-path="url(#clip692)" d="M873.972 1442.41 L857.972 1458.41 L873.972 1474.41 L889.972 1458.41 L873.972 1442.41 Z" fill="#c271d2" fill-rule="evenodd" fill-opacity="1" stroke="#000000" stroke-opacity="1" stroke-width="3.2"/>
<path clip-path="url(#clip692)" d="M1109.82 1442.41 L1093.82 1458.41 L1109.82 1474.41 L1125.82 1458.41 L1109.82 1442.41 Z" fill="#c271d2" fill-rule="evenodd" fill-opacity="1" stroke="#000000" stroke-opacity="1" stroke-width="3.2"/>
<path clip-path="url(#clip692)" d="M1345.67 1442.39 L1329.67 1458.39 L1345.67 1474.39 L1361.67 1458.39 L1345.67 1442.39 Z" fill="#c271d2" fill-rule="evenodd" fill-opacity="1" stroke="#000000" stroke-opacity="1" stroke-width="3.2"/>
<path clip-path="url(#clip692)" d="M1581.52 1442.22 L1565.52 1458.22 L1581.52 1474.22 L1597.52 1458.22 L1581.52 1442.22 Z" fill="#c271d2" fill-rule="evenodd" fill-opacity="1" stroke="#000000" stroke-opacity="1" stroke-width="3.2"/>
<path clip-path="url(#clip692)" d="M1817.37 1440.46 L1801.37 1456.46 L1817.37 1472.46 L1833.37 1456.46 L1817.37 1440.46 Z" fill="#c271d2" fill-rule="evenodd" fill-opacity="1" stroke="#000000" stroke-opacity="1" stroke-width="3.2"/>
<path clip-path="url(#clip692)" d="M2053.23 1422.18 L2037.23 1438.18 L2053.23 1454.18 L2069.23 1438.18 L2053.23 1422.18 Z" fill="#c271d2" fill-rule="evenodd" fill-opacity="1" stroke="#000000" stroke-opacity="1" stroke-width="3.2"/>
<path clip-path="url(#clip692)" d="M2289.08 1238.32 L2273.08 1254.32 L2289.08 1270.32 L2305.08 1254.32 L2289.08 1238.32 Z" fill="#c271d2" fill-rule="evenodd" fill-opacity="1" stroke="#000000" stroke-opacity="1" stroke-width="3.2"/>
<polyline clip-path="url(#clip692)" style="stroke:#ac8d18; stroke-width:4; stroke-opacity:1; fill:none" points="
  166.42,1439.2 402.271,1458.4 638.121,1458.4 873.972,1458.4 1109.82,1458.4 1345.67,1458.39 1581.52,1458.31 1817.37,1457.42 2053.23,1448.5 2289.08,1359.64 
  
  "/>
<path clip-path="url(#clip692)" d="M166.42 1455.2 L152.564 1447.2 L152.564 1431.2 L166.42 1423.2 L180.276 1431.2 L180.276 1447.2 Z" fill="#ac8d18" fill-rule="evenodd" fill-opacity="1" stroke="#000000" stroke-opacity="1" stroke-width="3.2"/>
<path clip-path="url(#clip692)" d="M402.271 1474.4 L388.415 1466.4 L388.415 1450.4 L402.271 1442.4 L416.127 1450.4 L416.127 1466.4 Z" fill="#ac8d18" fill-rule="evenodd" fill-opacity="1" stroke="#000000" stroke-opacity="1" stroke-width="3.2"/>
<path clip-path="url(#clip692)" d="M638.121 1474.4 L624.265 1466.4 L624.265 1450.4 L638.121 1442.4 L651.977 1450.4 L651.977 1466.4 Z" fill="#ac8d18" fill-rule="evenodd" fill-opacity="1" stroke="#000000" stroke-opacity="1" stroke-width="3.2"/>
<path clip-path="url(#clip692)" d="M873.972 1474.4 L860.116 1466.4 L860.116 1450.4 L873.972 1442.4 L887.828 1450.4 L887.828 1466.4 Z" fill="#ac8d18" fill-rule="evenodd" fill-opacity="1" stroke="#000000" stroke-opacity="1" stroke-width="3.2"/>
<path clip-path="url(#clip692)" d="M1109.82 1474.4 L1095.97 1466.4 L1095.97 1450.4 L1109.82 1442.4 L1123.68 1450.4 L1123.68 1466.4 Z" fill="#ac8d18" fill-rule="evenodd" fill-opacity="1" stroke="#000000" stroke-opacity="1" stroke-width="3.2"/>
<path clip-path="url(#clip692)" d="M1345.67 1474.39 L1331.82 1466.39 L1331.82 1450.39 L1345.67 1442.39 L1359.53 1450.39 L1359.53 1466.39 Z" fill="#ac8d18" fill-rule="evenodd" fill-opacity="1" stroke="#000000" stroke-opacity="1" stroke-width="3.2"/>
<path clip-path="url(#clip692)" d="M1581.52 1474.31 L1567.67 1466.31 L1567.67 1450.31 L1581.52 1442.31 L1595.38 1450.31 L1595.38 1466.31 Z" fill="#ac8d18" fill-rule="evenodd" fill-opacity="1" stroke="#000000" stroke-opacity="1" stroke-width="3.2"/>
<path clip-path="url(#clip692)" d="M1817.37 1473.42 L1803.52 1465.42 L1803.52 1449.42 L1817.37 1441.42 L1831.23 1449.42 L1831.23 1465.42 Z" fill="#ac8d18" fill-rule="evenodd" fill-opacity="1" stroke="#000000" stroke-opacity="1" stroke-width="3.2"/>
<path clip-path="url(#clip692)" d="M2053.23 1464.5 L2039.37 1456.5 L2039.37 1440.5 L2053.23 1432.5 L2067.08 1440.5 L2067.08 1456.5 Z" fill="#ac8d18" fill-rule="evenodd" fill-opacity="1" stroke="#000000" stroke-opacity="1" stroke-width="3.2"/>
<path clip-path="url(#clip692)" d="M2289.08 1375.64 L2275.22 1367.64 L2275.22 1351.64 L2289.08 1343.64 L2302.93 1351.64 L2302.93 1367.64 Z" fill="#ac8d18" fill-rule="evenodd" fill-opacity="1" stroke="#000000" stroke-opacity="1" stroke-width="3.2"/>
<polyline clip-path="url(#clip692)" style="stroke:#00a9ad; stroke-width:4; stroke-opacity:1; fill:none" points="
  166.42,1442.6 402.271,1458.37 638.121,1458.39 873.972,1458.39 1109.82,1458.39 1345.67,1458.39 1581.52,1458.35 1817.37,1457.96 2053.23,1453.98 2289.08,1413.99 
  
  "/>
<line clip-path="url(#clip692)" x1="166.42" y1="1442.6" x2="166.42" y2="1426.6" style="stroke:#00a9ad; stroke-width:3.2; stroke-opacity:1"/>
<line clip-path="url(#clip692)" x1="166.42" y1="1442.6" x2="150.42" y2="1442.6" style="stroke:#00a9ad; stroke-width:3.2; stroke-opacity:1"/>
<line clip-path="url(#clip692)" x1="166.42" y1="1442.6" x2="166.42" y2="1458.6" style="stroke:#00a9ad; stroke-width:3.2; stroke-opacity:1"/>
<line clip-path="url(#clip692)" x1="166.42" y1="1442.6" x2="182.42" y2="1442.6" style="stroke:#00a9ad; stroke-width:3.2; stroke-opacity:1"/>
<line clip-path="url(#clip692)" x1="402.271" y1="1458.37" x2="402.271" y2="1442.37" style="stroke:#00a9ad; stroke-width:3.2; stroke-opacity:1"/>
<line clip-path="url(#clip692)" x1="402.271" y1="1458.37" x2="386.271" y2="1458.37" style="stroke:#00a9ad; stroke-width:3.2; stroke-opacity:1"/>
<line clip-path="url(#clip692)" x1="402.271" y1="1458.37" x2="402.271" y2="1474.37" style="stroke:#00a9ad; stroke-width:3.2; stroke-opacity:1"/>
<line clip-path="url(#clip692)" x1="402.271" y1="1458.37" x2="418.271" y2="1458.37" style="stroke:#00a9ad; stroke-width:3.2; stroke-opacity:1"/>
<line clip-path="url(#clip692)" x1="638.121" y1="1458.39" x2="638.121" y2="1442.39" style="stroke:#00a9ad; stroke-width:3.2; stroke-opacity:1"/>
<line clip-path="url(#clip692)" x1="638.121" y1="1458.39" x2="622.121" y2="1458.39" style="stroke:#00a9ad; stroke-width:3.2; stroke-opacity:1"/>
<line clip-path="url(#clip692)" x1="638.121" y1="1458.39" x2="638.121" y2="1474.39" style="stroke:#00a9ad; stroke-width:3.2; stroke-opacity:1"/>
<line clip-path="url(#clip692)" x1="638.121" y1="1458.39" x2="654.121" y2="1458.39" style="stroke:#00a9ad; stroke-width:3.2; stroke-opacity:1"/>
<line clip-path="url(#clip692)" x1="873.972" y1="1458.39" x2="873.972" y2="1442.39" style="stroke:#00a9ad; stroke-width:3.2; stroke-opacity:1"/>
<line clip-path="url(#clip692)" x1="873.972" y1="1458.39" x2="857.972" y2="1458.39" style="stroke:#00a9ad; stroke-width:3.2; stroke-opacity:1"/>
<line clip-path="url(#clip692)" x1="873.972" y1="1458.39" x2="873.972" y2="1474.39" style="stroke:#00a9ad; stroke-width:3.2; stroke-opacity:1"/>
<line clip-path="url(#clip692)" x1="873.972" y1="1458.39" x2="889.972" y2="1458.39" style="stroke:#00a9ad; stroke-width:3.2; stroke-opacity:1"/>
<line clip-path="url(#clip692)" x1="1109.82" y1="1458.39" x2="1109.82" y2="1442.39" style="stroke:#00a9ad; stroke-width:3.2; stroke-opacity:1"/>
<line clip-path="url(#clip692)" x1="1109.82" y1="1458.39" x2="1093.82" y2="1458.39" style="stroke:#00a9ad; stroke-width:3.2; stroke-opacity:1"/>
<line clip-path="url(#clip692)" x1="1109.82" y1="1458.39" x2="1109.82" y2="1474.39" style="stroke:#00a9ad; stroke-width:3.2; stroke-opacity:1"/>
<line clip-path="url(#clip692)" x1="1109.82" y1="1458.39" x2="1125.82" y2="1458.39" style="stroke:#00a9ad; stroke-width:3.2; stroke-opacity:1"/>
<line clip-path="url(#clip692)" x1="1345.67" y1="1458.39" x2="1345.67" y2="1442.39" style="stroke:#00a9ad; stroke-width:3.2; stroke-opacity:1"/>
<line clip-path="url(#clip692)" x1="1345.67" y1="1458.39" x2="1329.67" y2="1458.39" style="stroke:#00a9ad; stroke-width:3.2; stroke-opacity:1"/>
<line clip-path="url(#clip692)" x1="1345.67" y1="1458.39" x2="1345.67" y2="1474.39" style="stroke:#00a9ad; stroke-width:3.2; stroke-opacity:1"/>
<line clip-path="url(#clip692)" x1="1345.67" y1="1458.39" x2="1361.67" y2="1458.39" style="stroke:#00a9ad; stroke-width:3.2; stroke-opacity:1"/>
<line clip-path="url(#clip692)" x1="1581.52" y1="1458.35" x2="1581.52" y2="1442.35" style="stroke:#00a9ad; stroke-width:3.2; stroke-opacity:1"/>
<line clip-path="url(#clip692)" x1="1581.52" y1="1458.35" x2="1565.52" y2="1458.35" style="stroke:#00a9ad; stroke-width:3.2; stroke-opacity:1"/>
<line clip-path="url(#clip692)" x1="1581.52" y1="1458.35" x2="1581.52" y2="1474.35" style="stroke:#00a9ad; stroke-width:3.2; stroke-opacity:1"/>
<line clip-path="url(#clip692)" x1="1581.52" y1="1458.35" x2="1597.52" y2="1458.35" style="stroke:#00a9ad; stroke-width:3.2; stroke-opacity:1"/>
<line clip-path="url(#clip692)" x1="1817.37" y1="1457.96" x2="1817.37" y2="1441.96" style="stroke:#00a9ad; stroke-width:3.2; stroke-opacity:1"/>
<line clip-path="url(#clip692)" x1="1817.37" y1="1457.96" x2="1801.37" y2="1457.96" style="stroke:#00a9ad; stroke-width:3.2; stroke-opacity:1"/>
<line clip-path="url(#clip692)" x1="1817.37" y1="1457.96" x2="1817.37" y2="1473.96" style="stroke:#00a9ad; stroke-width:3.2; stroke-opacity:1"/>
<line clip-path="url(#clip692)" x1="1817.37" y1="1457.96" x2="1833.37" y2="1457.96" style="stroke:#00a9ad; stroke-width:3.2; stroke-opacity:1"/>
<line clip-path="url(#clip692)" x1="2053.23" y1="1453.98" x2="2053.23" y2="1437.98" style="stroke:#00a9ad; stroke-width:3.2; stroke-opacity:1"/>
<line clip-path="url(#clip692)" x1="2053.23" y1="1453.98" x2="2037.23" y2="1453.98" style="stroke:#00a9ad; stroke-width:3.2; stroke-opacity:1"/>
<line clip-path="url(#clip692)" x1="2053.23" y1="1453.98" x2="2053.23" y2="1469.98" style="stroke:#00a9ad; stroke-width:3.2; stroke-opacity:1"/>
<line clip-path="url(#clip692)" x1="2053.23" y1="1453.98" x2="2069.23" y2="1453.98" style="stroke:#00a9ad; stroke-width:3.2; stroke-opacity:1"/>
<line clip-path="url(#clip692)" x1="2289.08" y1="1413.99" x2="2289.08" y2="1397.99" style="stroke:#00a9ad; stroke-width:3.2; stroke-opacity:1"/>
<line clip-path="url(#clip692)" x1="2289.08" y1="1413.99" x2="2273.08" y2="1413.99" style="stroke:#00a9ad; stroke-width:3.2; stroke-opacity:1"/>
<line clip-path="url(#clip692)" x1="2289.08" y1="1413.99" x2="2289.08" y2="1429.99" style="stroke:#00a9ad; stroke-width:3.2; stroke-opacity:1"/>
<line clip-path="url(#clip692)" x1="2289.08" y1="1413.99" x2="2305.08" y2="1413.99" style="stroke:#00a9ad; stroke-width:3.2; stroke-opacity:1"/>
<polyline clip-path="url(#clip692)" style="stroke:#ed5d92; stroke-width:4; stroke-opacity:1; fill:none" points="
  166.42,1440.98 402.271,1458.35 638.121,1458.37 873.972,1458.37 1109.82,1458.37 1345.67,1458.37 1581.52,1458.36 1817.37,1458.1 2053.23,1455.43 2289.08,1427.64 
  
  "/>
<line clip-path="url(#clip692)" x1="166.42" y1="1440.98" x2="150.42" y2="1424.98" style="stroke:#ed5d92; stroke-width:3.2; stroke-opacity:1"/>
<line clip-path="url(#clip692)" x1="166.42" y1="1440.98" x2="150.42" y2="1456.98" style="stroke:#ed5d92; stroke-width:3.2; stroke-opacity:1"/>
<line clip-path="url(#clip692)" x1="166.42" y1="1440.98" x2="182.42" y2="1456.98" style="stroke:#ed5d92; stroke-width:3.2; stroke-opacity:1"/>
<line clip-path="url(#clip692)" x1="166.42" y1="1440.98" x2="182.42" y2="1424.98" style="stroke:#ed5d92; stroke-width:3.2; stroke-opacity:1"/>
<line clip-path="url(#clip692)" x1="402.271" y1="1458.35" x2="386.271" y2="1442.35" style="stroke:#ed5d92; stroke-width:3.2; stroke-opacity:1"/>
<line clip-path="url(#clip692)" x1="402.271" y1="1458.35" x2="386.271" y2="1474.35" style="stroke:#ed5d92; stroke-width:3.2; stroke-opacity:1"/>
<line clip-path="url(#clip692)" x1="402.271" y1="1458.35" x2="418.271" y2="1474.35" style="stroke:#ed5d92; stroke-width:3.2; stroke-opacity:1"/>
<line clip-path="url(#clip692)" x1="402.271" y1="1458.35" x2="418.271" y2="1442.35" style="stroke:#ed5d92; stroke-width:3.2; stroke-opacity:1"/>
<line clip-path="url(#clip692)" x1="638.121" y1="1458.37" x2="622.121" y2="1442.37" style="stroke:#ed5d92; stroke-width:3.2; stroke-opacity:1"/>
<line clip-path="url(#clip692)" x1="638.121" y1="1458.37" x2="622.121" y2="1474.37" style="stroke:#ed5d92; stroke-width:3.2; stroke-opacity:1"/>
<line clip-path="url(#clip692)" x1="638.121" y1="1458.37" x2="654.121" y2="1474.37" style="stroke:#ed5d92; stroke-width:3.2; stroke-opacity:1"/>
<line clip-path="url(#clip692)" x1="638.121" y1="1458.37" x2="654.121" y2="1442.37" style="stroke:#ed5d92; stroke-width:3.2; stroke-opacity:1"/>
<line clip-path="url(#clip692)" x1="873.972" y1="1458.37" x2="857.972" y2="1442.37" style="stroke:#ed5d92; stroke-width:3.2; stroke-opacity:1"/>
<line clip-path="url(#clip692)" x1="873.972" y1="1458.37" x2="857.972" y2="1474.37" style="stroke:#ed5d92; stroke-width:3.2; stroke-opacity:1"/>
<line clip-path="url(#clip692)" x1="873.972" y1="1458.37" x2="889.972" y2="1474.37" style="stroke:#ed5d92; stroke-width:3.2; stroke-opacity:1"/>
<line clip-path="url(#clip692)" x1="873.972" y1="1458.37" x2="889.972" y2="1442.37" style="stroke:#ed5d92; stroke-width:3.2; stroke-opacity:1"/>
<line clip-path="url(#clip692)" x1="1109.82" y1="1458.37" x2="1093.82" y2="1442.37" style="stroke:#ed5d92; stroke-width:3.2; stroke-opacity:1"/>
<line clip-path="url(#clip692)" x1="1109.82" y1="1458.37" x2="1093.82" y2="1474.37" style="stroke:#ed5d92; stroke-width:3.2; stroke-opacity:1"/>
<line clip-path="url(#clip692)" x1="1109.82" y1="1458.37" x2="1125.82" y2="1474.37" style="stroke:#ed5d92; stroke-width:3.2; stroke-opacity:1"/>
<line clip-path="url(#clip692)" x1="1109.82" y1="1458.37" x2="1125.82" y2="1442.37" style="stroke:#ed5d92; stroke-width:3.2; stroke-opacity:1"/>
<line clip-path="url(#clip692)" x1="1345.67" y1="1458.37" x2="1329.67" y2="1442.37" style="stroke:#ed5d92; stroke-width:3.2; stroke-opacity:1"/>
<line clip-path="url(#clip692)" x1="1345.67" y1="1458.37" x2="1329.67" y2="1474.37" style="stroke:#ed5d92; stroke-width:3.2; stroke-opacity:1"/>
<line clip-path="url(#clip692)" x1="1345.67" y1="1458.37" x2="1361.67" y2="1474.37" style="stroke:#ed5d92; stroke-width:3.2; stroke-opacity:1"/>
<line clip-path="url(#clip692)" x1="1345.67" y1="1458.37" x2="1361.67" y2="1442.37" style="stroke:#ed5d92; stroke-width:3.2; stroke-opacity:1"/>
<line clip-path="url(#clip692)" x1="1581.52" y1="1458.36" x2="1565.52" y2="1442.36" style="stroke:#ed5d92; stroke-width:3.2; stroke-opacity:1"/>
<line clip-path="url(#clip692)" x1="1581.52" y1="1458.36" x2="1565.52" y2="1474.36" style="stroke:#ed5d92; stroke-width:3.2; stroke-opacity:1"/>
<line clip-path="url(#clip692)" x1="1581.52" y1="1458.36" x2="1597.52" y2="1474.36" style="stroke:#ed5d92; stroke-width:3.2; stroke-opacity:1"/>
<line clip-path="url(#clip692)" x1="1581.52" y1="1458.36" x2="1597.52" y2="1442.36" style="stroke:#ed5d92; stroke-width:3.2; stroke-opacity:1"/>
<line clip-path="url(#clip692)" x1="1817.37" y1="1458.1" x2="1801.37" y2="1442.1" style="stroke:#ed5d92; stroke-width:3.2; stroke-opacity:1"/>
<line clip-path="url(#clip692)" x1="1817.37" y1="1458.1" x2="1801.37" y2="1474.1" style="stroke:#ed5d92; stroke-width:3.2; stroke-opacity:1"/>
<line clip-path="url(#clip692)" x1="1817.37" y1="1458.1" x2="1833.37" y2="1474.1" style="stroke:#ed5d92; stroke-width:3.2; stroke-opacity:1"/>
<line clip-path="url(#clip692)" x1="1817.37" y1="1458.1" x2="1833.37" y2="1442.1" style="stroke:#ed5d92; stroke-width:3.2; stroke-opacity:1"/>
<line clip-path="url(#clip692)" x1="2053.23" y1="1455.43" x2="2037.23" y2="1439.43" style="stroke:#ed5d92; stroke-width:3.2; stroke-opacity:1"/>
<line clip-path="url(#clip692)" x1="2053.23" y1="1455.43" x2="2037.23" y2="1471.43" style="stroke:#ed5d92; stroke-width:3.2; stroke-opacity:1"/>
<line clip-path="url(#clip692)" x1="2053.23" y1="1455.43" x2="2069.23" y2="1471.43" style="stroke:#ed5d92; stroke-width:3.2; stroke-opacity:1"/>
<line clip-path="url(#clip692)" x1="2053.23" y1="1455.43" x2="2069.23" y2="1439.43" style="stroke:#ed5d92; stroke-width:3.2; stroke-opacity:1"/>
<line clip-path="url(#clip692)" x1="2289.08" y1="1427.64" x2="2273.08" y2="1411.64" style="stroke:#ed5d92; stroke-width:3.2; stroke-opacity:1"/>
<line clip-path="url(#clip692)" x1="2289.08" y1="1427.64" x2="2273.08" y2="1443.64" style="stroke:#ed5d92; stroke-width:3.2; stroke-opacity:1"/>
<line clip-path="url(#clip692)" x1="2289.08" y1="1427.64" x2="2305.08" y2="1443.64" style="stroke:#ed5d92; stroke-width:3.2; stroke-opacity:1"/>
<line clip-path="url(#clip692)" x1="2289.08" y1="1427.64" x2="2305.08" y2="1411.64" style="stroke:#ed5d92; stroke-width:3.2; stroke-opacity:1"/>
<polyline clip-path="url(#clip692)" style="stroke:#c68125; stroke-width:4; stroke-opacity:1; fill:none" points="
  166.42,1441.65 402.271,1458.34 638.121,1458.36 873.972,1458.36 1109.82,1458.36 1345.67,1458.36 1581.52,1458.35 1817.37,1458.15 2053.23,1456.11 2289.08,1435.37 
  
  "/>
<path clip-path="url(#clip692)" d="M166.42 1425.65 L150.42 1457.65 L182.42 1457.65 L166.42 1425.65 Z" fill="#c68125" fill-rule="evenodd" fill-opacity="1" stroke="#000000" stroke-opacity="1" stroke-width="3.2"/>
<path clip-path="url(#clip692)" d="M402.271 1442.34 L386.271 1474.34 L418.271 1474.34 L402.271 1442.34 Z" fill="#c68125" fill-rule="evenodd" fill-opacity="1" stroke="#000000" stroke-opacity="1" stroke-width="3.2"/>
<path clip-path="url(#clip692)" d="M638.121 1442.36 L622.121 1474.36 L654.121 1474.36 L638.121 1442.36 Z" fill="#c68125" fill-rule="evenodd" fill-opacity="1" stroke="#000000" stroke-opacity="1" stroke-width="3.2"/>
<path clip-path="url(#clip692)" d="M873.972 1442.36 L857.972 1474.36 L889.972 1474.36 L873.972 1442.36 Z" fill="#c68125" fill-rule="evenodd" fill-opacity="1" stroke="#000000" stroke-opacity="1" stroke-width="3.2"/>
<path clip-path="url(#clip692)" d="M1109.82 1442.36 L1093.82 1474.36 L1125.82 1474.36 L1109.82 1442.36 Z" fill="#c68125" fill-rule="evenodd" fill-opacity="1" stroke="#000000" stroke-opacity="1" stroke-width="3.2"/>
<path clip-path="url(#clip692)" d="M1345.67 1442.36 L1329.67 1474.36 L1361.67 1474.36 L1345.67 1442.36 Z" fill="#c68125" fill-rule="evenodd" fill-opacity="1" stroke="#000000" stroke-opacity="1" stroke-width="3.2"/>
<path clip-path="url(#clip692)" d="M1581.52 1442.35 L1565.52 1474.35 L1597.52 1474.35 L1581.52 1442.35 Z" fill="#c68125" fill-rule="evenodd" fill-opacity="1" stroke="#000000" stroke-opacity="1" stroke-width="3.2"/>
<path clip-path="url(#clip692)" d="M1817.37 1442.15 L1801.37 1474.15 L1833.37 1474.15 L1817.37 1442.15 Z" fill="#c68125" fill-rule="evenodd" fill-opacity="1" stroke="#000000" stroke-opacity="1" stroke-width="3.2"/>
<path clip-path="url(#clip692)" d="M2053.23 1440.11 L2037.23 1472.11 L2069.23 1472.11 L2053.23 1440.11 Z" fill="#c68125" fill-rule="evenodd" fill-opacity="1" stroke="#000000" stroke-opacity="1" stroke-width="3.2"/>
<path clip-path="url(#clip692)" d="M2289.08 1419.37 L2273.08 1451.37 L2305.08 1451.37 L2289.08 1419.37 Z" fill="#c68125" fill-rule="evenodd" fill-opacity="1" stroke="#000000" stroke-opacity="1" stroke-width="3.2"/>
<polyline clip-path="url(#clip692)" style="stroke:#00a98d; stroke-width:4; stroke-opacity:1; fill:none" points="
  166.42,1441.48 402.271,1458.32 638.121,1458.34 873.972,1458.34 1109.82,1458.34 1345.67,1458.34 1581.52,1458.34 1817.37,1458.11 2053.23,1455.68 2289.08,1437.71 
  
  "/>
<path clip-path="url(#clip692)" d="M182.42 1425.48 L150.42 1425.48 L166.42 1457.48 L182.42 1425.48 Z" fill="#00a98d" fill-rule="evenodd" fill-opacity="1" stroke="#000000" stroke-opacity="1" stroke-width="3.2"/>
<path clip-path="url(#clip692)" d="M418.271 1442.32 L386.271 1442.32 L402.271 1474.32 L418.271 1442.32 Z" fill="#00a98d" fill-rule="evenodd" fill-opacity="1" stroke="#000000" stroke-opacity="1" stroke-width="3.2"/>
<path clip-path="url(#clip692)" d="M654.121 1442.34 L622.121 1442.34 L638.121 1474.34 L654.121 1442.34 Z" fill="#00a98d" fill-rule="evenodd" fill-opacity="1" stroke="#000000" stroke-opacity="1" stroke-width="3.2"/>
<path clip-path="url(#clip692)" d="M889.972 1442.34 L857.972 1442.34 L873.972 1474.34 L889.972 1442.34 Z" fill="#00a98d" fill-rule="evenodd" fill-opacity="1" stroke="#000000" stroke-opacity="1" stroke-width="3.2"/>
<path clip-path="url(#clip692)" d="M1125.82 1442.34 L1093.82 1442.34 L1109.82 1474.34 L1125.82 1442.34 Z" fill="#00a98d" fill-rule="evenodd" fill-opacity="1" stroke="#000000" stroke-opacity="1" stroke-width="3.2"/>
<path clip-path="url(#clip692)" d="M1361.67 1442.34 L1329.67 1442.34 L1345.67 1474.34 L1361.67 1442.34 Z" fill="#00a98d" fill-rule="evenodd" fill-opacity="1" stroke="#000000" stroke-opacity="1" stroke-width="3.2"/>
<path clip-path="url(#clip692)" d="M1597.52 1442.34 L1565.52 1442.34 L1581.52 1474.34 L1597.52 1442.34 Z" fill="#00a98d" fill-rule="evenodd" fill-opacity="1" stroke="#000000" stroke-opacity="1" stroke-width="3.2"/>
<path clip-path="url(#clip692)" d="M1833.37 1442.11 L1801.37 1442.11 L1817.37 1474.11 L1833.37 1442.11 Z" fill="#00a98d" fill-rule="evenodd" fill-opacity="1" stroke="#000000" stroke-opacity="1" stroke-width="3.2"/>
<path clip-path="url(#clip692)" d="M2069.23 1439.68 L2037.23 1439.68 L2053.23 1471.68 L2069.23 1439.68 Z" fill="#00a98d" fill-rule="evenodd" fill-opacity="1" stroke="#000000" stroke-opacity="1" stroke-width="3.2"/>
<path clip-path="url(#clip692)" d="M2305.08 1421.71 L2273.08 1421.71 L2289.08 1453.71 L2305.08 1421.71 Z" fill="#00a98d" fill-rule="evenodd" fill-opacity="1" stroke="#000000" stroke-opacity="1" stroke-width="3.2"/>
<polyline clip-path="url(#clip692)" style="stroke:#8e971d; stroke-width:4; stroke-opacity:1; fill:none" points="
  166.42,1441.7 402.271,1458.3 638.121,1458.33 873.972,1458.33 1109.82,1457.28 1345.67,1458.33 1581.52,1458.33 1817.37,1458.19 2053.23,1456.59 2289.08,1441.58 
  
  "/>
<path clip-path="url(#clip692)" d="M179.22 1441.7 L160.02 1430.5 L160.02 1452.9 L179.22 1441.7 Z" fill="#8e971d" fill-rule="evenodd" fill-opacity="1" stroke="#000000" stroke-opacity="1" stroke-width="3.2"/>
<path clip-path="url(#clip692)" d="M415.071 1458.3 L395.871 1447.1 L395.871 1469.5 L415.071 1458.3 Z" fill="#8e971d" fill-rule="evenodd" fill-opacity="1" stroke="#000000" stroke-opacity="1" stroke-width="3.2"/>
<path clip-path="url(#clip692)" d="M650.921 1458.33 L631.721 1447.13 L631.721 1469.53 L650.921 1458.33 Z" fill="#8e971d" fill-rule="evenodd" fill-opacity="1" stroke="#000000" stroke-opacity="1" stroke-width="3.2"/>
<path clip-path="url(#clip692)" d="M886.772 1458.33 L867.572 1447.13 L867.572 1469.53 L886.772 1458.33 Z" fill="#8e971d" fill-rule="evenodd" fill-opacity="1" stroke="#000000" stroke-opacity="1" stroke-width="3.2"/>
<path clip-path="url(#clip692)" d="M1122.62 1457.28 L1103.42 1446.08 L1103.42 1468.48 L1122.62 1457.28 Z" fill="#8e971d" fill-rule="evenodd" fill-opacity="1" stroke="#000000" stroke-opacity="1" stroke-width="3.2"/>
<path clip-path="url(#clip692)" d="M1358.47 1458.33 L1339.27 1447.13 L1339.27 1469.53 L1358.47 1458.33 Z" fill="#8e971d" fill-rule="evenodd" fill-opacity="1" stroke="#000000" stroke-opacity="1" stroke-width="3.2"/>
<path clip-path="url(#clip692)" d="M1594.32 1458.33 L1575.12 1447.13 L1575.12 1469.53 L1594.32 1458.33 Z" fill="#8e971d" fill-rule="evenodd" fill-opacity="1" stroke="#000000" stroke-opacity="1" stroke-width="3.2"/>
<path clip-path="url(#clip692)" d="M1830.17 1458.19 L1810.97 1446.99 L1810.97 1469.39 L1830.17 1458.19 Z" fill="#8e971d" fill-rule="evenodd" fill-opacity="1" stroke="#000000" stroke-opacity="1" stroke-width="3.2"/>
<path clip-path="url(#clip692)" d="M2066.03 1456.59 L2046.83 1445.39 L2046.83 1467.79 L2066.03 1456.59 Z" fill="#8e971d" fill-rule="evenodd" fill-opacity="1" stroke="#000000" stroke-opacity="1" stroke-width="3.2"/>
<path clip-path="url(#clip692)" d="M2301.88 1441.58 L2282.68 1430.38 L2282.68 1452.78 L2301.88 1441.58 Z" fill="#8e971d" fill-rule="evenodd" fill-opacity="1" stroke="#000000" stroke-opacity="1" stroke-width="3.2"/>
<path clip-path="url(#clip690)" d="
M177.741 820.043 L816.21 820.043 L816.21 94.2832 L177.741 94.2832  Z
  " fill="#ffffff" fill-rule="evenodd" fill-opacity="1"/>
<polyline clip-path="url(#clip690)" style="stroke:#000000; stroke-width:4; stroke-opacity:1; fill:none" points="
  177.741,820.043 816.21,820.043 816.21,94.2832 177.741,94.2832 177.741,820.043 
  "/>
<path clip-path="url(#clip690)" d="M 0 0 M334.038 149.846 L324.776 149.846 L322.102 160.476 L331.428 160.476 L334.038 149.846 M329.263 131.735 L325.953 144.944 L335.247 144.944 L338.589 131.735 L343.682 131.735 L340.403 144.944 L350.334 144.944 L350.334 149.846 L339.162 149.846 L336.552 160.476 L346.674 160.476 L346.674 165.346 L335.311 165.346 L332.001 178.523 L326.908 178.523 L330.186 165.346 L320.861 165.346 L317.582 178.523 L312.458 178.523 L315.768 165.346 L305.742 165.346 L305.742 160.476 L316.946 160.476 L319.619 149.846 L309.371 149.846 L309.371 144.944 L320.861 144.944 L324.107 131.735 L329.263 131.735 Z" fill="#000000" fill-rule="evenodd" fill-opacity="1" /><path clip-path="url(#clip690)" d="M 0 0 M388.878 136.287 L388.878 154.143 L396.963 154.143 Q401.45 154.143 403.901 151.819 Q406.352 149.496 406.352 145.199 Q406.352 140.934 403.901 138.61 Q401.45 136.287 396.963 136.287 L388.878 136.287 M382.449 131.003 L396.963 131.003 Q404.952 131.003 409.026 134.632 Q413.132 138.228 413.132 145.199 Q413.132 152.233 409.026 155.829 Q404.952 159.426 396.963 159.426 L388.878 159.426 L388.878 178.523 L382.449 178.523 L382.449 131.003 Z" fill="#000000" fill-rule="evenodd" fill-opacity="1" /><path clip-path="url(#clip690)" d="M 0 0 M441.013 148.35 Q440.027 147.777 438.849 147.522 Q437.703 147.236 436.303 147.236 Q431.337 147.236 428.664 150.482 Q426.022 153.697 426.022 159.744 L426.022 178.523 L420.134 178.523 L420.134 142.875 L426.022 142.875 L426.022 148.413 Q427.868 145.167 430.828 143.607 Q433.788 142.016 438.021 142.016 Q438.626 142.016 439.358 142.111 Q440.09 142.175 440.982 142.334 L441.013 148.35 Z" fill="#000000" fill-rule="evenodd" fill-opacity="1" /><path clip-path="url(#clip690)" d="M 0 0 M459.538 146.981 Q454.827 146.981 452.09 150.673 Q449.352 154.333 449.352 160.731 Q449.352 167.129 452.058 170.821 Q454.795 174.481 459.538 174.481 Q464.216 174.481 466.954 170.789 Q469.691 167.097 469.691 160.731 Q469.691 154.397 466.954 150.705 Q464.216 146.981 459.538 146.981 M459.538 142.016 Q467.176 142.016 471.537 146.981 Q475.897 151.946 475.897 160.731 Q475.897 169.484 471.537 174.481 Q467.176 179.446 459.538 179.446 Q451.867 179.446 447.506 174.481 Q443.178 169.484 443.178 160.731 Q443.178 151.946 447.506 146.981 Q451.867 142.016 459.538 142.016 Z" fill="#000000" fill-rule="evenodd" fill-opacity="1" /><path clip-path="url(#clip690)" d="M 0 0 M511.259 144.244 L511.259 149.718 Q508.776 148.35 506.262 147.681 Q503.779 146.981 501.233 146.981 Q495.536 146.981 492.385 150.61 Q489.234 154.206 489.234 160.731 Q489.234 167.256 492.385 170.884 Q495.536 174.481 501.233 174.481 Q503.779 174.481 506.262 173.813 Q508.776 173.112 511.259 171.744 L511.259 177.155 Q508.808 178.3 506.166 178.873 Q503.556 179.446 500.596 179.446 Q492.544 179.446 487.801 174.385 Q483.059 169.325 483.059 160.731 Q483.059 152.01 487.833 147.013 Q492.639 142.016 500.978 142.016 Q503.684 142.016 506.262 142.589 Q508.84 143.13 511.259 144.244 Z" fill="#000000" fill-rule="evenodd" fill-opacity="1" /><path clip-path="url(#clip690)" d="M 0 0 M551.936 159.235 L551.936 162.1 L525.009 162.1 Q525.391 168.147 528.637 171.33 Q531.916 174.481 537.74 174.481 Q541.114 174.481 544.265 173.653 Q547.448 172.826 550.567 171.171 L550.567 176.709 Q547.416 178.046 544.106 178.746 Q540.796 179.446 537.39 179.446 Q528.86 179.446 523.863 174.481 Q518.898 169.516 518.898 161.049 Q518.898 152.296 523.608 147.172 Q528.351 142.016 536.372 142.016 Q543.565 142.016 547.734 146.663 Q551.936 151.278 551.936 159.235 M546.079 157.516 Q546.016 152.71 543.374 149.846 Q540.764 146.981 536.435 146.981 Q531.534 146.981 528.574 149.75 Q525.645 152.519 525.2 157.548 L546.079 157.516 Z" fill="#000000" fill-rule="evenodd" fill-opacity="1" /><path clip-path="url(#clip690)" d="M 0 0 M584.274 143.926 L584.274 149.464 Q581.791 148.191 579.117 147.554 Q576.444 146.917 573.579 146.917 Q569.219 146.917 567.023 148.254 Q564.858 149.591 564.858 152.265 Q564.858 154.302 566.418 155.479 Q567.977 156.625 572.688 157.675 L574.693 158.121 Q580.932 159.458 583.542 161.909 Q586.183 164.328 586.183 168.688 Q586.183 173.653 582.237 176.55 Q578.322 179.446 571.447 179.446 Q568.582 179.446 565.463 178.873 Q562.376 178.332 558.938 177.218 L558.938 171.171 Q562.185 172.858 565.336 173.717 Q568.487 174.545 571.574 174.545 Q575.712 174.545 577.94 173.144 Q580.168 171.712 580.168 169.134 Q580.168 166.747 578.544 165.473 Q576.953 164.2 571.51 163.023 L569.473 162.545 Q564.031 161.399 561.612 159.044 Q559.193 156.657 559.193 152.519 Q559.193 147.49 562.757 144.753 Q566.322 142.016 572.879 142.016 Q576.125 142.016 578.99 142.493 Q581.855 142.971 584.274 143.926 Z" fill="#000000" fill-rule="evenodd" fill-opacity="1" /><path clip-path="url(#clip690)" d="M 0 0 M618.235 143.926 L618.235 149.464 Q615.752 148.191 613.078 147.554 Q610.405 146.917 607.54 146.917 Q603.18 146.917 600.984 148.254 Q598.819 149.591 598.819 152.265 Q598.819 154.302 600.379 155.479 Q601.938 156.625 606.649 157.675 L608.654 158.121 Q614.893 159.458 617.503 161.909 Q620.144 164.328 620.144 168.688 Q620.144 173.653 616.198 176.55 Q612.283 179.446 605.408 179.446 Q602.543 179.446 599.424 178.873 Q596.337 178.332 592.899 177.218 L592.899 171.171 Q596.146 172.858 599.297 173.717 Q602.448 174.545 605.535 174.545 Q609.673 174.545 611.901 173.144 Q614.129 171.712 614.129 169.134 Q614.129 166.747 612.505 165.473 Q610.914 164.2 605.471 163.023 L603.434 162.545 Q597.992 161.399 595.573 159.044 Q593.154 156.657 593.154 152.519 Q593.154 147.49 596.719 144.753 Q600.283 142.016 606.84 142.016 Q610.087 142.016 612.951 142.493 Q615.816 142.971 618.235 143.926 Z" fill="#000000" fill-rule="evenodd" fill-opacity="1" /><path clip-path="url(#clip690)" d="M 0 0 M659.962 159.235 L659.962 162.1 L633.035 162.1 Q633.417 168.147 636.663 171.33 Q639.942 174.481 645.766 174.481 Q649.14 174.481 652.291 173.653 Q655.474 172.826 658.593 171.171 L658.593 176.709 Q655.442 178.046 652.132 178.746 Q648.822 179.446 645.416 179.446 Q636.886 179.446 631.889 174.481 Q626.924 169.516 626.924 161.049 Q626.924 152.296 631.634 147.172 Q636.377 142.016 644.398 142.016 Q651.591 142.016 655.76 146.663 Q659.962 151.278 659.962 159.235 M654.105 157.516 Q654.042 152.71 651.4 149.846 Q648.79 146.981 644.461 146.981 Q639.56 146.981 636.6 149.75 Q633.671 152.519 633.226 157.548 L654.105 157.516 Z" fill="#000000" fill-rule="evenodd" fill-opacity="1" /><path clip-path="url(#clip690)" d="M 0 0 M692.3 143.926 L692.3 149.464 Q689.817 148.191 687.143 147.554 Q684.47 146.917 681.605 146.917 Q677.245 146.917 675.049 148.254 Q672.884 149.591 672.884 152.265 Q672.884 154.302 674.444 155.479 Q676.003 156.625 680.714 157.675 L682.719 158.121 Q688.958 159.458 691.568 161.909 Q694.209 164.328 694.209 168.688 Q694.209 173.653 690.263 176.55 Q686.348 179.446 679.473 179.446 Q676.608 179.446 673.489 178.873 Q670.402 178.332 666.964 177.218 L666.964 171.171 Q670.211 172.858 673.362 173.717 Q676.513 174.545 679.6 174.545 Q683.738 174.545 685.966 173.144 Q688.194 171.712 688.194 169.134 Q688.194 166.747 686.57 165.473 Q684.979 164.2 679.536 163.023 L677.499 162.545 Q672.057 161.399 669.638 159.044 Q667.219 156.657 667.219 152.519 Q667.219 147.49 670.784 144.753 Q674.348 142.016 680.905 142.016 Q684.152 142.016 687.016 142.493 Q689.881 142.971 692.3 143.926 Z" fill="#000000" fill-rule="evenodd" fill-opacity="1" /><polyline clip-path="url(#clip690)" style="stroke:#009af9; stroke-width:4; stroke-opacity:1; fill:none" points="
  202.741,215.243 352.742,215.243 
  "/>
<circle clip-path="url(#clip690)" cx="277.741" cy="215.243" r="23" fill="#009af9" fill-rule="evenodd" fill-opacity="1" stroke="#000000" stroke-opacity="1" stroke-width="5.12"/>
<path clip-path="url(#clip690)" d="M 0 0 M378.413 228.588 L386.052 228.588 L386.052 202.222 L377.742 203.889 L377.742 199.63 L386.006 197.963 L390.682 197.963 L390.682 228.588 L398.321 228.588 L398.321 232.523 L378.413 232.523 L378.413 228.588 Z" fill="#000000" fill-rule="evenodd" fill-opacity="1" /><polyline clip-path="url(#clip690)" style="stroke:#e26f46; stroke-width:4; stroke-opacity:1; fill:none" points="
  202.741,275.723 352.742,275.723 
  "/>
<path clip-path="url(#clip690)" d="M252.141 250.123 L252.141 301.323 L303.341 301.323 L303.341 250.123 L252.141 250.123 Z" fill="#e26f46" fill-rule="evenodd" fill-opacity="1" stroke="#000000" stroke-opacity="1" stroke-width="5.12"/>
<path clip-path="url(#clip690)" d="M 0 0 M383.367 289.068 L399.686 289.068 L399.686 293.003 L377.742 293.003 L377.742 289.068 Q380.404 286.313 384.987 281.684 Q389.594 277.031 390.774 275.688 Q393.02 273.165 393.899 271.429 Q394.802 269.67 394.802 267.98 Q394.802 265.226 392.858 263.489 Q390.936 261.753 387.835 261.753 Q385.636 261.753 383.182 262.517 Q380.751 263.281 377.974 264.832 L377.974 260.11 Q380.798 258.976 383.251 258.397 Q385.705 257.818 387.742 257.818 Q393.112 257.818 396.307 260.503 Q399.501 263.189 399.501 267.679 Q399.501 269.809 398.691 271.73 Q397.904 273.628 395.798 276.221 Q395.219 276.892 392.117 280.11 Q389.015 283.304 383.367 289.068 Z" fill="#000000" fill-rule="evenodd" fill-opacity="1" /><polyline clip-path="url(#clip690)" style="stroke:#3da44d; stroke-width:4; stroke-opacity:1; fill:none" points="
  202.741,336.203 352.742,336.203 
  "/>
<path clip-path="url(#clip690)" d="M277.741 310.603 L271.725 327.909 L253.396 328.293 L268.013 339.378 L262.689 356.914 L277.741 346.443 L292.794 356.914 L287.469 339.378 L302.087 328.293 L283.757 327.909 L277.741 310.603 Z" fill="#3da44d" fill-rule="evenodd" fill-opacity="1" stroke="#000000" stroke-opacity="1" stroke-width="5.12"/>
<path clip-path="url(#clip690)" d="M 0 0 M393.344 322.997 L381.538 341.446 L393.344 341.446 L393.344 322.997 M392.117 318.923 L397.997 318.923 L397.997 341.446 L402.927 341.446 L402.927 345.335 L397.997 345.335 L397.997 353.483 L393.344 353.483 L393.344 345.335 L377.742 345.335 L377.742 340.821 L392.117 318.923 Z" fill="#000000" fill-rule="evenodd" fill-opacity="1" /><polyline clip-path="url(#clip690)" style="stroke:#c271d2; stroke-width:4; stroke-opacity:1; fill:none" points="
  202.741,396.683 352.742,396.683 
  "/>
<path clip-path="url(#clip690)" d="M277.741 371.083 L252.141 396.683 L277.741 422.283 L303.341 396.683 L277.741 371.083 Z" fill="#c271d2" fill-rule="evenodd" fill-opacity="1" stroke="#000000" stroke-opacity="1" stroke-width="5.12"/>
<path clip-path="url(#clip690)" d="M 0 0 M389.594 397.551 Q386.261 397.551 384.339 399.334 Q382.441 401.116 382.441 404.241 Q382.441 407.366 384.339 409.148 Q386.261 410.931 389.594 410.931 Q392.927 410.931 394.848 409.148 Q396.77 407.343 396.77 404.241 Q396.77 401.116 394.848 399.334 Q392.95 397.551 389.594 397.551 M384.918 395.561 Q381.909 394.82 380.219 392.76 Q378.552 390.699 378.552 387.736 Q378.552 383.593 381.492 381.186 Q384.455 378.778 389.594 378.778 Q394.756 378.778 397.696 381.186 Q400.635 383.593 400.635 387.736 Q400.635 390.699 398.946 392.76 Q397.279 394.82 394.293 395.561 Q397.673 396.348 399.548 398.639 Q401.446 400.931 401.446 404.241 Q401.446 409.264 398.367 411.949 Q395.311 414.634 389.594 414.634 Q383.876 414.634 380.798 411.949 Q377.742 409.264 377.742 404.241 Q377.742 400.931 379.64 398.639 Q381.538 396.348 384.918 395.561 M383.205 388.176 Q383.205 390.861 384.872 392.366 Q386.561 393.871 389.594 393.871 Q392.603 393.871 394.293 392.366 Q396.006 390.861 396.006 388.176 Q396.006 385.491 394.293 383.986 Q392.603 382.482 389.594 382.482 Q386.561 382.482 384.872 383.986 Q383.205 385.491 383.205 388.176 Z" fill="#000000" fill-rule="evenodd" fill-opacity="1" /><polyline clip-path="url(#clip690)" style="stroke:#ac8d18; stroke-width:4; stroke-opacity:1; fill:none" points="
  202.741,457.163 352.742,457.163 
  "/>
<path clip-path="url(#clip690)" d="M277.741 482.763 L255.572 469.963 L255.572 444.363 L277.741 431.563 L299.911 444.363 L299.911 469.963 Z" fill="#ac8d18" fill-rule="evenodd" fill-opacity="1" stroke="#000000" stroke-opacity="1" stroke-width="5.12"/>
<path clip-path="url(#clip690)" d="M 0 0 M378.413 470.508 L386.052 470.508 L386.052 444.142 L377.742 445.809 L377.742 441.55 L386.006 439.883 L390.682 439.883 L390.682 470.508 L398.321 470.508 L398.321 474.443 L378.413 474.443 L378.413 470.508 Z" fill="#000000" fill-rule="evenodd" fill-opacity="1" /><path clip-path="url(#clip690)" d="M 0 0 M418.344 455.3 Q415.196 455.3 413.344 457.453 Q411.515 459.605 411.515 463.355 Q411.515 467.082 413.344 469.258 Q415.196 471.411 418.344 471.411 Q421.492 471.411 423.321 469.258 Q425.172 467.082 425.172 463.355 Q425.172 459.605 423.321 457.453 Q421.492 455.3 418.344 455.3 M427.626 440.647 L427.626 444.906 Q425.867 444.073 424.061 443.633 Q422.279 443.193 420.52 443.193 Q415.89 443.193 413.436 446.318 Q411.006 449.443 410.659 455.763 Q412.024 453.749 414.084 452.684 Q416.145 451.596 418.621 451.596 Q423.83 451.596 426.839 454.767 Q429.871 457.915 429.871 463.355 Q429.871 468.679 426.723 471.897 Q423.575 475.114 418.344 475.114 Q412.348 475.114 409.177 470.531 Q406.006 465.925 406.006 457.198 Q406.006 449.004 409.895 444.142 Q413.784 439.258 420.334 439.258 Q422.094 439.258 423.876 439.605 Q425.682 439.953 427.626 440.647 Z" fill="#000000" fill-rule="evenodd" fill-opacity="1" /><polyline clip-path="url(#clip690)" style="stroke:#00a9ad; stroke-width:4; stroke-opacity:1; fill:none" points="
  202.741,517.643 352.742,517.643 
  "/>
<line clip-path="url(#clip690)" x1="277.741" y1="517.643" x2="277.741" y2="492.043" style="stroke:#00a9ad; stroke-width:3.2; stroke-opacity:1"/>
<line clip-path="url(#clip690)" x1="277.741" y1="517.643" x2="252.141" y2="517.643" style="stroke:#00a9ad; stroke-width:3.2; stroke-opacity:1"/>
<line clip-path="url(#clip690)" x1="277.741" y1="517.643" x2="277.741" y2="543.243" style="stroke:#00a9ad; stroke-width:3.2; stroke-opacity:1"/>
<line clip-path="url(#clip690)" x1="277.741" y1="517.643" x2="303.341" y2="517.643" style="stroke:#00a9ad; stroke-width:3.2; stroke-opacity:1"/>
<path clip-path="url(#clip690)" d="M 0 0 M393.367 516.289 Q396.723 517.007 398.598 519.275 Q400.497 521.544 400.497 524.877 Q400.497 529.993 396.978 532.794 Q393.46 535.594 386.978 535.594 Q384.802 535.594 382.487 535.155 Q380.196 534.738 377.742 533.882 L377.742 529.368 Q379.687 530.502 382.001 531.081 Q384.316 531.659 386.839 531.659 Q391.237 531.659 393.529 529.923 Q395.844 528.187 395.844 524.877 Q395.844 521.821 393.691 520.108 Q391.561 518.372 387.742 518.372 L383.714 518.372 L383.714 514.53 L387.927 514.53 Q391.376 514.53 393.205 513.164 Q395.034 511.775 395.034 509.183 Q395.034 506.521 393.136 505.109 Q391.261 503.673 387.742 503.673 Q385.821 503.673 383.622 504.09 Q381.423 504.507 378.784 505.386 L378.784 501.22 Q381.446 500.479 383.761 500.109 Q386.099 499.738 388.159 499.738 Q393.483 499.738 396.585 502.169 Q399.686 504.576 399.686 508.696 Q399.686 511.567 398.043 513.558 Q396.399 515.525 393.367 516.289 Z" fill="#000000" fill-rule="evenodd" fill-opacity="1" /><path clip-path="url(#clip690)" d="M 0 0 M413.39 530.988 L429.709 530.988 L429.709 534.923 L407.765 534.923 L407.765 530.988 Q410.427 528.233 415.01 523.604 Q419.617 518.951 420.797 517.608 Q423.043 515.085 423.922 513.349 Q424.825 511.59 424.825 509.9 Q424.825 507.146 422.881 505.409 Q420.959 503.673 417.858 503.673 Q415.659 503.673 413.205 504.437 Q410.774 505.201 407.997 506.752 L407.997 502.03 Q410.821 500.896 413.274 500.317 Q415.728 499.738 417.765 499.738 Q423.135 499.738 426.33 502.423 Q429.524 505.109 429.524 509.599 Q429.524 511.729 428.714 513.65 Q427.927 515.548 425.821 518.141 Q425.242 518.812 422.14 522.03 Q419.038 525.224 413.39 530.988 Z" fill="#000000" fill-rule="evenodd" fill-opacity="1" /><polyline clip-path="url(#clip690)" style="stroke:#ed5d92; stroke-width:4; stroke-opacity:1; fill:none" points="
  202.741,578.123 352.742,578.123 
  "/>
<line clip-path="url(#clip690)" x1="277.741" y1="578.123" x2="252.141" y2="552.523" style="stroke:#ed5d92; stroke-width:3.2; stroke-opacity:1"/>
<line clip-path="url(#clip690)" x1="277.741" y1="578.123" x2="252.141" y2="603.723" style="stroke:#ed5d92; stroke-width:3.2; stroke-opacity:1"/>
<line clip-path="url(#clip690)" x1="277.741" y1="578.123" x2="303.341" y2="603.723" style="stroke:#ed5d92; stroke-width:3.2; stroke-opacity:1"/>
<line clip-path="url(#clip690)" x1="277.741" y1="578.123" x2="303.341" y2="552.523" style="stroke:#ed5d92; stroke-width:3.2; stroke-opacity:1"/>
<path clip-path="url(#clip690)" d="M 0 0 M393.344 564.917 L381.538 583.366 L393.344 583.366 L393.344 564.917 M392.117 560.843 L397.997 560.843 L397.997 583.366 L402.927 583.366 L402.927 587.255 L397.997 587.255 L397.997 595.403 L393.344 595.403 L393.344 587.255 L377.742 587.255 L377.742 582.741 L392.117 560.843 Z" fill="#000000" fill-rule="evenodd" fill-opacity="1" /><path clip-path="url(#clip690)" d="M 0 0 M420.659 578.991 Q417.325 578.991 415.404 580.774 Q413.506 582.556 413.506 585.681 Q413.506 588.806 415.404 590.588 Q417.325 592.371 420.659 592.371 Q423.992 592.371 425.913 590.588 Q427.834 588.783 427.834 585.681 Q427.834 582.556 425.913 580.774 Q424.015 578.991 420.659 578.991 M415.983 577.001 Q412.973 576.26 411.284 574.2 Q409.617 572.139 409.617 569.176 Q409.617 565.033 412.557 562.626 Q415.52 560.218 420.659 560.218 Q425.821 560.218 428.76 562.626 Q431.7 565.033 431.7 569.176 Q431.7 572.139 430.01 574.2 Q428.344 576.26 425.358 577.001 Q428.737 577.788 430.612 580.079 Q432.51 582.371 432.51 585.681 Q432.51 590.704 429.432 593.389 Q426.376 596.074 420.659 596.074 Q414.941 596.074 411.862 593.389 Q408.807 590.704 408.807 585.681 Q408.807 582.371 410.705 580.079 Q412.603 577.788 415.983 577.001 M414.27 569.616 Q414.27 572.301 415.936 573.806 Q417.626 575.311 420.659 575.311 Q423.668 575.311 425.358 573.806 Q427.071 572.301 427.071 569.616 Q427.071 566.931 425.358 565.426 Q423.668 563.922 420.659 563.922 Q417.626 563.922 415.936 565.426 Q414.27 566.931 414.27 569.616 Z" fill="#000000" fill-rule="evenodd" fill-opacity="1" /><polyline clip-path="url(#clip690)" style="stroke:#c68125; stroke-width:4; stroke-opacity:1; fill:none" points="
  202.741,638.603 352.742,638.603 
  "/>
<path clip-path="url(#clip690)" d="M277.741 613.003 L252.141 664.203 L303.341 664.203 L277.741 613.003 Z" fill="#c68125" fill-rule="evenodd" fill-opacity="1" stroke="#000000" stroke-opacity="1" stroke-width="5.12"/>
<path clip-path="url(#clip690)" d="M 0 0 M390.08 636.74 Q386.932 636.74 385.08 638.893 Q383.251 641.045 383.251 644.795 Q383.251 648.522 385.08 650.698 Q386.932 652.851 390.08 652.851 Q393.228 652.851 395.057 650.698 Q396.909 648.522 396.909 644.795 Q396.909 641.045 395.057 638.893 Q393.228 636.74 390.08 636.74 M399.362 622.087 L399.362 626.346 Q397.603 625.513 395.798 625.073 Q394.015 624.633 392.256 624.633 Q387.626 624.633 385.173 627.758 Q382.742 630.883 382.395 637.203 Q383.761 635.189 385.821 634.124 Q387.881 633.036 390.358 633.036 Q395.566 633.036 398.575 636.207 Q401.608 639.355 401.608 644.795 Q401.608 650.119 398.46 653.337 Q395.311 656.554 390.08 656.554 Q384.085 656.554 380.913 651.971 Q377.742 647.365 377.742 638.638 Q377.742 630.444 381.631 625.582 Q385.52 620.698 392.071 620.698 Q393.83 620.698 395.612 621.045 Q397.418 621.393 399.362 622.087 Z" fill="#000000" fill-rule="evenodd" fill-opacity="1" /><path clip-path="url(#clip690)" d="M 0 0 M422.51 625.397 L410.705 643.846 L422.51 643.846 L422.51 625.397 M421.284 621.323 L427.163 621.323 L427.163 643.846 L432.094 643.846 L432.094 647.735 L427.163 647.735 L427.163 655.883 L422.51 655.883 L422.51 647.735 L406.909 647.735 L406.909 643.221 L421.284 621.323 Z" fill="#000000" fill-rule="evenodd" fill-opacity="1" /><polyline clip-path="url(#clip690)" style="stroke:#00a98d; stroke-width:4; stroke-opacity:1; fill:none" points="
  202.741,699.083 352.742,699.083 
  "/>
<path clip-path="url(#clip690)" d="M303.341 673.483 L252.141 673.483 L277.741 724.683 L303.341 673.483 Z" fill="#00a98d" fill-rule="evenodd" fill-opacity="1" stroke="#000000" stroke-opacity="1" stroke-width="5.12"/>
<path clip-path="url(#clip690)" d="M 0 0 M389.594 699.951 Q386.261 699.951 384.339 701.734 Q382.441 703.516 382.441 706.641 Q382.441 709.766 384.339 711.548 Q386.261 713.331 389.594 713.331 Q392.927 713.331 394.848 711.548 Q396.77 709.743 396.77 706.641 Q396.77 703.516 394.848 701.734 Q392.95 699.951 389.594 699.951 M384.918 697.961 Q381.909 697.22 380.219 695.16 Q378.552 693.099 378.552 690.136 Q378.552 685.993 381.492 683.586 Q384.455 681.178 389.594 681.178 Q394.756 681.178 397.696 683.586 Q400.635 685.993 400.635 690.136 Q400.635 693.099 398.946 695.16 Q397.279 697.22 394.293 697.961 Q397.673 698.748 399.548 701.039 Q401.446 703.331 401.446 706.641 Q401.446 711.664 398.367 714.349 Q395.311 717.034 389.594 717.034 Q383.876 717.034 380.798 714.349 Q377.742 711.664 377.742 706.641 Q377.742 703.331 379.64 701.039 Q381.538 698.748 384.918 697.961 M383.205 690.576 Q383.205 693.261 384.872 694.766 Q386.561 696.271 389.594 696.271 Q392.603 696.271 394.293 694.766 Q396.006 693.261 396.006 690.576 Q396.006 687.891 394.293 686.386 Q392.603 684.882 389.594 684.882 Q386.561 684.882 384.872 686.386 Q383.205 687.891 383.205 690.576 Z" fill="#000000" fill-rule="evenodd" fill-opacity="1" /><path clip-path="url(#clip690)" d="M 0 0 M419.756 684.882 Q416.145 684.882 414.316 688.447 Q412.51 691.988 412.51 699.118 Q412.51 706.224 414.316 709.789 Q416.145 713.331 419.756 713.331 Q423.39 713.331 425.196 709.789 Q427.024 706.224 427.024 699.118 Q427.024 691.988 425.196 688.447 Q423.39 684.882 419.756 684.882 M419.756 681.178 Q425.566 681.178 428.621 685.785 Q431.7 690.368 431.7 699.118 Q431.7 707.845 428.621 712.451 Q425.566 717.034 419.756 717.034 Q413.946 717.034 410.867 712.451 Q407.811 707.845 407.811 699.118 Q407.811 690.368 410.867 685.785 Q413.946 681.178 419.756 681.178 Z" fill="#000000" fill-rule="evenodd" fill-opacity="1" /><polyline clip-path="url(#clip690)" style="stroke:#8e971d; stroke-width:4; stroke-opacity:1; fill:none" points="
  202.741,759.563 352.742,759.563 
  "/>
<path clip-path="url(#clip690)" d="M298.221 759.563 L267.501 741.643 L267.501 777.483 L298.221 759.563 Z" fill="#8e971d" fill-rule="evenodd" fill-opacity="1" stroke="#000000" stroke-opacity="1" stroke-width="5.12"/>
<path clip-path="url(#clip690)" d="M 0 0 M379.964 776.126 L379.964 771.866 Q381.724 772.7 383.529 773.139 Q385.335 773.579 387.071 773.579 Q391.7 773.579 394.131 770.477 Q396.585 767.352 396.932 761.01 Q395.589 763.001 393.529 764.065 Q391.469 765.13 388.969 765.13 Q383.784 765.13 380.751 762.005 Q377.742 758.857 377.742 753.417 Q377.742 748.093 380.89 744.876 Q384.038 741.658 389.27 741.658 Q395.265 741.658 398.413 746.265 Q401.585 750.848 401.585 759.598 Q401.585 767.769 397.696 772.653 Q393.83 777.514 387.279 777.514 Q385.52 777.514 383.714 777.167 Q381.909 776.82 379.964 776.126 M389.27 761.473 Q392.418 761.473 394.247 759.32 Q396.098 757.167 396.098 753.417 Q396.098 749.691 394.247 747.538 Q392.418 745.362 389.27 745.362 Q386.122 745.362 384.27 747.538 Q382.441 749.691 382.441 753.417 Q382.441 757.167 384.27 759.32 Q386.122 761.473 389.27 761.473 Z" fill="#000000" fill-rule="evenodd" fill-opacity="1" /><path clip-path="url(#clip690)" d="M 0 0 M420.566 757.7 Q417.418 757.7 415.566 759.853 Q413.737 762.005 413.737 765.755 Q413.737 769.482 415.566 771.658 Q417.418 773.811 420.566 773.811 Q423.714 773.811 425.543 771.658 Q427.395 769.482 427.395 765.755 Q427.395 762.005 425.543 759.853 Q423.714 757.7 420.566 757.7 M429.848 743.047 L429.848 747.306 Q428.089 746.473 426.283 746.033 Q424.501 745.593 422.742 745.593 Q418.112 745.593 415.659 748.718 Q413.228 751.843 412.881 758.163 Q414.247 756.149 416.307 755.084 Q418.367 753.996 420.844 753.996 Q426.052 753.996 429.061 757.167 Q432.094 760.315 432.094 765.755 Q432.094 771.079 428.946 774.297 Q425.797 777.514 420.566 777.514 Q414.571 777.514 411.399 772.931 Q408.228 768.325 408.228 759.598 Q408.228 751.404 412.117 746.542 Q416.006 741.658 422.557 741.658 Q424.316 741.658 426.098 742.005 Q427.904 742.353 429.848 743.047 Z" fill="#000000" fill-rule="evenodd" fill-opacity="1" /></svg>
