<?xml version="1.0" encoding="utf-8"?>
<svg xmlns="http://www.w3.org/2000/svg" xmlns:xlink="http://www.w3.org/1999/xlink" width="600" height="400" viewBox="0 0 2400 1600">
<defs>
  <clipPath id="clip660">
    <rect x="0" y="0" width="2400" height="1600"/>
  </clipPath>
</defs>
<path clip-path="url(#clip660)" d="
M0 1600 L2400 1600 L2400 0 L0 0  Z
  " fill="#ffffff" fill-rule="evenodd" fill-opacity="1"/>
<defs>
  <clipPath id="clip661">
    <rect x="480" y="0" width="1681" height="1600"/>
  </clipPath>
</defs>
<path clip-path="url(#clip660)" d="
M102.74 1505.26 L2248.5 1505.26 L2248.5 47.2441 L102.74 47.2441  Z
  " fill="#ffffff" fill-rule="evenodd" fill-opacity="1"/>
<defs>
  <clipPath id="clip662">
    <rect x="102" y="47" width="2147" height="1459"/>
  </clipPath>
</defs>
<polyline clip-path="url(#clip662)" style="stroke:#000000; stroke-width:2; stroke-opacity:0.1; fill:none" points="
  163.469,1505.26 163.469,47.2441 
  "/>
<polyline clip-path="url(#clip662)" style="stroke:#000000; stroke-width:2; stroke-opacity:0.1; fill:none" points="
  206.54,1505.26 206.54,47.2441 
  "/>
<polyline clip-path="url(#clip662)" style="stroke:#000000; stroke-width:2; stroke-opacity:0.1; fill:none" points="
  292.68,1505.26 292.68,47.2441 
  "/>
<polyline clip-path="url(#clip662)" style="stroke:#000000; stroke-width:2; stroke-opacity:0.1; fill:none" points="
  464.962,1505.26 464.962,47.2441 
  "/>
<polyline clip-path="url(#clip662)" style="stroke:#000000; stroke-width:2; stroke-opacity:0.1; fill:none" points="
  809.524,1505.26 809.524,47.2441 
  "/>
<polyline clip-path="url(#clip662)" style="stroke:#000000; stroke-width:2; stroke-opacity:0.1; fill:none" points="
  1154.09,1505.26 1154.09,47.2441 
  "/>
<polyline clip-path="url(#clip662)" style="stroke:#000000; stroke-width:2; stroke-opacity:0.1; fill:none" points="
  1498.65,1505.26 1498.65,47.2441 
  "/>
<polyline clip-path="url(#clip662)" style="stroke:#000000; stroke-width:2; stroke-opacity:0.1; fill:none" points="
  1843.21,1505.26 1843.21,47.2441 
  "/>
<polyline clip-path="url(#clip662)" style="stroke:#000000; stroke-width:2; stroke-opacity:0.1; fill:none" points="
  2187.77,1505.26 2187.77,47.2441 
  "/>
<polyline clip-path="url(#clip660)" style="stroke:#000000; stroke-width:4; stroke-opacity:1; fill:none" points="
  102.74,1505.26 2248.5,1505.26 
  "/>
<polyline clip-path="url(#clip660)" style="stroke:#000000; stroke-width:4; stroke-opacity:1; fill:none" points="
  163.469,1505.26 163.469,1487.76 
  "/>
<polyline clip-path="url(#clip660)" style="stroke:#000000; stroke-width:4; stroke-opacity:1; fill:none" points="
  206.54,1505.26 206.54,1487.76 
  "/>
<polyline clip-path="url(#clip660)" style="stroke:#000000; stroke-width:4; stroke-opacity:1; fill:none" points="
  292.68,1505.26 292.68,1487.76 
  "/>
<polyline clip-path="url(#clip660)" style="stroke:#000000; stroke-width:4; stroke-opacity:1; fill:none" points="
  464.962,1505.26 464.962,1487.76 
  "/>
<polyline clip-path="url(#clip660)" style="stroke:#000000; stroke-width:4; stroke-opacity:1; fill:none" points="
  809.524,1505.26 809.524,1487.76 
  "/>
<polyline clip-path="url(#clip660)" style="stroke:#000000; stroke-width:4; stroke-opacity:1; fill:none" points="
  1154.09,1505.26 1154.09,1487.76 
  "/>
<polyline clip-path="url(#clip660)" style="stroke:#000000; stroke-width:4; stroke-opacity:1; fill:none" points="
  1498.65,1505.26 1498.65,1487.76 
  "/>
<polyline clip-path="url(#clip660)" style="stroke:#000000; stroke-width:4; stroke-opacity:1; fill:none" points="
  1843.21,1505.26 1843.21,1487.76 
  "/>
<polyline clip-path="url(#clip660)" style="stroke:#000000; stroke-width:4; stroke-opacity:1; fill:none" points="
  2187.77,1505.26 2187.77,1487.76 
  "/>
<path clip-path="url(#clip660)" d="M 0 0 M158.122 1562 L174.441 1562 L174.441 1565.93 L152.497 1565.93 L152.497 1562 Q155.159 1559.24 159.742 1554.61 Q164.349 1549.96 165.529 1548.62 Q167.775 1546.09 168.654 1544.36 Q169.557 1542.6 169.557 1540.91 Q169.557 1538.15 167.613 1536.42 Q165.692 1534.68 162.59 1534.68 Q160.391 1534.68 157.937 1535.45 Q155.506 1536.21 152.729 1537.76 L152.729 1533.04 Q155.553 1531.9 158.006 1531.33 Q160.46 1530.75 162.497 1530.75 Q167.867 1530.75 171.062 1533.43 Q174.256 1536.12 174.256 1540.61 Q174.256 1542.74 173.446 1544.66 Q172.659 1546.56 170.553 1549.15 Q169.974 1549.82 166.872 1553.04 Q163.77 1556.23 158.122 1562 Z" fill="#000000" fill-rule="evenodd" fill-opacity="1" /><path clip-path="url(#clip660)" d="M 0 0 M209.549 1535.45 L197.743 1553.89 L209.549 1553.89 L209.549 1535.45 M208.322 1531.37 L214.202 1531.37 L214.202 1553.89 L219.132 1553.89 L219.132 1557.78 L214.202 1557.78 L214.202 1565.93 L209.549 1565.93 L209.549 1557.78 L193.947 1557.78 L193.947 1553.27 L208.322 1531.37 Z" fill="#000000" fill-rule="evenodd" fill-opacity="1" /><path clip-path="url(#clip660)" d="M 0 0 M292.68 1549.52 Q289.347 1549.52 287.426 1551.3 Q285.528 1553.08 285.528 1556.21 Q285.528 1559.33 287.426 1561.12 Q289.347 1562.9 292.68 1562.9 Q296.014 1562.9 297.935 1561.12 Q299.856 1559.31 299.856 1556.21 Q299.856 1553.08 297.935 1551.3 Q296.037 1549.52 292.68 1549.52 M288.004 1547.53 Q284.995 1546.79 283.305 1544.73 Q281.639 1542.67 281.639 1539.71 Q281.639 1535.56 284.578 1533.15 Q287.541 1530.75 292.68 1530.75 Q297.842 1530.75 300.782 1533.15 Q303.722 1535.56 303.722 1539.71 Q303.722 1542.67 302.032 1544.73 Q300.365 1546.79 297.379 1547.53 Q300.759 1548.32 302.634 1550.61 Q304.532 1552.9 304.532 1556.21 Q304.532 1561.23 301.453 1563.92 Q298.398 1566.6 292.68 1566.6 Q286.963 1566.6 283.884 1563.92 Q280.829 1561.23 280.829 1556.21 Q280.829 1552.9 282.727 1550.61 Q284.625 1548.32 288.004 1547.53 M286.291 1540.14 Q286.291 1542.83 287.958 1544.33 Q289.648 1545.84 292.68 1545.84 Q295.69 1545.84 297.379 1544.33 Q299.092 1542.83 299.092 1540.14 Q299.092 1537.46 297.379 1535.96 Q295.69 1534.45 292.68 1534.45 Q289.648 1534.45 287.958 1535.96 Q286.291 1537.46 286.291 1540.14 Z" fill="#000000" fill-rule="evenodd" fill-opacity="1" /><path clip-path="url(#clip660)" d="M 0 0 M439.568 1562 L447.207 1562 L447.207 1535.63 L438.897 1537.3 L438.897 1533.04 L447.161 1531.37 L451.837 1531.37 L451.837 1562 L459.476 1562 L459.476 1565.93 L439.568 1565.93 L439.568 1562 Z" fill="#000000" fill-rule="evenodd" fill-opacity="1" /><path clip-path="url(#clip660)" d="M 0 0 M479.499 1546.79 Q476.35 1546.79 474.499 1548.94 Q472.67 1551.09 472.67 1554.84 Q472.67 1558.57 474.499 1560.75 Q476.35 1562.9 479.499 1562.9 Q482.647 1562.9 484.475 1560.75 Q486.327 1558.57 486.327 1554.84 Q486.327 1551.09 484.475 1548.94 Q482.647 1546.79 479.499 1546.79 M488.781 1532.14 L488.781 1536.39 Q487.022 1535.56 485.216 1535.12 Q483.434 1534.68 481.674 1534.68 Q477.045 1534.68 474.591 1537.81 Q472.161 1540.93 471.813 1547.25 Q473.179 1545.24 475.239 1544.17 Q477.3 1543.08 479.776 1543.08 Q484.985 1543.08 487.994 1546.26 Q491.026 1549.4 491.026 1554.84 Q491.026 1560.17 487.878 1563.39 Q484.73 1566.6 479.499 1566.6 Q473.503 1566.6 470.332 1562.02 Q467.161 1557.41 467.161 1548.69 Q467.161 1540.49 471.05 1535.63 Q474.938 1530.75 481.489 1530.75 Q483.249 1530.75 485.031 1531.09 Q486.837 1531.44 488.781 1532.14 Z" fill="#000000" fill-rule="evenodd" fill-opacity="1" /><path clip-path="url(#clip660)" d="M 0 0 M799.166 1547.3 Q802.522 1548.02 804.397 1550.28 Q806.295 1552.55 806.295 1555.89 Q806.295 1561 802.777 1563.8 Q799.258 1566.6 792.777 1566.6 Q790.601 1566.6 788.286 1566.16 Q785.994 1565.75 783.541 1564.89 L783.541 1560.38 Q785.485 1561.51 787.8 1562.09 Q790.115 1562.67 792.638 1562.67 Q797.036 1562.67 799.328 1560.93 Q801.642 1559.2 801.642 1555.89 Q801.642 1552.83 799.49 1551.12 Q797.36 1549.38 793.541 1549.38 L789.513 1549.38 L789.513 1545.54 L793.726 1545.54 Q797.175 1545.54 799.003 1544.17 Q800.832 1542.78 800.832 1540.19 Q800.832 1537.53 798.934 1536.12 Q797.059 1534.68 793.541 1534.68 Q791.619 1534.68 789.42 1535.1 Q787.221 1535.52 784.582 1536.39 L784.582 1532.23 Q787.244 1531.49 789.559 1531.12 Q791.897 1530.75 793.957 1530.75 Q799.281 1530.75 802.383 1533.18 Q805.485 1535.58 805.485 1539.71 Q805.485 1542.58 803.841 1544.57 Q802.198 1546.53 799.166 1547.3 Z" fill="#000000" fill-rule="evenodd" fill-opacity="1" /><path clip-path="url(#clip660)" d="M 0 0 M819.189 1562 L835.508 1562 L835.508 1565.93 L813.564 1565.93 L813.564 1562 Q816.226 1559.24 820.809 1554.61 Q825.415 1549.96 826.596 1548.62 Q828.841 1546.09 829.721 1544.36 Q830.624 1542.6 830.624 1540.91 Q830.624 1538.15 828.679 1536.42 Q826.758 1534.68 823.656 1534.68 Q821.457 1534.68 819.003 1535.45 Q816.573 1536.21 813.795 1537.76 L813.795 1533.04 Q816.619 1531.9 819.073 1531.33 Q821.527 1530.75 823.564 1530.75 Q828.934 1530.75 832.128 1533.43 Q835.323 1536.12 835.323 1540.61 Q835.323 1542.74 834.513 1544.66 Q833.726 1546.56 831.619 1549.15 Q831.04 1549.82 827.939 1553.04 Q824.837 1556.23 819.189 1562 Z" fill="#000000" fill-rule="evenodd" fill-opacity="1" /><path clip-path="url(#clip660)" d="M 0 0 M1142.3 1535.45 L1130.5 1553.89 L1142.3 1553.89 L1142.3 1535.45 M1141.08 1531.37 L1146.96 1531.37 L1146.96 1553.89 L1151.89 1553.89 L1151.89 1557.78 L1146.96 1557.78 L1146.96 1565.93 L1142.3 1565.93 L1142.3 1557.78 L1126.7 1557.78 L1126.7 1553.27 L1141.08 1531.37 Z" fill="#000000" fill-rule="evenodd" fill-opacity="1" /><path clip-path="url(#clip660)" d="M 0 0 M1169.62 1549.52 Q1166.29 1549.52 1164.36 1551.3 Q1162.47 1553.08 1162.47 1556.21 Q1162.47 1559.33 1164.36 1561.12 Q1166.29 1562.9 1169.62 1562.9 Q1172.95 1562.9 1174.87 1561.12 Q1176.8 1559.31 1176.8 1556.21 Q1176.8 1553.08 1174.87 1551.3 Q1172.98 1549.52 1169.62 1549.52 M1164.94 1547.53 Q1161.93 1546.79 1160.24 1544.73 Q1158.58 1542.67 1158.58 1539.71 Q1158.58 1535.56 1161.52 1533.15 Q1164.48 1530.75 1169.62 1530.75 Q1174.78 1530.75 1177.72 1533.15 Q1180.66 1535.56 1180.66 1539.71 Q1180.66 1542.67 1178.97 1544.73 Q1177.3 1546.79 1174.32 1547.53 Q1177.7 1548.32 1179.57 1550.61 Q1181.47 1552.9 1181.47 1556.21 Q1181.47 1561.23 1178.39 1563.92 Q1175.34 1566.6 1169.62 1566.6 Q1163.9 1566.6 1160.82 1563.92 Q1157.77 1561.23 1157.77 1556.21 Q1157.77 1552.9 1159.67 1550.61 Q1161.56 1548.32 1164.94 1547.53 M1163.23 1540.14 Q1163.23 1542.83 1164.9 1544.33 Q1166.59 1545.84 1169.62 1545.84 Q1172.63 1545.84 1174.32 1544.33 Q1176.03 1542.83 1176.03 1540.14 Q1176.03 1537.46 1174.32 1535.96 Q1172.63 1534.45 1169.62 1534.45 Q1166.59 1534.45 1164.9 1535.96 Q1163.23 1537.46 1163.23 1540.14 Z" fill="#000000" fill-rule="evenodd" fill-opacity="1" /><path clip-path="url(#clip660)" d="M 0 0 M1483.81 1546.79 Q1480.66 1546.79 1478.81 1548.94 Q1476.98 1551.09 1476.98 1554.84 Q1476.98 1558.57 1478.81 1560.75 Q1480.66 1562.9 1483.81 1562.9 Q1486.96 1562.9 1488.79 1560.75 Q1490.64 1558.57 1490.64 1554.84 Q1490.64 1551.09 1488.79 1548.94 Q1486.96 1546.79 1483.81 1546.79 M1493.09 1532.14 L1493.09 1536.39 Q1491.33 1535.56 1489.53 1535.12 Q1487.75 1534.68 1485.99 1534.68 Q1481.36 1534.68 1478.9 1537.81 Q1476.47 1540.93 1476.13 1547.25 Q1477.49 1545.24 1479.55 1544.17 Q1481.61 1543.08 1484.09 1543.08 Q1489.3 1543.08 1492.31 1546.26 Q1495.34 1549.4 1495.34 1554.84 Q1495.34 1560.17 1492.19 1563.39 Q1489.04 1566.6 1483.81 1566.6 Q1477.82 1566.6 1474.65 1562.02 Q1471.47 1557.41 1471.47 1548.69 Q1471.47 1540.49 1475.36 1535.63 Q1479.25 1530.75 1485.8 1530.75 Q1487.56 1530.75 1489.34 1531.09 Q1491.15 1531.44 1493.09 1532.14 Z" fill="#000000" fill-rule="evenodd" fill-opacity="1" /><path clip-path="url(#clip660)" d="M 0 0 M1516.24 1535.45 L1504.44 1553.89 L1516.24 1553.89 L1516.24 1535.45 M1515.02 1531.37 L1520.89 1531.37 L1520.89 1553.89 L1525.83 1553.89 L1525.83 1557.78 L1520.89 1557.78 L1520.89 1565.93 L1516.24 1565.93 L1516.24 1557.78 L1500.64 1557.78 L1500.64 1553.27 L1515.02 1531.37 Z" fill="#000000" fill-rule="evenodd" fill-opacity="1" /><path clip-path="url(#clip660)" d="M 0 0 M1828.08 1549.52 Q1824.75 1549.52 1822.83 1551.3 Q1820.93 1553.08 1820.93 1556.21 Q1820.93 1559.33 1822.83 1561.12 Q1824.75 1562.9 1828.08 1562.9 Q1831.42 1562.9 1833.34 1561.12 Q1835.26 1559.31 1835.26 1556.21 Q1835.26 1553.08 1833.34 1551.3 Q1831.44 1549.52 1828.08 1549.52 M1823.41 1547.53 Q1820.4 1546.79 1818.71 1544.73 Q1817.04 1542.67 1817.04 1539.71 Q1817.04 1535.56 1819.98 1533.15 Q1822.95 1530.75 1828.08 1530.75 Q1833.25 1530.75 1836.19 1533.15 Q1839.13 1535.56 1839.13 1539.71 Q1839.13 1542.67 1837.44 1544.73 Q1835.77 1546.79 1832.78 1547.53 Q1836.16 1548.32 1838.04 1550.61 Q1839.94 1552.9 1839.94 1556.21 Q1839.94 1561.23 1836.86 1563.92 Q1833.8 1566.6 1828.08 1566.6 Q1822.37 1566.6 1819.29 1563.92 Q1816.23 1561.23 1816.23 1556.21 Q1816.23 1552.9 1818.13 1550.61 Q1820.03 1548.32 1823.41 1547.53 M1821.7 1540.14 Q1821.7 1542.83 1823.36 1544.33 Q1825.05 1545.84 1828.08 1545.84 Q1831.09 1545.84 1832.78 1544.33 Q1834.5 1542.83 1834.5 1540.14 Q1834.5 1537.46 1832.78 1535.96 Q1831.09 1534.45 1828.08 1534.45 Q1825.05 1534.45 1823.36 1535.96 Q1821.7 1537.46 1821.7 1540.14 Z" fill="#000000" fill-rule="evenodd" fill-opacity="1" /><path clip-path="url(#clip660)" d="M 0 0 M1858.25 1534.45 Q1854.64 1534.45 1852.81 1538.02 Q1851 1541.56 1851 1548.69 Q1851 1555.79 1852.81 1559.36 Q1854.64 1562.9 1858.25 1562.9 Q1861.88 1562.9 1863.69 1559.36 Q1865.52 1555.79 1865.52 1548.69 Q1865.52 1541.56 1863.69 1538.02 Q1861.88 1534.45 1858.25 1534.45 M1858.25 1530.75 Q1864.06 1530.75 1867.11 1535.35 Q1870.19 1539.94 1870.19 1548.69 Q1870.19 1557.41 1867.11 1562.02 Q1864.06 1566.6 1858.25 1566.6 Q1852.44 1566.6 1849.36 1562.02 Q1846.3 1557.41 1846.3 1548.69 Q1846.3 1539.94 1849.36 1535.35 Q1852.44 1530.75 1858.25 1530.75 Z" fill="#000000" fill-rule="evenodd" fill-opacity="1" /><path clip-path="url(#clip660)" d="M 0 0 M2162.82 1565.21 L2162.82 1560.96 Q2164.58 1561.79 2166.39 1562.23 Q2168.19 1562.67 2169.93 1562.67 Q2174.56 1562.67 2176.99 1559.57 Q2179.44 1556.44 2179.79 1550.1 Q2178.45 1552.09 2176.39 1553.15 Q2174.33 1554.22 2171.83 1554.22 Q2166.64 1554.22 2163.61 1551.09 Q2160.6 1547.95 2160.6 1542.51 Q2160.6 1537.18 2163.75 1533.96 Q2166.9 1530.75 2172.13 1530.75 Q2178.12 1530.75 2181.27 1535.35 Q2184.44 1539.94 2184.44 1548.69 Q2184.44 1556.86 2180.55 1561.74 Q2176.69 1566.6 2170.14 1566.6 Q2168.38 1566.6 2166.57 1566.26 Q2164.77 1565.91 2162.82 1565.21 M2172.13 1550.56 Q2175.27 1550.56 2177.1 1548.41 Q2178.96 1546.26 2178.96 1542.51 Q2178.96 1538.78 2177.1 1536.63 Q2175.27 1534.45 2172.13 1534.45 Q2168.98 1534.45 2167.13 1536.63 Q2165.3 1538.78 2165.3 1542.51 Q2165.3 1546.26 2167.13 1548.41 Q2168.98 1550.56 2172.13 1550.56 Z" fill="#000000" fill-rule="evenodd" fill-opacity="1" /><path clip-path="url(#clip660)" d="M 0 0 M2203.42 1546.79 Q2200.27 1546.79 2198.42 1548.94 Q2196.59 1551.09 2196.59 1554.84 Q2196.59 1558.57 2198.42 1560.75 Q2200.27 1562.9 2203.42 1562.9 Q2206.57 1562.9 2208.4 1560.75 Q2210.25 1558.57 2210.25 1554.84 Q2210.25 1551.09 2208.4 1548.94 Q2206.57 1546.79 2203.42 1546.79 M2212.71 1532.14 L2212.71 1536.39 Q2210.95 1535.56 2209.14 1535.12 Q2207.36 1534.68 2205.6 1534.68 Q2200.97 1534.68 2198.52 1537.81 Q2196.08 1540.93 2195.74 1547.25 Q2197.1 1545.24 2199.16 1544.17 Q2201.22 1543.08 2203.7 1543.08 Q2208.91 1543.08 2211.92 1546.26 Q2214.95 1549.4 2214.95 1554.84 Q2214.95 1560.17 2211.8 1563.39 Q2208.65 1566.6 2203.42 1566.6 Q2197.43 1566.6 2194.26 1562.02 Q2191.08 1557.41 2191.08 1548.69 Q2191.08 1540.49 2194.97 1535.63 Q2198.86 1530.75 2205.41 1530.75 Q2207.17 1530.75 2208.96 1531.09 Q2210.76 1531.44 2212.71 1532.14 Z" fill="#000000" fill-rule="evenodd" fill-opacity="1" /><path clip-path="url(#clip660)" d="M 0 0 M1026.17 1607.89 L1026.17 1625.74 L1034.26 1625.74 Q1038.74 1625.74 1041.19 1623.42 Q1043.65 1621.1 1043.65 1616.8 Q1043.65 1612.53 1041.19 1610.21 Q1038.74 1607.89 1034.26 1607.89 L1026.17 1607.89 M1019.74 1602.6 L1034.26 1602.6 Q1042.24 1602.6 1046.32 1606.23 Q1050.42 1609.83 1050.42 1616.8 Q1050.42 1623.83 1046.32 1627.43 Q1042.24 1631.03 1034.26 1631.03 L1026.17 1631.03 L1026.17 1650.12 L1019.74 1650.12 L1019.74 1602.6 Z" fill="#000000" fill-rule="evenodd" fill-opacity="1" /><path clip-path="url(#clip660)" d="M 0 0 M1078.31 1619.95 Q1077.32 1619.38 1076.14 1619.12 Q1075 1618.84 1073.6 1618.84 Q1068.63 1618.84 1065.96 1622.08 Q1063.32 1625.3 1063.32 1631.35 L1063.32 1650.12 L1057.43 1650.12 L1057.43 1614.48 L1063.32 1614.48 L1063.32 1620.01 Q1065.16 1616.77 1068.12 1615.21 Q1071.08 1613.62 1075.31 1613.62 Q1075.92 1613.62 1076.65 1613.71 Q1077.38 1613.78 1078.27 1613.93 L1078.31 1619.95 Z" fill="#000000" fill-rule="evenodd" fill-opacity="1" /><path clip-path="url(#clip660)" d="M 0 0 M1096.83 1618.58 Q1092.12 1618.58 1089.38 1622.27 Q1086.65 1625.93 1086.65 1632.33 Q1086.65 1638.73 1089.35 1642.42 Q1092.09 1646.08 1096.83 1646.08 Q1101.51 1646.08 1104.25 1642.39 Q1106.98 1638.7 1106.98 1632.33 Q1106.98 1626 1104.25 1622.31 Q1101.51 1618.58 1096.83 1618.58 M1096.83 1613.62 Q1104.47 1613.62 1108.83 1618.58 Q1113.19 1623.55 1113.19 1632.33 Q1113.19 1641.08 1108.83 1646.08 Q1104.47 1651.05 1096.83 1651.05 Q1089.16 1651.05 1084.8 1646.08 Q1080.47 1641.08 1080.47 1632.33 Q1080.47 1623.55 1084.8 1618.58 Q1089.16 1613.62 1096.83 1613.62 Z" fill="#000000" fill-rule="evenodd" fill-opacity="1" /><path clip-path="url(#clip660)" d="M 0 0 M1148.55 1615.84 L1148.55 1621.32 Q1146.07 1619.95 1143.55 1619.28 Q1141.07 1618.58 1138.53 1618.58 Q1132.83 1618.58 1129.68 1622.21 Q1126.53 1625.81 1126.53 1632.33 Q1126.53 1638.86 1129.68 1642.48 Q1132.83 1646.08 1138.53 1646.08 Q1141.07 1646.08 1143.55 1645.41 Q1146.07 1644.71 1148.55 1643.34 L1148.55 1648.76 Q1146.1 1649.9 1143.46 1650.47 Q1140.85 1651.05 1137.89 1651.05 Q1129.84 1651.05 1125.09 1645.99 Q1120.35 1640.93 1120.35 1632.33 Q1120.35 1623.61 1125.13 1618.61 Q1129.93 1613.62 1138.27 1613.62 Q1140.98 1613.62 1143.55 1614.19 Q1146.13 1614.73 1148.55 1615.84 Z" fill="#000000" fill-rule="evenodd" fill-opacity="1" /><path clip-path="url(#clip660)" d="M 0 0 M1189.23 1630.84 L1189.23 1633.7 L1162.3 1633.7 Q1162.68 1639.75 1165.93 1642.93 Q1169.21 1646.08 1175.03 1646.08 Q1178.41 1646.08 1181.56 1645.25 Q1184.74 1644.43 1187.86 1642.77 L1187.86 1648.31 Q1184.71 1649.65 1181.4 1650.35 Q1178.09 1651.05 1174.68 1651.05 Q1166.15 1651.05 1161.16 1646.08 Q1156.19 1641.12 1156.19 1632.65 Q1156.19 1623.9 1160.9 1618.77 Q1165.64 1613.62 1173.66 1613.62 Q1180.86 1613.62 1185.03 1618.26 Q1189.23 1622.88 1189.23 1630.84 M1183.37 1629.12 Q1183.31 1624.31 1180.67 1621.45 Q1178.06 1618.58 1173.73 1618.58 Q1168.83 1618.58 1165.87 1621.35 Q1162.94 1624.12 1162.49 1629.15 L1183.37 1629.12 Z" fill="#000000" fill-rule="evenodd" fill-opacity="1" /><path clip-path="url(#clip660)" d="M 0 0 M1221.57 1615.53 L1221.57 1621.06 Q1219.08 1619.79 1216.41 1619.15 Q1213.74 1618.52 1210.87 1618.52 Q1206.51 1618.52 1204.32 1619.85 Q1202.15 1621.19 1202.15 1623.87 Q1202.15 1625.9 1203.71 1627.08 Q1205.27 1628.23 1209.98 1629.28 L1211.99 1629.72 Q1218.22 1631.06 1220.83 1633.51 Q1223.48 1635.93 1223.48 1640.29 Q1223.48 1645.25 1219.53 1648.15 Q1215.61 1651.05 1208.74 1651.05 Q1205.88 1651.05 1202.76 1650.47 Q1199.67 1649.93 1196.23 1648.82 L1196.23 1642.77 Q1199.48 1644.46 1202.63 1645.32 Q1205.78 1646.15 1208.87 1646.15 Q1213 1646.15 1215.23 1644.74 Q1217.46 1643.31 1217.46 1640.73 Q1217.46 1638.35 1215.84 1637.07 Q1214.25 1635.8 1208.8 1634.62 L1206.77 1634.15 Q1201.32 1633 1198.9 1630.64 Q1196.49 1628.26 1196.49 1624.12 Q1196.49 1619.09 1200.05 1616.35 Q1203.62 1613.62 1210.17 1613.62 Q1213.42 1613.62 1216.28 1614.09 Q1219.15 1614.57 1221.57 1615.53 Z" fill="#000000" fill-rule="evenodd" fill-opacity="1" /><path clip-path="url(#clip660)" d="M 0 0 M1255.53 1615.53 L1255.53 1621.06 Q1253.04 1619.79 1250.37 1619.15 Q1247.7 1618.52 1244.83 1618.52 Q1240.47 1618.52 1238.28 1619.85 Q1236.11 1621.19 1236.11 1623.87 Q1236.11 1625.9 1237.67 1627.08 Q1239.23 1628.23 1243.94 1629.28 L1245.95 1629.72 Q1252.19 1631.06 1254.8 1633.51 Q1257.44 1635.93 1257.44 1640.29 Q1257.44 1645.25 1253.49 1648.15 Q1249.58 1651.05 1242.7 1651.05 Q1239.84 1651.05 1236.72 1650.47 Q1233.63 1649.93 1230.19 1648.82 L1230.19 1642.77 Q1233.44 1644.46 1236.59 1645.32 Q1239.74 1646.15 1242.83 1646.15 Q1246.97 1646.15 1249.19 1644.74 Q1251.42 1643.31 1251.42 1640.73 Q1251.42 1638.35 1249.8 1637.07 Q1248.21 1635.8 1242.76 1634.62 L1240.73 1634.15 Q1235.28 1633 1232.87 1630.64 Q1230.45 1628.26 1230.45 1624.12 Q1230.45 1619.09 1234.01 1616.35 Q1237.58 1613.62 1244.13 1613.62 Q1247.38 1613.62 1250.24 1614.09 Q1253.11 1614.57 1255.53 1615.53 Z" fill="#000000" fill-rule="evenodd" fill-opacity="1" /><path clip-path="url(#clip660)" d="M 0 0 M1297.25 1630.84 L1297.25 1633.7 L1270.33 1633.7 Q1270.71 1639.75 1273.96 1642.93 Q1277.23 1646.08 1283.06 1646.08 Q1286.43 1646.08 1289.58 1645.25 Q1292.77 1644.43 1295.89 1642.77 L1295.89 1648.31 Q1292.74 1649.65 1289.42 1650.35 Q1286.11 1651.05 1282.71 1651.05 Q1274.18 1651.05 1269.18 1646.08 Q1264.22 1641.12 1264.22 1632.65 Q1264.22 1623.9 1268.93 1618.77 Q1273.67 1613.62 1281.69 1613.62 Q1288.88 1613.62 1293.05 1618.26 Q1297.25 1622.88 1297.25 1630.84 M1291.4 1629.12 Q1291.33 1624.31 1288.69 1621.45 Q1286.08 1618.58 1281.75 1618.58 Q1276.85 1618.58 1273.89 1621.35 Q1270.96 1624.12 1270.52 1629.15 L1291.4 1629.12 Z" fill="#000000" fill-rule="evenodd" fill-opacity="1" /><path clip-path="url(#clip660)" d="M 0 0 M1329.59 1615.53 L1329.59 1621.06 Q1327.11 1619.79 1324.44 1619.15 Q1321.76 1618.52 1318.9 1618.52 Q1314.54 1618.52 1312.34 1619.85 Q1310.18 1621.19 1310.18 1623.87 Q1310.18 1625.9 1311.74 1627.08 Q1313.3 1628.23 1318.01 1629.28 L1320.01 1629.72 Q1326.25 1631.06 1328.86 1633.51 Q1331.5 1635.93 1331.5 1640.29 Q1331.5 1645.25 1327.56 1648.15 Q1323.64 1651.05 1316.77 1651.05 Q1313.9 1651.05 1310.78 1650.47 Q1307.69 1649.93 1304.26 1648.82 L1304.26 1642.77 Q1307.5 1644.46 1310.65 1645.32 Q1313.81 1646.15 1316.89 1646.15 Q1321.03 1646.15 1323.26 1644.74 Q1325.49 1643.31 1325.49 1640.73 Q1325.49 1638.35 1323.86 1637.07 Q1322.27 1635.8 1316.83 1634.62 L1314.79 1634.15 Q1309.35 1633 1306.93 1630.64 Q1304.51 1628.26 1304.51 1624.12 Q1304.51 1619.09 1308.08 1616.35 Q1311.64 1613.62 1318.2 1613.62 Q1321.44 1613.62 1324.31 1614.09 Q1327.17 1614.57 1329.59 1615.53 Z" fill="#000000" fill-rule="evenodd" fill-opacity="1" /><polyline clip-path="url(#clip662)" style="stroke:#000000; stroke-width:2; stroke-opacity:0.1; fill:none" points="
  102.74,1505.26 2248.5,1505.26 
  "/>
<polyline clip-path="url(#clip662)" style="stroke:#000000; stroke-width:2; stroke-opacity:0.1; fill:none" points="
  102.74,1213.66 2248.5,1213.66 
  "/>
<polyline clip-path="url(#clip662)" style="stroke:#000000; stroke-width:2; stroke-opacity:0.1; fill:none" points="
  102.74,922.054 2248.5,922.054 
  "/>
<polyline clip-path="url(#clip662)" style="stroke:#000000; stroke-width:2; stroke-opacity:0.1; fill:none" points="
  102.74,630.45 2248.5,630.45 
  "/>
<polyline clip-path="url(#clip662)" style="stroke:#000000; stroke-width:2; stroke-opacity:0.1; fill:none" points="
  102.74,338.847 2248.5,338.847 
  "/>
<polyline clip-path="url(#clip662)" style="stroke:#000000; stroke-width:2; stroke-opacity:0.1; fill:none" points="
  102.74,47.2441 2248.5,47.2441 
  "/>
<polyline clip-path="url(#clip660)" style="stroke:#000000; stroke-width:4; stroke-opacity:1; fill:none" points="
  102.74,1505.26 102.74,47.2441 
  "/>
<polyline clip-path="url(#clip660)" style="stroke:#000000; stroke-width:4; stroke-opacity:1; fill:none" points="
  102.74,1505.26 128.489,1505.26 
  "/>
<polyline clip-path="url(#clip660)" style="stroke:#000000; stroke-width:4; stroke-opacity:1; fill:none" points="
  102.74,1213.66 128.489,1213.66 
  "/>
<polyline clip-path="url(#clip660)" style="stroke:#000000; stroke-width:4; stroke-opacity:1; fill:none" points="
  102.74,922.054 128.489,922.054 
  "/>
<polyline clip-path="url(#clip660)" style="stroke:#000000; stroke-width:4; stroke-opacity:1; fill:none" points="
  102.74,630.45 128.489,630.45 
  "/>
<polyline clip-path="url(#clip660)" style="stroke:#000000; stroke-width:4; stroke-opacity:1; fill:none" points="
  102.74,338.847 128.489,338.847 
  "/>
<polyline clip-path="url(#clip660)" style="stroke:#000000; stroke-width:4; stroke-opacity:1; fill:none" points="
  102.74,47.2441 128.489,47.2441 
  "/>
<path clip-path="url(#clip660)" d="M 0 0 M9.56454 1491.06 Q5.95345 1491.06 4.12475 1494.62 Q2.31921 1498.16 2.31921 1505.29 Q2.31921 1512.4 4.12475 1515.97 Q5.95345 1519.51 9.56454 1519.51 Q13.1988 1519.51 15.0043 1515.97 Q16.833 1512.4 16.833 1505.29 Q16.833 1498.16 15.0043 1494.62 Q13.1988 1491.06 9.56454 1491.06 M9.56454 1487.35 Q15.3747 1487.35 18.4302 1491.96 Q21.5089 1496.54 21.5089 1505.29 Q21.5089 1514.02 18.4302 1518.63 Q15.3747 1523.21 9.56454 1523.21 Q3.75438 1523.21 0.675697 1518.63 Q-2.37984 1514.02 -2.37984 1505.29 Q-2.37984 1496.54 0.675697 1491.96 Q3.75438 1487.35 9.56454 1487.35 Z" fill="#000000" fill-rule="evenodd" fill-opacity="1" /><path clip-path="url(#clip660)" d="M 0 0 M29.7265 1516.66 L34.6107 1516.66 L34.6107 1522.54 L29.7265 1522.54 L29.7265 1516.66 Z" fill="#000000" fill-rule="evenodd" fill-opacity="1" /><path clip-path="url(#clip660)" d="M 0 0 M54.7958 1491.06 Q51.1847 1491.06 49.356 1494.62 Q47.5504 1498.16 47.5504 1505.29 Q47.5504 1512.4 49.356 1515.97 Q51.1847 1519.51 54.7958 1519.51 Q58.43 1519.51 60.2356 1515.97 Q62.0643 1512.4 62.0643 1505.29 Q62.0643 1498.16 60.2356 1494.62 Q58.43 1491.06 54.7958 1491.06 M54.7958 1487.35 Q60.6059 1487.35 63.6615 1491.96 Q66.7402 1496.54 66.7402 1505.29 Q66.7402 1514.02 63.6615 1518.63 Q60.6059 1523.21 54.7958 1523.21 Q48.9856 1523.21 45.9069 1518.63 Q42.8514 1514.02 42.8514 1505.29 Q42.8514 1496.54 45.9069 1491.96 Q48.9856 1487.35 54.7958 1487.35 Z" fill="#000000" fill-rule="evenodd" fill-opacity="1" /><path clip-path="url(#clip660)" d="M 0 0 M10.5599 1199.46 Q6.94881 1199.46 5.12012 1203.02 Q3.31457 1206.56 3.31457 1213.69 Q3.31457 1220.8 5.12012 1224.36 Q6.94881 1227.9 10.5599 1227.9 Q14.1941 1227.9 15.9997 1224.36 Q17.8284 1220.8 17.8284 1213.69 Q17.8284 1206.56 15.9997 1203.02 Q14.1941 1199.46 10.5599 1199.46 M10.5599 1195.75 Q16.3701 1195.75 19.4256 1200.36 Q22.5043 1204.94 22.5043 1213.69 Q22.5043 1222.42 19.4256 1227.02 Q16.3701 1231.61 10.5599 1231.61 Q4.74975 1231.61 1.67106 1227.02 Q-1.38448 1222.42 -1.38448 1213.69 Q-1.38448 1204.94 1.67106 1200.36 Q4.74975 1195.75 10.5599 1195.75 Z" fill="#000000" fill-rule="evenodd" fill-opacity="1" /><path clip-path="url(#clip660)" d="M 0 0 M30.7218 1225.06 L35.6061 1225.06 L35.6061 1230.94 L30.7218 1230.94 L30.7218 1225.06 Z" fill="#000000" fill-rule="evenodd" fill-opacity="1" /><path clip-path="url(#clip660)" d="M 0 0 M45.8375 1196.38 L64.1939 1196.38 L64.1939 1200.31 L50.1199 1200.31 L50.1199 1208.78 Q51.1384 1208.44 52.1569 1208.27 Q53.1754 1208.09 54.1939 1208.09 Q59.9809 1208.09 63.3605 1211.26 Q66.7402 1214.43 66.7402 1219.85 Q66.7402 1225.43 63.268 1228.53 Q59.7958 1231.61 53.4763 1231.61 Q51.3004 1231.61 49.0319 1231.24 Q46.7866 1230.87 44.3792 1230.13 L44.3792 1225.43 Q46.4625 1226.56 48.6847 1227.12 Q50.9069 1227.67 53.3837 1227.67 Q57.3884 1227.67 59.7263 1225.57 Q62.0643 1223.46 62.0643 1219.85 Q62.0643 1216.24 59.7263 1214.13 Q57.3884 1212.02 53.3837 1212.02 Q51.5088 1212.02 49.6338 1212.44 Q47.7819 1212.86 45.8375 1213.74 L45.8375 1196.38 Z" fill="#000000" fill-rule="evenodd" fill-opacity="1" /><path clip-path="url(#clip660)" d="M 0 0 M0.374772 935.398 L8.01362 935.398 L8.01362 909.033 L-0.29652 910.699 L-0.29652 906.44 L7.96732 904.774 L12.6432 904.774 L12.6432 935.398 L20.2821 935.398 L20.2821 939.334 L0.374772 939.334 L0.374772 935.398 Z" fill="#000000" fill-rule="evenodd" fill-opacity="1" /><path clip-path="url(#clip660)" d="M 0 0 M29.7265 933.454 L34.6107 933.454 L34.6107 939.334 L29.7265 939.334 L29.7265 933.454 Z" fill="#000000" fill-rule="evenodd" fill-opacity="1" /><path clip-path="url(#clip660)" d="M 0 0 M54.7958 907.852 Q51.1847 907.852 49.356 911.417 Q47.5504 914.959 47.5504 922.088 Q47.5504 929.195 49.356 932.76 Q51.1847 936.301 54.7958 936.301 Q58.43 936.301 60.2356 932.76 Q62.0643 929.195 62.0643 922.088 Q62.0643 914.959 60.2356 911.417 Q58.43 907.852 54.7958 907.852 M54.7958 904.149 Q60.6059 904.149 63.6615 908.755 Q66.7402 913.338 66.7402 922.088 Q66.7402 930.815 63.6615 935.422 Q60.6059 940.005 54.7958 940.005 Q48.9856 940.005 45.9069 935.422 Q42.8514 930.815 42.8514 922.088 Q42.8514 913.338 45.9069 908.755 Q48.9856 904.149 54.7958 904.149 Z" fill="#000000" fill-rule="evenodd" fill-opacity="1" /><path clip-path="url(#clip660)" d="M 0 0 M1.37014 643.795 L9.00899 643.795 L9.00899 617.43 L0.698845 619.096 L0.698845 614.837 L8.96269 613.17 L13.6386 613.17 L13.6386 643.795 L21.2774 643.795 L21.2774 647.73 L1.37014 647.73 L1.37014 643.795 Z" fill="#000000" fill-rule="evenodd" fill-opacity="1" /><path clip-path="url(#clip660)" d="M 0 0 M30.7218 641.851 L35.6061 641.851 L35.6061 647.73 L30.7218 647.73 L30.7218 641.851 Z" fill="#000000" fill-rule="evenodd" fill-opacity="1" /><path clip-path="url(#clip660)" d="M 0 0 M45.8375 613.17 L64.1939 613.17 L64.1939 617.106 L50.1199 617.106 L50.1199 625.578 Q51.1384 625.231 52.1569 625.068 Q53.1754 624.883 54.1939 624.883 Q59.9809 624.883 63.3605 628.055 Q66.7402 631.226 66.7402 636.642 Q66.7402 642.221 63.268 645.323 Q59.7958 648.402 53.4763 648.402 Q51.3004 648.402 49.0319 648.031 Q46.7866 647.661 44.3792 646.92 L44.3792 642.221 Q46.4625 643.355 48.6847 643.911 Q50.9069 644.467 53.3837 644.467 Q57.3884 644.467 59.7263 642.36 Q62.0643 640.254 62.0643 636.642 Q62.0643 633.031 59.7263 630.925 Q57.3884 628.818 53.3837 628.818 Q51.5088 628.818 49.6338 629.235 Q47.7819 629.652 45.8375 630.531 L45.8375 613.17 Z" fill="#000000" fill-rule="evenodd" fill-opacity="1" /><path clip-path="url(#clip660)" d="M 0 0 M3.59235 352.192 L19.9117 352.192 L19.9117 356.127 L-2.03262 356.127 L-2.03262 352.192 Q0.629401 349.437 5.21271 344.808 Q9.81917 340.155 10.9997 338.813 Q13.2451 336.289 14.1247 334.553 Q15.0275 332.794 15.0275 331.104 Q15.0275 328.35 13.083 326.614 Q11.1618 324.877 8.05992 324.877 Q5.86085 324.877 3.40716 325.641 Q0.976621 326.405 -1.80114 327.956 L-1.80114 323.234 Q1.02292 322.1 3.47661 321.521 Q5.9303 320.942 7.96732 320.942 Q13.3377 320.942 16.5321 323.627 Q19.7265 326.313 19.7265 330.803 Q19.7265 332.933 18.9163 334.854 Q18.1293 336.752 16.0228 339.345 Q15.4441 340.016 12.3423 343.234 Q9.24047 346.428 3.59235 352.192 Z" fill="#000000" fill-rule="evenodd" fill-opacity="1" /><path clip-path="url(#clip660)" d="M 0 0 M29.7265 350.248 L34.6107 350.248 L34.6107 356.127 L29.7265 356.127 L29.7265 350.248 Z" fill="#000000" fill-rule="evenodd" fill-opacity="1" /><path clip-path="url(#clip660)" d="M 0 0 M54.7958 324.646 Q51.1847 324.646 49.356 328.211 Q47.5504 331.752 47.5504 338.882 Q47.5504 345.988 49.356 349.553 Q51.1847 353.095 54.7958 353.095 Q58.43 353.095 60.2356 349.553 Q62.0643 345.988 62.0643 338.882 Q62.0643 331.752 60.2356 328.211 Q58.43 324.646 54.7958 324.646 M54.7958 320.942 Q60.6059 320.942 63.6615 325.549 Q66.7402 330.132 66.7402 338.882 Q66.7402 347.609 63.6615 352.215 Q60.6059 356.799 54.7958 356.799 Q48.9856 356.799 45.9069 352.215 Q42.8514 347.609 42.8514 338.882 Q42.8514 330.132 45.9069 325.549 Q48.9856 320.942 54.7958 320.942 Z" fill="#000000" fill-rule="evenodd" fill-opacity="1" /><path clip-path="url(#clip660)" d="M 0 0 M4.58771 60.5889 L20.9071 60.5889 L20.9071 64.5241 L-1.03726 64.5241 L-1.03726 60.5889 Q1.62477 57.8343 6.20807 53.2047 Q10.8145 48.552 11.9951 47.2094 Q14.2404 44.6862 15.1201 42.9501 Q16.0228 41.1909 16.0228 39.5011 Q16.0228 36.7465 14.0784 35.0104 Q12.1571 33.2743 9.05528 33.2743 Q6.85622 33.2743 4.40253 34.0381 Q1.97199 34.802 -0.805777 36.3529 L-0.805777 31.6308 Q2.01828 30.4965 4.47197 29.9178 Q6.92566 29.3391 8.96269 29.3391 Q14.333 29.3391 17.5275 32.0243 Q20.7219 34.7094 20.7219 39.2002 Q20.7219 41.3298 19.9117 43.2511 Q19.1247 45.1492 17.0182 47.7418 Q16.4395 48.4131 13.3377 51.6306 Q10.2358 54.8251 4.58771 60.5889 Z" fill="#000000" fill-rule="evenodd" fill-opacity="1" /><path clip-path="url(#clip660)" d="M 0 0 M30.7218 58.6445 L35.6061 58.6445 L35.6061 64.5241 L30.7218 64.5241 L30.7218 58.6445 Z" fill="#000000" fill-rule="evenodd" fill-opacity="1" /><path clip-path="url(#clip660)" d="M 0 0 M45.8375 29.9641 L64.1939 29.9641 L64.1939 33.8993 L50.1199 33.8993 L50.1199 42.3714 Q51.1384 42.0242 52.1569 41.8622 Q53.1754 41.677 54.1939 41.677 Q59.9809 41.677 63.3605 44.8483 Q66.7402 48.0196 66.7402 53.4362 Q66.7402 59.0149 63.268 62.1167 Q59.7958 65.1954 53.4763 65.1954 Q51.3004 65.1954 49.0319 64.825 Q46.7866 64.4547 44.3792 63.7139 L44.3792 59.0149 Q46.4625 60.1491 48.6847 60.7047 Q50.9069 61.2602 53.3837 61.2602 Q57.3884 61.2602 59.7263 59.1538 Q62.0643 57.0473 62.0643 53.4362 Q62.0643 49.8251 59.7263 47.7186 Q57.3884 45.6122 53.3837 45.6122 Q51.5088 45.6122 49.6338 46.0288 Q47.7819 46.4455 45.8375 47.3251 L45.8375 29.9641 Z" fill="#000000" fill-rule="evenodd" fill-opacity="1" /><path clip-path="url(#clip660)" d="M 0 0 M-100.156 906.081 L-100.156 865.881 L-94.745 865.881 L-94.745 882.75 L-52.6358 882.75 L-52.6358 889.211 L-94.745 889.211 L-94.745 906.081 L-100.156 906.081 Z" fill="#000000" fill-rule="evenodd" fill-opacity="1" /><path clip-path="url(#clip660)" d="M 0 0 M-88.2838 861.934 L-88.2838 856.078 L-52.6358 856.078 L-52.6358 861.934 L-88.2838 861.934 M-102.161 861.934 L-102.161 856.078 L-94.745 856.078 L-94.745 861.934 L-102.161 861.934 Z" fill="#000000" fill-rule="evenodd" fill-opacity="1" /><path clip-path="url(#clip660)" d="M 0 0 M-81.4407 816.069 Q-85.3874 813.873 -87.2653 810.818 Q-89.1432 807.762 -89.1432 803.625 Q-89.1432 798.055 -85.2283 795.031 Q-81.3452 792.007 -74.1519 792.007 L-52.6358 792.007 L-52.6358 797.895 L-73.961 797.895 Q-79.0854 797.895 -81.568 799.71 Q-84.0506 801.524 -84.0506 805.248 Q-84.0506 809.799 -81.0269 812.441 Q-78.0032 815.083 -72.7833 815.083 L-52.6358 815.083 L-52.6358 820.971 L-73.961 820.971 Q-79.1172 820.971 -81.568 822.785 Q-84.0506 824.6 -84.0506 828.387 Q-84.0506 832.875 -80.9951 835.517 Q-77.9714 838.158 -72.7833 838.158 L-52.6358 838.158 L-52.6358 844.047 L-88.2838 844.047 L-88.2838 838.158 L-82.7456 838.158 Q-86.024 836.153 -87.5836 833.352 Q-89.1432 830.551 -89.1432 826.7 Q-89.1432 822.817 -87.1698 820.112 Q-85.1964 817.374 -81.4407 816.069 Z" fill="#000000" fill-rule="evenodd" fill-opacity="1" /><path clip-path="url(#clip660)" d="M 0 0 M-71.9239 749.834 L-69.0594 749.834 L-69.0594 776.761 Q-63.0119 776.379 -59.8291 773.133 Q-56.6781 769.854 -56.6781 764.03 Q-56.6781 760.656 -57.5056 757.505 Q-58.3331 754.322 -59.9882 751.203 L-54.4501 751.203 Q-53.1133 754.354 -52.413 757.664 Q-51.7128 760.974 -51.7128 764.38 Q-51.7128 772.91 -56.6781 777.907 Q-61.6433 782.872 -70.1097 782.872 Q-78.8626 782.872 -83.9869 778.162 Q-89.1432 773.419 -89.1432 765.398 Q-89.1432 758.205 -84.4962 754.036 Q-79.8811 749.834 -71.9239 749.834 M-73.6427 755.691 Q-78.4488 755.754 -81.3134 758.396 Q-84.1779 761.006 -84.1779 765.335 Q-84.1779 770.236 -81.4088 773.196 Q-78.6398 776.125 -73.6108 776.57 L-73.6427 755.691 Z" fill="#000000" fill-rule="evenodd" fill-opacity="1" /><path clip-path="url(#clip660)" d="M 0 0 M-102.097 705.433 Q-94.7768 709.699 -87.6154 711.767 Q-80.454 713.836 -73.1016 713.836 Q-65.7492 713.836 -58.5241 711.767 Q-51.3309 709.667 -44.0421 705.433 L-44.0421 710.526 Q-51.5218 715.3 -58.7469 717.687 Q-65.972 720.043 -73.1016 720.043 Q-80.1994 720.043 -87.3926 717.687 Q-94.5858 715.332 -102.097 710.526 L-102.097 705.433 Z" fill="#000000" fill-rule="evenodd" fill-opacity="1" /><path clip-path="url(#clip660)" d="M 0 0 M-87.2335 671.345 L-81.6953 671.345 Q-82.9684 673.828 -83.605 676.501 Q-84.2416 679.175 -84.2416 682.04 Q-84.2416 686.4 -82.9048 688.596 Q-81.568 690.761 -78.8944 690.761 Q-76.8574 690.761 -75.6797 689.201 Q-74.5339 687.641 -73.4835 682.931 L-73.0379 680.926 Q-71.7011 674.687 -69.2503 672.077 Q-66.8314 669.435 -62.4709 669.435 Q-57.5056 669.435 -54.6092 673.382 Q-51.7128 677.297 -51.7128 684.172 Q-51.7128 687.037 -52.2857 690.156 Q-52.8268 693.243 -53.9408 696.681 L-59.9882 696.681 Q-58.3013 693.434 -57.442 690.283 Q-56.6144 687.132 -56.6144 684.045 Q-56.6144 679.907 -58.0149 677.679 Q-59.4471 675.451 -62.0253 675.451 Q-64.4124 675.451 -65.6855 677.074 Q-66.9587 678.666 -68.1363 684.108 L-68.6138 686.145 Q-69.7596 691.588 -72.1149 694.007 Q-74.502 696.426 -78.6398 696.426 Q-83.6687 696.426 -86.4059 692.861 Q-89.1432 689.296 -89.1432 682.74 Q-89.1432 679.493 -88.6657 676.629 Q-88.1883 673.764 -87.2335 671.345 Z" fill="#000000" fill-rule="evenodd" fill-opacity="1" /><path clip-path="url(#clip660)" d="M 0 0 M-102.097 661.033 L-102.097 655.94 Q-94.5858 651.166 -87.3926 648.811 Q-80.1994 646.423 -73.1016 646.423 Q-65.972 646.423 -58.7469 648.811 Q-51.5218 651.166 -44.0421 655.94 L-44.0421 661.033 Q-51.3309 656.799 -58.5241 654.731 Q-65.7492 652.63 -73.1016 652.63 Q-80.454 652.63 -87.6154 654.731 Q-94.7768 656.799 -102.097 661.033 Z" fill="#000000" fill-rule="evenodd" fill-opacity="1" /><circle clip-path="url(#clip662)" cx="163.469" cy="876.454" r="14" fill="#009af9" fill-rule="evenodd" fill-opacity="1" stroke="#000000" stroke-opacity="1" stroke-width="3.2"/>
<circle clip-path="url(#clip662)" cx="206.54" cy="802.145" r="14" fill="#009af9" fill-rule="evenodd" fill-opacity="1" stroke="#000000" stroke-opacity="1" stroke-width="3.2"/>
<circle clip-path="url(#clip662)" cx="292.68" cy="642.089" r="14" fill="#009af9" fill-rule="evenodd" fill-opacity="1" stroke="#000000" stroke-opacity="1" stroke-width="3.2"/>
<circle clip-path="url(#clip662)" cx="464.962" cy="700.842" r="14" fill="#009af9" fill-rule="evenodd" fill-opacity="1" stroke="#000000" stroke-opacity="1" stroke-width="3.2"/>
<circle clip-path="url(#clip662)" cx="809.524" cy="702.86" r="14" fill="#009af9" fill-rule="evenodd" fill-opacity="1" stroke="#000000" stroke-opacity="1" stroke-width="3.2"/>
<circle clip-path="url(#clip662)" cx="1154.09" cy="518.692" r="14" fill="#009af9" fill-rule="evenodd" fill-opacity="1" stroke="#000000" stroke-opacity="1" stroke-width="3.2"/>
<circle clip-path="url(#clip662)" cx="1498.65" cy="491.812" r="14" fill="#009af9" fill-rule="evenodd" fill-opacity="1" stroke="#000000" stroke-opacity="1" stroke-width="3.2"/>
<circle clip-path="url(#clip662)" cx="1843.21" cy="430.261" r="14" fill="#009af9" fill-rule="evenodd" fill-opacity="1" stroke="#000000" stroke-opacity="1" stroke-width="3.2"/>
<circle clip-path="url(#clip662)" cx="2187.77" cy="304.294" r="14" fill="#009af9" fill-rule="evenodd" fill-opacity="1" stroke="#000000" stroke-opacity="1" stroke-width="3.2"/>
<polyline clip-path="url(#clip662)" style="stroke:#009af9; stroke-width:4; stroke-opacity:1; fill:none" points="
  163.469,792.338 2187.77,321.887 
  "/>
<circle clip-path="url(#clip662)" cx="163.469" cy="792.338" r="14" fill="#009af9" fill-rule="evenodd" fill-opacity="1" stroke="#000000" stroke-opacity="1" stroke-width="3.2"/>
<circle clip-path="url(#clip662)" cx="2187.77" cy="321.887" r="14" fill="#009af9" fill-rule="evenodd" fill-opacity="1" stroke="#000000" stroke-opacity="1" stroke-width="3.2"/>
<path clip-path="url(#clip660)" d="
M174.266 216.805 L526.317 216.805 L526.317 95.8446 L174.266 95.8446  Z
  " fill="#ffffff" fill-rule="evenodd" fill-opacity="1"/>
<polyline clip-path="url(#clip660)" style="stroke:#000000; stroke-width:4; stroke-opacity:1; fill:none" points="
  174.266,216.805 526.317,216.805 526.317,95.8446 174.266,95.8446 174.266,216.805 
  "/>
<circle clip-path="url(#clip660)" cx="269.633" cy="156.325" r="23" fill="#009af9" fill-rule="evenodd" fill-opacity="1" stroke="#000000" stroke-opacity="1" stroke-width="5.12"/>
<path clip-path="url(#clip660)" d="M 0 0 M365 139.045 L394.236 139.045 L394.236 142.98 L381.968 142.98 L381.968 173.605 L377.269 173.605 L377.269 142.98 L365 142.98 L365 139.045 Z" fill="#000000" fill-rule="evenodd" fill-opacity="1" /><path clip-path="url(#clip660)" d="M 0 0 M397.106 147.679 L401.366 147.679 L401.366 173.605 L397.106 173.605 L397.106 147.679 M397.106 137.586 L401.366 137.586 L401.366 142.98 L397.106 142.98 L397.106 137.586 Z" fill="#000000" fill-rule="evenodd" fill-opacity="1" /><path clip-path="url(#clip660)" d="M 0 0 M430.463 152.656 Q432.06 149.785 434.282 148.42 Q436.504 147.054 439.514 147.054 Q443.565 147.054 445.764 149.901 Q447.963 152.725 447.963 157.957 L447.963 173.605 L443.68 173.605 L443.68 158.095 Q443.68 154.369 442.361 152.563 Q441.041 150.758 438.333 150.758 Q435.023 150.758 433.102 152.957 Q431.18 155.156 431.18 158.952 L431.18 173.605 L426.898 173.605 L426.898 158.095 Q426.898 154.345 425.579 152.563 Q424.259 150.758 421.505 150.758 Q418.241 150.758 416.319 152.98 Q414.398 155.179 414.398 158.952 L414.398 173.605 L410.116 173.605 L410.116 147.679 L414.398 147.679 L414.398 151.707 Q415.856 149.322 417.893 148.188 Q419.93 147.054 422.731 147.054 Q425.555 147.054 427.523 148.489 Q429.514 149.924 430.463 152.656 Z" fill="#000000" fill-rule="evenodd" fill-opacity="1" /><path clip-path="url(#clip660)" d="M 0 0 M478.634 159.577 L478.634 161.66 L459.051 161.66 Q459.328 166.058 461.689 168.373 Q464.074 170.665 468.31 170.665 Q470.763 170.665 473.055 170.063 Q475.37 169.461 477.638 168.257 L477.638 172.285 Q475.347 173.257 472.939 173.767 Q470.532 174.276 468.055 174.276 Q461.852 174.276 458.217 170.665 Q454.606 167.054 454.606 160.896 Q454.606 154.531 458.032 150.804 Q461.481 147.054 467.314 147.054 Q472.546 147.054 475.578 150.433 Q478.634 153.79 478.634 159.577 M474.375 158.327 Q474.328 154.832 472.407 152.748 Q470.509 150.665 467.361 150.665 Q463.796 150.665 461.643 152.679 Q459.514 154.693 459.189 158.35 L474.375 158.327 Z" fill="#000000" fill-rule="evenodd" fill-opacity="1" /><path clip-path="url(#clip660)" d="
M102.74 1505.26 L2248.5 1505.26 L2248.5 47.2441 L102.74 47.2441  Z
  " fill="#000000" fill-rule="evenodd" fill-opacity="0"/>
<polyline clip-path="url(#clip660)" style="stroke:#000000; stroke-width:4; stroke-opacity:1; fill:none" points="
  102.74,1505.26 2248.5,1505.26 
  "/>
<polyline clip-path="url(#clip662)" style="stroke:#000000; stroke-width:2; stroke-opacity:0.1; fill:none" points="
  102.74,1505.26 2248.5,1505.26 
  "/>
<polyline clip-path="url(#clip662)" style="stroke:#000000; stroke-width:2; stroke-opacity:0.1; fill:none" points="
  102.74,1296.97 2248.5,1296.97 
  "/>
<polyline clip-path="url(#clip662)" style="stroke:#000000; stroke-width:2; stroke-opacity:0.1; fill:none" points="
  102.74,1088.68 2248.5,1088.68 
  "/>
<polyline clip-path="url(#clip662)" style="stroke:#000000; stroke-width:2; stroke-opacity:0.1; fill:none" points="
  102.74,880.396 2248.5,880.396 
  "/>
<polyline clip-path="url(#clip662)" style="stroke:#000000; stroke-width:2; stroke-opacity:0.1; fill:none" points="
  102.74,672.108 2248.5,672.108 
  "/>
<polyline clip-path="url(#clip662)" style="stroke:#000000; stroke-width:2; stroke-opacity:0.1; fill:none" points="
  102.74,463.82 2248.5,463.82 
  "/>
<polyline clip-path="url(#clip662)" style="stroke:#000000; stroke-width:2; stroke-opacity:0.1; fill:none" points="
  102.74,255.532 2248.5,255.532 
  "/>
<polyline clip-path="url(#clip662)" style="stroke:#000000; stroke-width:2; stroke-opacity:0.1; fill:none" points="
  102.74,47.2441 2248.5,47.2441 
  "/>
<polyline clip-path="url(#clip660)" style="stroke:#000000; stroke-width:4; stroke-opacity:1; fill:none" points="
  2248.5,1505.26 2248.5,47.2441 
  "/>
<polyline clip-path="url(#clip660)" style="stroke:#000000; stroke-width:4; stroke-opacity:1; fill:none" points="
  2248.5,1505.26 2222.75,1505.26 
  "/>
<polyline clip-path="url(#clip660)" style="stroke:#000000; stroke-width:4; stroke-opacity:1; fill:none" points="
  2248.5,1296.97 2222.75,1296.97 
  "/>
<polyline clip-path="url(#clip660)" style="stroke:#000000; stroke-width:4; stroke-opacity:1; fill:none" points="
  2248.5,1088.68 2222.75,1088.68 
  "/>
<polyline clip-path="url(#clip660)" style="stroke:#000000; stroke-width:4; stroke-opacity:1; fill:none" points="
  2248.5,880.396 2222.75,880.396 
  "/>
<polyline clip-path="url(#clip660)" style="stroke:#000000; stroke-width:4; stroke-opacity:1; fill:none" points="
  2248.5,672.108 2222.75,672.108 
  "/>
<polyline clip-path="url(#clip660)" style="stroke:#000000; stroke-width:4; stroke-opacity:1; fill:none" points="
  2248.5,463.82 2222.75,463.82 
  "/>
<polyline clip-path="url(#clip660)" style="stroke:#000000; stroke-width:4; stroke-opacity:1; fill:none" points="
  2248.5,255.532 2222.75,255.532 
  "/>
<polyline clip-path="url(#clip660)" style="stroke:#000000; stroke-width:4; stroke-opacity:1; fill:none" points="
  2248.5,47.2441 2222.75,47.2441 
  "/>
<path clip-path="url(#clip660)" d="M 0 0 M2296.45 1491.06 Q2292.84 1491.06 2291.01 1494.62 Q2289.2 1498.16 2289.2 1505.29 Q2289.2 1512.4 2291.01 1515.97 Q2292.84 1519.51 2296.45 1519.51 Q2300.08 1519.51 2301.89 1515.97 Q2303.72 1512.4 2303.72 1505.29 Q2303.72 1498.16 2301.89 1494.62 Q2300.08 1491.06 2296.45 1491.06 M2296.45 1487.35 Q2302.26 1487.35 2305.31 1491.96 Q2308.39 1496.54 2308.39 1505.29 Q2308.39 1514.02 2305.31 1518.63 Q2302.26 1523.21 2296.45 1523.21 Q2290.64 1523.21 2287.56 1518.63 Q2284.5 1514.02 2284.5 1505.29 Q2284.5 1496.54 2287.56 1491.96 Q2290.64 1487.35 2296.45 1487.35 Z" fill="#000000" fill-rule="evenodd" fill-opacity="1" /><path clip-path="url(#clip660)" d="M 0 0 M2285.96 1279.69 L2304.32 1279.69 L2304.32 1283.63 L2290.24 1283.63 L2290.24 1292.1 Q2291.26 1291.75 2292.28 1291.59 Q2293.3 1291.4 2294.32 1291.4 Q2300.11 1291.4 2303.49 1294.58 Q2306.86 1297.75 2306.86 1303.16 Q2306.86 1308.74 2303.39 1311.84 Q2299.92 1314.92 2293.6 1314.92 Q2291.43 1314.92 2289.16 1314.55 Q2286.91 1314.18 2284.5 1313.44 L2284.5 1308.74 Q2286.59 1309.88 2288.81 1310.43 Q2291.03 1310.99 2293.51 1310.99 Q2297.51 1310.99 2299.85 1308.88 Q2302.19 1306.78 2302.19 1303.16 Q2302.19 1299.55 2299.85 1297.45 Q2297.51 1295.34 2293.51 1295.34 Q2291.63 1295.34 2289.76 1295.76 Q2287.91 1296.17 2285.96 1297.05 L2285.96 1279.69 Z" fill="#000000" fill-rule="evenodd" fill-opacity="1" /><path clip-path="url(#clip660)" d="M 0 0 M2285.18 1102.03 L2292.81 1102.03 L2292.81 1075.66 L2284.5 1077.33 L2284.5 1073.07 L2292.77 1071.4 L2297.44 1071.4 L2297.44 1102.03 L2305.08 1102.03 L2305.08 1105.96 L2285.18 1105.96 L2285.18 1102.03 Z" fill="#000000" fill-rule="evenodd" fill-opacity="1" /><path clip-path="url(#clip660)" d="M 0 0 M2324.53 1074.48 Q2320.92 1074.48 2319.09 1078.05 Q2317.28 1081.59 2317.28 1088.72 Q2317.28 1095.83 2319.09 1099.39 Q2320.92 1102.93 2324.53 1102.93 Q2328.16 1102.93 2329.97 1099.39 Q2331.8 1095.83 2331.8 1088.72 Q2331.8 1081.59 2329.97 1078.05 Q2328.16 1074.48 2324.53 1074.48 M2324.53 1070.78 Q2330.34 1070.78 2333.39 1075.39 Q2336.47 1079.97 2336.47 1088.72 Q2336.47 1097.45 2333.39 1102.05 Q2330.34 1106.64 2324.53 1106.64 Q2318.72 1106.64 2315.64 1102.05 Q2312.58 1097.45 2312.58 1088.72 Q2312.58 1079.97 2315.64 1075.39 Q2318.72 1070.78 2324.53 1070.78 Z" fill="#000000" fill-rule="evenodd" fill-opacity="1" /><path clip-path="url(#clip660)" d="M 0 0 M2285.18 893.741 L2292.81 893.741 L2292.81 867.375 L2284.5 869.042 L2284.5 864.783 L2292.77 863.116 L2297.44 863.116 L2297.44 893.741 L2305.08 893.741 L2305.08 897.676 L2285.18 897.676 L2285.18 893.741 Z" fill="#000000" fill-rule="evenodd" fill-opacity="1" /><path clip-path="url(#clip660)" d="M 0 0 M2314.57 863.116 L2332.93 863.116 L2332.93 867.051 L2318.86 867.051 L2318.86 875.523 Q2319.87 875.176 2320.89 875.014 Q2321.91 874.829 2322.93 874.829 Q2328.72 874.829 2332.1 878 Q2335.48 881.171 2335.48 886.588 Q2335.48 892.167 2332 895.269 Q2328.53 898.347 2322.21 898.347 Q2320.04 898.347 2317.77 897.977 Q2315.52 897.607 2313.11 896.866 L2313.11 892.167 Q2315.2 893.301 2317.42 893.857 Q2319.64 894.412 2322.12 894.412 Q2326.12 894.412 2328.46 892.306 Q2330.8 890.199 2330.8 886.588 Q2330.8 882.977 2328.46 880.87 Q2326.12 878.764 2322.12 878.764 Q2320.24 878.764 2318.37 879.181 Q2316.52 879.597 2314.57 880.477 L2314.57 863.116 Z" fill="#000000" fill-rule="evenodd" fill-opacity="1" /><path clip-path="url(#clip660)" d="M 0 0 M2290.13 685.453 L2306.45 685.453 L2306.45 689.388 L2284.5 689.388 L2284.5 685.453 Q2287.17 682.698 2291.75 678.069 Q2296.36 673.416 2297.54 672.073 Q2299.78 669.55 2300.66 667.814 Q2301.56 666.055 2301.56 664.365 Q2301.56 661.61 2299.62 659.874 Q2297.7 658.138 2294.6 658.138 Q2292.4 658.138 2289.94 658.902 Q2287.51 659.666 2284.74 661.217 L2284.74 656.495 Q2287.56 655.36 2290.01 654.782 Q2292.47 654.203 2294.5 654.203 Q2299.87 654.203 2303.07 656.888 Q2306.26 659.573 2306.26 664.064 Q2306.26 666.194 2305.45 668.115 Q2304.67 670.013 2302.56 672.606 Q2301.98 673.277 2298.88 676.495 Q2295.78 679.689 2290.13 685.453 Z" fill="#000000" fill-rule="evenodd" fill-opacity="1" /><path clip-path="url(#clip660)" d="M 0 0 M2326.26 657.907 Q2322.65 657.907 2320.82 661.471 Q2319.02 665.013 2319.02 672.143 Q2319.02 679.249 2320.82 682.814 Q2322.65 686.356 2326.26 686.356 Q2329.9 686.356 2331.7 682.814 Q2333.53 679.249 2333.53 672.143 Q2333.53 665.013 2331.7 661.471 Q2329.9 657.907 2326.26 657.907 M2326.26 654.203 Q2332.07 654.203 2335.13 658.809 Q2338.21 663.393 2338.21 672.143 Q2338.21 680.87 2335.13 685.476 Q2332.07 690.059 2326.26 690.059 Q2320.45 690.059 2317.37 685.476 Q2314.32 680.87 2314.32 672.143 Q2314.32 663.393 2317.37 658.809 Q2320.45 654.203 2326.26 654.203 Z" fill="#000000" fill-rule="evenodd" fill-opacity="1" /><path clip-path="url(#clip660)" d="M 0 0 M2290.13 477.165 L2306.45 477.165 L2306.45 481.1 L2284.5 481.1 L2284.5 477.165 Q2287.17 474.41 2291.75 469.781 Q2296.36 465.128 2297.54 463.785 Q2299.78 461.262 2300.66 459.526 Q2301.56 457.767 2301.56 456.077 Q2301.56 453.322 2299.62 451.586 Q2297.7 449.85 2294.6 449.85 Q2292.4 449.85 2289.94 450.614 Q2287.51 451.378 2284.74 452.929 L2284.74 448.207 Q2287.56 447.072 2290.01 446.494 Q2292.47 445.915 2294.5 445.915 Q2299.87 445.915 2303.07 448.6 Q2306.26 451.285 2306.26 455.776 Q2306.26 457.906 2305.45 459.827 Q2304.67 461.725 2302.56 464.318 Q2301.98 464.989 2298.88 468.207 Q2295.78 471.401 2290.13 477.165 Z" fill="#000000" fill-rule="evenodd" fill-opacity="1" /><path clip-path="url(#clip660)" d="M 0 0 M2316.31 446.54 L2334.67 446.54 L2334.67 450.475 L2320.59 450.475 L2320.59 458.947 Q2321.61 458.6 2322.63 458.438 Q2323.65 458.253 2324.67 458.253 Q2330.45 458.253 2333.83 461.424 Q2337.21 464.595 2337.21 470.012 Q2337.21 475.591 2333.74 478.693 Q2330.27 481.771 2323.95 481.771 Q2321.77 481.771 2319.5 481.401 Q2317.26 481.031 2314.85 480.29 L2314.85 475.591 Q2316.93 476.725 2319.16 477.281 Q2321.38 477.836 2323.86 477.836 Q2327.86 477.836 2330.2 475.73 Q2332.54 473.623 2332.54 470.012 Q2332.54 466.401 2330.2 464.295 Q2327.86 462.188 2323.86 462.188 Q2321.98 462.188 2320.11 462.605 Q2318.25 463.021 2316.31 463.901 L2316.31 446.54 Z" fill="#000000" fill-rule="evenodd" fill-opacity="1" /><path clip-path="url(#clip660)" d="M 0 0 M2300.13 254.178 Q2303.49 254.895 2305.36 257.164 Q2307.26 259.433 2307.26 262.766 Q2307.26 267.882 2303.74 270.682 Q2300.22 273.483 2293.74 273.483 Q2291.56 273.483 2289.25 273.044 Q2286.96 272.627 2284.5 271.77 L2284.5 267.257 Q2286.45 268.391 2288.76 268.969 Q2291.08 269.548 2293.6 269.548 Q2298 269.548 2300.29 267.812 Q2302.61 266.076 2302.61 262.766 Q2302.61 259.71 2300.45 257.997 Q2298.32 256.261 2294.5 256.261 L2290.48 256.261 L2290.48 252.419 L2294.69 252.419 Q2298.14 252.419 2299.97 251.053 Q2301.8 249.664 2301.8 247.071 Q2301.8 244.409 2299.9 242.997 Q2298.02 241.562 2294.5 241.562 Q2292.58 241.562 2290.38 241.979 Q2288.18 242.396 2285.55 243.275 L2285.55 239.109 Q2288.21 238.368 2290.52 237.997 Q2292.86 237.627 2294.92 237.627 Q2300.24 237.627 2303.35 240.058 Q2306.45 242.465 2306.45 246.585 Q2306.45 249.456 2304.8 251.446 Q2303.16 253.414 2300.13 254.178 Z" fill="#000000" fill-rule="evenodd" fill-opacity="1" /><path clip-path="url(#clip660)" d="M 0 0 M2326.12 241.331 Q2322.51 241.331 2320.68 244.896 Q2318.88 248.437 2318.88 255.567 Q2318.88 262.673 2320.68 266.238 Q2322.51 269.78 2326.12 269.78 Q2329.76 269.78 2331.56 266.238 Q2333.39 262.673 2333.39 255.567 Q2333.39 248.437 2331.56 244.896 Q2329.76 241.331 2326.12 241.331 M2326.12 237.627 Q2331.93 237.627 2334.99 242.234 Q2338.07 246.817 2338.07 255.567 Q2338.07 264.294 2334.99 268.9 Q2331.93 273.483 2326.12 273.483 Q2320.31 273.483 2317.24 268.9 Q2314.18 264.294 2314.18 255.567 Q2314.18 246.817 2317.24 242.234 Q2320.31 237.627 2326.12 237.627 Z" fill="#000000" fill-rule="evenodd" fill-opacity="1" /><path clip-path="url(#clip660)" d="M 0 0 M2300.13 45.8899 Q2303.49 46.6075 2305.36 48.876 Q2307.26 51.1445 2307.26 54.4779 Q2307.26 59.5936 2303.74 62.3945 Q2300.22 65.1954 2293.74 65.1954 Q2291.56 65.1954 2289.25 64.7556 Q2286.96 64.3389 2284.5 63.4824 L2284.5 58.9686 Q2286.45 60.1028 2288.76 60.6815 Q2291.08 61.2602 2293.6 61.2602 Q2298 61.2602 2300.29 59.5241 Q2302.61 57.788 2302.61 54.4779 Q2302.61 51.4223 2300.45 49.7094 Q2298.32 47.9733 2294.5 47.9733 L2290.48 47.9733 L2290.48 44.1307 L2294.69 44.1307 Q2298.14 44.1307 2299.97 42.765 Q2301.8 41.3761 2301.8 38.7835 Q2301.8 36.1215 2299.9 34.7094 Q2298.02 33.2743 2294.5 33.2743 Q2292.58 33.2743 2290.38 33.6909 Q2288.18 34.1076 2285.55 34.9872 L2285.55 30.8206 Q2288.21 30.0798 2290.52 29.7095 Q2292.86 29.3391 2294.92 29.3391 Q2300.24 29.3391 2303.35 31.7696 Q2306.45 34.177 2306.45 38.2974 Q2306.45 41.1677 2304.8 43.1585 Q2303.16 45.1261 2300.13 45.8899 Z" fill="#000000" fill-rule="evenodd" fill-opacity="1" /><path clip-path="url(#clip660)" d="M 0 0 M2316.17 29.9641 L2334.53 29.9641 L2334.53 33.8993 L2320.45 33.8993 L2320.45 42.3714 Q2321.47 42.0242 2322.49 41.8622 Q2323.51 41.677 2324.53 41.677 Q2330.31 41.677 2333.69 44.8483 Q2337.07 48.0196 2337.07 53.4362 Q2337.07 59.0149 2333.6 62.1167 Q2330.13 65.1954 2323.81 65.1954 Q2321.63 65.1954 2319.36 64.825 Q2317.12 64.4547 2314.71 63.7139 L2314.71 59.0149 Q2316.8 60.1491 2319.02 60.7047 Q2321.24 61.2602 2323.72 61.2602 Q2327.72 61.2602 2330.06 59.1538 Q2332.4 57.0473 2332.4 53.4362 Q2332.4 49.8251 2330.06 47.7186 Q2327.72 45.6122 2323.72 45.6122 Q2321.84 45.6122 2319.97 46.0288 Q2318.11 46.4455 2316.17 47.3251 L2316.17 29.9641 Z" fill="#000000" fill-rule="evenodd" fill-opacity="1" /><path clip-path="url(#clip660)" d="M 0 0 M2383.71 998.129 L2383.71 988.548 L2416.05 976.422 L2383.71 964.231 L2383.71 954.651 L2431.23 954.651 L2431.23 960.921 L2389.5 960.921 L2422.1 973.175 L2422.1 979.636 L2389.5 991.89 L2431.23 991.89 L2431.23 998.129 L2383.71 998.129 Z" fill="#000000" fill-rule="evenodd" fill-opacity="1" /><path clip-path="url(#clip660)" d="M 0 0 M2411.94 911.651 L2414.81 911.651 L2414.81 938.577 Q2420.86 938.196 2424.04 934.949 Q2427.19 931.671 2427.19 925.846 Q2427.19 922.472 2426.36 919.321 Q2425.53 916.138 2423.88 913.019 L2429.42 913.019 Q2430.75 916.17 2431.45 919.48 Q2432.15 922.791 2432.15 926.196 Q2432.15 934.726 2427.19 939.723 Q2422.22 944.689 2413.76 944.689 Q2405 944.689 2399.88 939.978 Q2394.72 935.235 2394.72 927.215 Q2394.72 920.021 2399.37 915.852 Q2403.99 911.651 2411.94 911.651 M2410.22 917.507 Q2405.42 917.571 2402.55 920.212 Q2399.69 922.822 2399.69 927.151 Q2399.69 932.053 2402.46 935.013 Q2405.23 937.941 2410.26 938.387 L2410.22 917.507 Z" fill="#000000" fill-rule="evenodd" fill-opacity="1" /><path clip-path="url(#clip660)" d="M 0 0 M2402.43 874.284 Q2398.48 872.088 2396.6 869.032 Q2394.72 865.977 2394.72 861.839 Q2394.72 856.269 2398.64 853.245 Q2402.52 850.221 2409.72 850.221 L2431.23 850.221 L2431.23 856.11 L2409.91 856.11 Q2404.78 856.11 2402.3 857.924 Q2399.82 859.738 2399.82 863.462 Q2399.82 868.014 2402.84 870.655 Q2405.86 873.297 2411.08 873.297 L2431.23 873.297 L2431.23 879.185 L2409.91 879.185 Q2404.75 879.185 2402.3 881 Q2399.82 882.814 2399.82 886.601 Q2399.82 891.089 2402.87 893.731 Q2405.9 896.373 2411.08 896.373 L2431.23 896.373 L2431.23 902.261 L2395.58 902.261 L2395.58 896.373 L2401.12 896.373 Q2397.84 894.368 2396.28 891.567 Q2394.72 888.766 2394.72 884.915 Q2394.72 881.031 2396.7 878.326 Q2398.67 875.589 2402.43 874.284 Z" fill="#000000" fill-rule="evenodd" fill-opacity="1" /><path clip-path="url(#clip660)" d="M 0 0 M2399.69 824.727 Q2399.69 829.437 2403.38 832.175 Q2407.04 834.912 2413.44 834.912 Q2419.84 834.912 2423.53 832.207 Q2427.19 829.469 2427.19 824.727 Q2427.19 820.048 2423.5 817.311 Q2419.8 814.574 2413.44 814.574 Q2407.11 814.574 2403.41 817.311 Q2399.69 820.048 2399.69 824.727 M2394.72 824.727 Q2394.72 817.088 2399.69 812.727 Q2404.65 808.367 2413.44 808.367 Q2422.19 808.367 2427.19 812.727 Q2432.15 817.088 2432.15 824.727 Q2432.15 832.398 2427.19 836.758 Q2422.19 841.087 2413.44 841.087 Q2404.65 841.087 2399.69 836.758 Q2394.72 832.398 2394.72 824.727 Z" fill="#000000" fill-rule="evenodd" fill-opacity="1" /><path clip-path="url(#clip660)" d="M 0 0 M2401.06 778.003 Q2400.48 778.989 2400.23 780.167 Q2399.94 781.313 2399.94 782.713 Q2399.94 787.678 2403.19 790.352 Q2406.41 792.994 2412.45 792.994 L2431.23 792.994 L2431.23 798.882 L2395.58 798.882 L2395.58 792.994 L2401.12 792.994 Q2397.88 791.148 2396.32 788.188 Q2394.72 785.228 2394.72 780.994 Q2394.72 780.39 2394.82 779.658 Q2394.88 778.926 2395.04 778.034 L2401.06 778.003 Z" fill="#000000" fill-rule="evenodd" fill-opacity="1" /><path clip-path="url(#clip660)" d="M 0 0 M2434.54 757.028 Q2440.91 759.51 2442.85 761.865 Q2444.79 764.221 2444.79 768.168 L2444.79 772.846 L2439.89 772.846 L2439.89 769.409 Q2439.89 766.99 2438.74 765.653 Q2437.6 764.316 2433.33 762.693 L2430.66 761.643 L2395.58 776.061 L2395.58 769.854 L2423.47 758.714 L2395.58 747.574 L2395.58 741.368 L2434.54 757.028 Z" fill="#000000" fill-rule="evenodd" fill-opacity="1" /><path clip-path="url(#clip660)" d="M 0 0 M2381.77 698.495 Q2389.09 702.76 2396.25 704.829 Q2403.41 706.898 2410.77 706.898 Q2418.12 706.898 2425.34 704.829 Q2432.54 702.728 2439.83 698.495 L2439.83 703.587 Q2432.35 708.362 2425.12 710.749 Q2417.9 713.104 2410.77 713.104 Q2403.67 713.104 2396.47 710.749 Q2389.28 708.394 2381.77 703.587 L2381.77 698.495 Z" fill="#000000" fill-rule="evenodd" fill-opacity="1" /><path clip-path="url(#clip660)" d="M 0 0 M2383.71 686.877 L2383.71 677.297 L2416.05 665.17 L2383.71 652.98 L2383.71 643.4 L2431.23 643.4 L2431.23 649.67 L2389.5 649.67 L2422.1 661.924 L2422.1 668.385 L2389.5 680.639 L2431.23 680.639 L2431.23 686.877 L2383.71 686.877 Z" fill="#000000" fill-rule="evenodd" fill-opacity="1" /><path clip-path="url(#clip660)" d="M 0 0 M2395.58 630.891 L2395.58 625.035 L2431.23 625.035 L2431.23 630.891 L2395.58 630.891 M2381.71 630.891 L2381.71 625.035 L2389.12 625.035 L2389.12 630.891 L2381.71 630.891 Z" fill="#000000" fill-rule="evenodd" fill-opacity="1" /><path clip-path="url(#clip660)" d="M 0 0 M2408.54 606.097 L2425.95 606.097 L2425.95 595.784 Q2425.95 590.596 2423.82 588.114 Q2421.65 585.599 2417.23 585.599 Q2412.77 585.599 2410.67 588.114 Q2408.54 590.596 2408.54 595.784 L2408.54 606.097 M2388.99 606.097 L2403.32 606.097 L2403.32 596.58 Q2403.32 591.869 2401.57 589.578 Q2399.78 587.254 2396.16 587.254 Q2392.56 587.254 2390.78 589.578 Q2388.99 591.869 2388.99 596.58 L2388.99 606.097 M2383.71 612.526 L2383.71 596.102 Q2383.71 588.75 2386.77 584.772 Q2389.82 580.793 2395.46 580.793 Q2399.82 580.793 2402.39 582.83 Q2404.97 584.867 2405.61 588.814 Q2406.63 584.071 2409.87 581.461 Q2413.09 578.82 2417.93 578.82 Q2424.29 578.82 2427.76 583.148 Q2431.23 587.477 2431.23 595.466 L2431.23 612.526 L2383.71 612.526 Z" fill="#000000" fill-rule="evenodd" fill-opacity="1" /><path clip-path="url(#clip660)" d="M 0 0 M2381.77 568.985 L2381.77 563.892 Q2389.28 559.118 2396.47 556.762 Q2403.67 554.375 2410.77 554.375 Q2417.9 554.375 2425.12 556.762 Q2432.35 559.118 2439.83 563.892 L2439.83 568.985 Q2432.54 564.751 2425.34 562.683 Q2418.12 560.582 2410.77 560.582 Q2403.41 560.582 2396.25 562.683 Q2389.09 564.751 2381.77 568.985 Z" fill="#000000" fill-rule="evenodd" fill-opacity="1" /><polyline clip-path="url(#clip662)" style="stroke:#008000; stroke-width:4; stroke-opacity:1; fill:none" points="
  163.469,1457.44 206.54,1429.11 292.68,1372.12 464.962,1257.61 809.524,1027.11 1154.09,792.29 1498.65,555.05 1843.21,314.561 2187.77,70.7806 
  "/>
<circle clip-path="url(#clip662)" cx="163.469" cy="1457.44" r="14" fill="#008000" fill-rule="evenodd" fill-opacity="1" stroke="#000000" stroke-opacity="1" stroke-width="3.2"/>
<circle clip-path="url(#clip662)" cx="206.54" cy="1429.11" r="14" fill="#008000" fill-rule="evenodd" fill-opacity="1" stroke="#000000" stroke-opacity="1" stroke-width="3.2"/>
<circle clip-path="url(#clip662)" cx="292.68" cy="1372.12" r="14" fill="#008000" fill-rule="evenodd" fill-opacity="1" stroke="#000000" stroke-opacity="1" stroke-width="3.2"/>
<circle clip-path="url(#clip662)" cx="464.962" cy="1257.61" r="14" fill="#008000" fill-rule="evenodd" fill-opacity="1" stroke="#000000" stroke-opacity="1" stroke-width="3.2"/>
<circle clip-path="url(#clip662)" cx="809.524" cy="1027.11" r="14" fill="#008000" fill-rule="evenodd" fill-opacity="1" stroke="#000000" stroke-opacity="1" stroke-width="3.2"/>
<circle clip-path="url(#clip662)" cx="1154.09" cy="792.29" r="14" fill="#008000" fill-rule="evenodd" fill-opacity="1" stroke="#000000" stroke-opacity="1" stroke-width="3.2"/>
<circle clip-path="url(#clip662)" cx="1498.65" cy="555.05" r="14" fill="#008000" fill-rule="evenodd" fill-opacity="1" stroke="#000000" stroke-opacity="1" stroke-width="3.2"/>
<circle clip-path="url(#clip662)" cx="1843.21" cy="314.561" r="14" fill="#008000" fill-rule="evenodd" fill-opacity="1" stroke="#000000" stroke-opacity="1" stroke-width="3.2"/>
<circle clip-path="url(#clip662)" cx="2187.77" cy="70.7806" r="14" fill="#008000" fill-rule="evenodd" fill-opacity="1" stroke="#000000" stroke-opacity="1" stroke-width="3.2"/>
<path clip-path="url(#clip660)" d="
M174.266 216.805 L599.419 216.805 L599.419 95.8446 L174.266 95.8446  Z
  " fill="#ffffff" fill-rule="evenodd" fill-opacity="1"/>
<polyline clip-path="url(#clip660)" style="stroke:#000000; stroke-width:4; stroke-opacity:1; fill:none" points="
  174.266,216.805 599.419,216.805 599.419,95.8446 174.266,95.8446 174.266,216.805 
  "/>
<polyline clip-path="url(#clip660)" style="stroke:#008000; stroke-width:4; stroke-opacity:1; fill:none" points="
  198.107,156.325 341.158,156.325 
  "/>
<circle clip-path="url(#clip660)" cx="269.633" cy="156.325" r="23" fill="#008000" fill-rule="evenodd" fill-opacity="1" stroke="#000000" stroke-opacity="1" stroke-width="5.12"/>
<path clip-path="url(#clip660)" d="M 0 0 M365 139.045 L371.968 139.045 L380.787 162.563 L389.653 139.045 L396.62 139.045 L396.62 173.605 L392.06 173.605 L392.06 143.258 L383.148 166.961 L378.449 166.961 L369.537 143.258 L369.537 173.605 L365 173.605 L365 139.045 Z" fill="#000000" fill-rule="evenodd" fill-opacity="1" /><path clip-path="url(#clip660)" d="M 0 0 M427.893 159.577 L427.893 161.66 L408.31 161.66 Q408.588 166.058 410.949 168.373 Q413.333 170.665 417.569 170.665 Q420.023 170.665 422.315 170.063 Q424.629 169.461 426.898 168.257 L426.898 172.285 Q424.606 173.257 422.199 173.767 Q419.792 174.276 417.315 174.276 Q411.111 174.276 407.477 170.665 Q403.866 167.054 403.866 160.896 Q403.866 154.531 407.292 150.804 Q410.741 147.054 416.574 147.054 Q421.805 147.054 424.838 150.433 Q427.893 153.79 427.893 159.577 M423.634 158.327 Q423.588 154.832 421.667 152.748 Q419.768 150.665 416.62 150.665 Q413.055 150.665 410.903 152.679 Q408.773 154.693 408.449 158.35 L423.634 158.327 Z" fill="#000000" fill-rule="evenodd" fill-opacity="1" /><path clip-path="url(#clip660)" d="M 0 0 M455.069 152.656 Q456.666 149.785 458.889 148.42 Q461.111 147.054 464.12 147.054 Q468.171 147.054 470.37 149.901 Q472.569 152.725 472.569 157.957 L472.569 173.605 L468.287 173.605 L468.287 158.095 Q468.287 154.369 466.967 152.563 Q465.648 150.758 462.939 150.758 Q459.629 150.758 457.708 152.957 Q455.787 155.156 455.787 158.952 L455.787 173.605 L451.504 173.605 L451.504 158.095 Q451.504 154.345 450.185 152.563 Q448.865 150.758 446.111 150.758 Q442.847 150.758 440.926 152.98 Q439.004 155.179 439.004 158.952 L439.004 173.605 L434.722 173.605 L434.722 147.679 L439.004 147.679 L439.004 151.707 Q440.463 149.322 442.5 148.188 Q444.537 147.054 447.338 147.054 Q450.162 147.054 452.129 148.489 Q454.12 149.924 455.069 152.656 Z" fill="#000000" fill-rule="evenodd" fill-opacity="1" /><path clip-path="url(#clip660)" d="M 0 0 M491.111 150.665 Q487.685 150.665 485.694 153.35 Q483.703 156.012 483.703 160.665 Q483.703 165.318 485.671 168.003 Q487.662 170.665 491.111 170.665 Q494.513 170.665 496.504 167.98 Q498.495 165.294 498.495 160.665 Q498.495 156.058 496.504 153.373 Q494.513 150.665 491.111 150.665 M491.111 147.054 Q496.666 147.054 499.837 150.665 Q503.009 154.276 503.009 160.665 Q503.009 167.031 499.837 170.665 Q496.666 174.276 491.111 174.276 Q485.532 174.276 482.361 170.665 Q479.213 167.031 479.213 160.665 Q479.213 154.276 482.361 150.665 Q485.532 147.054 491.111 147.054 Z" fill="#000000" fill-rule="evenodd" fill-opacity="1" /><path clip-path="url(#clip660)" d="M 0 0 M525.092 151.66 Q524.374 151.244 523.518 151.058 Q522.685 150.85 521.666 150.85 Q518.055 150.85 516.11 153.211 Q514.189 155.549 514.189 159.947 L514.189 173.605 L509.907 173.605 L509.907 147.679 L514.189 147.679 L514.189 151.707 Q515.532 149.345 517.685 148.211 Q519.837 147.054 522.916 147.054 Q523.356 147.054 523.888 147.123 Q524.421 147.17 525.069 147.285 L525.092 151.66 Z" fill="#000000" fill-rule="evenodd" fill-opacity="1" /><path clip-path="url(#clip660)" d="M 0 0 M540.346 176.012 Q538.541 180.642 536.828 182.054 Q535.115 183.466 532.245 183.466 L528.842 183.466 L528.842 179.901 L531.342 179.901 Q533.101 179.901 534.073 179.068 Q535.046 178.234 536.226 175.132 L536.99 173.188 L526.504 147.679 L531.018 147.679 L539.12 167.957 L547.221 147.679 L551.735 147.679 L540.346 176.012 Z" fill="#000000" fill-rule="evenodd" fill-opacity="1" /></svg>
