<?xml version="1.0" encoding="utf-8"?>
<svg xmlns="http://www.w3.org/2000/svg" xmlns:xlink="http://www.w3.org/1999/xlink" width="600" height="400" viewBox="0 0 2400 1600">
<defs>
  <clipPath id="clip720">
    <rect x="0" y="0" width="2400" height="1600"/>
  </clipPath>
</defs>
<path clip-path="url(#clip720)" d="
M0 1600 L2400 1600 L2400 0 L0 0  Z
  " fill="#ffffff" fill-rule="evenodd" fill-opacity="1"/>
<defs>
  <clipPath id="clip721">
    <rect x="480" y="0" width="1681" height="1600"/>
  </clipPath>
</defs>
<path clip-path="url(#clip720)" d="
M102.74 1505.26 L2352.76 1505.26 L2352.76 47.2441 L102.74 47.2441  Z
  " fill="#ffffff" fill-rule="evenodd" fill-opacity="1"/>
<defs>
  <clipPath id="clip722">
    <rect x="102" y="47" width="2251" height="1459"/>
  </clipPath>
</defs>
<polyline clip-path="url(#clip722)" style="stroke:#000000; stroke-width:2; stroke-opacity:0.1; fill:none" points="
  166.42,1505.26 166.42,47.2441 
  "/>
<polyline clip-path="url(#clip722)" style="stroke:#000000; stroke-width:2; stroke-opacity:0.1; fill:none" points="
  211.583,1505.26 211.583,47.2441 
  "/>
<polyline clip-path="url(#clip722)" style="stroke:#000000; stroke-width:2; stroke-opacity:0.1; fill:none" points="
  301.909,1505.26 301.909,47.2441 
  "/>
<polyline clip-path="url(#clip722)" style="stroke:#000000; stroke-width:2; stroke-opacity:0.1; fill:none" points="
  482.56,1505.26 482.56,47.2441 
  "/>
<polyline clip-path="url(#clip722)" style="stroke:#000000; stroke-width:2; stroke-opacity:0.1; fill:none" points="
  843.863,1505.26 843.863,47.2441 
  "/>
<polyline clip-path="url(#clip722)" style="stroke:#000000; stroke-width:2; stroke-opacity:0.1; fill:none" points="
  1205.17,1505.26 1205.17,47.2441 
  "/>
<polyline clip-path="url(#clip722)" style="stroke:#000000; stroke-width:2; stroke-opacity:0.1; fill:none" points="
  1566.47,1505.26 1566.47,47.2441 
  "/>
<polyline clip-path="url(#clip722)" style="stroke:#000000; stroke-width:2; stroke-opacity:0.1; fill:none" points="
  1927.77,1505.26 1927.77,47.2441 
  "/>
<polyline clip-path="url(#clip722)" style="stroke:#000000; stroke-width:2; stroke-opacity:0.1; fill:none" points="
  2289.08,1505.26 2289.08,47.2441 
  "/>
<polyline clip-path="url(#clip720)" style="stroke:#000000; stroke-width:4; stroke-opacity:1; fill:none" points="
  102.74,1505.26 2352.76,1505.26 
  "/>
<polyline clip-path="url(#clip720)" style="stroke:#000000; stroke-width:4; stroke-opacity:1; fill:none" points="
  166.42,1505.26 166.42,1487.76 
  "/>
<polyline clip-path="url(#clip720)" style="stroke:#000000; stroke-width:4; stroke-opacity:1; fill:none" points="
  211.583,1505.26 211.583,1487.76 
  "/>
<polyline clip-path="url(#clip720)" style="stroke:#000000; stroke-width:4; stroke-opacity:1; fill:none" points="
  301.909,1505.26 301.909,1487.76 
  "/>
<polyline clip-path="url(#clip720)" style="stroke:#000000; stroke-width:4; stroke-opacity:1; fill:none" points="
  482.56,1505.26 482.56,1487.76 
  "/>
<polyline clip-path="url(#clip720)" style="stroke:#000000; stroke-width:4; stroke-opacity:1; fill:none" points="
  843.863,1505.26 843.863,1487.76 
  "/>
<polyline clip-path="url(#clip720)" style="stroke:#000000; stroke-width:4; stroke-opacity:1; fill:none" points="
  1205.17,1505.26 1205.17,1487.76 
  "/>
<polyline clip-path="url(#clip720)" style="stroke:#000000; stroke-width:4; stroke-opacity:1; fill:none" points="
  1566.47,1505.26 1566.47,1487.76 
  "/>
<polyline clip-path="url(#clip720)" style="stroke:#000000; stroke-width:4; stroke-opacity:1; fill:none" points="
  1927.77,1505.26 1927.77,1487.76 
  "/>
<polyline clip-path="url(#clip720)" style="stroke:#000000; stroke-width:4; stroke-opacity:1; fill:none" points="
  2289.08,1505.26 2289.08,1487.76 
  "/>
<path clip-path="url(#clip720)" d="M 0 0 M161.073 1562 L177.392 1562 L177.392 1565.93 L155.448 1565.93 L155.448 1562 Q158.11 1559.24 162.693 1554.61 Q167.299 1549.96 168.48 1548.62 Q170.725 1546.09 171.605 1544.36 Q172.508 1542.6 172.508 1540.91 Q172.508 1538.15 170.563 1536.42 Q168.642 1534.68 165.54 1534.68 Q163.341 1534.68 160.887 1535.45 Q158.457 1536.21 155.679 1537.76 L155.679 1533.04 Q158.503 1531.9 160.957 1531.33 Q163.411 1530.75 165.448 1530.75 Q170.818 1530.75 174.012 1533.43 Q177.207 1536.12 177.207 1540.61 Q177.207 1542.74 176.397 1544.66 Q175.61 1546.56 173.503 1549.15 Q172.924 1549.82 169.823 1553.04 Q166.721 1556.23 161.073 1562 Z" fill="#000000" fill-rule="evenodd" fill-opacity="1" /><path clip-path="url(#clip720)" d="M 0 0 M214.592 1535.45 L202.787 1553.89 L214.592 1553.89 L214.592 1535.45 M213.365 1531.37 L219.245 1531.37 L219.245 1553.89 L224.175 1553.89 L224.175 1557.78 L219.245 1557.78 L219.245 1565.93 L214.592 1565.93 L214.592 1557.78 L198.99 1557.78 L198.99 1553.27 L213.365 1531.37 Z" fill="#000000" fill-rule="evenodd" fill-opacity="1" /><path clip-path="url(#clip720)" d="M 0 0 M301.909 1549.52 Q298.575 1549.52 296.654 1551.3 Q294.756 1553.08 294.756 1556.21 Q294.756 1559.33 296.654 1561.12 Q298.575 1562.9 301.909 1562.9 Q305.242 1562.9 307.163 1561.12 Q309.084 1559.31 309.084 1556.21 Q309.084 1553.08 307.163 1551.3 Q305.265 1549.52 301.909 1549.52 M297.233 1547.53 Q294.223 1546.79 292.534 1544.73 Q290.867 1542.67 290.867 1539.71 Q290.867 1535.56 293.807 1533.15 Q296.77 1530.75 301.909 1530.75 Q307.071 1530.75 310.01 1533.15 Q312.95 1535.56 312.95 1539.71 Q312.95 1542.67 311.26 1544.73 Q309.594 1546.79 306.608 1547.53 Q309.987 1548.32 311.862 1550.61 Q313.76 1552.9 313.76 1556.21 Q313.76 1561.23 310.682 1563.92 Q307.626 1566.6 301.909 1566.6 Q296.191 1566.6 293.112 1563.92 Q290.057 1561.23 290.057 1556.21 Q290.057 1552.9 291.955 1550.61 Q293.853 1548.32 297.233 1547.53 M295.52 1540.14 Q295.52 1542.83 297.186 1544.33 Q298.876 1545.84 301.909 1545.84 Q304.918 1545.84 306.608 1544.33 Q308.321 1542.83 308.321 1540.14 Q308.321 1537.46 306.608 1535.96 Q304.918 1534.45 301.909 1534.45 Q298.876 1534.45 297.186 1535.96 Q295.52 1537.46 295.52 1540.14 Z" fill="#000000" fill-rule="evenodd" fill-opacity="1" /><path clip-path="url(#clip720)" d="M 0 0 M457.167 1562 L464.806 1562 L464.806 1535.63 L456.495 1537.3 L456.495 1533.04 L464.759 1531.37 L469.435 1531.37 L469.435 1562 L477.074 1562 L477.074 1565.93 L457.167 1565.93 L457.167 1562 Z" fill="#000000" fill-rule="evenodd" fill-opacity="1" /><path clip-path="url(#clip720)" d="M 0 0 M497.097 1546.79 Q493.949 1546.79 492.097 1548.94 Q490.268 1551.09 490.268 1554.84 Q490.268 1558.57 492.097 1560.75 Q493.949 1562.9 497.097 1562.9 Q500.245 1562.9 502.074 1560.75 Q503.926 1558.57 503.926 1554.84 Q503.926 1551.09 502.074 1548.94 Q500.245 1546.79 497.097 1546.79 M506.379 1532.14 L506.379 1536.39 Q504.62 1535.56 502.815 1535.12 Q501.032 1534.68 499.273 1534.68 Q494.643 1534.68 492.19 1537.81 Q489.759 1540.93 489.412 1547.25 Q490.778 1545.24 492.838 1544.17 Q494.898 1543.08 497.375 1543.08 Q502.583 1543.08 505.592 1546.26 Q508.625 1549.4 508.625 1554.84 Q508.625 1560.17 505.477 1563.39 Q502.329 1566.6 497.097 1566.6 Q491.102 1566.6 487.93 1562.02 Q484.759 1557.41 484.759 1548.69 Q484.759 1540.49 488.648 1535.63 Q492.537 1530.75 499.088 1530.75 Q500.847 1530.75 502.629 1531.09 Q504.435 1531.44 506.379 1532.14 Z" fill="#000000" fill-rule="evenodd" fill-opacity="1" /><path clip-path="url(#clip720)" d="M 0 0 M833.505 1547.3 Q836.861 1548.02 838.736 1550.28 Q840.634 1552.55 840.634 1555.89 Q840.634 1561 837.116 1563.8 Q833.597 1566.6 827.116 1566.6 Q824.94 1566.6 822.625 1566.16 Q820.333 1565.75 817.88 1564.89 L817.88 1560.38 Q819.824 1561.51 822.139 1562.09 Q824.454 1562.67 826.977 1562.67 Q831.375 1562.67 833.667 1560.93 Q835.981 1559.2 835.981 1555.89 Q835.981 1552.83 833.829 1551.12 Q831.699 1549.38 827.88 1549.38 L823.852 1549.38 L823.852 1545.54 L828.065 1545.54 Q831.514 1545.54 833.343 1544.17 Q835.171 1542.78 835.171 1540.19 Q835.171 1537.53 833.273 1536.12 Q831.398 1534.68 827.88 1534.68 Q825.958 1534.68 823.759 1535.1 Q821.56 1535.52 818.921 1536.39 L818.921 1532.23 Q821.583 1531.49 823.898 1531.12 Q826.236 1530.75 828.296 1530.75 Q833.62 1530.75 836.722 1533.18 Q839.824 1535.58 839.824 1539.71 Q839.824 1542.58 838.181 1544.57 Q836.537 1546.53 833.505 1547.3 Z" fill="#000000" fill-rule="evenodd" fill-opacity="1" /><path clip-path="url(#clip720)" d="M 0 0 M853.528 1562 L869.847 1562 L869.847 1565.93 L847.903 1565.93 L847.903 1562 Q850.565 1559.24 855.148 1554.61 Q859.754 1549.96 860.935 1548.62 Q863.18 1546.09 864.06 1544.36 Q864.963 1542.6 864.963 1540.91 Q864.963 1538.15 863.018 1536.42 Q861.097 1534.68 857.995 1534.68 Q855.796 1534.68 853.342 1535.45 Q850.912 1536.21 848.134 1537.76 L848.134 1533.04 Q850.958 1531.9 853.412 1531.33 Q855.866 1530.75 857.903 1530.75 Q863.273 1530.75 866.467 1533.43 Q869.662 1536.12 869.662 1540.61 Q869.662 1542.74 868.852 1544.66 Q868.065 1546.56 865.958 1549.15 Q865.379 1549.82 862.278 1553.04 Q859.176 1556.23 853.528 1562 Z" fill="#000000" fill-rule="evenodd" fill-opacity="1" /><path clip-path="url(#clip720)" d="M 0 0 M1193.38 1535.45 L1181.58 1553.89 L1193.38 1553.89 L1193.38 1535.45 M1192.16 1531.37 L1198.04 1531.37 L1198.04 1553.89 L1202.97 1553.89 L1202.97 1557.78 L1198.04 1557.78 L1198.04 1565.93 L1193.38 1565.93 L1193.38 1557.78 L1177.78 1557.78 L1177.78 1553.27 L1192.16 1531.37 Z" fill="#000000" fill-rule="evenodd" fill-opacity="1" /><path clip-path="url(#clip720)" d="M 0 0 M1220.7 1549.52 Q1217.37 1549.52 1215.44 1551.3 Q1213.55 1553.08 1213.55 1556.21 Q1213.55 1559.33 1215.44 1561.12 Q1217.37 1562.9 1220.7 1562.9 Q1224.03 1562.9 1225.95 1561.12 Q1227.87 1559.31 1227.87 1556.21 Q1227.87 1553.08 1225.95 1551.3 Q1224.06 1549.52 1220.7 1549.52 M1216.02 1547.53 Q1213.01 1546.79 1211.32 1544.73 Q1209.66 1542.67 1209.66 1539.71 Q1209.66 1535.56 1212.6 1533.15 Q1215.56 1530.75 1220.7 1530.75 Q1225.86 1530.75 1228.8 1533.15 Q1231.74 1535.56 1231.74 1539.71 Q1231.74 1542.67 1230.05 1544.73 Q1228.38 1546.79 1225.4 1547.53 Q1228.78 1548.32 1230.65 1550.61 Q1232.55 1552.9 1232.55 1556.21 Q1232.55 1561.23 1229.47 1563.92 Q1226.42 1566.6 1220.7 1566.6 Q1214.98 1566.6 1211.9 1563.92 Q1208.85 1561.23 1208.85 1556.21 Q1208.85 1552.9 1210.75 1550.61 Q1212.64 1548.32 1216.02 1547.53 M1214.31 1540.14 Q1214.31 1542.83 1215.98 1544.33 Q1217.67 1545.84 1220.7 1545.84 Q1223.71 1545.84 1225.4 1544.33 Q1227.11 1542.83 1227.11 1540.14 Q1227.11 1537.46 1225.4 1535.96 Q1223.71 1534.45 1220.7 1534.45 Q1217.67 1534.45 1215.98 1535.96 Q1214.31 1537.46 1214.31 1540.14 Z" fill="#000000" fill-rule="evenodd" fill-opacity="1" /><path clip-path="url(#clip720)" d="M 0 0 M1551.63 1546.79 Q1548.48 1546.79 1546.63 1548.94 Q1544.8 1551.09 1544.8 1554.84 Q1544.8 1558.57 1546.63 1560.75 Q1548.48 1562.9 1551.63 1562.9 Q1554.78 1562.9 1556.61 1560.75 Q1558.46 1558.57 1558.46 1554.84 Q1558.46 1551.09 1556.61 1548.94 Q1554.78 1546.79 1551.63 1546.79 M1560.91 1532.14 L1560.91 1536.39 Q1559.16 1535.56 1557.35 1535.12 Q1555.57 1534.68 1553.81 1534.68 Q1549.18 1534.68 1546.72 1537.81 Q1544.29 1540.93 1543.95 1547.25 Q1545.31 1545.24 1547.37 1544.17 Q1549.43 1543.08 1551.91 1543.08 Q1557.12 1543.08 1560.13 1546.26 Q1563.16 1549.4 1563.16 1554.84 Q1563.16 1560.17 1560.01 1563.39 Q1556.86 1566.6 1551.63 1566.6 Q1545.64 1566.6 1542.47 1562.02 Q1539.29 1557.41 1539.29 1548.69 Q1539.29 1540.49 1543.18 1535.63 Q1547.07 1530.75 1553.62 1530.75 Q1555.38 1530.75 1557.16 1531.09 Q1558.97 1531.44 1560.91 1532.14 Z" fill="#000000" fill-rule="evenodd" fill-opacity="1" /><path clip-path="url(#clip720)" d="M 0 0 M1584.06 1535.45 L1572.26 1553.89 L1584.06 1553.89 L1584.06 1535.45 M1582.84 1531.37 L1588.72 1531.37 L1588.72 1553.89 L1593.65 1553.89 L1593.65 1557.78 L1588.72 1557.78 L1588.72 1565.93 L1584.06 1565.93 L1584.06 1557.78 L1568.46 1557.78 L1568.46 1553.27 L1582.84 1531.37 Z" fill="#000000" fill-rule="evenodd" fill-opacity="1" /><path clip-path="url(#clip720)" d="M 0 0 M1912.65 1549.52 Q1909.31 1549.52 1907.39 1551.3 Q1905.49 1553.08 1905.49 1556.21 Q1905.49 1559.33 1907.39 1561.12 Q1909.31 1562.9 1912.65 1562.9 Q1915.98 1562.9 1917.9 1561.12 Q1919.82 1559.31 1919.82 1556.21 Q1919.82 1553.08 1917.9 1551.3 Q1916 1549.52 1912.65 1549.52 M1907.97 1547.53 Q1904.96 1546.79 1903.27 1544.73 Q1901.6 1542.67 1901.6 1539.71 Q1901.6 1535.56 1904.54 1533.15 Q1907.51 1530.75 1912.65 1530.75 Q1917.81 1530.75 1920.75 1533.15 Q1923.69 1535.56 1923.69 1539.71 Q1923.69 1542.67 1922 1544.73 Q1920.33 1546.79 1917.34 1547.53 Q1920.72 1548.32 1922.6 1550.61 Q1924.5 1552.9 1924.5 1556.21 Q1924.5 1561.23 1921.42 1563.92 Q1918.36 1566.6 1912.65 1566.6 Q1906.93 1566.6 1903.85 1563.92 Q1900.79 1561.23 1900.79 1556.21 Q1900.79 1552.9 1902.69 1550.61 Q1904.59 1548.32 1907.97 1547.53 M1906.26 1540.14 Q1906.26 1542.83 1907.92 1544.33 Q1909.61 1545.84 1912.65 1545.84 Q1915.66 1545.84 1917.34 1544.33 Q1919.06 1542.83 1919.06 1540.14 Q1919.06 1537.46 1917.34 1535.96 Q1915.66 1534.45 1912.65 1534.45 Q1909.61 1534.45 1907.92 1535.96 Q1906.26 1537.46 1906.26 1540.14 Z" fill="#000000" fill-rule="evenodd" fill-opacity="1" /><path clip-path="url(#clip720)" d="M 0 0 M1942.81 1534.45 Q1939.2 1534.45 1937.37 1538.02 Q1935.56 1541.56 1935.56 1548.69 Q1935.56 1555.79 1937.37 1559.36 Q1939.2 1562.9 1942.81 1562.9 Q1946.44 1562.9 1948.25 1559.36 Q1950.08 1555.79 1950.08 1548.69 Q1950.08 1541.56 1948.25 1538.02 Q1946.44 1534.45 1942.81 1534.45 M1942.81 1530.75 Q1948.62 1530.75 1951.67 1535.35 Q1954.75 1539.94 1954.75 1548.69 Q1954.75 1557.41 1951.67 1562.02 Q1948.62 1566.6 1942.81 1566.6 Q1937 1566.6 1933.92 1562.02 Q1930.86 1557.41 1930.86 1548.69 Q1930.86 1539.94 1933.92 1535.35 Q1937 1530.75 1942.81 1530.75 Z" fill="#000000" fill-rule="evenodd" fill-opacity="1" /><path clip-path="url(#clip720)" d="M 0 0 M2264.12 1565.21 L2264.12 1560.96 Q2265.88 1561.79 2267.69 1562.23 Q2269.49 1562.67 2271.23 1562.67 Q2275.86 1562.67 2278.29 1559.57 Q2280.74 1556.44 2281.09 1550.1 Q2279.75 1552.09 2277.69 1553.15 Q2275.63 1554.22 2273.13 1554.22 Q2267.94 1554.22 2264.91 1551.09 Q2261.9 1547.95 2261.9 1542.51 Q2261.9 1537.18 2265.05 1533.96 Q2268.2 1530.75 2273.43 1530.75 Q2279.42 1530.75 2282.57 1535.35 Q2285.74 1539.94 2285.74 1548.69 Q2285.74 1556.86 2281.85 1561.74 Q2277.99 1566.6 2271.44 1566.6 Q2269.68 1566.6 2267.87 1566.26 Q2266.07 1565.91 2264.12 1565.21 M2273.43 1550.56 Q2276.58 1550.56 2278.4 1548.41 Q2280.26 1546.26 2280.26 1542.51 Q2280.26 1538.78 2278.4 1536.63 Q2276.58 1534.45 2273.43 1534.45 Q2270.28 1534.45 2268.43 1536.63 Q2266.6 1538.78 2266.6 1542.51 Q2266.6 1546.26 2268.43 1548.41 Q2270.28 1550.56 2273.43 1550.56 Z" fill="#000000" fill-rule="evenodd" fill-opacity="1" /><path clip-path="url(#clip720)" d="M 0 0 M2304.72 1546.79 Q2301.58 1546.79 2299.72 1548.94 Q2297.9 1551.09 2297.9 1554.84 Q2297.9 1558.57 2299.72 1560.75 Q2301.58 1562.9 2304.72 1562.9 Q2307.87 1562.9 2309.7 1560.75 Q2311.55 1558.57 2311.55 1554.84 Q2311.55 1551.09 2309.7 1548.94 Q2307.87 1546.79 2304.72 1546.79 M2314.01 1532.14 L2314.01 1536.39 Q2312.25 1535.56 2310.44 1535.12 Q2308.66 1534.68 2306.9 1534.68 Q2302.27 1534.68 2299.82 1537.81 Q2297.39 1540.93 2297.04 1547.25 Q2298.4 1545.24 2300.47 1544.17 Q2302.53 1543.08 2305 1543.08 Q2310.21 1543.08 2313.22 1546.26 Q2316.25 1549.4 2316.25 1554.84 Q2316.25 1560.17 2313.1 1563.39 Q2309.96 1566.6 2304.72 1566.6 Q2298.73 1566.6 2295.56 1562.02 Q2292.39 1557.41 2292.39 1548.69 Q2292.39 1540.49 2296.28 1535.63 Q2300.16 1530.75 2306.72 1530.75 Q2308.47 1530.75 2310.26 1531.09 Q2312.06 1531.44 2314.01 1532.14 Z" fill="#000000" fill-rule="evenodd" fill-opacity="1" /><path clip-path="url(#clip720)" d="M 0 0 M1078.3 1607.89 L1078.3 1625.74 L1086.38 1625.74 Q1090.87 1625.74 1093.32 1623.42 Q1095.77 1621.1 1095.77 1616.8 Q1095.77 1612.53 1093.32 1610.21 Q1090.87 1607.89 1086.38 1607.89 L1078.3 1607.89 M1071.87 1602.6 L1086.38 1602.6 Q1094.37 1602.6 1098.44 1606.23 Q1102.55 1609.83 1102.55 1616.8 Q1102.55 1623.83 1098.44 1627.43 Q1094.37 1631.03 1086.38 1631.03 L1078.3 1631.03 L1078.3 1650.12 L1071.87 1650.12 L1071.87 1602.6 Z" fill="#000000" fill-rule="evenodd" fill-opacity="1" /><path clip-path="url(#clip720)" d="M 0 0 M1130.43 1619.95 Q1129.45 1619.38 1128.27 1619.12 Q1127.12 1618.84 1125.72 1618.84 Q1120.76 1618.84 1118.08 1622.08 Q1115.44 1625.3 1115.44 1631.35 L1115.44 1650.12 L1109.55 1650.12 L1109.55 1614.48 L1115.44 1614.48 L1115.44 1620.01 Q1117.29 1616.77 1120.25 1615.21 Q1123.21 1613.62 1127.44 1613.62 Q1128.05 1613.62 1128.78 1613.71 Q1129.51 1613.78 1130.4 1613.93 L1130.43 1619.95 Z" fill="#000000" fill-rule="evenodd" fill-opacity="1" /><path clip-path="url(#clip720)" d="M 0 0 M1148.96 1618.58 Q1144.25 1618.58 1141.51 1622.27 Q1138.77 1625.93 1138.77 1632.33 Q1138.77 1638.73 1141.48 1642.42 Q1144.21 1646.08 1148.96 1646.08 Q1153.64 1646.08 1156.37 1642.39 Q1159.11 1638.7 1159.11 1632.33 Q1159.11 1626 1156.37 1622.31 Q1153.64 1618.58 1148.96 1618.58 M1148.96 1613.62 Q1156.6 1613.62 1160.96 1618.58 Q1165.32 1623.55 1165.32 1632.33 Q1165.32 1641.08 1160.96 1646.08 Q1156.6 1651.05 1148.96 1651.05 Q1141.29 1651.05 1136.93 1646.08 Q1132.6 1641.08 1132.6 1632.33 Q1132.6 1623.55 1136.93 1618.58 Q1141.29 1613.62 1148.96 1613.62 Z" fill="#000000" fill-rule="evenodd" fill-opacity="1" /><path clip-path="url(#clip720)" d="M 0 0 M1200.68 1615.84 L1200.68 1621.32 Q1198.2 1619.95 1195.68 1619.28 Q1193.2 1618.58 1190.65 1618.58 Q1184.95 1618.58 1181.8 1622.21 Q1178.65 1625.81 1178.65 1632.33 Q1178.65 1638.86 1181.8 1642.48 Q1184.95 1646.08 1190.65 1646.08 Q1193.2 1646.08 1195.68 1645.41 Q1198.2 1644.71 1200.68 1643.34 L1200.68 1648.76 Q1198.23 1649.9 1195.59 1650.47 Q1192.98 1651.05 1190.02 1651.05 Q1181.96 1651.05 1177.22 1645.99 Q1172.48 1640.93 1172.48 1632.33 Q1172.48 1623.61 1177.25 1618.61 Q1182.06 1613.62 1190.4 1613.62 Q1193.1 1613.62 1195.68 1614.19 Q1198.26 1614.73 1200.68 1615.84 Z" fill="#000000" fill-rule="evenodd" fill-opacity="1" /><path clip-path="url(#clip720)" d="M 0 0 M1241.35 1630.84 L1241.35 1633.7 L1214.43 1633.7 Q1214.81 1639.75 1218.06 1642.93 Q1221.33 1646.08 1227.16 1646.08 Q1230.53 1646.08 1233.68 1645.25 Q1236.87 1644.43 1239.99 1642.77 L1239.99 1648.31 Q1236.84 1649.65 1233.52 1650.35 Q1230.21 1651.05 1226.81 1651.05 Q1218.28 1651.05 1213.28 1646.08 Q1208.32 1641.12 1208.32 1632.65 Q1208.32 1623.9 1213.03 1618.77 Q1217.77 1613.62 1225.79 1613.62 Q1232.98 1613.62 1237.15 1618.26 Q1241.35 1622.88 1241.35 1630.84 M1235.5 1629.12 Q1235.43 1624.31 1232.79 1621.45 Q1230.18 1618.58 1225.85 1618.58 Q1220.95 1618.58 1217.99 1621.35 Q1215.06 1624.12 1214.62 1629.15 L1235.5 1629.12 Z" fill="#000000" fill-rule="evenodd" fill-opacity="1" /><path clip-path="url(#clip720)" d="M 0 0 M1273.69 1615.53 L1273.69 1621.06 Q1271.21 1619.79 1268.54 1619.15 Q1265.86 1618.52 1263 1618.52 Q1258.64 1618.52 1256.44 1619.85 Q1254.28 1621.19 1254.28 1623.87 Q1254.28 1625.9 1255.84 1627.08 Q1257.4 1628.23 1262.11 1629.28 L1264.11 1629.72 Q1270.35 1631.06 1272.96 1633.51 Q1275.6 1635.93 1275.6 1640.29 Q1275.6 1645.25 1271.66 1648.15 Q1267.74 1651.05 1260.87 1651.05 Q1258 1651.05 1254.88 1650.47 Q1251.79 1649.93 1248.36 1648.82 L1248.36 1642.77 Q1251.6 1644.46 1254.75 1645.32 Q1257.91 1646.15 1260.99 1646.15 Q1265.13 1646.15 1267.36 1644.74 Q1269.59 1643.31 1269.59 1640.73 Q1269.59 1638.35 1267.96 1637.07 Q1266.37 1635.8 1260.93 1634.62 L1258.89 1634.15 Q1253.45 1633 1251.03 1630.64 Q1248.61 1628.26 1248.61 1624.12 Q1248.61 1619.09 1252.18 1616.35 Q1255.74 1613.62 1262.3 1613.62 Q1265.54 1613.62 1268.41 1614.09 Q1271.27 1614.57 1273.69 1615.53 Z" fill="#000000" fill-rule="evenodd" fill-opacity="1" /><path clip-path="url(#clip720)" d="M 0 0 M1307.65 1615.53 L1307.65 1621.06 Q1305.17 1619.79 1302.5 1619.15 Q1299.82 1618.52 1296.96 1618.52 Q1292.6 1618.52 1290.4 1619.85 Q1288.24 1621.19 1288.24 1623.87 Q1288.24 1625.9 1289.8 1627.08 Q1291.36 1628.23 1296.07 1629.28 L1298.07 1629.72 Q1304.31 1631.06 1306.92 1633.51 Q1309.56 1635.93 1309.56 1640.29 Q1309.56 1645.25 1305.62 1648.15 Q1301.7 1651.05 1294.83 1651.05 Q1291.96 1651.05 1288.84 1650.47 Q1285.76 1649.93 1282.32 1648.82 L1282.32 1642.77 Q1285.56 1644.46 1288.72 1645.32 Q1291.87 1646.15 1294.95 1646.15 Q1299.09 1646.15 1301.32 1644.74 Q1303.55 1643.31 1303.55 1640.73 Q1303.55 1638.35 1301.92 1637.07 Q1300.33 1635.8 1294.89 1634.62 L1292.85 1634.15 Q1287.41 1633 1284.99 1630.64 Q1282.57 1628.26 1282.57 1624.12 Q1282.57 1619.09 1286.14 1616.35 Q1289.7 1613.62 1296.26 1613.62 Q1299.51 1613.62 1302.37 1614.09 Q1305.23 1614.57 1307.65 1615.53 Z" fill="#000000" fill-rule="evenodd" fill-opacity="1" /><path clip-path="url(#clip720)" d="M 0 0 M1349.38 1630.84 L1349.38 1633.7 L1322.45 1633.7 Q1322.84 1639.75 1326.08 1642.93 Q1329.36 1646.08 1335.19 1646.08 Q1338.56 1646.08 1341.71 1645.25 Q1344.89 1644.43 1348.01 1642.77 L1348.01 1648.31 Q1344.86 1649.65 1341.55 1650.35 Q1338.24 1651.05 1334.84 1651.05 Q1326.31 1651.05 1321.31 1646.08 Q1316.34 1641.12 1316.34 1632.65 Q1316.34 1623.9 1321.05 1618.77 Q1325.8 1613.62 1333.82 1613.62 Q1341.01 1613.62 1345.18 1618.26 Q1349.38 1622.88 1349.38 1630.84 M1343.52 1629.12 Q1343.46 1624.31 1340.82 1621.45 Q1338.21 1618.58 1333.88 1618.58 Q1328.98 1618.58 1326.02 1621.35 Q1323.09 1624.12 1322.64 1629.15 L1343.52 1629.12 Z" fill="#000000" fill-rule="evenodd" fill-opacity="1" /><path clip-path="url(#clip720)" d="M 0 0 M1381.72 1615.53 L1381.72 1621.06 Q1379.24 1619.79 1376.56 1619.15 Q1373.89 1618.52 1371.02 1618.52 Q1366.66 1618.52 1364.47 1619.85 Q1362.3 1621.19 1362.3 1623.87 Q1362.3 1625.9 1363.86 1627.08 Q1365.42 1628.23 1370.13 1629.28 L1372.14 1629.72 Q1378.38 1631.06 1380.99 1633.51 Q1383.63 1635.93 1383.63 1640.29 Q1383.63 1645.25 1379.68 1648.15 Q1375.77 1651.05 1368.89 1651.05 Q1366.03 1651.05 1362.91 1650.47 Q1359.82 1649.93 1356.38 1648.82 L1356.38 1642.77 Q1359.63 1644.46 1362.78 1645.32 Q1365.93 1646.15 1369.02 1646.15 Q1373.16 1646.15 1375.38 1644.74 Q1377.61 1643.31 1377.61 1640.73 Q1377.61 1638.35 1375.99 1637.07 Q1374.4 1635.8 1368.96 1634.62 L1366.92 1634.15 Q1361.48 1633 1359.06 1630.64 Q1356.64 1628.26 1356.64 1624.12 Q1356.64 1619.09 1360.2 1616.35 Q1363.77 1613.62 1370.32 1613.62 Q1373.57 1613.62 1376.44 1614.09 Q1379.3 1614.57 1381.72 1615.53 Z" fill="#000000" fill-rule="evenodd" fill-opacity="1" /><polyline clip-path="url(#clip722)" style="stroke:#000000; stroke-width:2; stroke-opacity:0.1; fill:none" points="
  102.74,1505.26 2352.76,1505.26 
  "/>
<polyline clip-path="url(#clip722)" style="stroke:#000000; stroke-width:2; stroke-opacity:0.1; fill:none" points="
  102.74,1262.26 2352.76,1262.26 
  "/>
<polyline clip-path="url(#clip722)" style="stroke:#000000; stroke-width:2; stroke-opacity:0.1; fill:none" points="
  102.74,1019.25 2352.76,1019.25 
  "/>
<polyline clip-path="url(#clip722)" style="stroke:#000000; stroke-width:2; stroke-opacity:0.1; fill:none" points="
  102.74,776.252 2352.76,776.252 
  "/>
<polyline clip-path="url(#clip722)" style="stroke:#000000; stroke-width:2; stroke-opacity:0.1; fill:none" points="
  102.74,533.249 2352.76,533.249 
  "/>
<polyline clip-path="url(#clip722)" style="stroke:#000000; stroke-width:2; stroke-opacity:0.1; fill:none" points="
  102.74,290.247 2352.76,290.247 
  "/>
<polyline clip-path="url(#clip722)" style="stroke:#000000; stroke-width:2; stroke-opacity:0.1; fill:none" points="
  102.74,47.2441 2352.76,47.2441 
  "/>
<polyline clip-path="url(#clip720)" style="stroke:#000000; stroke-width:4; stroke-opacity:1; fill:none" points="
  102.74,1505.26 102.74,47.2441 
  "/>
<polyline clip-path="url(#clip720)" style="stroke:#000000; stroke-width:4; stroke-opacity:1; fill:none" points="
  102.74,1505.26 129.74,1505.26 
  "/>
<polyline clip-path="url(#clip720)" style="stroke:#000000; stroke-width:4; stroke-opacity:1; fill:none" points="
  102.74,1262.26 129.74,1262.26 
  "/>
<polyline clip-path="url(#clip720)" style="stroke:#000000; stroke-width:4; stroke-opacity:1; fill:none" points="
  102.74,1019.25 129.74,1019.25 
  "/>
<polyline clip-path="url(#clip720)" style="stroke:#000000; stroke-width:4; stroke-opacity:1; fill:none" points="
  102.74,776.252 129.74,776.252 
  "/>
<polyline clip-path="url(#clip720)" style="stroke:#000000; stroke-width:4; stroke-opacity:1; fill:none" points="
  102.74,533.249 129.74,533.249 
  "/>
<polyline clip-path="url(#clip720)" style="stroke:#000000; stroke-width:4; stroke-opacity:1; fill:none" points="
  102.74,290.247 129.74,290.247 
  "/>
<polyline clip-path="url(#clip720)" style="stroke:#000000; stroke-width:4; stroke-opacity:1; fill:none" points="
  102.74,47.2441 129.74,47.2441 
  "/>
<path clip-path="url(#clip720)" d="M 0 0 M54.7958 1491.06 Q51.1847 1491.06 49.356 1494.62 Q47.5504 1498.16 47.5504 1505.29 Q47.5504 1512.4 49.356 1515.97 Q51.1847 1519.51 54.7958 1519.51 Q58.43 1519.51 60.2356 1515.97 Q62.0643 1512.4 62.0643 1505.29 Q62.0643 1498.16 60.2356 1494.62 Q58.43 1491.06 54.7958 1491.06 M54.7958 1487.35 Q60.6059 1487.35 63.6615 1491.96 Q66.7402 1496.54 66.7402 1505.29 Q66.7402 1514.02 63.6615 1518.63 Q60.6059 1523.21 54.7958 1523.21 Q48.9856 1523.21 45.9069 1518.63 Q42.8514 1514.02 42.8514 1505.29 Q42.8514 1496.54 45.9069 1491.96 Q48.9856 1487.35 54.7958 1487.35 Z" fill="#000000" fill-rule="evenodd" fill-opacity="1" /><path clip-path="url(#clip720)" d="M 0 0 M28.8005 1260.9 Q32.157 1261.62 34.032 1263.89 Q35.9301 1266.16 35.9301 1269.49 Q35.9301 1274.61 32.4116 1277.41 Q28.8931 1280.21 22.4117 1280.21 Q20.2358 1280.21 17.921 1279.77 Q15.6293 1279.35 13.1756 1278.5 L13.1756 1273.98 Q15.1201 1275.12 17.4349 1275.69 Q19.7497 1276.27 22.2728 1276.27 Q26.6709 1276.27 28.9626 1274.54 Q31.2774 1272.8 31.2774 1269.49 Q31.2774 1266.44 29.1246 1264.72 Q26.995 1262.99 23.1756 1262.99 L19.1478 1262.99 L19.1478 1259.14 L23.3608 1259.14 Q26.8098 1259.14 28.6385 1257.78 Q30.4672 1256.39 30.4672 1253.8 Q30.4672 1251.13 28.5691 1249.72 Q26.6941 1248.29 23.1756 1248.29 Q21.2543 1248.29 19.0552 1248.7 Q16.8562 1249.12 14.2173 1250 L14.2173 1245.83 Q16.8793 1245.09 19.1941 1244.72 Q21.5321 1244.35 23.5922 1244.35 Q28.9163 1244.35 32.0181 1246.78 Q35.12 1249.19 35.12 1253.31 Q35.12 1256.18 33.4764 1258.17 Q31.8329 1260.14 28.8005 1260.9 Z" fill="#000000" fill-rule="evenodd" fill-opacity="1" /><path clip-path="url(#clip720)" d="M 0 0 M54.7958 1248.06 Q51.1847 1248.06 49.356 1251.62 Q47.5504 1255.16 47.5504 1262.29 Q47.5504 1269.4 49.356 1272.96 Q51.1847 1276.5 54.7958 1276.5 Q58.43 1276.5 60.2356 1272.96 Q62.0643 1269.4 62.0643 1262.29 Q62.0643 1255.16 60.2356 1251.62 Q58.43 1248.06 54.7958 1248.06 M54.7958 1244.35 Q60.6059 1244.35 63.6615 1248.96 Q66.7402 1253.54 66.7402 1262.29 Q66.7402 1271.02 63.6615 1275.63 Q60.6059 1280.21 54.7958 1280.21 Q48.9856 1280.21 45.9069 1275.63 Q42.8514 1271.02 42.8514 1262.29 Q42.8514 1253.54 45.9069 1248.96 Q48.9856 1244.35 54.7958 1244.35 Z" fill="#000000" fill-rule="evenodd" fill-opacity="1" /><path clip-path="url(#clip720)" d="M 0 0 M25.2126 1017.39 Q22.0645 1017.39 20.2126 1019.54 Q18.3839 1021.7 18.3839 1025.45 Q18.3839 1029.17 20.2126 1031.35 Q22.0645 1033.5 25.2126 1033.5 Q28.3607 1033.5 30.1894 1031.35 Q32.0413 1029.17 32.0413 1025.45 Q32.0413 1021.7 30.1894 1019.54 Q28.3607 1017.39 25.2126 1017.39 M34.495 1002.74 L34.495 1007 Q32.7357 1006.16 30.9302 1005.72 Q29.1478 1005.28 27.3885 1005.28 Q22.7589 1005.28 20.3052 1008.41 Q17.8747 1011.53 17.5275 1017.85 Q18.8932 1015.84 20.9534 1014.78 Q23.0135 1013.69 25.4904 1013.69 Q30.6987 1013.69 33.7079 1016.86 Q36.7403 1020.01 36.7403 1025.45 Q36.7403 1030.77 33.5922 1033.99 Q30.4441 1037.21 25.2126 1037.21 Q19.2173 1037.21 16.046 1032.62 Q12.8747 1028.02 12.8747 1019.29 Q12.8747 1011.09 16.7636 1006.23 Q20.6524 1001.35 27.2033 1001.35 Q28.9626 1001.35 30.745 1001.7 Q32.5505 1002.04 34.495 1002.74 Z" fill="#000000" fill-rule="evenodd" fill-opacity="1" /><path clip-path="url(#clip720)" d="M 0 0 M54.7958 1005.05 Q51.1847 1005.05 49.356 1008.62 Q47.5504 1012.16 47.5504 1019.29 Q47.5504 1026.4 49.356 1029.96 Q51.1847 1033.5 54.7958 1033.5 Q58.43 1033.5 60.2356 1029.96 Q62.0643 1026.4 62.0643 1019.29 Q62.0643 1012.16 60.2356 1008.62 Q58.43 1005.05 54.7958 1005.05 M54.7958 1001.35 Q60.6059 1001.35 63.6615 1005.96 Q66.7402 1010.54 66.7402 1019.29 Q66.7402 1028.02 63.6615 1032.62 Q60.6059 1037.21 54.7958 1037.21 Q48.9856 1037.21 45.9069 1032.62 Q42.8514 1028.02 42.8514 1019.29 Q42.8514 1010.54 45.9069 1005.96 Q48.9856 1001.35 54.7958 1001.35 Z" fill="#000000" fill-rule="evenodd" fill-opacity="1" /><path clip-path="url(#clip720)" d="M 0 0 M14.7728 792.814 L14.7728 788.555 Q16.5321 789.388 18.3376 789.828 Q20.1432 790.268 21.8793 790.268 Q26.5089 790.268 28.9394 787.166 Q31.3931 784.041 31.7403 777.699 Q30.3978 779.689 28.3376 780.754 Q26.2774 781.819 23.7774 781.819 Q18.5923 781.819 15.5599 778.694 Q12.5506 775.546 12.5506 770.106 Q12.5506 764.782 15.6988 761.565 Q18.8469 758.347 24.0783 758.347 Q30.0737 758.347 33.2218 762.953 Q36.3931 767.537 36.3931 776.287 Q36.3931 784.458 32.5042 789.342 Q28.6385 794.203 22.0876 794.203 Q20.3284 794.203 18.5228 793.856 Q16.7173 793.509 14.7728 792.814 M24.0783 778.162 Q27.2265 778.162 29.0552 776.009 Q30.907 773.856 30.907 770.106 Q30.907 766.379 29.0552 764.227 Q27.2265 762.051 24.0783 762.051 Q20.9302 762.051 19.0784 764.227 Q17.2497 766.379 17.2497 770.106 Q17.2497 773.856 19.0784 776.009 Q20.9302 778.162 24.0783 778.162 Z" fill="#000000" fill-rule="evenodd" fill-opacity="1" /><path clip-path="url(#clip720)" d="M 0 0 M54.7958 762.051 Q51.1847 762.051 49.356 765.615 Q47.5504 769.157 47.5504 776.287 Q47.5504 783.393 49.356 786.958 Q51.1847 790.5 54.7958 790.5 Q58.43 790.5 60.2356 786.958 Q62.0643 783.393 62.0643 776.287 Q62.0643 769.157 60.2356 765.615 Q58.43 762.051 54.7958 762.051 M54.7958 758.347 Q60.6059 758.347 63.6615 762.953 Q66.7402 767.537 66.7402 776.287 Q66.7402 785.013 63.6615 789.62 Q60.6059 794.203 54.7958 794.203 Q48.9856 794.203 45.9069 789.62 Q42.8514 785.013 42.8514 776.287 Q42.8514 767.537 45.9069 762.953 Q48.9856 758.347 54.7958 758.347 Z" fill="#000000" fill-rule="evenodd" fill-opacity="1" /><path clip-path="url(#clip720)" d="M 0 0 M-14.7177 546.594 L-7.07889 546.594 L-7.07889 520.229 L-15.389 521.895 L-15.389 517.636 L-7.12519 515.969 L-2.44929 515.969 L-2.44929 546.594 L5.18956 546.594 L5.18956 550.529 L-14.7177 550.529 L-14.7177 546.594 Z" fill="#000000" fill-rule="evenodd" fill-opacity="1" /><path clip-path="url(#clip720)" d="M 0 0 M18.6617 546.594 L34.9811 546.594 L34.9811 550.529 L13.0367 550.529 L13.0367 546.594 Q15.6988 543.84 20.2821 539.21 Q24.8885 534.557 26.0691 533.215 Q28.3144 530.691 29.1941 528.955 Q30.0968 527.196 30.0968 525.506 Q30.0968 522.752 28.1524 521.016 Q26.2311 519.28 23.1293 519.28 Q20.9302 519.28 18.4765 520.043 Q16.046 520.807 13.2682 522.358 L13.2682 517.636 Q16.0923 516.502 18.546 515.923 Q20.9997 515.344 23.0367 515.344 Q28.407 515.344 31.6015 518.03 Q34.7959 520.715 34.7959 525.205 Q34.7959 527.335 33.9857 529.256 Q33.1987 531.154 31.0922 533.747 Q30.5135 534.418 27.4117 537.636 Q24.3098 540.83 18.6617 546.594 Z" fill="#000000" fill-rule="evenodd" fill-opacity="1" /><path clip-path="url(#clip720)" d="M 0 0 M54.7958 519.048 Q51.1847 519.048 49.356 522.613 Q47.5504 526.154 47.5504 533.284 Q47.5504 540.391 49.356 543.955 Q51.1847 547.497 54.7958 547.497 Q58.43 547.497 60.2356 543.955 Q62.0643 540.391 62.0643 533.284 Q62.0643 526.154 60.2356 522.613 Q58.43 519.048 54.7958 519.048 M54.7958 515.344 Q60.6059 515.344 63.6615 519.951 Q66.7402 524.534 66.7402 533.284 Q66.7402 542.011 63.6615 546.617 Q60.6059 551.201 54.7958 551.201 Q48.9856 551.201 45.9069 546.617 Q42.8514 542.011 42.8514 533.284 Q42.8514 524.534 45.9069 519.951 Q48.9856 515.344 54.7958 515.344 Z" fill="#000000" fill-rule="evenodd" fill-opacity="1" /><path clip-path="url(#clip720)" d="M 0 0 M-14.7177 303.592 L-7.07889 303.592 L-7.07889 277.226 L-15.389 278.893 L-15.389 274.633 L-7.12519 272.967 L-2.44929 272.967 L-2.44929 303.592 L5.18956 303.592 L5.18956 307.527 L-14.7177 307.527 L-14.7177 303.592 Z" fill="#000000" fill-rule="evenodd" fill-opacity="1" /><path clip-path="url(#clip720)" d="M 0 0 M14.6803 272.967 L33.0366 272.967 L33.0366 276.902 L18.9626 276.902 L18.9626 285.374 Q19.9811 285.027 20.9997 284.865 Q22.0182 284.68 23.0367 284.68 Q28.8237 284.68 32.2033 287.851 Q35.5829 291.022 35.5829 296.439 Q35.5829 302.017 32.1107 305.119 Q28.6385 308.198 22.3191 308.198 Q20.1432 308.198 17.8747 307.828 Q15.6293 307.457 13.2219 306.717 L13.2219 302.017 Q15.3052 303.152 17.5275 303.707 Q19.7497 304.263 22.2265 304.263 Q26.2311 304.263 28.5691 302.156 Q30.907 300.05 30.907 296.439 Q30.907 292.828 28.5691 290.721 Q26.2311 288.615 22.2265 288.615 Q20.3515 288.615 18.4765 289.031 Q16.6247 289.448 14.6803 290.328 L14.6803 272.967 Z" fill="#000000" fill-rule="evenodd" fill-opacity="1" /><path clip-path="url(#clip720)" d="M 0 0 M54.7958 276.045 Q51.1847 276.045 49.356 279.61 Q47.5504 283.152 47.5504 290.281 Q47.5504 297.388 49.356 300.953 Q51.1847 304.494 54.7958 304.494 Q58.43 304.494 60.2356 300.953 Q62.0643 297.388 62.0643 290.281 Q62.0643 283.152 60.2356 279.61 Q58.43 276.045 54.7958 276.045 M54.7958 272.342 Q60.6059 272.342 63.6615 276.948 Q66.7402 281.531 66.7402 290.281 Q66.7402 299.008 63.6615 303.615 Q60.6059 308.198 54.7958 308.198 Q48.9856 308.198 45.9069 303.615 Q42.8514 299.008 42.8514 290.281 Q42.8514 281.531 45.9069 276.948 Q48.9856 272.342 54.7958 272.342 Z" fill="#000000" fill-rule="evenodd" fill-opacity="1" /><path clip-path="url(#clip720)" d="M 0 0 M-14.7177 60.5889 L-7.07889 60.5889 L-7.07889 34.2233 L-15.389 35.89 L-15.389 31.6308 L-7.12519 29.9641 L-2.44929 29.9641 L-2.44929 60.5889 L5.18956 60.5889 L5.18956 64.5241 L-14.7177 64.5241 L-14.7177 60.5889 Z" fill="#000000" fill-rule="evenodd" fill-opacity="1" /><path clip-path="url(#clip720)" d="M 0 0 M24.6339 48.1121 Q21.3006 48.1121 19.3793 49.8945 Q17.4812 51.6769 17.4812 54.8019 Q17.4812 57.9269 19.3793 59.7093 Q21.3006 61.4917 24.6339 61.4917 Q27.9672 61.4917 29.8885 59.7093 Q31.8098 57.9038 31.8098 54.8019 Q31.8098 51.6769 29.8885 49.8945 Q27.9904 48.1121 24.6339 48.1121 M19.958 46.1214 Q16.9488 45.3807 15.259 43.3205 Q13.5923 41.2603 13.5923 38.2974 Q13.5923 34.1539 16.5321 31.7465 Q19.495 29.3391 24.6339 29.3391 Q29.7959 29.3391 32.7357 31.7465 Q35.6755 34.1539 35.6755 38.2974 Q35.6755 41.2603 33.9857 43.3205 Q32.319 45.3807 29.333 46.1214 Q32.7126 46.9084 34.5876 49.2001 Q36.4857 51.4918 36.4857 54.8019 Q36.4857 59.825 33.407 62.5102 Q30.3515 65.1954 24.6339 65.1954 Q18.9163 65.1954 15.8377 62.5102 Q12.7821 59.825 12.7821 54.8019 Q12.7821 51.4918 14.6803 49.2001 Q16.5784 46.9084 19.958 46.1214 M18.245 38.7372 Q18.245 41.4224 19.9117 42.927 Q21.6015 44.4316 24.6339 44.4316 Q27.6431 44.4316 29.333 42.927 Q31.0459 41.4224 31.0459 38.7372 Q31.0459 36.052 29.333 34.5474 Q27.6431 33.0428 24.6339 33.0428 Q21.6015 33.0428 19.9117 34.5474 Q18.245 36.052 18.245 38.7372 Z" fill="#000000" fill-rule="evenodd" fill-opacity="1" /><path clip-path="url(#clip720)" d="M 0 0 M54.7958 33.0428 Q51.1847 33.0428 49.356 36.6076 Q47.5504 40.1492 47.5504 47.2788 Q47.5504 54.3853 49.356 57.9501 Q51.1847 61.4917 54.7958 61.4917 Q58.43 61.4917 60.2356 57.9501 Q62.0643 54.3853 62.0643 47.2788 Q62.0643 40.1492 60.2356 36.6076 Q58.43 33.0428 54.7958 33.0428 M54.7958 29.3391 Q60.6059 29.3391 63.6615 33.9456 Q66.7402 38.5289 66.7402 47.2788 Q66.7402 56.0056 63.6615 60.6121 Q60.6059 65.1954 54.7958 65.1954 Q48.9856 65.1954 45.9069 60.6121 Q42.8514 56.0056 42.8514 47.2788 Q42.8514 38.5289 45.9069 33.9456 Q48.9856 29.3391 54.7958 29.3391 Z" fill="#000000" fill-rule="evenodd" fill-opacity="1" /><path clip-path="url(#clip720)" d="M 0 0 M-113.165 906.081 L-113.165 865.881 L-107.754 865.881 L-107.754 882.75 L-65.645 882.75 L-65.645 889.211 L-107.754 889.211 L-107.754 906.081 L-113.165 906.081 Z" fill="#000000" fill-rule="evenodd" fill-opacity="1" /><path clip-path="url(#clip720)" d="M 0 0 M-101.293 861.934 L-101.293 856.078 L-65.645 856.078 L-65.645 861.934 L-101.293 861.934 M-115.17 861.934 L-115.17 856.078 L-107.754 856.078 L-107.754 861.934 L-115.17 861.934 Z" fill="#000000" fill-rule="evenodd" fill-opacity="1" /><path clip-path="url(#clip720)" d="M 0 0 M-94.4499 816.069 Q-98.3966 813.873 -100.274 810.818 Q-102.152 807.762 -102.152 803.625 Q-102.152 798.055 -98.2375 795.031 Q-94.3544 792.007 -87.1611 792.007 L-65.645 792.007 L-65.645 797.895 L-86.9701 797.895 Q-92.0945 797.895 -94.5772 799.71 Q-97.0598 801.524 -97.0598 805.248 Q-97.0598 809.799 -94.0361 812.441 Q-91.0124 815.083 -85.7925 815.083 L-65.645 815.083 L-65.645 820.971 L-86.9701 820.971 Q-92.1264 820.971 -94.5772 822.785 Q-97.0598 824.6 -97.0598 828.387 Q-97.0598 832.875 -94.0043 835.517 Q-90.9805 838.158 -85.7925 838.158 L-65.645 838.158 L-65.645 844.047 L-101.293 844.047 L-101.293 838.158 L-95.7548 838.158 Q-99.0332 836.153 -100.593 833.352 Q-102.152 830.551 -102.152 826.7 Q-102.152 822.817 -100.179 820.112 Q-98.2056 817.374 -94.4499 816.069 Z" fill="#000000" fill-rule="evenodd" fill-opacity="1" /><path clip-path="url(#clip720)" d="M 0 0 M-84.9331 749.834 L-82.0686 749.834 L-82.0686 776.761 Q-76.0211 776.379 -72.8383 773.133 Q-69.6873 769.854 -69.6873 764.03 Q-69.6873 760.656 -70.5148 757.505 Q-71.3423 754.322 -72.9974 751.203 L-67.4593 751.203 Q-66.1225 754.354 -65.4222 757.664 Q-64.722 760.974 -64.722 764.38 Q-64.722 772.91 -69.6873 777.907 Q-74.6525 782.872 -83.1189 782.872 Q-91.8717 782.872 -96.9961 778.162 Q-102.152 773.419 -102.152 765.398 Q-102.152 758.205 -97.5054 754.036 Q-92.8903 749.834 -84.9331 749.834 M-86.6519 755.691 Q-91.458 755.754 -94.3225 758.396 Q-97.1871 761.006 -97.1871 765.335 Q-97.1871 770.236 -94.418 773.196 Q-91.6489 776.125 -86.62 776.57 L-86.6519 755.691 Z" fill="#000000" fill-rule="evenodd" fill-opacity="1" /><path clip-path="url(#clip720)" d="M 0 0 M-115.107 705.433 Q-107.786 709.699 -100.625 711.767 Q-93.4632 713.836 -86.1108 713.836 Q-78.7584 713.836 -71.5333 711.767 Q-64.3401 709.667 -57.0513 705.433 L-57.0513 710.526 Q-64.531 715.3 -71.7561 717.687 Q-78.9812 720.043 -86.1108 720.043 Q-93.2085 720.043 -100.402 717.687 Q-107.595 715.332 -115.107 710.526 L-115.107 705.433 Z" fill="#000000" fill-rule="evenodd" fill-opacity="1" /><path clip-path="url(#clip720)" d="M 0 0 M-100.243 671.345 L-94.7045 671.345 Q-95.9776 673.828 -96.6142 676.501 Q-97.2508 679.175 -97.2508 682.04 Q-97.2508 686.4 -95.914 688.596 Q-94.5772 690.761 -91.9036 690.761 Q-89.8665 690.761 -88.6889 689.201 Q-87.5431 687.641 -86.4927 682.931 L-86.0471 680.926 Q-84.7103 674.687 -82.2595 672.077 Q-79.8406 669.435 -75.48 669.435 Q-70.5148 669.435 -67.6184 673.382 Q-64.722 677.297 -64.722 684.172 Q-64.722 687.037 -65.2949 690.156 Q-65.836 693.243 -66.95 696.681 L-72.9974 696.681 Q-71.3105 693.434 -70.4511 690.283 Q-69.6236 687.132 -69.6236 684.045 Q-69.6236 679.907 -71.0241 677.679 Q-72.4563 675.451 -75.0344 675.451 Q-77.4216 675.451 -78.6947 677.074 Q-79.9679 678.666 -81.1455 684.108 L-81.623 686.145 Q-82.7688 691.588 -85.1241 694.007 Q-87.5112 696.426 -91.6489 696.426 Q-96.6779 696.426 -99.4151 692.861 Q-102.152 689.296 -102.152 682.74 Q-102.152 679.493 -101.675 676.629 Q-101.198 673.764 -100.243 671.345 Z" fill="#000000" fill-rule="evenodd" fill-opacity="1" /><path clip-path="url(#clip720)" d="M 0 0 M-115.107 661.033 L-115.107 655.94 Q-107.595 651.166 -100.402 648.811 Q-93.2085 646.423 -86.1108 646.423 Q-78.9812 646.423 -71.7561 648.811 Q-64.531 651.166 -57.0513 655.94 L-57.0513 661.033 Q-64.3401 656.799 -71.5333 654.731 Q-78.7584 652.63 -86.1108 652.63 Q-93.4632 652.63 -100.625 654.731 Q-107.786 656.799 -115.107 661.033 Z" fill="#000000" fill-rule="evenodd" fill-opacity="1" /><polyline clip-path="url(#clip722)" style="stroke:#009af9; stroke-width:4; stroke-opacity:1; fill:none" points="
  166.42,89.2187 211.583,550.349 301.909,681.999 482.56,725.132 843.863,732.884 1205.17,726.55 1566.47,731.386 1927.77,719.948 2289.08,704.315 
  "/>
<circle clip-path="url(#clip722)" cx="166.42" cy="89.2187" r="14" fill="#009af9" fill-rule="evenodd" fill-opacity="1" stroke="#000000" stroke-opacity="1" stroke-width="3.2"/>
<circle clip-path="url(#clip722)" cx="211.583" cy="550.349" r="14" fill="#009af9" fill-rule="evenodd" fill-opacity="1" stroke="#000000" stroke-opacity="1" stroke-width="3.2"/>
<circle clip-path="url(#clip722)" cx="301.909" cy="681.999" r="14" fill="#009af9" fill-rule="evenodd" fill-opacity="1" stroke="#000000" stroke-opacity="1" stroke-width="3.2"/>
<circle clip-path="url(#clip722)" cx="482.56" cy="725.132" r="14" fill="#009af9" fill-rule="evenodd" fill-opacity="1" stroke="#000000" stroke-opacity="1" stroke-width="3.2"/>
<circle clip-path="url(#clip722)" cx="843.863" cy="732.884" r="14" fill="#009af9" fill-rule="evenodd" fill-opacity="1" stroke="#000000" stroke-opacity="1" stroke-width="3.2"/>
<circle clip-path="url(#clip722)" cx="1205.17" cy="726.55" r="14" fill="#009af9" fill-rule="evenodd" fill-opacity="1" stroke="#000000" stroke-opacity="1" stroke-width="3.2"/>
<circle clip-path="url(#clip722)" cx="1566.47" cy="731.386" r="14" fill="#009af9" fill-rule="evenodd" fill-opacity="1" stroke="#000000" stroke-opacity="1" stroke-width="3.2"/>
<circle clip-path="url(#clip722)" cx="1927.77" cy="719.948" r="14" fill="#009af9" fill-rule="evenodd" fill-opacity="1" stroke="#000000" stroke-opacity="1" stroke-width="3.2"/>
<circle clip-path="url(#clip722)" cx="2289.08" cy="704.315" r="14" fill="#009af9" fill-rule="evenodd" fill-opacity="1" stroke="#000000" stroke-opacity="1" stroke-width="3.2"/>
</svg>
