<?xml version="1.0" encoding="utf-8"?>
<svg xmlns="http://www.w3.org/2000/svg" xmlns:xlink="http://www.w3.org/1999/xlink" width="600" height="400" viewBox="0 0 2400 1600">
<defs>
  <clipPath id="clip810">
    <rect x="0" y="0" width="2400" height="1600"/>
  </clipPath>
</defs>
<path clip-path="url(#clip810)" d="
M0 1600 L2400 1600 L2400 0 L0 0  Z
  " fill="#ffffff" fill-rule="evenodd" fill-opacity="1"/>
<defs>
  <clipPath id="clip811">
    <rect x="480" y="0" width="1681" height="1600"/>
  </clipPath>
</defs>
<path clip-path="url(#clip810)" d="
M102.74 1505.26 L2352.76 1505.26 L2352.76 47.2441 L102.74 47.2441  Z
  " fill="#ffffff" fill-rule="evenodd" fill-opacity="1"/>
<defs>
  <clipPath id="clip812">
    <rect x="102" y="47" width="2251" height="1459"/>
  </clipPath>
</defs>
<polyline clip-path="url(#clip812)" style="stroke:#000000; stroke-width:2; stroke-opacity:0.1; fill:none" points="
  512.567,1505.26 512.567,47.2441 
  "/>
<polyline clip-path="url(#clip812)" style="stroke:#000000; stroke-width:2; stroke-opacity:0.1; fill:none" points="
  1227.75,1505.26 1227.75,47.2441 
  "/>
<polyline clip-path="url(#clip812)" style="stroke:#000000; stroke-width:2; stroke-opacity:0.1; fill:none" points="
  1942.93,1505.26 1942.93,47.2441 
  "/>
<polyline clip-path="url(#clip810)" style="stroke:#000000; stroke-width:4; stroke-opacity:1; fill:none" points="
  102.74,1505.26 2352.76,1505.26 
  "/>
<polyline clip-path="url(#clip810)" style="stroke:#000000; stroke-width:4; stroke-opacity:1; fill:none" points="
  512.567,1505.26 512.567,1487.76 
  "/>
<polyline clip-path="url(#clip810)" style="stroke:#000000; stroke-width:4; stroke-opacity:1; fill:none" points="
  1227.75,1505.26 1227.75,1487.76 
  "/>
<polyline clip-path="url(#clip810)" style="stroke:#000000; stroke-width:4; stroke-opacity:1; fill:none" points="
  1942.93,1505.26 1942.93,1487.76 
  "/>
<path clip-path="url(#clip810)" d="M 0 0 M507.22 1562 L523.539 1562 L523.539 1565.93 L501.595 1565.93 L501.595 1562 Q504.257 1559.24 508.84 1554.61 Q513.447 1549.96 514.627 1548.62 Q516.873 1546.09 517.752 1544.36 Q518.655 1542.6 518.655 1540.91 Q518.655 1538.15 516.711 1536.42 Q514.79 1534.68 511.688 1534.68 Q509.489 1534.68 507.035 1535.45 Q504.604 1536.21 501.827 1537.76 L501.827 1533.04 Q504.651 1531.9 507.104 1531.33 Q509.558 1530.75 511.595 1530.75 Q516.965 1530.75 520.16 1533.43 Q523.354 1536.12 523.354 1540.61 Q523.354 1542.74 522.544 1544.66 Q521.757 1546.56 519.651 1549.15 Q519.072 1549.82 515.97 1553.04 Q512.868 1556.23 507.22 1562 Z" fill="#000000" fill-rule="evenodd" fill-opacity="1" /><path clip-path="url(#clip810)" d="M 0 0 M1232 1547.3 Q1235.35 1548.02 1237.23 1550.28 Q1239.13 1552.55 1239.13 1555.89 Q1239.13 1561 1235.61 1563.8 Q1232.09 1566.6 1225.61 1566.6 Q1223.43 1566.6 1221.12 1566.16 Q1218.82 1565.75 1216.37 1564.89 L1216.37 1560.38 Q1218.32 1561.51 1220.63 1562.09 Q1222.94 1562.67 1225.47 1562.67 Q1229.87 1562.67 1232.16 1560.93 Q1234.47 1559.2 1234.47 1555.89 Q1234.47 1552.83 1232.32 1551.12 Q1230.19 1549.38 1226.37 1549.38 L1222.34 1549.38 L1222.34 1545.54 L1226.56 1545.54 Q1230 1545.54 1231.83 1544.17 Q1233.66 1542.78 1233.66 1540.19 Q1233.66 1537.53 1231.76 1536.12 Q1229.89 1534.68 1226.37 1534.68 Q1224.45 1534.68 1222.25 1535.1 Q1220.05 1535.52 1217.41 1536.39 L1217.41 1532.23 Q1220.07 1531.49 1222.39 1531.12 Q1224.73 1530.75 1226.79 1530.75 Q1232.11 1530.75 1235.21 1533.18 Q1238.32 1535.58 1238.32 1539.71 Q1238.32 1542.58 1236.67 1544.57 Q1235.03 1546.53 1232 1547.3 Z" fill="#000000" fill-rule="evenodd" fill-opacity="1" /><path clip-path="url(#clip810)" d="M 0 0 M1945.94 1535.45 L1934.13 1553.89 L1945.94 1553.89 L1945.94 1535.45 M1944.71 1531.37 L1950.59 1531.37 L1950.59 1553.89 L1955.52 1553.89 L1955.52 1557.78 L1950.59 1557.78 L1950.59 1565.93 L1945.94 1565.93 L1945.94 1557.78 L1930.34 1557.78 L1930.34 1553.27 L1944.71 1531.37 Z" fill="#000000" fill-rule="evenodd" fill-opacity="1" /><path clip-path="url(#clip810)" d="M 0 0 M1076.59 1607.89 L1076.59 1625.74 L1084.68 1625.74 Q1089.17 1625.74 1091.62 1623.42 Q1094.07 1621.1 1094.07 1616.8 Q1094.07 1612.53 1091.62 1610.21 Q1089.17 1607.89 1084.68 1607.89 L1076.59 1607.89 M1070.16 1602.6 L1084.68 1602.6 Q1092.67 1602.6 1096.74 1606.23 Q1100.85 1609.83 1100.85 1616.8 Q1100.85 1623.83 1096.74 1627.43 Q1092.67 1631.03 1084.68 1631.03 L1076.59 1631.03 L1076.59 1650.12 L1070.16 1650.12 L1070.16 1602.6 Z" fill="#000000" fill-rule="evenodd" fill-opacity="1" /><path clip-path="url(#clip810)" d="M 0 0 M1128.73 1619.95 Q1127.74 1619.38 1126.57 1619.12 Q1125.42 1618.84 1124.02 1618.84 Q1119.05 1618.84 1116.38 1622.08 Q1113.74 1625.3 1113.74 1631.35 L1113.74 1650.12 L1107.85 1650.12 L1107.85 1614.48 L1113.74 1614.48 L1113.74 1620.01 Q1115.58 1616.77 1118.54 1615.21 Q1121.5 1613.62 1125.74 1613.62 Q1126.34 1613.62 1127.07 1613.71 Q1127.81 1613.78 1128.7 1613.93 L1128.73 1619.95 Z" fill="#000000" fill-rule="evenodd" fill-opacity="1" /><path clip-path="url(#clip810)" d="M 0 0 M1147.25 1618.58 Q1142.54 1618.58 1139.81 1622.27 Q1137.07 1625.93 1137.07 1632.33 Q1137.07 1638.73 1139.77 1642.42 Q1142.51 1646.08 1147.25 1646.08 Q1151.93 1646.08 1154.67 1642.39 Q1157.41 1638.7 1157.41 1632.33 Q1157.41 1626 1154.67 1622.31 Q1151.93 1618.58 1147.25 1618.58 M1147.25 1613.62 Q1154.89 1613.62 1159.25 1618.58 Q1163.61 1623.55 1163.61 1632.33 Q1163.61 1641.08 1159.25 1646.08 Q1154.89 1651.05 1147.25 1651.05 Q1139.58 1651.05 1135.22 1646.08 Q1130.89 1641.08 1130.89 1632.33 Q1130.89 1623.55 1135.22 1618.58 Q1139.58 1613.62 1147.25 1613.62 Z" fill="#000000" fill-rule="evenodd" fill-opacity="1" /><path clip-path="url(#clip810)" d="M 0 0 M1198.98 1615.84 L1198.98 1621.32 Q1196.49 1619.95 1193.98 1619.28 Q1191.5 1618.58 1188.95 1618.58 Q1183.25 1618.58 1180.1 1622.21 Q1176.95 1625.81 1176.95 1632.33 Q1176.95 1638.86 1180.1 1642.48 Q1183.25 1646.08 1188.95 1646.08 Q1191.5 1646.08 1193.98 1645.41 Q1196.49 1644.71 1198.98 1643.34 L1198.98 1648.76 Q1196.52 1649.9 1193.88 1650.47 Q1191.27 1651.05 1188.31 1651.05 Q1180.26 1651.05 1175.52 1645.99 Q1170.77 1640.93 1170.77 1632.33 Q1170.77 1623.61 1175.55 1618.61 Q1180.36 1613.62 1188.69 1613.62 Q1191.4 1613.62 1193.98 1614.19 Q1196.56 1614.73 1198.98 1615.84 Z" fill="#000000" fill-rule="evenodd" fill-opacity="1" /><path clip-path="url(#clip810)" d="M 0 0 M1239.65 1630.84 L1239.65 1633.7 L1212.72 1633.7 Q1213.11 1639.75 1216.35 1642.93 Q1219.63 1646.08 1225.46 1646.08 Q1228.83 1646.08 1231.98 1645.25 Q1235.16 1644.43 1238.28 1642.77 L1238.28 1648.31 Q1235.13 1649.65 1231.82 1650.35 Q1228.51 1651.05 1225.11 1651.05 Q1216.58 1651.05 1211.58 1646.08 Q1206.61 1641.12 1206.61 1632.65 Q1206.61 1623.9 1211.32 1618.77 Q1216.07 1613.62 1224.09 1613.62 Q1231.28 1613.62 1235.45 1618.26 Q1239.65 1622.88 1239.65 1630.84 M1233.8 1629.12 Q1233.73 1624.31 1231.09 1621.45 Q1228.48 1618.58 1224.15 1618.58 Q1219.25 1618.58 1216.29 1621.35 Q1213.36 1624.12 1212.92 1629.15 L1233.8 1629.12 Z" fill="#000000" fill-rule="evenodd" fill-opacity="1" /><path clip-path="url(#clip810)" d="M 0 0 M1271.99 1615.53 L1271.99 1621.06 Q1269.51 1619.79 1266.83 1619.15 Q1264.16 1618.52 1261.3 1618.52 Q1256.93 1618.52 1254.74 1619.85 Q1252.57 1621.19 1252.57 1623.87 Q1252.57 1625.9 1254.13 1627.08 Q1255.69 1628.23 1260.4 1629.28 L1262.41 1629.72 Q1268.65 1631.06 1271.26 1633.51 Q1273.9 1635.93 1273.9 1640.29 Q1273.9 1645.25 1269.95 1648.15 Q1266.04 1651.05 1259.16 1651.05 Q1256.3 1651.05 1253.18 1650.47 Q1250.09 1649.93 1246.65 1648.82 L1246.65 1642.77 Q1249.9 1644.46 1253.05 1645.32 Q1256.2 1646.15 1259.29 1646.15 Q1263.43 1646.15 1265.66 1644.74 Q1267.88 1643.31 1267.88 1640.73 Q1267.88 1638.35 1266.26 1637.07 Q1264.67 1635.8 1259.23 1634.62 L1257.19 1634.15 Q1251.75 1633 1249.33 1630.64 Q1246.91 1628.26 1246.91 1624.12 Q1246.91 1619.09 1250.47 1616.35 Q1254.04 1613.62 1260.6 1613.62 Q1263.84 1613.62 1266.71 1614.09 Q1269.57 1614.57 1271.99 1615.53 Z" fill="#000000" fill-rule="evenodd" fill-opacity="1" /><path clip-path="url(#clip810)" d="M 0 0 M1305.95 1615.53 L1305.95 1621.06 Q1303.47 1619.79 1300.79 1619.15 Q1298.12 1618.52 1295.26 1618.52 Q1290.9 1618.52 1288.7 1619.85 Q1286.54 1621.19 1286.54 1623.87 Q1286.54 1625.9 1288.09 1627.08 Q1289.65 1628.23 1294.37 1629.28 L1296.37 1629.72 Q1302.61 1631.06 1305.22 1633.51 Q1307.86 1635.93 1307.86 1640.29 Q1307.86 1645.25 1303.91 1648.15 Q1300 1651.05 1293.12 1651.05 Q1290.26 1651.05 1287.14 1650.47 Q1284.05 1649.93 1280.62 1648.82 L1280.62 1642.77 Q1283.86 1644.46 1287.01 1645.32 Q1290.16 1646.15 1293.25 1646.15 Q1297.39 1646.15 1299.62 1644.74 Q1301.84 1643.31 1301.84 1640.73 Q1301.84 1638.35 1300.22 1637.07 Q1298.63 1635.8 1293.19 1634.62 L1291.15 1634.15 Q1285.71 1633 1283.29 1630.64 Q1280.87 1628.26 1280.87 1624.12 Q1280.87 1619.09 1284.43 1616.35 Q1288 1613.62 1294.56 1613.62 Q1297.8 1613.62 1300.67 1614.09 Q1303.53 1614.57 1305.95 1615.53 Z" fill="#000000" fill-rule="evenodd" fill-opacity="1" /><path clip-path="url(#clip810)" d="M 0 0 M1337.91 1614.48 L1343.76 1614.48 L1343.76 1650.12 L1337.91 1650.12 L1337.91 1614.48 M1337.91 1600.6 L1343.76 1600.6 L1343.76 1608.01 L1337.91 1608.01 L1337.91 1600.6 Z" fill="#000000" fill-rule="evenodd" fill-opacity="1" /><path clip-path="url(#clip810)" d="M 0 0 M1379.47 1619.89 L1379.47 1600.6 L1385.33 1600.6 L1385.33 1650.12 L1379.47 1650.12 L1379.47 1644.78 Q1377.63 1647.96 1374.8 1649.52 Q1371.99 1651.05 1368.05 1651.05 Q1361.59 1651.05 1357.51 1645.89 Q1353.47 1640.73 1353.47 1632.33 Q1353.47 1623.93 1357.51 1618.77 Q1361.59 1613.62 1368.05 1613.62 Q1371.99 1613.62 1374.8 1615.18 Q1377.63 1616.7 1379.47 1619.89 M1359.52 1632.33 Q1359.52 1638.79 1362.16 1642.48 Q1364.83 1646.15 1369.48 1646.15 Q1374.13 1646.15 1376.8 1642.48 Q1379.47 1638.79 1379.47 1632.33 Q1379.47 1625.87 1376.8 1622.21 Q1374.13 1618.52 1369.48 1618.52 Q1364.83 1618.52 1362.16 1622.21 Q1359.52 1625.87 1359.52 1632.33 Z" fill="#000000" fill-rule="evenodd" fill-opacity="1" /><polyline clip-path="url(#clip812)" style="stroke:#000000; stroke-width:2; stroke-opacity:0.1; fill:none" points="
  102.74,1464 2352.76,1464 
  "/>
<polyline clip-path="url(#clip812)" style="stroke:#000000; stroke-width:2; stroke-opacity:0.1; fill:none" points="
  102.74,1258.39 2352.76,1258.39 
  "/>
<polyline clip-path="url(#clip812)" style="stroke:#000000; stroke-width:2; stroke-opacity:0.1; fill:none" points="
  102.74,1052.79 2352.76,1052.79 
  "/>
<polyline clip-path="url(#clip812)" style="stroke:#000000; stroke-width:2; stroke-opacity:0.1; fill:none" points="
  102.74,847.185 2352.76,847.185 
  "/>
<polyline clip-path="url(#clip812)" style="stroke:#000000; stroke-width:2; stroke-opacity:0.1; fill:none" points="
  102.74,641.582 2352.76,641.582 
  "/>
<polyline clip-path="url(#clip812)" style="stroke:#000000; stroke-width:2; stroke-opacity:0.1; fill:none" points="
  102.74,435.978 2352.76,435.978 
  "/>
<polyline clip-path="url(#clip812)" style="stroke:#000000; stroke-width:2; stroke-opacity:0.1; fill:none" points="
  102.74,230.375 2352.76,230.375 
  "/>
<polyline clip-path="url(#clip810)" style="stroke:#000000; stroke-width:4; stroke-opacity:1; fill:none" points="
  102.74,1505.26 102.74,47.2441 
  "/>
<polyline clip-path="url(#clip810)" style="stroke:#000000; stroke-width:4; stroke-opacity:1; fill:none" points="
  102.74,1464 129.74,1464 
  "/>
<polyline clip-path="url(#clip810)" style="stroke:#000000; stroke-width:4; stroke-opacity:1; fill:none" points="
  102.74,1258.39 129.74,1258.39 
  "/>
<polyline clip-path="url(#clip810)" style="stroke:#000000; stroke-width:4; stroke-opacity:1; fill:none" points="
  102.74,1052.79 129.74,1052.79 
  "/>
<polyline clip-path="url(#clip810)" style="stroke:#000000; stroke-width:4; stroke-opacity:1; fill:none" points="
  102.74,847.185 129.74,847.185 
  "/>
<polyline clip-path="url(#clip810)" style="stroke:#000000; stroke-width:4; stroke-opacity:1; fill:none" points="
  102.74,641.582 129.74,641.582 
  "/>
<polyline clip-path="url(#clip810)" style="stroke:#000000; stroke-width:4; stroke-opacity:1; fill:none" points="
  102.74,435.978 129.74,435.978 
  "/>
<polyline clip-path="url(#clip810)" style="stroke:#000000; stroke-width:4; stroke-opacity:1; fill:none" points="
  102.74,230.375 129.74,230.375 
  "/>
<path clip-path="url(#clip810)" d="M 0 0 M54.7958 1449.79 Q51.1847 1449.79 49.356 1453.36 Q47.5504 1456.9 47.5504 1464.03 Q47.5504 1471.14 49.356 1474.7 Q51.1847 1478.24 54.7958 1478.24 Q58.43 1478.24 60.2356 1474.7 Q62.0643 1471.14 62.0643 1464.03 Q62.0643 1456.9 60.2356 1453.36 Q58.43 1449.79 54.7958 1449.79 M54.7958 1446.09 Q60.6059 1446.09 63.6615 1450.7 Q66.7402 1455.28 66.7402 1464.03 Q66.7402 1472.76 63.6615 1477.36 Q60.6059 1481.95 54.7958 1481.95 Q48.9856 1481.95 45.9069 1477.36 Q42.8514 1472.76 42.8514 1464.03 Q42.8514 1455.28 45.9069 1450.7 Q48.9856 1446.09 54.7958 1446.09 Z" fill="#000000" fill-rule="evenodd" fill-opacity="1" /><path clip-path="url(#clip810)" d="M 0 0 M-14.7177 1271.74 L-7.07889 1271.74 L-7.07889 1245.37 L-15.389 1247.04 L-15.389 1242.78 L-7.12519 1241.11 L-2.44929 1241.11 L-2.44929 1271.74 L5.18956 1271.74 L5.18956 1275.67 L-14.7177 1275.67 L-14.7177 1271.74 Z" fill="#000000" fill-rule="evenodd" fill-opacity="1" /><path clip-path="url(#clip810)" d="M 0 0 M24.6339 1244.19 Q21.0228 1244.19 19.1941 1247.76 Q17.3886 1251.3 17.3886 1258.43 Q17.3886 1265.53 19.1941 1269.1 Q21.0228 1272.64 24.6339 1272.64 Q28.2681 1272.64 30.0737 1269.1 Q31.9024 1265.53 31.9024 1258.43 Q31.9024 1251.3 30.0737 1247.76 Q28.2681 1244.19 24.6339 1244.19 M24.6339 1240.49 Q30.4441 1240.49 33.4996 1245.09 Q36.5783 1249.68 36.5783 1258.43 Q36.5783 1267.15 33.4996 1271.76 Q30.4441 1276.34 24.6339 1276.34 Q18.8237 1276.34 15.7451 1271.76 Q12.6895 1267.15 12.6895 1258.43 Q12.6895 1249.68 15.7451 1245.09 Q18.8237 1240.49 24.6339 1240.49 Z" fill="#000000" fill-rule="evenodd" fill-opacity="1" /><path clip-path="url(#clip810)" d="M 0 0 M54.7958 1244.19 Q51.1847 1244.19 49.356 1247.76 Q47.5504 1251.3 47.5504 1258.43 Q47.5504 1265.53 49.356 1269.1 Q51.1847 1272.64 54.7958 1272.64 Q58.43 1272.64 60.2356 1269.1 Q62.0643 1265.53 62.0643 1258.43 Q62.0643 1251.3 60.2356 1247.76 Q58.43 1244.19 54.7958 1244.19 M54.7958 1240.49 Q60.6059 1240.49 63.6615 1245.09 Q66.7402 1249.68 66.7402 1258.43 Q66.7402 1267.15 63.6615 1271.76 Q60.6059 1276.34 54.7958 1276.34 Q48.9856 1276.34 45.9069 1271.76 Q42.8514 1267.15 42.8514 1258.43 Q42.8514 1249.68 45.9069 1245.09 Q48.9856 1240.49 54.7958 1240.49 Z" fill="#000000" fill-rule="evenodd" fill-opacity="1" /><path clip-path="url(#clip810)" d="M 0 0 M-11.5002 1066.13 L4.81919 1066.13 L4.81919 1070.07 L-17.1251 1070.07 L-17.1251 1066.13 Q-14.4631 1063.38 -9.8798 1058.75 Q-5.27335 1054.1 -4.0928 1052.75 Q-1.84744 1050.23 -0.967813 1048.49 Q-0.0650401 1046.74 -0.0650401 1045.05 Q-0.0650401 1042.29 -2.00947 1040.55 Q-3.93076 1038.82 -7.0326 1038.82 Q-9.23166 1038.82 -11.6853 1039.58 Q-14.1159 1040.35 -16.8937 1041.9 L-16.8937 1037.18 Q-14.0696 1036.04 -11.6159 1035.46 Q-9.16221 1034.88 -7.12519 1034.88 Q-1.75485 1034.88 1.43958 1037.57 Q4.63401 1040.25 4.63401 1044.74 Q4.63401 1046.87 3.82383 1048.8 Q3.0368 1050.69 0.930325 1053.29 Q0.351624 1053.96 -2.75021 1057.18 Q-5.85205 1060.37 -11.5002 1066.13 Z" fill="#000000" fill-rule="evenodd" fill-opacity="1" /><path clip-path="url(#clip810)" d="M 0 0 M24.6339 1038.59 Q21.0228 1038.59 19.1941 1042.15 Q17.3886 1045.69 17.3886 1052.82 Q17.3886 1059.93 19.1941 1063.49 Q21.0228 1067.04 24.6339 1067.04 Q28.2681 1067.04 30.0737 1063.49 Q31.9024 1059.93 31.9024 1052.82 Q31.9024 1045.69 30.0737 1042.15 Q28.2681 1038.59 24.6339 1038.59 M24.6339 1034.88 Q30.4441 1034.88 33.4996 1039.49 Q36.5783 1044.07 36.5783 1052.82 Q36.5783 1061.55 33.4996 1066.16 Q30.4441 1070.74 24.6339 1070.74 Q18.8237 1070.74 15.7451 1066.16 Q12.6895 1061.55 12.6895 1052.82 Q12.6895 1044.07 15.7451 1039.49 Q18.8237 1034.88 24.6339 1034.88 Z" fill="#000000" fill-rule="evenodd" fill-opacity="1" /><path clip-path="url(#clip810)" d="M 0 0 M54.7958 1038.59 Q51.1847 1038.59 49.356 1042.15 Q47.5504 1045.69 47.5504 1052.82 Q47.5504 1059.93 49.356 1063.49 Q51.1847 1067.04 54.7958 1067.04 Q58.43 1067.04 60.2356 1063.49 Q62.0643 1059.93 62.0643 1052.82 Q62.0643 1045.69 60.2356 1042.15 Q58.43 1038.59 54.7958 1038.59 M54.7958 1034.88 Q60.6059 1034.88 63.6615 1039.49 Q66.7402 1044.07 66.7402 1052.82 Q66.7402 1061.55 63.6615 1066.16 Q60.6059 1070.74 54.7958 1070.74 Q48.9856 1070.74 45.9069 1066.16 Q42.8514 1061.55 42.8514 1052.82 Q42.8514 1044.07 45.9069 1039.49 Q48.9856 1034.88 54.7958 1034.88 Z" fill="#000000" fill-rule="evenodd" fill-opacity="1" /><path clip-path="url(#clip810)" d="M 0 0 M-1.36133 845.831 Q1.99513 846.549 3.87012 848.817 Q5.76826 851.086 5.76826 854.419 Q5.76826 859.535 2.24976 862.336 Q-1.26874 865.136 -7.75018 865.136 Q-9.9261 865.136 -12.2409 864.697 Q-14.5326 864.28 -16.9862 863.423 L-16.9862 858.91 Q-15.0418 860.044 -12.727 860.623 Q-10.4122 861.201 -7.88907 861.201 Q-3.49095 861.201 -1.19929 859.465 Q1.11551 857.729 1.11551 854.419 Q1.11551 851.363 -1.03726 849.65 Q-3.16688 847.914 -6.9863 847.914 L-11.0141 847.914 L-11.0141 844.072 L-6.80112 844.072 Q-3.35206 844.072 -1.52337 842.706 Q0.305328 841.317 0.305328 838.725 Q0.305328 836.063 -1.59281 834.65 Q-3.4678 833.215 -6.9863 833.215 Q-8.90759 833.215 -11.1066 833.632 Q-13.3057 834.049 -15.9446 834.928 L-15.9446 830.762 Q-13.2826 830.021 -10.9678 829.651 Q-8.62981 829.28 -6.56963 829.28 Q-1.24559 829.28 1.85625 831.711 Q4.95808 834.118 4.95808 838.238 Q4.95808 841.109 3.31457 843.1 Q1.67106 845.067 -1.36133 845.831 Z" fill="#000000" fill-rule="evenodd" fill-opacity="1" /><path clip-path="url(#clip810)" d="M 0 0 M24.6339 832.984 Q21.0228 832.984 19.1941 836.549 Q17.3886 840.09 17.3886 847.22 Q17.3886 854.326 19.1941 857.891 Q21.0228 861.433 24.6339 861.433 Q28.2681 861.433 30.0737 857.891 Q31.9024 854.326 31.9024 847.22 Q31.9024 840.09 30.0737 836.549 Q28.2681 832.984 24.6339 832.984 M24.6339 829.28 Q30.4441 829.28 33.4996 833.887 Q36.5783 838.47 36.5783 847.22 Q36.5783 855.947 33.4996 860.553 Q30.4441 865.136 24.6339 865.136 Q18.8237 865.136 15.7451 860.553 Q12.6895 855.947 12.6895 847.22 Q12.6895 838.47 15.7451 833.887 Q18.8237 829.28 24.6339 829.28 Z" fill="#000000" fill-rule="evenodd" fill-opacity="1" /><path clip-path="url(#clip810)" d="M 0 0 M54.7958 832.984 Q51.1847 832.984 49.356 836.549 Q47.5504 840.09 47.5504 847.22 Q47.5504 854.326 49.356 857.891 Q51.1847 861.433 54.7958 861.433 Q58.43 861.433 60.2356 857.891 Q62.0643 854.326 62.0643 847.22 Q62.0643 840.09 60.2356 836.549 Q58.43 832.984 54.7958 832.984 M54.7958 829.28 Q60.6059 829.28 63.6615 833.887 Q66.7402 838.47 66.7402 847.22 Q66.7402 855.947 63.6615 860.553 Q60.6059 865.136 54.7958 865.136 Q48.9856 865.136 45.9069 860.553 Q42.8514 855.947 42.8514 847.22 Q42.8514 838.47 45.9069 833.887 Q48.9856 829.28 54.7958 829.28 Z" fill="#000000" fill-rule="evenodd" fill-opacity="1" /><path clip-path="url(#clip810)" d="M 0 0 M-2.68077 628.376 L-14.4863 646.825 L-2.68077 646.825 L-2.68077 628.376 M-3.90761 624.302 L1.97199 624.302 L1.97199 646.825 L6.90252 646.825 L6.90252 650.714 L1.97199 650.714 L1.97199 658.862 L-2.68077 658.862 L-2.68077 650.714 L-18.2825 650.714 L-18.2825 646.2 L-3.90761 624.302 Z" fill="#000000" fill-rule="evenodd" fill-opacity="1" /><path clip-path="url(#clip810)" d="M 0 0 M24.6339 627.38 Q21.0228 627.38 19.1941 630.945 Q17.3886 634.487 17.3886 641.616 Q17.3886 648.723 19.1941 652.288 Q21.0228 655.829 24.6339 655.829 Q28.2681 655.829 30.0737 652.288 Q31.9024 648.723 31.9024 641.616 Q31.9024 634.487 30.0737 630.945 Q28.2681 627.38 24.6339 627.38 M24.6339 623.677 Q30.4441 623.677 33.4996 628.283 Q36.5783 632.867 36.5783 641.616 Q36.5783 650.343 33.4996 654.95 Q30.4441 659.533 24.6339 659.533 Q18.8237 659.533 15.7451 654.95 Q12.6895 650.343 12.6895 641.616 Q12.6895 632.867 15.7451 628.283 Q18.8237 623.677 24.6339 623.677 Z" fill="#000000" fill-rule="evenodd" fill-opacity="1" /><path clip-path="url(#clip810)" d="M 0 0 M54.7958 627.38 Q51.1847 627.38 49.356 630.945 Q47.5504 634.487 47.5504 641.616 Q47.5504 648.723 49.356 652.288 Q51.1847 655.829 54.7958 655.829 Q58.43 655.829 60.2356 652.288 Q62.0643 648.723 62.0643 641.616 Q62.0643 634.487 60.2356 630.945 Q58.43 627.38 54.7958 627.38 M54.7958 623.677 Q60.6059 623.677 63.6615 628.283 Q66.7402 632.867 66.7402 641.616 Q66.7402 650.343 63.6615 654.95 Q60.6059 659.533 54.7958 659.533 Q48.9856 659.533 45.9069 654.95 Q42.8514 650.343 42.8514 641.616 Q42.8514 632.867 45.9069 628.283 Q48.9856 623.677 54.7958 623.677 Z" fill="#000000" fill-rule="evenodd" fill-opacity="1" /><path clip-path="url(#clip810)" d="M 0 0 M-15.4816 418.698 L2.87476 418.698 L2.87476 422.634 L-11.1992 422.634 L-11.1992 431.106 Q-10.1807 430.759 -9.16221 430.596 Q-8.1437 430.411 -7.12519 430.411 Q-1.33818 430.411 2.04143 433.583 Q5.42104 436.754 5.42104 442.17 Q5.42104 447.749 1.94884 450.851 Q-1.52337 453.93 -7.84278 453.93 Q-10.0187 453.93 -12.2872 453.559 Q-14.5326 453.189 -16.9399 452.448 L-16.9399 447.749 Q-14.8566 448.883 -12.6344 449.439 Q-10.4122 449.995 -7.93537 449.995 Q-3.93076 449.995 -1.59281 447.888 Q0.745141 445.782 0.745141 442.17 Q0.745141 438.559 -1.59281 436.453 Q-3.93076 434.346 -7.93537 434.346 Q-9.81036 434.346 -11.6853 434.763 Q-13.5372 435.18 -15.4816 436.059 L-15.4816 418.698 Z" fill="#000000" fill-rule="evenodd" fill-opacity="1" /><path clip-path="url(#clip810)" d="M 0 0 M24.6339 421.777 Q21.0228 421.777 19.1941 425.342 Q17.3886 428.884 17.3886 436.013 Q17.3886 443.12 19.1941 446.684 Q21.0228 450.226 24.6339 450.226 Q28.2681 450.226 30.0737 446.684 Q31.9024 443.12 31.9024 436.013 Q31.9024 428.884 30.0737 425.342 Q28.2681 421.777 24.6339 421.777 M24.6339 418.073 Q30.4441 418.073 33.4996 422.68 Q36.5783 427.263 36.5783 436.013 Q36.5783 444.74 33.4996 449.346 Q30.4441 453.93 24.6339 453.93 Q18.8237 453.93 15.7451 449.346 Q12.6895 444.74 12.6895 436.013 Q12.6895 427.263 15.7451 422.68 Q18.8237 418.073 24.6339 418.073 Z" fill="#000000" fill-rule="evenodd" fill-opacity="1" /><path clip-path="url(#clip810)" d="M 0 0 M54.7958 421.777 Q51.1847 421.777 49.356 425.342 Q47.5504 428.884 47.5504 436.013 Q47.5504 443.12 49.356 446.684 Q51.1847 450.226 54.7958 450.226 Q58.43 450.226 60.2356 446.684 Q62.0643 443.12 62.0643 436.013 Q62.0643 428.884 60.2356 425.342 Q58.43 421.777 54.7958 421.777 M54.7958 418.073 Q60.6059 418.073 63.6615 422.68 Q66.7402 427.263 66.7402 436.013 Q66.7402 444.74 63.6615 449.346 Q60.6059 453.93 54.7958 453.93 Q48.9856 453.93 45.9069 449.346 Q42.8514 444.74 42.8514 436.013 Q42.8514 427.263 45.9069 422.68 Q48.9856 418.073 54.7958 418.073 Z" fill="#000000" fill-rule="evenodd" fill-opacity="1" /><path clip-path="url(#clip810)" d="M 0 0 M-4.94927 228.512 Q-8.0974 228.512 -9.94925 230.664 Q-11.7779 232.817 -11.7779 236.567 Q-11.7779 240.294 -9.94925 242.47 Q-8.0974 244.623 -4.94927 244.623 Q-1.80114 244.623 0.027552 242.47 Q1.87939 240.294 1.87939 236.567 Q1.87939 232.817 0.027552 230.664 Q-1.80114 228.512 -4.94927 228.512 M4.33308 213.859 L4.33308 218.118 Q2.57383 217.285 0.768289 216.845 Q-1.01411 216.405 -2.77336 216.405 Q-7.40296 216.405 -9.85665 219.53 Q-12.2872 222.655 -12.6344 228.975 Q-11.2687 226.961 -9.20851 225.896 Q-7.14834 224.808 -4.6715 224.808 Q0.536809 224.808 3.54605 227.979 Q6.57844 231.127 6.57844 236.567 Q6.57844 241.891 3.43031 245.109 Q0.28218 248.326 -4.94927 248.326 Q-10.9446 248.326 -14.1159 243.743 Q-17.2872 239.137 -17.2872 230.41 Q-17.2872 222.215 -13.3983 217.354 Q-9.50943 212.47 -2.95854 212.47 Q-1.19929 212.47 0.583105 212.817 Q2.38865 213.164 4.33308 213.859 Z" fill="#000000" fill-rule="evenodd" fill-opacity="1" /><path clip-path="url(#clip810)" d="M 0 0 M24.6339 216.174 Q21.0228 216.174 19.1941 219.739 Q17.3886 223.28 17.3886 230.41 Q17.3886 237.516 19.1941 241.081 Q21.0228 244.623 24.6339 244.623 Q28.2681 244.623 30.0737 241.081 Q31.9024 237.516 31.9024 230.41 Q31.9024 223.28 30.0737 219.739 Q28.2681 216.174 24.6339 216.174 M24.6339 212.47 Q30.4441 212.47 33.4996 217.076 Q36.5783 221.66 36.5783 230.41 Q36.5783 239.137 33.4996 243.743 Q30.4441 248.326 24.6339 248.326 Q18.8237 248.326 15.7451 243.743 Q12.6895 239.137 12.6895 230.41 Q12.6895 221.66 15.7451 217.076 Q18.8237 212.47 24.6339 212.47 Z" fill="#000000" fill-rule="evenodd" fill-opacity="1" /><path clip-path="url(#clip810)" d="M 0 0 M54.7958 216.174 Q51.1847 216.174 49.356 219.739 Q47.5504 223.28 47.5504 230.41 Q47.5504 237.516 49.356 241.081 Q51.1847 244.623 54.7958 244.623 Q58.43 244.623 60.2356 241.081 Q62.0643 237.516 62.0643 230.41 Q62.0643 223.28 60.2356 219.739 Q58.43 216.174 54.7958 216.174 M54.7958 212.47 Q60.6059 212.47 63.6615 217.076 Q66.7402 221.66 66.7402 230.41 Q66.7402 239.137 63.6615 243.743 Q60.6059 248.326 54.7958 248.326 Q48.9856 248.326 45.9069 243.743 Q42.8514 239.137 42.8514 230.41 Q42.8514 221.66 45.9069 217.076 Q48.9856 212.47 54.7958 212.47 Z" fill="#000000" fill-rule="evenodd" fill-opacity="1" /><path clip-path="url(#clip810)" d="M 0 0 M-116.059 949.797 L-116.059 943.304 L-75.8909 933.31 L-116.059 923.348 L-116.059 916.122 L-75.8909 906.128 L-116.059 896.166 L-116.059 889.641 L-68.5385 901.577 L-68.5385 909.661 L-109.788 919.687 L-68.5385 929.809 L-68.5385 937.893 L-116.059 949.797 Z" fill="#000000" fill-rule="evenodd" fill-opacity="1" /><path clip-path="url(#clip810)" d="M 0 0 M-100.081 871.372 Q-100.081 876.082 -96.3885 878.819 Q-92.7282 881.557 -86.3307 881.557 Q-79.9331 881.557 -76.241 878.851 Q-72.5808 876.114 -72.5808 871.372 Q-72.5808 866.693 -76.2729 863.955 Q-79.965 861.218 -86.3307 861.218 Q-92.6646 861.218 -96.3567 863.955 Q-100.081 866.693 -100.081 871.372 M-105.046 871.372 Q-105.046 863.733 -100.081 859.372 Q-95.1154 855.012 -86.3307 855.012 Q-77.5778 855.012 -72.5808 859.372 Q-67.6155 863.733 -67.6155 871.372 Q-67.6155 879.042 -72.5808 883.403 Q-77.5778 887.731 -86.3307 887.731 Q-95.1154 887.731 -100.081 883.403 Q-105.046 879.042 -105.046 871.372 Z" fill="#000000" fill-rule="evenodd" fill-opacity="1" /><path clip-path="url(#clip810)" d="M 0 0 M-98.712 824.647 Q-99.2849 825.634 -99.5395 826.812 Q-99.826 827.957 -99.826 829.358 Q-99.826 834.323 -96.5795 836.997 Q-93.3648 839.638 -87.3174 839.638 L-68.5385 839.638 L-68.5385 845.527 L-104.186 845.527 L-104.186 839.638 L-98.6483 839.638 Q-101.895 837.792 -103.454 834.832 Q-105.046 831.872 -105.046 827.639 Q-105.046 827.034 -104.95 826.302 Q-104.887 825.57 -104.728 824.679 L-98.712 824.647 Z" fill="#000000" fill-rule="evenodd" fill-opacity="1" /><path clip-path="url(#clip810)" d="M 0 0 M-118.064 818.727 L-118.064 812.839 L-88.8133 812.839 L-104.186 795.365 L-104.186 787.885 L-87.5083 806.791 L-68.5385 787.09 L-68.5385 794.728 L-85.9487 812.839 L-68.5385 812.839 L-68.5385 818.727 L-118.064 818.727 Z" fill="#000000" fill-rule="evenodd" fill-opacity="1" /><path clip-path="url(#clip810)" d="M 0 0 M-116.059 760.513 L-116.059 754.052 L-87.1901 754.052 Q-79.5512 754.052 -76.1774 751.282 Q-72.8354 748.513 -72.8354 742.307 Q-72.8354 736.132 -76.1774 733.363 Q-79.5512 730.594 -87.1901 730.594 L-116.059 730.594 L-116.059 724.133 L-86.3943 724.133 Q-77.1004 724.133 -72.358 728.748 Q-67.6155 733.331 -67.6155 742.307 Q-67.6155 751.314 -72.358 755.929 Q-77.1004 760.513 -86.3943 760.513 L-116.059 760.513 Z" fill="#000000" fill-rule="evenodd" fill-opacity="1" /><path clip-path="url(#clip810)" d="M 0 0 M-90.0546 682.692 L-68.5385 682.692 L-68.5385 688.548 L-89.8637 688.548 Q-94.9244 688.548 -97.4388 690.522 Q-99.9533 692.495 -99.9533 696.442 Q-99.9533 701.184 -96.9296 703.922 Q-93.9059 706.659 -88.686 706.659 L-68.5385 706.659 L-68.5385 712.547 L-104.186 712.547 L-104.186 706.659 L-98.6483 706.659 Q-101.863 704.558 -103.454 701.725 Q-105.046 698.861 -105.046 695.137 Q-105.046 688.994 -101.226 685.843 Q-97.4388 682.692 -90.0546 682.692 Z" fill="#000000" fill-rule="evenodd" fill-opacity="1" /><path clip-path="url(#clip810)" d="M 0 0 M-104.186 671.011 L-104.186 665.154 L-68.5385 665.154 L-68.5385 671.011 L-104.186 671.011 M-118.064 671.011 L-118.064 665.154 L-110.648 665.154 L-110.648 671.011 L-118.064 671.011 Z" fill="#000000" fill-rule="evenodd" fill-opacity="1" /><path clip-path="url(#clip810)" d="M 0 0 M-114.308 647.108 L-104.186 647.108 L-104.186 635.045 L-99.635 635.045 L-99.635 647.108 L-80.2833 647.108 Q-75.9228 647.108 -74.6814 645.93 Q-73.4401 644.721 -73.4401 641.06 L-73.4401 635.045 L-68.5385 635.045 L-68.5385 641.06 Q-68.5385 647.84 -71.053 650.418 Q-73.5993 652.996 -80.2833 652.996 L-99.635 652.996 L-99.635 657.293 L-104.186 657.293 L-104.186 652.996 L-114.308 652.996 L-114.308 647.108 Z" fill="#000000" fill-rule="evenodd" fill-opacity="1" /><path clip-path="url(#clip810)" d="M 0 0 M-103.136 604.617 L-97.598 604.617 Q-98.8711 607.099 -99.5077 609.773 Q-100.144 612.446 -100.144 615.311 Q-100.144 619.671 -98.8075 621.868 Q-97.4707 624.032 -94.7971 624.032 Q-92.76 624.032 -91.5824 622.472 Q-90.4366 620.913 -89.3862 616.202 L-88.9406 614.197 Q-87.6038 607.959 -85.153 605.349 Q-82.7341 602.707 -78.3736 602.707 Q-73.4083 602.707 -70.5119 606.654 Q-67.6155 610.569 -67.6155 617.444 Q-67.6155 620.308 -68.1884 623.427 Q-68.7295 626.515 -69.8435 629.952 L-75.8909 629.952 Q-74.204 626.706 -73.3446 623.555 Q-72.5171 620.404 -72.5171 617.316 Q-72.5171 613.178 -73.9176 610.95 Q-75.3498 608.722 -77.928 608.722 Q-80.3151 608.722 -81.5882 610.346 Q-82.8614 611.937 -84.039 617.38 L-84.5165 619.417 Q-85.6623 624.86 -88.0176 627.279 Q-90.4047 629.697 -94.5424 629.697 Q-99.5714 629.697 -102.309 626.133 Q-105.046 622.568 -105.046 616.011 Q-105.046 612.765 -104.568 609.9 Q-104.091 607.036 -103.136 604.617 Z" fill="#000000" fill-rule="evenodd" fill-opacity="1" /><path clip-path="url(#clip812)" d="
M226.495 88.5087 L226.495 1464 L798.64 1464 L798.64 88.5087 L226.495 88.5087 L226.495 88.5087  Z
  " fill="#009af9" fill-rule="evenodd" fill-opacity="1"/>
<polyline clip-path="url(#clip812)" style="stroke:#000000; stroke-width:4; stroke-opacity:1; fill:none" points="
  226.495,88.5087 226.495,1464 798.64,1464 798.64,88.5087 226.495,88.5087 
  "/>
<path clip-path="url(#clip812)" d="
M941.676 94.6768 L941.676 1464 L1513.82 1464 L1513.82 94.6768 L941.676 94.6768 L941.676 94.6768  Z
  " fill="#009af9" fill-rule="evenodd" fill-opacity="1"/>
<polyline clip-path="url(#clip812)" style="stroke:#000000; stroke-width:4; stroke-opacity:1; fill:none" points="
  941.676,94.6768 941.676,1464 1513.82,1464 1513.82,94.6768 941.676,94.6768 
  "/>
<path clip-path="url(#clip812)" d="
M1656.86 96.7328 L1656.86 1464 L2229 1464 L2229 96.7328 L1656.86 96.7328 L1656.86 96.7328  Z
  " fill="#009af9" fill-rule="evenodd" fill-opacity="1"/>
<polyline clip-path="url(#clip812)" style="stroke:#000000; stroke-width:4; stroke-opacity:1; fill:none" points="
  1656.86,96.7328 1656.86,1464 2229,1464 2229,96.7328 1656.86,96.7328 
  "/>
</svg>
