<?xml version="1.0" encoding="utf-8"?>
<svg xmlns="http://www.w3.org/2000/svg" xmlns:xlink="http://www.w3.org/1999/xlink" width="600" height="400" viewBox="0 0 2400 1600">
<defs>
  <clipPath id="clip750">
    <rect x="0" y="0" width="2400" height="1600"/>
  </clipPath>
</defs>
<path clip-path="url(#clip750)" d="
M0 1600 L2400 1600 L2400 0 L0 0  Z
  " fill="#ffffff" fill-rule="evenodd" fill-opacity="1"/>
<defs>
  <clipPath id="clip751">
    <rect x="480" y="0" width="1681" height="1600"/>
  </clipPath>
</defs>
<path clip-path="url(#clip750)" d="
M102.74 1505.26 L2352.76 1505.26 L2352.76 47.2441 L102.74 47.2441  Z
  " fill="#ffffff" fill-rule="evenodd" fill-opacity="1"/>
<defs>
  <clipPath id="clip752">
    <rect x="102" y="47" width="2251" height="1459"/>
  </clipPath>
</defs>
<polyline clip-path="url(#clip752)" style="stroke:#000000; stroke-width:2; stroke-opacity:0.1; fill:none" points="
  533.594,1505.26 533.594,47.2441 
  "/>
<polyline clip-path="url(#clip752)" style="stroke:#000000; stroke-width:2; stroke-opacity:0.1; fill:none" points="
  1012.32,1505.26 1012.32,47.2441 
  "/>
<polyline clip-path="url(#clip752)" style="stroke:#000000; stroke-width:2; stroke-opacity:0.1; fill:none" points="
  1491.05,1505.26 1491.05,47.2441 
  "/>
<polyline clip-path="url(#clip752)" style="stroke:#000000; stroke-width:2; stroke-opacity:0.1; fill:none" points="
  1969.77,1505.26 1969.77,47.2441 
  "/>
<polyline clip-path="url(#clip750)" style="stroke:#000000; stroke-width:4; stroke-opacity:1; fill:none" points="
  102.74,1505.26 2352.76,1505.26 
  "/>
<polyline clip-path="url(#clip750)" style="stroke:#000000; stroke-width:4; stroke-opacity:1; fill:none" points="
  533.594,1505.26 533.594,1487.76 
  "/>
<polyline clip-path="url(#clip750)" style="stroke:#000000; stroke-width:4; stroke-opacity:1; fill:none" points="
  1012.32,1505.26 1012.32,1487.76 
  "/>
<polyline clip-path="url(#clip750)" style="stroke:#000000; stroke-width:4; stroke-opacity:1; fill:none" points="
  1491.05,1505.26 1491.05,1487.76 
  "/>
<polyline clip-path="url(#clip750)" style="stroke:#000000; stroke-width:4; stroke-opacity:1; fill:none" points="
  1969.77,1505.26 1969.77,1487.76 
  "/>
<path clip-path="url(#clip750)" d="M 0 0 M512.367 1562 L528.687 1562 L528.687 1565.93 L506.743 1565.93 L506.743 1562 Q509.405 1559.24 513.988 1554.61 Q518.594 1549.96 519.775 1548.62 Q522.02 1546.09 522.9 1544.36 Q523.803 1542.6 523.803 1540.91 Q523.803 1538.15 521.858 1536.42 Q519.937 1534.68 516.835 1534.68 Q514.636 1534.68 512.182 1535.45 Q509.752 1536.21 506.974 1537.76 L506.974 1533.04 Q509.798 1531.9 512.252 1531.33 Q514.705 1530.75 516.742 1530.75 Q522.113 1530.75 525.307 1533.43 Q528.502 1536.12 528.502 1540.61 Q528.502 1542.74 527.691 1544.66 Q526.904 1546.56 524.798 1549.15 Q524.219 1549.82 521.117 1553.04 Q518.016 1556.23 512.367 1562 Z" fill="#000000" fill-rule="evenodd" fill-opacity="1" /><path clip-path="url(#clip750)" d="M 0 0 M548.502 1534.45 Q544.89 1534.45 543.062 1538.02 Q541.256 1541.56 541.256 1548.69 Q541.256 1555.79 543.062 1559.36 Q544.89 1562.9 548.502 1562.9 Q552.136 1562.9 553.941 1559.36 Q555.77 1555.79 555.77 1548.69 Q555.77 1541.56 553.941 1538.02 Q552.136 1534.45 548.502 1534.45 M548.502 1530.75 Q554.312 1530.75 557.367 1535.35 Q560.446 1539.94 560.446 1548.69 Q560.446 1557.41 557.367 1562.02 Q554.312 1566.6 548.502 1566.6 Q542.691 1566.6 539.613 1562.02 Q536.557 1557.41 536.557 1548.69 Q536.557 1539.94 539.613 1535.35 Q542.691 1530.75 548.502 1530.75 Z" fill="#000000" fill-rule="evenodd" fill-opacity="1" /><path clip-path="url(#clip750)" d="M 0 0 M1000.49 1535.45 L988.687 1553.89 L1000.49 1553.89 L1000.49 1535.45 M999.266 1531.37 L1005.15 1531.37 L1005.15 1553.89 L1010.08 1553.89 L1010.08 1557.78 L1005.15 1557.78 L1005.15 1565.93 L1000.49 1565.93 L1000.49 1557.78 L984.891 1557.78 L984.891 1553.27 L999.266 1531.37 Z" fill="#000000" fill-rule="evenodd" fill-opacity="1" /><path clip-path="url(#clip750)" d="M 0 0 M1027.81 1534.45 Q1024.2 1534.45 1022.37 1538.02 Q1020.56 1541.56 1020.56 1548.69 Q1020.56 1555.79 1022.37 1559.36 Q1024.2 1562.9 1027.81 1562.9 Q1031.44 1562.9 1033.25 1559.36 Q1035.08 1555.79 1035.08 1548.69 Q1035.08 1541.56 1033.25 1538.02 Q1031.44 1534.45 1027.81 1534.45 M1027.81 1530.75 Q1033.62 1530.75 1036.67 1535.35 Q1039.75 1539.94 1039.75 1548.69 Q1039.75 1557.41 1036.67 1562.02 Q1033.62 1566.6 1027.81 1566.6 Q1022 1566.6 1018.92 1562.02 Q1015.86 1557.41 1015.86 1548.69 Q1015.86 1539.94 1018.92 1535.35 Q1022 1530.75 1027.81 1530.75 Z" fill="#000000" fill-rule="evenodd" fill-opacity="1" /><path clip-path="url(#clip750)" d="M 0 0 M1476.45 1546.79 Q1473.3 1546.79 1471.45 1548.94 Q1469.62 1551.09 1469.62 1554.84 Q1469.62 1558.57 1471.45 1560.75 Q1473.3 1562.9 1476.45 1562.9 Q1479.6 1562.9 1481.43 1560.75 Q1483.28 1558.57 1483.28 1554.84 Q1483.28 1551.09 1481.43 1548.94 Q1479.6 1546.79 1476.45 1546.79 M1485.74 1532.14 L1485.74 1536.39 Q1483.98 1535.56 1482.17 1535.12 Q1480.39 1534.68 1478.63 1534.68 Q1474 1534.68 1471.55 1537.81 Q1469.11 1540.93 1468.77 1547.25 Q1470.13 1545.24 1472.19 1544.17 Q1474.25 1543.08 1476.73 1543.08 Q1481.94 1543.08 1484.95 1546.26 Q1487.98 1549.4 1487.98 1554.84 Q1487.98 1560.17 1484.83 1563.39 Q1481.68 1566.6 1476.45 1566.6 Q1470.46 1566.6 1467.29 1562.02 Q1464.12 1557.41 1464.12 1548.69 Q1464.12 1540.49 1468 1535.63 Q1471.89 1530.75 1478.44 1530.75 Q1480.2 1530.75 1481.99 1531.09 Q1483.79 1531.44 1485.74 1532.14 Z" fill="#000000" fill-rule="evenodd" fill-opacity="1" /><path clip-path="url(#clip750)" d="M 0 0 M1506.04 1534.45 Q1502.43 1534.45 1500.6 1538.02 Q1498.79 1541.56 1498.79 1548.69 Q1498.79 1555.79 1500.6 1559.36 Q1502.43 1562.9 1506.04 1562.9 Q1509.67 1562.9 1511.48 1559.36 Q1513.3 1555.79 1513.3 1548.69 Q1513.3 1541.56 1511.48 1538.02 Q1509.67 1534.45 1506.04 1534.45 M1506.04 1530.75 Q1511.85 1530.75 1514.9 1535.35 Q1517.98 1539.94 1517.98 1548.69 Q1517.98 1557.41 1514.9 1562.02 Q1511.85 1566.6 1506.04 1566.6 Q1500.23 1566.6 1497.15 1562.02 Q1494.09 1557.41 1494.09 1548.69 Q1494.09 1539.94 1497.15 1535.35 Q1500.23 1530.75 1506.04 1530.75 Z" fill="#000000" fill-rule="evenodd" fill-opacity="1" /><path clip-path="url(#clip750)" d="M 0 0 M1954.65 1549.52 Q1951.31 1549.52 1949.39 1551.3 Q1947.49 1553.08 1947.49 1556.21 Q1947.49 1559.33 1949.39 1561.12 Q1951.31 1562.9 1954.65 1562.9 Q1957.98 1562.9 1959.9 1561.12 Q1961.82 1559.31 1961.82 1556.21 Q1961.82 1553.08 1959.9 1551.3 Q1958 1549.52 1954.65 1549.52 M1949.97 1547.53 Q1946.96 1546.79 1945.27 1544.73 Q1943.61 1542.67 1943.61 1539.71 Q1943.61 1535.56 1946.55 1533.15 Q1949.51 1530.75 1954.65 1530.75 Q1959.81 1530.75 1962.75 1533.15 Q1965.69 1535.56 1965.69 1539.71 Q1965.69 1542.67 1964 1544.73 Q1962.33 1546.79 1959.35 1547.53 Q1962.73 1548.32 1964.6 1550.61 Q1966.5 1552.9 1966.5 1556.21 Q1966.5 1561.23 1963.42 1563.92 Q1960.36 1566.6 1954.65 1566.6 Q1948.93 1566.6 1945.85 1563.92 Q1942.8 1561.23 1942.8 1556.21 Q1942.8 1552.9 1944.69 1550.61 Q1946.59 1548.32 1949.97 1547.53 M1948.26 1540.14 Q1948.26 1542.83 1949.93 1544.33 Q1951.61 1545.84 1954.65 1545.84 Q1957.66 1545.84 1959.35 1544.33 Q1961.06 1542.83 1961.06 1540.14 Q1961.06 1537.46 1959.35 1535.96 Q1957.66 1534.45 1954.65 1534.45 Q1951.61 1534.45 1949.93 1535.96 Q1948.26 1537.46 1948.26 1540.14 Z" fill="#000000" fill-rule="evenodd" fill-opacity="1" /><path clip-path="url(#clip750)" d="M 0 0 M1984.81 1534.45 Q1981.2 1534.45 1979.37 1538.02 Q1977.56 1541.56 1977.56 1548.69 Q1977.56 1555.79 1979.37 1559.36 Q1981.2 1562.9 1984.81 1562.9 Q1988.44 1562.9 1990.25 1559.36 Q1992.08 1555.79 1992.08 1548.69 Q1992.08 1541.56 1990.25 1538.02 Q1988.44 1534.45 1984.81 1534.45 M1984.81 1530.75 Q1990.62 1530.75 1993.67 1535.35 Q1996.75 1539.94 1996.75 1548.69 Q1996.75 1557.41 1993.67 1562.02 Q1990.62 1566.6 1984.81 1566.6 Q1979 1566.6 1975.92 1562.02 Q1972.86 1557.41 1972.86 1548.69 Q1972.86 1539.94 1975.92 1535.35 Q1979 1530.75 1984.81 1530.75 Z" fill="#000000" fill-rule="evenodd" fill-opacity="1" /><path clip-path="url(#clip750)" d="M 0 0 M1076.59 1607.89 L1076.59 1625.74 L1084.68 1625.74 Q1089.17 1625.74 1091.62 1623.42 Q1094.07 1621.1 1094.07 1616.8 Q1094.07 1612.53 1091.62 1610.21 Q1089.17 1607.89 1084.68 1607.89 L1076.59 1607.89 M1070.16 1602.6 L1084.68 1602.6 Q1092.67 1602.6 1096.74 1606.23 Q1100.85 1609.83 1100.85 1616.8 Q1100.85 1623.83 1096.74 1627.43 Q1092.67 1631.03 1084.68 1631.03 L1076.59 1631.03 L1076.59 1650.12 L1070.16 1650.12 L1070.16 1602.6 Z" fill="#000000" fill-rule="evenodd" fill-opacity="1" /><path clip-path="url(#clip750)" d="M 0 0 M1128.73 1619.95 Q1127.74 1619.38 1126.57 1619.12 Q1125.42 1618.84 1124.02 1618.84 Q1119.05 1618.84 1116.38 1622.08 Q1113.74 1625.3 1113.74 1631.35 L1113.74 1650.12 L1107.85 1650.12 L1107.85 1614.48 L1113.74 1614.48 L1113.74 1620.01 Q1115.58 1616.77 1118.54 1615.21 Q1121.5 1613.62 1125.74 1613.62 Q1126.34 1613.62 1127.07 1613.71 Q1127.81 1613.78 1128.7 1613.93 L1128.73 1619.95 Z" fill="#000000" fill-rule="evenodd" fill-opacity="1" /><path clip-path="url(#clip750)" d="M 0 0 M1147.25 1618.58 Q1142.54 1618.58 1139.81 1622.27 Q1137.07 1625.93 1137.07 1632.33 Q1137.07 1638.73 1139.77 1642.42 Q1142.51 1646.08 1147.25 1646.08 Q1151.93 1646.08 1154.67 1642.39 Q1157.41 1638.7 1157.41 1632.33 Q1157.41 1626 1154.67 1622.31 Q1151.93 1618.58 1147.25 1618.58 M1147.25 1613.62 Q1154.89 1613.62 1159.25 1618.58 Q1163.61 1623.55 1163.61 1632.33 Q1163.61 1641.08 1159.25 1646.08 Q1154.89 1651.05 1147.25 1651.05 Q1139.58 1651.05 1135.22 1646.08 Q1130.89 1641.08 1130.89 1632.33 Q1130.89 1623.55 1135.22 1618.58 Q1139.58 1613.62 1147.25 1613.62 Z" fill="#000000" fill-rule="evenodd" fill-opacity="1" /><path clip-path="url(#clip750)" d="M 0 0 M1198.98 1615.84 L1198.98 1621.32 Q1196.49 1619.95 1193.98 1619.28 Q1191.5 1618.58 1188.95 1618.58 Q1183.25 1618.58 1180.1 1622.21 Q1176.95 1625.81 1176.95 1632.33 Q1176.95 1638.86 1180.1 1642.48 Q1183.25 1646.08 1188.95 1646.08 Q1191.5 1646.08 1193.98 1645.41 Q1196.49 1644.71 1198.98 1643.34 L1198.98 1648.76 Q1196.52 1649.9 1193.88 1650.47 Q1191.27 1651.05 1188.31 1651.05 Q1180.26 1651.05 1175.52 1645.99 Q1170.77 1640.93 1170.77 1632.33 Q1170.77 1623.61 1175.55 1618.61 Q1180.36 1613.62 1188.69 1613.62 Q1191.4 1613.62 1193.98 1614.19 Q1196.56 1614.73 1198.98 1615.84 Z" fill="#000000" fill-rule="evenodd" fill-opacity="1" /><path clip-path="url(#clip750)" d="M 0 0 M1239.65 1630.84 L1239.65 1633.7 L1212.72 1633.7 Q1213.11 1639.75 1216.35 1642.93 Q1219.63 1646.08 1225.46 1646.08 Q1228.83 1646.08 1231.98 1645.25 Q1235.16 1644.43 1238.28 1642.77 L1238.28 1648.31 Q1235.13 1649.65 1231.82 1650.35 Q1228.51 1651.05 1225.11 1651.05 Q1216.58 1651.05 1211.58 1646.08 Q1206.61 1641.12 1206.61 1632.65 Q1206.61 1623.9 1211.32 1618.77 Q1216.07 1613.62 1224.09 1613.62 Q1231.28 1613.62 1235.45 1618.26 Q1239.65 1622.88 1239.65 1630.84 M1233.8 1629.12 Q1233.73 1624.31 1231.09 1621.45 Q1228.48 1618.58 1224.15 1618.58 Q1219.25 1618.58 1216.29 1621.35 Q1213.36 1624.12 1212.92 1629.15 L1233.8 1629.12 Z" fill="#000000" fill-rule="evenodd" fill-opacity="1" /><path clip-path="url(#clip750)" d="M 0 0 M1271.99 1615.53 L1271.99 1621.06 Q1269.51 1619.79 1266.83 1619.15 Q1264.16 1618.52 1261.3 1618.52 Q1256.93 1618.52 1254.74 1619.85 Q1252.57 1621.19 1252.57 1623.87 Q1252.57 1625.9 1254.13 1627.08 Q1255.69 1628.23 1260.4 1629.28 L1262.41 1629.72 Q1268.65 1631.06 1271.26 1633.51 Q1273.9 1635.93 1273.9 1640.29 Q1273.9 1645.25 1269.95 1648.15 Q1266.04 1651.05 1259.16 1651.05 Q1256.3 1651.05 1253.18 1650.47 Q1250.09 1649.93 1246.65 1648.82 L1246.65 1642.77 Q1249.9 1644.46 1253.05 1645.32 Q1256.2 1646.15 1259.29 1646.15 Q1263.43 1646.15 1265.66 1644.74 Q1267.88 1643.31 1267.88 1640.73 Q1267.88 1638.35 1266.26 1637.07 Q1264.67 1635.8 1259.23 1634.62 L1257.19 1634.15 Q1251.75 1633 1249.33 1630.64 Q1246.91 1628.26 1246.91 1624.12 Q1246.91 1619.09 1250.47 1616.35 Q1254.04 1613.62 1260.6 1613.62 Q1263.84 1613.62 1266.71 1614.09 Q1269.57 1614.57 1271.99 1615.53 Z" fill="#000000" fill-rule="evenodd" fill-opacity="1" /><path clip-path="url(#clip750)" d="M 0 0 M1305.95 1615.53 L1305.95 1621.06 Q1303.47 1619.79 1300.79 1619.15 Q1298.12 1618.52 1295.26 1618.52 Q1290.9 1618.52 1288.7 1619.85 Q1286.54 1621.19 1286.54 1623.87 Q1286.54 1625.9 1288.09 1627.08 Q1289.65 1628.23 1294.37 1629.28 L1296.37 1629.72 Q1302.61 1631.06 1305.22 1633.51 Q1307.86 1635.93 1307.86 1640.29 Q1307.86 1645.25 1303.91 1648.15 Q1300 1651.05 1293.12 1651.05 Q1290.26 1651.05 1287.14 1650.47 Q1284.05 1649.93 1280.62 1648.82 L1280.62 1642.77 Q1283.86 1644.46 1287.01 1645.32 Q1290.16 1646.15 1293.25 1646.15 Q1297.39 1646.15 1299.62 1644.74 Q1301.84 1643.31 1301.84 1640.73 Q1301.84 1638.35 1300.22 1637.07 Q1298.63 1635.8 1293.19 1634.62 L1291.15 1634.15 Q1285.71 1633 1283.29 1630.64 Q1280.87 1628.26 1280.87 1624.12 Q1280.87 1619.09 1284.43 1616.35 Q1288 1613.62 1294.56 1613.62 Q1297.8 1613.62 1300.67 1614.09 Q1303.53 1614.57 1305.95 1615.53 Z" fill="#000000" fill-rule="evenodd" fill-opacity="1" /><path clip-path="url(#clip750)" d="M 0 0 M1337.91 1614.48 L1343.76 1614.48 L1343.76 1650.12 L1337.91 1650.12 L1337.91 1614.48 M1337.91 1600.6 L1343.76 1600.6 L1343.76 1608.01 L1337.91 1608.01 L1337.91 1600.6 Z" fill="#000000" fill-rule="evenodd" fill-opacity="1" /><path clip-path="url(#clip750)" d="M 0 0 M1379.47 1619.89 L1379.47 1600.6 L1385.33 1600.6 L1385.33 1650.12 L1379.47 1650.12 L1379.47 1644.78 Q1377.63 1647.96 1374.8 1649.52 Q1371.99 1651.05 1368.05 1651.05 Q1361.59 1651.05 1357.51 1645.89 Q1353.47 1640.73 1353.47 1632.33 Q1353.47 1623.93 1357.51 1618.77 Q1361.59 1613.62 1368.05 1613.62 Q1371.99 1613.62 1374.8 1615.18 Q1377.63 1616.7 1379.47 1619.89 M1359.52 1632.33 Q1359.52 1638.79 1362.16 1642.48 Q1364.83 1646.15 1369.48 1646.15 Q1374.13 1646.15 1376.8 1642.48 Q1379.47 1638.79 1379.47 1632.33 Q1379.47 1625.87 1376.8 1622.21 Q1374.13 1618.52 1369.48 1618.52 Q1364.83 1618.52 1362.16 1622.21 Q1359.52 1625.87 1359.52 1632.33 Z" fill="#000000" fill-rule="evenodd" fill-opacity="1" /><polyline clip-path="url(#clip752)" style="stroke:#000000; stroke-width:2; stroke-opacity:0.1; fill:none" points="
  102.74,1464 2352.76,1464 
  "/>
<polyline clip-path="url(#clip752)" style="stroke:#000000; stroke-width:2; stroke-opacity:0.1; fill:none" points="
  102.74,1164.98 2352.76,1164.98 
  "/>
<polyline clip-path="url(#clip752)" style="stroke:#000000; stroke-width:2; stroke-opacity:0.1; fill:none" points="
  102.74,865.958 2352.76,865.958 
  "/>
<polyline clip-path="url(#clip752)" style="stroke:#000000; stroke-width:2; stroke-opacity:0.1; fill:none" points="
  102.74,566.939 2352.76,566.939 
  "/>
<polyline clip-path="url(#clip752)" style="stroke:#000000; stroke-width:2; stroke-opacity:0.1; fill:none" points="
  102.74,267.92 2352.76,267.92 
  "/>
<polyline clip-path="url(#clip750)" style="stroke:#000000; stroke-width:4; stroke-opacity:1; fill:none" points="
  102.74,1505.26 102.74,47.2441 
  "/>
<polyline clip-path="url(#clip750)" style="stroke:#000000; stroke-width:4; stroke-opacity:1; fill:none" points="
  102.74,1464 129.74,1464 
  "/>
<polyline clip-path="url(#clip750)" style="stroke:#000000; stroke-width:4; stroke-opacity:1; fill:none" points="
  102.74,1164.98 129.74,1164.98 
  "/>
<polyline clip-path="url(#clip750)" style="stroke:#000000; stroke-width:4; stroke-opacity:1; fill:none" points="
  102.74,865.958 129.74,865.958 
  "/>
<polyline clip-path="url(#clip750)" style="stroke:#000000; stroke-width:4; stroke-opacity:1; fill:none" points="
  102.74,566.939 129.74,566.939 
  "/>
<polyline clip-path="url(#clip750)" style="stroke:#000000; stroke-width:4; stroke-opacity:1; fill:none" points="
  102.74,267.92 129.74,267.92 
  "/>
<path clip-path="url(#clip750)" d="M 0 0 M54.7958 1449.79 Q51.1847 1449.79 49.356 1453.36 Q47.5504 1456.9 47.5504 1464.03 Q47.5504 1471.14 49.356 1474.7 Q51.1847 1478.24 54.7958 1478.24 Q58.43 1478.24 60.2356 1474.7 Q62.0643 1471.14 62.0643 1464.03 Q62.0643 1456.9 60.2356 1453.36 Q58.43 1449.79 54.7958 1449.79 M54.7958 1446.09 Q60.6059 1446.09 63.6615 1450.7 Q66.7402 1455.28 66.7402 1464.03 Q66.7402 1472.76 63.6615 1477.36 Q60.6059 1481.95 54.7958 1481.95 Q48.9856 1481.95 45.9069 1477.36 Q42.8514 1472.76 42.8514 1464.03 Q42.8514 1455.28 45.9069 1450.7 Q48.9856 1446.09 54.7958 1446.09 Z" fill="#000000" fill-rule="evenodd" fill-opacity="1" /><path clip-path="url(#clip750)" d="M 0 0 M45.8375 1147.7 L64.1939 1147.7 L64.1939 1151.63 L50.1199 1151.63 L50.1199 1160.1 Q51.1384 1159.76 52.1569 1159.59 Q53.1754 1159.41 54.1939 1159.41 Q59.9809 1159.41 63.3605 1162.58 Q66.7402 1165.75 66.7402 1171.17 Q66.7402 1176.75 63.268 1179.85 Q59.7958 1182.93 53.4763 1182.93 Q51.3004 1182.93 49.0319 1182.56 Q46.7866 1182.19 44.3792 1181.45 L44.3792 1176.75 Q46.4625 1177.88 48.6847 1178.44 Q50.9069 1178.99 53.3837 1178.99 Q57.3884 1178.99 59.7263 1176.89 Q62.0643 1174.78 62.0643 1171.17 Q62.0643 1167.56 59.7263 1165.45 Q57.3884 1163.34 53.3837 1163.34 Q51.5088 1163.34 49.6338 1163.76 Q47.7819 1164.18 45.8375 1165.06 L45.8375 1147.7 Z" fill="#000000" fill-rule="evenodd" fill-opacity="1" /><path clip-path="url(#clip750)" d="M 0 0 M15.4441 879.302 L23.083 879.302 L23.083 852.937 L14.7728 854.604 L14.7728 850.344 L23.0367 848.678 L27.7126 848.678 L27.7126 879.302 L35.3514 879.302 L35.3514 883.238 L15.4441 883.238 L15.4441 879.302 Z" fill="#000000" fill-rule="evenodd" fill-opacity="1" /><path clip-path="url(#clip750)" d="M 0 0 M54.7958 851.756 Q51.1847 851.756 49.356 855.321 Q47.5504 858.863 47.5504 865.992 Q47.5504 873.099 49.356 876.664 Q51.1847 880.205 54.7958 880.205 Q58.43 880.205 60.2356 876.664 Q62.0643 873.099 62.0643 865.992 Q62.0643 858.863 60.2356 855.321 Q58.43 851.756 54.7958 851.756 M54.7958 848.053 Q60.6059 848.053 63.6615 852.659 Q66.7402 857.242 66.7402 865.992 Q66.7402 874.719 63.6615 879.326 Q60.6059 883.909 54.7958 883.909 Q48.9856 883.909 45.9069 879.326 Q42.8514 874.719 42.8514 865.992 Q42.8514 857.242 45.9069 852.659 Q48.9856 848.053 54.7958 848.053 Z" fill="#000000" fill-rule="evenodd" fill-opacity="1" /><path clip-path="url(#clip750)" d="M 0 0 M16.4395 580.284 L24.0783 580.284 L24.0783 553.918 L15.7682 555.585 L15.7682 551.325 L24.0321 549.659 L28.708 549.659 L28.708 580.284 L36.3468 580.284 L36.3468 584.219 L16.4395 584.219 L16.4395 580.284 Z" fill="#000000" fill-rule="evenodd" fill-opacity="1" /><path clip-path="url(#clip750)" d="M 0 0 M45.8375 549.659 L64.1939 549.659 L64.1939 553.594 L50.1199 553.594 L50.1199 562.066 Q51.1384 561.719 52.1569 561.557 Q53.1754 561.372 54.1939 561.372 Q59.9809 561.372 63.3605 564.543 Q66.7402 567.714 66.7402 573.131 Q66.7402 578.71 63.268 581.811 Q59.7958 584.89 53.4763 584.89 Q51.3004 584.89 49.0319 584.52 Q46.7866 584.149 44.3792 583.409 L44.3792 578.71 Q46.4625 579.844 48.6847 580.399 Q50.9069 580.955 53.3837 580.955 Q57.3884 580.955 59.7263 578.848 Q62.0643 576.742 62.0643 573.131 Q62.0643 569.52 59.7263 567.413 Q57.3884 565.307 53.3837 565.307 Q51.5088 565.307 49.6338 565.724 Q47.7819 566.14 45.8375 567.02 L45.8375 549.659 Z" fill="#000000" fill-rule="evenodd" fill-opacity="1" /><path clip-path="url(#clip750)" d="M 0 0 M18.6617 281.265 L34.9811 281.265 L34.9811 285.2 L13.0367 285.2 L13.0367 281.265 Q15.6988 278.51 20.2821 273.881 Q24.8885 269.228 26.0691 267.885 Q28.3144 265.362 29.1941 263.626 Q30.0968 261.867 30.0968 260.177 Q30.0968 257.422 28.1524 255.686 Q26.2311 253.95 23.1293 253.95 Q20.9302 253.95 18.4765 254.714 Q16.046 255.478 13.2682 257.029 L13.2682 252.307 Q16.0923 251.172 18.546 250.594 Q20.9997 250.015 23.0367 250.015 Q28.407 250.015 31.6015 252.7 Q34.7959 255.385 34.7959 259.876 Q34.7959 262.006 33.9857 263.927 Q33.1987 265.825 31.0922 268.418 Q30.5135 269.089 27.4117 272.307 Q24.3098 275.501 18.6617 281.265 Z" fill="#000000" fill-rule="evenodd" fill-opacity="1" /><path clip-path="url(#clip750)" d="M 0 0 M54.7958 253.719 Q51.1847 253.719 49.356 257.283 Q47.5504 260.825 47.5504 267.955 Q47.5504 275.061 49.356 278.626 Q51.1847 282.168 54.7958 282.168 Q58.43 282.168 60.2356 278.626 Q62.0643 275.061 62.0643 267.955 Q62.0643 260.825 60.2356 257.283 Q58.43 253.719 54.7958 253.719 M54.7958 250.015 Q60.6059 250.015 63.6615 254.621 Q66.7402 259.205 66.7402 267.955 Q66.7402 276.682 63.6615 281.288 Q60.6059 285.871 54.7958 285.871 Q48.9856 285.871 45.9069 281.288 Q42.8514 276.682 42.8514 267.955 Q42.8514 259.205 45.9069 254.621 Q48.9856 250.015 54.7958 250.015 Z" fill="#000000" fill-rule="evenodd" fill-opacity="1" /><path clip-path="url(#clip750)" d="M 0 0 M-84.7393 949.797 L-84.7393 943.304 L-44.5716 933.31 L-84.7393 923.348 L-84.7393 916.122 L-44.5716 906.128 L-84.7393 896.166 L-84.7393 889.641 L-37.2193 901.577 L-37.2193 909.661 L-78.469 919.687 L-37.2193 929.809 L-37.2193 937.893 L-84.7393 949.797 Z" fill="#000000" fill-rule="evenodd" fill-opacity="1" /><path clip-path="url(#clip750)" d="M 0 0 M-68.7613 871.372 Q-68.7613 876.082 -65.0692 878.819 Q-61.4089 881.557 -55.0114 881.557 Q-48.6139 881.557 -44.9218 878.851 Q-41.2615 876.114 -41.2615 871.372 Q-41.2615 866.693 -44.9536 863.955 Q-48.6457 861.218 -55.0114 861.218 Q-61.3453 861.218 -65.0374 863.955 Q-68.7613 866.693 -68.7613 871.372 M-73.7266 871.372 Q-73.7266 863.733 -68.7613 859.372 Q-63.7961 855.012 -55.0114 855.012 Q-46.2586 855.012 -41.2615 859.372 Q-36.2962 863.733 -36.2962 871.372 Q-36.2962 879.042 -41.2615 883.403 Q-46.2586 887.731 -55.0114 887.731 Q-63.7961 887.731 -68.7613 883.403 Q-73.7266 879.042 -73.7266 871.372 Z" fill="#000000" fill-rule="evenodd" fill-opacity="1" /><path clip-path="url(#clip750)" d="M 0 0 M-67.3927 824.647 Q-67.9656 825.634 -68.2202 826.812 Q-68.5067 827.957 -68.5067 829.358 Q-68.5067 834.323 -65.2602 836.997 Q-62.0455 839.638 -55.9981 839.638 L-37.2193 839.638 L-37.2193 845.527 L-72.8672 845.527 L-72.8672 839.638 L-67.3291 839.638 Q-70.5756 837.792 -72.1352 834.832 Q-73.7266 831.872 -73.7266 827.639 Q-73.7266 827.034 -73.6311 826.302 Q-73.5674 825.57 -73.4083 824.679 L-67.3927 824.647 Z" fill="#000000" fill-rule="evenodd" fill-opacity="1" /><path clip-path="url(#clip750)" d="M 0 0 M-86.7445 818.727 L-86.7445 812.839 L-57.494 812.839 L-72.8672 795.365 L-72.8672 787.885 L-56.1891 806.791 L-37.2193 787.09 L-37.2193 794.728 L-54.6295 812.839 L-37.2193 812.839 L-37.2193 818.727 L-86.7445 818.727 Z" fill="#000000" fill-rule="evenodd" fill-opacity="1" /><path clip-path="url(#clip750)" d="M 0 0 M-84.7393 760.513 L-84.7393 754.052 L-55.8708 754.052 Q-48.2319 754.052 -44.8581 751.282 Q-41.5161 748.513 -41.5161 742.307 Q-41.5161 736.132 -44.8581 733.363 Q-48.2319 730.594 -55.8708 730.594 L-84.7393 730.594 L-84.7393 724.133 L-55.0751 724.133 Q-45.7811 724.133 -41.0387 728.748 Q-36.2962 733.331 -36.2962 742.307 Q-36.2962 751.314 -41.0387 755.929 Q-45.7811 760.513 -55.0751 760.513 L-84.7393 760.513 Z" fill="#000000" fill-rule="evenodd" fill-opacity="1" /><path clip-path="url(#clip750)" d="M 0 0 M-58.7353 682.692 L-37.2193 682.692 L-37.2193 688.548 L-58.5444 688.548 Q-63.6051 688.548 -66.1196 690.522 Q-68.634 692.495 -68.634 696.442 Q-68.634 701.184 -65.6103 703.922 Q-62.5866 706.659 -57.3667 706.659 L-37.2193 706.659 L-37.2193 712.547 L-72.8672 712.547 L-72.8672 706.659 L-67.3291 706.659 Q-70.5437 704.558 -72.1352 701.725 Q-73.7266 698.861 -73.7266 695.137 Q-73.7266 688.994 -69.9072 685.843 Q-66.1196 682.692 -58.7353 682.692 Z" fill="#000000" fill-rule="evenodd" fill-opacity="1" /><path clip-path="url(#clip750)" d="M 0 0 M-72.8672 671.011 L-72.8672 665.154 L-37.2193 665.154 L-37.2193 671.011 L-72.8672 671.011 M-86.7445 671.011 L-86.7445 665.154 L-79.3284 665.154 L-79.3284 671.011 L-86.7445 671.011 Z" fill="#000000" fill-rule="evenodd" fill-opacity="1" /><path clip-path="url(#clip750)" d="M 0 0 M-82.9887 647.108 L-72.8672 647.108 L-72.8672 635.045 L-68.3157 635.045 L-68.3157 647.108 L-48.964 647.108 Q-44.6035 647.108 -43.3622 645.93 Q-42.1209 644.721 -42.1209 641.06 L-42.1209 635.045 L-37.2193 635.045 L-37.2193 641.06 Q-37.2193 647.84 -39.7337 650.418 Q-42.28 652.996 -48.964 652.996 L-68.3157 652.996 L-68.3157 657.293 L-72.8672 657.293 L-72.8672 652.996 L-82.9887 652.996 L-82.9887 647.108 Z" fill="#000000" fill-rule="evenodd" fill-opacity="1" /><path clip-path="url(#clip750)" d="M 0 0 M-71.8169 604.617 L-66.2787 604.617 Q-67.5519 607.099 -68.1884 609.773 Q-68.825 612.446 -68.825 615.311 Q-68.825 619.671 -67.4882 621.868 Q-66.1514 624.032 -63.4778 624.032 Q-61.4408 624.032 -60.2631 622.472 Q-59.1173 620.913 -58.0669 616.202 L-57.6213 614.197 Q-56.2845 607.959 -53.8338 605.349 Q-51.4148 602.707 -47.0543 602.707 Q-42.089 602.707 -39.1926 606.654 Q-36.2962 610.569 -36.2962 617.444 Q-36.2962 620.308 -36.8691 623.427 Q-37.4102 626.515 -38.5242 629.952 L-44.5716 629.952 Q-42.8847 626.706 -42.0254 623.555 Q-41.1978 620.404 -41.1978 617.316 Q-41.1978 613.178 -42.5983 610.95 Q-44.0306 608.722 -46.6087 608.722 Q-48.9958 608.722 -50.269 610.346 Q-51.5421 611.937 -52.7198 617.38 L-53.1972 619.417 Q-54.343 624.86 -56.6983 627.279 Q-59.0855 629.697 -63.2232 629.697 Q-68.2521 629.697 -70.9893 626.133 Q-73.7266 622.568 -73.7266 616.011 Q-73.7266 612.765 -73.2492 609.9 Q-72.7717 607.036 -71.8169 604.617 Z" fill="#000000" fill-rule="evenodd" fill-opacity="1" /><path clip-path="url(#clip752)" d="
M93.1656 88.5087 L93.1656 1464 L112.315 1464 L112.315 88.5087 L93.1656 88.5087 L93.1656 88.5087  Z
  " fill="#009af9" fill-rule="evenodd" fill-opacity="1"/>
<polyline clip-path="url(#clip752)" style="stroke:#000000; stroke-width:4; stroke-opacity:1; fill:none" points="
  93.1656,88.5087 93.1656,1464 112.315,1464 112.315,88.5087 93.1656,88.5087 
  "/>
<path clip-path="url(#clip752)" d="
M117.102 88.5087 L117.102 1464 L136.251 1464 L136.251 88.5087 L117.102 88.5087 L117.102 88.5087  Z
  " fill="#009af9" fill-rule="evenodd" fill-opacity="1"/>
<polyline clip-path="url(#clip752)" style="stroke:#000000; stroke-width:4; stroke-opacity:1; fill:none" points="
  117.102,88.5087 117.102,1464 136.251,1464 136.251,88.5087 117.102,88.5087 
  "/>
<path clip-path="url(#clip752)" d="
M141.038 148.312 L141.038 1464 L160.187 1464 L160.187 148.312 L141.038 148.312 L141.038 148.312  Z
  " fill="#009af9" fill-rule="evenodd" fill-opacity="1"/>
<polyline clip-path="url(#clip752)" style="stroke:#000000; stroke-width:4; stroke-opacity:1; fill:none" points="
  141.038,148.312 141.038,1464 160.187,1464 160.187,148.312 141.038,148.312 
  "/>
<path clip-path="url(#clip752)" d="
M164.975 148.312 L164.975 1464 L184.124 1464 L184.124 148.312 L164.975 148.312 L164.975 148.312  Z
  " fill="#009af9" fill-rule="evenodd" fill-opacity="1"/>
<polyline clip-path="url(#clip752)" style="stroke:#000000; stroke-width:4; stroke-opacity:1; fill:none" points="
  164.975,148.312 164.975,1464 184.124,1464 184.124,148.312 164.975,148.312 
  "/>
<path clip-path="url(#clip752)" d="
M188.911 208.116 L188.911 1464 L208.06 1464 L208.06 208.116 L188.911 208.116 L188.911 208.116  Z
  " fill="#009af9" fill-rule="evenodd" fill-opacity="1"/>
<polyline clip-path="url(#clip752)" style="stroke:#000000; stroke-width:4; stroke-opacity:1; fill:none" points="
  188.911,208.116 188.911,1464 208.06,1464 208.06,208.116 188.911,208.116 
  "/>
<path clip-path="url(#clip752)" d="
M212.847 208.116 L212.847 1464 L231.996 1464 L231.996 208.116 L212.847 208.116 L212.847 208.116  Z
  " fill="#009af9" fill-rule="evenodd" fill-opacity="1"/>
<polyline clip-path="url(#clip752)" style="stroke:#000000; stroke-width:4; stroke-opacity:1; fill:none" points="
  212.847,208.116 212.847,1464 231.996,1464 231.996,208.116 212.847,208.116 
  "/>
<path clip-path="url(#clip752)" d="
M236.784 208.116 L236.784 1464 L255.933 1464 L255.933 208.116 L236.784 208.116 L236.784 208.116  Z
  " fill="#009af9" fill-rule="evenodd" fill-opacity="1"/>
<polyline clip-path="url(#clip752)" style="stroke:#000000; stroke-width:4; stroke-opacity:1; fill:none" points="
  236.784,208.116 236.784,1464 255.933,1464 255.933,208.116 236.784,208.116 
  "/>
<path clip-path="url(#clip752)" d="
M260.72 208.116 L260.72 1464 L279.869 1464 L279.869 208.116 L260.72 208.116 L260.72 208.116  Z
  " fill="#009af9" fill-rule="evenodd" fill-opacity="1"/>
<polyline clip-path="url(#clip752)" style="stroke:#000000; stroke-width:4; stroke-opacity:1; fill:none" points="
  260.72,208.116 260.72,1464 279.869,1464 279.869,208.116 260.72,208.116 
  "/>
<path clip-path="url(#clip752)" d="
M284.656 208.116 L284.656 1464 L303.805 1464 L303.805 208.116 L284.656 208.116 L284.656 208.116  Z
  " fill="#009af9" fill-rule="evenodd" fill-opacity="1"/>
<polyline clip-path="url(#clip752)" style="stroke:#000000; stroke-width:4; stroke-opacity:1; fill:none" points="
  284.656,208.116 284.656,1464 303.805,1464 303.805,208.116 284.656,208.116 
  "/>
<path clip-path="url(#clip752)" d="
M308.593 208.116 L308.593 1464 L327.742 1464 L327.742 208.116 L308.593 208.116 L308.593 208.116  Z
  " fill="#009af9" fill-rule="evenodd" fill-opacity="1"/>
<polyline clip-path="url(#clip752)" style="stroke:#000000; stroke-width:4; stroke-opacity:1; fill:none" points="
  308.593,208.116 308.593,1464 327.742,1464 327.742,208.116 308.593,208.116 
  "/>
<path clip-path="url(#clip752)" d="
M332.529 208.116 L332.529 1464 L351.678 1464 L351.678 208.116 L332.529 208.116 L332.529 208.116  Z
  " fill="#009af9" fill-rule="evenodd" fill-opacity="1"/>
<polyline clip-path="url(#clip752)" style="stroke:#000000; stroke-width:4; stroke-opacity:1; fill:none" points="
  332.529,208.116 332.529,1464 351.678,1464 351.678,208.116 332.529,208.116 
  "/>
<path clip-path="url(#clip752)" d="
M356.465 208.116 L356.465 1464 L375.614 1464 L375.614 208.116 L356.465 208.116 L356.465 208.116  Z
  " fill="#009af9" fill-rule="evenodd" fill-opacity="1"/>
<polyline clip-path="url(#clip752)" style="stroke:#000000; stroke-width:4; stroke-opacity:1; fill:none" points="
  356.465,208.116 356.465,1464 375.614,1464 375.614,208.116 356.465,208.116 
  "/>
<path clip-path="url(#clip752)" d="
M380.402 208.116 L380.402 1464 L399.551 1464 L399.551 208.116 L380.402 208.116 L380.402 208.116  Z
  " fill="#009af9" fill-rule="evenodd" fill-opacity="1"/>
<polyline clip-path="url(#clip752)" style="stroke:#000000; stroke-width:4; stroke-opacity:1; fill:none" points="
  380.402,208.116 380.402,1464 399.551,1464 399.551,208.116 380.402,208.116 
  "/>
<path clip-path="url(#clip752)" d="
M404.338 148.312 L404.338 1464 L423.487 1464 L423.487 148.312 L404.338 148.312 L404.338 148.312  Z
  " fill="#009af9" fill-rule="evenodd" fill-opacity="1"/>
<polyline clip-path="url(#clip752)" style="stroke:#000000; stroke-width:4; stroke-opacity:1; fill:none" points="
  404.338,148.312 404.338,1464 423.487,1464 423.487,148.312 404.338,148.312 
  "/>
<path clip-path="url(#clip752)" d="
M428.274 148.312 L428.274 1464 L447.423 1464 L447.423 148.312 L428.274 148.312 L428.274 148.312  Z
  " fill="#009af9" fill-rule="evenodd" fill-opacity="1"/>
<polyline clip-path="url(#clip752)" style="stroke:#000000; stroke-width:4; stroke-opacity:1; fill:none" points="
  428.274,148.312 428.274,1464 447.423,1464 447.423,148.312 428.274,148.312 
  "/>
<path clip-path="url(#clip752)" d="
M452.211 208.116 L452.211 1464 L471.36 1464 L471.36 208.116 L452.211 208.116 L452.211 208.116  Z
  " fill="#009af9" fill-rule="evenodd" fill-opacity="1"/>
<polyline clip-path="url(#clip752)" style="stroke:#000000; stroke-width:4; stroke-opacity:1; fill:none" points="
  452.211,208.116 452.211,1464 471.36,1464 471.36,208.116 452.211,208.116 
  "/>
<path clip-path="url(#clip752)" d="
M476.147 208.116 L476.147 1464 L495.296 1464 L495.296 208.116 L476.147 208.116 L476.147 208.116  Z
  " fill="#009af9" fill-rule="evenodd" fill-opacity="1"/>
<polyline clip-path="url(#clip752)" style="stroke:#000000; stroke-width:4; stroke-opacity:1; fill:none" points="
  476.147,208.116 476.147,1464 495.296,1464 495.296,208.116 476.147,208.116 
  "/>
<path clip-path="url(#clip752)" d="
M500.083 208.116 L500.083 1464 L519.232 1464 L519.232 208.116 L500.083 208.116 L500.083 208.116  Z
  " fill="#009af9" fill-rule="evenodd" fill-opacity="1"/>
<polyline clip-path="url(#clip752)" style="stroke:#000000; stroke-width:4; stroke-opacity:1; fill:none" points="
  500.083,208.116 500.083,1464 519.232,1464 519.232,208.116 500.083,208.116 
  "/>
<path clip-path="url(#clip752)" d="
M524.02 208.116 L524.02 1464 L543.169 1464 L543.169 208.116 L524.02 208.116 L524.02 208.116  Z
  " fill="#009af9" fill-rule="evenodd" fill-opacity="1"/>
<polyline clip-path="url(#clip752)" style="stroke:#000000; stroke-width:4; stroke-opacity:1; fill:none" points="
  524.02,208.116 524.02,1464 543.169,1464 543.169,208.116 524.02,208.116 
  "/>
<path clip-path="url(#clip752)" d="
M547.956 148.312 L547.956 1464 L567.105 1464 L567.105 148.312 L547.956 148.312 L547.956 148.312  Z
  " fill="#009af9" fill-rule="evenodd" fill-opacity="1"/>
<polyline clip-path="url(#clip752)" style="stroke:#000000; stroke-width:4; stroke-opacity:1; fill:none" points="
  547.956,148.312 547.956,1464 567.105,1464 567.105,148.312 547.956,148.312 
  "/>
<path clip-path="url(#clip752)" d="
M571.892 208.116 L571.892 1464 L591.041 1464 L591.041 208.116 L571.892 208.116 L571.892 208.116  Z
  " fill="#009af9" fill-rule="evenodd" fill-opacity="1"/>
<polyline clip-path="url(#clip752)" style="stroke:#000000; stroke-width:4; stroke-opacity:1; fill:none" points="
  571.892,208.116 571.892,1464 591.041,1464 591.041,208.116 571.892,208.116 
  "/>
<path clip-path="url(#clip752)" d="
M595.829 148.312 L595.829 1464 L614.978 1464 L614.978 148.312 L595.829 148.312 L595.829 148.312  Z
  " fill="#009af9" fill-rule="evenodd" fill-opacity="1"/>
<polyline clip-path="url(#clip752)" style="stroke:#000000; stroke-width:4; stroke-opacity:1; fill:none" points="
  595.829,148.312 595.829,1464 614.978,1464 614.978,148.312 595.829,148.312 
  "/>
<path clip-path="url(#clip752)" d="
M619.765 208.116 L619.765 1464 L638.914 1464 L638.914 208.116 L619.765 208.116 L619.765 208.116  Z
  " fill="#009af9" fill-rule="evenodd" fill-opacity="1"/>
<polyline clip-path="url(#clip752)" style="stroke:#000000; stroke-width:4; stroke-opacity:1; fill:none" points="
  619.765,208.116 619.765,1464 638.914,1464 638.914,208.116 619.765,208.116 
  "/>
<path clip-path="url(#clip752)" d="
M643.701 208.116 L643.701 1464 L662.85 1464 L662.85 208.116 L643.701 208.116 L643.701 208.116  Z
  " fill="#009af9" fill-rule="evenodd" fill-opacity="1"/>
<polyline clip-path="url(#clip752)" style="stroke:#000000; stroke-width:4; stroke-opacity:1; fill:none" points="
  643.701,208.116 643.701,1464 662.85,1464 662.85,208.116 643.701,208.116 
  "/>
<path clip-path="url(#clip752)" d="
M667.638 267.92 L667.638 1464 L686.787 1464 L686.787 267.92 L667.638 267.92 L667.638 267.92  Z
  " fill="#009af9" fill-rule="evenodd" fill-opacity="1"/>
<polyline clip-path="url(#clip752)" style="stroke:#000000; stroke-width:4; stroke-opacity:1; fill:none" points="
  667.638,267.92 667.638,1464 686.787,1464 686.787,267.92 667.638,267.92 
  "/>
<path clip-path="url(#clip752)" d="
M691.574 208.116 L691.574 1464 L710.723 1464 L710.723 208.116 L691.574 208.116 L691.574 208.116  Z
  " fill="#009af9" fill-rule="evenodd" fill-opacity="1"/>
<polyline clip-path="url(#clip752)" style="stroke:#000000; stroke-width:4; stroke-opacity:1; fill:none" points="
  691.574,208.116 691.574,1464 710.723,1464 710.723,208.116 691.574,208.116 
  "/>
<path clip-path="url(#clip752)" d="
M715.51 267.92 L715.51 1464 L734.659 1464 L734.659 267.92 L715.51 267.92 L715.51 267.92  Z
  " fill="#009af9" fill-rule="evenodd" fill-opacity="1"/>
<polyline clip-path="url(#clip752)" style="stroke:#000000; stroke-width:4; stroke-opacity:1; fill:none" points="
  715.51,267.92 715.51,1464 734.659,1464 734.659,267.92 715.51,267.92 
  "/>
<path clip-path="url(#clip752)" d="
M739.447 208.116 L739.447 1464 L758.596 1464 L758.596 208.116 L739.447 208.116 L739.447 208.116  Z
  " fill="#009af9" fill-rule="evenodd" fill-opacity="1"/>
<polyline clip-path="url(#clip752)" style="stroke:#000000; stroke-width:4; stroke-opacity:1; fill:none" points="
  739.447,208.116 739.447,1464 758.596,1464 758.596,208.116 739.447,208.116 
  "/>
<path clip-path="url(#clip752)" d="
M763.383 208.116 L763.383 1464 L782.532 1464 L782.532 208.116 L763.383 208.116 L763.383 208.116  Z
  " fill="#009af9" fill-rule="evenodd" fill-opacity="1"/>
<polyline clip-path="url(#clip752)" style="stroke:#000000; stroke-width:4; stroke-opacity:1; fill:none" points="
  763.383,208.116 763.383,1464 782.532,1464 782.532,208.116 763.383,208.116 
  "/>
<path clip-path="url(#clip752)" d="
M787.319 267.92 L787.319 1464 L806.468 1464 L806.468 267.92 L787.319 267.92 L787.319 267.92  Z
  " fill="#009af9" fill-rule="evenodd" fill-opacity="1"/>
<polyline clip-path="url(#clip752)" style="stroke:#000000; stroke-width:4; stroke-opacity:1; fill:none" points="
  787.319,267.92 787.319,1464 806.468,1464 806.468,267.92 787.319,267.92 
  "/>
<path clip-path="url(#clip752)" d="
M811.256 208.116 L811.256 1464 L830.405 1464 L830.405 208.116 L811.256 208.116 L811.256 208.116  Z
  " fill="#009af9" fill-rule="evenodd" fill-opacity="1"/>
<polyline clip-path="url(#clip752)" style="stroke:#000000; stroke-width:4; stroke-opacity:1; fill:none" points="
  811.256,208.116 811.256,1464 830.405,1464 830.405,208.116 811.256,208.116 
  "/>
<path clip-path="url(#clip752)" d="
M835.192 208.116 L835.192 1464 L854.341 1464 L854.341 208.116 L835.192 208.116 L835.192 208.116  Z
  " fill="#009af9" fill-rule="evenodd" fill-opacity="1"/>
<polyline clip-path="url(#clip752)" style="stroke:#000000; stroke-width:4; stroke-opacity:1; fill:none" points="
  835.192,208.116 835.192,1464 854.341,1464 854.341,208.116 835.192,208.116 
  "/>
<path clip-path="url(#clip752)" d="
M859.128 267.92 L859.128 1464 L878.278 1464 L878.278 267.92 L859.128 267.92 L859.128 267.92  Z
  " fill="#009af9" fill-rule="evenodd" fill-opacity="1"/>
<polyline clip-path="url(#clip752)" style="stroke:#000000; stroke-width:4; stroke-opacity:1; fill:none" points="
  859.128,267.92 859.128,1464 878.278,1464 878.278,267.92 859.128,267.92 
  "/>
<path clip-path="url(#clip752)" d="
M883.065 267.92 L883.065 1464 L902.214 1464 L902.214 267.92 L883.065 267.92 L883.065 267.92  Z
  " fill="#009af9" fill-rule="evenodd" fill-opacity="1"/>
<polyline clip-path="url(#clip752)" style="stroke:#000000; stroke-width:4; stroke-opacity:1; fill:none" points="
  883.065,267.92 883.065,1464 902.214,1464 902.214,267.92 883.065,267.92 
  "/>
<path clip-path="url(#clip752)" d="
M907.001 208.116 L907.001 1464 L926.15 1464 L926.15 208.116 L907.001 208.116 L907.001 208.116  Z
  " fill="#009af9" fill-rule="evenodd" fill-opacity="1"/>
<polyline clip-path="url(#clip752)" style="stroke:#000000; stroke-width:4; stroke-opacity:1; fill:none" points="
  907.001,208.116 907.001,1464 926.15,1464 926.15,208.116 907.001,208.116 
  "/>
<path clip-path="url(#clip752)" d="
M930.937 267.92 L930.937 1464 L950.087 1464 L950.087 267.92 L930.937 267.92 L930.937 267.92  Z
  " fill="#009af9" fill-rule="evenodd" fill-opacity="1"/>
<polyline clip-path="url(#clip752)" style="stroke:#000000; stroke-width:4; stroke-opacity:1; fill:none" points="
  930.937,267.92 930.937,1464 950.087,1464 950.087,267.92 930.937,267.92 
  "/>
<path clip-path="url(#clip752)" d="
M954.874 267.92 L954.874 1464 L974.023 1464 L974.023 267.92 L954.874 267.92 L954.874 267.92  Z
  " fill="#009af9" fill-rule="evenodd" fill-opacity="1"/>
<polyline clip-path="url(#clip752)" style="stroke:#000000; stroke-width:4; stroke-opacity:1; fill:none" points="
  954.874,267.92 954.874,1464 974.023,1464 974.023,267.92 954.874,267.92 
  "/>
<path clip-path="url(#clip752)" d="
M978.81 267.92 L978.81 1464 L997.959 1464 L997.959 267.92 L978.81 267.92 L978.81 267.92  Z
  " fill="#009af9" fill-rule="evenodd" fill-opacity="1"/>
<polyline clip-path="url(#clip752)" style="stroke:#000000; stroke-width:4; stroke-opacity:1; fill:none" points="
  978.81,267.92 978.81,1464 997.959,1464 997.959,267.92 978.81,267.92 
  "/>
<path clip-path="url(#clip752)" d="
M1002.75 208.116 L1002.75 1464 L1021.9 1464 L1021.9 208.116 L1002.75 208.116 L1002.75 208.116  Z
  " fill="#009af9" fill-rule="evenodd" fill-opacity="1"/>
<polyline clip-path="url(#clip752)" style="stroke:#000000; stroke-width:4; stroke-opacity:1; fill:none" points="
  1002.75,208.116 1002.75,1464 1021.9,1464 1021.9,208.116 1002.75,208.116 
  "/>
<path clip-path="url(#clip752)" d="
M1026.68 148.312 L1026.68 1464 L1045.83 1464 L1045.83 148.312 L1026.68 148.312 L1026.68 148.312  Z
  " fill="#009af9" fill-rule="evenodd" fill-opacity="1"/>
<polyline clip-path="url(#clip752)" style="stroke:#000000; stroke-width:4; stroke-opacity:1; fill:none" points="
  1026.68,148.312 1026.68,1464 1045.83,1464 1045.83,148.312 1026.68,148.312 
  "/>
<path clip-path="url(#clip752)" d="
M1050.62 208.116 L1050.62 1464 L1069.77 1464 L1069.77 208.116 L1050.62 208.116 L1050.62 208.116  Z
  " fill="#009af9" fill-rule="evenodd" fill-opacity="1"/>
<polyline clip-path="url(#clip752)" style="stroke:#000000; stroke-width:4; stroke-opacity:1; fill:none" points="
  1050.62,208.116 1050.62,1464 1069.77,1464 1069.77,208.116 1050.62,208.116 
  "/>
<path clip-path="url(#clip752)" d="
M1074.56 208.116 L1074.56 1464 L1093.7 1464 L1093.7 208.116 L1074.56 208.116 L1074.56 208.116  Z
  " fill="#009af9" fill-rule="evenodd" fill-opacity="1"/>
<polyline clip-path="url(#clip752)" style="stroke:#000000; stroke-width:4; stroke-opacity:1; fill:none" points="
  1074.56,208.116 1074.56,1464 1093.7,1464 1093.7,208.116 1074.56,208.116 
  "/>
<path clip-path="url(#clip752)" d="
M1098.49 208.116 L1098.49 1464 L1117.64 1464 L1117.64 208.116 L1098.49 208.116 L1098.49 208.116  Z
  " fill="#009af9" fill-rule="evenodd" fill-opacity="1"/>
<polyline clip-path="url(#clip752)" style="stroke:#000000; stroke-width:4; stroke-opacity:1; fill:none" points="
  1098.49,208.116 1098.49,1464 1117.64,1464 1117.64,208.116 1098.49,208.116 
  "/>
<path clip-path="url(#clip752)" d="
M1122.43 208.116 L1122.43 1464 L1141.58 1464 L1141.58 208.116 L1122.43 208.116 L1122.43 208.116  Z
  " fill="#009af9" fill-rule="evenodd" fill-opacity="1"/>
<polyline clip-path="url(#clip752)" style="stroke:#000000; stroke-width:4; stroke-opacity:1; fill:none" points="
  1122.43,208.116 1122.43,1464 1141.58,1464 1141.58,208.116 1122.43,208.116 
  "/>
<path clip-path="url(#clip752)" d="
M1146.36 267.92 L1146.36 1464 L1165.51 1464 L1165.51 267.92 L1146.36 267.92 L1146.36 267.92  Z
  " fill="#009af9" fill-rule="evenodd" fill-opacity="1"/>
<polyline clip-path="url(#clip752)" style="stroke:#000000; stroke-width:4; stroke-opacity:1; fill:none" points="
  1146.36,267.92 1146.36,1464 1165.51,1464 1165.51,267.92 1146.36,267.92 
  "/>
<path clip-path="url(#clip752)" d="
M1170.3 267.92 L1170.3 1464 L1189.45 1464 L1189.45 267.92 L1170.3 267.92 L1170.3 267.92  Z
  " fill="#009af9" fill-rule="evenodd" fill-opacity="1"/>
<polyline clip-path="url(#clip752)" style="stroke:#000000; stroke-width:4; stroke-opacity:1; fill:none" points="
  1170.3,267.92 1170.3,1464 1189.45,1464 1189.45,267.92 1170.3,267.92 
  "/>
<path clip-path="url(#clip752)" d="
M1194.24 208.116 L1194.24 1464 L1213.39 1464 L1213.39 208.116 L1194.24 208.116 L1194.24 208.116  Z
  " fill="#009af9" fill-rule="evenodd" fill-opacity="1"/>
<polyline clip-path="url(#clip752)" style="stroke:#000000; stroke-width:4; stroke-opacity:1; fill:none" points="
  1194.24,208.116 1194.24,1464 1213.39,1464 1213.39,208.116 1194.24,208.116 
  "/>
<path clip-path="url(#clip752)" d="
M1218.17 267.92 L1218.17 1464 L1237.32 1464 L1237.32 267.92 L1218.17 267.92 L1218.17 267.92  Z
  " fill="#009af9" fill-rule="evenodd" fill-opacity="1"/>
<polyline clip-path="url(#clip752)" style="stroke:#000000; stroke-width:4; stroke-opacity:1; fill:none" points="
  1218.17,267.92 1218.17,1464 1237.32,1464 1237.32,267.92 1218.17,267.92 
  "/>
<path clip-path="url(#clip752)" d="
M1242.11 148.312 L1242.11 1464 L1261.26 1464 L1261.26 148.312 L1242.11 148.312 L1242.11 148.312  Z
  " fill="#009af9" fill-rule="evenodd" fill-opacity="1"/>
<polyline clip-path="url(#clip752)" style="stroke:#000000; stroke-width:4; stroke-opacity:1; fill:none" points="
  1242.11,148.312 1242.11,1464 1261.26,1464 1261.26,148.312 1242.11,148.312 
  "/>
<path clip-path="url(#clip752)" d="
M1266.05 148.312 L1266.05 1464 L1285.2 1464 L1285.2 148.312 L1266.05 148.312 L1266.05 148.312  Z
  " fill="#009af9" fill-rule="evenodd" fill-opacity="1"/>
<polyline clip-path="url(#clip752)" style="stroke:#000000; stroke-width:4; stroke-opacity:1; fill:none" points="
  1266.05,148.312 1266.05,1464 1285.2,1464 1285.2,148.312 1266.05,148.312 
  "/>
<path clip-path="url(#clip752)" d="
M1289.98 208.116 L1289.98 1464 L1309.13 1464 L1309.13 208.116 L1289.98 208.116 L1289.98 208.116  Z
  " fill="#009af9" fill-rule="evenodd" fill-opacity="1"/>
<polyline clip-path="url(#clip752)" style="stroke:#000000; stroke-width:4; stroke-opacity:1; fill:none" points="
  1289.98,208.116 1289.98,1464 1309.13,1464 1309.13,208.116 1289.98,208.116 
  "/>
<path clip-path="url(#clip752)" d="
M1313.92 208.116 L1313.92 1464 L1333.07 1464 L1333.07 208.116 L1313.92 208.116 L1313.92 208.116  Z
  " fill="#009af9" fill-rule="evenodd" fill-opacity="1"/>
<polyline clip-path="url(#clip752)" style="stroke:#000000; stroke-width:4; stroke-opacity:1; fill:none" points="
  1313.92,208.116 1313.92,1464 1333.07,1464 1333.07,208.116 1313.92,208.116 
  "/>
<path clip-path="url(#clip752)" d="
M1337.86 267.92 L1337.86 1464 L1357 1464 L1357 267.92 L1337.86 267.92 L1337.86 267.92  Z
  " fill="#009af9" fill-rule="evenodd" fill-opacity="1"/>
<polyline clip-path="url(#clip752)" style="stroke:#000000; stroke-width:4; stroke-opacity:1; fill:none" points="
  1337.86,267.92 1337.86,1464 1357,1464 1357,267.92 1337.86,267.92 
  "/>
<path clip-path="url(#clip752)" d="
M1361.79 267.92 L1361.79 1464 L1380.94 1464 L1380.94 267.92 L1361.79 267.92 L1361.79 267.92  Z
  " fill="#009af9" fill-rule="evenodd" fill-opacity="1"/>
<polyline clip-path="url(#clip752)" style="stroke:#000000; stroke-width:4; stroke-opacity:1; fill:none" points="
  1361.79,267.92 1361.79,1464 1380.94,1464 1380.94,267.92 1361.79,267.92 
  "/>
<path clip-path="url(#clip752)" d="
M1385.73 208.116 L1385.73 1464 L1404.88 1464 L1404.88 208.116 L1385.73 208.116 L1385.73 208.116  Z
  " fill="#009af9" fill-rule="evenodd" fill-opacity="1"/>
<polyline clip-path="url(#clip752)" style="stroke:#000000; stroke-width:4; stroke-opacity:1; fill:none" points="
  1385.73,208.116 1385.73,1464 1404.88,1464 1404.88,208.116 1385.73,208.116 
  "/>
<path clip-path="url(#clip752)" d="
M1409.66 208.116 L1409.66 1464 L1428.81 1464 L1428.81 208.116 L1409.66 208.116 L1409.66 208.116  Z
  " fill="#009af9" fill-rule="evenodd" fill-opacity="1"/>
<polyline clip-path="url(#clip752)" style="stroke:#000000; stroke-width:4; stroke-opacity:1; fill:none" points="
  1409.66,208.116 1409.66,1464 1428.81,1464 1428.81,208.116 1409.66,208.116 
  "/>
<path clip-path="url(#clip752)" d="
M1433.6 208.116 L1433.6 1464 L1452.75 1464 L1452.75 208.116 L1433.6 208.116 L1433.6 208.116  Z
  " fill="#009af9" fill-rule="evenodd" fill-opacity="1"/>
<polyline clip-path="url(#clip752)" style="stroke:#000000; stroke-width:4; stroke-opacity:1; fill:none" points="
  1433.6,208.116 1433.6,1464 1452.75,1464 1452.75,208.116 1433.6,208.116 
  "/>
<path clip-path="url(#clip752)" d="
M1457.54 148.312 L1457.54 1464 L1476.69 1464 L1476.69 148.312 L1457.54 148.312 L1457.54 148.312  Z
  " fill="#009af9" fill-rule="evenodd" fill-opacity="1"/>
<polyline clip-path="url(#clip752)" style="stroke:#000000; stroke-width:4; stroke-opacity:1; fill:none" points="
  1457.54,148.312 1457.54,1464 1476.69,1464 1476.69,148.312 1457.54,148.312 
  "/>
<path clip-path="url(#clip752)" d="
M1481.47 267.92 L1481.47 1464 L1500.62 1464 L1500.62 267.92 L1481.47 267.92 L1481.47 267.92  Z
  " fill="#009af9" fill-rule="evenodd" fill-opacity="1"/>
<polyline clip-path="url(#clip752)" style="stroke:#000000; stroke-width:4; stroke-opacity:1; fill:none" points="
  1481.47,267.92 1481.47,1464 1500.62,1464 1500.62,267.92 1481.47,267.92 
  "/>
<path clip-path="url(#clip752)" d="
M1505.41 208.116 L1505.41 1464 L1524.56 1464 L1524.56 208.116 L1505.41 208.116 L1505.41 208.116  Z
  " fill="#009af9" fill-rule="evenodd" fill-opacity="1"/>
<polyline clip-path="url(#clip752)" style="stroke:#000000; stroke-width:4; stroke-opacity:1; fill:none" points="
  1505.41,208.116 1505.41,1464 1524.56,1464 1524.56,208.116 1505.41,208.116 
  "/>
<path clip-path="url(#clip752)" d="
M1529.35 267.92 L1529.35 1464 L1548.49 1464 L1548.49 267.92 L1529.35 267.92 L1529.35 267.92  Z
  " fill="#009af9" fill-rule="evenodd" fill-opacity="1"/>
<polyline clip-path="url(#clip752)" style="stroke:#000000; stroke-width:4; stroke-opacity:1; fill:none" points="
  1529.35,267.92 1529.35,1464 1548.49,1464 1548.49,267.92 1529.35,267.92 
  "/>
<path clip-path="url(#clip752)" d="
M1553.28 208.116 L1553.28 1464 L1572.43 1464 L1572.43 208.116 L1553.28 208.116 L1553.28 208.116  Z
  " fill="#009af9" fill-rule="evenodd" fill-opacity="1"/>
<polyline clip-path="url(#clip752)" style="stroke:#000000; stroke-width:4; stroke-opacity:1; fill:none" points="
  1553.28,208.116 1553.28,1464 1572.43,1464 1572.43,208.116 1553.28,208.116 
  "/>
<path clip-path="url(#clip752)" d="
M1577.22 148.312 L1577.22 1464 L1596.37 1464 L1596.37 148.312 L1577.22 148.312 L1577.22 148.312  Z
  " fill="#009af9" fill-rule="evenodd" fill-opacity="1"/>
<polyline clip-path="url(#clip752)" style="stroke:#000000; stroke-width:4; stroke-opacity:1; fill:none" points="
  1577.22,148.312 1577.22,1464 1596.37,1464 1596.37,148.312 1577.22,148.312 
  "/>
<path clip-path="url(#clip752)" d="
M1601.15 148.312 L1601.15 1464 L1620.3 1464 L1620.3 148.312 L1601.15 148.312 L1601.15 148.312  Z
  " fill="#009af9" fill-rule="evenodd" fill-opacity="1"/>
<polyline clip-path="url(#clip752)" style="stroke:#000000; stroke-width:4; stroke-opacity:1; fill:none" points="
  1601.15,148.312 1601.15,1464 1620.3,1464 1620.3,148.312 1601.15,148.312 
  "/>
<path clip-path="url(#clip752)" d="
M1625.09 208.116 L1625.09 1464 L1644.24 1464 L1644.24 208.116 L1625.09 208.116 L1625.09 208.116  Z
  " fill="#009af9" fill-rule="evenodd" fill-opacity="1"/>
<polyline clip-path="url(#clip752)" style="stroke:#000000; stroke-width:4; stroke-opacity:1; fill:none" points="
  1625.09,208.116 1625.09,1464 1644.24,1464 1644.24,208.116 1625.09,208.116 
  "/>
<path clip-path="url(#clip752)" d="
M1649.03 267.92 L1649.03 1464 L1668.18 1464 L1668.18 267.92 L1649.03 267.92 L1649.03 267.92  Z
  " fill="#009af9" fill-rule="evenodd" fill-opacity="1"/>
<polyline clip-path="url(#clip752)" style="stroke:#000000; stroke-width:4; stroke-opacity:1; fill:none" points="
  1649.03,267.92 1649.03,1464 1668.18,1464 1668.18,267.92 1649.03,267.92 
  "/>
<path clip-path="url(#clip752)" d="
M1672.96 148.312 L1672.96 1464 L1692.11 1464 L1692.11 148.312 L1672.96 148.312 L1672.96 148.312  Z
  " fill="#009af9" fill-rule="evenodd" fill-opacity="1"/>
<polyline clip-path="url(#clip752)" style="stroke:#000000; stroke-width:4; stroke-opacity:1; fill:none" points="
  1672.96,148.312 1672.96,1464 1692.11,1464 1692.11,148.312 1672.96,148.312 
  "/>
<path clip-path="url(#clip752)" d="
M1696.9 208.116 L1696.9 1464 L1716.05 1464 L1716.05 208.116 L1696.9 208.116 L1696.9 208.116  Z
  " fill="#009af9" fill-rule="evenodd" fill-opacity="1"/>
<polyline clip-path="url(#clip752)" style="stroke:#000000; stroke-width:4; stroke-opacity:1; fill:none" points="
  1696.9,208.116 1696.9,1464 1716.05,1464 1716.05,208.116 1696.9,208.116 
  "/>
<path clip-path="url(#clip752)" d="
M1720.84 148.312 L1720.84 1464 L1739.99 1464 L1739.99 148.312 L1720.84 148.312 L1720.84 148.312  Z
  " fill="#009af9" fill-rule="evenodd" fill-opacity="1"/>
<polyline clip-path="url(#clip752)" style="stroke:#000000; stroke-width:4; stroke-opacity:1; fill:none" points="
  1720.84,148.312 1720.84,1464 1739.99,1464 1739.99,148.312 1720.84,148.312 
  "/>
<path clip-path="url(#clip752)" d="
M1744.77 148.312 L1744.77 1464 L1763.92 1464 L1763.92 148.312 L1744.77 148.312 L1744.77 148.312  Z
  " fill="#009af9" fill-rule="evenodd" fill-opacity="1"/>
<polyline clip-path="url(#clip752)" style="stroke:#000000; stroke-width:4; stroke-opacity:1; fill:none" points="
  1744.77,148.312 1744.77,1464 1763.92,1464 1763.92,148.312 1744.77,148.312 
  "/>
<path clip-path="url(#clip752)" d="
M1768.71 148.312 L1768.71 1464 L1787.86 1464 L1787.86 148.312 L1768.71 148.312 L1768.71 148.312  Z
  " fill="#009af9" fill-rule="evenodd" fill-opacity="1"/>
<polyline clip-path="url(#clip752)" style="stroke:#000000; stroke-width:4; stroke-opacity:1; fill:none" points="
  1768.71,148.312 1768.71,1464 1787.86,1464 1787.86,148.312 1768.71,148.312 
  "/>
<path clip-path="url(#clip752)" d="
M1792.65 148.312 L1792.65 1464 L1811.79 1464 L1811.79 148.312 L1792.65 148.312 L1792.65 148.312  Z
  " fill="#009af9" fill-rule="evenodd" fill-opacity="1"/>
<polyline clip-path="url(#clip752)" style="stroke:#000000; stroke-width:4; stroke-opacity:1; fill:none" points="
  1792.65,148.312 1792.65,1464 1811.79,1464 1811.79,148.312 1792.65,148.312 
  "/>
<path clip-path="url(#clip752)" d="
M1816.58 208.116 L1816.58 1464 L1835.73 1464 L1835.73 208.116 L1816.58 208.116 L1816.58 208.116  Z
  " fill="#009af9" fill-rule="evenodd" fill-opacity="1"/>
<polyline clip-path="url(#clip752)" style="stroke:#000000; stroke-width:4; stroke-opacity:1; fill:none" points="
  1816.58,208.116 1816.58,1464 1835.73,1464 1835.73,208.116 1816.58,208.116 
  "/>
<path clip-path="url(#clip752)" d="
M1840.52 267.92 L1840.52 1464 L1859.67 1464 L1859.67 267.92 L1840.52 267.92 L1840.52 267.92  Z
  " fill="#009af9" fill-rule="evenodd" fill-opacity="1"/>
<polyline clip-path="url(#clip752)" style="stroke:#000000; stroke-width:4; stroke-opacity:1; fill:none" points="
  1840.52,267.92 1840.52,1464 1859.67,1464 1859.67,267.92 1840.52,267.92 
  "/>
<path clip-path="url(#clip752)" d="
M1864.45 148.312 L1864.45 1464 L1883.6 1464 L1883.6 148.312 L1864.45 148.312 L1864.45 148.312  Z
  " fill="#009af9" fill-rule="evenodd" fill-opacity="1"/>
<polyline clip-path="url(#clip752)" style="stroke:#000000; stroke-width:4; stroke-opacity:1; fill:none" points="
  1864.45,148.312 1864.45,1464 1883.6,1464 1883.6,148.312 1864.45,148.312 
  "/>
<path clip-path="url(#clip752)" d="
M1888.39 208.116 L1888.39 1464 L1907.54 1464 L1907.54 208.116 L1888.39 208.116 L1888.39 208.116  Z
  " fill="#009af9" fill-rule="evenodd" fill-opacity="1"/>
<polyline clip-path="url(#clip752)" style="stroke:#000000; stroke-width:4; stroke-opacity:1; fill:none" points="
  1888.39,208.116 1888.39,1464 1907.54,1464 1907.54,208.116 1888.39,208.116 
  "/>
<path clip-path="url(#clip752)" d="
M1912.33 148.312 L1912.33 1464 L1931.48 1464 L1931.48 148.312 L1912.33 148.312 L1912.33 148.312  Z
  " fill="#009af9" fill-rule="evenodd" fill-opacity="1"/>
<polyline clip-path="url(#clip752)" style="stroke:#000000; stroke-width:4; stroke-opacity:1; fill:none" points="
  1912.33,148.312 1912.33,1464 1931.48,1464 1931.48,148.312 1912.33,148.312 
  "/>
<path clip-path="url(#clip752)" d="
M1936.26 208.116 L1936.26 1464 L1955.41 1464 L1955.41 208.116 L1936.26 208.116 L1936.26 208.116  Z
  " fill="#009af9" fill-rule="evenodd" fill-opacity="1"/>
<polyline clip-path="url(#clip752)" style="stroke:#000000; stroke-width:4; stroke-opacity:1; fill:none" points="
  1936.26,208.116 1936.26,1464 1955.41,1464 1955.41,208.116 1936.26,208.116 
  "/>
<path clip-path="url(#clip752)" d="
M1960.2 208.116 L1960.2 1464 L1979.35 1464 L1979.35 208.116 L1960.2 208.116 L1960.2 208.116  Z
  " fill="#009af9" fill-rule="evenodd" fill-opacity="1"/>
<polyline clip-path="url(#clip752)" style="stroke:#000000; stroke-width:4; stroke-opacity:1; fill:none" points="
  1960.2,208.116 1960.2,1464 1979.35,1464 1979.35,208.116 1960.2,208.116 
  "/>
<path clip-path="url(#clip752)" d="
M1984.14 267.92 L1984.14 1464 L2003.29 1464 L2003.29 267.92 L1984.14 267.92 L1984.14 267.92  Z
  " fill="#009af9" fill-rule="evenodd" fill-opacity="1"/>
<polyline clip-path="url(#clip752)" style="stroke:#000000; stroke-width:4; stroke-opacity:1; fill:none" points="
  1984.14,267.92 1984.14,1464 2003.29,1464 2003.29,267.92 1984.14,267.92 
  "/>
<path clip-path="url(#clip752)" d="
M2008.07 148.312 L2008.07 1464 L2027.22 1464 L2027.22 148.312 L2008.07 148.312 L2008.07 148.312  Z
  " fill="#009af9" fill-rule="evenodd" fill-opacity="1"/>
<polyline clip-path="url(#clip752)" style="stroke:#000000; stroke-width:4; stroke-opacity:1; fill:none" points="
  2008.07,148.312 2008.07,1464 2027.22,1464 2027.22,148.312 2008.07,148.312 
  "/>
<path clip-path="url(#clip752)" d="
M2032.01 208.116 L2032.01 1464 L2051.16 1464 L2051.16 208.116 L2032.01 208.116 L2032.01 208.116  Z
  " fill="#009af9" fill-rule="evenodd" fill-opacity="1"/>
<polyline clip-path="url(#clip752)" style="stroke:#000000; stroke-width:4; stroke-opacity:1; fill:none" points="
  2032.01,208.116 2032.01,1464 2051.16,1464 2051.16,208.116 2032.01,208.116 
  "/>
<path clip-path="url(#clip752)" d="
M2055.95 148.312 L2055.95 1464 L2075.09 1464 L2075.09 148.312 L2055.95 148.312 L2055.95 148.312  Z
  " fill="#009af9" fill-rule="evenodd" fill-opacity="1"/>
<polyline clip-path="url(#clip752)" style="stroke:#000000; stroke-width:4; stroke-opacity:1; fill:none" points="
  2055.95,148.312 2055.95,1464 2075.09,1464 2075.09,148.312 2055.95,148.312 
  "/>
<path clip-path="url(#clip752)" d="
M2079.88 148.312 L2079.88 1464 L2099.03 1464 L2099.03 148.312 L2079.88 148.312 L2079.88 148.312  Z
  " fill="#009af9" fill-rule="evenodd" fill-opacity="1"/>
<polyline clip-path="url(#clip752)" style="stroke:#000000; stroke-width:4; stroke-opacity:1; fill:none" points="
  2079.88,148.312 2079.88,1464 2099.03,1464 2099.03,148.312 2079.88,148.312 
  "/>
<path clip-path="url(#clip752)" d="
M2103.82 148.312 L2103.82 1464 L2122.97 1464 L2122.97 148.312 L2103.82 148.312 L2103.82 148.312  Z
  " fill="#009af9" fill-rule="evenodd" fill-opacity="1"/>
<polyline clip-path="url(#clip752)" style="stroke:#000000; stroke-width:4; stroke-opacity:1; fill:none" points="
  2103.82,148.312 2103.82,1464 2122.97,1464 2122.97,148.312 2103.82,148.312 
  "/>
<path clip-path="url(#clip752)" d="
M2127.75 267.92 L2127.75 1464 L2146.9 1464 L2146.9 267.92 L2127.75 267.92 L2127.75 267.92  Z
  " fill="#009af9" fill-rule="evenodd" fill-opacity="1"/>
<polyline clip-path="url(#clip752)" style="stroke:#000000; stroke-width:4; stroke-opacity:1; fill:none" points="
  2127.75,267.92 2127.75,1464 2146.9,1464 2146.9,267.92 2127.75,267.92 
  "/>
<path clip-path="url(#clip752)" d="
M2151.69 148.312 L2151.69 1464 L2170.84 1464 L2170.84 148.312 L2151.69 148.312 L2151.69 148.312  Z
  " fill="#009af9" fill-rule="evenodd" fill-opacity="1"/>
<polyline clip-path="url(#clip752)" style="stroke:#000000; stroke-width:4; stroke-opacity:1; fill:none" points="
  2151.69,148.312 2151.69,1464 2170.84,1464 2170.84,148.312 2151.69,148.312 
  "/>
<path clip-path="url(#clip752)" d="
M2175.63 267.92 L2175.63 1464 L2194.78 1464 L2194.78 267.92 L2175.63 267.92 L2175.63 267.92  Z
  " fill="#009af9" fill-rule="evenodd" fill-opacity="1"/>
<polyline clip-path="url(#clip752)" style="stroke:#000000; stroke-width:4; stroke-opacity:1; fill:none" points="
  2175.63,267.92 2175.63,1464 2194.78,1464 2194.78,267.92 2175.63,267.92 
  "/>
<path clip-path="url(#clip752)" d="
M2199.56 267.92 L2199.56 1464 L2218.71 1464 L2218.71 267.92 L2199.56 267.92 L2199.56 267.92  Z
  " fill="#009af9" fill-rule="evenodd" fill-opacity="1"/>
<polyline clip-path="url(#clip752)" style="stroke:#000000; stroke-width:4; stroke-opacity:1; fill:none" points="
  2199.56,267.92 2199.56,1464 2218.71,1464 2218.71,267.92 2199.56,267.92 
  "/>
<path clip-path="url(#clip752)" d="
M2223.5 208.116 L2223.5 1464 L2242.65 1464 L2242.65 208.116 L2223.5 208.116 L2223.5 208.116  Z
  " fill="#009af9" fill-rule="evenodd" fill-opacity="1"/>
<polyline clip-path="url(#clip752)" style="stroke:#000000; stroke-width:4; stroke-opacity:1; fill:none" points="
  2223.5,208.116 2223.5,1464 2242.65,1464 2242.65,208.116 2223.5,208.116 
  "/>
<path clip-path="url(#clip752)" d="
M2247.44 148.312 L2247.44 1464 L2266.59 1464 L2266.59 148.312 L2247.44 148.312 L2247.44 148.312  Z
  " fill="#009af9" fill-rule="evenodd" fill-opacity="1"/>
<polyline clip-path="url(#clip752)" style="stroke:#000000; stroke-width:4; stroke-opacity:1; fill:none" points="
  2247.44,148.312 2247.44,1464 2266.59,1464 2266.59,148.312 2247.44,148.312 
  "/>
<path clip-path="url(#clip752)" d="
M2271.37 267.92 L2271.37 1464 L2290.52 1464 L2290.52 267.92 L2271.37 267.92 L2271.37 267.92  Z
  " fill="#009af9" fill-rule="evenodd" fill-opacity="1"/>
<polyline clip-path="url(#clip752)" style="stroke:#000000; stroke-width:4; stroke-opacity:1; fill:none" points="
  2271.37,267.92 2271.37,1464 2290.52,1464 2290.52,267.92 2271.37,267.92 
  "/>
<path clip-path="url(#clip752)" d="
M2295.31 208.116 L2295.31 1464 L2314.46 1464 L2314.46 208.116 L2295.31 208.116 L2295.31 208.116  Z
  " fill="#009af9" fill-rule="evenodd" fill-opacity="1"/>
<polyline clip-path="url(#clip752)" style="stroke:#000000; stroke-width:4; stroke-opacity:1; fill:none" points="
  2295.31,208.116 2295.31,1464 2314.46,1464 2314.46,208.116 2295.31,208.116 
  "/>
<path clip-path="url(#clip752)" d="
M2319.25 267.92 L2319.25 1464 L2338.39 1464 L2338.39 267.92 L2319.25 267.92 L2319.25 267.92  Z
  " fill="#009af9" fill-rule="evenodd" fill-opacity="1"/>
<polyline clip-path="url(#clip752)" style="stroke:#000000; stroke-width:4; stroke-opacity:1; fill:none" points="
  2319.25,267.92 2319.25,1464 2338.39,1464 2338.39,267.92 2319.25,267.92 
  "/>
<path clip-path="url(#clip752)" d="
M2343.18 267.92 L2343.18 1464 L2362.33 1464 L2362.33 267.92 L2343.18 267.92 L2343.18 267.92  Z
  " fill="#009af9" fill-rule="evenodd" fill-opacity="1"/>
<polyline clip-path="url(#clip752)" style="stroke:#000000; stroke-width:4; stroke-opacity:1; fill:none" points="
  2343.18,267.92 2343.18,1464 2362.33,1464 2362.33,267.92 2343.18,267.92 
  "/>
</svg>
