<?xml version="1.0" encoding="utf-8"?>
<svg xmlns="http://www.w3.org/2000/svg" xmlns:xlink="http://www.w3.org/1999/xlink" width="600" height="400" viewBox="0 0 2400 1600">
<defs>
  <clipPath id="clip780">
    <rect x="0" y="0" width="2400" height="1600"/>
  </clipPath>
</defs>
<path clip-path="url(#clip780)" d="
M0 1600 L2400 1600 L2400 0 L0 0  Z
  " fill="#ffffff" fill-rule="evenodd" fill-opacity="1"/>
<defs>
  <clipPath id="clip781">
    <rect x="480" y="0" width="1681" height="1600"/>
  </clipPath>
</defs>
<path clip-path="url(#clip780)" d="
M102.74 1505.26 L2352.76 1505.26 L2352.76 47.2441 L102.74 47.2441  Z
  " fill="#ffffff" fill-rule="evenodd" fill-opacity="1"/>
<defs>
  <clipPath id="clip782">
    <rect x="102" y="47" width="2251" height="1459"/>
  </clipPath>
</defs>
<polyline clip-path="url(#clip782)" style="stroke:#000000; stroke-width:2; stroke-opacity:0.1; fill:none" points="
  327.742,1505.26 327.742,47.2441 
  "/>
<polyline clip-path="url(#clip782)" style="stroke:#000000; stroke-width:2; stroke-opacity:0.1; fill:none" points="
  702.744,1505.26 702.744,47.2441 
  "/>
<polyline clip-path="url(#clip782)" style="stroke:#000000; stroke-width:2; stroke-opacity:0.1; fill:none" points="
  1077.75,1505.26 1077.75,47.2441 
  "/>
<polyline clip-path="url(#clip782)" style="stroke:#000000; stroke-width:2; stroke-opacity:0.1; fill:none" points="
  1452.75,1505.26 1452.75,47.2441 
  "/>
<polyline clip-path="url(#clip782)" style="stroke:#000000; stroke-width:2; stroke-opacity:0.1; fill:none" points="
  1827.75,1505.26 1827.75,47.2441 
  "/>
<polyline clip-path="url(#clip782)" style="stroke:#000000; stroke-width:2; stroke-opacity:0.1; fill:none" points="
  2202.75,1505.26 2202.75,47.2441 
  "/>
<polyline clip-path="url(#clip780)" style="stroke:#000000; stroke-width:4; stroke-opacity:1; fill:none" points="
  102.74,1505.26 2352.76,1505.26 
  "/>
<polyline clip-path="url(#clip780)" style="stroke:#000000; stroke-width:4; stroke-opacity:1; fill:none" points="
  327.742,1505.26 327.742,1487.76 
  "/>
<polyline clip-path="url(#clip780)" style="stroke:#000000; stroke-width:4; stroke-opacity:1; fill:none" points="
  702.744,1505.26 702.744,1487.76 
  "/>
<polyline clip-path="url(#clip780)" style="stroke:#000000; stroke-width:4; stroke-opacity:1; fill:none" points="
  1077.75,1505.26 1077.75,1487.76 
  "/>
<polyline clip-path="url(#clip780)" style="stroke:#000000; stroke-width:4; stroke-opacity:1; fill:none" points="
  1452.75,1505.26 1452.75,1487.76 
  "/>
<polyline clip-path="url(#clip780)" style="stroke:#000000; stroke-width:4; stroke-opacity:1; fill:none" points="
  1827.75,1505.26 1827.75,1487.76 
  "/>
<polyline clip-path="url(#clip780)" style="stroke:#000000; stroke-width:4; stroke-opacity:1; fill:none" points="
  2202.75,1505.26 2202.75,1487.76 
  "/>
<path clip-path="url(#clip780)" d="M 0 0 M318.02 1531.37 L336.376 1531.37 L336.376 1535.31 L322.302 1535.31 L322.302 1543.78 Q323.32 1543.43 324.339 1543.27 Q325.357 1543.08 326.376 1543.08 Q332.163 1543.08 335.543 1546.26 Q338.922 1549.43 338.922 1554.84 Q338.922 1560.42 335.45 1563.52 Q331.978 1566.6 325.658 1566.6 Q323.482 1566.6 321.214 1566.23 Q318.969 1565.86 316.561 1565.12 L316.561 1560.42 Q318.645 1561.56 320.867 1562.11 Q323.089 1562.67 325.566 1562.67 Q329.57 1562.67 331.908 1560.56 Q334.246 1558.46 334.246 1554.84 Q334.246 1551.23 331.908 1549.13 Q329.57 1547.02 325.566 1547.02 Q323.691 1547.02 321.816 1547.44 Q319.964 1547.85 318.02 1548.73 L318.02 1531.37 Z" fill="#000000" fill-rule="evenodd" fill-opacity="1" /><path clip-path="url(#clip780)" d="M 0 0 M677.432 1562 L685.071 1562 L685.071 1535.63 L676.761 1537.3 L676.761 1533.04 L685.025 1531.37 L689.7 1531.37 L689.7 1562 L697.339 1562 L697.339 1565.93 L677.432 1565.93 L677.432 1562 Z" fill="#000000" fill-rule="evenodd" fill-opacity="1" /><path clip-path="url(#clip780)" d="M 0 0 M716.784 1534.45 Q713.173 1534.45 711.344 1538.02 Q709.538 1541.56 709.538 1548.69 Q709.538 1555.79 711.344 1559.36 Q713.173 1562.9 716.784 1562.9 Q720.418 1562.9 722.223 1559.36 Q724.052 1555.79 724.052 1548.69 Q724.052 1541.56 722.223 1538.02 Q720.418 1534.45 716.784 1534.45 M716.784 1530.75 Q722.594 1530.75 725.649 1535.35 Q728.728 1539.94 728.728 1548.69 Q728.728 1557.41 725.649 1562.02 Q722.594 1566.6 716.784 1566.6 Q710.973 1566.6 707.895 1562.02 Q704.839 1557.41 704.839 1548.69 Q704.839 1539.94 707.895 1535.35 Q710.973 1530.75 716.784 1530.75 Z" fill="#000000" fill-rule="evenodd" fill-opacity="1" /><path clip-path="url(#clip780)" d="M 0 0 M1052.93 1562 L1060.57 1562 L1060.57 1535.63 L1052.26 1537.3 L1052.26 1533.04 L1060.52 1531.37 L1065.2 1531.37 L1065.2 1562 L1072.84 1562 L1072.84 1565.93 L1052.93 1565.93 L1052.93 1562 Z" fill="#000000" fill-rule="evenodd" fill-opacity="1" /><path clip-path="url(#clip780)" d="M 0 0 M1082.33 1531.37 L1100.69 1531.37 L1100.69 1535.31 L1086.61 1535.31 L1086.61 1543.78 Q1087.63 1543.43 1088.65 1543.27 Q1089.67 1543.08 1090.69 1543.08 Q1096.47 1543.08 1099.85 1546.26 Q1103.23 1549.43 1103.23 1554.84 Q1103.23 1560.42 1099.76 1563.52 Q1096.29 1566.6 1089.97 1566.6 Q1087.79 1566.6 1085.52 1566.23 Q1083.28 1565.86 1080.87 1565.12 L1080.87 1560.42 Q1082.96 1561.56 1085.18 1562.11 Q1087.4 1562.67 1089.88 1562.67 Q1093.88 1562.67 1096.22 1560.56 Q1098.56 1558.46 1098.56 1554.84 Q1098.56 1551.23 1096.22 1549.13 Q1093.88 1547.02 1089.88 1547.02 Q1088 1547.02 1086.13 1547.44 Q1084.27 1547.85 1082.33 1548.73 L1082.33 1531.37 Z" fill="#000000" fill-rule="evenodd" fill-opacity="1" /><path clip-path="url(#clip780)" d="M 0 0 M1431.52 1562 L1447.84 1562 L1447.84 1565.93 L1425.9 1565.93 L1425.9 1562 Q1428.56 1559.24 1433.14 1554.61 Q1437.75 1549.96 1438.93 1548.62 Q1441.18 1546.09 1442.06 1544.36 Q1442.96 1542.6 1442.96 1540.91 Q1442.96 1538.15 1441.01 1536.42 Q1439.09 1534.68 1435.99 1534.68 Q1433.79 1534.68 1431.34 1535.45 Q1428.91 1536.21 1426.13 1537.76 L1426.13 1533.04 Q1428.95 1531.9 1431.41 1531.33 Q1433.86 1530.75 1435.9 1530.75 Q1441.27 1530.75 1444.46 1533.43 Q1447.66 1536.12 1447.66 1540.61 Q1447.66 1542.74 1446.85 1544.66 Q1446.06 1546.56 1443.95 1549.15 Q1443.37 1549.82 1440.27 1553.04 Q1437.17 1556.23 1431.52 1562 Z" fill="#000000" fill-rule="evenodd" fill-opacity="1" /><path clip-path="url(#clip780)" d="M 0 0 M1467.66 1534.45 Q1464.05 1534.45 1462.22 1538.02 Q1460.41 1541.56 1460.41 1548.69 Q1460.41 1555.79 1462.22 1559.36 Q1464.05 1562.9 1467.66 1562.9 Q1471.29 1562.9 1473.1 1559.36 Q1474.93 1555.79 1474.93 1548.69 Q1474.93 1541.56 1473.1 1538.02 Q1471.29 1534.45 1467.66 1534.45 M1467.66 1530.75 Q1473.47 1530.75 1476.52 1535.35 Q1479.6 1539.94 1479.6 1548.69 Q1479.6 1557.41 1476.52 1562.02 Q1473.47 1566.6 1467.66 1566.6 Q1461.85 1566.6 1458.77 1562.02 Q1455.71 1557.41 1455.71 1548.69 Q1455.71 1539.94 1458.77 1535.35 Q1461.85 1530.75 1467.66 1530.75 Z" fill="#000000" fill-rule="evenodd" fill-opacity="1" /><path clip-path="url(#clip780)" d="M 0 0 M1807.02 1562 L1823.34 1562 L1823.34 1565.93 L1801.4 1565.93 L1801.4 1562 Q1804.06 1559.24 1808.64 1554.61 Q1813.25 1549.96 1814.43 1548.62 Q1816.68 1546.09 1817.56 1544.36 Q1818.46 1542.6 1818.46 1540.91 Q1818.46 1538.15 1816.51 1536.42 Q1814.59 1534.68 1811.49 1534.68 Q1809.29 1534.68 1806.84 1535.45 Q1804.41 1536.21 1801.63 1537.76 L1801.63 1533.04 Q1804.45 1531.9 1806.91 1531.33 Q1809.36 1530.75 1811.4 1530.75 Q1816.77 1530.75 1819.96 1533.43 Q1823.16 1536.12 1823.16 1540.61 Q1823.16 1542.74 1822.35 1544.66 Q1821.56 1546.56 1819.45 1549.15 Q1818.87 1549.82 1815.77 1553.04 Q1812.67 1556.23 1807.02 1562 Z" fill="#000000" fill-rule="evenodd" fill-opacity="1" /><path clip-path="url(#clip780)" d="M 0 0 M1833.2 1531.37 L1851.56 1531.37 L1851.56 1535.31 L1837.49 1535.31 L1837.49 1543.78 Q1838.5 1543.43 1839.52 1543.27 Q1840.54 1543.08 1841.56 1543.08 Q1847.35 1543.08 1850.73 1546.26 Q1854.11 1549.43 1854.11 1554.84 Q1854.11 1560.42 1850.63 1563.52 Q1847.16 1566.6 1840.84 1566.6 Q1838.67 1566.6 1836.4 1566.23 Q1834.15 1565.86 1831.75 1565.12 L1831.75 1560.42 Q1833.83 1561.56 1836.05 1562.11 Q1838.27 1562.67 1840.75 1562.67 Q1844.75 1562.67 1847.09 1560.56 Q1849.43 1558.46 1849.43 1554.84 Q1849.43 1551.23 1847.09 1549.13 Q1844.75 1547.02 1840.75 1547.02 Q1838.87 1547.02 1837 1547.44 Q1835.15 1547.85 1833.2 1548.73 L1833.2 1531.37 Z" fill="#000000" fill-rule="evenodd" fill-opacity="1" /><path clip-path="url(#clip780)" d="M 0 0 M2191.6 1547.3 Q2194.95 1548.02 2196.83 1550.28 Q2198.73 1552.55 2198.73 1555.89 Q2198.73 1561 2195.21 1563.8 Q2191.69 1566.6 2185.21 1566.6 Q2183.03 1566.6 2180.72 1566.16 Q2178.43 1565.75 2175.97 1564.89 L2175.97 1560.38 Q2177.92 1561.51 2180.23 1562.09 Q2182.55 1562.67 2185.07 1562.67 Q2189.47 1562.67 2191.76 1560.93 Q2194.07 1559.2 2194.07 1555.89 Q2194.07 1552.83 2191.92 1551.12 Q2189.79 1549.38 2185.97 1549.38 L2181.94 1549.38 L2181.94 1545.54 L2186.16 1545.54 Q2189.61 1545.54 2191.44 1544.17 Q2193.26 1542.78 2193.26 1540.19 Q2193.26 1537.53 2191.37 1536.12 Q2189.49 1534.68 2185.97 1534.68 Q2184.05 1534.68 2181.85 1535.1 Q2179.65 1535.52 2177.01 1536.39 L2177.01 1532.23 Q2179.68 1531.49 2181.99 1531.12 Q2184.33 1530.75 2186.39 1530.75 Q2191.71 1530.75 2194.82 1533.18 Q2197.92 1535.58 2197.92 1539.71 Q2197.92 1542.58 2196.27 1544.57 Q2194.63 1546.53 2191.6 1547.3 Z" fill="#000000" fill-rule="evenodd" fill-opacity="1" /><path clip-path="url(#clip780)" d="M 0 0 M2217.59 1534.45 Q2213.98 1534.45 2212.15 1538.02 Q2210.35 1541.56 2210.35 1548.69 Q2210.35 1555.79 2212.15 1559.36 Q2213.98 1562.9 2217.59 1562.9 Q2221.23 1562.9 2223.03 1559.36 Q2224.86 1555.79 2224.86 1548.69 Q2224.86 1541.56 2223.03 1538.02 Q2221.23 1534.45 2217.59 1534.45 M2217.59 1530.75 Q2223.4 1530.75 2226.46 1535.35 Q2229.54 1539.94 2229.54 1548.69 Q2229.54 1557.41 2226.46 1562.02 Q2223.4 1566.6 2217.59 1566.6 Q2211.78 1566.6 2208.7 1562.02 Q2205.65 1557.41 2205.65 1548.69 Q2205.65 1539.94 2208.7 1535.35 Q2211.78 1530.75 2217.59 1530.75 Z" fill="#000000" fill-rule="evenodd" fill-opacity="1" /><path clip-path="url(#clip780)" d="M 0 0 M1076.59 1607.89 L1076.59 1625.74 L1084.68 1625.74 Q1089.17 1625.74 1091.62 1623.42 Q1094.07 1621.1 1094.07 1616.8 Q1094.07 1612.53 1091.62 1610.21 Q1089.17 1607.89 1084.68 1607.89 L1076.59 1607.89 M1070.16 1602.6 L1084.68 1602.6 Q1092.67 1602.6 1096.74 1606.23 Q1100.85 1609.83 1100.85 1616.8 Q1100.85 1623.83 1096.74 1627.43 Q1092.67 1631.03 1084.68 1631.03 L1076.59 1631.03 L1076.59 1650.12 L1070.16 1650.12 L1070.16 1602.6 Z" fill="#000000" fill-rule="evenodd" fill-opacity="1" /><path clip-path="url(#clip780)" d="M 0 0 M1128.73 1619.95 Q1127.74 1619.38 1126.57 1619.12 Q1125.42 1618.84 1124.02 1618.84 Q1119.05 1618.84 1116.38 1622.08 Q1113.74 1625.3 1113.74 1631.35 L1113.74 1650.12 L1107.85 1650.12 L1107.85 1614.48 L1113.74 1614.48 L1113.74 1620.01 Q1115.58 1616.77 1118.54 1615.21 Q1121.5 1613.62 1125.74 1613.62 Q1126.34 1613.62 1127.07 1613.71 Q1127.81 1613.78 1128.7 1613.93 L1128.73 1619.95 Z" fill="#000000" fill-rule="evenodd" fill-opacity="1" /><path clip-path="url(#clip780)" d="M 0 0 M1147.25 1618.58 Q1142.54 1618.58 1139.81 1622.27 Q1137.07 1625.93 1137.07 1632.33 Q1137.07 1638.73 1139.77 1642.42 Q1142.51 1646.08 1147.25 1646.08 Q1151.93 1646.08 1154.67 1642.39 Q1157.41 1638.7 1157.41 1632.33 Q1157.41 1626 1154.67 1622.31 Q1151.93 1618.58 1147.25 1618.58 M1147.25 1613.62 Q1154.89 1613.62 1159.25 1618.58 Q1163.61 1623.55 1163.61 1632.33 Q1163.61 1641.08 1159.25 1646.08 Q1154.89 1651.05 1147.25 1651.05 Q1139.58 1651.05 1135.22 1646.08 Q1130.89 1641.08 1130.89 1632.33 Q1130.89 1623.55 1135.22 1618.58 Q1139.58 1613.62 1147.25 1613.62 Z" fill="#000000" fill-rule="evenodd" fill-opacity="1" /><path clip-path="url(#clip780)" d="M 0 0 M1198.98 1615.84 L1198.98 1621.32 Q1196.49 1619.95 1193.98 1619.28 Q1191.5 1618.58 1188.95 1618.58 Q1183.25 1618.58 1180.1 1622.21 Q1176.95 1625.81 1176.95 1632.33 Q1176.95 1638.86 1180.1 1642.48 Q1183.25 1646.08 1188.95 1646.08 Q1191.5 1646.08 1193.98 1645.41 Q1196.49 1644.71 1198.98 1643.34 L1198.98 1648.76 Q1196.52 1649.9 1193.88 1650.47 Q1191.27 1651.05 1188.31 1651.05 Q1180.26 1651.05 1175.52 1645.99 Q1170.77 1640.93 1170.77 1632.33 Q1170.77 1623.61 1175.55 1618.61 Q1180.36 1613.62 1188.69 1613.62 Q1191.4 1613.62 1193.98 1614.19 Q1196.56 1614.73 1198.98 1615.84 Z" fill="#000000" fill-rule="evenodd" fill-opacity="1" /><path clip-path="url(#clip780)" d="M 0 0 M1239.65 1630.84 L1239.65 1633.7 L1212.72 1633.7 Q1213.11 1639.75 1216.35 1642.93 Q1219.63 1646.08 1225.46 1646.08 Q1228.83 1646.08 1231.98 1645.25 Q1235.16 1644.43 1238.28 1642.77 L1238.28 1648.31 Q1235.13 1649.65 1231.82 1650.35 Q1228.51 1651.05 1225.11 1651.05 Q1216.58 1651.05 1211.58 1646.08 Q1206.61 1641.12 1206.61 1632.65 Q1206.61 1623.9 1211.32 1618.77 Q1216.07 1613.62 1224.09 1613.62 Q1231.28 1613.62 1235.45 1618.26 Q1239.65 1622.88 1239.65 1630.84 M1233.8 1629.12 Q1233.73 1624.31 1231.09 1621.45 Q1228.48 1618.58 1224.15 1618.58 Q1219.25 1618.58 1216.29 1621.35 Q1213.36 1624.12 1212.92 1629.15 L1233.8 1629.12 Z" fill="#000000" fill-rule="evenodd" fill-opacity="1" /><path clip-path="url(#clip780)" d="M 0 0 M1271.99 1615.53 L1271.99 1621.06 Q1269.51 1619.79 1266.83 1619.15 Q1264.16 1618.52 1261.3 1618.52 Q1256.93 1618.52 1254.74 1619.85 Q1252.57 1621.19 1252.57 1623.87 Q1252.57 1625.9 1254.13 1627.08 Q1255.69 1628.23 1260.4 1629.28 L1262.41 1629.72 Q1268.65 1631.06 1271.26 1633.51 Q1273.9 1635.93 1273.9 1640.29 Q1273.9 1645.25 1269.95 1648.15 Q1266.04 1651.05 1259.16 1651.05 Q1256.3 1651.05 1253.18 1650.47 Q1250.09 1649.93 1246.65 1648.82 L1246.65 1642.77 Q1249.9 1644.46 1253.05 1645.32 Q1256.2 1646.15 1259.29 1646.15 Q1263.43 1646.15 1265.66 1644.74 Q1267.88 1643.31 1267.88 1640.73 Q1267.88 1638.35 1266.26 1637.07 Q1264.67 1635.8 1259.23 1634.62 L1257.19 1634.15 Q1251.75 1633 1249.33 1630.64 Q1246.91 1628.26 1246.91 1624.12 Q1246.91 1619.09 1250.47 1616.35 Q1254.04 1613.62 1260.6 1613.62 Q1263.84 1613.62 1266.71 1614.09 Q1269.57 1614.57 1271.99 1615.53 Z" fill="#000000" fill-rule="evenodd" fill-opacity="1" /><path clip-path="url(#clip780)" d="M 0 0 M1305.95 1615.53 L1305.95 1621.06 Q1303.47 1619.79 1300.79 1619.15 Q1298.12 1618.52 1295.26 1618.52 Q1290.9 1618.52 1288.7 1619.85 Q1286.54 1621.19 1286.54 1623.87 Q1286.54 1625.9 1288.09 1627.08 Q1289.65 1628.23 1294.37 1629.28 L1296.37 1629.72 Q1302.61 1631.06 1305.22 1633.51 Q1307.86 1635.93 1307.86 1640.29 Q1307.86 1645.25 1303.91 1648.15 Q1300 1651.05 1293.12 1651.05 Q1290.26 1651.05 1287.14 1650.47 Q1284.05 1649.93 1280.62 1648.82 L1280.62 1642.77 Q1283.86 1644.46 1287.01 1645.32 Q1290.16 1646.15 1293.25 1646.15 Q1297.39 1646.15 1299.62 1644.74 Q1301.84 1643.31 1301.84 1640.73 Q1301.84 1638.35 1300.22 1637.07 Q1298.63 1635.8 1293.19 1634.62 L1291.15 1634.15 Q1285.71 1633 1283.29 1630.64 Q1280.87 1628.26 1280.87 1624.12 Q1280.87 1619.09 1284.43 1616.35 Q1288 1613.62 1294.56 1613.62 Q1297.8 1613.62 1300.67 1614.09 Q1303.53 1614.57 1305.95 1615.53 Z" fill="#000000" fill-rule="evenodd" fill-opacity="1" /><path clip-path="url(#clip780)" d="M 0 0 M1337.91 1614.48 L1343.76 1614.48 L1343.76 1650.12 L1337.91 1650.12 L1337.91 1614.48 M1337.91 1600.6 L1343.76 1600.6 L1343.76 1608.01 L1337.91 1608.01 L1337.91 1600.6 Z" fill="#000000" fill-rule="evenodd" fill-opacity="1" /><path clip-path="url(#clip780)" d="M 0 0 M1379.47 1619.89 L1379.47 1600.6 L1385.33 1600.6 L1385.33 1650.12 L1379.47 1650.12 L1379.47 1644.78 Q1377.63 1647.96 1374.8 1649.52 Q1371.99 1651.05 1368.05 1651.05 Q1361.59 1651.05 1357.51 1645.89 Q1353.47 1640.73 1353.47 1632.33 Q1353.47 1623.93 1357.51 1618.77 Q1361.59 1613.62 1368.05 1613.62 Q1371.99 1613.62 1374.8 1615.18 Q1377.63 1616.7 1379.47 1619.89 M1359.52 1632.33 Q1359.52 1638.79 1362.16 1642.48 Q1364.83 1646.15 1369.48 1646.15 Q1374.13 1646.15 1376.8 1642.48 Q1379.47 1638.79 1379.47 1632.33 Q1379.47 1625.87 1376.8 1622.21 Q1374.13 1618.52 1369.48 1618.52 Q1364.83 1618.52 1362.16 1622.21 Q1359.52 1625.87 1359.52 1632.33 Z" fill="#000000" fill-rule="evenodd" fill-opacity="1" /><polyline clip-path="url(#clip782)" style="stroke:#000000; stroke-width:2; stroke-opacity:0.1; fill:none" points="
  102.74,1464 2352.76,1464 
  "/>
<polyline clip-path="url(#clip782)" style="stroke:#000000; stroke-width:2; stroke-opacity:0.1; fill:none" points="
  102.74,1258.7 2352.76,1258.7 
  "/>
<polyline clip-path="url(#clip782)" style="stroke:#000000; stroke-width:2; stroke-opacity:0.1; fill:none" points="
  102.74,1053.4 2352.76,1053.4 
  "/>
<polyline clip-path="url(#clip782)" style="stroke:#000000; stroke-width:2; stroke-opacity:0.1; fill:none" points="
  102.74,848.106 2352.76,848.106 
  "/>
<polyline clip-path="url(#clip782)" style="stroke:#000000; stroke-width:2; stroke-opacity:0.1; fill:none" points="
  102.74,642.809 2352.76,642.809 
  "/>
<polyline clip-path="url(#clip782)" style="stroke:#000000; stroke-width:2; stroke-opacity:0.1; fill:none" points="
  102.74,437.513 2352.76,437.513 
  "/>
<polyline clip-path="url(#clip782)" style="stroke:#000000; stroke-width:2; stroke-opacity:0.1; fill:none" points="
  102.74,232.216 2352.76,232.216 
  "/>
<polyline clip-path="url(#clip780)" style="stroke:#000000; stroke-width:4; stroke-opacity:1; fill:none" points="
  102.74,1505.26 102.74,47.2441 
  "/>
<polyline clip-path="url(#clip780)" style="stroke:#000000; stroke-width:4; stroke-opacity:1; fill:none" points="
  102.74,1464 129.74,1464 
  "/>
<polyline clip-path="url(#clip780)" style="stroke:#000000; stroke-width:4; stroke-opacity:1; fill:none" points="
  102.74,1258.7 129.74,1258.7 
  "/>
<polyline clip-path="url(#clip780)" style="stroke:#000000; stroke-width:4; stroke-opacity:1; fill:none" points="
  102.74,1053.4 129.74,1053.4 
  "/>
<polyline clip-path="url(#clip780)" style="stroke:#000000; stroke-width:4; stroke-opacity:1; fill:none" points="
  102.74,848.106 129.74,848.106 
  "/>
<polyline clip-path="url(#clip780)" style="stroke:#000000; stroke-width:4; stroke-opacity:1; fill:none" points="
  102.74,642.809 129.74,642.809 
  "/>
<polyline clip-path="url(#clip780)" style="stroke:#000000; stroke-width:4; stroke-opacity:1; fill:none" points="
  102.74,437.513 129.74,437.513 
  "/>
<polyline clip-path="url(#clip780)" style="stroke:#000000; stroke-width:4; stroke-opacity:1; fill:none" points="
  102.74,232.216 129.74,232.216 
  "/>
<path clip-path="url(#clip780)" d="M 0 0 M54.7958 1449.79 Q51.1847 1449.79 49.356 1453.36 Q47.5504 1456.9 47.5504 1464.03 Q47.5504 1471.14 49.356 1474.7 Q51.1847 1478.24 54.7958 1478.24 Q58.43 1478.24 60.2356 1474.7 Q62.0643 1471.14 62.0643 1464.03 Q62.0643 1456.9 60.2356 1453.36 Q58.43 1449.79 54.7958 1449.79 M54.7958 1446.09 Q60.6059 1446.09 63.6615 1450.7 Q66.7402 1455.28 66.7402 1464.03 Q66.7402 1472.76 63.6615 1477.36 Q60.6059 1481.95 54.7958 1481.95 Q48.9856 1481.95 45.9069 1477.36 Q42.8514 1472.76 42.8514 1464.03 Q42.8514 1455.28 45.9069 1450.7 Q48.9856 1446.09 54.7958 1446.09 Z" fill="#000000" fill-rule="evenodd" fill-opacity="1" /><path clip-path="url(#clip780)" d="M 0 0 M15.4441 1272.04 L23.083 1272.04 L23.083 1245.68 L14.7728 1247.34 L14.7728 1243.09 L23.0367 1241.42 L27.7126 1241.42 L27.7126 1272.04 L35.3514 1272.04 L35.3514 1275.98 L15.4441 1275.98 L15.4441 1272.04 Z" fill="#000000" fill-rule="evenodd" fill-opacity="1" /><path clip-path="url(#clip780)" d="M 0 0 M54.7958 1244.5 Q51.1847 1244.5 49.356 1248.06 Q47.5504 1251.6 47.5504 1258.73 Q47.5504 1265.84 49.356 1269.4 Q51.1847 1272.95 54.7958 1272.95 Q58.43 1272.95 60.2356 1269.4 Q62.0643 1265.84 62.0643 1258.73 Q62.0643 1251.6 60.2356 1248.06 Q58.43 1244.5 54.7958 1244.5 M54.7958 1240.79 Q60.6059 1240.79 63.6615 1245.4 Q66.7402 1249.98 66.7402 1258.73 Q66.7402 1267.46 63.6615 1272.07 Q60.6059 1276.65 54.7958 1276.65 Q48.9856 1276.65 45.9069 1272.07 Q42.8514 1267.46 42.8514 1258.73 Q42.8514 1249.98 45.9069 1245.4 Q48.9856 1240.79 54.7958 1240.79 Z" fill="#000000" fill-rule="evenodd" fill-opacity="1" /><path clip-path="url(#clip780)" d="M 0 0 M18.6617 1066.75 L34.9811 1066.75 L34.9811 1070.68 L13.0367 1070.68 L13.0367 1066.75 Q15.6988 1063.99 20.2821 1059.36 Q24.8885 1054.71 26.0691 1053.37 Q28.3144 1050.84 29.1941 1049.11 Q30.0968 1047.35 30.0968 1045.66 Q30.0968 1042.9 28.1524 1041.17 Q26.2311 1039.43 23.1293 1039.43 Q20.9302 1039.43 18.4765 1040.2 Q16.046 1040.96 13.2682 1042.51 L13.2682 1037.79 Q16.0923 1036.65 18.546 1036.08 Q20.9997 1035.5 23.0367 1035.5 Q28.407 1035.5 31.6015 1038.18 Q34.7959 1040.87 34.7959 1045.36 Q34.7959 1047.49 33.9857 1049.41 Q33.1987 1051.31 31.0922 1053.9 Q30.5135 1054.57 27.4117 1057.79 Q24.3098 1060.98 18.6617 1066.75 Z" fill="#000000" fill-rule="evenodd" fill-opacity="1" /><path clip-path="url(#clip780)" d="M 0 0 M54.7958 1039.2 Q51.1847 1039.2 49.356 1042.77 Q47.5504 1046.31 47.5504 1053.44 Q47.5504 1060.54 49.356 1064.11 Q51.1847 1067.65 54.7958 1067.65 Q58.43 1067.65 60.2356 1064.11 Q62.0643 1060.54 62.0643 1053.44 Q62.0643 1046.31 60.2356 1042.77 Q58.43 1039.2 54.7958 1039.2 M54.7958 1035.5 Q60.6059 1035.5 63.6615 1040.1 Q66.7402 1044.69 66.7402 1053.44 Q66.7402 1062.16 63.6615 1066.77 Q60.6059 1071.35 54.7958 1071.35 Q48.9856 1071.35 45.9069 1066.77 Q42.8514 1062.16 42.8514 1053.44 Q42.8514 1044.69 45.9069 1040.1 Q48.9856 1035.5 54.7958 1035.5 Z" fill="#000000" fill-rule="evenodd" fill-opacity="1" /><path clip-path="url(#clip780)" d="M 0 0 M28.8005 846.752 Q32.157 847.469 34.032 849.738 Q35.9301 852.006 35.9301 855.34 Q35.9301 860.455 32.4116 863.256 Q28.8931 866.057 22.4117 866.057 Q20.2358 866.057 17.921 865.617 Q15.6293 865.201 13.1756 864.344 L13.1756 859.83 Q15.1201 860.964 17.4349 861.543 Q19.7497 862.122 22.2728 862.122 Q26.6709 862.122 28.9626 860.386 Q31.2774 858.65 31.2774 855.34 Q31.2774 852.284 29.1246 850.571 Q26.995 848.835 23.1756 848.835 L19.1478 848.835 L19.1478 844.992 L23.3608 844.992 Q26.8098 844.992 28.6385 843.627 Q30.4672 842.238 30.4672 839.645 Q30.4672 836.983 28.5691 835.571 Q26.6941 834.136 23.1756 834.136 Q21.2543 834.136 19.0552 834.553 Q16.8562 834.969 14.2173 835.849 L14.2173 831.682 Q16.8793 830.941 19.1941 830.571 Q21.5321 830.201 23.5922 830.201 Q28.9163 830.201 32.0181 832.631 Q35.12 835.039 35.12 839.159 Q35.12 842.029 33.4764 844.02 Q31.8329 845.988 28.8005 846.752 Z" fill="#000000" fill-rule="evenodd" fill-opacity="1" /><path clip-path="url(#clip780)" d="M 0 0 M54.7958 833.904 Q51.1847 833.904 49.356 837.469 Q47.5504 841.011 47.5504 848.14 Q47.5504 855.247 49.356 858.812 Q51.1847 862.353 54.7958 862.353 Q58.43 862.353 60.2356 858.812 Q62.0643 855.247 62.0643 848.14 Q62.0643 841.011 60.2356 837.469 Q58.43 833.904 54.7958 833.904 M54.7958 830.201 Q60.6059 830.201 63.6615 834.807 Q66.7402 839.391 66.7402 848.14 Q66.7402 856.867 63.6615 861.474 Q60.6059 866.057 54.7958 866.057 Q48.9856 866.057 45.9069 861.474 Q42.8514 856.867 42.8514 848.14 Q42.8514 839.391 45.9069 834.807 Q48.9856 830.201 54.7958 830.201 Z" fill="#000000" fill-rule="evenodd" fill-opacity="1" /><path clip-path="url(#clip780)" d="M 0 0 M27.4811 629.603 L15.6756 648.052 L27.4811 648.052 L27.4811 629.603 M26.2543 625.529 L32.1339 625.529 L32.1339 648.052 L37.0644 648.052 L37.0644 651.941 L32.1339 651.941 L32.1339 660.089 L27.4811 660.089 L27.4811 651.941 L11.8793 651.941 L11.8793 647.427 L26.2543 625.529 Z" fill="#000000" fill-rule="evenodd" fill-opacity="1" /><path clip-path="url(#clip780)" d="M 0 0 M54.7958 628.608 Q51.1847 628.608 49.356 632.173 Q47.5504 635.714 47.5504 642.844 Q47.5504 649.95 49.356 653.515 Q51.1847 657.057 54.7958 657.057 Q58.43 657.057 60.2356 653.515 Q62.0643 649.95 62.0643 642.844 Q62.0643 635.714 60.2356 632.173 Q58.43 628.608 54.7958 628.608 M54.7958 624.904 Q60.6059 624.904 63.6615 629.511 Q66.7402 634.094 66.7402 642.844 Q66.7402 651.571 63.6615 656.177 Q60.6059 660.761 54.7958 660.761 Q48.9856 660.761 45.9069 656.177 Q42.8514 651.571 42.8514 642.844 Q42.8514 634.094 45.9069 629.511 Q48.9856 624.904 54.7958 624.904 Z" fill="#000000" fill-rule="evenodd" fill-opacity="1" /><path clip-path="url(#clip780)" d="M 0 0 M14.6803 420.233 L33.0366 420.233 L33.0366 424.168 L18.9626 424.168 L18.9626 432.64 Q19.9811 432.293 20.9997 432.131 Q22.0182 431.946 23.0367 431.946 Q28.8237 431.946 32.2033 435.117 Q35.5829 438.288 35.5829 443.705 Q35.5829 449.284 32.1107 452.385 Q28.6385 455.464 22.3191 455.464 Q20.1432 455.464 17.8747 455.094 Q15.6293 454.723 13.2219 453.983 L13.2219 449.284 Q15.3052 450.418 17.5275 450.973 Q19.7497 451.529 22.2265 451.529 Q26.2311 451.529 28.5691 449.422 Q30.907 447.316 30.907 443.705 Q30.907 440.094 28.5691 437.987 Q26.2311 435.881 22.2265 435.881 Q20.3515 435.881 18.4765 436.297 Q16.6247 436.714 14.6803 437.594 L14.6803 420.233 Z" fill="#000000" fill-rule="evenodd" fill-opacity="1" /><path clip-path="url(#clip780)" d="M 0 0 M54.7958 423.311 Q51.1847 423.311 49.356 426.876 Q47.5504 430.418 47.5504 437.547 Q47.5504 444.654 49.356 448.219 Q51.1847 451.76 54.7958 451.76 Q58.43 451.76 60.2356 448.219 Q62.0643 444.654 62.0643 437.547 Q62.0643 430.418 60.2356 426.876 Q58.43 423.311 54.7958 423.311 M54.7958 419.608 Q60.6059 419.608 63.6615 424.214 Q66.7402 428.798 66.7402 437.547 Q66.7402 446.274 63.6615 450.881 Q60.6059 455.464 54.7958 455.464 Q48.9856 455.464 45.9069 450.881 Q42.8514 446.274 42.8514 437.547 Q42.8514 428.798 45.9069 424.214 Q48.9856 419.608 54.7958 419.608 Z" fill="#000000" fill-rule="evenodd" fill-opacity="1" /><path clip-path="url(#clip780)" d="M 0 0 M25.2126 230.353 Q22.0645 230.353 20.2126 232.506 Q18.3839 234.658 18.3839 238.408 Q18.3839 242.135 20.2126 244.311 Q22.0645 246.464 25.2126 246.464 Q28.3607 246.464 30.1894 244.311 Q32.0413 242.135 32.0413 238.408 Q32.0413 234.658 30.1894 232.506 Q28.3607 230.353 25.2126 230.353 M34.495 215.7 L34.495 219.959 Q32.7357 219.126 30.9302 218.686 Q29.1478 218.246 27.3885 218.246 Q22.7589 218.246 20.3052 221.371 Q17.8747 224.496 17.5275 230.816 Q18.8932 228.802 20.9534 227.737 Q23.0135 226.649 25.4904 226.649 Q30.6987 226.649 33.7079 229.82 Q36.7403 232.969 36.7403 238.408 Q36.7403 243.732 33.5922 246.95 Q30.4441 250.168 25.2126 250.168 Q19.2173 250.168 16.046 245.584 Q12.8747 240.978 12.8747 232.251 Q12.8747 224.057 16.7636 219.195 Q20.6524 214.311 27.2033 214.311 Q28.9626 214.311 30.745 214.658 Q32.5505 215.006 34.495 215.7 Z" fill="#000000" fill-rule="evenodd" fill-opacity="1" /><path clip-path="url(#clip780)" d="M 0 0 M54.7958 218.015 Q51.1847 218.015 49.356 221.58 Q47.5504 225.121 47.5504 232.251 Q47.5504 239.357 49.356 242.922 Q51.1847 246.464 54.7958 246.464 Q58.43 246.464 60.2356 242.922 Q62.0643 239.357 62.0643 232.251 Q62.0643 225.121 60.2356 221.58 Q58.43 218.015 54.7958 218.015 M54.7958 214.311 Q60.6059 214.311 63.6615 218.918 Q66.7402 223.501 66.7402 232.251 Q66.7402 240.978 63.6615 245.584 Q60.6059 250.168 54.7958 250.168 Q48.9856 250.168 45.9069 245.584 Q42.8514 240.978 42.8514 232.251 Q42.8514 223.501 45.9069 218.918 Q48.9856 214.311 54.7958 214.311 Z" fill="#000000" fill-rule="evenodd" fill-opacity="1" /><path clip-path="url(#clip780)" d="M 0 0 M-85.8967 949.797 L-85.8967 943.304 L-45.7291 933.31 L-85.8967 923.348 L-85.8967 916.122 L-45.7291 906.128 L-85.8967 896.166 L-85.8967 889.641 L-38.3767 901.577 L-38.3767 909.661 L-79.6264 919.687 L-38.3767 929.809 L-38.3767 937.893 L-85.8967 949.797 Z" fill="#000000" fill-rule="evenodd" fill-opacity="1" /><path clip-path="url(#clip780)" d="M 0 0 M-69.9187 871.372 Q-69.9187 876.082 -66.2266 878.819 Q-62.5663 881.557 -56.1688 881.557 Q-49.7713 881.557 -46.0792 878.851 Q-42.4189 876.114 -42.4189 871.372 Q-42.4189 866.693 -46.111 863.955 Q-49.8031 861.218 -56.1688 861.218 Q-62.5027 861.218 -66.1948 863.955 Q-69.9187 866.693 -69.9187 871.372 M-74.884 871.372 Q-74.884 863.733 -69.9187 859.372 Q-64.9535 855.012 -56.1688 855.012 Q-47.416 855.012 -42.4189 859.372 Q-37.4536 863.733 -37.4536 871.372 Q-37.4536 879.042 -42.4189 883.403 Q-47.416 887.731 -56.1688 887.731 Q-64.9535 887.731 -69.9187 883.403 Q-74.884 879.042 -74.884 871.372 Z" fill="#000000" fill-rule="evenodd" fill-opacity="1" /><path clip-path="url(#clip780)" d="M 0 0 M-68.5501 824.647 Q-69.123 825.634 -69.3777 826.812 Q-69.6641 827.957 -69.6641 829.358 Q-69.6641 834.323 -66.4176 836.997 Q-63.2029 839.638 -57.1555 839.638 L-38.3767 839.638 L-38.3767 845.527 L-74.0246 845.527 L-74.0246 839.638 L-68.4865 839.638 Q-71.733 837.792 -73.2926 834.832 Q-74.884 831.872 -74.884 827.639 Q-74.884 827.034 -74.7885 826.302 Q-74.7248 825.57 -74.5657 824.679 L-68.5501 824.647 Z" fill="#000000" fill-rule="evenodd" fill-opacity="1" /><path clip-path="url(#clip780)" d="M 0 0 M-87.9019 818.727 L-87.9019 812.839 L-58.6514 812.839 L-74.0246 795.365 L-74.0246 787.885 L-57.3465 806.791 L-38.3767 787.09 L-38.3767 794.728 L-55.7869 812.839 L-38.3767 812.839 L-38.3767 818.727 L-87.9019 818.727 Z" fill="#000000" fill-rule="evenodd" fill-opacity="1" /><path clip-path="url(#clip780)" d="M 0 0 M-85.8967 760.513 L-85.8967 754.052 L-57.0282 754.052 Q-49.3893 754.052 -46.0155 751.282 Q-42.6735 748.513 -42.6735 742.307 Q-42.6735 736.132 -46.0155 733.363 Q-49.3893 730.594 -57.0282 730.594 L-85.8967 730.594 L-85.8967 724.133 L-56.2325 724.133 Q-46.9385 724.133 -42.1961 728.748 Q-37.4536 733.331 -37.4536 742.307 Q-37.4536 751.314 -42.1961 755.929 Q-46.9385 760.513 -56.2325 760.513 L-85.8967 760.513 Z" fill="#000000" fill-rule="evenodd" fill-opacity="1" /><path clip-path="url(#clip780)" d="M 0 0 M-59.8927 682.692 L-38.3767 682.692 L-38.3767 688.548 L-59.7018 688.548 Q-64.7625 688.548 -67.277 690.522 Q-69.7914 692.495 -69.7914 696.442 Q-69.7914 701.184 -66.7677 703.922 Q-63.744 706.659 -58.5241 706.659 L-38.3767 706.659 L-38.3767 712.547 L-74.0246 712.547 L-74.0246 706.659 L-68.4865 706.659 Q-71.7011 704.558 -73.2926 701.725 Q-74.884 698.861 -74.884 695.137 Q-74.884 688.994 -71.0646 685.843 Q-67.277 682.692 -59.8927 682.692 Z" fill="#000000" fill-rule="evenodd" fill-opacity="1" /><path clip-path="url(#clip780)" d="M 0 0 M-74.0246 671.011 L-74.0246 665.154 L-38.3767 665.154 L-38.3767 671.011 L-74.0246 671.011 M-87.9019 671.011 L-87.9019 665.154 L-80.4858 665.154 L-80.4858 671.011 L-87.9019 671.011 Z" fill="#000000" fill-rule="evenodd" fill-opacity="1" /><path clip-path="url(#clip780)" d="M 0 0 M-84.1461 647.108 L-74.0246 647.108 L-74.0246 635.045 L-69.4731 635.045 L-69.4731 647.108 L-50.1214 647.108 Q-45.7609 647.108 -44.5196 645.93 Q-43.2783 644.721 -43.2783 641.06 L-43.2783 635.045 L-38.3767 635.045 L-38.3767 641.06 Q-38.3767 647.84 -40.8911 650.418 Q-43.4374 652.996 -50.1214 652.996 L-69.4731 652.996 L-69.4731 657.293 L-74.0246 657.293 L-74.0246 652.996 L-84.1461 652.996 L-84.1461 647.108 Z" fill="#000000" fill-rule="evenodd" fill-opacity="1" /><path clip-path="url(#clip780)" d="M 0 0 M-72.9743 604.617 L-67.4361 604.617 Q-68.7093 607.099 -69.3458 609.773 Q-69.9824 612.446 -69.9824 615.311 Q-69.9824 619.671 -68.6456 621.868 Q-67.3088 624.032 -64.6352 624.032 Q-62.5982 624.032 -61.4205 622.472 Q-60.2747 620.913 -59.2243 616.202 L-58.7787 614.197 Q-57.442 607.959 -54.9912 605.349 Q-52.5722 602.707 -48.2117 602.707 Q-43.2464 602.707 -40.35 606.654 Q-37.4536 610.569 -37.4536 617.444 Q-37.4536 620.308 -38.0265 623.427 Q-38.5676 626.515 -39.6816 629.952 L-45.7291 629.952 Q-44.0421 626.706 -43.1828 623.555 Q-42.3552 620.404 -42.3552 617.316 Q-42.3552 613.178 -43.7557 610.95 Q-45.188 608.722 -47.7661 608.722 Q-50.1532 608.722 -51.4264 610.346 Q-52.6995 611.937 -53.8772 617.38 L-54.3546 619.417 Q-55.5004 624.86 -57.8557 627.279 Q-60.2429 629.697 -64.3806 629.697 Q-69.4095 629.697 -72.1467 626.133 Q-74.884 622.568 -74.884 616.011 Q-74.884 612.765 -74.4066 609.9 Q-73.9291 607.036 -72.9743 604.617 Z" fill="#000000" fill-rule="evenodd" fill-opacity="1" /><path clip-path="url(#clip782)" d="
M72.7399 88.5087 L72.7399 1464 L132.74 1464 L132.74 88.5087 L72.7399 88.5087 L72.7399 88.5087  Z
  " fill="#009af9" fill-rule="evenodd" fill-opacity="1"/>
<polyline clip-path="url(#clip782)" style="stroke:#000000; stroke-width:4; stroke-opacity:1; fill:none" points="
  72.7399,88.5087 72.7399,1464 132.74,1464 132.74,88.5087 72.7399,88.5087 
  "/>
<path clip-path="url(#clip782)" d="
M147.74 109.038 L147.74 1464 L207.741 1464 L207.741 109.038 L147.74 109.038 L147.74 109.038  Z
  " fill="#009af9" fill-rule="evenodd" fill-opacity="1"/>
<polyline clip-path="url(#clip782)" style="stroke:#000000; stroke-width:4; stroke-opacity:1; fill:none" points="
  147.74,109.038 147.74,1464 207.741,1464 207.741,109.038 147.74,109.038 
  "/>
<path clip-path="url(#clip782)" d="
M222.741 150.098 L222.741 1464 L282.741 1464 L282.741 150.098 L222.741 150.098 L222.741 150.098  Z
  " fill="#009af9" fill-rule="evenodd" fill-opacity="1"/>
<polyline clip-path="url(#clip782)" style="stroke:#000000; stroke-width:4; stroke-opacity:1; fill:none" points="
  222.741,150.098 222.741,1464 282.741,1464 282.741,150.098 222.741,150.098 
  "/>
<path clip-path="url(#clip782)" d="
M297.742 109.038 L297.742 1464 L357.742 1464 L357.742 109.038 L297.742 109.038 L297.742 109.038  Z
  " fill="#009af9" fill-rule="evenodd" fill-opacity="1"/>
<polyline clip-path="url(#clip782)" style="stroke:#000000; stroke-width:4; stroke-opacity:1; fill:none" points="
  297.742,109.038 297.742,1464 357.742,1464 357.742,109.038 297.742,109.038 
  "/>
<path clip-path="url(#clip782)" d="
M372.742 129.568 L372.742 1464 L432.742 1464 L432.742 129.568 L372.742 129.568 L372.742 129.568  Z
  " fill="#009af9" fill-rule="evenodd" fill-opacity="1"/>
<polyline clip-path="url(#clip782)" style="stroke:#000000; stroke-width:4; stroke-opacity:1; fill:none" points="
  372.742,129.568 372.742,1464 432.742,1464 432.742,129.568 372.742,129.568 
  "/>
<path clip-path="url(#clip782)" d="
M447.743 150.098 L447.743 1464 L507.743 1464 L507.743 150.098 L447.743 150.098 L447.743 150.098  Z
  " fill="#009af9" fill-rule="evenodd" fill-opacity="1"/>
<polyline clip-path="url(#clip782)" style="stroke:#000000; stroke-width:4; stroke-opacity:1; fill:none" points="
  447.743,150.098 447.743,1464 507.743,1464 507.743,150.098 447.743,150.098 
  "/>
<path clip-path="url(#clip782)" d="
M522.743 150.098 L522.743 1464 L582.744 1464 L582.744 150.098 L522.743 150.098 L522.743 150.098  Z
  " fill="#009af9" fill-rule="evenodd" fill-opacity="1"/>
<polyline clip-path="url(#clip782)" style="stroke:#000000; stroke-width:4; stroke-opacity:1; fill:none" points="
  522.743,150.098 522.743,1464 582.744,1464 582.744,150.098 522.743,150.098 
  "/>
<path clip-path="url(#clip782)" d="
M597.744 150.098 L597.744 1464 L657.744 1464 L657.744 150.098 L597.744 150.098 L597.744 150.098  Z
  " fill="#009af9" fill-rule="evenodd" fill-opacity="1"/>
<polyline clip-path="url(#clip782)" style="stroke:#000000; stroke-width:4; stroke-opacity:1; fill:none" points="
  597.744,150.098 597.744,1464 657.744,1464 657.744,150.098 597.744,150.098 
  "/>
<path clip-path="url(#clip782)" d="
M672.744 150.098 L672.744 1464 L732.745 1464 L732.745 150.098 L672.744 150.098 L672.744 150.098  Z
  " fill="#009af9" fill-rule="evenodd" fill-opacity="1"/>
<polyline clip-path="url(#clip782)" style="stroke:#000000; stroke-width:4; stroke-opacity:1; fill:none" points="
  672.744,150.098 672.744,1464 732.745,1464 732.745,150.098 672.744,150.098 
  "/>
<path clip-path="url(#clip782)" d="
M747.745 150.098 L747.745 1464 L807.745 1464 L807.745 150.098 L747.745 150.098 L747.745 150.098  Z
  " fill="#009af9" fill-rule="evenodd" fill-opacity="1"/>
<polyline clip-path="url(#clip782)" style="stroke:#000000; stroke-width:4; stroke-opacity:1; fill:none" points="
  747.745,150.098 747.745,1464 807.745,1464 807.745,150.098 747.745,150.098 
  "/>
<path clip-path="url(#clip782)" d="
M822.745 129.568 L822.745 1464 L882.746 1464 L882.746 129.568 L822.745 129.568 L822.745 129.568  Z
  " fill="#009af9" fill-rule="evenodd" fill-opacity="1"/>
<polyline clip-path="url(#clip782)" style="stroke:#000000; stroke-width:4; stroke-opacity:1; fill:none" points="
  822.745,129.568 822.745,1464 882.746,1464 882.746,129.568 822.745,129.568 
  "/>
<path clip-path="url(#clip782)" d="
M897.746 150.098 L897.746 1464 L957.746 1464 L957.746 150.098 L897.746 150.098 L897.746 150.098  Z
  " fill="#009af9" fill-rule="evenodd" fill-opacity="1"/>
<polyline clip-path="url(#clip782)" style="stroke:#000000; stroke-width:4; stroke-opacity:1; fill:none" points="
  897.746,150.098 897.746,1464 957.746,1464 957.746,150.098 897.746,150.098 
  "/>
<path clip-path="url(#clip782)" d="
M972.746 109.038 L972.746 1464 L1032.75 1464 L1032.75 109.038 L972.746 109.038 L972.746 109.038  Z
  " fill="#009af9" fill-rule="evenodd" fill-opacity="1"/>
<polyline clip-path="url(#clip782)" style="stroke:#000000; stroke-width:4; stroke-opacity:1; fill:none" points="
  972.746,109.038 972.746,1464 1032.75,1464 1032.75,109.038 972.746,109.038 
  "/>
<path clip-path="url(#clip782)" d="
M1047.75 150.098 L1047.75 1464 L1107.75 1464 L1107.75 150.098 L1047.75 150.098 L1047.75 150.098  Z
  " fill="#009af9" fill-rule="evenodd" fill-opacity="1"/>
<polyline clip-path="url(#clip782)" style="stroke:#000000; stroke-width:4; stroke-opacity:1; fill:none" points="
  1047.75,150.098 1047.75,1464 1107.75,1464 1107.75,150.098 1047.75,150.098 
  "/>
<path clip-path="url(#clip782)" d="
M1122.75 150.098 L1122.75 1464 L1182.75 1464 L1182.75 150.098 L1122.75 150.098 L1122.75 150.098  Z
  " fill="#009af9" fill-rule="evenodd" fill-opacity="1"/>
<polyline clip-path="url(#clip782)" style="stroke:#000000; stroke-width:4; stroke-opacity:1; fill:none" points="
  1122.75,150.098 1122.75,1464 1182.75,1464 1182.75,150.098 1122.75,150.098 
  "/>
<path clip-path="url(#clip782)" d="
M1197.75 129.568 L1197.75 1464 L1257.75 1464 L1257.75 129.568 L1197.75 129.568 L1197.75 129.568  Z
  " fill="#009af9" fill-rule="evenodd" fill-opacity="1"/>
<polyline clip-path="url(#clip782)" style="stroke:#000000; stroke-width:4; stroke-opacity:1; fill:none" points="
  1197.75,129.568 1197.75,1464 1257.75,1464 1257.75,129.568 1197.75,129.568 
  "/>
<path clip-path="url(#clip782)" d="
M1272.75 129.568 L1272.75 1464 L1332.75 1464 L1332.75 129.568 L1272.75 129.568 L1272.75 129.568  Z
  " fill="#009af9" fill-rule="evenodd" fill-opacity="1"/>
<polyline clip-path="url(#clip782)" style="stroke:#000000; stroke-width:4; stroke-opacity:1; fill:none" points="
  1272.75,129.568 1272.75,1464 1332.75,1464 1332.75,129.568 1272.75,129.568 
  "/>
<path clip-path="url(#clip782)" d="
M1347.75 129.568 L1347.75 1464 L1407.75 1464 L1407.75 129.568 L1347.75 129.568 L1347.75 129.568  Z
  " fill="#009af9" fill-rule="evenodd" fill-opacity="1"/>
<polyline clip-path="url(#clip782)" style="stroke:#000000; stroke-width:4; stroke-opacity:1; fill:none" points="
  1347.75,129.568 1347.75,1464 1407.75,1464 1407.75,129.568 1347.75,129.568 
  "/>
<path clip-path="url(#clip782)" d="
M1422.75 150.098 L1422.75 1464 L1482.75 1464 L1482.75 150.098 L1422.75 150.098 L1422.75 150.098  Z
  " fill="#009af9" fill-rule="evenodd" fill-opacity="1"/>
<polyline clip-path="url(#clip782)" style="stroke:#000000; stroke-width:4; stroke-opacity:1; fill:none" points="
  1422.75,150.098 1422.75,1464 1482.75,1464 1482.75,150.098 1422.75,150.098 
  "/>
<path clip-path="url(#clip782)" d="
M1497.75 150.098 L1497.75 1464 L1557.75 1464 L1557.75 150.098 L1497.75 150.098 L1497.75 150.098  Z
  " fill="#009af9" fill-rule="evenodd" fill-opacity="1"/>
<polyline clip-path="url(#clip782)" style="stroke:#000000; stroke-width:4; stroke-opacity:1; fill:none" points="
  1497.75,150.098 1497.75,1464 1557.75,1464 1557.75,150.098 1497.75,150.098 
  "/>
<path clip-path="url(#clip782)" d="
M1572.75 129.568 L1572.75 1464 L1632.75 1464 L1632.75 129.568 L1572.75 129.568 L1572.75 129.568  Z
  " fill="#009af9" fill-rule="evenodd" fill-opacity="1"/>
<polyline clip-path="url(#clip782)" style="stroke:#000000; stroke-width:4; stroke-opacity:1; fill:none" points="
  1572.75,129.568 1572.75,1464 1632.75,1464 1632.75,129.568 1572.75,129.568 
  "/>
<path clip-path="url(#clip782)" d="
M1647.75 150.098 L1647.75 1464 L1707.75 1464 L1707.75 150.098 L1647.75 150.098 L1647.75 150.098  Z
  " fill="#009af9" fill-rule="evenodd" fill-opacity="1"/>
<polyline clip-path="url(#clip782)" style="stroke:#000000; stroke-width:4; stroke-opacity:1; fill:none" points="
  1647.75,150.098 1647.75,1464 1707.75,1464 1707.75,150.098 1647.75,150.098 
  "/>
<path clip-path="url(#clip782)" d="
M1722.75 129.568 L1722.75 1464 L1782.75 1464 L1782.75 129.568 L1722.75 129.568 L1722.75 129.568  Z
  " fill="#009af9" fill-rule="evenodd" fill-opacity="1"/>
<polyline clip-path="url(#clip782)" style="stroke:#000000; stroke-width:4; stroke-opacity:1; fill:none" points="
  1722.75,129.568 1722.75,1464 1782.75,1464 1782.75,129.568 1722.75,129.568 
  "/>
<path clip-path="url(#clip782)" d="
M1797.75 150.098 L1797.75 1464 L1857.75 1464 L1857.75 150.098 L1797.75 150.098 L1797.75 150.098  Z
  " fill="#009af9" fill-rule="evenodd" fill-opacity="1"/>
<polyline clip-path="url(#clip782)" style="stroke:#000000; stroke-width:4; stroke-opacity:1; fill:none" points="
  1797.75,150.098 1797.75,1464 1857.75,1464 1857.75,150.098 1797.75,150.098 
  "/>
<path clip-path="url(#clip782)" d="
M1872.75 150.098 L1872.75 1464 L1932.75 1464 L1932.75 150.098 L1872.75 150.098 L1872.75 150.098  Z
  " fill="#009af9" fill-rule="evenodd" fill-opacity="1"/>
<polyline clip-path="url(#clip782)" style="stroke:#000000; stroke-width:4; stroke-opacity:1; fill:none" points="
  1872.75,150.098 1872.75,1464 1932.75,1464 1932.75,150.098 1872.75,150.098 
  "/>
<path clip-path="url(#clip782)" d="
M1947.75 150.098 L1947.75 1464 L2007.75 1464 L2007.75 150.098 L1947.75 150.098 L1947.75 150.098  Z
  " fill="#009af9" fill-rule="evenodd" fill-opacity="1"/>
<polyline clip-path="url(#clip782)" style="stroke:#000000; stroke-width:4; stroke-opacity:1; fill:none" points="
  1947.75,150.098 1947.75,1464 2007.75,1464 2007.75,150.098 1947.75,150.098 
  "/>
<path clip-path="url(#clip782)" d="
M2022.75 150.098 L2022.75 1464 L2082.75 1464 L2082.75 150.098 L2022.75 150.098 L2022.75 150.098  Z
  " fill="#009af9" fill-rule="evenodd" fill-opacity="1"/>
<polyline clip-path="url(#clip782)" style="stroke:#000000; stroke-width:4; stroke-opacity:1; fill:none" points="
  2022.75,150.098 2022.75,1464 2082.75,1464 2082.75,150.098 2022.75,150.098 
  "/>
<path clip-path="url(#clip782)" d="
M2097.75 150.098 L2097.75 1464 L2157.75 1464 L2157.75 150.098 L2097.75 150.098 L2097.75 150.098  Z
  " fill="#009af9" fill-rule="evenodd" fill-opacity="1"/>
<polyline clip-path="url(#clip782)" style="stroke:#000000; stroke-width:4; stroke-opacity:1; fill:none" points="
  2097.75,150.098 2097.75,1464 2157.75,1464 2157.75,150.098 2097.75,150.098 
  "/>
<path clip-path="url(#clip782)" d="
M2172.75 150.098 L2172.75 1464 L2232.76 1464 L2232.76 150.098 L2172.75 150.098 L2172.75 150.098  Z
  " fill="#009af9" fill-rule="evenodd" fill-opacity="1"/>
<polyline clip-path="url(#clip782)" style="stroke:#000000; stroke-width:4; stroke-opacity:1; fill:none" points="
  2172.75,150.098 2172.75,1464 2232.76,1464 2232.76,150.098 2172.75,150.098 
  "/>
<path clip-path="url(#clip782)" d="
M2247.76 150.098 L2247.76 1464 L2307.76 1464 L2307.76 150.098 L2247.76 150.098 L2247.76 150.098  Z
  " fill="#009af9" fill-rule="evenodd" fill-opacity="1"/>
<polyline clip-path="url(#clip782)" style="stroke:#000000; stroke-width:4; stroke-opacity:1; fill:none" points="
  2247.76,150.098 2247.76,1464 2307.76,1464 2307.76,150.098 2247.76,150.098 
  "/>
<path clip-path="url(#clip782)" d="
M2322.76 150.098 L2322.76 1464 L2382.76 1464 L2382.76 150.098 L2322.76 150.098 L2322.76 150.098  Z
  " fill="#009af9" fill-rule="evenodd" fill-opacity="1"/>
<polyline clip-path="url(#clip782)" style="stroke:#000000; stroke-width:4; stroke-opacity:1; fill:none" points="
  2322.76,150.098 2322.76,1464 2382.76,1464 2382.76,150.098 2322.76,150.098 
  "/>
</svg>
