<?xml version="1.0" encoding="utf-8"?>
<svg xmlns="http://www.w3.org/2000/svg" xmlns:xlink="http://www.w3.org/1999/xlink" width="600" height="400" viewBox="0 0 2400 1600">
<defs>
  <clipPath id="clip870">
    <rect x="0" y="0" width="2400" height="1600"/>
  </clipPath>
</defs>
<path clip-path="url(#clip870)" d="
M0 1600 L2400 1600 L2400 0 L0 0  Z
  " fill="#ffffff" fill-rule="evenodd" fill-opacity="1"/>
<defs>
  <clipPath id="clip871">
    <rect x="480" y="0" width="1681" height="1600"/>
  </clipPath>
</defs>
<path clip-path="url(#clip870)" d="
M102.74 1505.26 L2352.76 1505.26 L2352.76 47.2441 L102.74 47.2441  Z
  " fill="#ffffff" fill-rule="evenodd" fill-opacity="1"/>
<defs>
  <clipPath id="clip872">
    <rect x="102" y="47" width="2251" height="1459"/>
  </clipPath>
</defs>
<polyline clip-path="url(#clip872)" style="stroke:#000000; stroke-width:2; stroke-opacity:0.1; fill:none" points="
  317.518,1505.26 317.518,47.2441 
  "/>
<polyline clip-path="url(#clip872)" style="stroke:#000000; stroke-width:2; stroke-opacity:0.1; fill:none" points="
  545.076,1505.26 545.076,47.2441 
  "/>
<polyline clip-path="url(#clip872)" style="stroke:#000000; stroke-width:2; stroke-opacity:0.1; fill:none" points="
  772.633,1505.26 772.633,47.2441 
  "/>
<polyline clip-path="url(#clip872)" style="stroke:#000000; stroke-width:2; stroke-opacity:0.1; fill:none" points="
  1000.19,1505.26 1000.19,47.2441 
  "/>
<polyline clip-path="url(#clip872)" style="stroke:#000000; stroke-width:2; stroke-opacity:0.1; fill:none" points="
  1227.75,1505.26 1227.75,47.2441 
  "/>
<polyline clip-path="url(#clip872)" style="stroke:#000000; stroke-width:2; stroke-opacity:0.1; fill:none" points="
  1455.31,1505.26 1455.31,47.2441 
  "/>
<polyline clip-path="url(#clip872)" style="stroke:#000000; stroke-width:2; stroke-opacity:0.1; fill:none" points="
  1682.86,1505.26 1682.86,47.2441 
  "/>
<polyline clip-path="url(#clip872)" style="stroke:#000000; stroke-width:2; stroke-opacity:0.1; fill:none" points="
  1910.42,1505.26 1910.42,47.2441 
  "/>
<polyline clip-path="url(#clip872)" style="stroke:#000000; stroke-width:2; stroke-opacity:0.1; fill:none" points="
  2137.98,1505.26 2137.98,47.2441 
  "/>
<polyline clip-path="url(#clip870)" style="stroke:#000000; stroke-width:4; stroke-opacity:1; fill:none" points="
  102.74,1505.26 2352.76,1505.26 
  "/>
<polyline clip-path="url(#clip870)" style="stroke:#000000; stroke-width:4; stroke-opacity:1; fill:none" points="
  317.518,1505.26 317.518,1487.76 
  "/>
<polyline clip-path="url(#clip870)" style="stroke:#000000; stroke-width:4; stroke-opacity:1; fill:none" points="
  545.076,1505.26 545.076,1487.76 
  "/>
<polyline clip-path="url(#clip870)" style="stroke:#000000; stroke-width:4; stroke-opacity:1; fill:none" points="
  772.633,1505.26 772.633,1487.76 
  "/>
<polyline clip-path="url(#clip870)" style="stroke:#000000; stroke-width:4; stroke-opacity:1; fill:none" points="
  1000.19,1505.26 1000.19,1487.76 
  "/>
<polyline clip-path="url(#clip870)" style="stroke:#000000; stroke-width:4; stroke-opacity:1; fill:none" points="
  1227.75,1505.26 1227.75,1487.76 
  "/>
<polyline clip-path="url(#clip870)" style="stroke:#000000; stroke-width:4; stroke-opacity:1; fill:none" points="
  1455.31,1505.26 1455.31,1487.76 
  "/>
<polyline clip-path="url(#clip870)" style="stroke:#000000; stroke-width:4; stroke-opacity:1; fill:none" points="
  1682.86,1505.26 1682.86,1487.76 
  "/>
<polyline clip-path="url(#clip870)" style="stroke:#000000; stroke-width:4; stroke-opacity:1; fill:none" points="
  1910.42,1505.26 1910.42,1487.76 
  "/>
<polyline clip-path="url(#clip870)" style="stroke:#000000; stroke-width:4; stroke-opacity:1; fill:none" points="
  2137.98,1505.26 2137.98,1487.76 
  "/>
<path clip-path="url(#clip870)" d="M 0 0 M312.171 1562 L328.49 1562 L328.49 1565.93 L306.546 1565.93 L306.546 1562 Q309.208 1559.24 313.791 1554.61 Q318.398 1549.96 319.578 1548.62 Q321.824 1546.09 322.703 1544.36 Q323.606 1542.6 323.606 1540.91 Q323.606 1538.15 321.662 1536.42 Q319.74 1534.68 316.638 1534.68 Q314.439 1534.68 311.986 1535.45 Q309.555 1536.21 306.777 1537.76 L306.777 1533.04 Q309.601 1531.9 312.055 1531.33 Q314.509 1530.75 316.546 1530.75 Q321.916 1530.75 325.111 1533.43 Q328.305 1536.12 328.305 1540.61 Q328.305 1542.74 327.495 1544.66 Q326.708 1546.56 324.601 1549.15 Q324.023 1549.82 320.921 1553.04 Q317.819 1556.23 312.171 1562 Z" fill="#000000" fill-rule="evenodd" fill-opacity="1" /><path clip-path="url(#clip870)" d="M 0 0 M548.085 1535.45 L536.279 1553.89 L548.085 1553.89 L548.085 1535.45 M546.858 1531.37 L552.738 1531.37 L552.738 1553.89 L557.668 1553.89 L557.668 1557.78 L552.738 1557.78 L552.738 1565.93 L548.085 1565.93 L548.085 1557.78 L532.483 1557.78 L532.483 1553.27 L546.858 1531.37 Z" fill="#000000" fill-rule="evenodd" fill-opacity="1" /><path clip-path="url(#clip870)" d="M 0 0 M772.633 1549.52 Q769.3 1549.52 767.378 1551.3 Q765.48 1553.08 765.48 1556.21 Q765.48 1559.33 767.378 1561.12 Q769.3 1562.9 772.633 1562.9 Q775.966 1562.9 777.888 1561.12 Q779.809 1559.31 779.809 1556.21 Q779.809 1553.08 777.888 1551.3 Q775.989 1549.52 772.633 1549.52 M767.957 1547.53 Q764.948 1546.79 763.258 1544.73 Q761.591 1542.67 761.591 1539.71 Q761.591 1535.56 764.531 1533.15 Q767.494 1530.75 772.633 1530.75 Q777.795 1530.75 780.735 1533.15 Q783.675 1535.56 783.675 1539.71 Q783.675 1542.67 781.985 1544.73 Q780.318 1546.79 777.332 1547.53 Q780.712 1548.32 782.587 1550.61 Q784.485 1552.9 784.485 1556.21 Q784.485 1561.23 781.406 1563.92 Q778.351 1566.6 772.633 1566.6 Q766.915 1566.6 763.837 1563.92 Q760.781 1561.23 760.781 1556.21 Q760.781 1552.9 762.679 1550.61 Q764.578 1548.32 767.957 1547.53 M766.244 1540.14 Q766.244 1542.83 767.911 1544.33 Q769.601 1545.84 772.633 1545.84 Q775.642 1545.84 777.332 1544.33 Q779.045 1542.83 779.045 1540.14 Q779.045 1537.46 777.332 1535.96 Q775.642 1534.45 772.633 1534.45 Q769.601 1534.45 767.911 1535.96 Q766.244 1537.46 766.244 1540.14 Z" fill="#000000" fill-rule="evenodd" fill-opacity="1" /><path clip-path="url(#clip870)" d="M 0 0 M974.797 1562 L982.436 1562 L982.436 1535.63 L974.126 1537.3 L974.126 1533.04 L982.39 1531.37 L987.066 1531.37 L987.066 1562 L994.704 1562 L994.704 1565.93 L974.797 1565.93 L974.797 1562 Z" fill="#000000" fill-rule="evenodd" fill-opacity="1" /><path clip-path="url(#clip870)" d="M 0 0 M1014.73 1546.79 Q1011.58 1546.79 1009.73 1548.94 Q1007.9 1551.09 1007.9 1554.84 Q1007.9 1558.57 1009.73 1560.75 Q1011.58 1562.9 1014.73 1562.9 Q1017.88 1562.9 1019.7 1560.75 Q1021.56 1558.57 1021.56 1554.84 Q1021.56 1551.09 1019.7 1548.94 Q1017.88 1546.79 1014.73 1546.79 M1024.01 1532.14 L1024.01 1536.39 Q1022.25 1535.56 1020.45 1535.12 Q1018.66 1534.68 1016.9 1534.68 Q1012.27 1534.68 1009.82 1537.81 Q1007.39 1540.93 1007.04 1547.25 Q1008.41 1545.24 1010.47 1544.17 Q1012.53 1543.08 1015.01 1543.08 Q1020.21 1543.08 1023.22 1546.26 Q1026.26 1549.4 1026.26 1554.84 Q1026.26 1560.17 1023.11 1563.39 Q1019.96 1566.6 1014.73 1566.6 Q1008.73 1566.6 1005.56 1562.02 Q1002.39 1557.41 1002.39 1548.69 Q1002.39 1540.49 1006.28 1535.63 Q1010.17 1530.75 1016.72 1530.75 Q1018.48 1530.75 1020.26 1531.09 Q1022.07 1531.44 1024.01 1532.14 Z" fill="#000000" fill-rule="evenodd" fill-opacity="1" /><path clip-path="url(#clip870)" d="M 0 0 M1217.39 1547.3 Q1220.75 1548.02 1222.62 1550.28 Q1224.52 1552.55 1224.52 1555.89 Q1224.52 1561 1221 1563.8 Q1217.48 1566.6 1211 1566.6 Q1208.82 1566.6 1206.51 1566.16 Q1204.22 1565.75 1201.76 1564.89 L1201.76 1560.38 Q1203.71 1561.51 1206.02 1562.09 Q1208.34 1562.67 1210.86 1562.67 Q1215.26 1562.67 1217.55 1560.93 Q1219.87 1559.2 1219.87 1555.89 Q1219.87 1552.83 1217.71 1551.12 Q1215.58 1549.38 1211.76 1549.38 L1207.74 1549.38 L1207.74 1545.54 L1211.95 1545.54 Q1215.4 1545.54 1217.23 1544.17 Q1219.06 1542.78 1219.06 1540.19 Q1219.06 1537.53 1217.16 1536.12 Q1215.28 1534.68 1211.76 1534.68 Q1209.84 1534.68 1207.64 1535.1 Q1205.44 1535.52 1202.81 1536.39 L1202.81 1532.23 Q1205.47 1531.49 1207.78 1531.12 Q1210.12 1530.75 1212.18 1530.75 Q1217.51 1530.75 1220.61 1533.18 Q1223.71 1535.58 1223.71 1539.71 Q1223.71 1542.58 1222.07 1544.57 Q1220.42 1546.53 1217.39 1547.3 Z" fill="#000000" fill-rule="evenodd" fill-opacity="1" /><path clip-path="url(#clip870)" d="M 0 0 M1237.41 1562 L1253.73 1562 L1253.73 1565.93 L1231.79 1565.93 L1231.79 1562 Q1234.45 1559.24 1239.03 1554.61 Q1243.64 1549.96 1244.82 1548.62 Q1247.07 1546.09 1247.94 1544.36 Q1248.85 1542.6 1248.85 1540.91 Q1248.85 1538.15 1246.9 1536.42 Q1244.98 1534.68 1241.88 1534.68 Q1239.68 1534.68 1237.23 1535.45 Q1234.8 1536.21 1232.02 1537.76 L1232.02 1533.04 Q1234.84 1531.9 1237.3 1531.33 Q1239.75 1530.75 1241.79 1530.75 Q1247.16 1530.75 1250.35 1533.43 Q1253.55 1536.12 1253.55 1540.61 Q1253.55 1542.74 1252.74 1544.66 Q1251.95 1546.56 1249.84 1549.15 Q1249.26 1549.82 1246.16 1553.04 Q1243.06 1556.23 1237.41 1562 Z" fill="#000000" fill-rule="evenodd" fill-opacity="1" /><path clip-path="url(#clip870)" d="M 0 0 M1443.52 1535.45 L1431.72 1553.89 L1443.52 1553.89 L1443.52 1535.45 M1442.3 1531.37 L1448.18 1531.37 L1448.18 1553.89 L1453.11 1553.89 L1453.11 1557.78 L1448.18 1557.78 L1448.18 1565.93 L1443.52 1565.93 L1443.52 1557.78 L1427.92 1557.78 L1427.92 1553.27 L1442.3 1531.37 Z" fill="#000000" fill-rule="evenodd" fill-opacity="1" /><path clip-path="url(#clip870)" d="M 0 0 M1470.84 1549.52 Q1467.5 1549.52 1465.58 1551.3 Q1463.69 1553.08 1463.69 1556.21 Q1463.69 1559.33 1465.58 1561.12 Q1467.5 1562.9 1470.84 1562.9 Q1474.17 1562.9 1476.09 1561.12 Q1478.01 1559.31 1478.01 1556.21 Q1478.01 1553.08 1476.09 1551.3 Q1474.19 1549.52 1470.84 1549.52 M1466.16 1547.53 Q1463.15 1546.79 1461.46 1544.73 Q1459.8 1542.67 1459.8 1539.71 Q1459.8 1535.56 1462.74 1533.15 Q1465.7 1530.75 1470.84 1530.75 Q1476 1530.75 1478.94 1533.15 Q1481.88 1535.56 1481.88 1539.71 Q1481.88 1542.67 1480.19 1544.73 Q1478.52 1546.79 1475.54 1547.53 Q1478.92 1548.32 1480.79 1550.61 Q1482.69 1552.9 1482.69 1556.21 Q1482.69 1561.23 1479.61 1563.92 Q1476.56 1566.6 1470.84 1566.6 Q1465.12 1566.6 1462.04 1563.92 Q1458.99 1561.23 1458.99 1556.21 Q1458.99 1552.9 1460.88 1550.61 Q1462.78 1548.32 1466.16 1547.53 M1464.45 1540.14 Q1464.45 1542.83 1466.12 1544.33 Q1467.81 1545.84 1470.84 1545.84 Q1473.85 1545.84 1475.54 1544.33 Q1477.25 1542.83 1477.25 1540.14 Q1477.25 1537.46 1475.54 1535.96 Q1473.85 1534.45 1470.84 1534.45 Q1467.81 1534.45 1466.12 1535.96 Q1464.45 1537.46 1464.45 1540.14 Z" fill="#000000" fill-rule="evenodd" fill-opacity="1" /><path clip-path="url(#clip870)" d="M 0 0 M1668.03 1546.79 Q1664.88 1546.79 1663.03 1548.94 Q1661.2 1551.09 1661.2 1554.84 Q1661.2 1558.57 1663.03 1560.75 Q1664.88 1562.9 1668.03 1562.9 Q1671.17 1562.9 1673 1560.75 Q1674.85 1558.57 1674.85 1554.84 Q1674.85 1551.09 1673 1548.94 Q1671.17 1546.79 1668.03 1546.79 M1677.31 1532.14 L1677.31 1536.39 Q1675.55 1535.56 1673.74 1535.12 Q1671.96 1534.68 1670.2 1534.68 Q1665.57 1534.68 1663.12 1537.81 Q1660.69 1540.93 1660.34 1547.25 Q1661.71 1545.24 1663.77 1544.17 Q1665.83 1543.08 1668.3 1543.08 Q1673.51 1543.08 1676.52 1546.26 Q1679.55 1549.4 1679.55 1554.84 Q1679.55 1560.17 1676.4 1563.39 Q1673.26 1566.6 1668.03 1566.6 Q1662.03 1566.6 1658.86 1562.02 Q1655.69 1557.41 1655.69 1548.69 Q1655.69 1540.49 1659.58 1535.63 Q1663.46 1530.75 1670.02 1530.75 Q1671.78 1530.75 1673.56 1531.09 Q1675.36 1531.44 1677.31 1532.14 Z" fill="#000000" fill-rule="evenodd" fill-opacity="1" /><path clip-path="url(#clip870)" d="M 0 0 M1700.46 1535.45 L1688.65 1553.89 L1700.46 1553.89 L1700.46 1535.45 M1699.23 1531.37 L1705.11 1531.37 L1705.11 1553.89 L1710.04 1553.89 L1710.04 1557.78 L1705.11 1557.78 L1705.11 1565.93 L1700.46 1565.93 L1700.46 1557.78 L1684.85 1557.78 L1684.85 1553.27 L1699.23 1531.37 Z" fill="#000000" fill-rule="evenodd" fill-opacity="1" /><path clip-path="url(#clip870)" d="M 0 0 M1895.29 1549.52 Q1891.96 1549.52 1890.04 1551.3 Q1888.14 1553.08 1888.14 1556.21 Q1888.14 1559.33 1890.04 1561.12 Q1891.96 1562.9 1895.29 1562.9 Q1898.63 1562.9 1900.55 1561.12 Q1902.47 1559.31 1902.47 1556.21 Q1902.47 1553.08 1900.55 1551.3 Q1898.65 1549.52 1895.29 1549.52 M1890.62 1547.53 Q1887.61 1546.79 1885.92 1544.73 Q1884.25 1542.67 1884.25 1539.71 Q1884.25 1535.56 1887.19 1533.15 Q1890.15 1530.75 1895.29 1530.75 Q1900.46 1530.75 1903.4 1533.15 Q1906.33 1535.56 1906.33 1539.71 Q1906.33 1542.67 1904.65 1544.73 Q1902.98 1546.79 1899.99 1547.53 Q1903.37 1548.32 1905.25 1550.61 Q1907.15 1552.9 1907.15 1556.21 Q1907.15 1561.23 1904.07 1563.92 Q1901.01 1566.6 1895.29 1566.6 Q1889.58 1566.6 1886.5 1563.92 Q1883.44 1561.23 1883.44 1556.21 Q1883.44 1552.9 1885.34 1550.61 Q1887.24 1548.32 1890.62 1547.53 M1888.9 1540.14 Q1888.9 1542.83 1890.57 1544.33 Q1892.26 1545.84 1895.29 1545.84 Q1898.3 1545.84 1899.99 1544.33 Q1901.71 1542.83 1901.71 1540.14 Q1901.71 1537.46 1899.99 1535.96 Q1898.3 1534.45 1895.29 1534.45 Q1892.26 1534.45 1890.57 1535.96 Q1888.9 1537.46 1888.9 1540.14 Z" fill="#000000" fill-rule="evenodd" fill-opacity="1" /><path clip-path="url(#clip870)" d="M 0 0 M1925.46 1534.45 Q1921.84 1534.45 1920.02 1538.02 Q1918.21 1541.56 1918.21 1548.69 Q1918.21 1555.79 1920.02 1559.36 Q1921.84 1562.9 1925.46 1562.9 Q1929.09 1562.9 1930.89 1559.36 Q1932.72 1555.79 1932.72 1548.69 Q1932.72 1541.56 1930.89 1538.02 Q1929.09 1534.45 1925.46 1534.45 M1925.46 1530.75 Q1931.27 1530.75 1934.32 1535.35 Q1937.4 1539.94 1937.4 1548.69 Q1937.4 1557.41 1934.32 1562.02 Q1931.27 1566.6 1925.46 1566.6 Q1919.65 1566.6 1916.57 1562.02 Q1913.51 1557.41 1913.51 1548.69 Q1913.51 1539.94 1916.57 1535.35 Q1919.65 1530.75 1925.46 1530.75 Z" fill="#000000" fill-rule="evenodd" fill-opacity="1" /><path clip-path="url(#clip870)" d="M 0 0 M2113.02 1565.21 L2113.02 1560.96 Q2114.78 1561.79 2116.59 1562.23 Q2118.39 1562.67 2120.13 1562.67 Q2124.76 1562.67 2127.19 1559.57 Q2129.64 1556.44 2129.99 1550.1 Q2128.65 1552.09 2126.59 1553.15 Q2124.53 1554.22 2122.03 1554.22 Q2116.84 1554.22 2113.81 1551.09 Q2110.8 1547.95 2110.8 1542.51 Q2110.8 1537.18 2113.95 1533.96 Q2117.1 1530.75 2122.33 1530.75 Q2128.33 1530.75 2131.47 1535.35 Q2134.64 1539.94 2134.64 1548.69 Q2134.64 1556.86 2130.76 1561.74 Q2126.89 1566.6 2120.34 1566.6 Q2118.58 1566.6 2116.77 1566.26 Q2114.97 1565.91 2113.02 1565.21 M2122.33 1550.56 Q2125.48 1550.56 2127.31 1548.41 Q2129.16 1546.26 2129.16 1542.51 Q2129.16 1538.78 2127.31 1536.63 Q2125.48 1534.45 2122.33 1534.45 Q2119.18 1534.45 2117.33 1536.63 Q2115.5 1538.78 2115.5 1542.51 Q2115.5 1546.26 2117.33 1548.41 Q2119.18 1550.56 2122.33 1550.56 Z" fill="#000000" fill-rule="evenodd" fill-opacity="1" /><path clip-path="url(#clip870)" d="M 0 0 M2153.63 1546.79 Q2150.48 1546.79 2148.63 1548.94 Q2146.8 1551.09 2146.8 1554.84 Q2146.8 1558.57 2148.63 1560.75 Q2150.48 1562.9 2153.63 1562.9 Q2156.77 1562.9 2158.6 1560.75 Q2160.45 1558.57 2160.45 1554.84 Q2160.45 1551.09 2158.6 1548.94 Q2156.77 1546.79 2153.63 1546.79 M2162.91 1532.14 L2162.91 1536.39 Q2161.15 1535.56 2159.34 1535.12 Q2157.56 1534.68 2155.8 1534.68 Q2151.17 1534.68 2148.72 1537.81 Q2146.29 1540.93 2145.94 1547.25 Q2147.31 1545.24 2149.37 1544.17 Q2151.43 1543.08 2153.9 1543.08 Q2159.11 1543.08 2162.12 1546.26 Q2165.15 1549.4 2165.15 1554.84 Q2165.15 1560.17 2162.01 1563.39 Q2158.86 1566.6 2153.63 1566.6 Q2147.63 1566.6 2144.46 1562.02 Q2141.29 1557.41 2141.29 1548.69 Q2141.29 1540.49 2145.18 1535.63 Q2149.07 1530.75 2155.62 1530.75 Q2157.38 1530.75 2159.16 1531.09 Q2160.96 1531.44 2162.91 1532.14 Z" fill="#000000" fill-rule="evenodd" fill-opacity="1" /><path clip-path="url(#clip870)" d="M 0 0 M1061.81 1621.45 L1052.55 1621.45 L1049.87 1632.08 L1059.2 1632.08 L1061.81 1621.45 M1057.04 1603.34 L1053.73 1616.54 L1063.02 1616.54 L1066.36 1603.34 L1071.45 1603.34 L1068.18 1616.54 L1078.11 1616.54 L1078.11 1621.45 L1066.93 1621.45 L1064.32 1632.08 L1074.45 1632.08 L1074.45 1636.95 L1063.08 1636.95 L1059.77 1650.12 L1054.68 1650.12 L1057.96 1636.95 L1048.63 1636.95 L1045.35 1650.12 L1040.23 1650.12 L1043.54 1636.95 L1033.51 1636.95 L1033.51 1632.08 L1044.72 1632.08 L1047.39 1621.45 L1037.14 1621.45 L1037.14 1616.54 L1048.63 1616.54 L1051.88 1603.34 L1057.04 1603.34 Z" fill="#000000" fill-rule="evenodd" fill-opacity="1" /><path clip-path="url(#clip870)" d="M 0 0 M1116.65 1607.89 L1116.65 1625.74 L1124.73 1625.74 Q1129.22 1625.74 1131.67 1623.42 Q1134.12 1621.1 1134.12 1616.8 Q1134.12 1612.53 1131.67 1610.21 Q1129.22 1607.89 1124.73 1607.89 L1116.65 1607.89 M1110.22 1602.6 L1124.73 1602.6 Q1132.72 1602.6 1136.8 1606.23 Q1140.9 1609.83 1140.9 1616.8 Q1140.9 1623.83 1136.8 1627.43 Q1132.72 1631.03 1124.73 1631.03 L1116.65 1631.03 L1116.65 1650.12 L1110.22 1650.12 L1110.22 1602.6 Z" fill="#000000" fill-rule="evenodd" fill-opacity="1" /><path clip-path="url(#clip870)" d="M 0 0 M1168.79 1619.95 Q1167.8 1619.38 1166.62 1619.12 Q1165.48 1618.84 1164.08 1618.84 Q1159.11 1618.84 1156.44 1622.08 Q1153.79 1625.3 1153.79 1631.35 L1153.79 1650.12 L1147.91 1650.12 L1147.91 1614.48 L1153.79 1614.48 L1153.79 1620.01 Q1155.64 1616.77 1158.6 1615.21 Q1161.56 1613.62 1165.79 1613.62 Q1166.4 1613.62 1167.13 1613.71 Q1167.86 1613.78 1168.75 1613.93 L1168.79 1619.95 Z" fill="#000000" fill-rule="evenodd" fill-opacity="1" /><path clip-path="url(#clip870)" d="M 0 0 M1187.31 1618.58 Q1182.6 1618.58 1179.86 1622.27 Q1177.12 1625.93 1177.12 1632.33 Q1177.12 1638.73 1179.83 1642.42 Q1182.57 1646.08 1187.31 1646.08 Q1191.99 1646.08 1194.73 1642.39 Q1197.46 1638.7 1197.46 1632.33 Q1197.46 1626 1194.73 1622.31 Q1191.99 1618.58 1187.31 1618.58 M1187.31 1613.62 Q1194.95 1613.62 1199.31 1618.58 Q1203.67 1623.55 1203.67 1632.33 Q1203.67 1641.08 1199.31 1646.08 Q1194.95 1651.05 1187.31 1651.05 Q1179.64 1651.05 1175.28 1646.08 Q1170.95 1641.08 1170.95 1632.33 Q1170.95 1623.55 1175.28 1618.58 Q1179.64 1613.62 1187.31 1613.62 Z" fill="#000000" fill-rule="evenodd" fill-opacity="1" /><path clip-path="url(#clip870)" d="M 0 0 M1239.03 1615.84 L1239.03 1621.32 Q1236.55 1619.95 1234.03 1619.28 Q1231.55 1618.58 1229.01 1618.58 Q1223.31 1618.58 1220.16 1622.21 Q1217.01 1625.81 1217.01 1632.33 Q1217.01 1638.86 1220.16 1642.48 Q1223.31 1646.08 1229.01 1646.08 Q1231.55 1646.08 1234.03 1645.41 Q1236.55 1644.71 1239.03 1643.34 L1239.03 1648.76 Q1236.58 1649.9 1233.94 1650.47 Q1231.33 1651.05 1228.37 1651.05 Q1220.32 1651.05 1215.57 1645.99 Q1210.83 1640.93 1210.83 1632.33 Q1210.83 1623.61 1215.61 1618.61 Q1220.41 1613.62 1228.75 1613.62 Q1231.46 1613.62 1234.03 1614.19 Q1236.61 1614.73 1239.03 1615.84 Z" fill="#000000" fill-rule="evenodd" fill-opacity="1" /><path clip-path="url(#clip870)" d="M 0 0 M1279.71 1630.84 L1279.71 1633.7 L1252.78 1633.7 Q1253.16 1639.75 1256.41 1642.93 Q1259.69 1646.08 1265.51 1646.08 Q1268.89 1646.08 1272.04 1645.25 Q1275.22 1644.43 1278.34 1642.77 L1278.34 1648.31 Q1275.19 1649.65 1271.88 1650.35 Q1268.57 1651.05 1265.16 1651.05 Q1256.63 1651.05 1251.64 1646.08 Q1246.67 1641.12 1246.67 1632.65 Q1246.67 1623.9 1251.38 1618.77 Q1256.12 1613.62 1264.14 1613.62 Q1271.34 1613.62 1275.51 1618.26 Q1279.71 1622.88 1279.71 1630.84 M1273.85 1629.12 Q1273.79 1624.31 1271.15 1621.45 Q1268.54 1618.58 1264.21 1618.58 Q1259.31 1618.58 1256.35 1621.35 Q1253.42 1624.12 1252.97 1629.15 L1273.85 1629.12 Z" fill="#000000" fill-rule="evenodd" fill-opacity="1" /><path clip-path="url(#clip870)" d="M 0 0 M1312.05 1615.53 L1312.05 1621.06 Q1309.56 1619.79 1306.89 1619.15 Q1304.22 1618.52 1301.35 1618.52 Q1296.99 1618.52 1294.79 1619.85 Q1292.63 1621.19 1292.63 1623.87 Q1292.63 1625.9 1294.19 1627.08 Q1295.75 1628.23 1300.46 1629.28 L1302.47 1629.72 Q1308.7 1631.06 1311.31 1633.51 Q1313.96 1635.93 1313.96 1640.29 Q1313.96 1645.25 1310.01 1648.15 Q1306.09 1651.05 1299.22 1651.05 Q1296.35 1651.05 1293.24 1650.47 Q1290.15 1649.93 1286.71 1648.82 L1286.71 1642.77 Q1289.96 1644.46 1293.11 1645.32 Q1296.26 1646.15 1299.35 1646.15 Q1303.48 1646.15 1305.71 1644.74 Q1307.94 1643.31 1307.94 1640.73 Q1307.94 1638.35 1306.32 1637.07 Q1304.73 1635.8 1299.28 1634.62 L1297.25 1634.15 Q1291.8 1633 1289.38 1630.64 Q1286.97 1628.26 1286.97 1624.12 Q1286.97 1619.09 1290.53 1616.35 Q1294.09 1613.62 1300.65 1613.62 Q1303.9 1613.62 1306.76 1614.09 Q1309.63 1614.57 1312.05 1615.53 Z" fill="#000000" fill-rule="evenodd" fill-opacity="1" /><path clip-path="url(#clip870)" d="M 0 0 M1346.01 1615.53 L1346.01 1621.06 Q1343.52 1619.79 1340.85 1619.15 Q1338.18 1618.52 1335.31 1618.52 Q1330.95 1618.52 1328.76 1619.85 Q1326.59 1621.19 1326.59 1623.87 Q1326.59 1625.9 1328.15 1627.08 Q1329.71 1628.23 1334.42 1629.28 L1336.43 1629.72 Q1342.66 1631.06 1345.27 1633.51 Q1347.92 1635.93 1347.92 1640.29 Q1347.92 1645.25 1343.97 1648.15 Q1340.06 1651.05 1333.18 1651.05 Q1330.32 1651.05 1327.2 1650.47 Q1324.11 1649.93 1320.67 1648.82 L1320.67 1642.77 Q1323.92 1644.46 1327.07 1645.32 Q1330.22 1646.15 1333.31 1646.15 Q1337.45 1646.15 1339.67 1644.74 Q1341.9 1643.31 1341.9 1640.73 Q1341.9 1638.35 1340.28 1637.07 Q1338.69 1635.8 1333.24 1634.62 L1331.21 1634.15 Q1325.76 1633 1323.35 1630.64 Q1320.93 1628.26 1320.93 1624.12 Q1320.93 1619.09 1324.49 1616.35 Q1328.06 1613.62 1334.61 1613.62 Q1337.86 1613.62 1340.72 1614.09 Q1343.59 1614.57 1346.01 1615.53 Z" fill="#000000" fill-rule="evenodd" fill-opacity="1" /><path clip-path="url(#clip870)" d="M 0 0 M1387.73 1630.84 L1387.73 1633.7 L1360.81 1633.7 Q1361.19 1639.75 1364.44 1642.93 Q1367.71 1646.08 1373.54 1646.08 Q1376.91 1646.08 1380.06 1645.25 Q1383.25 1644.43 1386.37 1642.77 L1386.37 1648.31 Q1383.21 1649.65 1379.9 1650.35 Q1376.59 1651.05 1373.19 1651.05 Q1364.66 1651.05 1359.66 1646.08 Q1354.7 1641.12 1354.7 1632.65 Q1354.7 1623.9 1359.41 1618.77 Q1364.15 1613.62 1372.17 1613.62 Q1379.36 1613.62 1383.53 1618.26 Q1387.73 1622.88 1387.73 1630.84 M1381.88 1629.12 Q1381.81 1624.31 1379.17 1621.45 Q1376.56 1618.58 1372.23 1618.58 Q1367.33 1618.58 1364.37 1621.35 Q1361.44 1624.12 1361 1629.15 L1381.88 1629.12 Z" fill="#000000" fill-rule="evenodd" fill-opacity="1" /><path clip-path="url(#clip870)" d="M 0 0 M1420.07 1615.53 L1420.07 1621.06 Q1417.59 1619.79 1414.92 1619.15 Q1412.24 1618.52 1409.38 1618.52 Q1405.02 1618.52 1402.82 1619.85 Q1400.66 1621.19 1400.66 1623.87 Q1400.66 1625.9 1402.22 1627.08 Q1403.78 1628.23 1408.49 1629.28 L1410.49 1629.72 Q1416.73 1631.06 1419.34 1633.51 Q1421.98 1635.93 1421.98 1640.29 Q1421.98 1645.25 1418.03 1648.15 Q1414.12 1651.05 1407.25 1651.05 Q1404.38 1651.05 1401.26 1650.47 Q1398.17 1649.93 1394.74 1648.82 L1394.74 1642.77 Q1397.98 1644.46 1401.13 1645.32 Q1404.28 1646.15 1407.37 1646.15 Q1411.51 1646.15 1413.74 1644.74 Q1415.97 1643.31 1415.97 1640.73 Q1415.97 1638.35 1414.34 1637.07 Q1412.75 1635.8 1407.31 1634.62 L1405.27 1634.15 Q1399.83 1633 1397.41 1630.64 Q1394.99 1628.26 1394.99 1624.12 Q1394.99 1619.09 1398.56 1616.35 Q1402.12 1613.62 1408.68 1613.62 Q1411.92 1613.62 1414.79 1614.09 Q1417.65 1614.57 1420.07 1615.53 Z" fill="#000000" fill-rule="evenodd" fill-opacity="1" /><polyline clip-path="url(#clip872)" style="stroke:#000000; stroke-width:2; stroke-opacity:0.1; fill:none" points="
  102.74,1464 2352.76,1464 
  "/>
<polyline clip-path="url(#clip872)" style="stroke:#000000; stroke-width:2; stroke-opacity:0.1; fill:none" points="
  102.74,1176.49 2352.76,1176.49 
  "/>
<polyline clip-path="url(#clip872)" style="stroke:#000000; stroke-width:2; stroke-opacity:0.1; fill:none" points="
  102.74,888.982 2352.76,888.982 
  "/>
<polyline clip-path="url(#clip872)" style="stroke:#000000; stroke-width:2; stroke-opacity:0.1; fill:none" points="
  102.74,601.475 2352.76,601.475 
  "/>
<polyline clip-path="url(#clip872)" style="stroke:#000000; stroke-width:2; stroke-opacity:0.1; fill:none" points="
  102.74,313.968 2352.76,313.968 
  "/>
<polyline clip-path="url(#clip870)" style="stroke:#000000; stroke-width:4; stroke-opacity:1; fill:none" points="
  102.74,1505.26 102.74,47.2441 
  "/>
<polyline clip-path="url(#clip870)" style="stroke:#000000; stroke-width:4; stroke-opacity:1; fill:none" points="
  102.74,1464 129.74,1464 
  "/>
<polyline clip-path="url(#clip870)" style="stroke:#000000; stroke-width:4; stroke-opacity:1; fill:none" points="
  102.74,1176.49 129.74,1176.49 
  "/>
<polyline clip-path="url(#clip870)" style="stroke:#000000; stroke-width:4; stroke-opacity:1; fill:none" points="
  102.74,888.982 129.74,888.982 
  "/>
<polyline clip-path="url(#clip870)" style="stroke:#000000; stroke-width:4; stroke-opacity:1; fill:none" points="
  102.74,601.475 129.74,601.475 
  "/>
<polyline clip-path="url(#clip870)" style="stroke:#000000; stroke-width:4; stroke-opacity:1; fill:none" points="
  102.74,313.968 129.74,313.968 
  "/>
<path clip-path="url(#clip870)" d="M 0 0 M54.7958 1449.79 Q51.1847 1449.79 49.356 1453.36 Q47.5504 1456.9 47.5504 1464.03 Q47.5504 1471.14 49.356 1474.7 Q51.1847 1478.24 54.7958 1478.24 Q58.43 1478.24 60.2356 1474.7 Q62.0643 1471.14 62.0643 1464.03 Q62.0643 1456.9 60.2356 1453.36 Q58.43 1449.79 54.7958 1449.79 M54.7958 1446.09 Q60.6059 1446.09 63.6615 1450.7 Q66.7402 1455.28 66.7402 1464.03 Q66.7402 1472.76 63.6615 1477.36 Q60.6059 1481.95 54.7958 1481.95 Q48.9856 1481.95 45.9069 1477.36 Q42.8514 1472.76 42.8514 1464.03 Q42.8514 1455.28 45.9069 1450.7 Q48.9856 1446.09 54.7958 1446.09 Z" fill="#000000" fill-rule="evenodd" fill-opacity="1" /><path clip-path="url(#clip870)" d="M 0 0 M45.8375 1159.21 L64.1939 1159.21 L64.1939 1163.14 L50.1199 1163.14 L50.1199 1171.62 Q51.1384 1171.27 52.1569 1171.11 Q53.1754 1170.92 54.1939 1170.92 Q59.9809 1170.92 63.3605 1174.09 Q66.7402 1177.26 66.7402 1182.68 Q66.7402 1188.26 63.268 1191.36 Q59.7958 1194.44 53.4763 1194.44 Q51.3004 1194.44 49.0319 1194.07 Q46.7866 1193.7 44.3792 1192.96 L44.3792 1188.26 Q46.4625 1189.39 48.6847 1189.95 Q50.9069 1190.5 53.3837 1190.5 Q57.3884 1190.5 59.7263 1188.4 Q62.0643 1186.29 62.0643 1182.68 Q62.0643 1179.07 59.7263 1176.96 Q57.3884 1174.86 53.3837 1174.86 Q51.5088 1174.86 49.6338 1175.27 Q47.7819 1175.69 45.8375 1176.57 L45.8375 1159.21 Z" fill="#000000" fill-rule="evenodd" fill-opacity="1" /><path clip-path="url(#clip870)" d="M 0 0 M15.4441 902.327 L23.083 902.327 L23.083 875.961 L14.7728 877.628 L14.7728 873.369 L23.0367 871.702 L27.7126 871.702 L27.7126 902.327 L35.3514 902.327 L35.3514 906.262 L15.4441 906.262 L15.4441 902.327 Z" fill="#000000" fill-rule="evenodd" fill-opacity="1" /><path clip-path="url(#clip870)" d="M 0 0 M54.7958 874.781 Q51.1847 874.781 49.356 878.345 Q47.5504 881.887 47.5504 889.017 Q47.5504 896.123 49.356 899.688 Q51.1847 903.229 54.7958 903.229 Q58.43 903.229 60.2356 899.688 Q62.0643 896.123 62.0643 889.017 Q62.0643 881.887 60.2356 878.345 Q58.43 874.781 54.7958 874.781 M54.7958 871.077 Q60.6059 871.077 63.6615 875.683 Q66.7402 880.267 66.7402 889.017 Q66.7402 897.743 63.6615 902.35 Q60.6059 906.933 54.7958 906.933 Q48.9856 906.933 45.9069 902.35 Q42.8514 897.743 42.8514 889.017 Q42.8514 880.267 45.9069 875.683 Q48.9856 871.077 54.7958 871.077 Z" fill="#000000" fill-rule="evenodd" fill-opacity="1" /><path clip-path="url(#clip870)" d="M 0 0 M16.4395 614.82 L24.0783 614.82 L24.0783 588.454 L15.7682 590.121 L15.7682 585.862 L24.0321 584.195 L28.708 584.195 L28.708 614.82 L36.3468 614.82 L36.3468 618.755 L16.4395 618.755 L16.4395 614.82 Z" fill="#000000" fill-rule="evenodd" fill-opacity="1" /><path clip-path="url(#clip870)" d="M 0 0 M45.8375 584.195 L64.1939 584.195 L64.1939 588.13 L50.1199 588.13 L50.1199 596.602 Q51.1384 596.255 52.1569 596.093 Q53.1754 595.908 54.1939 595.908 Q59.9809 595.908 63.3605 599.079 Q66.7402 602.251 66.7402 607.667 Q66.7402 613.246 63.268 616.348 Q59.7958 619.426 53.4763 619.426 Q51.3004 619.426 49.0319 619.056 Q46.7866 618.686 44.3792 617.945 L44.3792 613.246 Q46.4625 614.38 48.6847 614.936 Q50.9069 615.491 53.3837 615.491 Q57.3884 615.491 59.7263 613.385 Q62.0643 611.278 62.0643 607.667 Q62.0643 604.056 59.7263 601.95 Q57.3884 599.843 53.3837 599.843 Q51.5088 599.843 49.6338 600.26 Q47.7819 600.677 45.8375 601.556 L45.8375 584.195 Z" fill="#000000" fill-rule="evenodd" fill-opacity="1" /><path clip-path="url(#clip870)" d="M 0 0 M18.6617 327.313 L34.9811 327.313 L34.9811 331.248 L13.0367 331.248 L13.0367 327.313 Q15.6988 324.559 20.2821 319.929 Q24.8885 315.276 26.0691 313.934 Q28.3144 311.411 29.1941 309.674 Q30.0968 307.915 30.0968 306.225 Q30.0968 303.471 28.1524 301.735 Q26.2311 299.999 23.1293 299.999 Q20.9302 299.999 18.4765 300.763 Q16.046 301.526 13.2682 303.077 L13.2682 298.355 Q16.0923 297.221 18.546 296.642 Q20.9997 296.063 23.0367 296.063 Q28.407 296.063 31.6015 298.749 Q34.7959 301.434 34.7959 305.925 Q34.7959 308.054 33.9857 309.975 Q33.1987 311.874 31.0922 314.466 Q30.5135 315.137 27.4117 318.355 Q24.3098 321.549 18.6617 327.313 Z" fill="#000000" fill-rule="evenodd" fill-opacity="1" /><path clip-path="url(#clip870)" d="M 0 0 M54.7958 299.767 Q51.1847 299.767 49.356 303.332 Q47.5504 306.874 47.5504 314.003 Q47.5504 321.11 49.356 324.674 Q51.1847 328.216 54.7958 328.216 Q58.43 328.216 60.2356 324.674 Q62.0643 321.11 62.0643 314.003 Q62.0643 306.874 60.2356 303.332 Q58.43 299.767 54.7958 299.767 M54.7958 296.063 Q60.6059 296.063 63.6615 300.67 Q66.7402 305.253 66.7402 314.003 Q66.7402 322.73 63.6615 327.336 Q60.6059 331.92 54.7958 331.92 Q48.9856 331.92 45.9069 327.336 Q42.8514 322.73 42.8514 314.003 Q42.8514 305.253 45.9069 300.67 Q48.9856 296.063 54.7958 296.063 Z" fill="#000000" fill-rule="evenodd" fill-opacity="1" /><path clip-path="url(#clip870)" d="M 0 0 M-84.7393 895.72 L-84.7393 855.521 L-79.3284 855.521 L-79.3284 872.39 L-37.2193 872.39 L-37.2193 878.851 L-79.3284 878.851 L-79.3284 895.72 L-84.7393 895.72 Z" fill="#000000" fill-rule="evenodd" fill-opacity="1" /><path clip-path="url(#clip870)" d="M 0 0 M-72.8672 851.574 L-72.8672 845.718 L-37.2193 845.718 L-37.2193 851.574 L-72.8672 851.574 M-86.7445 851.574 L-86.7445 845.718 L-79.3284 845.718 L-79.3284 851.574 L-86.7445 851.574 Z" fill="#000000" fill-rule="evenodd" fill-opacity="1" /><path clip-path="url(#clip870)" d="M 0 0 M-66.0241 805.709 Q-69.9708 803.513 -71.8487 800.458 Q-73.7266 797.402 -73.7266 793.264 Q-73.7266 787.694 -69.8117 784.671 Q-65.9286 781.647 -58.7353 781.647 L-37.2193 781.647 L-37.2193 787.535 L-58.5444 787.535 Q-63.6688 787.535 -66.1514 789.349 Q-68.634 791.164 -68.634 794.888 Q-68.634 799.439 -65.6103 802.081 Q-62.5866 804.723 -57.3667 804.723 L-37.2193 804.723 L-37.2193 810.611 L-58.5444 810.611 Q-63.7006 810.611 -66.1514 812.425 Q-68.634 814.239 -68.634 818.027 Q-68.634 822.515 -65.5785 825.157 Q-62.5548 827.798 -57.3667 827.798 L-37.2193 827.798 L-37.2193 833.687 L-72.8672 833.687 L-72.8672 827.798 L-67.3291 827.798 Q-70.6074 825.793 -72.167 822.992 Q-73.7266 820.191 -73.7266 816.34 Q-73.7266 812.457 -71.7532 809.751 Q-69.7798 807.014 -66.0241 805.709 Z" fill="#000000" fill-rule="evenodd" fill-opacity="1" /><path clip-path="url(#clip870)" d="M 0 0 M-56.5073 739.474 L-53.6428 739.474 L-53.6428 766.401 Q-47.5954 766.019 -44.4125 762.773 Q-41.2615 759.494 -41.2615 753.67 Q-41.2615 750.296 -42.089 747.145 Q-42.9166 743.962 -44.5716 740.843 L-39.0335 740.843 Q-37.6967 743.994 -36.9965 747.304 Q-36.2962 750.614 -36.2962 754.02 Q-36.2962 762.55 -41.2615 767.547 Q-46.2267 772.512 -54.6931 772.512 Q-63.446 772.512 -68.5704 767.801 Q-73.7266 763.059 -73.7266 755.038 Q-73.7266 747.845 -69.0796 743.675 Q-64.4645 739.474 -56.5073 739.474 M-58.2261 745.331 Q-63.0322 745.394 -65.8968 748.036 Q-68.7613 750.646 -68.7613 754.975 Q-68.7613 759.876 -65.9923 762.836 Q-63.2232 765.764 -58.1943 766.21 L-58.2261 745.331 Z" fill="#000000" fill-rule="evenodd" fill-opacity="1" /><path clip-path="url(#clip870)" d="M 0 0 M-86.6808 715.794 Q-79.3602 720.059 -72.1988 722.128 Q-65.0374 724.196 -57.685 724.196 Q-50.3326 724.196 -43.1075 722.128 Q-35.9143 720.027 -28.6256 715.794 L-28.6256 720.886 Q-36.1053 725.661 -43.3303 728.048 Q-50.5554 730.403 -57.685 730.403 Q-64.7828 730.403 -71.976 728.048 Q-79.1693 725.692 -86.6808 720.886 L-86.6808 715.794 Z" fill="#000000" fill-rule="evenodd" fill-opacity="1" /><path clip-path="url(#clip870)" d="M 0 0 M-71.8169 681.705 L-66.2787 681.705 Q-67.5519 684.188 -68.1884 686.862 Q-68.825 689.535 -68.825 692.4 Q-68.825 696.76 -67.4882 698.956 Q-66.1514 701.121 -63.4778 701.121 Q-61.4408 701.121 -60.2631 699.561 Q-59.1173 698.002 -58.0669 693.291 L-57.6213 691.286 Q-56.2845 685.047 -53.8338 682.437 Q-51.4148 679.796 -47.0543 679.796 Q-42.089 679.796 -39.1926 683.742 Q-36.2962 687.657 -36.2962 694.532 Q-36.2962 697.397 -36.8691 700.516 Q-37.4102 703.603 -38.5242 707.041 L-44.5716 707.041 Q-42.8847 703.794 -42.0254 700.643 Q-41.1978 697.492 -41.1978 694.405 Q-41.1978 690.267 -42.5983 688.039 Q-44.0306 685.811 -46.6087 685.811 Q-48.9958 685.811 -50.269 687.434 Q-51.5421 689.026 -52.7198 694.469 L-53.1972 696.506 Q-54.343 701.948 -56.6983 704.367 Q-59.0855 706.786 -63.2232 706.786 Q-68.2521 706.786 -70.9893 703.221 Q-73.7266 699.657 -73.7266 693.1 Q-73.7266 689.853 -73.2492 686.989 Q-72.7717 684.124 -71.8169 681.705 Z" fill="#000000" fill-rule="evenodd" fill-opacity="1" /><path clip-path="url(#clip870)" d="M 0 0 M-86.6808 671.393 L-86.6808 666.3 Q-79.1693 661.526 -71.976 659.171 Q-64.7828 656.784 -57.685 656.784 Q-50.5554 656.784 -43.3303 659.171 Q-36.1053 661.526 -28.6256 666.3 L-28.6256 671.393 Q-35.9143 667.16 -43.1075 665.091 Q-50.3326 662.99 -57.685 662.99 Q-65.0374 662.99 -72.1988 665.091 Q-79.3602 667.16 -86.6808 671.393 Z" fill="#000000" fill-rule="evenodd" fill-opacity="1" /><path clip-path="url(#clip872)" d="
M226.495 88.5087 L226.495 1382.48 L408.541 1382.48 L408.541 88.5087 L226.495 88.5087 L226.495 88.5087  Z
  " fill="#009af9" fill-rule="evenodd" fill-opacity="1"/>
<polyline clip-path="url(#clip872)" style="stroke:#000000; stroke-width:4; stroke-opacity:1; fill:none" points="
  226.495,88.5087 226.495,1382.48 408.541,1382.48 408.541,88.5087 226.495,88.5087 
  "/>
<path clip-path="url(#clip872)" d="
M454.053 938.09 L454.053 1374.27 L636.099 1374.27 L636.099 938.09 L454.053 938.09 L454.053 938.09  Z
  " fill="#009af9" fill-rule="evenodd" fill-opacity="1"/>
<polyline clip-path="url(#clip872)" style="stroke:#000000; stroke-width:4; stroke-opacity:1; fill:none" points="
  454.053,938.09 454.053,1374.27 636.099,1374.27 636.099,938.09 454.053,938.09 
  "/>
<path clip-path="url(#clip872)" d="
M681.61 1197.26 L681.61 1390.04 L863.656 1390.04 L863.656 1197.26 L681.61 1197.26 L681.61 1197.26  Z
  " fill="#009af9" fill-rule="evenodd" fill-opacity="1"/>
<polyline clip-path="url(#clip872)" style="stroke:#000000; stroke-width:4; stroke-opacity:1; fill:none" points="
  681.61,1197.26 681.61,1390.04 863.656,1390.04 863.656,1197.26 681.61,1197.26 
  "/>
<path clip-path="url(#clip872)" d="
M909.168 1267.93 L909.168 1363.27 L1091.21 1363.27 L1091.21 1267.93 L909.168 1267.93 L909.168 1267.93  Z
  " fill="#009af9" fill-rule="evenodd" fill-opacity="1"/>
<polyline clip-path="url(#clip872)" style="stroke:#000000; stroke-width:4; stroke-opacity:1; fill:none" points="
  909.168,1267.93 909.168,1363.27 1091.21,1363.27 1091.21,1267.93 909.168,1267.93 
  "/>
<path clip-path="url(#clip872)" d="
M1136.73 1311.56 L1136.73 1363.44 L1318.77 1363.44 L1318.77 1311.56 L1136.73 1311.56 L1136.73 1311.56  Z
  " fill="#009af9" fill-rule="evenodd" fill-opacity="1"/>
<polyline clip-path="url(#clip872)" style="stroke:#000000; stroke-width:4; stroke-opacity:1; fill:none" points="
  1136.73,1311.56 1136.73,1363.44 1318.77,1363.44 1318.77,1311.56 1136.73,1311.56 
  "/>
<path clip-path="url(#clip872)" d="
M1364.28 1314.95 L1364.28 1353.3 L1546.33 1353.3 L1546.33 1314.95 L1364.28 1314.95 L1364.28 1314.95  Z
  " fill="#009af9" fill-rule="evenodd" fill-opacity="1"/>
<polyline clip-path="url(#clip872)" style="stroke:#000000; stroke-width:4; stroke-opacity:1; fill:none" points="
  1364.28,1314.95 1364.28,1353.3 1546.33,1353.3 1546.33,1314.95 1364.28,1314.95 
  "/>
<path clip-path="url(#clip872)" d="
M1591.84 1322.11 L1591.84 1353.83 L1773.89 1353.83 L1773.89 1322.11 L1591.84 1322.11 L1591.84 1322.11  Z
  " fill="#009af9" fill-rule="evenodd" fill-opacity="1"/>
<polyline clip-path="url(#clip872)" style="stroke:#000000; stroke-width:4; stroke-opacity:1; fill:none" points="
  1591.84,1322.11 1591.84,1353.83 1773.89,1353.83 1773.89,1322.11 1591.84,1322.11 
  "/>
<path clip-path="url(#clip872)" d="
M1819.4 1325.59 L1819.4 1352.27 L2001.44 1352.27 L2001.44 1325.59 L1819.4 1325.59 L1819.4 1325.59  Z
  " fill="#009af9" fill-rule="evenodd" fill-opacity="1"/>
<polyline clip-path="url(#clip872)" style="stroke:#000000; stroke-width:4; stroke-opacity:1; fill:none" points="
  1819.4,1325.59 1819.4,1352.27 2001.44,1352.27 2001.44,1325.59 1819.4,1325.59 
  "/>
<path clip-path="url(#clip872)" d="
M2046.96 1317.32 L2046.96 1341.55 L2229 1341.55 L2229 1317.32 L2046.96 1317.32 L2046.96 1317.32  Z
  " fill="#009af9" fill-rule="evenodd" fill-opacity="1"/>
<polyline clip-path="url(#clip872)" style="stroke:#000000; stroke-width:4; stroke-opacity:1; fill:none" points="
  2046.96,1317.32 2046.96,1341.55 2229,1341.55 2229,1317.32 2046.96,1317.32 
  "/>
<path clip-path="url(#clip872)" d="
M226.495 1382.48 L226.495 1464 L408.541 1464 L408.541 1382.48 L226.495 1382.48 L226.495 1382.48  Z
  " fill="#e26f46" fill-rule="evenodd" fill-opacity="1"/>
<polyline clip-path="url(#clip872)" style="stroke:#000000; stroke-width:4; stroke-opacity:1; fill:none" points="
  226.495,1382.48 226.495,1464 408.541,1464 408.541,1382.48 226.495,1382.48 
  "/>
<path clip-path="url(#clip872)" d="
M454.053 1374.27 L454.053 1464 L636.099 1464 L636.099 1374.27 L454.053 1374.27 L454.053 1374.27  Z
  " fill="#e26f46" fill-rule="evenodd" fill-opacity="1"/>
<polyline clip-path="url(#clip872)" style="stroke:#000000; stroke-width:4; stroke-opacity:1; fill:none" points="
  454.053,1374.27 454.053,1464 636.099,1464 636.099,1374.27 454.053,1374.27 
  "/>
<path clip-path="url(#clip872)" d="
M681.61 1390.04 L681.61 1464 L863.656 1464 L863.656 1390.04 L681.61 1390.04 L681.61 1390.04  Z
  " fill="#e26f46" fill-rule="evenodd" fill-opacity="1"/>
<polyline clip-path="url(#clip872)" style="stroke:#000000; stroke-width:4; stroke-opacity:1; fill:none" points="
  681.61,1390.04 681.61,1464 863.656,1464 863.656,1390.04 681.61,1390.04 
  "/>
<path clip-path="url(#clip872)" d="
M909.168 1363.27 L909.168 1464 L1091.21 1464 L1091.21 1363.27 L909.168 1363.27 L909.168 1363.27  Z
  " fill="#e26f46" fill-rule="evenodd" fill-opacity="1"/>
<polyline clip-path="url(#clip872)" style="stroke:#000000; stroke-width:4; stroke-opacity:1; fill:none" points="
  909.168,1363.27 909.168,1464 1091.21,1464 1091.21,1363.27 909.168,1363.27 
  "/>
<path clip-path="url(#clip872)" d="
M1136.73 1363.44 L1136.73 1464 L1318.77 1464 L1318.77 1363.44 L1136.73 1363.44 L1136.73 1363.44  Z
  " fill="#e26f46" fill-rule="evenodd" fill-opacity="1"/>
<polyline clip-path="url(#clip872)" style="stroke:#000000; stroke-width:4; stroke-opacity:1; fill:none" points="
  1136.73,1363.44 1136.73,1464 1318.77,1464 1318.77,1363.44 1136.73,1363.44 
  "/>
<path clip-path="url(#clip872)" d="
M1364.28 1353.3 L1364.28 1464 L1546.33 1464 L1546.33 1353.3 L1364.28 1353.3 L1364.28 1353.3  Z
  " fill="#e26f46" fill-rule="evenodd" fill-opacity="1"/>
<polyline clip-path="url(#clip872)" style="stroke:#000000; stroke-width:4; stroke-opacity:1; fill:none" points="
  1364.28,1353.3 1364.28,1464 1546.33,1464 1546.33,1353.3 1364.28,1353.3 
  "/>
<path clip-path="url(#clip872)" d="
M1591.84 1353.83 L1591.84 1464 L1773.89 1464 L1773.89 1353.83 L1591.84 1353.83 L1591.84 1353.83  Z
  " fill="#e26f46" fill-rule="evenodd" fill-opacity="1"/>
<polyline clip-path="url(#clip872)" style="stroke:#000000; stroke-width:4; stroke-opacity:1; fill:none" points="
  1591.84,1353.83 1591.84,1464 1773.89,1464 1773.89,1353.83 1591.84,1353.83 
  "/>
<path clip-path="url(#clip872)" d="
M1819.4 1352.27 L1819.4 1464 L2001.44 1464 L2001.44 1352.27 L1819.4 1352.27 L1819.4 1352.27  Z
  " fill="#e26f46" fill-rule="evenodd" fill-opacity="1"/>
<polyline clip-path="url(#clip872)" style="stroke:#000000; stroke-width:4; stroke-opacity:1; fill:none" points="
  1819.4,1352.27 1819.4,1464 2001.44,1464 2001.44,1352.27 1819.4,1352.27 
  "/>
<path clip-path="url(#clip872)" d="
M2046.96 1341.55 L2046.96 1464 L2229 1464 L2229 1341.55 L2046.96 1341.55 L2046.96 1341.55  Z
  " fill="#e26f46" fill-rule="evenodd" fill-opacity="1"/>
<polyline clip-path="url(#clip872)" style="stroke:#000000; stroke-width:4; stroke-opacity:1; fill:none" points="
  2046.96,1341.55 2046.96,1464 2229,1464 2229,1341.55 2046.96,1341.55 
  "/>
<path clip-path="url(#clip870)" d="
M1741.09 277.285 L2277.76 277.285 L2277.76 95.8446 L1741.09 95.8446  Z
  " fill="#ffffff" fill-rule="evenodd" fill-opacity="1"/>
<polyline clip-path="url(#clip870)" style="stroke:#000000; stroke-width:4; stroke-opacity:1; fill:none" points="
  1741.09,277.285 2277.76,277.285 2277.76,95.8446 1741.09,95.8446 1741.09,277.285 
  "/>
<path clip-path="url(#clip870)" d="
M1766.09 180.517 L1916.09 180.517 L1916.09 132.133 L1766.09 132.133 L1766.09 180.517  Z
  " fill="#009af9" fill-rule="evenodd" fill-opacity="1"/>
<polyline clip-path="url(#clip870)" style="stroke:#000000; stroke-width:4; stroke-opacity:1; fill:none" points="
  1766.09,180.517 1916.09,180.517 1916.09,132.133 1766.09,132.133 1766.09,180.517 
  "/>
<path clip-path="url(#clip870)" d="M 0 0 M1941.09 139.045 L1945.81 139.045 L1953.08 168.257 L1960.33 139.045 L1965.58 139.045 L1972.85 168.257 L1980.09 139.045 L1984.84 139.045 L1976.16 173.605 L1970.28 173.605 L1962.99 143.605 L1955.63 173.605 L1949.75 173.605 L1941.09 139.045 Z" fill="#000000" fill-rule="evenodd" fill-opacity="1" /><path clip-path="url(#clip870)" d="M 0 0 M1998.13 150.665 Q1994.7 150.665 1992.71 153.35 Q1990.72 156.012 1990.72 160.665 Q1990.72 165.318 1992.69 168.003 Q1994.68 170.665 1998.13 170.665 Q2001.53 170.665 2003.52 167.98 Q2005.51 165.294 2005.51 160.665 Q2005.51 156.058 2003.52 153.373 Q2001.53 150.665 1998.13 150.665 M1998.13 147.054 Q2003.68 147.054 2006.85 150.665 Q2010.02 154.276 2010.02 160.665 Q2010.02 167.031 2006.85 170.665 Q2003.68 174.276 1998.13 174.276 Q1992.55 174.276 1989.38 170.665 Q1986.23 167.031 1986.23 160.665 Q1986.23 154.276 1989.38 150.665 Q1992.55 147.054 1998.13 147.054 Z" fill="#000000" fill-rule="evenodd" fill-opacity="1" /><path clip-path="url(#clip870)" d="M 0 0 M2032.11 151.66 Q2031.39 151.244 2030.53 151.058 Q2029.7 150.85 2028.68 150.85 Q2025.07 150.85 2023.13 153.211 Q2021.21 155.549 2021.21 159.947 L2021.21 173.605 L2016.92 173.605 L2016.92 147.679 L2021.21 147.679 L2021.21 151.707 Q2022.55 149.345 2024.7 148.211 Q2026.85 147.054 2029.93 147.054 Q2030.37 147.054 2030.9 147.123 Q2031.44 147.17 2032.08 147.285 L2032.11 151.66 Z" fill="#000000" fill-rule="evenodd" fill-opacity="1" /><path clip-path="url(#clip870)" d="M 0 0 M2036.41 137.586 L2040.7 137.586 L2040.7 158.859 L2053.4 147.679 L2058.84 147.679 L2045.09 159.808 L2059.42 173.605 L2053.87 173.605 L2040.7 160.943 L2040.7 173.605 L2036.41 173.605 L2036.41 137.586 Z" fill="#000000" fill-rule="evenodd" fill-opacity="1" /><path clip-path="url(#clip870)" d="M 0 0 M2083.31 140.318 L2083.31 147.679 L2092.08 147.679 L2092.08 150.989 L2083.31 150.989 L2083.31 165.063 Q2083.31 168.234 2084.17 169.137 Q2085.05 170.04 2087.71 170.04 L2092.08 170.04 L2092.08 173.605 L2087.71 173.605 Q2082.78 173.605 2080.9 171.776 Q2079.03 169.924 2079.03 165.063 L2079.03 150.989 L2075.9 150.989 L2075.9 147.679 L2079.03 147.679 L2079.03 140.318 L2083.31 140.318 Z" fill="#000000" fill-rule="evenodd" fill-opacity="1" /><path clip-path="url(#clip870)" d="M 0 0 M2097.69 147.679 L2101.95 147.679 L2101.95 173.605 L2097.69 173.605 L2097.69 147.679 M2097.69 137.586 L2101.95 137.586 L2101.95 142.98 L2097.69 142.98 L2097.69 137.586 Z" fill="#000000" fill-rule="evenodd" fill-opacity="1" /><path clip-path="url(#clip870)" d="M 0 0 M2131.04 152.656 Q2132.64 149.785 2134.86 148.42 Q2137.08 147.054 2140.09 147.054 Q2144.14 147.054 2146.34 149.901 Q2148.54 152.725 2148.54 157.957 L2148.54 173.605 L2144.26 173.605 L2144.26 158.095 Q2144.26 154.369 2142.94 152.563 Q2141.62 150.758 2138.91 150.758 Q2135.6 150.758 2133.68 152.957 Q2131.76 155.156 2131.76 158.952 L2131.76 173.605 L2127.48 173.605 L2127.48 158.095 Q2127.48 154.345 2126.16 152.563 Q2124.84 150.758 2122.08 150.758 Q2118.82 150.758 2116.9 152.98 Q2114.98 155.179 2114.98 158.952 L2114.98 173.605 L2110.7 173.605 L2110.7 147.679 L2114.98 147.679 L2114.98 151.707 Q2116.44 149.322 2118.47 148.188 Q2120.51 147.054 2123.31 147.054 Q2126.14 147.054 2128.1 148.489 Q2130.09 149.924 2131.04 152.656 Z" fill="#000000" fill-rule="evenodd" fill-opacity="1" /><path clip-path="url(#clip870)" d="M 0 0 M2179.21 159.577 L2179.21 161.66 L2159.63 161.66 Q2159.91 166.058 2162.27 168.373 Q2164.65 170.665 2168.89 170.665 Q2171.34 170.665 2173.63 170.063 Q2175.95 169.461 2178.22 168.257 L2178.22 172.285 Q2175.93 173.257 2173.52 173.767 Q2171.11 174.276 2168.63 174.276 Q2162.43 174.276 2158.8 170.665 Q2155.19 167.054 2155.19 160.896 Q2155.19 154.531 2158.61 150.804 Q2162.06 147.054 2167.89 147.054 Q2173.13 147.054 2176.16 150.433 Q2179.21 153.79 2179.21 159.577 M2174.95 158.327 Q2174.91 154.832 2172.99 152.748 Q2171.09 150.665 2167.94 150.665 Q2164.38 150.665 2162.22 152.679 Q2160.09 154.693 2159.77 158.35 L2174.95 158.327 Z" fill="#000000" fill-rule="evenodd" fill-opacity="1" /><path clip-path="url(#clip870)" d="
M1766.09 240.997 L1916.09 240.997 L1916.09 192.613 L1766.09 192.613 L1766.09 240.997  Z
  " fill="#e26f46" fill-rule="evenodd" fill-opacity="1"/>
<polyline clip-path="url(#clip870)" style="stroke:#000000; stroke-width:4; stroke-opacity:1; fill:none" points="
  1766.09,240.997 1916.09,240.997 1916.09,192.613 1766.09,192.613 1766.09,240.997 
  "/>
<path clip-path="url(#clip870)" d="M 0 0 M1941.09 199.525 L1945.77 199.525 L1945.77 230.149 L1962.59 230.149 L1962.59 234.085 L1941.09 234.085 L1941.09 199.525 Z" fill="#000000" fill-rule="evenodd" fill-opacity="1" /><path clip-path="url(#clip870)" d="M 0 0 M1979.1 221.052 Q1973.94 221.052 1971.95 222.233 Q1969.96 223.413 1969.96 226.261 Q1969.96 228.529 1971.44 229.872 Q1972.94 231.191 1975.51 231.191 Q1979.05 231.191 1981.18 228.691 Q1983.34 226.168 1983.34 222.001 L1983.34 221.052 L1979.1 221.052 M1987.59 219.293 L1987.59 234.085 L1983.34 234.085 L1983.34 230.149 Q1981.88 232.511 1979.7 233.645 Q1977.52 234.756 1974.38 234.756 Q1970.4 234.756 1968.03 232.534 Q1965.7 230.288 1965.7 226.538 Q1965.7 222.163 1968.61 219.941 Q1971.55 217.719 1977.36 217.719 L1983.34 217.719 L1983.34 217.302 Q1983.34 214.363 1981.39 212.765 Q1979.47 211.145 1975.97 211.145 Q1973.75 211.145 1971.65 211.677 Q1969.54 212.21 1967.59 213.275 L1967.59 209.339 Q1969.93 208.437 1972.13 207.997 Q1974.33 207.534 1976.41 207.534 Q1982.04 207.534 1984.82 210.45 Q1987.59 213.367 1987.59 219.293 Z" fill="#000000" fill-rule="evenodd" fill-opacity="1" /><path clip-path="url(#clip870)" d="M 0 0 M1995.93 223.853 L1995.93 208.159 L2000.19 208.159 L2000.19 223.691 Q2000.19 227.372 2001.62 229.224 Q2003.06 231.052 2005.93 231.052 Q2009.38 231.052 2011.37 228.853 Q2013.38 226.654 2013.38 222.858 L2013.38 208.159 L2017.64 208.159 L2017.64 234.085 L2013.38 234.085 L2013.38 230.103 Q2011.83 232.464 2009.77 233.622 Q2007.73 234.756 2005.02 234.756 Q2000.56 234.756 1998.24 231.978 Q1995.93 229.2 1995.93 223.853 M2006.65 207.534 L2006.65 207.534 Z" fill="#000000" fill-rule="evenodd" fill-opacity="1" /><path clip-path="url(#clip870)" d="M 0 0 M2047.96 218.437 L2047.96 234.085 L2043.71 234.085 L2043.71 218.575 Q2043.71 214.895 2042.27 213.066 Q2040.83 211.238 2037.96 211.238 Q2034.52 211.238 2032.52 213.437 Q2030.53 215.636 2030.53 219.432 L2030.53 234.085 L2026.25 234.085 L2026.25 208.159 L2030.53 208.159 L2030.53 212.187 Q2032.06 209.849 2034.12 208.691 Q2036.21 207.534 2038.91 207.534 Q2043.38 207.534 2045.67 210.312 Q2047.96 213.066 2047.96 218.437 Z" fill="#000000" fill-rule="evenodd" fill-opacity="1" /><path clip-path="url(#clip870)" d="M 0 0 M2075.12 209.154 L2075.12 213.136 Q2073.31 212.14 2071.48 211.654 Q2069.68 211.145 2067.83 211.145 Q2063.68 211.145 2061.39 213.784 Q2059.1 216.4 2059.1 221.145 Q2059.1 225.89 2061.39 228.529 Q2063.68 231.145 2067.83 231.145 Q2069.68 231.145 2071.48 230.659 Q2073.31 230.149 2075.12 229.154 L2075.12 233.089 Q2073.33 233.923 2071.41 234.339 Q2069.52 234.756 2067.36 234.756 Q2061.51 234.756 2058.06 231.075 Q2054.61 227.395 2054.61 221.145 Q2054.61 214.802 2058.08 211.168 Q2061.58 207.534 2067.64 207.534 Q2069.61 207.534 2071.48 207.951 Q2073.36 208.344 2075.12 209.154 Z" fill="#000000" fill-rule="evenodd" fill-opacity="1" /><path clip-path="url(#clip870)" d="M 0 0 M2104.08 218.437 L2104.08 234.085 L2099.82 234.085 L2099.82 218.575 Q2099.82 214.895 2098.38 213.066 Q2096.95 211.238 2094.08 211.238 Q2090.63 211.238 2088.64 213.437 Q2086.64 215.636 2086.64 219.432 L2086.64 234.085 L2082.36 234.085 L2082.36 198.066 L2086.64 198.066 L2086.64 212.187 Q2088.17 209.849 2090.23 208.691 Q2092.32 207.534 2095.02 207.534 Q2099.49 207.534 2101.78 210.312 Q2104.08 213.066 2104.08 218.437 Z" fill="#000000" fill-rule="evenodd" fill-opacity="1" /><path clip-path="url(#clip870)" d="M 0 0 M2131.85 200.798 L2131.85 208.159 L2140.63 208.159 L2140.63 211.469 L2131.85 211.469 L2131.85 225.543 Q2131.85 228.714 2132.71 229.617 Q2133.59 230.52 2136.25 230.52 L2140.63 230.52 L2140.63 234.085 L2136.25 234.085 Q2131.32 234.085 2129.45 232.256 Q2127.57 230.404 2127.57 225.543 L2127.57 211.469 L2124.45 211.469 L2124.45 208.159 L2127.57 208.159 L2127.57 200.798 L2131.85 200.798 Z" fill="#000000" fill-rule="evenodd" fill-opacity="1" /><path clip-path="url(#clip870)" d="M 0 0 M2146.23 208.159 L2150.49 208.159 L2150.49 234.085 L2146.23 234.085 L2146.23 208.159 M2146.23 198.066 L2150.49 198.066 L2150.49 203.46 L2146.23 203.46 L2146.23 198.066 Z" fill="#000000" fill-rule="evenodd" fill-opacity="1" /><path clip-path="url(#clip870)" d="M 0 0 M2179.58 213.136 Q2181.18 210.265 2183.4 208.9 Q2185.63 207.534 2188.63 207.534 Q2192.69 207.534 2194.88 210.381 Q2197.08 213.205 2197.08 218.437 L2197.08 234.085 L2192.8 234.085 L2192.8 218.575 Q2192.8 214.849 2191.48 213.043 Q2190.16 211.238 2187.45 211.238 Q2184.14 211.238 2182.22 213.437 Q2180.3 215.636 2180.3 219.432 L2180.3 234.085 L2176.02 234.085 L2176.02 218.575 Q2176.02 214.825 2174.7 213.043 Q2173.38 211.238 2170.63 211.238 Q2167.36 211.238 2165.44 213.46 Q2163.52 215.659 2163.52 219.432 L2163.52 234.085 L2159.24 234.085 L2159.24 208.159 L2163.52 208.159 L2163.52 212.187 Q2164.98 209.802 2167.01 208.668 Q2169.05 207.534 2171.85 207.534 Q2174.68 207.534 2176.64 208.969 Q2178.63 210.404 2179.58 213.136 Z" fill="#000000" fill-rule="evenodd" fill-opacity="1" /><path clip-path="url(#clip870)" d="M 0 0 M2227.76 220.057 L2227.76 222.14 L2208.17 222.14 Q2208.45 226.538 2210.81 228.853 Q2213.19 231.145 2217.43 231.145 Q2219.88 231.145 2222.18 230.543 Q2224.49 229.941 2226.76 228.737 L2226.76 232.765 Q2224.47 233.737 2222.06 234.247 Q2219.65 234.756 2217.18 234.756 Q2210.97 234.756 2207.34 231.145 Q2203.73 227.534 2203.73 221.376 Q2203.73 215.011 2207.15 211.284 Q2210.6 207.534 2216.44 207.534 Q2221.67 207.534 2224.7 210.913 Q2227.76 214.27 2227.76 220.057 M2223.5 218.807 Q2223.45 215.312 2221.53 213.228 Q2219.63 211.145 2216.48 211.145 Q2212.92 211.145 2210.76 213.159 Q2208.63 215.173 2208.31 218.83 L2223.5 218.807 Z" fill="#000000" fill-rule="evenodd" fill-opacity="1" /></svg>
