<?xml version="1.0" encoding="utf-8"?>
<svg xmlns="http://www.w3.org/2000/svg" xmlns:xlink="http://www.w3.org/1999/xlink" width="600" height="400" viewBox="0 0 2400 1600">
<defs>
  <clipPath id="clip140">
    <rect x="0" y="0" width="2400" height="1600"/>
  </clipPath>
</defs>
<path clip-path="url(#clip140)" d="
M0 1600 L2400 1600 L2400 0 L0 0  Z
  " fill="#ffffff" fill-rule="evenodd" fill-opacity="1"/>
<defs>
  <clipPath id="clip141">
    <rect x="480" y="0" width="1681" height="1600"/>
  </clipPath>
</defs>
<path clip-path="url(#clip140)" d="
M102.74 1505.26 L2352.76 1505.26 L2352.76 47.2441 L102.74 47.2441  Z
  " fill="#ffffff" fill-rule="evenodd" fill-opacity="1"/>
<defs>
  <clipPath id="clip142">
    <rect x="102" y="47" width="2251" height="1459"/>
  </clipPath>
</defs>
<polyline clip-path="url(#clip142)" style="stroke:#000000; stroke-width:2; stroke-opacity:0.1; fill:none" points="
  317.518,1505.26 317.518,47.2441 
  "/>
<polyline clip-path="url(#clip142)" style="stroke:#000000; stroke-width:2; stroke-opacity:0.1; fill:none" points="
  545.076,1505.26 545.076,47.2441 
  "/>
<polyline clip-path="url(#clip142)" style="stroke:#000000; stroke-width:2; stroke-opacity:0.1; fill:none" points="
  772.633,1505.26 772.633,47.2441 
  "/>
<polyline clip-path="url(#clip142)" style="stroke:#000000; stroke-width:2; stroke-opacity:0.1; fill:none" points="
  1000.19,1505.26 1000.19,47.2441 
  "/>
<polyline clip-path="url(#clip142)" style="stroke:#000000; stroke-width:2; stroke-opacity:0.1; fill:none" points="
  1227.75,1505.26 1227.75,47.2441 
  "/>
<polyline clip-path="url(#clip142)" style="stroke:#000000; stroke-width:2; stroke-opacity:0.1; fill:none" points="
  1455.31,1505.26 1455.31,47.2441 
  "/>
<polyline clip-path="url(#clip142)" style="stroke:#000000; stroke-width:2; stroke-opacity:0.1; fill:none" points="
  1682.86,1505.26 1682.86,47.2441 
  "/>
<polyline clip-path="url(#clip142)" style="stroke:#000000; stroke-width:2; stroke-opacity:0.1; fill:none" points="
  1910.42,1505.26 1910.42,47.2441 
  "/>
<polyline clip-path="url(#clip142)" style="stroke:#000000; stroke-width:2; stroke-opacity:0.1; fill:none" points="
  2137.98,1505.26 2137.98,47.2441 
  "/>
<polyline clip-path="url(#clip140)" style="stroke:#000000; stroke-width:4; stroke-opacity:1; fill:none" points="
  102.74,1505.26 2352.76,1505.26 
  "/>
<polyline clip-path="url(#clip140)" style="stroke:#000000; stroke-width:4; stroke-opacity:1; fill:none" points="
  317.518,1505.26 317.518,1487.76 
  "/>
<polyline clip-path="url(#clip140)" style="stroke:#000000; stroke-width:4; stroke-opacity:1; fill:none" points="
  545.076,1505.26 545.076,1487.76 
  "/>
<polyline clip-path="url(#clip140)" style="stroke:#000000; stroke-width:4; stroke-opacity:1; fill:none" points="
  772.633,1505.26 772.633,1487.76 
  "/>
<polyline clip-path="url(#clip140)" style="stroke:#000000; stroke-width:4; stroke-opacity:1; fill:none" points="
  1000.19,1505.26 1000.19,1487.76 
  "/>
<polyline clip-path="url(#clip140)" style="stroke:#000000; stroke-width:4; stroke-opacity:1; fill:none" points="
  1227.75,1505.26 1227.75,1487.76 
  "/>
<polyline clip-path="url(#clip140)" style="stroke:#000000; stroke-width:4; stroke-opacity:1; fill:none" points="
  1455.31,1505.26 1455.31,1487.76 
  "/>
<polyline clip-path="url(#clip140)" style="stroke:#000000; stroke-width:4; stroke-opacity:1; fill:none" points="
  1682.86,1505.26 1682.86,1487.76 
  "/>
<polyline clip-path="url(#clip140)" style="stroke:#000000; stroke-width:4; stroke-opacity:1; fill:none" points="
  1910.42,1505.26 1910.42,1487.76 
  "/>
<polyline clip-path="url(#clip140)" style="stroke:#000000; stroke-width:4; stroke-opacity:1; fill:none" points="
  2137.98,1505.26 2137.98,1487.76 
  "/>
<path clip-path="url(#clip140)" d="M 0 0 M312.171 1562 L328.49 1562 L328.49 1565.93 L306.546 1565.93 L306.546 1562 Q309.208 1559.24 313.791 1554.61 Q318.398 1549.96 319.578 1548.62 Q321.824 1546.09 322.703 1544.36 Q323.606 1542.6 323.606 1540.91 Q323.606 1538.15 321.662 1536.42 Q319.74 1534.68 316.638 1534.68 Q314.439 1534.68 311.986 1535.45 Q309.555 1536.21 306.777 1537.76 L306.777 1533.04 Q309.601 1531.9 312.055 1531.33 Q314.509 1530.75 316.546 1530.75 Q321.916 1530.75 325.111 1533.43 Q328.305 1536.12 328.305 1540.61 Q328.305 1542.74 327.495 1544.66 Q326.708 1546.56 324.601 1549.15 Q324.023 1549.82 320.921 1553.04 Q317.819 1556.23 312.171 1562 Z" fill="#000000" fill-rule="evenodd" fill-opacity="1" /><path clip-path="url(#clip140)" d="M 0 0 M548.085 1535.45 L536.279 1553.89 L548.085 1553.89 L548.085 1535.45 M546.858 1531.37 L552.738 1531.37 L552.738 1553.89 L557.668 1553.89 L557.668 1557.78 L552.738 1557.78 L552.738 1565.93 L548.085 1565.93 L548.085 1557.78 L532.483 1557.78 L532.483 1553.27 L546.858 1531.37 Z" fill="#000000" fill-rule="evenodd" fill-opacity="1" /><path clip-path="url(#clip140)" d="M 0 0 M772.633 1549.52 Q769.3 1549.52 767.378 1551.3 Q765.48 1553.08 765.48 1556.21 Q765.48 1559.33 767.378 1561.12 Q769.3 1562.9 772.633 1562.9 Q775.966 1562.9 777.888 1561.12 Q779.809 1559.31 779.809 1556.21 Q779.809 1553.08 777.888 1551.3 Q775.989 1549.52 772.633 1549.52 M767.957 1547.53 Q764.948 1546.79 763.258 1544.73 Q761.591 1542.67 761.591 1539.71 Q761.591 1535.56 764.531 1533.15 Q767.494 1530.75 772.633 1530.75 Q777.795 1530.75 780.735 1533.15 Q783.675 1535.56 783.675 1539.71 Q783.675 1542.67 781.985 1544.73 Q780.318 1546.79 777.332 1547.53 Q780.712 1548.32 782.587 1550.61 Q784.485 1552.9 784.485 1556.21 Q784.485 1561.23 781.406 1563.92 Q778.351 1566.6 772.633 1566.6 Q766.915 1566.6 763.837 1563.92 Q760.781 1561.23 760.781 1556.21 Q760.781 1552.9 762.679 1550.61 Q764.578 1548.32 767.957 1547.53 M766.244 1540.14 Q766.244 1542.83 767.911 1544.33 Q769.601 1545.84 772.633 1545.84 Q775.642 1545.84 777.332 1544.33 Q779.045 1542.83 779.045 1540.14 Q779.045 1537.46 777.332 1535.96 Q775.642 1534.45 772.633 1534.45 Q769.601 1534.45 767.911 1535.96 Q766.244 1537.46 766.244 1540.14 Z" fill="#000000" fill-rule="evenodd" fill-opacity="1" /><path clip-path="url(#clip140)" d="M 0 0 M974.797 1562 L982.436 1562 L982.436 1535.63 L974.126 1537.3 L974.126 1533.04 L982.39 1531.37 L987.066 1531.37 L987.066 1562 L994.704 1562 L994.704 1565.93 L974.797 1565.93 L974.797 1562 Z" fill="#000000" fill-rule="evenodd" fill-opacity="1" /><path clip-path="url(#clip140)" d="M 0 0 M1014.73 1546.79 Q1011.58 1546.79 1009.73 1548.94 Q1007.9 1551.09 1007.9 1554.84 Q1007.9 1558.57 1009.73 1560.75 Q1011.58 1562.9 1014.73 1562.9 Q1017.88 1562.9 1019.7 1560.75 Q1021.56 1558.57 1021.56 1554.84 Q1021.56 1551.09 1019.7 1548.94 Q1017.88 1546.79 1014.73 1546.79 M1024.01 1532.14 L1024.01 1536.39 Q1022.25 1535.56 1020.45 1535.12 Q1018.66 1534.68 1016.9 1534.68 Q1012.27 1534.68 1009.82 1537.81 Q1007.39 1540.93 1007.04 1547.25 Q1008.41 1545.24 1010.47 1544.17 Q1012.53 1543.08 1015.01 1543.08 Q1020.21 1543.08 1023.22 1546.26 Q1026.26 1549.4 1026.26 1554.84 Q1026.26 1560.17 1023.11 1563.39 Q1019.96 1566.6 1014.73 1566.6 Q1008.73 1566.6 1005.56 1562.02 Q1002.39 1557.41 1002.39 1548.69 Q1002.39 1540.49 1006.28 1535.63 Q1010.17 1530.75 1016.72 1530.75 Q1018.48 1530.75 1020.26 1531.09 Q1022.07 1531.44 1024.01 1532.14 Z" fill="#000000" fill-rule="evenodd" fill-opacity="1" /><path clip-path="url(#clip140)" d="M 0 0 M1217.39 1547.3 Q1220.75 1548.02 1222.62 1550.28 Q1224.52 1552.55 1224.52 1555.89 Q1224.52 1561 1221 1563.8 Q1217.48 1566.6 1211 1566.6 Q1208.82 1566.6 1206.51 1566.16 Q1204.22 1565.75 1201.76 1564.89 L1201.76 1560.38 Q1203.71 1561.51 1206.02 1562.09 Q1208.34 1562.67 1210.86 1562.67 Q1215.26 1562.67 1217.55 1560.93 Q1219.87 1559.2 1219.87 1555.89 Q1219.87 1552.83 1217.71 1551.12 Q1215.58 1549.38 1211.76 1549.38 L1207.74 1549.38 L1207.74 1545.54 L1211.95 1545.54 Q1215.4 1545.54 1217.23 1544.17 Q1219.06 1542.78 1219.06 1540.19 Q1219.06 1537.53 1217.16 1536.12 Q1215.28 1534.68 1211.76 1534.68 Q1209.84 1534.68 1207.64 1535.1 Q1205.44 1535.52 1202.81 1536.39 L1202.81 1532.23 Q1205.47 1531.49 1207.78 1531.12 Q1210.12 1530.75 1212.18 1530.75 Q1217.51 1530.75 1220.61 1533.18 Q1223.71 1535.58 1223.71 1539.71 Q1223.71 1542.58 1222.07 1544.57 Q1220.42 1546.53 1217.39 1547.3 Z" fill="#000000" fill-rule="evenodd" fill-opacity="1" /><path clip-path="url(#clip140)" d="M 0 0 M1237.41 1562 L1253.73 1562 L1253.73 1565.93 L1231.79 1565.93 L1231.79 1562 Q1234.45 1559.24 1239.03 1554.61 Q1243.64 1549.96 1244.82 1548.62 Q1247.07 1546.09 1247.94 1544.36 Q1248.85 1542.6 1248.85 1540.91 Q1248.85 1538.15 1246.9 1536.42 Q1244.98 1534.68 1241.88 1534.68 Q1239.68 1534.68 1237.23 1535.45 Q1234.8 1536.21 1232.02 1537.76 L1232.02 1533.04 Q1234.84 1531.9 1237.3 1531.33 Q1239.75 1530.75 1241.79 1530.75 Q1247.16 1530.75 1250.35 1533.43 Q1253.55 1536.12 1253.55 1540.61 Q1253.55 1542.74 1252.74 1544.66 Q1251.95 1546.56 1249.84 1549.15 Q1249.26 1549.82 1246.16 1553.04 Q1243.06 1556.23 1237.41 1562 Z" fill="#000000" fill-rule="evenodd" fill-opacity="1" /><path clip-path="url(#clip140)" d="M 0 0 M1443.52 1535.45 L1431.72 1553.89 L1443.52 1553.89 L1443.52 1535.45 M1442.3 1531.37 L1448.18 1531.37 L1448.18 1553.89 L1453.11 1553.89 L1453.11 1557.78 L1448.18 1557.78 L1448.18 1565.93 L1443.52 1565.93 L1443.52 1557.78 L1427.92 1557.78 L1427.92 1553.27 L1442.3 1531.37 Z" fill="#000000" fill-rule="evenodd" fill-opacity="1" /><path clip-path="url(#clip140)" d="M 0 0 M1470.84 1549.52 Q1467.5 1549.52 1465.58 1551.3 Q1463.69 1553.08 1463.69 1556.21 Q1463.69 1559.33 1465.58 1561.12 Q1467.5 1562.9 1470.84 1562.9 Q1474.17 1562.9 1476.09 1561.12 Q1478.01 1559.31 1478.01 1556.21 Q1478.01 1553.08 1476.09 1551.3 Q1474.19 1549.52 1470.84 1549.52 M1466.16 1547.53 Q1463.15 1546.79 1461.46 1544.73 Q1459.8 1542.67 1459.8 1539.71 Q1459.8 1535.56 1462.74 1533.15 Q1465.7 1530.75 1470.84 1530.75 Q1476 1530.75 1478.94 1533.15 Q1481.88 1535.56 1481.88 1539.71 Q1481.88 1542.67 1480.19 1544.73 Q1478.52 1546.79 1475.54 1547.53 Q1478.92 1548.32 1480.79 1550.61 Q1482.69 1552.9 1482.69 1556.21 Q1482.69 1561.23 1479.61 1563.92 Q1476.56 1566.6 1470.84 1566.6 Q1465.12 1566.6 1462.04 1563.92 Q1458.99 1561.23 1458.99 1556.21 Q1458.99 1552.9 1460.88 1550.61 Q1462.78 1548.32 1466.16 1547.53 M1464.45 1540.14 Q1464.45 1542.83 1466.12 1544.33 Q1467.81 1545.84 1470.84 1545.84 Q1473.85 1545.84 1475.54 1544.33 Q1477.25 1542.83 1477.25 1540.14 Q1477.25 1537.46 1475.54 1535.96 Q1473.85 1534.45 1470.84 1534.45 Q1467.81 1534.45 1466.12 1535.96 Q1464.45 1537.46 1464.45 1540.14 Z" fill="#000000" fill-rule="evenodd" fill-opacity="1" /><path clip-path="url(#clip140)" d="M 0 0 M1668.03 1546.79 Q1664.88 1546.79 1663.03 1548.94 Q1661.2 1551.09 1661.2 1554.84 Q1661.2 1558.57 1663.03 1560.75 Q1664.88 1562.9 1668.03 1562.9 Q1671.17 1562.9 1673 1560.75 Q1674.85 1558.57 1674.85 1554.84 Q1674.85 1551.09 1673 1548.94 Q1671.17 1546.79 1668.03 1546.79 M1677.31 1532.14 L1677.31 1536.39 Q1675.55 1535.56 1673.74 1535.12 Q1671.96 1534.68 1670.2 1534.68 Q1665.57 1534.68 1663.12 1537.81 Q1660.69 1540.93 1660.34 1547.25 Q1661.71 1545.24 1663.77 1544.17 Q1665.83 1543.08 1668.3 1543.08 Q1673.51 1543.08 1676.52 1546.26 Q1679.55 1549.4 1679.55 1554.84 Q1679.55 1560.17 1676.4 1563.39 Q1673.26 1566.6 1668.03 1566.6 Q1662.03 1566.6 1658.86 1562.02 Q1655.69 1557.41 1655.69 1548.69 Q1655.69 1540.49 1659.58 1535.63 Q1663.46 1530.75 1670.02 1530.75 Q1671.78 1530.75 1673.56 1531.09 Q1675.36 1531.44 1677.31 1532.14 Z" fill="#000000" fill-rule="evenodd" fill-opacity="1" /><path clip-path="url(#clip140)" d="M 0 0 M1700.46 1535.45 L1688.65 1553.89 L1700.46 1553.89 L1700.46 1535.45 M1699.23 1531.37 L1705.11 1531.37 L1705.11 1553.89 L1710.04 1553.89 L1710.04 1557.78 L1705.11 1557.78 L1705.11 1565.93 L1700.46 1565.93 L1700.46 1557.78 L1684.85 1557.78 L1684.85 1553.27 L1699.23 1531.37 Z" fill="#000000" fill-rule="evenodd" fill-opacity="1" /><path clip-path="url(#clip140)" d="M 0 0 M1895.29 1549.52 Q1891.96 1549.52 1890.04 1551.3 Q1888.14 1553.08 1888.14 1556.21 Q1888.14 1559.33 1890.04 1561.12 Q1891.96 1562.9 1895.29 1562.9 Q1898.63 1562.9 1900.55 1561.12 Q1902.47 1559.31 1902.47 1556.21 Q1902.47 1553.08 1900.55 1551.3 Q1898.65 1549.52 1895.29 1549.52 M1890.62 1547.53 Q1887.61 1546.79 1885.92 1544.73 Q1884.25 1542.67 1884.25 1539.71 Q1884.25 1535.56 1887.19 1533.15 Q1890.15 1530.75 1895.29 1530.75 Q1900.46 1530.75 1903.4 1533.15 Q1906.33 1535.56 1906.33 1539.71 Q1906.33 1542.67 1904.65 1544.73 Q1902.98 1546.79 1899.99 1547.53 Q1903.37 1548.32 1905.25 1550.61 Q1907.15 1552.9 1907.15 1556.21 Q1907.15 1561.23 1904.07 1563.92 Q1901.01 1566.6 1895.29 1566.6 Q1889.58 1566.6 1886.5 1563.92 Q1883.44 1561.23 1883.44 1556.21 Q1883.44 1552.9 1885.34 1550.61 Q1887.24 1548.32 1890.62 1547.53 M1888.9 1540.14 Q1888.9 1542.83 1890.57 1544.33 Q1892.26 1545.84 1895.29 1545.84 Q1898.3 1545.84 1899.99 1544.33 Q1901.71 1542.83 1901.71 1540.14 Q1901.71 1537.46 1899.99 1535.96 Q1898.3 1534.45 1895.29 1534.45 Q1892.26 1534.45 1890.57 1535.96 Q1888.9 1537.46 1888.9 1540.14 Z" fill="#000000" fill-rule="evenodd" fill-opacity="1" /><path clip-path="url(#clip140)" d="M 0 0 M1925.46 1534.45 Q1921.84 1534.45 1920.02 1538.02 Q1918.21 1541.56 1918.21 1548.69 Q1918.21 1555.79 1920.02 1559.36 Q1921.84 1562.9 1925.46 1562.9 Q1929.09 1562.9 1930.89 1559.36 Q1932.72 1555.79 1932.72 1548.69 Q1932.72 1541.56 1930.89 1538.02 Q1929.09 1534.45 1925.46 1534.45 M1925.46 1530.75 Q1931.27 1530.75 1934.32 1535.35 Q1937.4 1539.94 1937.4 1548.69 Q1937.4 1557.41 1934.32 1562.02 Q1931.27 1566.6 1925.46 1566.6 Q1919.65 1566.6 1916.57 1562.02 Q1913.51 1557.41 1913.51 1548.69 Q1913.51 1539.94 1916.57 1535.35 Q1919.65 1530.75 1925.46 1530.75 Z" fill="#000000" fill-rule="evenodd" fill-opacity="1" /><path clip-path="url(#clip140)" d="M 0 0 M2113.02 1565.21 L2113.02 1560.96 Q2114.78 1561.79 2116.59 1562.23 Q2118.39 1562.67 2120.13 1562.67 Q2124.76 1562.67 2127.19 1559.57 Q2129.64 1556.44 2129.99 1550.1 Q2128.65 1552.09 2126.59 1553.15 Q2124.53 1554.22 2122.03 1554.22 Q2116.84 1554.22 2113.81 1551.09 Q2110.8 1547.95 2110.8 1542.51 Q2110.8 1537.18 2113.95 1533.96 Q2117.1 1530.75 2122.33 1530.75 Q2128.33 1530.75 2131.47 1535.35 Q2134.64 1539.94 2134.64 1548.69 Q2134.64 1556.86 2130.76 1561.74 Q2126.89 1566.6 2120.34 1566.6 Q2118.58 1566.6 2116.77 1566.26 Q2114.97 1565.91 2113.02 1565.21 M2122.33 1550.56 Q2125.48 1550.56 2127.31 1548.41 Q2129.16 1546.26 2129.16 1542.51 Q2129.16 1538.78 2127.31 1536.63 Q2125.48 1534.45 2122.33 1534.45 Q2119.18 1534.45 2117.33 1536.63 Q2115.5 1538.78 2115.5 1542.51 Q2115.5 1546.26 2117.33 1548.41 Q2119.18 1550.56 2122.33 1550.56 Z" fill="#000000" fill-rule="evenodd" fill-opacity="1" /><path clip-path="url(#clip140)" d="M 0 0 M2153.63 1546.79 Q2150.48 1546.79 2148.63 1548.94 Q2146.8 1551.09 2146.8 1554.84 Q2146.8 1558.57 2148.63 1560.75 Q2150.48 1562.9 2153.63 1562.9 Q2156.77 1562.9 2158.6 1560.75 Q2160.45 1558.57 2160.45 1554.84 Q2160.45 1551.09 2158.6 1548.94 Q2156.77 1546.79 2153.63 1546.79 M2162.91 1532.14 L2162.91 1536.39 Q2161.15 1535.56 2159.34 1535.12 Q2157.56 1534.68 2155.8 1534.68 Q2151.17 1534.68 2148.72 1537.81 Q2146.29 1540.93 2145.94 1547.25 Q2147.31 1545.24 2149.37 1544.17 Q2151.43 1543.08 2153.9 1543.08 Q2159.11 1543.08 2162.12 1546.26 Q2165.15 1549.4 2165.15 1554.84 Q2165.15 1560.17 2162.01 1563.39 Q2158.86 1566.6 2153.63 1566.6 Q2147.63 1566.6 2144.46 1562.02 Q2141.29 1557.41 2141.29 1548.69 Q2141.29 1540.49 2145.18 1535.63 Q2149.07 1530.75 2155.62 1530.75 Q2157.38 1530.75 2159.16 1531.09 Q2160.96 1531.44 2162.91 1532.14 Z" fill="#000000" fill-rule="evenodd" fill-opacity="1" /><path clip-path="url(#clip140)" d="M 0 0 M1078.3 1607.89 L1078.3 1625.74 L1086.38 1625.74 Q1090.87 1625.74 1093.32 1623.42 Q1095.77 1621.1 1095.77 1616.8 Q1095.77 1612.53 1093.32 1610.21 Q1090.87 1607.89 1086.38 1607.89 L1078.3 1607.89 M1071.87 1602.6 L1086.38 1602.6 Q1094.37 1602.6 1098.44 1606.23 Q1102.55 1609.83 1102.55 1616.8 Q1102.55 1623.83 1098.44 1627.43 Q1094.37 1631.03 1086.38 1631.03 L1078.3 1631.03 L1078.3 1650.12 L1071.87 1650.12 L1071.87 1602.6 Z" fill="#000000" fill-rule="evenodd" fill-opacity="1" /><path clip-path="url(#clip140)" d="M 0 0 M1130.43 1619.95 Q1129.45 1619.38 1128.27 1619.12 Q1127.12 1618.84 1125.72 1618.84 Q1120.76 1618.84 1118.08 1622.08 Q1115.44 1625.3 1115.44 1631.35 L1115.44 1650.12 L1109.55 1650.12 L1109.55 1614.48 L1115.44 1614.48 L1115.44 1620.01 Q1117.29 1616.77 1120.25 1615.21 Q1123.21 1613.62 1127.44 1613.62 Q1128.05 1613.62 1128.78 1613.71 Q1129.51 1613.78 1130.4 1613.93 L1130.43 1619.95 Z" fill="#000000" fill-rule="evenodd" fill-opacity="1" /><path clip-path="url(#clip140)" d="M 0 0 M1148.96 1618.58 Q1144.25 1618.58 1141.51 1622.27 Q1138.77 1625.93 1138.77 1632.33 Q1138.77 1638.73 1141.48 1642.42 Q1144.21 1646.08 1148.96 1646.08 Q1153.64 1646.08 1156.37 1642.39 Q1159.11 1638.7 1159.11 1632.33 Q1159.11 1626 1156.37 1622.31 Q1153.64 1618.58 1148.96 1618.58 M1148.96 1613.62 Q1156.6 1613.62 1160.96 1618.58 Q1165.32 1623.55 1165.32 1632.33 Q1165.32 1641.08 1160.96 1646.08 Q1156.6 1651.05 1148.96 1651.05 Q1141.29 1651.05 1136.93 1646.08 Q1132.6 1641.08 1132.6 1632.33 Q1132.6 1623.55 1136.93 1618.58 Q1141.29 1613.62 1148.96 1613.62 Z" fill="#000000" fill-rule="evenodd" fill-opacity="1" /><path clip-path="url(#clip140)" d="M 0 0 M1200.68 1615.84 L1200.68 1621.32 Q1198.2 1619.95 1195.68 1619.28 Q1193.2 1618.58 1190.65 1618.58 Q1184.95 1618.58 1181.8 1622.21 Q1178.65 1625.81 1178.65 1632.33 Q1178.65 1638.86 1181.8 1642.48 Q1184.95 1646.08 1190.65 1646.08 Q1193.2 1646.08 1195.68 1645.41 Q1198.2 1644.71 1200.68 1643.34 L1200.68 1648.76 Q1198.23 1649.9 1195.59 1650.47 Q1192.98 1651.05 1190.02 1651.05 Q1181.96 1651.05 1177.22 1645.99 Q1172.48 1640.93 1172.48 1632.33 Q1172.48 1623.61 1177.25 1618.61 Q1182.06 1613.62 1190.4 1613.62 Q1193.1 1613.62 1195.68 1614.19 Q1198.26 1614.73 1200.68 1615.84 Z" fill="#000000" fill-rule="evenodd" fill-opacity="1" /><path clip-path="url(#clip140)" d="M 0 0 M1241.35 1630.84 L1241.35 1633.7 L1214.43 1633.7 Q1214.81 1639.75 1218.06 1642.93 Q1221.33 1646.08 1227.16 1646.08 Q1230.53 1646.08 1233.68 1645.25 Q1236.87 1644.43 1239.99 1642.77 L1239.99 1648.31 Q1236.84 1649.65 1233.52 1650.35 Q1230.21 1651.05 1226.81 1651.05 Q1218.28 1651.05 1213.28 1646.08 Q1208.32 1641.12 1208.32 1632.65 Q1208.32 1623.9 1213.03 1618.77 Q1217.77 1613.62 1225.79 1613.62 Q1232.98 1613.62 1237.15 1618.26 Q1241.35 1622.88 1241.35 1630.84 M1235.5 1629.12 Q1235.43 1624.31 1232.79 1621.45 Q1230.18 1618.58 1225.85 1618.58 Q1220.95 1618.58 1217.99 1621.35 Q1215.06 1624.12 1214.62 1629.15 L1235.5 1629.12 Z" fill="#000000" fill-rule="evenodd" fill-opacity="1" /><path clip-path="url(#clip140)" d="M 0 0 M1273.69 1615.53 L1273.69 1621.06 Q1271.21 1619.79 1268.54 1619.15 Q1265.86 1618.52 1263 1618.52 Q1258.64 1618.52 1256.44 1619.85 Q1254.28 1621.19 1254.28 1623.87 Q1254.28 1625.9 1255.84 1627.08 Q1257.4 1628.23 1262.11 1629.28 L1264.11 1629.72 Q1270.35 1631.06 1272.96 1633.51 Q1275.6 1635.93 1275.6 1640.29 Q1275.6 1645.25 1271.66 1648.15 Q1267.74 1651.05 1260.87 1651.05 Q1258 1651.05 1254.88 1650.47 Q1251.79 1649.93 1248.36 1648.82 L1248.36 1642.77 Q1251.6 1644.46 1254.75 1645.32 Q1257.91 1646.15 1260.99 1646.15 Q1265.13 1646.15 1267.36 1644.74 Q1269.59 1643.31 1269.59 1640.73 Q1269.59 1638.35 1267.96 1637.07 Q1266.37 1635.8 1260.93 1634.62 L1258.89 1634.15 Q1253.45 1633 1251.03 1630.64 Q1248.61 1628.26 1248.61 1624.12 Q1248.61 1619.09 1252.18 1616.35 Q1255.74 1613.62 1262.3 1613.62 Q1265.54 1613.62 1268.41 1614.09 Q1271.27 1614.57 1273.69 1615.53 Z" fill="#000000" fill-rule="evenodd" fill-opacity="1" /><path clip-path="url(#clip140)" d="M 0 0 M1307.65 1615.53 L1307.65 1621.06 Q1305.17 1619.79 1302.5 1619.15 Q1299.82 1618.52 1296.96 1618.52 Q1292.6 1618.52 1290.4 1619.85 Q1288.24 1621.19 1288.24 1623.87 Q1288.24 1625.9 1289.8 1627.08 Q1291.36 1628.23 1296.07 1629.28 L1298.07 1629.72 Q1304.31 1631.06 1306.92 1633.51 Q1309.56 1635.93 1309.56 1640.29 Q1309.56 1645.25 1305.62 1648.15 Q1301.7 1651.05 1294.83 1651.05 Q1291.96 1651.05 1288.84 1650.47 Q1285.76 1649.93 1282.32 1648.82 L1282.32 1642.77 Q1285.56 1644.46 1288.72 1645.32 Q1291.87 1646.15 1294.95 1646.15 Q1299.09 1646.15 1301.32 1644.74 Q1303.55 1643.31 1303.55 1640.73 Q1303.55 1638.35 1301.92 1637.07 Q1300.33 1635.8 1294.89 1634.62 L1292.85 1634.15 Q1287.41 1633 1284.99 1630.64 Q1282.57 1628.26 1282.57 1624.12 Q1282.57 1619.09 1286.14 1616.35 Q1289.7 1613.62 1296.26 1613.62 Q1299.51 1613.62 1302.37 1614.09 Q1305.23 1614.57 1307.65 1615.53 Z" fill="#000000" fill-rule="evenodd" fill-opacity="1" /><path clip-path="url(#clip140)" d="M 0 0 M1349.38 1630.84 L1349.38 1633.7 L1322.45 1633.7 Q1322.84 1639.75 1326.08 1642.93 Q1329.36 1646.08 1335.19 1646.08 Q1338.56 1646.08 1341.71 1645.25 Q1344.89 1644.43 1348.01 1642.77 L1348.01 1648.31 Q1344.86 1649.65 1341.55 1650.35 Q1338.24 1651.05 1334.84 1651.05 Q1326.31 1651.05 1321.31 1646.08 Q1316.34 1641.12 1316.34 1632.65 Q1316.34 1623.9 1321.05 1618.77 Q1325.8 1613.62 1333.82 1613.62 Q1341.01 1613.62 1345.18 1618.26 Q1349.38 1622.88 1349.38 1630.84 M1343.52 1629.12 Q1343.46 1624.31 1340.82 1621.45 Q1338.21 1618.58 1333.88 1618.58 Q1328.98 1618.58 1326.02 1621.35 Q1323.09 1624.12 1322.64 1629.15 L1343.52 1629.12 Z" fill="#000000" fill-rule="evenodd" fill-opacity="1" /><path clip-path="url(#clip140)" d="M 0 0 M1381.72 1615.53 L1381.72 1621.06 Q1379.24 1619.79 1376.56 1619.15 Q1373.89 1618.52 1371.02 1618.52 Q1366.66 1618.52 1364.47 1619.85 Q1362.3 1621.19 1362.3 1623.87 Q1362.3 1625.9 1363.86 1627.08 Q1365.42 1628.23 1370.13 1629.28 L1372.14 1629.72 Q1378.38 1631.06 1380.99 1633.51 Q1383.63 1635.93 1383.63 1640.29 Q1383.63 1645.25 1379.68 1648.15 Q1375.77 1651.05 1368.89 1651.05 Q1366.03 1651.05 1362.91 1650.47 Q1359.82 1649.93 1356.38 1648.82 L1356.38 1642.77 Q1359.63 1644.46 1362.78 1645.32 Q1365.93 1646.15 1369.02 1646.15 Q1373.16 1646.15 1375.38 1644.74 Q1377.61 1643.31 1377.61 1640.73 Q1377.61 1638.35 1375.99 1637.07 Q1374.4 1635.8 1368.96 1634.62 L1366.92 1634.15 Q1361.48 1633 1359.06 1630.64 Q1356.64 1628.26 1356.64 1624.12 Q1356.64 1619.09 1360.2 1616.35 Q1363.77 1613.62 1370.32 1613.62 Q1373.57 1613.62 1376.44 1614.09 Q1379.3 1614.57 1381.72 1615.53 Z" fill="#000000" fill-rule="evenodd" fill-opacity="1" /><polyline clip-path="url(#clip142)" style="stroke:#000000; stroke-width:2; stroke-opacity:0.1; fill:none" points="
  102.74,1464 2352.76,1464 
  "/>
<polyline clip-path="url(#clip142)" style="stroke:#000000; stroke-width:2; stroke-opacity:0.1; fill:none" points="
  102.74,1255.04 2352.76,1255.04 
  "/>
<polyline clip-path="url(#clip142)" style="stroke:#000000; stroke-width:2; stroke-opacity:0.1; fill:none" points="
  102.74,1046.08 2352.76,1046.08 
  "/>
<polyline clip-path="url(#clip142)" style="stroke:#000000; stroke-width:2; stroke-opacity:0.1; fill:none" points="
  102.74,837.121 2352.76,837.121 
  "/>
<polyline clip-path="url(#clip142)" style="stroke:#000000; stroke-width:2; stroke-opacity:0.1; fill:none" points="
  102.74,628.163 2352.76,628.163 
  "/>
<polyline clip-path="url(#clip142)" style="stroke:#000000; stroke-width:2; stroke-opacity:0.1; fill:none" points="
  102.74,419.206 2352.76,419.206 
  "/>
<polyline clip-path="url(#clip142)" style="stroke:#000000; stroke-width:2; stroke-opacity:0.1; fill:none" points="
  102.74,210.248 2352.76,210.248 
  "/>
<polyline clip-path="url(#clip140)" style="stroke:#000000; stroke-width:4; stroke-opacity:1; fill:none" points="
  102.74,1505.26 102.74,47.2441 
  "/>
<polyline clip-path="url(#clip140)" style="stroke:#000000; stroke-width:4; stroke-opacity:1; fill:none" points="
  102.74,1464 129.74,1464 
  "/>
<polyline clip-path="url(#clip140)" style="stroke:#000000; stroke-width:4; stroke-opacity:1; fill:none" points="
  102.74,1255.04 129.74,1255.04 
  "/>
<polyline clip-path="url(#clip140)" style="stroke:#000000; stroke-width:4; stroke-opacity:1; fill:none" points="
  102.74,1046.08 129.74,1046.08 
  "/>
<polyline clip-path="url(#clip140)" style="stroke:#000000; stroke-width:4; stroke-opacity:1; fill:none" points="
  102.74,837.121 129.74,837.121 
  "/>
<polyline clip-path="url(#clip140)" style="stroke:#000000; stroke-width:4; stroke-opacity:1; fill:none" points="
  102.74,628.163 129.74,628.163 
  "/>
<polyline clip-path="url(#clip140)" style="stroke:#000000; stroke-width:4; stroke-opacity:1; fill:none" points="
  102.74,419.206 129.74,419.206 
  "/>
<polyline clip-path="url(#clip140)" style="stroke:#000000; stroke-width:4; stroke-opacity:1; fill:none" points="
  102.74,210.248 129.74,210.248 
  "/>
<path clip-path="url(#clip140)" d="M 0 0 M54.7958 1449.79 Q51.1847 1449.79 49.356 1453.36 Q47.5504 1456.9 47.5504 1464.03 Q47.5504 1471.14 49.356 1474.7 Q51.1847 1478.24 54.7958 1478.24 Q58.43 1478.24 60.2356 1474.7 Q62.0643 1471.14 62.0643 1464.03 Q62.0643 1456.9 60.2356 1453.36 Q58.43 1449.79 54.7958 1449.79 M54.7958 1446.09 Q60.6059 1446.09 63.6615 1450.7 Q66.7402 1455.28 66.7402 1464.03 Q66.7402 1472.76 63.6615 1477.36 Q60.6059 1481.95 54.7958 1481.95 Q48.9856 1481.95 45.9069 1477.36 Q42.8514 1472.76 42.8514 1464.03 Q42.8514 1455.28 45.9069 1450.7 Q48.9856 1446.09 54.7958 1446.09 Z" fill="#000000" fill-rule="evenodd" fill-opacity="1" /><path clip-path="url(#clip140)" d="M 0 0 M-147.078 1274.83 L-130.759 1274.83 L-130.759 1278.76 L-152.703 1278.76 L-152.703 1274.83 Q-150.041 1272.08 -145.458 1267.45 Q-140.851 1262.79 -139.671 1261.45 Q-137.425 1258.93 -136.546 1257.19 Q-135.643 1255.43 -135.643 1253.74 Q-135.643 1250.99 -137.587 1249.25 Q-139.509 1247.52 -142.611 1247.52 Q-144.81 1247.52 -147.263 1248.28 Q-149.694 1249.04 -152.472 1250.59 L-152.472 1245.87 Q-149.648 1244.74 -147.194 1244.16 Q-144.74 1243.58 -142.703 1243.58 Q-137.333 1243.58 -134.138 1246.27 Q-130.944 1248.95 -130.944 1253.44 Q-130.944 1255.57 -131.754 1257.49 Q-132.541 1259.39 -134.648 1261.98 Q-135.226 1262.65 -138.328 1265.87 Q-141.43 1269.07 -147.078 1274.83 Z" fill="#000000" fill-rule="evenodd" fill-opacity="1" /><path clip-path="url(#clip140)" d="M 0 0 M-120.944 1272.89 L-116.06 1272.89 L-116.06 1278.76 L-120.944 1278.76 L-120.944 1272.89 Z" fill="#000000" fill-rule="evenodd" fill-opacity="1" /><path clip-path="url(#clip140)" d="M 0 0 M-95.8747 1247.28 Q-99.4858 1247.28 -101.314 1250.85 Q-103.12 1254.39 -103.12 1261.52 Q-103.12 1268.63 -101.314 1272.19 Q-99.4858 1275.73 -95.8747 1275.73 Q-92.2405 1275.73 -90.4349 1272.19 Q-88.6062 1268.63 -88.6062 1261.52 Q-88.6062 1254.39 -90.4349 1250.85 Q-92.2405 1247.28 -95.8747 1247.28 M-95.8747 1243.58 Q-90.0646 1243.58 -87.009 1248.19 Q-83.9303 1252.77 -83.9303 1261.52 Q-83.9303 1270.25 -87.009 1274.85 Q-90.0646 1279.44 -95.8747 1279.44 Q-101.685 1279.44 -104.764 1274.85 Q-107.819 1270.25 -107.819 1261.52 Q-107.819 1252.77 -104.764 1248.19 Q-101.685 1243.58 -95.8747 1243.58 Z" fill="#000000" fill-rule="evenodd" fill-opacity="1" /><path clip-path="url(#clip140)" d="M 0 0 M-65.7128 1247.28 Q-69.3239 1247.28 -71.1526 1250.85 Q-72.9582 1254.39 -72.9582 1261.52 Q-72.9582 1268.63 -71.1526 1272.19 Q-69.3239 1275.73 -65.7128 1275.73 Q-62.0786 1275.73 -60.2731 1272.19 Q-58.4444 1268.63 -58.4444 1261.52 Q-58.4444 1254.39 -60.2731 1250.85 Q-62.0786 1247.28 -65.7128 1247.28 M-65.7128 1243.58 Q-59.9027 1243.58 -56.8471 1248.19 Q-53.7685 1252.77 -53.7685 1261.52 Q-53.7685 1270.25 -56.8471 1274.85 Q-59.9027 1279.44 -65.7128 1279.44 Q-71.523 1279.44 -74.6017 1274.85 Q-77.6572 1270.25 -77.6572 1261.52 Q-77.6572 1252.77 -74.6017 1248.19 Q-71.523 1243.58 -65.7128 1243.58 Z" fill="#000000" fill-rule="evenodd" fill-opacity="1" /><path clip-path="url(#clip140)" d="M 0 0 M-17.3798 1253.3 L-27.9584 1263.93 L-17.3798 1274.51 L-20.1344 1277.31 L-30.7593 1266.68 L-41.3843 1277.31 L-44.1157 1274.51 L-33.5602 1263.93 L-44.1157 1253.3 L-41.3843 1250.5 L-30.7593 1261.13 L-20.1344 1250.5 L-17.3798 1253.3 Z" fill="#000000" fill-rule="evenodd" fill-opacity="1" /><path clip-path="url(#clip140)" d="M 0 0 M-5.01872 1274.83 L2.62013 1274.83 L2.62013 1248.46 L-5.69001 1250.13 L-5.69001 1245.87 L2.57383 1244.2 L7.24974 1244.2 L7.24974 1274.83 L14.8886 1274.83 L14.8886 1278.76 L-5.01872 1278.76 L-5.01872 1274.83 Z" fill="#000000" fill-rule="evenodd" fill-opacity="1" /><path clip-path="url(#clip140)" d="M 0 0 M34.3329 1247.28 Q30.7218 1247.28 28.8931 1250.85 Q27.0876 1254.39 27.0876 1261.52 Q27.0876 1268.63 28.8931 1272.19 Q30.7218 1275.73 34.3329 1275.73 Q37.9672 1275.73 39.7727 1272.19 Q41.6014 1268.63 41.6014 1261.52 Q41.6014 1254.39 39.7727 1250.85 Q37.9672 1247.28 34.3329 1247.28 M34.3329 1243.58 Q40.1431 1243.58 43.1986 1248.19 Q46.2773 1252.77 46.2773 1261.52 Q46.2773 1270.25 43.1986 1274.85 Q40.1431 1279.44 34.3329 1279.44 Q28.5228 1279.44 25.4441 1274.85 Q22.3885 1270.25 22.3885 1261.52 Q22.3885 1252.77 25.4441 1248.19 Q28.5228 1243.58 34.3329 1243.58 Z" fill="#000000" fill-rule="evenodd" fill-opacity="1" /><path clip-path="url(#clip140)" d="M 0 0 M58.9537 1226.58 L49.3618 1241.57 L58.9537 1241.57 L58.9537 1226.58 M57.9569 1223.27 L62.7341 1223.27 L62.7341 1241.57 L66.7402 1241.57 L66.7402 1244.73 L62.7341 1244.73 L62.7341 1251.35 L58.9537 1251.35 L58.9537 1244.73 L46.2773 1244.73 L46.2773 1241.07 L57.9569 1223.27 Z" fill="#000000" fill-rule="evenodd" fill-opacity="1" /><path clip-path="url(#clip140)" d="M 0 0 M-138.259 1039.32 L-150.064 1057.77 L-138.259 1057.77 L-138.259 1039.32 M-139.486 1035.25 L-133.606 1035.25 L-133.606 1057.77 L-128.675 1057.77 L-128.675 1061.66 L-133.606 1061.66 L-133.606 1069.81 L-138.259 1069.81 L-138.259 1061.66 L-153.861 1061.66 L-153.861 1057.14 L-139.486 1035.25 Z" fill="#000000" fill-rule="evenodd" fill-opacity="1" /><path clip-path="url(#clip140)" d="M 0 0 M-120.944 1063.93 L-116.06 1063.93 L-116.06 1069.81 L-120.944 1069.81 L-120.944 1063.93 Z" fill="#000000" fill-rule="evenodd" fill-opacity="1" /><path clip-path="url(#clip140)" d="M 0 0 M-95.8747 1038.33 Q-99.4858 1038.33 -101.314 1041.89 Q-103.12 1045.43 -103.12 1052.56 Q-103.12 1059.67 -101.314 1063.23 Q-99.4858 1066.77 -95.8747 1066.77 Q-92.2405 1066.77 -90.4349 1063.23 Q-88.6062 1059.67 -88.6062 1052.56 Q-88.6062 1045.43 -90.4349 1041.89 Q-92.2405 1038.33 -95.8747 1038.33 M-95.8747 1034.62 Q-90.0646 1034.62 -87.009 1039.23 Q-83.9303 1043.81 -83.9303 1052.56 Q-83.9303 1061.29 -87.009 1065.89 Q-90.0646 1070.48 -95.8747 1070.48 Q-101.685 1070.48 -104.764 1065.89 Q-107.819 1061.29 -107.819 1052.56 Q-107.819 1043.81 -104.764 1039.23 Q-101.685 1034.62 -95.8747 1034.62 Z" fill="#000000" fill-rule="evenodd" fill-opacity="1" /><path clip-path="url(#clip140)" d="M 0 0 M-65.7128 1038.33 Q-69.3239 1038.33 -71.1526 1041.89 Q-72.9582 1045.43 -72.9582 1052.56 Q-72.9582 1059.67 -71.1526 1063.23 Q-69.3239 1066.77 -65.7128 1066.77 Q-62.0786 1066.77 -60.2731 1063.23 Q-58.4444 1059.67 -58.4444 1052.56 Q-58.4444 1045.43 -60.2731 1041.89 Q-62.0786 1038.33 -65.7128 1038.33 M-65.7128 1034.62 Q-59.9027 1034.62 -56.8471 1039.23 Q-53.7685 1043.81 -53.7685 1052.56 Q-53.7685 1061.29 -56.8471 1065.89 Q-59.9027 1070.48 -65.7128 1070.48 Q-71.523 1070.48 -74.6017 1065.89 Q-77.6572 1061.29 -77.6572 1052.56 Q-77.6572 1043.81 -74.6017 1039.23 Q-71.523 1034.62 -65.7128 1034.62 Z" fill="#000000" fill-rule="evenodd" fill-opacity="1" /><path clip-path="url(#clip140)" d="M 0 0 M-17.3798 1044.34 L-27.9584 1054.97 L-17.3798 1065.55 L-20.1344 1068.35 L-30.7593 1057.72 L-41.3843 1068.35 L-44.1157 1065.55 L-33.5602 1054.97 L-44.1157 1044.34 L-41.3843 1041.54 L-30.7593 1052.17 L-20.1344 1041.54 L-17.3798 1044.34 Z" fill="#000000" fill-rule="evenodd" fill-opacity="1" /><path clip-path="url(#clip140)" d="M 0 0 M-5.01872 1065.87 L2.62013 1065.87 L2.62013 1039.51 L-5.69001 1041.17 L-5.69001 1036.91 L2.57383 1035.25 L7.24974 1035.25 L7.24974 1065.87 L14.8886 1065.87 L14.8886 1069.81 L-5.01872 1069.81 L-5.01872 1065.87 Z" fill="#000000" fill-rule="evenodd" fill-opacity="1" /><path clip-path="url(#clip140)" d="M 0 0 M34.3329 1038.33 Q30.7218 1038.33 28.8931 1041.89 Q27.0876 1045.43 27.0876 1052.56 Q27.0876 1059.67 28.8931 1063.23 Q30.7218 1066.77 34.3329 1066.77 Q37.9672 1066.77 39.7727 1063.23 Q41.6014 1059.67 41.6014 1052.56 Q41.6014 1045.43 39.7727 1041.89 Q37.9672 1038.33 34.3329 1038.33 M34.3329 1034.62 Q40.1431 1034.62 43.1986 1039.23 Q46.2773 1043.81 46.2773 1052.56 Q46.2773 1061.29 43.1986 1065.89 Q40.1431 1070.48 34.3329 1070.48 Q28.5228 1070.48 25.4441 1065.89 Q22.3885 1061.29 22.3885 1052.56 Q22.3885 1043.81 25.4441 1039.23 Q28.5228 1034.62 34.3329 1034.62 Z" fill="#000000" fill-rule="evenodd" fill-opacity="1" /><path clip-path="url(#clip140)" d="M 0 0 M58.9537 1017.63 L49.3618 1032.62 L58.9537 1032.62 L58.9537 1017.63 M57.9569 1014.32 L62.7341 1014.32 L62.7341 1032.62 L66.7402 1032.62 L66.7402 1035.78 L62.7341 1035.78 L62.7341 1042.4 L58.9537 1042.4 L58.9537 1035.78 L46.2773 1035.78 L46.2773 1032.11 L57.9569 1014.32 Z" fill="#000000" fill-rule="evenodd" fill-opacity="1" /><path clip-path="url(#clip140)" d="M 0 0 M-140.527 841.706 Q-143.675 841.706 -145.527 843.858 Q-147.356 846.011 -147.356 849.761 Q-147.356 853.488 -145.527 855.664 Q-143.675 857.817 -140.527 857.817 Q-137.379 857.817 -135.55 855.664 Q-133.699 853.488 -133.699 849.761 Q-133.699 846.011 -135.55 843.858 Q-137.379 841.706 -140.527 841.706 M-131.245 827.053 L-131.245 831.312 Q-133.004 830.479 -134.81 830.039 Q-136.592 829.599 -138.351 829.599 Q-142.981 829.599 -145.435 832.724 Q-147.865 835.849 -148.212 842.169 Q-146.847 840.155 -144.786 839.09 Q-142.726 838.002 -140.249 838.002 Q-135.041 838.002 -132.032 841.173 Q-129 844.321 -129 849.761 Q-129 855.085 -132.148 858.303 Q-135.296 861.52 -140.527 861.52 Q-146.523 861.52 -149.694 856.937 Q-152.865 852.331 -152.865 843.604 Q-152.865 835.409 -148.976 830.548 Q-145.087 825.664 -138.537 825.664 Q-136.777 825.664 -134.995 826.011 Q-133.189 826.358 -131.245 827.053 Z" fill="#000000" fill-rule="evenodd" fill-opacity="1" /><path clip-path="url(#clip140)" d="M 0 0 M-120.944 854.969 L-116.06 854.969 L-116.06 860.849 L-120.944 860.849 L-120.944 854.969 Z" fill="#000000" fill-rule="evenodd" fill-opacity="1" /><path clip-path="url(#clip140)" d="M 0 0 M-95.8747 829.368 Q-99.4858 829.368 -101.314 832.933 Q-103.12 836.474 -103.12 843.604 Q-103.12 850.71 -101.314 854.275 Q-99.4858 857.817 -95.8747 857.817 Q-92.2405 857.817 -90.4349 854.275 Q-88.6062 850.71 -88.6062 843.604 Q-88.6062 836.474 -90.4349 832.933 Q-92.2405 829.368 -95.8747 829.368 M-95.8747 825.664 Q-90.0646 825.664 -87.009 830.27 Q-83.9303 834.854 -83.9303 843.604 Q-83.9303 852.331 -87.009 856.937 Q-90.0646 861.52 -95.8747 861.52 Q-101.685 861.52 -104.764 856.937 Q-107.819 852.331 -107.819 843.604 Q-107.819 834.854 -104.764 830.27 Q-101.685 825.664 -95.8747 825.664 Z" fill="#000000" fill-rule="evenodd" fill-opacity="1" /><path clip-path="url(#clip140)" d="M 0 0 M-65.7128 829.368 Q-69.3239 829.368 -71.1526 832.933 Q-72.9582 836.474 -72.9582 843.604 Q-72.9582 850.71 -71.1526 854.275 Q-69.3239 857.817 -65.7128 857.817 Q-62.0786 857.817 -60.2731 854.275 Q-58.4444 850.71 -58.4444 843.604 Q-58.4444 836.474 -60.2731 832.933 Q-62.0786 829.368 -65.7128 829.368 M-65.7128 825.664 Q-59.9027 825.664 -56.8471 830.27 Q-53.7685 834.854 -53.7685 843.604 Q-53.7685 852.331 -56.8471 856.937 Q-59.9027 861.52 -65.7128 861.52 Q-71.523 861.52 -74.6017 856.937 Q-77.6572 852.331 -77.6572 843.604 Q-77.6572 834.854 -74.6017 830.27 Q-71.523 825.664 -65.7128 825.664 Z" fill="#000000" fill-rule="evenodd" fill-opacity="1" /><path clip-path="url(#clip140)" d="M 0 0 M-17.3798 835.386 L-27.9584 846.011 L-17.3798 856.59 L-20.1344 859.391 L-30.7593 848.766 L-41.3843 859.391 L-44.1157 856.59 L-33.5602 846.011 L-44.1157 835.386 L-41.3843 832.585 L-30.7593 843.21 L-20.1344 832.585 L-17.3798 835.386 Z" fill="#000000" fill-rule="evenodd" fill-opacity="1" /><path clip-path="url(#clip140)" d="M 0 0 M-5.01872 856.914 L2.62013 856.914 L2.62013 830.548 L-5.69001 832.215 L-5.69001 827.956 L2.57383 826.289 L7.24974 826.289 L7.24974 856.914 L14.8886 856.914 L14.8886 860.849 L-5.01872 860.849 L-5.01872 856.914 Z" fill="#000000" fill-rule="evenodd" fill-opacity="1" /><path clip-path="url(#clip140)" d="M 0 0 M34.3329 829.368 Q30.7218 829.368 28.8931 832.933 Q27.0876 836.474 27.0876 843.604 Q27.0876 850.71 28.8931 854.275 Q30.7218 857.817 34.3329 857.817 Q37.9672 857.817 39.7727 854.275 Q41.6014 850.71 41.6014 843.604 Q41.6014 836.474 39.7727 832.933 Q37.9672 829.368 34.3329 829.368 M34.3329 825.664 Q40.1431 825.664 43.1986 830.27 Q46.2773 834.854 46.2773 843.604 Q46.2773 852.331 43.1986 856.937 Q40.1431 861.52 34.3329 861.52 Q28.5228 861.52 25.4441 856.937 Q22.3885 852.331 22.3885 843.604 Q22.3885 834.854 25.4441 830.27 Q28.5228 825.664 34.3329 825.664 Z" fill="#000000" fill-rule="evenodd" fill-opacity="1" /><path clip-path="url(#clip140)" d="M 0 0 M58.9537 808.669 L49.3618 823.659 L58.9537 823.659 L58.9537 808.669 M57.9569 805.359 L62.7341 805.359 L62.7341 823.659 L66.7402 823.659 L66.7402 826.818 L62.7341 826.818 L62.7341 833.439 L58.9537 833.439 L58.9537 826.818 L46.2773 826.818 L46.2773 823.151 L57.9569 805.359 Z" fill="#000000" fill-rule="evenodd" fill-opacity="1" /><path clip-path="url(#clip140)" d="M 0 0 M-141.106 635.479 Q-144.439 635.479 -146.361 637.262 Q-148.259 639.044 -148.259 642.169 Q-148.259 645.294 -146.361 647.076 Q-144.439 648.859 -141.106 648.859 Q-137.773 648.859 -135.851 647.076 Q-133.93 645.271 -133.93 642.169 Q-133.93 639.044 -135.851 637.262 Q-137.749 635.479 -141.106 635.479 M-145.782 633.488 Q-148.791 632.748 -150.481 630.687 Q-152.148 628.627 -152.148 625.664 Q-152.148 621.521 -149.208 619.113 Q-146.245 616.706 -141.106 616.706 Q-135.944 616.706 -133.004 619.113 Q-130.064 621.521 -130.064 625.664 Q-130.064 628.627 -131.754 630.687 Q-133.421 632.748 -136.407 633.488 Q-133.027 634.275 -131.152 636.567 Q-129.254 638.859 -129.254 642.169 Q-129.254 647.192 -132.333 649.877 Q-135.388 652.562 -141.106 652.562 Q-146.824 652.562 -149.902 649.877 Q-152.958 647.192 -152.958 642.169 Q-152.958 638.859 -151.06 636.567 Q-149.161 634.275 -145.782 633.488 M-147.495 626.104 Q-147.495 628.789 -145.828 630.294 Q-144.138 631.799 -141.106 631.799 Q-138.097 631.799 -136.407 630.294 Q-134.694 628.789 -134.694 626.104 Q-134.694 623.419 -136.407 621.914 Q-138.097 620.41 -141.106 620.41 Q-144.138 620.41 -145.828 621.914 Q-147.495 623.419 -147.495 626.104 Z" fill="#000000" fill-rule="evenodd" fill-opacity="1" /><path clip-path="url(#clip140)" d="M 0 0 M-120.944 646.011 L-116.06 646.011 L-116.06 651.891 L-120.944 651.891 L-120.944 646.011 Z" fill="#000000" fill-rule="evenodd" fill-opacity="1" /><path clip-path="url(#clip140)" d="M 0 0 M-95.8747 620.41 Q-99.4858 620.41 -101.314 623.975 Q-103.12 627.516 -103.12 634.646 Q-103.12 641.752 -101.314 645.317 Q-99.4858 648.859 -95.8747 648.859 Q-92.2405 648.859 -90.4349 645.317 Q-88.6062 641.752 -88.6062 634.646 Q-88.6062 627.516 -90.4349 623.975 Q-92.2405 620.41 -95.8747 620.41 M-95.8747 616.706 Q-90.0646 616.706 -87.009 621.313 Q-83.9303 625.896 -83.9303 634.646 Q-83.9303 643.373 -87.009 647.979 Q-90.0646 652.562 -95.8747 652.562 Q-101.685 652.562 -104.764 647.979 Q-107.819 643.373 -107.819 634.646 Q-107.819 625.896 -104.764 621.313 Q-101.685 616.706 -95.8747 616.706 Z" fill="#000000" fill-rule="evenodd" fill-opacity="1" /><path clip-path="url(#clip140)" d="M 0 0 M-65.7128 620.41 Q-69.3239 620.41 -71.1526 623.975 Q-72.9582 627.516 -72.9582 634.646 Q-72.9582 641.752 -71.1526 645.317 Q-69.3239 648.859 -65.7128 648.859 Q-62.0786 648.859 -60.2731 645.317 Q-58.4444 641.752 -58.4444 634.646 Q-58.4444 627.516 -60.2731 623.975 Q-62.0786 620.41 -65.7128 620.41 M-65.7128 616.706 Q-59.9027 616.706 -56.8471 621.313 Q-53.7685 625.896 -53.7685 634.646 Q-53.7685 643.373 -56.8471 647.979 Q-59.9027 652.562 -65.7128 652.562 Q-71.523 652.562 -74.6017 647.979 Q-77.6572 643.373 -77.6572 634.646 Q-77.6572 625.896 -74.6017 621.313 Q-71.523 616.706 -65.7128 616.706 Z" fill="#000000" fill-rule="evenodd" fill-opacity="1" /><path clip-path="url(#clip140)" d="M 0 0 M-17.3798 626.428 L-27.9584 637.053 L-17.3798 647.632 L-20.1344 650.433 L-30.7593 639.808 L-41.3843 650.433 L-44.1157 647.632 L-33.5602 637.053 L-44.1157 626.428 L-41.3843 623.627 L-30.7593 634.252 L-20.1344 623.627 L-17.3798 626.428 Z" fill="#000000" fill-rule="evenodd" fill-opacity="1" /><path clip-path="url(#clip140)" d="M 0 0 M-5.01872 647.956 L2.62013 647.956 L2.62013 621.59 L-5.69001 623.257 L-5.69001 618.998 L2.57383 617.331 L7.24974 617.331 L7.24974 647.956 L14.8886 647.956 L14.8886 651.891 L-5.01872 651.891 L-5.01872 647.956 Z" fill="#000000" fill-rule="evenodd" fill-opacity="1" /><path clip-path="url(#clip140)" d="M 0 0 M34.3329 620.41 Q30.7218 620.41 28.8931 623.975 Q27.0876 627.516 27.0876 634.646 Q27.0876 641.752 28.8931 645.317 Q30.7218 648.859 34.3329 648.859 Q37.9672 648.859 39.7727 645.317 Q41.6014 641.752 41.6014 634.646 Q41.6014 627.516 39.7727 623.975 Q37.9672 620.41 34.3329 620.41 M34.3329 616.706 Q40.1431 616.706 43.1986 621.313 Q46.2773 625.896 46.2773 634.646 Q46.2773 643.373 43.1986 647.979 Q40.1431 652.562 34.3329 652.562 Q28.5228 652.562 25.4441 647.979 Q22.3885 643.373 22.3885 634.646 Q22.3885 625.896 25.4441 621.313 Q28.5228 616.706 34.3329 616.706 Z" fill="#000000" fill-rule="evenodd" fill-opacity="1" /><path clip-path="url(#clip140)" d="M 0 0 M58.9537 599.711 L49.3618 614.701 L58.9537 614.701 L58.9537 599.711 M57.9569 596.401 L62.7341 596.401 L62.7341 614.701 L66.7402 614.701 L66.7402 617.86 L62.7341 617.86 L62.7341 624.481 L58.9537 624.481 L58.9537 617.86 L46.2773 617.86 L46.2773 614.193 L57.9569 596.401 Z" fill="#000000" fill-rule="evenodd" fill-opacity="1" /><path clip-path="url(#clip140)" d="M 0 0 M-148.001 438.998 L-140.362 438.998 L-140.362 412.632 L-148.672 414.299 L-148.672 410.04 L-140.409 408.373 L-135.733 408.373 L-135.733 438.998 L-128.094 438.998 L-128.094 442.933 L-148.001 442.933 L-148.001 438.998 Z" fill="#000000" fill-rule="evenodd" fill-opacity="1" /><path clip-path="url(#clip140)" d="M 0 0 M-118.649 437.054 L-113.765 437.054 L-113.765 442.933 L-118.649 442.933 L-118.649 437.054 Z" fill="#000000" fill-rule="evenodd" fill-opacity="1" /><path clip-path="url(#clip140)" d="M 0 0 M-93.5802 411.452 Q-97.1913 411.452 -99.0199 415.017 Q-100.825 418.558 -100.825 425.688 Q-100.825 432.794 -99.0199 436.359 Q-97.1913 439.901 -93.5802 439.901 Q-89.9459 439.901 -88.1404 436.359 Q-86.3117 432.794 -86.3117 425.688 Q-86.3117 418.558 -88.1404 415.017 Q-89.9459 411.452 -93.5802 411.452 M-93.5802 407.748 Q-87.77 407.748 -84.7145 412.355 Q-81.6358 416.938 -81.6358 425.688 Q-81.6358 434.415 -84.7145 439.021 Q-87.77 443.604 -93.5802 443.604 Q-99.3903 443.604 -102.469 439.021 Q-105.525 434.415 -105.525 425.688 Q-105.525 416.938 -102.469 412.355 Q-99.3903 407.748 -93.5802 407.748 Z" fill="#000000" fill-rule="evenodd" fill-opacity="1" /><path clip-path="url(#clip140)" d="M 0 0 M-63.4183 411.452 Q-67.0294 411.452 -68.8581 415.017 Q-70.6636 418.558 -70.6636 425.688 Q-70.6636 432.794 -68.8581 436.359 Q-67.0294 439.901 -63.4183 439.901 Q-59.784 439.901 -57.9785 436.359 Q-56.1498 432.794 -56.1498 425.688 Q-56.1498 418.558 -57.9785 415.017 Q-59.784 411.452 -63.4183 411.452 M-63.4183 407.748 Q-57.6081 407.748 -54.5526 412.355 Q-51.4739 416.938 -51.4739 425.688 Q-51.4739 434.415 -54.5526 439.021 Q-57.6081 443.604 -63.4183 443.604 Q-69.2284 443.604 -72.3071 439.021 Q-75.3627 434.415 -75.3627 425.688 Q-75.3627 416.938 -72.3071 412.355 Q-69.2284 407.748 -63.4183 407.748 Z" fill="#000000" fill-rule="evenodd" fill-opacity="1" /><path clip-path="url(#clip140)" d="M 0 0 M-15.0852 417.47 L-25.6639 428.095 L-15.0852 438.674 L-17.8398 441.475 L-28.4648 430.85 L-39.0897 441.475 L-41.8212 438.674 L-31.2657 428.095 L-41.8212 417.47 L-39.0897 414.669 L-28.4648 425.294 L-17.8398 414.669 L-15.0852 417.47 Z" fill="#000000" fill-rule="evenodd" fill-opacity="1" /><path clip-path="url(#clip140)" d="M 0 0 M-2.72417 438.998 L4.91468 438.998 L4.91468 412.632 L-3.39546 414.299 L-3.39546 410.04 L4.86838 408.373 L9.54428 408.373 L9.54428 438.998 L17.1831 438.998 L17.1831 442.933 L-2.72417 442.933 L-2.72417 438.998 Z" fill="#000000" fill-rule="evenodd" fill-opacity="1" /><path clip-path="url(#clip140)" d="M 0 0 M36.6275 411.452 Q33.0164 411.452 31.1877 415.017 Q29.3821 418.558 29.3821 425.688 Q29.3821 432.794 31.1877 436.359 Q33.0164 439.901 36.6275 439.901 Q40.2617 439.901 42.0673 436.359 Q43.896 432.794 43.896 425.688 Q43.896 418.558 42.0673 415.017 Q40.2617 411.452 36.6275 411.452 M36.6275 407.748 Q42.4376 407.748 45.4932 412.355 Q48.5719 416.938 48.5719 425.688 Q48.5719 434.415 45.4932 439.021 Q42.4376 443.604 36.6275 443.604 Q30.8173 443.604 27.7386 439.021 Q24.6831 434.415 24.6831 425.688 Q24.6831 416.938 27.7386 412.355 Q30.8173 407.748 36.6275 407.748 Z" fill="#000000" fill-rule="evenodd" fill-opacity="1" /><path clip-path="url(#clip140)" d="M 0 0 M49.7567 387.443 L64.6713 387.443 L64.6713 390.64 L53.2362 390.64 L53.2362 397.524 Q54.0637 397.242 54.8913 397.11 Q55.7188 396.959 56.5463 396.959 Q61.2483 396.959 63.9942 399.536 Q66.7402 402.113 66.7402 406.514 Q66.7402 411.046 63.919 413.567 Q61.0978 416.068 55.9633 416.068 Q54.1954 416.068 52.3522 415.767 Q50.5279 415.466 48.5719 414.864 L48.5719 411.046 Q50.2646 411.968 52.0701 412.419 Q53.8756 412.871 55.8881 412.871 Q59.1418 412.871 61.0414 411.159 Q62.941 409.448 62.941 406.514 Q62.941 403.58 61.0414 401.868 Q59.1418 400.157 55.8881 400.157 Q54.3646 400.157 52.8412 400.495 Q51.3366 400.834 49.7567 401.549 L49.7567 387.443 Z" fill="#000000" fill-rule="evenodd" fill-opacity="1" /><path clip-path="url(#clip140)" d="M 0 0 M-148.001 230.04 L-140.362 230.04 L-140.362 203.674 L-148.672 205.341 L-148.672 201.082 L-140.409 199.415 L-135.733 199.415 L-135.733 230.04 L-128.094 230.04 L-128.094 233.975 L-148.001 233.975 L-148.001 230.04 Z" fill="#000000" fill-rule="evenodd" fill-opacity="1" /><path clip-path="url(#clip140)" d="M 0 0 M-118.649 228.096 L-113.765 228.096 L-113.765 233.975 L-118.649 233.975 L-118.649 228.096 Z" fill="#000000" fill-rule="evenodd" fill-opacity="1" /><path clip-path="url(#clip140)" d="M 0 0 M-99.5524 230.04 L-83.233 230.04 L-83.233 233.975 L-105.177 233.975 L-105.177 230.04 Q-102.515 227.285 -97.932 222.656 Q-93.3255 218.003 -92.145 216.66 Q-89.8996 214.137 -89.02 212.401 Q-88.1172 210.642 -88.1172 208.952 Q-88.1172 206.198 -90.0617 204.461 Q-91.983 202.725 -95.0848 202.725 Q-97.2838 202.725 -99.7375 203.489 Q-102.168 204.253 -104.946 205.804 L-104.946 201.082 Q-102.122 199.948 -99.6681 199.369 Q-97.2144 198.79 -95.1774 198.79 Q-89.807 198.79 -86.6126 201.475 Q-83.4182 204.161 -83.4182 208.651 Q-83.4182 210.781 -84.2284 212.702 Q-85.0154 214.6 -87.1219 217.193 Q-87.7006 217.864 -90.8024 221.082 Q-93.9042 224.276 -99.5524 230.04 Z" fill="#000000" fill-rule="evenodd" fill-opacity="1" /><path clip-path="url(#clip140)" d="M 0 0 M-63.4183 202.494 Q-67.0294 202.494 -68.8581 206.059 Q-70.6636 209.6 -70.6636 216.73 Q-70.6636 223.836 -68.8581 227.401 Q-67.0294 230.943 -63.4183 230.943 Q-59.784 230.943 -57.9785 227.401 Q-56.1498 223.836 -56.1498 216.73 Q-56.1498 209.6 -57.9785 206.059 Q-59.784 202.494 -63.4183 202.494 M-63.4183 198.79 Q-57.6081 198.79 -54.5526 203.397 Q-51.4739 207.98 -51.4739 216.73 Q-51.4739 225.457 -54.5526 230.063 Q-57.6081 234.646 -63.4183 234.646 Q-69.2284 234.646 -72.3071 230.063 Q-75.3627 225.457 -75.3627 216.73 Q-75.3627 207.98 -72.3071 203.397 Q-69.2284 198.79 -63.4183 198.79 Z" fill="#000000" fill-rule="evenodd" fill-opacity="1" /><path clip-path="url(#clip140)" d="M 0 0 M-15.0852 208.512 L-25.6639 219.137 L-15.0852 229.716 L-17.8398 232.517 L-28.4648 221.892 L-39.0897 232.517 L-41.8212 229.716 L-31.2657 219.137 L-41.8212 208.512 L-39.0897 205.711 L-28.4648 216.336 L-17.8398 205.711 L-15.0852 208.512 Z" fill="#000000" fill-rule="evenodd" fill-opacity="1" /><path clip-path="url(#clip140)" d="M 0 0 M-2.72417 230.04 L4.91468 230.04 L4.91468 203.674 L-3.39546 205.341 L-3.39546 201.082 L4.86838 199.415 L9.54428 199.415 L9.54428 230.04 L17.1831 230.04 L17.1831 233.975 L-2.72417 233.975 L-2.72417 230.04 Z" fill="#000000" fill-rule="evenodd" fill-opacity="1" /><path clip-path="url(#clip140)" d="M 0 0 M36.6275 202.494 Q33.0164 202.494 31.1877 206.059 Q29.3821 209.6 29.3821 216.73 Q29.3821 223.836 31.1877 227.401 Q33.0164 230.943 36.6275 230.943 Q40.2617 230.943 42.0673 227.401 Q43.896 223.836 43.896 216.73 Q43.896 209.6 42.0673 206.059 Q40.2617 202.494 36.6275 202.494 M36.6275 198.79 Q42.4376 198.79 45.4932 203.397 Q48.5719 207.98 48.5719 216.73 Q48.5719 225.457 45.4932 230.063 Q42.4376 234.646 36.6275 234.646 Q30.8173 234.646 27.7386 230.063 Q24.6831 225.457 24.6831 216.73 Q24.6831 207.98 27.7386 203.397 Q30.8173 198.79 36.6275 198.79 Z" fill="#000000" fill-rule="evenodd" fill-opacity="1" /><path clip-path="url(#clip140)" d="M 0 0 M49.7567 178.485 L64.6713 178.485 L64.6713 181.682 L53.2362 181.682 L53.2362 188.566 Q54.0637 188.284 54.8913 188.152 Q55.7188 188.002 56.5463 188.002 Q61.2483 188.002 63.9942 190.578 Q66.7402 193.155 66.7402 197.556 Q66.7402 202.089 63.919 204.609 Q61.0978 207.11 55.9633 207.11 Q54.1954 207.11 52.3522 206.809 Q50.5279 206.508 48.5719 205.907 L48.5719 202.089 Q50.2646 203.01 52.0701 203.462 Q53.8756 203.913 55.8881 203.913 Q59.1418 203.913 61.0414 202.201 Q62.941 200.49 62.941 197.556 Q62.941 194.622 61.0414 192.91 Q59.1418 191.199 55.8881 191.199 Q54.3646 191.199 52.8412 191.537 Q51.3366 191.876 49.7567 192.591 L49.7567 178.485 Z" fill="#000000" fill-rule="evenodd" fill-opacity="1" /><path clip-path="url(#clip140)" d="M 0 0 M-251.637 906.081 L-251.637 865.881 L-246.226 865.881 L-246.226 882.75 L-204.117 882.75 L-204.117 889.211 L-246.226 889.211 L-246.226 906.081 L-251.637 906.081 Z" fill="#000000" fill-rule="evenodd" fill-opacity="1" /><path clip-path="url(#clip140)" d="M 0 0 M-239.764 861.934 L-239.764 856.078 L-204.117 856.078 L-204.117 861.934 L-239.764 861.934 M-253.642 861.934 L-253.642 856.078 L-246.226 856.078 L-246.226 861.934 L-253.642 861.934 Z" fill="#000000" fill-rule="evenodd" fill-opacity="1" /><path clip-path="url(#clip140)" d="M 0 0 M-232.921 816.069 Q-236.868 813.873 -238.746 810.818 Q-240.624 807.762 -240.624 803.625 Q-240.624 798.055 -236.709 795.031 Q-232.826 792.007 -225.633 792.007 L-204.117 792.007 L-204.117 797.895 L-225.442 797.895 Q-230.566 797.895 -233.049 799.71 Q-235.531 801.524 -235.531 805.248 Q-235.531 809.799 -232.508 812.441 Q-229.484 815.083 -224.264 815.083 L-204.117 815.083 L-204.117 820.971 L-225.442 820.971 Q-230.598 820.971 -233.049 822.785 Q-235.531 824.6 -235.531 828.387 Q-235.531 832.875 -232.476 835.517 Q-229.452 838.158 -224.264 838.158 L-204.117 838.158 L-204.117 844.047 L-239.764 844.047 L-239.764 838.158 L-234.226 838.158 Q-237.505 836.153 -239.064 833.352 Q-240.624 830.551 -240.624 826.7 Q-240.624 822.817 -238.65 820.112 Q-236.677 817.374 -232.921 816.069 Z" fill="#000000" fill-rule="evenodd" fill-opacity="1" /><path clip-path="url(#clip140)" d="M 0 0 M-223.405 749.834 L-220.54 749.834 L-220.54 776.761 Q-214.493 776.379 -211.31 773.133 Q-208.159 769.854 -208.159 764.03 Q-208.159 760.656 -208.986 757.505 Q-209.814 754.322 -211.469 751.203 L-205.931 751.203 Q-204.594 754.354 -203.894 757.664 Q-203.193 760.974 -203.193 764.38 Q-203.193 772.91 -208.159 777.907 Q-213.124 782.872 -221.59 782.872 Q-230.343 782.872 -235.468 778.162 Q-240.624 773.419 -240.624 765.398 Q-240.624 758.205 -235.977 754.036 Q-231.362 749.834 -223.405 749.834 M-225.123 755.691 Q-229.929 755.754 -232.794 758.396 Q-235.659 761.006 -235.659 765.335 Q-235.659 770.236 -232.89 773.196 Q-230.12 776.125 -225.092 776.57 L-225.123 755.691 Z" fill="#000000" fill-rule="evenodd" fill-opacity="1" /><path clip-path="url(#clip140)" d="M 0 0 M-253.578 705.433 Q-246.257 709.699 -239.096 711.767 Q-231.935 713.836 -224.582 713.836 Q-217.23 713.836 -210.005 711.767 Q-202.812 709.667 -195.523 705.433 L-195.523 710.526 Q-203.003 715.3 -210.228 717.687 Q-217.453 720.043 -224.582 720.043 Q-231.68 720.043 -238.873 717.687 Q-246.067 715.332 -253.578 710.526 L-253.578 705.433 Z" fill="#000000" fill-rule="evenodd" fill-opacity="1" /><path clip-path="url(#clip140)" d="M 0 0 M-238.714 671.345 L-233.176 671.345 Q-234.449 673.828 -235.086 676.501 Q-235.722 679.175 -235.722 682.04 Q-235.722 686.4 -234.385 688.596 Q-233.049 690.761 -230.375 690.761 Q-228.338 690.761 -227.16 689.201 Q-226.015 687.641 -224.964 682.931 L-224.519 680.926 Q-223.182 674.687 -220.731 672.077 Q-218.312 669.435 -213.952 669.435 Q-208.986 669.435 -206.09 673.382 Q-203.193 677.297 -203.193 684.172 Q-203.193 687.037 -203.766 690.156 Q-204.307 693.243 -205.421 696.681 L-211.469 696.681 Q-209.782 693.434 -208.923 690.283 Q-208.095 687.132 -208.095 684.045 Q-208.095 679.907 -209.496 677.679 Q-210.928 675.451 -213.506 675.451 Q-215.893 675.451 -217.166 677.074 Q-218.439 678.666 -219.617 684.108 L-220.094 686.145 Q-221.24 691.588 -223.596 694.007 Q-225.983 696.426 -230.12 696.426 Q-235.149 696.426 -237.887 692.861 Q-240.624 689.296 -240.624 682.74 Q-240.624 679.493 -240.146 676.629 Q-239.669 673.764 -238.714 671.345 Z" fill="#000000" fill-rule="evenodd" fill-opacity="1" /><path clip-path="url(#clip140)" d="M 0 0 M-253.578 661.033 L-253.578 655.94 Q-246.067 651.166 -238.873 648.811 Q-231.68 646.423 -224.582 646.423 Q-217.453 646.423 -210.228 648.811 Q-203.003 651.166 -195.523 655.94 L-195.523 661.033 Q-202.812 656.799 -210.005 654.731 Q-217.23 652.63 -224.582 652.63 Q-231.935 652.63 -239.096 654.731 Q-246.257 656.799 -253.578 661.033 Z" fill="#000000" fill-rule="evenodd" fill-opacity="1" /><path clip-path="url(#clip142)" d="
M226.495 88.5087 L226.495 1464 L408.541 1464 L408.541 88.5087 L226.495 88.5087 L226.495 88.5087  Z
  " fill="#009af9" fill-rule="evenodd" fill-opacity="1"/>
<polyline clip-path="url(#clip142)" style="stroke:#000000; stroke-width:4; stroke-opacity:1; fill:none" points="
  226.495,88.5087 226.495,1464 408.541,1464 408.541,88.5087 226.495,88.5087 
  "/>
<path clip-path="url(#clip142)" d="
M454.053 1002.01 L454.053 1464 L636.099 1464 L636.099 1002.01 L454.053 1002.01 L454.053 1002.01  Z
  " fill="#009af9" fill-rule="evenodd" fill-opacity="1"/>
<polyline clip-path="url(#clip142)" style="stroke:#000000; stroke-width:4; stroke-opacity:1; fill:none" points="
  454.053,1002.01 454.053,1464 636.099,1464 636.099,1002.01 454.053,1002.01 
  "/>
<path clip-path="url(#clip142)" d="
M681.61 1229.71 L681.61 1464 L863.656 1464 L863.656 1229.71 L681.61 1229.71 L681.61 1229.71  Z
  " fill="#009af9" fill-rule="evenodd" fill-opacity="1"/>
<polyline clip-path="url(#clip142)" style="stroke:#000000; stroke-width:4; stroke-opacity:1; fill:none" points="
  681.61,1229.71 681.61,1464 863.656,1464 863.656,1229.71 681.61,1229.71 
  "/>
<path clip-path="url(#clip142)" d="
M909.168 1227.73 L909.168 1464 L1091.21 1464 L1091.21 1227.73 L909.168 1227.73 L909.168 1227.73  Z
  " fill="#009af9" fill-rule="evenodd" fill-opacity="1"/>
<polyline clip-path="url(#clip142)" style="stroke:#000000; stroke-width:4; stroke-opacity:1; fill:none" points="
  909.168,1227.73 909.168,1464 1091.21,1464 1091.21,1227.73 909.168,1227.73 
  "/>
<path clip-path="url(#clip142)" d="
M1136.73 1229.49 L1136.73 1464 L1318.77 1464 L1318.77 1229.49 L1136.73 1229.49 L1136.73 1229.49  Z
  " fill="#009af9" fill-rule="evenodd" fill-opacity="1"/>
<polyline clip-path="url(#clip142)" style="stroke:#000000; stroke-width:4; stroke-opacity:1; fill:none" points="
  1136.73,1229.49 1136.73,1464 1318.77,1464 1318.77,1229.49 1136.73,1229.49 
  "/>
<path clip-path="url(#clip142)" d="
M1364.28 1228.39 L1364.28 1464 L1546.33 1464 L1546.33 1228.39 L1364.28 1228.39 L1364.28 1228.39  Z
  " fill="#009af9" fill-rule="evenodd" fill-opacity="1"/>
<polyline clip-path="url(#clip142)" style="stroke:#000000; stroke-width:4; stroke-opacity:1; fill:none" points="
  1364.28,1228.39 1364.28,1464 1546.33,1464 1546.33,1228.39 1364.28,1228.39 
  "/>
<path clip-path="url(#clip142)" d="
M1591.84 1230.76 L1591.84 1464 L1773.89 1464 L1773.89 1230.76 L1591.84 1230.76 L1591.84 1230.76  Z
  " fill="#009af9" fill-rule="evenodd" fill-opacity="1"/>
<polyline clip-path="url(#clip142)" style="stroke:#000000; stroke-width:4; stroke-opacity:1; fill:none" points="
  1591.84,1230.76 1591.84,1464 1773.89,1464 1773.89,1230.76 1591.84,1230.76 
  "/>
<path clip-path="url(#clip142)" d="
M1819.4 1226.97 L1819.4 1464 L2001.44 1464 L2001.44 1226.97 L1819.4 1226.97 L1819.4 1226.97  Z
  " fill="#009af9" fill-rule="evenodd" fill-opacity="1"/>
<polyline clip-path="url(#clip142)" style="stroke:#000000; stroke-width:4; stroke-opacity:1; fill:none" points="
  1819.4,1226.97 1819.4,1464 2001.44,1464 2001.44,1226.97 1819.4,1226.97 
  "/>
<path clip-path="url(#clip142)" d="
M2046.96 1231.59 L2046.96 1464 L2229 1464 L2229 1231.59 L2046.96 1231.59 L2046.96 1231.59  Z
  " fill="#009af9" fill-rule="evenodd" fill-opacity="1"/>
<polyline clip-path="url(#clip142)" style="stroke:#000000; stroke-width:4; stroke-opacity:1; fill:none" points="
  2046.96,1231.59 2046.96,1464 2229,1464 2229,1231.59 2046.96,1231.59 
  "/>
</svg>
