<?xml version="1.0" encoding="utf-8"?>
<svg xmlns="http://www.w3.org/2000/svg" xmlns:xlink="http://www.w3.org/1999/xlink" width="600" height="400" viewBox="0 0 2400 1600">
<defs>
  <clipPath id="clip050">
    <rect x="0" y="0" width="2400" height="1600"/>
  </clipPath>
</defs>
<path clip-path="url(#clip050)" d="
M0 1600 L2400 1600 L2400 0 L0 0  Z
  " fill="#ffffff" fill-rule="evenodd" fill-opacity="1"/>
<defs>
  <clipPath id="clip051">
    <rect x="480" y="0" width="1681" height="1600"/>
  </clipPath>
</defs>
<path clip-path="url(#clip050)" d="
M102.74 1505.26 L2352.76 1505.26 L2352.76 47.2441 L102.74 47.2441  Z
  " fill="#ffffff" fill-rule="evenodd" fill-opacity="1"/>
<defs>
  <clipPath id="clip052">
    <rect x="102" y="47" width="2251" height="1459"/>
  </clipPath>
</defs>
<polyline clip-path="url(#clip052)" style="stroke:#000000; stroke-width:2; stroke-opacity:0.1; fill:none" points="
  344.289,1505.26 344.289,47.2441 
  "/>
<polyline clip-path="url(#clip052)" style="stroke:#000000; stroke-width:2; stroke-opacity:0.1; fill:none" points="
  638.776,1505.26 638.776,47.2441 
  "/>
<polyline clip-path="url(#clip052)" style="stroke:#000000; stroke-width:2; stroke-opacity:0.1; fill:none" points="
  933.262,1505.26 933.262,47.2441 
  "/>
<polyline clip-path="url(#clip052)" style="stroke:#000000; stroke-width:2; stroke-opacity:0.1; fill:none" points="
  1227.75,1505.26 1227.75,47.2441 
  "/>
<polyline clip-path="url(#clip052)" style="stroke:#000000; stroke-width:2; stroke-opacity:0.1; fill:none" points="
  1522.23,1505.26 1522.23,47.2441 
  "/>
<polyline clip-path="url(#clip052)" style="stroke:#000000; stroke-width:2; stroke-opacity:0.1; fill:none" points="
  1816.72,1505.26 1816.72,47.2441 
  "/>
<polyline clip-path="url(#clip052)" style="stroke:#000000; stroke-width:2; stroke-opacity:0.1; fill:none" points="
  2111.21,1505.26 2111.21,47.2441 
  "/>
<polyline clip-path="url(#clip050)" style="stroke:#000000; stroke-width:4; stroke-opacity:1; fill:none" points="
  102.74,1505.26 2352.76,1505.26 
  "/>
<polyline clip-path="url(#clip050)" style="stroke:#000000; stroke-width:4; stroke-opacity:1; fill:none" points="
  344.289,1505.26 344.289,1487.76 
  "/>
<polyline clip-path="url(#clip050)" style="stroke:#000000; stroke-width:4; stroke-opacity:1; fill:none" points="
  638.776,1505.26 638.776,1487.76 
  "/>
<polyline clip-path="url(#clip050)" style="stroke:#000000; stroke-width:4; stroke-opacity:1; fill:none" points="
  933.262,1505.26 933.262,1487.76 
  "/>
<polyline clip-path="url(#clip050)" style="stroke:#000000; stroke-width:4; stroke-opacity:1; fill:none" points="
  1227.75,1505.26 1227.75,1487.76 
  "/>
<polyline clip-path="url(#clip050)" style="stroke:#000000; stroke-width:4; stroke-opacity:1; fill:none" points="
  1522.23,1505.26 1522.23,1487.76 
  "/>
<polyline clip-path="url(#clip050)" style="stroke:#000000; stroke-width:4; stroke-opacity:1; fill:none" points="
  1816.72,1505.26 1816.72,1487.76 
  "/>
<polyline clip-path="url(#clip050)" style="stroke:#000000; stroke-width:4; stroke-opacity:1; fill:none" points="
  2111.21,1505.26 2111.21,1487.76 
  "/>
<path clip-path="url(#clip050)" d="M 0 0 M338.942 1562 L355.262 1562 L355.262 1565.93 L333.317 1565.93 L333.317 1562 Q335.979 1559.24 340.563 1554.61 Q345.169 1549.96 346.35 1548.62 Q348.595 1546.09 349.475 1544.36 Q350.377 1542.6 350.377 1540.91 Q350.377 1538.15 348.433 1536.42 Q346.512 1534.68 343.41 1534.68 Q341.211 1534.68 338.757 1535.45 Q336.327 1536.21 333.549 1537.76 L333.549 1533.04 Q336.373 1531.9 338.827 1531.33 Q341.28 1530.75 343.317 1530.75 Q348.688 1530.75 351.882 1533.43 Q355.076 1536.12 355.076 1540.61 Q355.076 1542.74 354.266 1544.66 Q353.479 1546.56 351.373 1549.15 Q350.794 1549.82 347.692 1553.04 Q344.59 1556.23 338.942 1562 Z" fill="#000000" fill-rule="evenodd" fill-opacity="1" /><path clip-path="url(#clip050)" d="M 0 0 M641.785 1535.45 L629.979 1553.89 L641.785 1553.89 L641.785 1535.45 M640.558 1531.37 L646.438 1531.37 L646.438 1553.89 L651.368 1553.89 L651.368 1557.78 L646.438 1557.78 L646.438 1565.93 L641.785 1565.93 L641.785 1557.78 L626.183 1557.78 L626.183 1553.27 L640.558 1531.37 Z" fill="#000000" fill-rule="evenodd" fill-opacity="1" /><path clip-path="url(#clip050)" d="M 0 0 M933.262 1549.52 Q929.929 1549.52 928.007 1551.3 Q926.109 1553.08 926.109 1556.21 Q926.109 1559.33 928.007 1561.12 Q929.929 1562.9 933.262 1562.9 Q936.595 1562.9 938.516 1561.12 Q940.438 1559.31 940.438 1556.21 Q940.438 1553.08 938.516 1551.3 Q936.618 1549.52 933.262 1549.52 M928.586 1547.53 Q925.577 1546.79 923.887 1544.73 Q922.22 1542.67 922.22 1539.71 Q922.22 1535.56 925.16 1533.15 Q928.123 1530.75 933.262 1530.75 Q938.424 1530.75 941.364 1533.15 Q944.303 1535.56 944.303 1539.71 Q944.303 1542.67 942.614 1544.73 Q940.947 1546.79 937.961 1547.53 Q941.341 1548.32 943.216 1550.61 Q945.114 1552.9 945.114 1556.21 Q945.114 1561.23 942.035 1563.92 Q938.979 1566.6 933.262 1566.6 Q927.544 1566.6 924.466 1563.92 Q921.41 1561.23 921.41 1556.21 Q921.41 1552.9 923.308 1550.61 Q925.206 1548.32 928.586 1547.53 M926.873 1540.14 Q926.873 1542.83 928.54 1544.33 Q930.229 1545.84 933.262 1545.84 Q936.271 1545.84 937.961 1544.33 Q939.674 1542.83 939.674 1540.14 Q939.674 1537.46 937.961 1535.96 Q936.271 1534.45 933.262 1534.45 Q930.229 1534.45 928.54 1535.96 Q926.873 1537.46 926.873 1540.14 Z" fill="#000000" fill-rule="evenodd" fill-opacity="1" /><path clip-path="url(#clip050)" d="M 0 0 M1202.35 1562 L1209.99 1562 L1209.99 1535.63 L1201.68 1537.3 L1201.68 1533.04 L1209.95 1531.37 L1214.62 1531.37 L1214.62 1562 L1222.26 1562 L1222.26 1565.93 L1202.35 1565.93 L1202.35 1562 Z" fill="#000000" fill-rule="evenodd" fill-opacity="1" /><path clip-path="url(#clip050)" d="M 0 0 M1242.28 1546.79 Q1239.14 1546.79 1237.29 1548.94 Q1235.46 1551.09 1235.46 1554.84 Q1235.46 1558.57 1237.29 1560.75 Q1239.14 1562.9 1242.28 1562.9 Q1245.43 1562.9 1247.26 1560.75 Q1249.11 1558.57 1249.11 1554.84 Q1249.11 1551.09 1247.26 1548.94 Q1245.43 1546.79 1242.28 1546.79 M1251.57 1532.14 L1251.57 1536.39 Q1249.81 1535.56 1248 1535.12 Q1246.22 1534.68 1244.46 1534.68 Q1239.83 1534.68 1237.38 1537.81 Q1234.95 1540.93 1234.6 1547.25 Q1235.97 1545.24 1238.03 1544.17 Q1240.09 1543.08 1242.56 1543.08 Q1247.77 1543.08 1250.78 1546.26 Q1253.81 1549.4 1253.81 1554.84 Q1253.81 1560.17 1250.66 1563.39 Q1247.52 1566.6 1242.28 1566.6 Q1236.29 1566.6 1233.12 1562.02 Q1229.95 1557.41 1229.95 1548.69 Q1229.95 1540.49 1233.84 1535.63 Q1237.72 1530.75 1244.28 1530.75 Q1246.03 1530.75 1247.82 1531.09 Q1249.62 1531.44 1251.57 1532.14 Z" fill="#000000" fill-rule="evenodd" fill-opacity="1" /><path clip-path="url(#clip050)" d="M 0 0 M1511.88 1547.3 Q1515.23 1548.02 1517.11 1550.28 Q1519.01 1552.55 1519.01 1555.89 Q1519.01 1561 1515.49 1563.8 Q1511.97 1566.6 1505.49 1566.6 Q1503.31 1566.6 1501 1566.16 Q1498.7 1565.75 1496.25 1564.89 L1496.25 1560.38 Q1498.19 1561.51 1500.51 1562.09 Q1502.82 1562.67 1505.35 1562.67 Q1509.75 1562.67 1512.04 1560.93 Q1514.35 1559.2 1514.35 1555.89 Q1514.35 1552.83 1512.2 1551.12 Q1510.07 1549.38 1506.25 1549.38 L1502.22 1549.38 L1502.22 1545.54 L1506.44 1545.54 Q1509.88 1545.54 1511.71 1544.17 Q1513.54 1542.78 1513.54 1540.19 Q1513.54 1537.53 1511.64 1536.12 Q1509.77 1534.68 1506.25 1534.68 Q1504.33 1534.68 1502.13 1535.1 Q1499.93 1535.52 1497.29 1536.39 L1497.29 1532.23 Q1499.95 1531.49 1502.27 1531.12 Q1504.61 1530.75 1506.67 1530.75 Q1511.99 1530.75 1515.09 1533.18 Q1518.19 1535.58 1518.19 1539.71 Q1518.19 1542.58 1516.55 1544.57 Q1514.91 1546.53 1511.88 1547.3 Z" fill="#000000" fill-rule="evenodd" fill-opacity="1" /><path clip-path="url(#clip050)" d="M 0 0 M1531.9 1562 L1548.22 1562 L1548.22 1565.93 L1526.27 1565.93 L1526.27 1562 Q1528.94 1559.24 1533.52 1554.61 Q1538.13 1549.96 1539.31 1548.62 Q1541.55 1546.09 1542.43 1544.36 Q1543.33 1542.6 1543.33 1540.91 Q1543.33 1538.15 1541.39 1536.42 Q1539.47 1534.68 1536.37 1534.68 Q1534.17 1534.68 1531.71 1535.45 Q1529.28 1536.21 1526.51 1537.76 L1526.51 1533.04 Q1529.33 1531.9 1531.78 1531.33 Q1534.24 1530.75 1536.27 1530.75 Q1541.64 1530.75 1544.84 1533.43 Q1548.03 1536.12 1548.03 1540.61 Q1548.03 1542.74 1547.22 1544.66 Q1546.44 1546.56 1544.33 1549.15 Q1543.75 1549.82 1540.65 1553.04 Q1537.55 1556.23 1531.9 1562 Z" fill="#000000" fill-rule="evenodd" fill-opacity="1" /><path clip-path="url(#clip050)" d="M 0 0 M1804.94 1535.45 L1793.13 1553.89 L1804.94 1553.89 L1804.94 1535.45 M1803.71 1531.37 L1809.59 1531.37 L1809.59 1553.89 L1814.52 1553.89 L1814.52 1557.78 L1809.59 1557.78 L1809.59 1565.93 L1804.94 1565.93 L1804.94 1557.78 L1789.34 1557.78 L1789.34 1553.27 L1803.71 1531.37 Z" fill="#000000" fill-rule="evenodd" fill-opacity="1" /><path clip-path="url(#clip050)" d="M 0 0 M1832.25 1549.52 Q1828.92 1549.52 1827 1551.3 Q1825.1 1553.08 1825.1 1556.21 Q1825.1 1559.33 1827 1561.12 Q1828.92 1562.9 1832.25 1562.9 Q1835.59 1562.9 1837.51 1561.12 Q1839.43 1559.31 1839.43 1556.21 Q1839.43 1553.08 1837.51 1551.3 Q1835.61 1549.52 1832.25 1549.52 M1827.58 1547.53 Q1824.57 1546.79 1822.88 1544.73 Q1821.21 1542.67 1821.21 1539.71 Q1821.21 1535.56 1824.15 1533.15 Q1827.11 1530.75 1832.25 1530.75 Q1837.41 1530.75 1840.35 1533.15 Q1843.29 1535.56 1843.29 1539.71 Q1843.29 1542.67 1841.6 1544.73 Q1839.94 1546.79 1836.95 1547.53 Q1840.33 1548.32 1842.21 1550.61 Q1844.1 1552.9 1844.1 1556.21 Q1844.1 1561.23 1841.03 1563.92 Q1837.97 1566.6 1832.25 1566.6 Q1826.54 1566.6 1823.46 1563.92 Q1820.4 1561.23 1820.4 1556.21 Q1820.4 1552.9 1822.3 1550.61 Q1824.2 1548.32 1827.58 1547.53 M1825.86 1540.14 Q1825.86 1542.83 1827.53 1544.33 Q1829.22 1545.84 1832.25 1545.84 Q1835.26 1545.84 1836.95 1544.33 Q1838.66 1542.83 1838.66 1540.14 Q1838.66 1537.46 1836.95 1535.96 Q1835.26 1534.45 1832.25 1534.45 Q1829.22 1534.45 1827.53 1535.96 Q1825.86 1537.46 1825.86 1540.14 Z" fill="#000000" fill-rule="evenodd" fill-opacity="1" /><path clip-path="url(#clip050)" d="M 0 0 M2096.37 1546.79 Q2093.22 1546.79 2091.37 1548.94 Q2089.54 1551.09 2089.54 1554.84 Q2089.54 1558.57 2091.37 1560.75 Q2093.22 1562.9 2096.37 1562.9 Q2099.52 1562.9 2101.35 1560.75 Q2103.2 1558.57 2103.2 1554.84 Q2103.2 1551.09 2101.35 1548.94 Q2099.52 1546.79 2096.37 1546.79 M2105.65 1532.14 L2105.65 1536.39 Q2103.89 1535.56 2102.09 1535.12 Q2100.3 1534.68 2098.54 1534.68 Q2093.91 1534.68 2091.46 1537.81 Q2089.03 1540.93 2088.68 1547.25 Q2090.05 1545.24 2092.11 1544.17 Q2094.17 1543.08 2096.65 1543.08 Q2101.85 1543.08 2104.86 1546.26 Q2107.9 1549.4 2107.9 1554.84 Q2107.9 1560.17 2104.75 1563.39 Q2101.6 1566.6 2096.37 1566.6 Q2090.37 1566.6 2087.2 1562.02 Q2084.03 1557.41 2084.03 1548.69 Q2084.03 1540.49 2087.92 1535.63 Q2091.81 1530.75 2098.36 1530.75 Q2100.12 1530.75 2101.9 1531.09 Q2103.71 1531.44 2105.65 1532.14 Z" fill="#000000" fill-rule="evenodd" fill-opacity="1" /><path clip-path="url(#clip050)" d="M 0 0 M2128.8 1535.45 L2116.99 1553.89 L2128.8 1553.89 L2128.8 1535.45 M2127.57 1531.37 L2133.45 1531.37 L2133.45 1553.89 L2138.38 1553.89 L2138.38 1557.78 L2133.45 1557.78 L2133.45 1565.93 L2128.8 1565.93 L2128.8 1557.78 L2113.2 1557.78 L2113.2 1553.27 L2127.57 1531.37 Z" fill="#000000" fill-rule="evenodd" fill-opacity="1" /><path clip-path="url(#clip050)" d="M 0 0 M1078.3 1607.89 L1078.3 1625.74 L1086.38 1625.74 Q1090.87 1625.74 1093.32 1623.42 Q1095.77 1621.1 1095.77 1616.8 Q1095.77 1612.53 1093.32 1610.21 Q1090.87 1607.89 1086.38 1607.89 L1078.3 1607.89 M1071.87 1602.6 L1086.38 1602.6 Q1094.37 1602.6 1098.44 1606.23 Q1102.55 1609.83 1102.55 1616.8 Q1102.55 1623.83 1098.44 1627.43 Q1094.37 1631.03 1086.38 1631.03 L1078.3 1631.03 L1078.3 1650.12 L1071.87 1650.12 L1071.87 1602.6 Z" fill="#000000" fill-rule="evenodd" fill-opacity="1" /><path clip-path="url(#clip050)" d="M 0 0 M1130.43 1619.95 Q1129.45 1619.38 1128.27 1619.12 Q1127.12 1618.84 1125.72 1618.84 Q1120.76 1618.84 1118.08 1622.08 Q1115.44 1625.3 1115.44 1631.35 L1115.44 1650.12 L1109.55 1650.12 L1109.55 1614.48 L1115.44 1614.48 L1115.44 1620.01 Q1117.29 1616.77 1120.25 1615.21 Q1123.21 1613.62 1127.44 1613.62 Q1128.05 1613.62 1128.78 1613.71 Q1129.51 1613.78 1130.4 1613.93 L1130.43 1619.95 Z" fill="#000000" fill-rule="evenodd" fill-opacity="1" /><path clip-path="url(#clip050)" d="M 0 0 M1148.96 1618.58 Q1144.25 1618.58 1141.51 1622.27 Q1138.77 1625.93 1138.77 1632.33 Q1138.77 1638.73 1141.48 1642.42 Q1144.21 1646.08 1148.96 1646.08 Q1153.64 1646.08 1156.37 1642.39 Q1159.11 1638.7 1159.11 1632.33 Q1159.11 1626 1156.37 1622.31 Q1153.64 1618.58 1148.96 1618.58 M1148.96 1613.62 Q1156.6 1613.62 1160.96 1618.58 Q1165.32 1623.55 1165.32 1632.33 Q1165.32 1641.08 1160.96 1646.08 Q1156.6 1651.05 1148.96 1651.05 Q1141.29 1651.05 1136.93 1646.08 Q1132.6 1641.08 1132.6 1632.33 Q1132.6 1623.55 1136.93 1618.58 Q1141.29 1613.62 1148.96 1613.62 Z" fill="#000000" fill-rule="evenodd" fill-opacity="1" /><path clip-path="url(#clip050)" d="M 0 0 M1200.68 1615.84 L1200.68 1621.32 Q1198.2 1619.95 1195.68 1619.28 Q1193.2 1618.58 1190.65 1618.58 Q1184.95 1618.58 1181.8 1622.21 Q1178.65 1625.81 1178.65 1632.33 Q1178.65 1638.86 1181.8 1642.48 Q1184.95 1646.08 1190.65 1646.08 Q1193.2 1646.08 1195.68 1645.41 Q1198.2 1644.71 1200.68 1643.34 L1200.68 1648.76 Q1198.23 1649.9 1195.59 1650.47 Q1192.98 1651.05 1190.02 1651.05 Q1181.96 1651.05 1177.22 1645.99 Q1172.48 1640.93 1172.48 1632.33 Q1172.48 1623.61 1177.25 1618.61 Q1182.06 1613.62 1190.4 1613.62 Q1193.1 1613.62 1195.68 1614.19 Q1198.26 1614.73 1200.68 1615.84 Z" fill="#000000" fill-rule="evenodd" fill-opacity="1" /><path clip-path="url(#clip050)" d="M 0 0 M1241.35 1630.84 L1241.35 1633.7 L1214.43 1633.7 Q1214.81 1639.75 1218.06 1642.93 Q1221.33 1646.08 1227.16 1646.08 Q1230.53 1646.08 1233.68 1645.25 Q1236.87 1644.43 1239.99 1642.77 L1239.99 1648.31 Q1236.84 1649.65 1233.52 1650.35 Q1230.21 1651.05 1226.81 1651.05 Q1218.28 1651.05 1213.28 1646.08 Q1208.32 1641.12 1208.32 1632.65 Q1208.32 1623.9 1213.03 1618.77 Q1217.77 1613.62 1225.79 1613.62 Q1232.98 1613.62 1237.15 1618.26 Q1241.35 1622.88 1241.35 1630.84 M1235.5 1629.12 Q1235.43 1624.31 1232.79 1621.45 Q1230.18 1618.58 1225.85 1618.58 Q1220.95 1618.58 1217.99 1621.35 Q1215.06 1624.12 1214.62 1629.15 L1235.5 1629.12 Z" fill="#000000" fill-rule="evenodd" fill-opacity="1" /><path clip-path="url(#clip050)" d="M 0 0 M1273.69 1615.53 L1273.69 1621.06 Q1271.21 1619.79 1268.54 1619.15 Q1265.86 1618.52 1263 1618.52 Q1258.64 1618.52 1256.44 1619.85 Q1254.28 1621.19 1254.28 1623.87 Q1254.28 1625.9 1255.84 1627.08 Q1257.4 1628.23 1262.11 1629.28 L1264.11 1629.72 Q1270.35 1631.06 1272.96 1633.51 Q1275.6 1635.93 1275.6 1640.29 Q1275.6 1645.25 1271.66 1648.15 Q1267.74 1651.05 1260.87 1651.05 Q1258 1651.05 1254.88 1650.47 Q1251.79 1649.93 1248.36 1648.82 L1248.36 1642.77 Q1251.6 1644.46 1254.75 1645.32 Q1257.91 1646.15 1260.99 1646.15 Q1265.13 1646.15 1267.36 1644.74 Q1269.59 1643.31 1269.59 1640.73 Q1269.59 1638.35 1267.96 1637.07 Q1266.37 1635.8 1260.93 1634.62 L1258.89 1634.15 Q1253.45 1633 1251.03 1630.64 Q1248.61 1628.26 1248.61 1624.12 Q1248.61 1619.09 1252.18 1616.35 Q1255.74 1613.62 1262.3 1613.62 Q1265.54 1613.62 1268.41 1614.09 Q1271.27 1614.57 1273.69 1615.53 Z" fill="#000000" fill-rule="evenodd" fill-opacity="1" /><path clip-path="url(#clip050)" d="M 0 0 M1307.65 1615.53 L1307.65 1621.06 Q1305.17 1619.79 1302.5 1619.15 Q1299.82 1618.52 1296.96 1618.52 Q1292.6 1618.52 1290.4 1619.85 Q1288.24 1621.19 1288.24 1623.87 Q1288.24 1625.9 1289.8 1627.08 Q1291.36 1628.23 1296.07 1629.28 L1298.07 1629.72 Q1304.31 1631.06 1306.92 1633.51 Q1309.56 1635.93 1309.56 1640.29 Q1309.56 1645.25 1305.62 1648.15 Q1301.7 1651.05 1294.83 1651.05 Q1291.96 1651.05 1288.84 1650.47 Q1285.76 1649.93 1282.32 1648.82 L1282.32 1642.77 Q1285.56 1644.46 1288.72 1645.32 Q1291.87 1646.15 1294.95 1646.15 Q1299.09 1646.15 1301.32 1644.74 Q1303.55 1643.31 1303.55 1640.73 Q1303.55 1638.35 1301.92 1637.07 Q1300.33 1635.8 1294.89 1634.62 L1292.85 1634.15 Q1287.41 1633 1284.99 1630.64 Q1282.57 1628.26 1282.57 1624.12 Q1282.57 1619.09 1286.14 1616.35 Q1289.7 1613.62 1296.26 1613.62 Q1299.51 1613.62 1302.37 1614.09 Q1305.23 1614.57 1307.65 1615.53 Z" fill="#000000" fill-rule="evenodd" fill-opacity="1" /><path clip-path="url(#clip050)" d="M 0 0 M1349.38 1630.84 L1349.38 1633.7 L1322.45 1633.7 Q1322.84 1639.75 1326.08 1642.93 Q1329.36 1646.08 1335.19 1646.08 Q1338.56 1646.08 1341.71 1645.25 Q1344.89 1644.43 1348.01 1642.77 L1348.01 1648.31 Q1344.86 1649.65 1341.55 1650.35 Q1338.24 1651.05 1334.84 1651.05 Q1326.31 1651.05 1321.31 1646.08 Q1316.34 1641.12 1316.34 1632.65 Q1316.34 1623.9 1321.05 1618.77 Q1325.8 1613.62 1333.82 1613.62 Q1341.01 1613.62 1345.18 1618.26 Q1349.38 1622.88 1349.38 1630.84 M1343.52 1629.12 Q1343.46 1624.31 1340.82 1621.45 Q1338.21 1618.58 1333.88 1618.58 Q1328.98 1618.58 1326.02 1621.35 Q1323.09 1624.12 1322.64 1629.15 L1343.52 1629.12 Z" fill="#000000" fill-rule="evenodd" fill-opacity="1" /><path clip-path="url(#clip050)" d="M 0 0 M1381.72 1615.53 L1381.72 1621.06 Q1379.24 1619.79 1376.56 1619.15 Q1373.89 1618.52 1371.02 1618.52 Q1366.66 1618.52 1364.47 1619.85 Q1362.3 1621.19 1362.3 1623.87 Q1362.3 1625.9 1363.86 1627.08 Q1365.42 1628.23 1370.13 1629.28 L1372.14 1629.72 Q1378.38 1631.06 1380.99 1633.51 Q1383.63 1635.93 1383.63 1640.29 Q1383.63 1645.25 1379.68 1648.15 Q1375.77 1651.05 1368.89 1651.05 Q1366.03 1651.05 1362.91 1650.47 Q1359.82 1649.93 1356.38 1648.82 L1356.38 1642.77 Q1359.63 1644.46 1362.78 1645.32 Q1365.93 1646.15 1369.02 1646.15 Q1373.16 1646.15 1375.38 1644.74 Q1377.61 1643.31 1377.61 1640.73 Q1377.61 1638.35 1375.99 1637.07 Q1374.4 1635.8 1368.96 1634.62 L1366.92 1634.15 Q1361.48 1633 1359.06 1630.64 Q1356.64 1628.26 1356.64 1624.12 Q1356.64 1619.09 1360.2 1616.35 Q1363.77 1613.62 1370.32 1613.62 Q1373.57 1613.62 1376.44 1614.09 Q1379.3 1614.57 1381.72 1615.53 Z" fill="#000000" fill-rule="evenodd" fill-opacity="1" /><polyline clip-path="url(#clip052)" style="stroke:#000000; stroke-width:2; stroke-opacity:0.1; fill:none" points="
  102.74,1464 2352.76,1464 
  "/>
<polyline clip-path="url(#clip052)" style="stroke:#000000; stroke-width:2; stroke-opacity:0.1; fill:none" points="
  102.74,1207.19 2352.76,1207.19 
  "/>
<polyline clip-path="url(#clip052)" style="stroke:#000000; stroke-width:2; stroke-opacity:0.1; fill:none" points="
  102.74,950.38 2352.76,950.38 
  "/>
<polyline clip-path="url(#clip052)" style="stroke:#000000; stroke-width:2; stroke-opacity:0.1; fill:none" points="
  102.74,693.572 2352.76,693.572 
  "/>
<polyline clip-path="url(#clip052)" style="stroke:#000000; stroke-width:2; stroke-opacity:0.1; fill:none" points="
  102.74,436.765 2352.76,436.765 
  "/>
<polyline clip-path="url(#clip052)" style="stroke:#000000; stroke-width:2; stroke-opacity:0.1; fill:none" points="
  102.74,179.957 2352.76,179.957 
  "/>
<polyline clip-path="url(#clip050)" style="stroke:#000000; stroke-width:4; stroke-opacity:1; fill:none" points="
  102.74,1505.26 102.74,47.2441 
  "/>
<polyline clip-path="url(#clip050)" style="stroke:#000000; stroke-width:4; stroke-opacity:1; fill:none" points="
  102.74,1464 129.74,1464 
  "/>
<polyline clip-path="url(#clip050)" style="stroke:#000000; stroke-width:4; stroke-opacity:1; fill:none" points="
  102.74,1207.19 129.74,1207.19 
  "/>
<polyline clip-path="url(#clip050)" style="stroke:#000000; stroke-width:4; stroke-opacity:1; fill:none" points="
  102.74,950.38 129.74,950.38 
  "/>
<polyline clip-path="url(#clip050)" style="stroke:#000000; stroke-width:4; stroke-opacity:1; fill:none" points="
  102.74,693.572 129.74,693.572 
  "/>
<polyline clip-path="url(#clip050)" style="stroke:#000000; stroke-width:4; stroke-opacity:1; fill:none" points="
  102.74,436.765 129.74,436.765 
  "/>
<polyline clip-path="url(#clip050)" style="stroke:#000000; stroke-width:4; stroke-opacity:1; fill:none" points="
  102.74,179.957 129.74,179.957 
  "/>
<path clip-path="url(#clip050)" d="M 0 0 M54.7958 1449.79 Q51.1847 1449.79 49.356 1453.36 Q47.5504 1456.9 47.5504 1464.03 Q47.5504 1471.14 49.356 1474.7 Q51.1847 1478.24 54.7958 1478.24 Q58.43 1478.24 60.2356 1474.7 Q62.0643 1471.14 62.0643 1464.03 Q62.0643 1456.9 60.2356 1453.36 Q58.43 1449.79 54.7958 1449.79 M54.7958 1446.09 Q60.6059 1446.09 63.6615 1450.7 Q66.7402 1455.28 66.7402 1464.03 Q66.7402 1472.76 63.6615 1477.36 Q60.6059 1481.95 54.7958 1481.95 Q48.9856 1481.95 45.9069 1477.36 Q42.8514 1472.76 42.8514 1464.03 Q42.8514 1455.28 45.9069 1450.7 Q48.9856 1446.09 54.7958 1446.09 Z" fill="#000000" fill-rule="evenodd" fill-opacity="1" /><path clip-path="url(#clip050)" d="M 0 0 M-149.085 1196.36 L-130.728 1196.36 L-130.728 1200.29 L-144.802 1200.29 L-144.802 1208.76 Q-143.784 1208.42 -142.765 1208.25 Q-141.747 1208.07 -140.728 1208.07 Q-134.941 1208.07 -131.562 1211.24 Q-128.182 1214.41 -128.182 1219.83 Q-128.182 1225.41 -131.654 1228.51 Q-135.127 1231.59 -141.446 1231.59 Q-143.622 1231.59 -145.89 1231.22 Q-148.136 1230.85 -150.543 1230.11 L-150.543 1225.41 Q-148.46 1226.54 -146.238 1227.1 Q-144.015 1227.65 -141.539 1227.65 Q-137.534 1227.65 -135.196 1225.54 Q-132.858 1223.44 -132.858 1219.83 Q-132.858 1216.22 -135.196 1214.11 Q-137.534 1212 -141.539 1212 Q-143.414 1212 -145.289 1212.42 Q-147.14 1212.84 -149.085 1213.72 L-149.085 1196.36 Z" fill="#000000" fill-rule="evenodd" fill-opacity="1" /><path clip-path="url(#clip050)" d="M 0 0 M-118.969 1225.04 L-114.085 1225.04 L-114.085 1230.92 L-118.969 1230.92 L-118.969 1225.04 Z" fill="#000000" fill-rule="evenodd" fill-opacity="1" /><path clip-path="url(#clip050)" d="M 0 0 M-93.8999 1199.43 Q-97.511 1199.43 -99.3397 1203 Q-101.145 1206.54 -101.145 1213.67 Q-101.145 1220.78 -99.3397 1224.34 Q-97.511 1227.88 -93.8999 1227.88 Q-90.2657 1227.88 -88.4601 1224.34 Q-86.6314 1220.78 -86.6314 1213.67 Q-86.6314 1206.54 -88.4601 1203 Q-90.2657 1199.43 -93.8999 1199.43 M-93.8999 1195.73 Q-88.0897 1195.73 -85.0342 1200.34 Q-81.9555 1204.92 -81.9555 1213.67 Q-81.9555 1222.4 -85.0342 1227 Q-88.0897 1231.59 -93.8999 1231.59 Q-99.7101 1231.59 -102.789 1227 Q-105.844 1222.4 -105.844 1213.67 Q-105.844 1204.92 -102.789 1200.34 Q-99.7101 1195.73 -93.8999 1195.73 Z" fill="#000000" fill-rule="evenodd" fill-opacity="1" /><path clip-path="url(#clip050)" d="M 0 0 M-63.738 1199.43 Q-67.3491 1199.43 -69.1778 1203 Q-70.9834 1206.54 -70.9834 1213.67 Q-70.9834 1220.78 -69.1778 1224.34 Q-67.3491 1227.88 -63.738 1227.88 Q-60.1038 1227.88 -58.2982 1224.34 Q-56.4695 1220.78 -56.4695 1213.67 Q-56.4695 1206.54 -58.2982 1203 Q-60.1038 1199.43 -63.738 1199.43 M-63.738 1195.73 Q-57.9279 1195.73 -54.8723 1200.34 Q-51.7936 1204.92 -51.7936 1213.67 Q-51.7936 1222.4 -54.8723 1227 Q-57.9279 1231.59 -63.738 1231.59 Q-69.5482 1231.59 -72.6269 1227 Q-75.6824 1222.4 -75.6824 1213.67 Q-75.6824 1204.92 -72.6269 1200.34 Q-69.5482 1195.73 -63.738 1195.73 Z" fill="#000000" fill-rule="evenodd" fill-opacity="1" /><path clip-path="url(#clip050)" d="M 0 0 M-15.4049 1205.45 L-25.9836 1216.08 L-15.4049 1226.66 L-18.1596 1229.46 L-28.7845 1218.83 L-39.4094 1229.46 L-42.1409 1226.66 L-31.5854 1216.08 L-42.1409 1205.45 L-39.4094 1202.65 L-28.7845 1213.28 L-18.1596 1202.65 L-15.4049 1205.45 Z" fill="#000000" fill-rule="evenodd" fill-opacity="1" /><path clip-path="url(#clip050)" d="M 0 0 M-3.0439 1226.98 L4.59495 1226.98 L4.59495 1200.61 L-3.71519 1202.28 L-3.71519 1198.02 L4.54865 1196.36 L9.22455 1196.36 L9.22455 1226.98 L16.8634 1226.98 L16.8634 1230.92 L-3.0439 1230.92 L-3.0439 1226.98 Z" fill="#000000" fill-rule="evenodd" fill-opacity="1" /><path clip-path="url(#clip050)" d="M 0 0 M36.3077 1199.43 Q32.6966 1199.43 30.868 1203 Q29.0624 1206.54 29.0624 1213.67 Q29.0624 1220.78 30.868 1224.34 Q32.6966 1227.88 36.3077 1227.88 Q39.942 1227.88 41.7475 1224.34 Q43.5762 1220.78 43.5762 1213.67 Q43.5762 1206.54 41.7475 1203 Q39.942 1199.43 36.3077 1199.43 M36.3077 1195.73 Q42.1179 1195.73 45.1734 1200.34 Q48.2521 1204.92 48.2521 1213.67 Q48.2521 1222.4 45.1734 1227 Q42.1179 1231.59 36.3077 1231.59 Q30.4976 1231.59 27.4189 1227 Q24.3634 1222.4 24.3634 1213.67 Q24.3634 1204.92 27.4189 1200.34 Q30.4976 1195.73 36.3077 1195.73 Z" fill="#000000" fill-rule="evenodd" fill-opacity="1" /><path clip-path="url(#clip050)" d="M 0 0 M60.9474 1188.36 Q63.6745 1188.95 65.1979 1190.79 Q66.7402 1192.63 66.7402 1195.34 Q66.7402 1199.5 63.8814 1201.77 Q61.0226 1204.05 55.7564 1204.05 Q53.9885 1204.05 52.1077 1203.69 Q50.2457 1203.35 48.2521 1202.66 L48.2521 1198.99 Q49.832 1199.91 51.7127 1200.38 Q53.5935 1200.85 55.6436 1200.85 Q59.217 1200.85 61.079 1199.44 Q62.9598 1198.03 62.9598 1195.34 Q62.9598 1192.86 61.2107 1191.47 Q59.4804 1190.06 56.3771 1190.06 L53.1045 1190.06 L53.1045 1186.94 L56.5275 1186.94 Q59.3299 1186.94 60.8157 1185.83 Q62.3015 1184.7 62.3015 1182.59 Q62.3015 1180.43 60.7593 1179.28 Q59.2359 1178.11 56.3771 1178.11 Q54.816 1178.11 53.0293 1178.45 Q51.2426 1178.79 49.0985 1179.51 L49.0985 1176.12 Q51.2614 1175.52 53.1421 1175.22 Q55.0417 1174.92 56.7156 1174.92 Q61.0414 1174.92 63.5616 1176.89 Q66.0819 1178.85 66.0819 1182.2 Q66.0819 1184.53 64.7465 1186.15 Q63.4112 1187.74 60.9474 1188.36 Z" fill="#000000" fill-rule="evenodd" fill-opacity="1" /><path clip-path="url(#clip050)" d="M 0 0 M-150.296 970.172 L-142.657 970.172 L-142.657 943.807 L-150.967 945.473 L-150.967 941.214 L-142.703 939.548 L-138.027 939.548 L-138.027 970.172 L-130.388 970.172 L-130.388 974.108 L-150.296 974.108 L-150.296 970.172 Z" fill="#000000" fill-rule="evenodd" fill-opacity="1" /><path clip-path="url(#clip050)" d="M 0 0 M-120.944 968.228 L-116.06 968.228 L-116.06 974.108 L-120.944 974.108 L-120.944 968.228 Z" fill="#000000" fill-rule="evenodd" fill-opacity="1" /><path clip-path="url(#clip050)" d="M 0 0 M-95.8747 942.626 Q-99.4858 942.626 -101.314 946.191 Q-103.12 949.733 -103.12 956.862 Q-103.12 963.969 -101.314 967.534 Q-99.4858 971.075 -95.8747 971.075 Q-92.2405 971.075 -90.4349 967.534 Q-88.6062 963.969 -88.6062 956.862 Q-88.6062 949.733 -90.4349 946.191 Q-92.2405 942.626 -95.8747 942.626 M-95.8747 938.923 Q-90.0646 938.923 -87.009 943.529 Q-83.9303 948.112 -83.9303 956.862 Q-83.9303 965.589 -87.009 970.196 Q-90.0646 974.779 -95.8747 974.779 Q-101.685 974.779 -104.764 970.196 Q-107.819 965.589 -107.819 956.862 Q-107.819 948.112 -104.764 943.529 Q-101.685 938.923 -95.8747 938.923 Z" fill="#000000" fill-rule="evenodd" fill-opacity="1" /><path clip-path="url(#clip050)" d="M 0 0 M-65.7128 942.626 Q-69.3239 942.626 -71.1526 946.191 Q-72.9582 949.733 -72.9582 956.862 Q-72.9582 963.969 -71.1526 967.534 Q-69.3239 971.075 -65.7128 971.075 Q-62.0786 971.075 -60.2731 967.534 Q-58.4444 963.969 -58.4444 956.862 Q-58.4444 949.733 -60.2731 946.191 Q-62.0786 942.626 -65.7128 942.626 M-65.7128 938.923 Q-59.9027 938.923 -56.8471 943.529 Q-53.7685 948.112 -53.7685 956.862 Q-53.7685 965.589 -56.8471 970.196 Q-59.9027 974.779 -65.7128 974.779 Q-71.523 974.779 -74.6017 970.196 Q-77.6572 965.589 -77.6572 956.862 Q-77.6572 948.112 -74.6017 943.529 Q-71.523 938.923 -65.7128 938.923 Z" fill="#000000" fill-rule="evenodd" fill-opacity="1" /><path clip-path="url(#clip050)" d="M 0 0 M-17.3798 948.645 L-27.9584 959.27 L-17.3798 969.848 L-20.1344 972.649 L-30.7593 962.024 L-41.3843 972.649 L-44.1157 969.848 L-33.5602 959.27 L-44.1157 948.645 L-41.3843 945.844 L-30.7593 956.469 L-20.1344 945.844 L-17.3798 948.645 Z" fill="#000000" fill-rule="evenodd" fill-opacity="1" /><path clip-path="url(#clip050)" d="M 0 0 M-5.01872 970.172 L2.62013 970.172 L2.62013 943.807 L-5.69001 945.473 L-5.69001 941.214 L2.57383 939.548 L7.24974 939.548 L7.24974 970.172 L14.8886 970.172 L14.8886 974.108 L-5.01872 974.108 L-5.01872 970.172 Z" fill="#000000" fill-rule="evenodd" fill-opacity="1" /><path clip-path="url(#clip050)" d="M 0 0 M34.3329 942.626 Q30.7218 942.626 28.8931 946.191 Q27.0876 949.733 27.0876 956.862 Q27.0876 963.969 28.8931 967.534 Q30.7218 971.075 34.3329 971.075 Q37.9672 971.075 39.7727 967.534 Q41.6014 963.969 41.6014 956.862 Q41.6014 949.733 39.7727 946.191 Q37.9672 942.626 34.3329 942.626 M34.3329 938.923 Q40.1431 938.923 43.1986 943.529 Q46.2773 948.112 46.2773 956.862 Q46.2773 965.589 43.1986 970.196 Q40.1431 974.779 34.3329 974.779 Q28.5228 974.779 25.4441 970.196 Q22.3885 965.589 22.3885 956.862 Q22.3885 948.112 25.4441 943.529 Q28.5228 938.923 34.3329 938.923 Z" fill="#000000" fill-rule="evenodd" fill-opacity="1" /><path clip-path="url(#clip050)" d="M 0 0 M58.9537 921.927 L49.3618 936.917 L58.9537 936.917 L58.9537 921.927 M57.9569 918.617 L62.7341 918.617 L62.7341 936.917 L66.7402 936.917 L66.7402 940.077 L62.7341 940.077 L62.7341 946.697 L58.9537 946.697 L58.9537 940.077 L46.2773 940.077 L46.2773 936.409 L57.9569 918.617 Z" fill="#000000" fill-rule="evenodd" fill-opacity="1" /><path clip-path="url(#clip050)" d="M 0 0 M-150.296 713.365 L-142.657 713.365 L-142.657 686.999 L-150.967 688.666 L-150.967 684.407 L-142.703 682.74 L-138.027 682.74 L-138.027 713.365 L-130.388 713.365 L-130.388 717.3 L-150.296 717.3 L-150.296 713.365 Z" fill="#000000" fill-rule="evenodd" fill-opacity="1" /><path clip-path="url(#clip050)" d="M 0 0 M-120.944 711.42 L-116.06 711.42 L-116.06 717.3 L-120.944 717.3 L-120.944 711.42 Z" fill="#000000" fill-rule="evenodd" fill-opacity="1" /><path clip-path="url(#clip050)" d="M 0 0 M-105.828 682.74 L-87.472 682.74 L-87.472 686.675 L-101.546 686.675 L-101.546 695.147 Q-100.527 694.8 -99.509 694.638 Q-98.4904 694.453 -97.4719 694.453 Q-91.6849 694.453 -88.3053 697.624 Q-84.9257 700.795 -84.9257 706.212 Q-84.9257 711.791 -88.3979 714.893 Q-91.8701 717.971 -98.1895 717.971 Q-100.365 717.971 -102.634 717.601 Q-104.879 717.231 -107.287 716.49 L-107.287 711.791 Q-105.203 712.925 -102.981 713.481 Q-100.759 714.036 -98.2821 714.036 Q-94.2775 714.036 -91.9395 711.93 Q-89.6016 709.823 -89.6016 706.212 Q-89.6016 702.601 -91.9395 700.495 Q-94.2775 698.388 -98.2821 698.388 Q-100.157 698.388 -102.032 698.805 Q-103.884 699.221 -105.828 700.101 L-105.828 682.74 Z" fill="#000000" fill-rule="evenodd" fill-opacity="1" /><path clip-path="url(#clip050)" d="M 0 0 M-65.7128 685.819 Q-69.3239 685.819 -71.1526 689.383 Q-72.9582 692.925 -72.9582 700.055 Q-72.9582 707.161 -71.1526 710.726 Q-69.3239 714.268 -65.7128 714.268 Q-62.0786 714.268 -60.2731 710.726 Q-58.4444 707.161 -58.4444 700.055 Q-58.4444 692.925 -60.2731 689.383 Q-62.0786 685.819 -65.7128 685.819 M-65.7128 682.115 Q-59.9027 682.115 -56.8471 686.721 Q-53.7685 691.305 -53.7685 700.055 Q-53.7685 708.781 -56.8471 713.388 Q-59.9027 717.971 -65.7128 717.971 Q-71.523 717.971 -74.6017 713.388 Q-77.6572 708.781 -77.6572 700.055 Q-77.6572 691.305 -74.6017 686.721 Q-71.523 682.115 -65.7128 682.115 Z" fill="#000000" fill-rule="evenodd" fill-opacity="1" /><path clip-path="url(#clip050)" d="M 0 0 M-17.3798 691.837 L-27.9584 702.462 L-17.3798 713.041 L-20.1344 715.842 L-30.7593 705.217 L-41.3843 715.842 L-44.1157 713.041 L-33.5602 702.462 L-44.1157 691.837 L-41.3843 689.036 L-30.7593 699.661 L-20.1344 689.036 L-17.3798 691.837 Z" fill="#000000" fill-rule="evenodd" fill-opacity="1" /><path clip-path="url(#clip050)" d="M 0 0 M-5.01872 713.365 L2.62013 713.365 L2.62013 686.999 L-5.69001 688.666 L-5.69001 684.407 L2.57383 682.74 L7.24974 682.74 L7.24974 713.365 L14.8886 713.365 L14.8886 717.3 L-5.01872 717.3 L-5.01872 713.365 Z" fill="#000000" fill-rule="evenodd" fill-opacity="1" /><path clip-path="url(#clip050)" d="M 0 0 M34.3329 685.819 Q30.7218 685.819 28.8931 689.383 Q27.0876 692.925 27.0876 700.055 Q27.0876 707.161 28.8931 710.726 Q30.7218 714.268 34.3329 714.268 Q37.9672 714.268 39.7727 710.726 Q41.6014 707.161 41.6014 700.055 Q41.6014 692.925 39.7727 689.383 Q37.9672 685.819 34.3329 685.819 M34.3329 682.115 Q40.1431 682.115 43.1986 686.721 Q46.2773 691.305 46.2773 700.055 Q46.2773 708.781 43.1986 713.388 Q40.1431 717.971 34.3329 717.971 Q28.5228 717.971 25.4441 713.388 Q22.3885 708.781 22.3885 700.055 Q22.3885 691.305 25.4441 686.721 Q28.5228 682.115 34.3329 682.115 Z" fill="#000000" fill-rule="evenodd" fill-opacity="1" /><path clip-path="url(#clip050)" d="M 0 0 M58.9537 665.12 L49.3618 680.11 L58.9537 680.11 L58.9537 665.12 M57.9569 661.81 L62.7341 661.81 L62.7341 680.11 L66.7402 680.11 L66.7402 683.269 L62.7341 683.269 L62.7341 689.89 L58.9537 689.89 L58.9537 683.269 L46.2773 683.269 L46.2773 679.602 L57.9569 661.81 Z" fill="#000000" fill-rule="evenodd" fill-opacity="1" /><path clip-path="url(#clip050)" d="M 0 0 M-147.078 456.557 L-130.759 456.557 L-130.759 460.492 L-152.703 460.492 L-152.703 456.557 Q-150.041 453.803 -145.458 449.173 Q-140.851 444.52 -139.671 443.178 Q-137.425 440.654 -136.546 438.918 Q-135.643 437.159 -135.643 435.469 Q-135.643 432.715 -137.587 430.979 Q-139.509 429.243 -142.611 429.243 Q-144.81 429.243 -147.263 430.006 Q-149.694 430.77 -152.472 432.321 L-152.472 427.599 Q-149.648 426.465 -147.194 425.886 Q-144.74 425.307 -142.703 425.307 Q-137.333 425.307 -134.138 427.993 Q-130.944 430.678 -130.944 435.168 Q-130.944 437.298 -131.754 439.219 Q-132.541 441.117 -134.648 443.71 Q-135.226 444.381 -138.328 447.599 Q-141.43 450.793 -147.078 456.557 Z" fill="#000000" fill-rule="evenodd" fill-opacity="1" /><path clip-path="url(#clip050)" d="M 0 0 M-120.944 454.613 L-116.06 454.613 L-116.06 460.492 L-120.944 460.492 L-120.944 454.613 Z" fill="#000000" fill-rule="evenodd" fill-opacity="1" /><path clip-path="url(#clip050)" d="M 0 0 M-95.8747 429.011 Q-99.4858 429.011 -101.314 432.576 Q-103.12 436.117 -103.12 443.247 Q-103.12 450.354 -101.314 453.918 Q-99.4858 457.46 -95.8747 457.46 Q-92.2405 457.46 -90.4349 453.918 Q-88.6062 450.354 -88.6062 443.247 Q-88.6062 436.117 -90.4349 432.576 Q-92.2405 429.011 -95.8747 429.011 M-95.8747 425.307 Q-90.0646 425.307 -87.009 429.914 Q-83.9303 434.497 -83.9303 443.247 Q-83.9303 451.974 -87.009 456.58 Q-90.0646 461.164 -95.8747 461.164 Q-101.685 461.164 -104.764 456.58 Q-107.819 451.974 -107.819 443.247 Q-107.819 434.497 -104.764 429.914 Q-101.685 425.307 -95.8747 425.307 Z" fill="#000000" fill-rule="evenodd" fill-opacity="1" /><path clip-path="url(#clip050)" d="M 0 0 M-65.7128 429.011 Q-69.3239 429.011 -71.1526 432.576 Q-72.9582 436.117 -72.9582 443.247 Q-72.9582 450.354 -71.1526 453.918 Q-69.3239 457.46 -65.7128 457.46 Q-62.0786 457.46 -60.2731 453.918 Q-58.4444 450.354 -58.4444 443.247 Q-58.4444 436.117 -60.2731 432.576 Q-62.0786 429.011 -65.7128 429.011 M-65.7128 425.307 Q-59.9027 425.307 -56.8471 429.914 Q-53.7685 434.497 -53.7685 443.247 Q-53.7685 451.974 -56.8471 456.58 Q-59.9027 461.164 -65.7128 461.164 Q-71.523 461.164 -74.6017 456.58 Q-77.6572 451.974 -77.6572 443.247 Q-77.6572 434.497 -74.6017 429.914 Q-71.523 425.307 -65.7128 425.307 Z" fill="#000000" fill-rule="evenodd" fill-opacity="1" /><path clip-path="url(#clip050)" d="M 0 0 M-17.3798 435.03 L-27.9584 445.654 L-17.3798 456.233 L-20.1344 459.034 L-30.7593 448.409 L-41.3843 459.034 L-44.1157 456.233 L-33.5602 445.654 L-44.1157 435.03 L-41.3843 432.229 L-30.7593 442.854 L-20.1344 432.229 L-17.3798 435.03 Z" fill="#000000" fill-rule="evenodd" fill-opacity="1" /><path clip-path="url(#clip050)" d="M 0 0 M-5.01872 456.557 L2.62013 456.557 L2.62013 430.192 L-5.69001 431.858 L-5.69001 427.599 L2.57383 425.932 L7.24974 425.932 L7.24974 456.557 L14.8886 456.557 L14.8886 460.492 L-5.01872 460.492 L-5.01872 456.557 Z" fill="#000000" fill-rule="evenodd" fill-opacity="1" /><path clip-path="url(#clip050)" d="M 0 0 M34.3329 429.011 Q30.7218 429.011 28.8931 432.576 Q27.0876 436.117 27.0876 443.247 Q27.0876 450.354 28.8931 453.918 Q30.7218 457.46 34.3329 457.46 Q37.9672 457.46 39.7727 453.918 Q41.6014 450.354 41.6014 443.247 Q41.6014 436.117 39.7727 432.576 Q37.9672 429.011 34.3329 429.011 M34.3329 425.307 Q40.1431 425.307 43.1986 429.914 Q46.2773 434.497 46.2773 443.247 Q46.2773 451.974 43.1986 456.58 Q40.1431 461.164 34.3329 461.164 Q28.5228 461.164 25.4441 456.58 Q22.3885 451.974 22.3885 443.247 Q22.3885 434.497 25.4441 429.914 Q28.5228 425.307 34.3329 425.307 Z" fill="#000000" fill-rule="evenodd" fill-opacity="1" /><path clip-path="url(#clip050)" d="M 0 0 M58.9537 408.312 L49.3618 423.302 L58.9537 423.302 L58.9537 408.312 M57.9569 405.002 L62.7341 405.002 L62.7341 423.302 L66.7402 423.302 L66.7402 426.462 L62.7341 426.462 L62.7341 433.082 L58.9537 433.082 L58.9537 426.462 L46.2773 426.462 L46.2773 422.794 L57.9569 405.002 Z" fill="#000000" fill-rule="evenodd" fill-opacity="1" /><path clip-path="url(#clip050)" d="M 0 0 M-147.078 199.75 L-130.759 199.75 L-130.759 203.685 L-152.703 203.685 L-152.703 199.75 Q-150.041 196.995 -145.458 192.365 Q-140.851 187.713 -139.671 186.37 Q-137.425 183.847 -136.546 182.111 Q-135.643 180.352 -135.643 178.662 Q-135.643 175.907 -137.587 174.171 Q-139.509 172.435 -142.611 172.435 Q-144.81 172.435 -147.263 173.199 Q-149.694 173.963 -152.472 175.514 L-152.472 170.791 Q-149.648 169.657 -147.194 169.078 Q-144.74 168.5 -142.703 168.5 Q-137.333 168.5 -134.138 171.185 Q-130.944 173.87 -130.944 178.361 Q-130.944 180.49 -131.754 182.412 Q-132.541 184.31 -134.648 186.902 Q-135.226 187.574 -138.328 190.791 Q-141.43 193.986 -147.078 199.75 Z" fill="#000000" fill-rule="evenodd" fill-opacity="1" /><path clip-path="url(#clip050)" d="M 0 0 M-120.944 197.805 L-116.06 197.805 L-116.06 203.685 L-120.944 203.685 L-120.944 197.805 Z" fill="#000000" fill-rule="evenodd" fill-opacity="1" /><path clip-path="url(#clip050)" d="M 0 0 M-105.828 169.125 L-87.472 169.125 L-87.472 173.06 L-101.546 173.06 L-101.546 181.532 Q-100.527 181.185 -99.509 181.023 Q-98.4904 180.838 -97.4719 180.838 Q-91.6849 180.838 -88.3053 184.009 Q-84.9257 187.18 -84.9257 192.597 Q-84.9257 198.175 -88.3979 201.277 Q-91.8701 204.356 -98.1895 204.356 Q-100.365 204.356 -102.634 203.986 Q-104.879 203.615 -107.287 202.875 L-107.287 198.175 Q-105.203 199.31 -102.981 199.865 Q-100.759 200.421 -98.2821 200.421 Q-94.2775 200.421 -91.9395 198.314 Q-89.6016 196.208 -89.6016 192.597 Q-89.6016 188.986 -91.9395 186.879 Q-94.2775 184.773 -98.2821 184.773 Q-100.157 184.773 -102.032 185.189 Q-103.884 185.606 -105.828 186.486 L-105.828 169.125 Z" fill="#000000" fill-rule="evenodd" fill-opacity="1" /><path clip-path="url(#clip050)" d="M 0 0 M-65.7128 172.203 Q-69.3239 172.203 -71.1526 175.768 Q-72.9582 179.31 -72.9582 186.439 Q-72.9582 193.546 -71.1526 197.111 Q-69.3239 200.652 -65.7128 200.652 Q-62.0786 200.652 -60.2731 197.111 Q-58.4444 193.546 -58.4444 186.439 Q-58.4444 179.31 -60.2731 175.768 Q-62.0786 172.203 -65.7128 172.203 M-65.7128 168.5 Q-59.9027 168.5 -56.8471 173.106 Q-53.7685 177.689 -53.7685 186.439 Q-53.7685 195.166 -56.8471 199.773 Q-59.9027 204.356 -65.7128 204.356 Q-71.523 204.356 -74.6017 199.773 Q-77.6572 195.166 -77.6572 186.439 Q-77.6572 177.689 -74.6017 173.106 Q-71.523 168.5 -65.7128 168.5 Z" fill="#000000" fill-rule="evenodd" fill-opacity="1" /><path clip-path="url(#clip050)" d="M 0 0 M-17.3798 178.222 L-27.9584 188.847 L-17.3798 199.425 L-20.1344 202.226 L-30.7593 191.601 L-41.3843 202.226 L-44.1157 199.425 L-33.5602 188.847 L-44.1157 178.222 L-41.3843 175.421 L-30.7593 186.046 L-20.1344 175.421 L-17.3798 178.222 Z" fill="#000000" fill-rule="evenodd" fill-opacity="1" /><path clip-path="url(#clip050)" d="M 0 0 M-5.01872 199.75 L2.62013 199.75 L2.62013 173.384 L-5.69001 175.051 L-5.69001 170.791 L2.57383 169.125 L7.24974 169.125 L7.24974 199.75 L14.8886 199.75 L14.8886 203.685 L-5.01872 203.685 L-5.01872 199.75 Z" fill="#000000" fill-rule="evenodd" fill-opacity="1" /><path clip-path="url(#clip050)" d="M 0 0 M34.3329 172.203 Q30.7218 172.203 28.8931 175.768 Q27.0876 179.31 27.0876 186.439 Q27.0876 193.546 28.8931 197.111 Q30.7218 200.652 34.3329 200.652 Q37.9672 200.652 39.7727 197.111 Q41.6014 193.546 41.6014 186.439 Q41.6014 179.31 39.7727 175.768 Q37.9672 172.203 34.3329 172.203 M34.3329 168.5 Q40.1431 168.5 43.1986 173.106 Q46.2773 177.689 46.2773 186.439 Q46.2773 195.166 43.1986 199.773 Q40.1431 204.356 34.3329 204.356 Q28.5228 204.356 25.4441 199.773 Q22.3885 195.166 22.3885 186.439 Q22.3885 177.689 25.4441 173.106 Q28.5228 168.5 34.3329 168.5 Z" fill="#000000" fill-rule="evenodd" fill-opacity="1" /><path clip-path="url(#clip050)" d="M 0 0 M58.9537 151.504 L49.3618 166.494 L58.9537 166.494 L58.9537 151.504 M57.9569 148.194 L62.7341 148.194 L62.7341 166.494 L66.7402 166.494 L66.7402 169.654 L62.7341 169.654 L62.7341 176.274 L58.9537 176.274 L58.9537 169.654 L46.2773 169.654 L46.2773 165.986 L57.9569 148.194 Z" fill="#000000" fill-rule="evenodd" fill-opacity="1" /><path clip-path="url(#clip050)" d="M 0 0 M-250.479 906.081 L-250.479 865.881 L-245.068 865.881 L-245.068 882.75 L-202.959 882.75 L-202.959 889.211 L-245.068 889.211 L-245.068 906.081 L-250.479 906.081 Z" fill="#000000" fill-rule="evenodd" fill-opacity="1" /><path clip-path="url(#clip050)" d="M 0 0 M-238.607 861.934 L-238.607 856.078 L-202.959 856.078 L-202.959 861.934 L-238.607 861.934 M-252.484 861.934 L-252.484 856.078 L-245.068 856.078 L-245.068 861.934 L-252.484 861.934 Z" fill="#000000" fill-rule="evenodd" fill-opacity="1" /><path clip-path="url(#clip050)" d="M 0 0 M-231.764 816.069 Q-235.711 813.873 -237.589 810.818 Q-239.466 807.762 -239.466 803.625 Q-239.466 798.055 -235.552 795.031 Q-231.668 792.007 -224.475 792.007 L-202.959 792.007 L-202.959 797.895 L-224.284 797.895 Q-229.409 797.895 -231.891 799.71 Q-234.374 801.524 -234.374 805.248 Q-234.374 809.799 -231.35 812.441 Q-228.326 815.083 -223.107 815.083 L-202.959 815.083 L-202.959 820.971 L-224.284 820.971 Q-229.44 820.971 -231.891 822.785 Q-234.374 824.6 -234.374 828.387 Q-234.374 832.875 -231.318 835.517 Q-228.295 838.158 -223.107 838.158 L-202.959 838.158 L-202.959 844.047 L-238.607 844.047 L-238.607 838.158 L-233.069 838.158 Q-236.347 836.153 -237.907 833.352 Q-239.466 830.551 -239.466 826.7 Q-239.466 822.817 -237.493 820.112 Q-235.52 817.374 -231.764 816.069 Z" fill="#000000" fill-rule="evenodd" fill-opacity="1" /><path clip-path="url(#clip050)" d="M 0 0 M-222.247 749.834 L-219.383 749.834 L-219.383 776.761 Q-213.335 776.379 -210.152 773.133 Q-207.001 769.854 -207.001 764.03 Q-207.001 760.656 -207.829 757.505 Q-208.656 754.322 -210.312 751.203 L-204.773 751.203 Q-203.437 754.354 -202.736 757.664 Q-202.036 760.974 -202.036 764.38 Q-202.036 772.91 -207.001 777.907 Q-211.967 782.872 -220.433 782.872 Q-229.186 782.872 -234.31 778.162 Q-239.466 773.419 -239.466 765.398 Q-239.466 758.205 -234.819 754.036 Q-230.204 749.834 -222.247 749.834 M-223.966 755.691 Q-228.772 755.754 -231.637 758.396 Q-234.501 761.006 -234.501 765.335 Q-234.501 770.236 -231.732 773.196 Q-228.963 776.125 -223.934 776.57 L-223.966 755.691 Z" fill="#000000" fill-rule="evenodd" fill-opacity="1" /><path clip-path="url(#clip050)" d="M 0 0 M-252.421 705.433 Q-245.1 709.699 -237.939 711.767 Q-230.777 713.836 -223.425 713.836 Q-216.072 713.836 -208.847 711.767 Q-201.654 709.667 -194.365 705.433 L-194.365 710.526 Q-201.845 715.3 -209.07 717.687 Q-216.295 720.043 -223.425 720.043 Q-230.523 720.043 -237.716 717.687 Q-244.909 715.332 -252.421 710.526 L-252.421 705.433 Z" fill="#000000" fill-rule="evenodd" fill-opacity="1" /><path clip-path="url(#clip050)" d="M 0 0 M-237.557 671.345 L-232.019 671.345 Q-233.292 673.828 -233.928 676.501 Q-234.565 679.175 -234.565 682.04 Q-234.565 686.4 -233.228 688.596 Q-231.891 690.761 -229.218 690.761 Q-227.181 690.761 -226.003 689.201 Q-224.857 687.641 -223.807 682.931 L-223.361 680.926 Q-222.024 674.687 -219.574 672.077 Q-217.155 669.435 -212.794 669.435 Q-207.829 669.435 -204.932 673.382 Q-202.036 677.297 -202.036 684.172 Q-202.036 687.037 -202.609 690.156 Q-203.15 693.243 -204.264 696.681 L-210.312 696.681 Q-208.625 693.434 -207.765 690.283 Q-206.938 687.132 -206.938 684.045 Q-206.938 679.907 -208.338 677.679 Q-209.77 675.451 -212.349 675.451 Q-214.736 675.451 -216.009 677.074 Q-217.282 678.666 -218.46 684.108 L-218.937 686.145 Q-220.083 691.588 -222.438 694.007 Q-224.825 696.426 -228.963 696.426 Q-233.992 696.426 -236.729 692.861 Q-239.466 689.296 -239.466 682.74 Q-239.466 679.493 -238.989 676.629 Q-238.512 673.764 -237.557 671.345 Z" fill="#000000" fill-rule="evenodd" fill-opacity="1" /><path clip-path="url(#clip050)" d="M 0 0 M-252.421 661.033 L-252.421 655.94 Q-244.909 651.166 -237.716 648.811 Q-230.523 646.423 -223.425 646.423 Q-216.295 646.423 -209.07 648.811 Q-201.845 651.166 -194.365 655.94 L-194.365 661.033 Q-201.654 656.799 -208.847 654.731 Q-216.072 652.63 -223.425 652.63 Q-230.777 652.63 -237.939 654.731 Q-245.1 656.799 -252.421 661.033 Z" fill="#000000" fill-rule="evenodd" fill-opacity="1" /><path clip-path="url(#clip052)" d="
M226.495 88.5087 L226.495 1464 L462.084 1464 L462.084 88.5087 L226.495 88.5087 L226.495 88.5087  Z
  " fill="#009af9" fill-rule="evenodd" fill-opacity="1"/>
<polyline clip-path="url(#clip052)" style="stroke:#000000; stroke-width:4; stroke-opacity:1; fill:none" points="
  226.495,88.5087 226.495,1464 462.084,1464 462.084,88.5087 226.495,88.5087 
  "/>
<path clip-path="url(#clip052)" d="
M520.981 789.078 L520.981 1464 L756.57 1464 L756.57 789.078 L520.981 789.078 L520.981 789.078  Z
  " fill="#009af9" fill-rule="evenodd" fill-opacity="1"/>
<polyline clip-path="url(#clip052)" style="stroke:#000000; stroke-width:4; stroke-opacity:1; fill:none" points="
  520.981,789.078 520.981,1464 756.57,1464 756.57,789.078 520.981,789.078 
  "/>
<path clip-path="url(#clip052)" d="
M815.467 1113.47 L815.467 1464 L1051.06 1464 L1051.06 1113.47 L815.467 1113.47 L815.467 1113.47  Z
  " fill="#009af9" fill-rule="evenodd" fill-opacity="1"/>
<polyline clip-path="url(#clip052)" style="stroke:#000000; stroke-width:4; stroke-opacity:1; fill:none" points="
  815.467,1113.47 815.467,1464 1051.06,1464 1051.06,1113.47 815.467,1113.47 
  "/>
<path clip-path="url(#clip052)" d="
M1109.95 1113.78 L1109.95 1464 L1345.54 1464 L1345.54 1113.78 L1109.95 1113.78 L1109.95 1113.78  Z
  " fill="#009af9" fill-rule="evenodd" fill-opacity="1"/>
<polyline clip-path="url(#clip052)" style="stroke:#000000; stroke-width:4; stroke-opacity:1; fill:none" points="
  1109.95,1113.78 1109.95,1464 1345.54,1464 1345.54,1113.78 1109.95,1113.78 
  "/>
<path clip-path="url(#clip052)" d="
M1404.44 1115.06 L1404.44 1464 L1640.03 1464 L1640.03 1115.06 L1404.44 1115.06 L1404.44 1115.06  Z
  " fill="#009af9" fill-rule="evenodd" fill-opacity="1"/>
<polyline clip-path="url(#clip052)" style="stroke:#000000; stroke-width:4; stroke-opacity:1; fill:none" points="
  1404.44,1115.06 1404.44,1464 1640.03,1464 1640.03,1115.06 1404.44,1115.06 
  "/>
<path clip-path="url(#clip052)" d="
M1698.93 1119.51 L1698.93 1464 L1934.51 1464 L1934.51 1119.51 L1698.93 1119.51 L1698.93 1119.51  Z
  " fill="#009af9" fill-rule="evenodd" fill-opacity="1"/>
<polyline clip-path="url(#clip052)" style="stroke:#000000; stroke-width:4; stroke-opacity:1; fill:none" points="
  1698.93,1119.51 1698.93,1464 1934.51,1464 1934.51,1119.51 1698.93,1119.51 
  "/>
<path clip-path="url(#clip052)" d="
M1993.41 1119.74 L1993.41 1464 L2229 1464 L2229 1119.74 L1993.41 1119.74 L1993.41 1119.74  Z
  " fill="#009af9" fill-rule="evenodd" fill-opacity="1"/>
<polyline clip-path="url(#clip052)" style="stroke:#000000; stroke-width:4; stroke-opacity:1; fill:none" points="
  1993.41,1119.74 1993.41,1464 2229,1464 2229,1119.74 1993.41,1119.74 
  "/>
</svg>
