<?xml version="1.0" encoding="utf-8"?>
<svg xmlns="http://www.w3.org/2000/svg" xmlns:xlink="http://www.w3.org/1999/xlink" width="600" height="400" viewBox="0 0 2400 1600">
<defs>
  <clipPath id="clip080">
    <rect x="0" y="0" width="2400" height="1600"/>
  </clipPath>
</defs>
<path clip-path="url(#clip080)" d="
M0 1600 L2400 1600 L2400 0 L0 0  Z
  " fill="#ffffff" fill-rule="evenodd" fill-opacity="1"/>
<defs>
  <clipPath id="clip081">
    <rect x="480" y="0" width="1681" height="1600"/>
  </clipPath>
</defs>
<path clip-path="url(#clip080)" d="
M102.74 1505.26 L2352.76 1505.26 L2352.76 47.2441 L102.74 47.2441  Z
  " fill="#ffffff" fill-rule="evenodd" fill-opacity="1"/>
<defs>
  <clipPath id="clip082">
    <rect x="102" y="47" width="2251" height="1459"/>
  </clipPath>
</defs>
<polyline clip-path="url(#clip082)" style="stroke:#000000; stroke-width:2; stroke-opacity:0.1; fill:none" points="
  317.518,1505.26 317.518,47.2441 
  "/>
<polyline clip-path="url(#clip082)" style="stroke:#000000; stroke-width:2; stroke-opacity:0.1; fill:none" points="
  545.076,1505.26 545.076,47.2441 
  "/>
<polyline clip-path="url(#clip082)" style="stroke:#000000; stroke-width:2; stroke-opacity:0.1; fill:none" points="
  772.633,1505.26 772.633,47.2441 
  "/>
<polyline clip-path="url(#clip082)" style="stroke:#000000; stroke-width:2; stroke-opacity:0.1; fill:none" points="
  1000.19,1505.26 1000.19,47.2441 
  "/>
<polyline clip-path="url(#clip082)" style="stroke:#000000; stroke-width:2; stroke-opacity:0.1; fill:none" points="
  1227.75,1505.26 1227.75,47.2441 
  "/>
<polyline clip-path="url(#clip082)" style="stroke:#000000; stroke-width:2; stroke-opacity:0.1; fill:none" points="
  1455.31,1505.26 1455.31,47.2441 
  "/>
<polyline clip-path="url(#clip082)" style="stroke:#000000; stroke-width:2; stroke-opacity:0.1; fill:none" points="
  1682.86,1505.26 1682.86,47.2441 
  "/>
<polyline clip-path="url(#clip082)" style="stroke:#000000; stroke-width:2; stroke-opacity:0.1; fill:none" points="
  1910.42,1505.26 1910.42,47.2441 
  "/>
<polyline clip-path="url(#clip082)" style="stroke:#000000; stroke-width:2; stroke-opacity:0.1; fill:none" points="
  2137.98,1505.26 2137.98,47.2441 
  "/>
<polyline clip-path="url(#clip080)" style="stroke:#000000; stroke-width:4; stroke-opacity:1; fill:none" points="
  102.74,1505.26 2352.76,1505.26 
  "/>
<polyline clip-path="url(#clip080)" style="stroke:#000000; stroke-width:4; stroke-opacity:1; fill:none" points="
  317.518,1505.26 317.518,1487.76 
  "/>
<polyline clip-path="url(#clip080)" style="stroke:#000000; stroke-width:4; stroke-opacity:1; fill:none" points="
  545.076,1505.26 545.076,1487.76 
  "/>
<polyline clip-path="url(#clip080)" style="stroke:#000000; stroke-width:4; stroke-opacity:1; fill:none" points="
  772.633,1505.26 772.633,1487.76 
  "/>
<polyline clip-path="url(#clip080)" style="stroke:#000000; stroke-width:4; stroke-opacity:1; fill:none" points="
  1000.19,1505.26 1000.19,1487.76 
  "/>
<polyline clip-path="url(#clip080)" style="stroke:#000000; stroke-width:4; stroke-opacity:1; fill:none" points="
  1227.75,1505.26 1227.75,1487.76 
  "/>
<polyline clip-path="url(#clip080)" style="stroke:#000000; stroke-width:4; stroke-opacity:1; fill:none" points="
  1455.31,1505.26 1455.31,1487.76 
  "/>
<polyline clip-path="url(#clip080)" style="stroke:#000000; stroke-width:4; stroke-opacity:1; fill:none" points="
  1682.86,1505.26 1682.86,1487.76 
  "/>
<polyline clip-path="url(#clip080)" style="stroke:#000000; stroke-width:4; stroke-opacity:1; fill:none" points="
  1910.42,1505.26 1910.42,1487.76 
  "/>
<polyline clip-path="url(#clip080)" style="stroke:#000000; stroke-width:4; stroke-opacity:1; fill:none" points="
  2137.98,1505.26 2137.98,1487.76 
  "/>
<path clip-path="url(#clip080)" d="M 0 0 M312.171 1562 L328.49 1562 L328.49 1565.93 L306.546 1565.93 L306.546 1562 Q309.208 1559.24 313.791 1554.61 Q318.398 1549.96 319.578 1548.62 Q321.824 1546.09 322.703 1544.36 Q323.606 1542.6 323.606 1540.91 Q323.606 1538.15 321.662 1536.42 Q319.74 1534.68 316.638 1534.68 Q314.439 1534.68 311.986 1535.45 Q309.555 1536.21 306.777 1537.76 L306.777 1533.04 Q309.601 1531.9 312.055 1531.33 Q314.509 1530.75 316.546 1530.75 Q321.916 1530.75 325.111 1533.43 Q328.305 1536.12 328.305 1540.61 Q328.305 1542.74 327.495 1544.66 Q326.708 1546.56 324.601 1549.15 Q324.023 1549.82 320.921 1553.04 Q317.819 1556.23 312.171 1562 Z" fill="#000000" fill-rule="evenodd" fill-opacity="1" /><path clip-path="url(#clip080)" d="M 0 0 M548.085 1535.45 L536.279 1553.89 L548.085 1553.89 L548.085 1535.45 M546.858 1531.37 L552.738 1531.37 L552.738 1553.89 L557.668 1553.89 L557.668 1557.78 L552.738 1557.78 L552.738 1565.93 L548.085 1565.93 L548.085 1557.78 L532.483 1557.78 L532.483 1553.27 L546.858 1531.37 Z" fill="#000000" fill-rule="evenodd" fill-opacity="1" /><path clip-path="url(#clip080)" d="M 0 0 M772.633 1549.52 Q769.3 1549.52 767.378 1551.3 Q765.48 1553.08 765.48 1556.21 Q765.48 1559.33 767.378 1561.12 Q769.3 1562.9 772.633 1562.9 Q775.966 1562.9 777.888 1561.12 Q779.809 1559.31 779.809 1556.21 Q779.809 1553.08 777.888 1551.3 Q775.989 1549.52 772.633 1549.52 M767.957 1547.53 Q764.948 1546.79 763.258 1544.73 Q761.591 1542.67 761.591 1539.71 Q761.591 1535.56 764.531 1533.15 Q767.494 1530.75 772.633 1530.75 Q777.795 1530.75 780.735 1533.15 Q783.675 1535.56 783.675 1539.71 Q783.675 1542.67 781.985 1544.73 Q780.318 1546.79 777.332 1547.53 Q780.712 1548.32 782.587 1550.61 Q784.485 1552.9 784.485 1556.21 Q784.485 1561.23 781.406 1563.92 Q778.351 1566.6 772.633 1566.6 Q766.915 1566.6 763.837 1563.92 Q760.781 1561.23 760.781 1556.21 Q760.781 1552.9 762.679 1550.61 Q764.578 1548.32 767.957 1547.53 M766.244 1540.14 Q766.244 1542.83 767.911 1544.33 Q769.601 1545.84 772.633 1545.84 Q775.642 1545.84 777.332 1544.33 Q779.045 1542.83 779.045 1540.14 Q779.045 1537.46 777.332 1535.96 Q775.642 1534.45 772.633 1534.45 Q769.601 1534.45 767.911 1535.96 Q766.244 1537.46 766.244 1540.14 Z" fill="#000000" fill-rule="evenodd" fill-opacity="1" /><path clip-path="url(#clip080)" d="M 0 0 M974.797 1562 L982.436 1562 L982.436 1535.63 L974.126 1537.3 L974.126 1533.04 L982.39 1531.37 L987.066 1531.37 L987.066 1562 L994.704 1562 L994.704 1565.93 L974.797 1565.93 L974.797 1562 Z" fill="#000000" fill-rule="evenodd" fill-opacity="1" /><path clip-path="url(#clip080)" d="M 0 0 M1014.73 1546.79 Q1011.58 1546.79 1009.73 1548.94 Q1007.9 1551.09 1007.9 1554.84 Q1007.9 1558.57 1009.73 1560.75 Q1011.58 1562.9 1014.73 1562.9 Q1017.88 1562.9 1019.7 1560.75 Q1021.56 1558.57 1021.56 1554.84 Q1021.56 1551.09 1019.7 1548.94 Q1017.88 1546.79 1014.73 1546.79 M1024.01 1532.14 L1024.01 1536.39 Q1022.25 1535.56 1020.45 1535.12 Q1018.66 1534.68 1016.9 1534.68 Q1012.27 1534.68 1009.82 1537.81 Q1007.39 1540.93 1007.04 1547.25 Q1008.41 1545.24 1010.47 1544.17 Q1012.53 1543.08 1015.01 1543.08 Q1020.21 1543.08 1023.22 1546.26 Q1026.26 1549.4 1026.26 1554.84 Q1026.26 1560.17 1023.11 1563.39 Q1019.96 1566.6 1014.73 1566.6 Q1008.73 1566.6 1005.56 1562.02 Q1002.39 1557.41 1002.39 1548.69 Q1002.39 1540.49 1006.28 1535.63 Q1010.17 1530.75 1016.72 1530.75 Q1018.48 1530.75 1020.26 1531.09 Q1022.07 1531.44 1024.01 1532.14 Z" fill="#000000" fill-rule="evenodd" fill-opacity="1" /><path clip-path="url(#clip080)" d="M 0 0 M1217.39 1547.3 Q1220.75 1548.02 1222.62 1550.28 Q1224.52 1552.55 1224.52 1555.89 Q1224.52 1561 1221 1563.8 Q1217.48 1566.6 1211 1566.6 Q1208.82 1566.6 1206.51 1566.16 Q1204.22 1565.75 1201.76 1564.89 L1201.76 1560.38 Q1203.71 1561.51 1206.02 1562.09 Q1208.34 1562.67 1210.86 1562.67 Q1215.26 1562.67 1217.55 1560.93 Q1219.87 1559.2 1219.87 1555.89 Q1219.87 1552.83 1217.71 1551.12 Q1215.58 1549.38 1211.76 1549.38 L1207.74 1549.38 L1207.74 1545.54 L1211.95 1545.54 Q1215.4 1545.54 1217.23 1544.17 Q1219.06 1542.78 1219.06 1540.19 Q1219.06 1537.53 1217.16 1536.12 Q1215.28 1534.68 1211.76 1534.68 Q1209.84 1534.68 1207.64 1535.1 Q1205.44 1535.52 1202.81 1536.39 L1202.81 1532.23 Q1205.47 1531.49 1207.78 1531.12 Q1210.12 1530.75 1212.18 1530.75 Q1217.51 1530.75 1220.61 1533.18 Q1223.71 1535.58 1223.71 1539.71 Q1223.71 1542.58 1222.07 1544.57 Q1220.42 1546.53 1217.39 1547.3 Z" fill="#000000" fill-rule="evenodd" fill-opacity="1" /><path clip-path="url(#clip080)" d="M 0 0 M1237.41 1562 L1253.73 1562 L1253.73 1565.93 L1231.79 1565.93 L1231.79 1562 Q1234.45 1559.24 1239.03 1554.61 Q1243.64 1549.96 1244.82 1548.62 Q1247.07 1546.09 1247.94 1544.36 Q1248.85 1542.6 1248.85 1540.91 Q1248.85 1538.15 1246.9 1536.42 Q1244.98 1534.68 1241.88 1534.68 Q1239.68 1534.68 1237.23 1535.45 Q1234.8 1536.21 1232.02 1537.76 L1232.02 1533.04 Q1234.84 1531.9 1237.3 1531.33 Q1239.75 1530.75 1241.79 1530.75 Q1247.16 1530.75 1250.35 1533.43 Q1253.55 1536.12 1253.55 1540.61 Q1253.55 1542.74 1252.74 1544.66 Q1251.95 1546.56 1249.84 1549.15 Q1249.26 1549.82 1246.16 1553.04 Q1243.06 1556.23 1237.41 1562 Z" fill="#000000" fill-rule="evenodd" fill-opacity="1" /><path clip-path="url(#clip080)" d="M 0 0 M1443.52 1535.45 L1431.72 1553.89 L1443.52 1553.89 L1443.52 1535.45 M1442.3 1531.37 L1448.18 1531.37 L1448.18 1553.89 L1453.11 1553.89 L1453.11 1557.78 L1448.18 1557.78 L1448.18 1565.93 L1443.52 1565.93 L1443.52 1557.78 L1427.92 1557.78 L1427.92 1553.27 L1442.3 1531.37 Z" fill="#000000" fill-rule="evenodd" fill-opacity="1" /><path clip-path="url(#clip080)" d="M 0 0 M1470.84 1549.52 Q1467.5 1549.52 1465.58 1551.3 Q1463.69 1553.08 1463.69 1556.21 Q1463.69 1559.33 1465.58 1561.12 Q1467.5 1562.9 1470.84 1562.9 Q1474.17 1562.9 1476.09 1561.12 Q1478.01 1559.31 1478.01 1556.21 Q1478.01 1553.08 1476.09 1551.3 Q1474.19 1549.52 1470.84 1549.52 M1466.16 1547.53 Q1463.15 1546.79 1461.46 1544.73 Q1459.8 1542.67 1459.8 1539.71 Q1459.8 1535.56 1462.74 1533.15 Q1465.7 1530.75 1470.84 1530.75 Q1476 1530.75 1478.94 1533.15 Q1481.88 1535.56 1481.88 1539.71 Q1481.88 1542.67 1480.19 1544.73 Q1478.52 1546.79 1475.54 1547.53 Q1478.92 1548.32 1480.79 1550.61 Q1482.69 1552.9 1482.69 1556.21 Q1482.69 1561.23 1479.61 1563.92 Q1476.56 1566.6 1470.84 1566.6 Q1465.12 1566.6 1462.04 1563.92 Q1458.99 1561.23 1458.99 1556.21 Q1458.99 1552.9 1460.88 1550.61 Q1462.78 1548.32 1466.16 1547.53 M1464.45 1540.14 Q1464.45 1542.83 1466.12 1544.33 Q1467.81 1545.84 1470.84 1545.84 Q1473.85 1545.84 1475.54 1544.33 Q1477.25 1542.83 1477.25 1540.14 Q1477.25 1537.46 1475.54 1535.96 Q1473.85 1534.45 1470.84 1534.45 Q1467.81 1534.45 1466.12 1535.96 Q1464.45 1537.46 1464.45 1540.14 Z" fill="#000000" fill-rule="evenodd" fill-opacity="1" /><path clip-path="url(#clip080)" d="M 0 0 M1668.03 1546.79 Q1664.88 1546.79 1663.03 1548.94 Q1661.2 1551.09 1661.2 1554.84 Q1661.2 1558.57 1663.03 1560.75 Q1664.88 1562.9 1668.03 1562.9 Q1671.17 1562.9 1673 1560.75 Q1674.85 1558.57 1674.85 1554.84 Q1674.85 1551.09 1673 1548.94 Q1671.17 1546.79 1668.03 1546.79 M1677.31 1532.14 L1677.31 1536.39 Q1675.55 1535.56 1673.74 1535.12 Q1671.96 1534.68 1670.2 1534.68 Q1665.57 1534.68 1663.12 1537.81 Q1660.69 1540.93 1660.34 1547.25 Q1661.71 1545.24 1663.77 1544.17 Q1665.83 1543.08 1668.3 1543.08 Q1673.51 1543.08 1676.52 1546.26 Q1679.55 1549.4 1679.55 1554.84 Q1679.55 1560.17 1676.4 1563.39 Q1673.26 1566.6 1668.03 1566.6 Q1662.03 1566.6 1658.86 1562.02 Q1655.69 1557.41 1655.69 1548.69 Q1655.69 1540.49 1659.58 1535.63 Q1663.46 1530.75 1670.02 1530.75 Q1671.78 1530.75 1673.56 1531.09 Q1675.36 1531.44 1677.31 1532.14 Z" fill="#000000" fill-rule="evenodd" fill-opacity="1" /><path clip-path="url(#clip080)" d="M 0 0 M1700.46 1535.45 L1688.65 1553.89 L1700.46 1553.89 L1700.46 1535.45 M1699.23 1531.37 L1705.11 1531.37 L1705.11 1553.89 L1710.04 1553.89 L1710.04 1557.78 L1705.11 1557.78 L1705.11 1565.93 L1700.46 1565.93 L1700.46 1557.78 L1684.85 1557.78 L1684.85 1553.27 L1699.23 1531.37 Z" fill="#000000" fill-rule="evenodd" fill-opacity="1" /><path clip-path="url(#clip080)" d="M 0 0 M1895.29 1549.52 Q1891.96 1549.52 1890.04 1551.3 Q1888.14 1553.08 1888.14 1556.21 Q1888.14 1559.33 1890.04 1561.12 Q1891.96 1562.9 1895.29 1562.9 Q1898.63 1562.9 1900.55 1561.12 Q1902.47 1559.31 1902.47 1556.21 Q1902.47 1553.08 1900.55 1551.3 Q1898.65 1549.52 1895.29 1549.52 M1890.62 1547.53 Q1887.61 1546.79 1885.92 1544.73 Q1884.25 1542.67 1884.25 1539.71 Q1884.25 1535.56 1887.19 1533.15 Q1890.15 1530.75 1895.29 1530.75 Q1900.46 1530.75 1903.4 1533.15 Q1906.33 1535.56 1906.33 1539.71 Q1906.33 1542.67 1904.65 1544.73 Q1902.98 1546.79 1899.99 1547.53 Q1903.37 1548.32 1905.25 1550.61 Q1907.15 1552.9 1907.15 1556.21 Q1907.15 1561.23 1904.07 1563.92 Q1901.01 1566.6 1895.29 1566.6 Q1889.58 1566.6 1886.5 1563.92 Q1883.44 1561.23 1883.44 1556.21 Q1883.44 1552.9 1885.34 1550.61 Q1887.24 1548.32 1890.62 1547.53 M1888.9 1540.14 Q1888.9 1542.83 1890.57 1544.33 Q1892.26 1545.84 1895.29 1545.84 Q1898.3 1545.84 1899.99 1544.33 Q1901.71 1542.83 1901.71 1540.14 Q1901.71 1537.46 1899.99 1535.96 Q1898.3 1534.45 1895.29 1534.45 Q1892.26 1534.45 1890.57 1535.96 Q1888.9 1537.46 1888.9 1540.14 Z" fill="#000000" fill-rule="evenodd" fill-opacity="1" /><path clip-path="url(#clip080)" d="M 0 0 M1925.46 1534.45 Q1921.84 1534.45 1920.02 1538.02 Q1918.21 1541.56 1918.21 1548.69 Q1918.21 1555.79 1920.02 1559.36 Q1921.84 1562.9 1925.46 1562.9 Q1929.09 1562.9 1930.89 1559.36 Q1932.72 1555.79 1932.72 1548.69 Q1932.72 1541.56 1930.89 1538.02 Q1929.09 1534.45 1925.46 1534.45 M1925.46 1530.75 Q1931.27 1530.75 1934.32 1535.35 Q1937.4 1539.94 1937.4 1548.69 Q1937.4 1557.41 1934.32 1562.02 Q1931.27 1566.6 1925.46 1566.6 Q1919.65 1566.6 1916.57 1562.02 Q1913.51 1557.41 1913.51 1548.69 Q1913.51 1539.94 1916.57 1535.35 Q1919.65 1530.75 1925.46 1530.75 Z" fill="#000000" fill-rule="evenodd" fill-opacity="1" /><path clip-path="url(#clip080)" d="M 0 0 M2113.02 1565.21 L2113.02 1560.96 Q2114.78 1561.79 2116.59 1562.23 Q2118.39 1562.67 2120.13 1562.67 Q2124.76 1562.67 2127.19 1559.57 Q2129.64 1556.44 2129.99 1550.1 Q2128.65 1552.09 2126.59 1553.15 Q2124.53 1554.22 2122.03 1554.22 Q2116.84 1554.22 2113.81 1551.09 Q2110.8 1547.95 2110.8 1542.51 Q2110.8 1537.18 2113.95 1533.96 Q2117.1 1530.75 2122.33 1530.75 Q2128.33 1530.75 2131.47 1535.35 Q2134.64 1539.94 2134.64 1548.69 Q2134.64 1556.86 2130.76 1561.74 Q2126.89 1566.6 2120.34 1566.6 Q2118.58 1566.6 2116.77 1566.26 Q2114.97 1565.91 2113.02 1565.21 M2122.33 1550.56 Q2125.48 1550.56 2127.31 1548.41 Q2129.16 1546.26 2129.16 1542.51 Q2129.16 1538.78 2127.31 1536.63 Q2125.48 1534.45 2122.33 1534.45 Q2119.18 1534.45 2117.33 1536.63 Q2115.5 1538.78 2115.5 1542.51 Q2115.5 1546.26 2117.33 1548.41 Q2119.18 1550.56 2122.33 1550.56 Z" fill="#000000" fill-rule="evenodd" fill-opacity="1" /><path clip-path="url(#clip080)" d="M 0 0 M2153.63 1546.79 Q2150.48 1546.79 2148.63 1548.94 Q2146.8 1551.09 2146.8 1554.84 Q2146.8 1558.57 2148.63 1560.75 Q2150.48 1562.9 2153.63 1562.9 Q2156.77 1562.9 2158.6 1560.75 Q2160.45 1558.57 2160.45 1554.84 Q2160.45 1551.09 2158.6 1548.94 Q2156.77 1546.79 2153.63 1546.79 M2162.91 1532.14 L2162.91 1536.39 Q2161.15 1535.56 2159.34 1535.12 Q2157.56 1534.68 2155.8 1534.68 Q2151.17 1534.68 2148.72 1537.81 Q2146.29 1540.93 2145.94 1547.25 Q2147.31 1545.24 2149.37 1544.17 Q2151.43 1543.08 2153.9 1543.08 Q2159.11 1543.08 2162.12 1546.26 Q2165.15 1549.4 2165.15 1554.84 Q2165.15 1560.17 2162.01 1563.39 Q2158.86 1566.6 2153.63 1566.6 Q2147.63 1566.6 2144.46 1562.02 Q2141.29 1557.41 2141.29 1548.69 Q2141.29 1540.49 2145.18 1535.63 Q2149.07 1530.75 2155.62 1530.75 Q2157.38 1530.75 2159.16 1531.09 Q2160.96 1531.44 2162.91 1532.14 Z" fill="#000000" fill-rule="evenodd" fill-opacity="1" /><path clip-path="url(#clip080)" d="M 0 0 M1078.3 1607.89 L1078.3 1625.74 L1086.38 1625.74 Q1090.87 1625.74 1093.32 1623.42 Q1095.77 1621.1 1095.77 1616.8 Q1095.77 1612.53 1093.32 1610.21 Q1090.87 1607.89 1086.38 1607.89 L1078.3 1607.89 M1071.87 1602.6 L1086.38 1602.6 Q1094.37 1602.6 1098.44 1606.23 Q1102.55 1609.83 1102.55 1616.8 Q1102.55 1623.83 1098.44 1627.43 Q1094.37 1631.03 1086.38 1631.03 L1078.3 1631.03 L1078.3 1650.12 L1071.87 1650.12 L1071.87 1602.6 Z" fill="#000000" fill-rule="evenodd" fill-opacity="1" /><path clip-path="url(#clip080)" d="M 0 0 M1130.43 1619.95 Q1129.45 1619.38 1128.27 1619.12 Q1127.12 1618.84 1125.72 1618.84 Q1120.76 1618.84 1118.08 1622.08 Q1115.44 1625.3 1115.44 1631.35 L1115.44 1650.12 L1109.55 1650.12 L1109.55 1614.48 L1115.44 1614.48 L1115.44 1620.01 Q1117.29 1616.77 1120.25 1615.21 Q1123.21 1613.62 1127.44 1613.62 Q1128.05 1613.62 1128.78 1613.71 Q1129.51 1613.78 1130.4 1613.93 L1130.43 1619.95 Z" fill="#000000" fill-rule="evenodd" fill-opacity="1" /><path clip-path="url(#clip080)" d="M 0 0 M1148.96 1618.58 Q1144.25 1618.58 1141.51 1622.27 Q1138.77 1625.93 1138.77 1632.33 Q1138.77 1638.73 1141.48 1642.42 Q1144.21 1646.08 1148.96 1646.08 Q1153.64 1646.08 1156.37 1642.39 Q1159.11 1638.7 1159.11 1632.33 Q1159.11 1626 1156.37 1622.31 Q1153.64 1618.58 1148.96 1618.58 M1148.96 1613.62 Q1156.6 1613.62 1160.96 1618.58 Q1165.32 1623.55 1165.32 1632.33 Q1165.32 1641.08 1160.96 1646.08 Q1156.6 1651.05 1148.96 1651.05 Q1141.29 1651.05 1136.93 1646.08 Q1132.6 1641.08 1132.6 1632.33 Q1132.6 1623.55 1136.93 1618.58 Q1141.29 1613.62 1148.96 1613.62 Z" fill="#000000" fill-rule="evenodd" fill-opacity="1" /><path clip-path="url(#clip080)" d="M 0 0 M1200.68 1615.84 L1200.68 1621.32 Q1198.2 1619.95 1195.68 1619.28 Q1193.2 1618.58 1190.65 1618.58 Q1184.95 1618.58 1181.8 1622.21 Q1178.65 1625.81 1178.65 1632.33 Q1178.65 1638.86 1181.8 1642.48 Q1184.95 1646.08 1190.65 1646.08 Q1193.2 1646.08 1195.68 1645.41 Q1198.2 1644.71 1200.68 1643.34 L1200.68 1648.76 Q1198.23 1649.9 1195.59 1650.47 Q1192.98 1651.05 1190.02 1651.05 Q1181.96 1651.05 1177.22 1645.99 Q1172.48 1640.93 1172.48 1632.33 Q1172.48 1623.61 1177.25 1618.61 Q1182.06 1613.62 1190.4 1613.62 Q1193.1 1613.62 1195.68 1614.19 Q1198.26 1614.73 1200.68 1615.84 Z" fill="#000000" fill-rule="evenodd" fill-opacity="1" /><path clip-path="url(#clip080)" d="M 0 0 M1241.35 1630.84 L1241.35 1633.7 L1214.43 1633.7 Q1214.81 1639.75 1218.06 1642.93 Q1221.33 1646.08 1227.16 1646.08 Q1230.53 1646.08 1233.68 1645.25 Q1236.87 1644.43 1239.99 1642.77 L1239.99 1648.31 Q1236.84 1649.65 1233.52 1650.35 Q1230.21 1651.05 1226.81 1651.05 Q1218.28 1651.05 1213.28 1646.08 Q1208.32 1641.12 1208.32 1632.65 Q1208.32 1623.9 1213.03 1618.77 Q1217.77 1613.62 1225.79 1613.62 Q1232.98 1613.62 1237.15 1618.26 Q1241.35 1622.88 1241.35 1630.84 M1235.5 1629.12 Q1235.43 1624.31 1232.79 1621.45 Q1230.18 1618.58 1225.85 1618.58 Q1220.95 1618.58 1217.99 1621.35 Q1215.06 1624.12 1214.62 1629.15 L1235.5 1629.12 Z" fill="#000000" fill-rule="evenodd" fill-opacity="1" /><path clip-path="url(#clip080)" d="M 0 0 M1273.69 1615.53 L1273.69 1621.06 Q1271.21 1619.79 1268.54 1619.15 Q1265.86 1618.52 1263 1618.52 Q1258.64 1618.52 1256.44 1619.85 Q1254.28 1621.19 1254.28 1623.87 Q1254.28 1625.9 1255.84 1627.08 Q1257.4 1628.23 1262.11 1629.28 L1264.11 1629.72 Q1270.35 1631.06 1272.96 1633.51 Q1275.6 1635.93 1275.6 1640.29 Q1275.6 1645.25 1271.66 1648.15 Q1267.74 1651.05 1260.87 1651.05 Q1258 1651.05 1254.88 1650.47 Q1251.79 1649.93 1248.36 1648.82 L1248.36 1642.77 Q1251.6 1644.46 1254.75 1645.32 Q1257.91 1646.15 1260.99 1646.15 Q1265.13 1646.15 1267.36 1644.74 Q1269.59 1643.31 1269.59 1640.73 Q1269.59 1638.35 1267.96 1637.07 Q1266.37 1635.8 1260.93 1634.62 L1258.89 1634.15 Q1253.45 1633 1251.03 1630.64 Q1248.61 1628.26 1248.61 1624.12 Q1248.61 1619.09 1252.18 1616.35 Q1255.74 1613.62 1262.3 1613.62 Q1265.54 1613.62 1268.41 1614.09 Q1271.27 1614.57 1273.69 1615.53 Z" fill="#000000" fill-rule="evenodd" fill-opacity="1" /><path clip-path="url(#clip080)" d="M 0 0 M1307.65 1615.53 L1307.65 1621.06 Q1305.17 1619.79 1302.5 1619.15 Q1299.82 1618.52 1296.96 1618.52 Q1292.6 1618.52 1290.4 1619.85 Q1288.24 1621.19 1288.24 1623.87 Q1288.24 1625.9 1289.8 1627.08 Q1291.36 1628.23 1296.07 1629.28 L1298.07 1629.72 Q1304.31 1631.06 1306.92 1633.51 Q1309.56 1635.93 1309.56 1640.29 Q1309.56 1645.25 1305.62 1648.15 Q1301.7 1651.05 1294.83 1651.05 Q1291.96 1651.05 1288.84 1650.47 Q1285.76 1649.93 1282.32 1648.82 L1282.32 1642.77 Q1285.56 1644.46 1288.72 1645.32 Q1291.87 1646.15 1294.95 1646.15 Q1299.09 1646.15 1301.32 1644.74 Q1303.55 1643.31 1303.55 1640.73 Q1303.55 1638.35 1301.92 1637.07 Q1300.33 1635.8 1294.89 1634.62 L1292.85 1634.15 Q1287.41 1633 1284.99 1630.64 Q1282.57 1628.26 1282.57 1624.12 Q1282.57 1619.09 1286.14 1616.35 Q1289.7 1613.62 1296.26 1613.62 Q1299.51 1613.62 1302.37 1614.09 Q1305.23 1614.57 1307.65 1615.53 Z" fill="#000000" fill-rule="evenodd" fill-opacity="1" /><path clip-path="url(#clip080)" d="M 0 0 M1349.38 1630.84 L1349.38 1633.7 L1322.45 1633.7 Q1322.84 1639.75 1326.08 1642.93 Q1329.36 1646.08 1335.19 1646.08 Q1338.56 1646.08 1341.71 1645.25 Q1344.89 1644.43 1348.01 1642.77 L1348.01 1648.31 Q1344.86 1649.65 1341.55 1650.35 Q1338.24 1651.05 1334.84 1651.05 Q1326.31 1651.05 1321.31 1646.08 Q1316.34 1641.12 1316.34 1632.65 Q1316.34 1623.9 1321.05 1618.77 Q1325.8 1613.62 1333.82 1613.62 Q1341.01 1613.62 1345.18 1618.26 Q1349.38 1622.88 1349.38 1630.84 M1343.52 1629.12 Q1343.46 1624.31 1340.82 1621.45 Q1338.21 1618.58 1333.88 1618.58 Q1328.98 1618.58 1326.02 1621.35 Q1323.09 1624.12 1322.64 1629.15 L1343.52 1629.12 Z" fill="#000000" fill-rule="evenodd" fill-opacity="1" /><path clip-path="url(#clip080)" d="M 0 0 M1381.72 1615.53 L1381.72 1621.06 Q1379.24 1619.79 1376.56 1619.15 Q1373.89 1618.52 1371.02 1618.52 Q1366.66 1618.52 1364.47 1619.85 Q1362.3 1621.19 1362.3 1623.87 Q1362.3 1625.9 1363.86 1627.08 Q1365.42 1628.23 1370.13 1629.28 L1372.14 1629.72 Q1378.38 1631.06 1380.99 1633.51 Q1383.63 1635.93 1383.63 1640.29 Q1383.63 1645.25 1379.68 1648.15 Q1375.77 1651.05 1368.89 1651.05 Q1366.03 1651.05 1362.91 1650.47 Q1359.82 1649.93 1356.38 1648.82 L1356.38 1642.77 Q1359.63 1644.46 1362.78 1645.32 Q1365.93 1646.15 1369.02 1646.15 Q1373.16 1646.15 1375.38 1644.74 Q1377.61 1643.31 1377.61 1640.73 Q1377.61 1638.35 1375.99 1637.07 Q1374.4 1635.8 1368.96 1634.62 L1366.92 1634.15 Q1361.48 1633 1359.06 1630.64 Q1356.64 1628.26 1356.64 1624.12 Q1356.64 1619.09 1360.2 1616.35 Q1363.77 1613.62 1370.32 1613.62 Q1373.57 1613.62 1376.44 1614.09 Q1379.3 1614.57 1381.72 1615.53 Z" fill="#000000" fill-rule="evenodd" fill-opacity="1" /><polyline clip-path="url(#clip082)" style="stroke:#000000; stroke-width:2; stroke-opacity:0.1; fill:none" points="
  102.74,1464 2352.76,1464 
  "/>
<polyline clip-path="url(#clip082)" style="stroke:#000000; stroke-width:2; stroke-opacity:0.1; fill:none" points="
  102.74,1254.55 2352.76,1254.55 
  "/>
<polyline clip-path="url(#clip082)" style="stroke:#000000; stroke-width:2; stroke-opacity:0.1; fill:none" points="
  102.74,1045.11 2352.76,1045.11 
  "/>
<polyline clip-path="url(#clip082)" style="stroke:#000000; stroke-width:2; stroke-opacity:0.1; fill:none" points="
  102.74,835.661 2352.76,835.661 
  "/>
<polyline clip-path="url(#clip082)" style="stroke:#000000; stroke-width:2; stroke-opacity:0.1; fill:none" points="
  102.74,626.216 2352.76,626.216 
  "/>
<polyline clip-path="url(#clip082)" style="stroke:#000000; stroke-width:2; stroke-opacity:0.1; fill:none" points="
  102.74,416.771 2352.76,416.771 
  "/>
<polyline clip-path="url(#clip082)" style="stroke:#000000; stroke-width:2; stroke-opacity:0.1; fill:none" points="
  102.74,207.327 2352.76,207.327 
  "/>
<polyline clip-path="url(#clip080)" style="stroke:#000000; stroke-width:4; stroke-opacity:1; fill:none" points="
  102.74,1505.26 102.74,47.2441 
  "/>
<polyline clip-path="url(#clip080)" style="stroke:#000000; stroke-width:4; stroke-opacity:1; fill:none" points="
  102.74,1464 129.74,1464 
  "/>
<polyline clip-path="url(#clip080)" style="stroke:#000000; stroke-width:4; stroke-opacity:1; fill:none" points="
  102.74,1254.55 129.74,1254.55 
  "/>
<polyline clip-path="url(#clip080)" style="stroke:#000000; stroke-width:4; stroke-opacity:1; fill:none" points="
  102.74,1045.11 129.74,1045.11 
  "/>
<polyline clip-path="url(#clip080)" style="stroke:#000000; stroke-width:4; stroke-opacity:1; fill:none" points="
  102.74,835.661 129.74,835.661 
  "/>
<polyline clip-path="url(#clip080)" style="stroke:#000000; stroke-width:4; stroke-opacity:1; fill:none" points="
  102.74,626.216 129.74,626.216 
  "/>
<polyline clip-path="url(#clip080)" style="stroke:#000000; stroke-width:4; stroke-opacity:1; fill:none" points="
  102.74,416.771 129.74,416.771 
  "/>
<polyline clip-path="url(#clip080)" style="stroke:#000000; stroke-width:4; stroke-opacity:1; fill:none" points="
  102.74,207.327 129.74,207.327 
  "/>
<path clip-path="url(#clip080)" d="M 0 0 M54.7958 1449.79 Q51.1847 1449.79 49.356 1453.36 Q47.5504 1456.9 47.5504 1464.03 Q47.5504 1471.14 49.356 1474.7 Q51.1847 1478.24 54.7958 1478.24 Q58.43 1478.24 60.2356 1474.7 Q62.0643 1471.14 62.0643 1464.03 Q62.0643 1456.9 60.2356 1453.36 Q58.43 1449.79 54.7958 1449.79 M54.7958 1446.09 Q60.6059 1446.09 63.6615 1450.7 Q66.7402 1455.28 66.7402 1464.03 Q66.7402 1472.76 63.6615 1477.36 Q60.6059 1481.95 54.7958 1481.95 Q48.9856 1481.95 45.9069 1477.36 Q42.8514 1472.76 42.8514 1464.03 Q42.8514 1455.28 45.9069 1450.7 Q48.9856 1446.09 54.7958 1446.09 Z" fill="#000000" fill-rule="evenodd" fill-opacity="1" /><path clip-path="url(#clip080)" d="M 0 0 M-147.078 1274.34 L-130.759 1274.34 L-130.759 1278.28 L-152.703 1278.28 L-152.703 1274.34 Q-150.041 1271.59 -145.458 1266.96 Q-140.851 1262.31 -139.671 1260.96 Q-137.425 1258.44 -136.546 1256.7 Q-135.643 1254.94 -135.643 1253.26 Q-135.643 1250.5 -137.587 1248.76 Q-139.509 1247.03 -142.611 1247.03 Q-144.81 1247.03 -147.263 1247.79 Q-149.694 1248.56 -152.472 1250.11 L-152.472 1245.38 Q-149.648 1244.25 -147.194 1243.67 Q-144.74 1243.09 -142.703 1243.09 Q-137.333 1243.09 -134.138 1245.78 Q-130.944 1248.46 -130.944 1252.95 Q-130.944 1255.08 -131.754 1257.01 Q-132.541 1258.9 -134.648 1261.5 Q-135.226 1262.17 -138.328 1265.38 Q-141.43 1268.58 -147.078 1274.34 Z" fill="#000000" fill-rule="evenodd" fill-opacity="1" /><path clip-path="url(#clip080)" d="M 0 0 M-120.944 1272.4 L-116.06 1272.4 L-116.06 1278.28 L-120.944 1278.28 L-120.944 1272.4 Z" fill="#000000" fill-rule="evenodd" fill-opacity="1" /><path clip-path="url(#clip080)" d="M 0 0 M-95.8747 1246.8 Q-99.4858 1246.8 -101.314 1250.36 Q-103.12 1253.9 -103.12 1261.03 Q-103.12 1268.14 -101.314 1271.7 Q-99.4858 1275.25 -95.8747 1275.25 Q-92.2405 1275.25 -90.4349 1271.7 Q-88.6062 1268.14 -88.6062 1261.03 Q-88.6062 1253.9 -90.4349 1250.36 Q-92.2405 1246.8 -95.8747 1246.8 M-95.8747 1243.09 Q-90.0646 1243.09 -87.009 1247.7 Q-83.9303 1252.28 -83.9303 1261.03 Q-83.9303 1269.76 -87.009 1274.37 Q-90.0646 1278.95 -95.8747 1278.95 Q-101.685 1278.95 -104.764 1274.37 Q-107.819 1269.76 -107.819 1261.03 Q-107.819 1252.28 -104.764 1247.7 Q-101.685 1243.09 -95.8747 1243.09 Z" fill="#000000" fill-rule="evenodd" fill-opacity="1" /><path clip-path="url(#clip080)" d="M 0 0 M-65.7128 1246.8 Q-69.3239 1246.8 -71.1526 1250.36 Q-72.9582 1253.9 -72.9582 1261.03 Q-72.9582 1268.14 -71.1526 1271.7 Q-69.3239 1275.25 -65.7128 1275.25 Q-62.0786 1275.25 -60.2731 1271.7 Q-58.4444 1268.14 -58.4444 1261.03 Q-58.4444 1253.9 -60.2731 1250.36 Q-62.0786 1246.8 -65.7128 1246.8 M-65.7128 1243.09 Q-59.9027 1243.09 -56.8471 1247.7 Q-53.7685 1252.28 -53.7685 1261.03 Q-53.7685 1269.76 -56.8471 1274.37 Q-59.9027 1278.95 -65.7128 1278.95 Q-71.523 1278.95 -74.6017 1274.37 Q-77.6572 1269.76 -77.6572 1261.03 Q-77.6572 1252.28 -74.6017 1247.7 Q-71.523 1243.09 -65.7128 1243.09 Z" fill="#000000" fill-rule="evenodd" fill-opacity="1" /><path clip-path="url(#clip080)" d="M 0 0 M-17.3798 1252.82 L-27.9584 1263.44 L-17.3798 1274.02 L-20.1344 1276.82 L-30.7593 1266.19 L-41.3843 1276.82 L-44.1157 1274.02 L-33.5602 1263.44 L-44.1157 1252.82 L-41.3843 1250.01 L-30.7593 1260.64 L-20.1344 1250.01 L-17.3798 1252.82 Z" fill="#000000" fill-rule="evenodd" fill-opacity="1" /><path clip-path="url(#clip080)" d="M 0 0 M-5.01872 1274.34 L2.62013 1274.34 L2.62013 1247.98 L-5.69001 1249.64 L-5.69001 1245.38 L2.57383 1243.72 L7.24974 1243.72 L7.24974 1274.34 L14.8886 1274.34 L14.8886 1278.28 L-5.01872 1278.28 L-5.01872 1274.34 Z" fill="#000000" fill-rule="evenodd" fill-opacity="1" /><path clip-path="url(#clip080)" d="M 0 0 M34.3329 1246.8 Q30.7218 1246.8 28.8931 1250.36 Q27.0876 1253.9 27.0876 1261.03 Q27.0876 1268.14 28.8931 1271.7 Q30.7218 1275.25 34.3329 1275.25 Q37.9672 1275.25 39.7727 1271.7 Q41.6014 1268.14 41.6014 1261.03 Q41.6014 1253.9 39.7727 1250.36 Q37.9672 1246.8 34.3329 1246.8 M34.3329 1243.09 Q40.1431 1243.09 43.1986 1247.7 Q46.2773 1252.28 46.2773 1261.03 Q46.2773 1269.76 43.1986 1274.37 Q40.1431 1278.95 34.3329 1278.95 Q28.5228 1278.95 25.4441 1274.37 Q22.3885 1269.76 22.3885 1261.03 Q22.3885 1252.28 25.4441 1247.7 Q28.5228 1243.09 34.3329 1243.09 Z" fill="#000000" fill-rule="evenodd" fill-opacity="1" /><path clip-path="url(#clip080)" d="M 0 0 M58.9537 1226.1 L49.3618 1241.09 L58.9537 1241.09 L58.9537 1226.1 M57.9569 1222.79 L62.7341 1222.79 L62.7341 1241.09 L66.7402 1241.09 L66.7402 1244.25 L62.7341 1244.25 L62.7341 1250.87 L58.9537 1250.87 L58.9537 1244.25 L46.2773 1244.25 L46.2773 1240.58 L57.9569 1222.79 Z" fill="#000000" fill-rule="evenodd" fill-opacity="1" /><path clip-path="url(#clip080)" d="M 0 0 M-138.259 1038.35 L-150.064 1056.8 L-138.259 1056.8 L-138.259 1038.35 M-139.486 1034.27 L-133.606 1034.27 L-133.606 1056.8 L-128.675 1056.8 L-128.675 1060.69 L-133.606 1060.69 L-133.606 1068.83 L-138.259 1068.83 L-138.259 1060.69 L-153.861 1060.69 L-153.861 1056.17 L-139.486 1034.27 Z" fill="#000000" fill-rule="evenodd" fill-opacity="1" /><path clip-path="url(#clip080)" d="M 0 0 M-120.944 1062.95 L-116.06 1062.95 L-116.06 1068.83 L-120.944 1068.83 L-120.944 1062.95 Z" fill="#000000" fill-rule="evenodd" fill-opacity="1" /><path clip-path="url(#clip080)" d="M 0 0 M-95.8747 1037.35 Q-99.4858 1037.35 -101.314 1040.92 Q-103.12 1044.46 -103.12 1051.59 Q-103.12 1058.69 -101.314 1062.26 Q-99.4858 1065.8 -95.8747 1065.8 Q-92.2405 1065.8 -90.4349 1062.26 Q-88.6062 1058.69 -88.6062 1051.59 Q-88.6062 1044.46 -90.4349 1040.92 Q-92.2405 1037.35 -95.8747 1037.35 M-95.8747 1033.65 Q-90.0646 1033.65 -87.009 1038.25 Q-83.9303 1042.84 -83.9303 1051.59 Q-83.9303 1060.31 -87.009 1064.92 Q-90.0646 1069.5 -95.8747 1069.5 Q-101.685 1069.5 -104.764 1064.92 Q-107.819 1060.31 -107.819 1051.59 Q-107.819 1042.84 -104.764 1038.25 Q-101.685 1033.65 -95.8747 1033.65 Z" fill="#000000" fill-rule="evenodd" fill-opacity="1" /><path clip-path="url(#clip080)" d="M 0 0 M-65.7128 1037.35 Q-69.3239 1037.35 -71.1526 1040.92 Q-72.9582 1044.46 -72.9582 1051.59 Q-72.9582 1058.69 -71.1526 1062.26 Q-69.3239 1065.8 -65.7128 1065.8 Q-62.0786 1065.8 -60.2731 1062.26 Q-58.4444 1058.69 -58.4444 1051.59 Q-58.4444 1044.46 -60.2731 1040.92 Q-62.0786 1037.35 -65.7128 1037.35 M-65.7128 1033.65 Q-59.9027 1033.65 -56.8471 1038.25 Q-53.7685 1042.84 -53.7685 1051.59 Q-53.7685 1060.31 -56.8471 1064.92 Q-59.9027 1069.5 -65.7128 1069.5 Q-71.523 1069.5 -74.6017 1064.92 Q-77.6572 1060.31 -77.6572 1051.59 Q-77.6572 1042.84 -74.6017 1038.25 Q-71.523 1033.65 -65.7128 1033.65 Z" fill="#000000" fill-rule="evenodd" fill-opacity="1" /><path clip-path="url(#clip080)" d="M 0 0 M-17.3798 1043.37 L-27.9584 1054 L-17.3798 1064.57 L-20.1344 1067.38 L-30.7593 1056.75 L-41.3843 1067.38 L-44.1157 1064.57 L-33.5602 1054 L-44.1157 1043.37 L-41.3843 1040.57 L-30.7593 1051.19 L-20.1344 1040.57 L-17.3798 1043.37 Z" fill="#000000" fill-rule="evenodd" fill-opacity="1" /><path clip-path="url(#clip080)" d="M 0 0 M-5.01872 1064.9 L2.62013 1064.9 L2.62013 1038.53 L-5.69001 1040.2 L-5.69001 1035.94 L2.57383 1034.27 L7.24974 1034.27 L7.24974 1064.9 L14.8886 1064.9 L14.8886 1068.83 L-5.01872 1068.83 L-5.01872 1064.9 Z" fill="#000000" fill-rule="evenodd" fill-opacity="1" /><path clip-path="url(#clip080)" d="M 0 0 M34.3329 1037.35 Q30.7218 1037.35 28.8931 1040.92 Q27.0876 1044.46 27.0876 1051.59 Q27.0876 1058.69 28.8931 1062.26 Q30.7218 1065.8 34.3329 1065.8 Q37.9672 1065.8 39.7727 1062.26 Q41.6014 1058.69 41.6014 1051.59 Q41.6014 1044.46 39.7727 1040.92 Q37.9672 1037.35 34.3329 1037.35 M34.3329 1033.65 Q40.1431 1033.65 43.1986 1038.25 Q46.2773 1042.84 46.2773 1051.59 Q46.2773 1060.31 43.1986 1064.92 Q40.1431 1069.5 34.3329 1069.5 Q28.5228 1069.5 25.4441 1064.92 Q22.3885 1060.31 22.3885 1051.59 Q22.3885 1042.84 25.4441 1038.25 Q28.5228 1033.65 34.3329 1033.65 Z" fill="#000000" fill-rule="evenodd" fill-opacity="1" /><path clip-path="url(#clip080)" d="M 0 0 M58.9537 1016.65 L49.3618 1031.64 L58.9537 1031.64 L58.9537 1016.65 M57.9569 1013.34 L62.7341 1013.34 L62.7341 1031.64 L66.7402 1031.64 L66.7402 1034.8 L62.7341 1034.8 L62.7341 1041.42 L58.9537 1041.42 L58.9537 1034.8 L46.2773 1034.8 L46.2773 1031.14 L57.9569 1013.34 Z" fill="#000000" fill-rule="evenodd" fill-opacity="1" /><path clip-path="url(#clip080)" d="M 0 0 M-140.527 840.245 Q-143.675 840.245 -145.527 842.398 Q-147.356 844.551 -147.356 848.301 Q-147.356 852.028 -145.527 854.203 Q-143.675 856.356 -140.527 856.356 Q-137.379 856.356 -135.55 854.203 Q-133.699 852.028 -133.699 848.301 Q-133.699 844.551 -135.55 842.398 Q-137.379 840.245 -140.527 840.245 M-131.245 825.592 L-131.245 829.852 Q-133.004 829.018 -134.81 828.579 Q-136.592 828.139 -138.351 828.139 Q-142.981 828.139 -145.435 831.264 Q-147.865 834.389 -148.212 840.708 Q-146.847 838.694 -144.786 837.629 Q-142.726 836.541 -140.249 836.541 Q-135.041 836.541 -132.032 839.713 Q-129 842.861 -129 848.301 Q-129 853.625 -132.148 856.842 Q-135.296 860.06 -140.527 860.06 Q-146.523 860.06 -149.694 855.477 Q-152.865 850.87 -152.865 842.143 Q-152.865 833.949 -148.976 829.088 Q-145.087 824.204 -138.537 824.204 Q-136.777 824.204 -134.995 824.551 Q-133.189 824.898 -131.245 825.592 Z" fill="#000000" fill-rule="evenodd" fill-opacity="1" /><path clip-path="url(#clip080)" d="M 0 0 M-120.944 853.509 L-116.06 853.509 L-116.06 859.389 L-120.944 859.389 L-120.944 853.509 Z" fill="#000000" fill-rule="evenodd" fill-opacity="1" /><path clip-path="url(#clip080)" d="M 0 0 M-95.8747 827.907 Q-99.4858 827.907 -101.314 831.472 Q-103.12 835.014 -103.12 842.143 Q-103.12 849.25 -101.314 852.815 Q-99.4858 856.356 -95.8747 856.356 Q-92.2405 856.356 -90.4349 852.815 Q-88.6062 849.25 -88.6062 842.143 Q-88.6062 835.014 -90.4349 831.472 Q-92.2405 827.907 -95.8747 827.907 M-95.8747 824.204 Q-90.0646 824.204 -87.009 828.81 Q-83.9303 833.393 -83.9303 842.143 Q-83.9303 850.87 -87.009 855.477 Q-90.0646 860.06 -95.8747 860.06 Q-101.685 860.06 -104.764 855.477 Q-107.819 850.87 -107.819 842.143 Q-107.819 833.393 -104.764 828.81 Q-101.685 824.204 -95.8747 824.204 Z" fill="#000000" fill-rule="evenodd" fill-opacity="1" /><path clip-path="url(#clip080)" d="M 0 0 M-65.7128 827.907 Q-69.3239 827.907 -71.1526 831.472 Q-72.9582 835.014 -72.9582 842.143 Q-72.9582 849.25 -71.1526 852.815 Q-69.3239 856.356 -65.7128 856.356 Q-62.0786 856.356 -60.2731 852.815 Q-58.4444 849.25 -58.4444 842.143 Q-58.4444 835.014 -60.2731 831.472 Q-62.0786 827.907 -65.7128 827.907 M-65.7128 824.204 Q-59.9027 824.204 -56.8471 828.81 Q-53.7685 833.393 -53.7685 842.143 Q-53.7685 850.87 -56.8471 855.477 Q-59.9027 860.06 -65.7128 860.06 Q-71.523 860.06 -74.6017 855.477 Q-77.6572 850.87 -77.6572 842.143 Q-77.6572 833.393 -74.6017 828.81 Q-71.523 824.204 -65.7128 824.204 Z" fill="#000000" fill-rule="evenodd" fill-opacity="1" /><path clip-path="url(#clip080)" d="M 0 0 M-17.3798 833.926 L-27.9584 844.551 L-17.3798 855.129 L-20.1344 857.93 L-30.7593 847.305 L-41.3843 857.93 L-44.1157 855.129 L-33.5602 844.551 L-44.1157 833.926 L-41.3843 831.125 L-30.7593 841.75 L-20.1344 831.125 L-17.3798 833.926 Z" fill="#000000" fill-rule="evenodd" fill-opacity="1" /><path clip-path="url(#clip080)" d="M 0 0 M-5.01872 855.453 L2.62013 855.453 L2.62013 829.088 L-5.69001 830.754 L-5.69001 826.495 L2.57383 824.829 L7.24974 824.829 L7.24974 855.453 L14.8886 855.453 L14.8886 859.389 L-5.01872 859.389 L-5.01872 855.453 Z" fill="#000000" fill-rule="evenodd" fill-opacity="1" /><path clip-path="url(#clip080)" d="M 0 0 M34.3329 827.907 Q30.7218 827.907 28.8931 831.472 Q27.0876 835.014 27.0876 842.143 Q27.0876 849.25 28.8931 852.815 Q30.7218 856.356 34.3329 856.356 Q37.9672 856.356 39.7727 852.815 Q41.6014 849.25 41.6014 842.143 Q41.6014 835.014 39.7727 831.472 Q37.9672 827.907 34.3329 827.907 M34.3329 824.204 Q40.1431 824.204 43.1986 828.81 Q46.2773 833.393 46.2773 842.143 Q46.2773 850.87 43.1986 855.477 Q40.1431 860.06 34.3329 860.06 Q28.5228 860.06 25.4441 855.477 Q22.3885 850.87 22.3885 842.143 Q22.3885 833.393 25.4441 828.81 Q28.5228 824.204 34.3329 824.204 Z" fill="#000000" fill-rule="evenodd" fill-opacity="1" /><path clip-path="url(#clip080)" d="M 0 0 M58.9537 807.208 L49.3618 822.198 L58.9537 822.198 L58.9537 807.208 M57.9569 803.898 L62.7341 803.898 L62.7341 822.198 L66.7402 822.198 L66.7402 825.358 L62.7341 825.358 L62.7341 831.978 L58.9537 831.978 L58.9537 825.358 L46.2773 825.358 L46.2773 821.69 L57.9569 803.898 Z" fill="#000000" fill-rule="evenodd" fill-opacity="1" /><path clip-path="url(#clip080)" d="M 0 0 M-141.106 633.532 Q-144.439 633.532 -146.361 635.314 Q-148.259 637.097 -148.259 640.222 Q-148.259 643.347 -146.361 645.129 Q-144.439 646.911 -141.106 646.911 Q-137.773 646.911 -135.851 645.129 Q-133.93 643.323 -133.93 640.222 Q-133.93 637.097 -135.851 635.314 Q-137.749 633.532 -141.106 633.532 M-145.782 631.541 Q-148.791 630.8 -150.481 628.74 Q-152.148 626.68 -152.148 623.717 Q-152.148 619.574 -149.208 617.166 Q-146.245 614.759 -141.106 614.759 Q-135.944 614.759 -133.004 617.166 Q-130.064 619.574 -130.064 623.717 Q-130.064 626.68 -131.754 628.74 Q-133.421 630.8 -136.407 631.541 Q-133.027 632.328 -131.152 634.62 Q-129.254 636.911 -129.254 640.222 Q-129.254 645.245 -132.333 647.93 Q-135.388 650.615 -141.106 650.615 Q-146.824 650.615 -149.902 647.93 Q-152.958 645.245 -152.958 640.222 Q-152.958 636.911 -151.06 634.62 Q-149.161 632.328 -145.782 631.541 M-147.495 624.157 Q-147.495 626.842 -145.828 628.347 Q-144.138 629.851 -141.106 629.851 Q-138.097 629.851 -136.407 628.347 Q-134.694 626.842 -134.694 624.157 Q-134.694 621.472 -136.407 619.967 Q-138.097 618.463 -141.106 618.463 Q-144.138 618.463 -145.828 619.967 Q-147.495 621.472 -147.495 624.157 Z" fill="#000000" fill-rule="evenodd" fill-opacity="1" /><path clip-path="url(#clip080)" d="M 0 0 M-120.944 644.064 L-116.06 644.064 L-116.06 649.944 L-120.944 649.944 L-120.944 644.064 Z" fill="#000000" fill-rule="evenodd" fill-opacity="1" /><path clip-path="url(#clip080)" d="M 0 0 M-95.8747 618.463 Q-99.4858 618.463 -101.314 622.027 Q-103.12 625.569 -103.12 632.699 Q-103.12 639.805 -101.314 643.37 Q-99.4858 646.911 -95.8747 646.911 Q-92.2405 646.911 -90.4349 643.37 Q-88.6062 639.805 -88.6062 632.699 Q-88.6062 625.569 -90.4349 622.027 Q-92.2405 618.463 -95.8747 618.463 M-95.8747 614.759 Q-90.0646 614.759 -87.009 619.365 Q-83.9303 623.949 -83.9303 632.699 Q-83.9303 641.425 -87.009 646.032 Q-90.0646 650.615 -95.8747 650.615 Q-101.685 650.615 -104.764 646.032 Q-107.819 641.425 -107.819 632.699 Q-107.819 623.949 -104.764 619.365 Q-101.685 614.759 -95.8747 614.759 Z" fill="#000000" fill-rule="evenodd" fill-opacity="1" /><path clip-path="url(#clip080)" d="M 0 0 M-65.7128 618.463 Q-69.3239 618.463 -71.1526 622.027 Q-72.9582 625.569 -72.9582 632.699 Q-72.9582 639.805 -71.1526 643.37 Q-69.3239 646.911 -65.7128 646.911 Q-62.0786 646.911 -60.2731 643.37 Q-58.4444 639.805 -58.4444 632.699 Q-58.4444 625.569 -60.2731 622.027 Q-62.0786 618.463 -65.7128 618.463 M-65.7128 614.759 Q-59.9027 614.759 -56.8471 619.365 Q-53.7685 623.949 -53.7685 632.699 Q-53.7685 641.425 -56.8471 646.032 Q-59.9027 650.615 -65.7128 650.615 Q-71.523 650.615 -74.6017 646.032 Q-77.6572 641.425 -77.6572 632.699 Q-77.6572 623.949 -74.6017 619.365 Q-71.523 614.759 -65.7128 614.759 Z" fill="#000000" fill-rule="evenodd" fill-opacity="1" /><path clip-path="url(#clip080)" d="M 0 0 M-17.3798 624.481 L-27.9584 635.106 L-17.3798 645.685 L-20.1344 648.485 L-30.7593 637.861 L-41.3843 648.485 L-44.1157 645.685 L-33.5602 635.106 L-44.1157 624.481 L-41.3843 621.68 L-30.7593 632.305 L-20.1344 621.68 L-17.3798 624.481 Z" fill="#000000" fill-rule="evenodd" fill-opacity="1" /><path clip-path="url(#clip080)" d="M 0 0 M-5.01872 646.009 L2.62013 646.009 L2.62013 619.643 L-5.69001 621.31 L-5.69001 617.05 L2.57383 615.384 L7.24974 615.384 L7.24974 646.009 L14.8886 646.009 L14.8886 649.944 L-5.01872 649.944 L-5.01872 646.009 Z" fill="#000000" fill-rule="evenodd" fill-opacity="1" /><path clip-path="url(#clip080)" d="M 0 0 M34.3329 618.463 Q30.7218 618.463 28.8931 622.027 Q27.0876 625.569 27.0876 632.699 Q27.0876 639.805 28.8931 643.37 Q30.7218 646.911 34.3329 646.911 Q37.9672 646.911 39.7727 643.37 Q41.6014 639.805 41.6014 632.699 Q41.6014 625.569 39.7727 622.027 Q37.9672 618.463 34.3329 618.463 M34.3329 614.759 Q40.1431 614.759 43.1986 619.365 Q46.2773 623.949 46.2773 632.699 Q46.2773 641.425 43.1986 646.032 Q40.1431 650.615 34.3329 650.615 Q28.5228 650.615 25.4441 646.032 Q22.3885 641.425 22.3885 632.699 Q22.3885 623.949 25.4441 619.365 Q28.5228 614.759 34.3329 614.759 Z" fill="#000000" fill-rule="evenodd" fill-opacity="1" /><path clip-path="url(#clip080)" d="M 0 0 M58.9537 597.764 L49.3618 612.753 L58.9537 612.753 L58.9537 597.764 M57.9569 594.453 L62.7341 594.453 L62.7341 612.753 L66.7402 612.753 L66.7402 615.913 L62.7341 615.913 L62.7341 622.533 L58.9537 622.533 L58.9537 615.913 L46.2773 615.913 L46.2773 612.246 L57.9569 594.453 Z" fill="#000000" fill-rule="evenodd" fill-opacity="1" /><path clip-path="url(#clip080)" d="M 0 0 M-148.001 436.564 L-140.362 436.564 L-140.362 410.198 L-148.672 411.865 L-148.672 407.606 L-140.409 405.939 L-135.733 405.939 L-135.733 436.564 L-128.094 436.564 L-128.094 440.499 L-148.001 440.499 L-148.001 436.564 Z" fill="#000000" fill-rule="evenodd" fill-opacity="1" /><path clip-path="url(#clip080)" d="M 0 0 M-118.649 434.619 L-113.765 434.619 L-113.765 440.499 L-118.649 440.499 L-118.649 434.619 Z" fill="#000000" fill-rule="evenodd" fill-opacity="1" /><path clip-path="url(#clip080)" d="M 0 0 M-93.5802 409.018 Q-97.1913 409.018 -99.0199 412.583 Q-100.825 416.124 -100.825 423.254 Q-100.825 430.36 -99.0199 433.925 Q-97.1913 437.467 -93.5802 437.467 Q-89.9459 437.467 -88.1404 433.925 Q-86.3117 430.36 -86.3117 423.254 Q-86.3117 416.124 -88.1404 412.583 Q-89.9459 409.018 -93.5802 409.018 M-93.5802 405.314 Q-87.77 405.314 -84.7145 409.921 Q-81.6358 414.504 -81.6358 423.254 Q-81.6358 431.981 -84.7145 436.587 Q-87.77 441.17 -93.5802 441.17 Q-99.3903 441.17 -102.469 436.587 Q-105.525 431.981 -105.525 423.254 Q-105.525 414.504 -102.469 409.921 Q-99.3903 405.314 -93.5802 405.314 Z" fill="#000000" fill-rule="evenodd" fill-opacity="1" /><path clip-path="url(#clip080)" d="M 0 0 M-63.4183 409.018 Q-67.0294 409.018 -68.8581 412.583 Q-70.6636 416.124 -70.6636 423.254 Q-70.6636 430.36 -68.8581 433.925 Q-67.0294 437.467 -63.4183 437.467 Q-59.784 437.467 -57.9785 433.925 Q-56.1498 430.36 -56.1498 423.254 Q-56.1498 416.124 -57.9785 412.583 Q-59.784 409.018 -63.4183 409.018 M-63.4183 405.314 Q-57.6081 405.314 -54.5526 409.921 Q-51.4739 414.504 -51.4739 423.254 Q-51.4739 431.981 -54.5526 436.587 Q-57.6081 441.17 -63.4183 441.17 Q-69.2284 441.17 -72.3071 436.587 Q-75.3627 431.981 -75.3627 423.254 Q-75.3627 414.504 -72.3071 409.921 Q-69.2284 405.314 -63.4183 405.314 Z" fill="#000000" fill-rule="evenodd" fill-opacity="1" /><path clip-path="url(#clip080)" d="M 0 0 M-15.0852 415.036 L-25.6639 425.661 L-15.0852 436.24 L-17.8398 439.041 L-28.4648 428.416 L-39.0897 439.041 L-41.8212 436.24 L-31.2657 425.661 L-41.8212 415.036 L-39.0897 412.235 L-28.4648 422.86 L-17.8398 412.235 L-15.0852 415.036 Z" fill="#000000" fill-rule="evenodd" fill-opacity="1" /><path clip-path="url(#clip080)" d="M 0 0 M-2.72417 436.564 L4.91468 436.564 L4.91468 410.198 L-3.39546 411.865 L-3.39546 407.606 L4.86838 405.939 L9.54428 405.939 L9.54428 436.564 L17.1831 436.564 L17.1831 440.499 L-2.72417 440.499 L-2.72417 436.564 Z" fill="#000000" fill-rule="evenodd" fill-opacity="1" /><path clip-path="url(#clip080)" d="M 0 0 M36.6275 409.018 Q33.0164 409.018 31.1877 412.583 Q29.3821 416.124 29.3821 423.254 Q29.3821 430.36 31.1877 433.925 Q33.0164 437.467 36.6275 437.467 Q40.2617 437.467 42.0673 433.925 Q43.896 430.36 43.896 423.254 Q43.896 416.124 42.0673 412.583 Q40.2617 409.018 36.6275 409.018 M36.6275 405.314 Q42.4376 405.314 45.4932 409.921 Q48.5719 414.504 48.5719 423.254 Q48.5719 431.981 45.4932 436.587 Q42.4376 441.17 36.6275 441.17 Q30.8173 441.17 27.7386 436.587 Q24.6831 431.981 24.6831 423.254 Q24.6831 414.504 27.7386 409.921 Q30.8173 405.314 36.6275 405.314 Z" fill="#000000" fill-rule="evenodd" fill-opacity="1" /><path clip-path="url(#clip080)" d="M 0 0 M49.7567 385.009 L64.6713 385.009 L64.6713 388.206 L53.2362 388.206 L53.2362 395.09 Q54.0637 394.808 54.8913 394.676 Q55.7188 394.525 56.5463 394.525 Q61.2483 394.525 63.9942 397.102 Q66.7402 399.679 66.7402 404.08 Q66.7402 408.612 63.919 411.133 Q61.0978 413.634 55.9633 413.634 Q54.1954 413.634 52.3522 413.333 Q50.5279 413.032 48.5719 412.43 L48.5719 408.612 Q50.2646 409.534 52.0701 409.985 Q53.8756 410.437 55.8881 410.437 Q59.1418 410.437 61.0414 408.725 Q62.941 407.014 62.941 404.08 Q62.941 401.146 61.0414 399.434 Q59.1418 397.723 55.8881 397.723 Q54.3646 397.723 52.8412 398.061 Q51.3366 398.4 49.7567 399.114 L49.7567 385.009 Z" fill="#000000" fill-rule="evenodd" fill-opacity="1" /><path clip-path="url(#clip080)" d="M 0 0 M-148.001 227.119 L-140.362 227.119 L-140.362 200.754 L-148.672 202.42 L-148.672 198.161 L-140.409 196.494 L-135.733 196.494 L-135.733 227.119 L-128.094 227.119 L-128.094 231.054 L-148.001 231.054 L-148.001 227.119 Z" fill="#000000" fill-rule="evenodd" fill-opacity="1" /><path clip-path="url(#clip080)" d="M 0 0 M-118.649 225.175 L-113.765 225.175 L-113.765 231.054 L-118.649 231.054 L-118.649 225.175 Z" fill="#000000" fill-rule="evenodd" fill-opacity="1" /><path clip-path="url(#clip080)" d="M 0 0 M-99.5524 227.119 L-83.233 227.119 L-83.233 231.054 L-105.177 231.054 L-105.177 227.119 Q-102.515 224.365 -97.932 219.735 Q-93.3255 215.082 -92.145 213.74 Q-89.8996 211.216 -89.02 209.48 Q-88.1172 207.721 -88.1172 206.031 Q-88.1172 203.277 -90.0617 201.541 Q-91.983 199.804 -95.0848 199.804 Q-97.2838 199.804 -99.7375 200.568 Q-102.168 201.332 -104.946 202.883 L-104.946 198.161 Q-102.122 197.027 -99.6681 196.448 Q-97.2144 195.869 -95.1774 195.869 Q-89.807 195.869 -86.6126 198.554 Q-83.4182 201.24 -83.4182 205.73 Q-83.4182 207.86 -84.2284 209.781 Q-85.0154 211.679 -87.1219 214.272 Q-87.7006 214.943 -90.8024 218.161 Q-93.9042 221.355 -99.5524 227.119 Z" fill="#000000" fill-rule="evenodd" fill-opacity="1" /><path clip-path="url(#clip080)" d="M 0 0 M-63.4183 199.573 Q-67.0294 199.573 -68.8581 203.138 Q-70.6636 206.679 -70.6636 213.809 Q-70.6636 220.915 -68.8581 224.48 Q-67.0294 228.022 -63.4183 228.022 Q-59.784 228.022 -57.9785 224.48 Q-56.1498 220.915 -56.1498 213.809 Q-56.1498 206.679 -57.9785 203.138 Q-59.784 199.573 -63.4183 199.573 M-63.4183 195.869 Q-57.6081 195.869 -54.5526 200.476 Q-51.4739 205.059 -51.4739 213.809 Q-51.4739 222.536 -54.5526 227.142 Q-57.6081 231.726 -63.4183 231.726 Q-69.2284 231.726 -72.3071 227.142 Q-75.3627 222.536 -75.3627 213.809 Q-75.3627 205.059 -72.3071 200.476 Q-69.2284 195.869 -63.4183 195.869 Z" fill="#000000" fill-rule="evenodd" fill-opacity="1" /><path clip-path="url(#clip080)" d="M 0 0 M-15.0852 205.591 L-25.6639 216.216 L-15.0852 226.795 L-17.8398 229.596 L-28.4648 218.971 L-39.0897 229.596 L-41.8212 226.795 L-31.2657 216.216 L-41.8212 205.591 L-39.0897 202.791 L-28.4648 213.416 L-17.8398 202.791 L-15.0852 205.591 Z" fill="#000000" fill-rule="evenodd" fill-opacity="1" /><path clip-path="url(#clip080)" d="M 0 0 M-2.72417 227.119 L4.91468 227.119 L4.91468 200.754 L-3.39546 202.42 L-3.39546 198.161 L4.86838 196.494 L9.54428 196.494 L9.54428 227.119 L17.1831 227.119 L17.1831 231.054 L-2.72417 231.054 L-2.72417 227.119 Z" fill="#000000" fill-rule="evenodd" fill-opacity="1" /><path clip-path="url(#clip080)" d="M 0 0 M36.6275 199.573 Q33.0164 199.573 31.1877 203.138 Q29.3821 206.679 29.3821 213.809 Q29.3821 220.915 31.1877 224.48 Q33.0164 228.022 36.6275 228.022 Q40.2617 228.022 42.0673 224.48 Q43.896 220.915 43.896 213.809 Q43.896 206.679 42.0673 203.138 Q40.2617 199.573 36.6275 199.573 M36.6275 195.869 Q42.4376 195.869 45.4932 200.476 Q48.5719 205.059 48.5719 213.809 Q48.5719 222.536 45.4932 227.142 Q42.4376 231.726 36.6275 231.726 Q30.8173 231.726 27.7386 227.142 Q24.6831 222.536 24.6831 213.809 Q24.6831 205.059 27.7386 200.476 Q30.8173 195.869 36.6275 195.869 Z" fill="#000000" fill-rule="evenodd" fill-opacity="1" /><path clip-path="url(#clip080)" d="M 0 0 M49.7567 175.564 L64.6713 175.564 L64.6713 178.761 L53.2362 178.761 L53.2362 185.645 Q54.0637 185.363 54.8913 185.231 Q55.7188 185.081 56.5463 185.081 Q61.2483 185.081 63.9942 187.657 Q66.7402 190.234 66.7402 194.635 Q66.7402 199.168 63.919 201.688 Q61.0978 204.189 55.9633 204.189 Q54.1954 204.189 52.3522 203.888 Q50.5279 203.587 48.5719 202.986 L48.5719 199.168 Q50.2646 200.089 52.0701 200.541 Q53.8756 200.992 55.8881 200.992 Q59.1418 200.992 61.0414 199.28 Q62.941 197.569 62.941 194.635 Q62.941 191.701 61.0414 189.989 Q59.1418 188.278 55.8881 188.278 Q54.3646 188.278 52.8412 188.616 Q51.3366 188.955 49.7567 189.67 L49.7567 175.564 Z" fill="#000000" fill-rule="evenodd" fill-opacity="1" /><path clip-path="url(#clip080)" d="M 0 0 M-251.637 906.081 L-251.637 865.881 L-246.226 865.881 L-246.226 882.75 L-204.117 882.75 L-204.117 889.211 L-246.226 889.211 L-246.226 906.081 L-251.637 906.081 Z" fill="#000000" fill-rule="evenodd" fill-opacity="1" /><path clip-path="url(#clip080)" d="M 0 0 M-239.764 861.934 L-239.764 856.078 L-204.117 856.078 L-204.117 861.934 L-239.764 861.934 M-253.642 861.934 L-253.642 856.078 L-246.226 856.078 L-246.226 861.934 L-253.642 861.934 Z" fill="#000000" fill-rule="evenodd" fill-opacity="1" /><path clip-path="url(#clip080)" d="M 0 0 M-232.921 816.069 Q-236.868 813.873 -238.746 810.818 Q-240.624 807.762 -240.624 803.625 Q-240.624 798.055 -236.709 795.031 Q-232.826 792.007 -225.633 792.007 L-204.117 792.007 L-204.117 797.895 L-225.442 797.895 Q-230.566 797.895 -233.049 799.71 Q-235.531 801.524 -235.531 805.248 Q-235.531 809.799 -232.508 812.441 Q-229.484 815.083 -224.264 815.083 L-204.117 815.083 L-204.117 820.971 L-225.442 820.971 Q-230.598 820.971 -233.049 822.785 Q-235.531 824.6 -235.531 828.387 Q-235.531 832.875 -232.476 835.517 Q-229.452 838.158 -224.264 838.158 L-204.117 838.158 L-204.117 844.047 L-239.764 844.047 L-239.764 838.158 L-234.226 838.158 Q-237.505 836.153 -239.064 833.352 Q-240.624 830.551 -240.624 826.7 Q-240.624 822.817 -238.65 820.112 Q-236.677 817.374 -232.921 816.069 Z" fill="#000000" fill-rule="evenodd" fill-opacity="1" /><path clip-path="url(#clip080)" d="M 0 0 M-223.405 749.834 L-220.54 749.834 L-220.54 776.761 Q-214.493 776.379 -211.31 773.133 Q-208.159 769.854 -208.159 764.03 Q-208.159 760.656 -208.986 757.505 Q-209.814 754.322 -211.469 751.203 L-205.931 751.203 Q-204.594 754.354 -203.894 757.664 Q-203.193 760.974 -203.193 764.38 Q-203.193 772.91 -208.159 777.907 Q-213.124 782.872 -221.59 782.872 Q-230.343 782.872 -235.468 778.162 Q-240.624 773.419 -240.624 765.398 Q-240.624 758.205 -235.977 754.036 Q-231.362 749.834 -223.405 749.834 M-225.123 755.691 Q-229.929 755.754 -232.794 758.396 Q-235.659 761.006 -235.659 765.335 Q-235.659 770.236 -232.89 773.196 Q-230.12 776.125 -225.092 776.57 L-225.123 755.691 Z" fill="#000000" fill-rule="evenodd" fill-opacity="1" /><path clip-path="url(#clip080)" d="M 0 0 M-253.578 705.433 Q-246.257 709.699 -239.096 711.767 Q-231.935 713.836 -224.582 713.836 Q-217.23 713.836 -210.005 711.767 Q-202.812 709.667 -195.523 705.433 L-195.523 710.526 Q-203.003 715.3 -210.228 717.687 Q-217.453 720.043 -224.582 720.043 Q-231.68 720.043 -238.873 717.687 Q-246.067 715.332 -253.578 710.526 L-253.578 705.433 Z" fill="#000000" fill-rule="evenodd" fill-opacity="1" /><path clip-path="url(#clip080)" d="M 0 0 M-238.714 671.345 L-233.176 671.345 Q-234.449 673.828 -235.086 676.501 Q-235.722 679.175 -235.722 682.04 Q-235.722 686.4 -234.385 688.596 Q-233.049 690.761 -230.375 690.761 Q-228.338 690.761 -227.16 689.201 Q-226.015 687.641 -224.964 682.931 L-224.519 680.926 Q-223.182 674.687 -220.731 672.077 Q-218.312 669.435 -213.952 669.435 Q-208.986 669.435 -206.09 673.382 Q-203.193 677.297 -203.193 684.172 Q-203.193 687.037 -203.766 690.156 Q-204.307 693.243 -205.421 696.681 L-211.469 696.681 Q-209.782 693.434 -208.923 690.283 Q-208.095 687.132 -208.095 684.045 Q-208.095 679.907 -209.496 677.679 Q-210.928 675.451 -213.506 675.451 Q-215.893 675.451 -217.166 677.074 Q-218.439 678.666 -219.617 684.108 L-220.094 686.145 Q-221.24 691.588 -223.596 694.007 Q-225.983 696.426 -230.12 696.426 Q-235.149 696.426 -237.887 692.861 Q-240.624 689.296 -240.624 682.74 Q-240.624 679.493 -240.146 676.629 Q-239.669 673.764 -238.714 671.345 Z" fill="#000000" fill-rule="evenodd" fill-opacity="1" /><path clip-path="url(#clip080)" d="M 0 0 M-253.578 661.033 L-253.578 655.94 Q-246.067 651.166 -238.873 648.811 Q-231.68 646.423 -224.582 646.423 Q-217.453 646.423 -210.228 648.811 Q-203.003 651.166 -195.523 655.94 L-195.523 661.033 Q-202.812 656.799 -210.005 654.731 Q-217.23 652.63 -224.582 652.63 Q-231.935 652.63 -239.096 654.731 Q-246.257 656.799 -253.578 661.033 Z" fill="#000000" fill-rule="evenodd" fill-opacity="1" /><path clip-path="url(#clip082)" d="
M226.495 88.5087 L226.495 1464 L408.541 1464 L408.541 88.5087 L226.495 88.5087 L226.495 88.5087  Z
  " fill="#009af9" fill-rule="evenodd" fill-opacity="1"/>
<polyline clip-path="url(#clip082)" style="stroke:#000000; stroke-width:4; stroke-opacity:1; fill:none" points="
  226.495,88.5087 226.495,1464 408.541,1464 408.541,88.5087 226.495,88.5087 
  "/>
<path clip-path="url(#clip082)" d="
M454.053 750.438 L454.053 1464 L636.099 1464 L636.099 750.438 L454.053 750.438 L454.053 750.438  Z
  " fill="#009af9" fill-rule="evenodd" fill-opacity="1"/>
<polyline clip-path="url(#clip082)" style="stroke:#000000; stroke-width:4; stroke-opacity:1; fill:none" points="
  454.053,750.438 454.053,1464 636.099,1464 636.099,750.438 454.053,750.438 
  "/>
<path clip-path="url(#clip082)" d="
M681.61 1106.17 L681.61 1464 L863.656 1464 L863.656 1106.17 L681.61 1106.17 L681.61 1106.17  Z
  " fill="#009af9" fill-rule="evenodd" fill-opacity="1"/>
<polyline clip-path="url(#clip082)" style="stroke:#000000; stroke-width:4; stroke-opacity:1; fill:none" points="
  681.61,1106.17 681.61,1464 863.656,1464 863.656,1106.17 681.61,1106.17 
  "/>
<path clip-path="url(#clip082)" d="
M909.168 1106.77 L909.168 1464 L1091.21 1464 L1091.21 1106.77 L909.168 1106.77 L909.168 1106.77  Z
  " fill="#009af9" fill-rule="evenodd" fill-opacity="1"/>
<polyline clip-path="url(#clip082)" style="stroke:#000000; stroke-width:4; stroke-opacity:1; fill:none" points="
  909.168,1106.77 909.168,1464 1091.21,1464 1091.21,1106.77 909.168,1106.77 
  "/>
<path clip-path="url(#clip082)" d="
M1136.73 1112.24 L1136.73 1464 L1318.77 1464 L1318.77 1112.24 L1136.73 1112.24 L1136.73 1112.24  Z
  " fill="#009af9" fill-rule="evenodd" fill-opacity="1"/>
<polyline clip-path="url(#clip082)" style="stroke:#000000; stroke-width:4; stroke-opacity:1; fill:none" points="
  1136.73,1112.24 1136.73,1464 1318.77,1464 1318.77,1112.24 1136.73,1112.24 
  "/>
<path clip-path="url(#clip082)" d="
M1364.28 1112.28 L1364.28 1464 L1546.33 1464 L1546.33 1112.28 L1364.28 1112.28 L1364.28 1112.28  Z
  " fill="#009af9" fill-rule="evenodd" fill-opacity="1"/>
<polyline clip-path="url(#clip082)" style="stroke:#000000; stroke-width:4; stroke-opacity:1; fill:none" points="
  1364.28,1112.28 1364.28,1464 1546.33,1464 1546.33,1112.28 1364.28,1112.28 
  "/>
<path clip-path="url(#clip082)" d="
M1591.84 1111.92 L1591.84 1464 L1773.89 1464 L1773.89 1111.92 L1591.84 1111.92 L1591.84 1111.92  Z
  " fill="#009af9" fill-rule="evenodd" fill-opacity="1"/>
<polyline clip-path="url(#clip082)" style="stroke:#000000; stroke-width:4; stroke-opacity:1; fill:none" points="
  1591.84,1111.92 1591.84,1464 1773.89,1464 1773.89,1111.92 1591.84,1111.92 
  "/>
<path clip-path="url(#clip082)" d="
M1819.4 1112.55 L1819.4 1464 L2001.44 1464 L2001.44 1112.55 L1819.4 1112.55 L1819.4 1112.55  Z
  " fill="#009af9" fill-rule="evenodd" fill-opacity="1"/>
<polyline clip-path="url(#clip082)" style="stroke:#000000; stroke-width:4; stroke-opacity:1; fill:none" points="
  1819.4,1112.55 1819.4,1464 2001.44,1464 2001.44,1112.55 1819.4,1112.55 
  "/>
<path clip-path="url(#clip082)" d="
M2046.96 1115.74 L2046.96 1464 L2229 1464 L2229 1115.74 L2046.96 1115.74 L2046.96 1115.74  Z
  " fill="#009af9" fill-rule="evenodd" fill-opacity="1"/>
<polyline clip-path="url(#clip082)" style="stroke:#000000; stroke-width:4; stroke-opacity:1; fill:none" points="
  2046.96,1115.74 2046.96,1464 2229,1464 2229,1115.74 2046.96,1115.74 
  "/>
</svg>
