<?xml version="1.0" encoding="utf-8"?>
<svg xmlns="http://www.w3.org/2000/svg" xmlns:xlink="http://www.w3.org/1999/xlink" width="600" height="400" viewBox="0 0 2400 1600">
<defs>
  <clipPath id="clip110">
    <rect x="0" y="0" width="2400" height="1600"/>
  </clipPath>
</defs>
<path clip-path="url(#clip110)" d="
M0 1600 L2400 1600 L2400 0 L0 0  Z
  " fill="#ffffff" fill-rule="evenodd" fill-opacity="1"/>
<defs>
  <clipPath id="clip111">
    <rect x="480" y="0" width="1681" height="1600"/>
  </clipPath>
</defs>
<path clip-path="url(#clip110)" d="
M102.74 1505.26 L2352.76 1505.26 L2352.76 47.2441 L102.74 47.2441  Z
  " fill="#ffffff" fill-rule="evenodd" fill-opacity="1"/>
<defs>
  <clipPath id="clip112">
    <rect x="102" y="47" width="2251" height="1459"/>
  </clipPath>
</defs>
<polyline clip-path="url(#clip112)" style="stroke:#000000; stroke-width:2; stroke-opacity:0.1; fill:none" points="
  393.371,1505.26 393.371,47.2441 
  "/>
<polyline clip-path="url(#clip112)" style="stroke:#000000; stroke-width:2; stroke-opacity:0.1; fill:none" points="
  810.559,1505.26 810.559,47.2441 
  "/>
<polyline clip-path="url(#clip112)" style="stroke:#000000; stroke-width:2; stroke-opacity:0.1; fill:none" points="
  1227.75,1505.26 1227.75,47.2441 
  "/>
<polyline clip-path="url(#clip112)" style="stroke:#000000; stroke-width:2; stroke-opacity:0.1; fill:none" points="
  1644.94,1505.26 1644.94,47.2441 
  "/>
<polyline clip-path="url(#clip112)" style="stroke:#000000; stroke-width:2; stroke-opacity:0.1; fill:none" points="
  2062.13,1505.26 2062.13,47.2441 
  "/>
<polyline clip-path="url(#clip110)" style="stroke:#000000; stroke-width:4; stroke-opacity:1; fill:none" points="
  102.74,1505.26 2352.76,1505.26 
  "/>
<polyline clip-path="url(#clip110)" style="stroke:#000000; stroke-width:4; stroke-opacity:1; fill:none" points="
  393.371,1505.26 393.371,1487.76 
  "/>
<polyline clip-path="url(#clip110)" style="stroke:#000000; stroke-width:4; stroke-opacity:1; fill:none" points="
  810.559,1505.26 810.559,1487.76 
  "/>
<polyline clip-path="url(#clip110)" style="stroke:#000000; stroke-width:4; stroke-opacity:1; fill:none" points="
  1227.75,1505.26 1227.75,1487.76 
  "/>
<polyline clip-path="url(#clip110)" style="stroke:#000000; stroke-width:4; stroke-opacity:1; fill:none" points="
  1644.94,1505.26 1644.94,1487.76 
  "/>
<polyline clip-path="url(#clip110)" style="stroke:#000000; stroke-width:4; stroke-opacity:1; fill:none" points="
  2062.13,1505.26 2062.13,1487.76 
  "/>
<path clip-path="url(#clip110)" d="M 0 0 M383.753 1562 L391.391 1562 L391.391 1535.63 L383.081 1537.3 L383.081 1533.04 L391.345 1531.37 L396.021 1531.37 L396.021 1562 L403.66 1562 L403.66 1565.93 L383.753 1565.93 L383.753 1562 Z" fill="#000000" fill-rule="evenodd" fill-opacity="1" /><path clip-path="url(#clip110)" d="M 0 0 M805.212 1562 L821.531 1562 L821.531 1565.93 L799.587 1565.93 L799.587 1562 Q802.249 1559.24 806.832 1554.61 Q811.439 1549.96 812.619 1548.62 Q814.865 1546.09 815.744 1544.36 Q816.647 1542.6 816.647 1540.91 Q816.647 1538.15 814.703 1536.42 Q812.781 1534.68 809.68 1534.68 Q807.481 1534.68 805.027 1535.45 Q802.596 1536.21 799.819 1537.76 L799.819 1533.04 Q802.643 1531.9 805.096 1531.33 Q807.55 1530.75 809.587 1530.75 Q814.957 1530.75 818.152 1533.43 Q821.346 1536.12 821.346 1540.61 Q821.346 1542.74 820.536 1544.66 Q819.749 1546.56 817.643 1549.15 Q817.064 1549.82 813.962 1553.04 Q810.86 1556.23 805.212 1562 Z" fill="#000000" fill-rule="evenodd" fill-opacity="1" /><path clip-path="url(#clip110)" d="M 0 0 M1230.76 1535.45 L1218.95 1553.89 L1230.76 1553.89 L1230.76 1535.45 M1229.53 1531.37 L1235.41 1531.37 L1235.41 1553.89 L1240.34 1553.89 L1240.34 1557.78 L1235.41 1557.78 L1235.41 1565.93 L1230.76 1565.93 L1230.76 1557.78 L1215.16 1557.78 L1215.16 1553.27 L1229.53 1531.37 Z" fill="#000000" fill-rule="evenodd" fill-opacity="1" /><path clip-path="url(#clip110)" d="M 0 0 M1644.94 1549.52 Q1641.6 1549.52 1639.68 1551.3 Q1637.78 1553.08 1637.78 1556.21 Q1637.78 1559.33 1639.68 1561.12 Q1641.6 1562.9 1644.94 1562.9 Q1648.27 1562.9 1650.19 1561.12 Q1652.11 1559.31 1652.11 1556.21 Q1652.11 1553.08 1650.19 1551.3 Q1648.29 1549.52 1644.94 1549.52 M1640.26 1547.53 Q1637.25 1546.79 1635.56 1544.73 Q1633.9 1542.67 1633.9 1539.71 Q1633.9 1535.56 1636.83 1533.15 Q1639.8 1530.75 1644.94 1530.75 Q1650.1 1530.75 1653.04 1533.15 Q1655.98 1535.56 1655.98 1539.71 Q1655.98 1542.67 1654.29 1544.73 Q1652.62 1546.79 1649.64 1547.53 Q1653.02 1548.32 1654.89 1550.61 Q1656.79 1552.9 1656.79 1556.21 Q1656.79 1561.23 1653.71 1563.92 Q1650.65 1566.6 1644.94 1566.6 Q1639.22 1566.6 1636.14 1563.92 Q1633.08 1561.23 1633.08 1556.21 Q1633.08 1552.9 1634.98 1550.61 Q1636.88 1548.32 1640.26 1547.53 M1638.55 1540.14 Q1638.55 1542.83 1640.21 1544.33 Q1641.9 1545.84 1644.94 1545.84 Q1647.95 1545.84 1649.64 1544.33 Q1651.35 1542.83 1651.35 1540.14 Q1651.35 1537.46 1649.64 1535.96 Q1647.95 1534.45 1644.94 1534.45 Q1641.9 1534.45 1640.21 1535.96 Q1638.55 1537.46 1638.55 1540.14 Z" fill="#000000" fill-rule="evenodd" fill-opacity="1" /><path clip-path="url(#clip110)" d="M 0 0 M2036.73 1562 L2044.37 1562 L2044.37 1535.63 L2036.06 1537.3 L2036.06 1533.04 L2044.32 1531.37 L2049 1531.37 L2049 1562 L2056.64 1562 L2056.64 1565.93 L2036.73 1565.93 L2036.73 1562 Z" fill="#000000" fill-rule="evenodd" fill-opacity="1" /><path clip-path="url(#clip110)" d="M 0 0 M2076.66 1546.79 Q2073.51 1546.79 2071.66 1548.94 Q2069.83 1551.09 2069.83 1554.84 Q2069.83 1558.57 2071.66 1560.75 Q2073.51 1562.9 2076.66 1562.9 Q2079.81 1562.9 2081.64 1560.75 Q2083.49 1558.57 2083.49 1554.84 Q2083.49 1551.09 2081.64 1548.94 Q2079.81 1546.79 2076.66 1546.79 M2085.94 1532.14 L2085.94 1536.39 Q2084.19 1535.56 2082.38 1535.12 Q2080.6 1534.68 2078.84 1534.68 Q2074.21 1534.68 2071.76 1537.81 Q2069.32 1540.93 2068.98 1547.25 Q2070.34 1545.24 2072.4 1544.17 Q2074.46 1543.08 2076.94 1543.08 Q2082.15 1543.08 2085.16 1546.26 Q2088.19 1549.4 2088.19 1554.84 Q2088.19 1560.17 2085.04 1563.39 Q2081.89 1566.6 2076.66 1566.6 Q2070.67 1566.6 2067.5 1562.02 Q2064.32 1557.41 2064.32 1548.69 Q2064.32 1540.49 2068.21 1535.63 Q2072.1 1530.75 2078.65 1530.75 Q2080.41 1530.75 2082.19 1531.09 Q2084 1531.44 2085.94 1532.14 Z" fill="#000000" fill-rule="evenodd" fill-opacity="1" /><path clip-path="url(#clip110)" d="M 0 0 M1078.3 1607.89 L1078.3 1625.74 L1086.38 1625.74 Q1090.87 1625.74 1093.32 1623.42 Q1095.77 1621.1 1095.77 1616.8 Q1095.77 1612.53 1093.32 1610.21 Q1090.87 1607.89 1086.38 1607.89 L1078.3 1607.89 M1071.87 1602.6 L1086.38 1602.6 Q1094.37 1602.6 1098.44 1606.23 Q1102.55 1609.83 1102.55 1616.8 Q1102.55 1623.83 1098.44 1627.43 Q1094.37 1631.03 1086.38 1631.03 L1078.3 1631.03 L1078.3 1650.12 L1071.87 1650.12 L1071.87 1602.6 Z" fill="#000000" fill-rule="evenodd" fill-opacity="1" /><path clip-path="url(#clip110)" d="M 0 0 M1130.43 1619.95 Q1129.45 1619.38 1128.27 1619.12 Q1127.12 1618.84 1125.72 1618.84 Q1120.76 1618.84 1118.08 1622.08 Q1115.44 1625.3 1115.44 1631.35 L1115.44 1650.12 L1109.55 1650.12 L1109.55 1614.48 L1115.44 1614.48 L1115.44 1620.01 Q1117.29 1616.77 1120.25 1615.21 Q1123.21 1613.62 1127.44 1613.62 Q1128.05 1613.62 1128.78 1613.71 Q1129.51 1613.78 1130.4 1613.93 L1130.43 1619.95 Z" fill="#000000" fill-rule="evenodd" fill-opacity="1" /><path clip-path="url(#clip110)" d="M 0 0 M1148.96 1618.58 Q1144.25 1618.58 1141.51 1622.27 Q1138.77 1625.93 1138.77 1632.33 Q1138.77 1638.73 1141.48 1642.42 Q1144.21 1646.08 1148.96 1646.08 Q1153.64 1646.08 1156.37 1642.39 Q1159.11 1638.7 1159.11 1632.33 Q1159.11 1626 1156.37 1622.31 Q1153.64 1618.58 1148.96 1618.58 M1148.96 1613.62 Q1156.6 1613.62 1160.96 1618.58 Q1165.32 1623.55 1165.32 1632.33 Q1165.32 1641.08 1160.96 1646.08 Q1156.6 1651.05 1148.96 1651.05 Q1141.29 1651.05 1136.93 1646.08 Q1132.6 1641.08 1132.6 1632.33 Q1132.6 1623.55 1136.93 1618.58 Q1141.29 1613.62 1148.96 1613.62 Z" fill="#000000" fill-rule="evenodd" fill-opacity="1" /><path clip-path="url(#clip110)" d="M 0 0 M1200.68 1615.84 L1200.68 1621.32 Q1198.2 1619.95 1195.68 1619.28 Q1193.2 1618.58 1190.65 1618.58 Q1184.95 1618.58 1181.8 1622.21 Q1178.65 1625.81 1178.65 1632.33 Q1178.65 1638.86 1181.8 1642.48 Q1184.95 1646.08 1190.65 1646.08 Q1193.2 1646.08 1195.68 1645.41 Q1198.2 1644.71 1200.68 1643.34 L1200.68 1648.76 Q1198.23 1649.9 1195.59 1650.47 Q1192.98 1651.05 1190.02 1651.05 Q1181.96 1651.05 1177.22 1645.99 Q1172.48 1640.93 1172.48 1632.33 Q1172.48 1623.61 1177.25 1618.61 Q1182.06 1613.62 1190.4 1613.62 Q1193.1 1613.62 1195.68 1614.19 Q1198.26 1614.73 1200.68 1615.84 Z" fill="#000000" fill-rule="evenodd" fill-opacity="1" /><path clip-path="url(#clip110)" d="M 0 0 M1241.35 1630.84 L1241.35 1633.7 L1214.43 1633.7 Q1214.81 1639.75 1218.06 1642.93 Q1221.33 1646.08 1227.16 1646.08 Q1230.53 1646.08 1233.68 1645.25 Q1236.87 1644.43 1239.99 1642.77 L1239.99 1648.31 Q1236.84 1649.65 1233.52 1650.35 Q1230.21 1651.05 1226.81 1651.05 Q1218.28 1651.05 1213.28 1646.08 Q1208.32 1641.12 1208.32 1632.65 Q1208.32 1623.9 1213.03 1618.77 Q1217.77 1613.62 1225.79 1613.62 Q1232.98 1613.62 1237.15 1618.26 Q1241.35 1622.88 1241.35 1630.84 M1235.5 1629.12 Q1235.43 1624.31 1232.79 1621.45 Q1230.18 1618.58 1225.85 1618.58 Q1220.95 1618.58 1217.99 1621.35 Q1215.06 1624.12 1214.62 1629.15 L1235.5 1629.12 Z" fill="#000000" fill-rule="evenodd" fill-opacity="1" /><path clip-path="url(#clip110)" d="M 0 0 M1273.69 1615.53 L1273.69 1621.06 Q1271.21 1619.79 1268.54 1619.15 Q1265.86 1618.52 1263 1618.52 Q1258.64 1618.52 1256.44 1619.85 Q1254.28 1621.19 1254.28 1623.87 Q1254.28 1625.9 1255.84 1627.08 Q1257.4 1628.23 1262.11 1629.28 L1264.11 1629.72 Q1270.35 1631.06 1272.96 1633.51 Q1275.6 1635.93 1275.6 1640.29 Q1275.6 1645.25 1271.66 1648.15 Q1267.74 1651.05 1260.87 1651.05 Q1258 1651.05 1254.88 1650.47 Q1251.79 1649.93 1248.36 1648.82 L1248.36 1642.77 Q1251.6 1644.46 1254.75 1645.32 Q1257.91 1646.15 1260.99 1646.15 Q1265.13 1646.15 1267.36 1644.74 Q1269.59 1643.31 1269.59 1640.73 Q1269.59 1638.35 1267.96 1637.07 Q1266.37 1635.8 1260.93 1634.62 L1258.89 1634.15 Q1253.45 1633 1251.03 1630.64 Q1248.61 1628.26 1248.61 1624.12 Q1248.61 1619.09 1252.18 1616.35 Q1255.74 1613.62 1262.3 1613.62 Q1265.54 1613.62 1268.41 1614.09 Q1271.27 1614.57 1273.69 1615.53 Z" fill="#000000" fill-rule="evenodd" fill-opacity="1" /><path clip-path="url(#clip110)" d="M 0 0 M1307.65 1615.53 L1307.65 1621.06 Q1305.17 1619.79 1302.5 1619.15 Q1299.82 1618.52 1296.96 1618.52 Q1292.6 1618.52 1290.4 1619.85 Q1288.24 1621.19 1288.24 1623.87 Q1288.24 1625.9 1289.8 1627.08 Q1291.36 1628.23 1296.07 1629.28 L1298.07 1629.72 Q1304.31 1631.06 1306.92 1633.51 Q1309.56 1635.93 1309.56 1640.29 Q1309.56 1645.25 1305.62 1648.15 Q1301.7 1651.05 1294.83 1651.05 Q1291.96 1651.05 1288.84 1650.47 Q1285.76 1649.93 1282.32 1648.82 L1282.32 1642.77 Q1285.56 1644.46 1288.72 1645.32 Q1291.87 1646.15 1294.95 1646.15 Q1299.09 1646.15 1301.32 1644.74 Q1303.55 1643.31 1303.55 1640.73 Q1303.55 1638.35 1301.92 1637.07 Q1300.33 1635.8 1294.89 1634.62 L1292.85 1634.15 Q1287.41 1633 1284.99 1630.64 Q1282.57 1628.26 1282.57 1624.12 Q1282.57 1619.09 1286.14 1616.35 Q1289.7 1613.62 1296.26 1613.62 Q1299.51 1613.62 1302.37 1614.09 Q1305.23 1614.57 1307.65 1615.53 Z" fill="#000000" fill-rule="evenodd" fill-opacity="1" /><path clip-path="url(#clip110)" d="M 0 0 M1349.38 1630.84 L1349.38 1633.7 L1322.45 1633.7 Q1322.84 1639.75 1326.08 1642.93 Q1329.36 1646.08 1335.19 1646.08 Q1338.56 1646.08 1341.71 1645.25 Q1344.89 1644.43 1348.01 1642.77 L1348.01 1648.31 Q1344.86 1649.65 1341.55 1650.35 Q1338.24 1651.05 1334.84 1651.05 Q1326.31 1651.05 1321.31 1646.08 Q1316.34 1641.12 1316.34 1632.65 Q1316.34 1623.9 1321.05 1618.77 Q1325.8 1613.62 1333.82 1613.62 Q1341.01 1613.62 1345.18 1618.26 Q1349.38 1622.88 1349.38 1630.84 M1343.52 1629.12 Q1343.46 1624.31 1340.82 1621.45 Q1338.21 1618.58 1333.88 1618.58 Q1328.98 1618.58 1326.02 1621.35 Q1323.09 1624.12 1322.64 1629.15 L1343.52 1629.12 Z" fill="#000000" fill-rule="evenodd" fill-opacity="1" /><path clip-path="url(#clip110)" d="M 0 0 M1381.72 1615.53 L1381.72 1621.06 Q1379.24 1619.79 1376.56 1619.15 Q1373.89 1618.52 1371.02 1618.52 Q1366.66 1618.52 1364.47 1619.85 Q1362.3 1621.19 1362.3 1623.87 Q1362.3 1625.9 1363.86 1627.08 Q1365.42 1628.23 1370.13 1629.28 L1372.14 1629.72 Q1378.38 1631.06 1380.99 1633.51 Q1383.63 1635.93 1383.63 1640.29 Q1383.63 1645.25 1379.68 1648.15 Q1375.77 1651.05 1368.89 1651.05 Q1366.03 1651.05 1362.91 1650.47 Q1359.82 1649.93 1356.38 1648.82 L1356.38 1642.77 Q1359.63 1644.46 1362.78 1645.32 Q1365.93 1646.15 1369.02 1646.15 Q1373.16 1646.15 1375.38 1644.74 Q1377.61 1643.31 1377.61 1640.73 Q1377.61 1638.35 1375.99 1637.07 Q1374.4 1635.8 1368.96 1634.62 L1366.92 1634.15 Q1361.48 1633 1359.06 1630.64 Q1356.64 1628.26 1356.64 1624.12 Q1356.64 1619.09 1360.2 1616.35 Q1363.77 1613.62 1370.32 1613.62 Q1373.57 1613.62 1376.44 1614.09 Q1379.3 1614.57 1381.72 1615.53 Z" fill="#000000" fill-rule="evenodd" fill-opacity="1" /><polyline clip-path="url(#clip112)" style="stroke:#000000; stroke-width:2; stroke-opacity:0.1; fill:none" points="
  102.74,1464 2352.76,1464 
  "/>
<polyline clip-path="url(#clip112)" style="stroke:#000000; stroke-width:2; stroke-opacity:0.1; fill:none" points="
  102.74,1208.6 2352.76,1208.6 
  "/>
<polyline clip-path="url(#clip112)" style="stroke:#000000; stroke-width:2; stroke-opacity:0.1; fill:none" points="
  102.74,953.207 2352.76,953.207 
  "/>
<polyline clip-path="url(#clip112)" style="stroke:#000000; stroke-width:2; stroke-opacity:0.1; fill:none" points="
  102.74,697.813 2352.76,697.813 
  "/>
<polyline clip-path="url(#clip112)" style="stroke:#000000; stroke-width:2; stroke-opacity:0.1; fill:none" points="
  102.74,442.419 2352.76,442.419 
  "/>
<polyline clip-path="url(#clip112)" style="stroke:#000000; stroke-width:2; stroke-opacity:0.1; fill:none" points="
  102.74,187.025 2352.76,187.025 
  "/>
<polyline clip-path="url(#clip110)" style="stroke:#000000; stroke-width:4; stroke-opacity:1; fill:none" points="
  102.74,1505.26 102.74,47.2441 
  "/>
<polyline clip-path="url(#clip110)" style="stroke:#000000; stroke-width:4; stroke-opacity:1; fill:none" points="
  102.74,1464 129.74,1464 
  "/>
<polyline clip-path="url(#clip110)" style="stroke:#000000; stroke-width:4; stroke-opacity:1; fill:none" points="
  102.74,1208.6 129.74,1208.6 
  "/>
<polyline clip-path="url(#clip110)" style="stroke:#000000; stroke-width:4; stroke-opacity:1; fill:none" points="
  102.74,953.207 129.74,953.207 
  "/>
<polyline clip-path="url(#clip110)" style="stroke:#000000; stroke-width:4; stroke-opacity:1; fill:none" points="
  102.74,697.813 129.74,697.813 
  "/>
<polyline clip-path="url(#clip110)" style="stroke:#000000; stroke-width:4; stroke-opacity:1; fill:none" points="
  102.74,442.419 129.74,442.419 
  "/>
<polyline clip-path="url(#clip110)" style="stroke:#000000; stroke-width:4; stroke-opacity:1; fill:none" points="
  102.74,187.025 129.74,187.025 
  "/>
<path clip-path="url(#clip110)" d="M 0 0 M54.7958 1449.79 Q51.1847 1449.79 49.356 1453.36 Q47.5504 1456.9 47.5504 1464.03 Q47.5504 1471.14 49.356 1474.7 Q51.1847 1478.24 54.7958 1478.24 Q58.43 1478.24 60.2356 1474.7 Q62.0643 1471.14 62.0643 1464.03 Q62.0643 1456.9 60.2356 1453.36 Q58.43 1449.79 54.7958 1449.79 M54.7958 1446.09 Q60.6059 1446.09 63.6615 1450.7 Q66.7402 1455.28 66.7402 1464.03 Q66.7402 1472.76 63.6615 1477.36 Q60.6059 1481.95 54.7958 1481.95 Q48.9856 1481.95 45.9069 1477.36 Q42.8514 1472.76 42.8514 1464.03 Q42.8514 1455.28 45.9069 1450.7 Q48.9856 1446.09 54.7958 1446.09 Z" fill="#000000" fill-rule="evenodd" fill-opacity="1" /><path clip-path="url(#clip110)" d="M 0 0 M-120.134 1228.39 L-112.495 1228.39 L-112.495 1202.03 L-120.805 1203.69 L-120.805 1199.44 L-112.541 1197.77 L-107.865 1197.77 L-107.865 1228.39 L-100.227 1228.39 L-100.227 1232.33 L-120.134 1232.33 L-120.134 1228.39 Z" fill="#000000" fill-rule="evenodd" fill-opacity="1" /><path clip-path="url(#clip110)" d="M 0 0 M-90.7821 1226.45 L-85.8979 1226.45 L-85.8979 1232.33 L-90.7821 1232.33 L-90.7821 1226.45 Z" fill="#000000" fill-rule="evenodd" fill-opacity="1" /><path clip-path="url(#clip110)" d="M 0 0 M-65.7128 1200.85 Q-69.3239 1200.85 -71.1526 1204.41 Q-72.9582 1207.95 -72.9582 1215.08 Q-72.9582 1222.19 -71.1526 1225.75 Q-69.3239 1229.3 -65.7128 1229.3 Q-62.0786 1229.3 -60.2731 1225.75 Q-58.4444 1222.19 -58.4444 1215.08 Q-58.4444 1207.95 -60.2731 1204.41 Q-62.0786 1200.85 -65.7128 1200.85 M-65.7128 1197.14 Q-59.9027 1197.14 -56.8471 1201.75 Q-53.7685 1206.33 -53.7685 1215.08 Q-53.7685 1223.81 -56.8471 1228.42 Q-59.9027 1233 -65.7128 1233 Q-71.523 1233 -74.6017 1228.42 Q-77.6572 1223.81 -77.6572 1215.08 Q-77.6572 1206.33 -74.6017 1201.75 Q-71.523 1197.14 -65.7128 1197.14 Z" fill="#000000" fill-rule="evenodd" fill-opacity="1" /><path clip-path="url(#clip110)" d="M 0 0 M-17.3798 1206.87 L-27.9584 1217.49 L-17.3798 1228.07 L-20.1344 1230.87 L-30.7593 1220.25 L-41.3843 1230.87 L-44.1157 1228.07 L-33.5602 1217.49 L-44.1157 1206.87 L-41.3843 1204.07 L-30.7593 1214.69 L-20.1344 1204.07 L-17.3798 1206.87 Z" fill="#000000" fill-rule="evenodd" fill-opacity="1" /><path clip-path="url(#clip110)" d="M 0 0 M-5.01872 1228.39 L2.62013 1228.39 L2.62013 1202.03 L-5.69001 1203.69 L-5.69001 1199.44 L2.57383 1197.77 L7.24974 1197.77 L7.24974 1228.39 L14.8886 1228.39 L14.8886 1232.33 L-5.01872 1232.33 L-5.01872 1228.39 Z" fill="#000000" fill-rule="evenodd" fill-opacity="1" /><path clip-path="url(#clip110)" d="M 0 0 M34.3329 1200.85 Q30.7218 1200.85 28.8931 1204.41 Q27.0876 1207.95 27.0876 1215.08 Q27.0876 1222.19 28.8931 1225.75 Q30.7218 1229.3 34.3329 1229.3 Q37.9672 1229.3 39.7727 1225.75 Q41.6014 1222.19 41.6014 1215.08 Q41.6014 1207.95 39.7727 1204.41 Q37.9672 1200.85 34.3329 1200.85 M34.3329 1197.14 Q40.1431 1197.14 43.1986 1201.75 Q46.2773 1206.33 46.2773 1215.08 Q46.2773 1223.81 43.1986 1228.42 Q40.1431 1233 34.3329 1233 Q28.5228 1233 25.4441 1228.42 Q22.3885 1223.81 22.3885 1215.08 Q22.3885 1206.33 25.4441 1201.75 Q28.5228 1197.14 34.3329 1197.14 Z" fill="#000000" fill-rule="evenodd" fill-opacity="1" /><path clip-path="url(#clip110)" d="M 0 0 M58.9537 1180.15 L49.3618 1195.14 L58.9537 1195.14 L58.9537 1180.15 M57.9569 1176.84 L62.7341 1176.84 L62.7341 1195.14 L66.7402 1195.14 L66.7402 1198.3 L62.7341 1198.3 L62.7341 1204.92 L58.9537 1204.92 L58.9537 1198.3 L46.2773 1198.3 L46.2773 1194.63 L57.9569 1176.84 Z" fill="#000000" fill-rule="evenodd" fill-opacity="1" /><path clip-path="url(#clip110)" d="M 0 0 M-116.916 973 L-100.597 973 L-100.597 976.935 L-122.541 976.935 L-122.541 973 Q-119.879 970.245 -115.296 965.616 Q-110.689 960.963 -109.509 959.62 Q-107.264 957.097 -106.384 955.361 Q-105.481 953.602 -105.481 951.912 Q-105.481 949.157 -107.426 947.421 Q-109.347 945.685 -112.449 945.685 Q-114.648 945.685 -117.101 946.449 Q-119.532 947.213 -122.31 948.764 L-122.31 944.042 Q-119.486 942.907 -117.032 942.329 Q-114.578 941.75 -112.541 941.75 Q-107.171 941.75 -103.977 944.435 Q-100.782 947.12 -100.782 951.611 Q-100.782 953.741 -101.592 955.662 Q-102.379 957.56 -104.486 960.153 Q-105.064 960.824 -108.166 964.041 Q-111.268 967.236 -116.916 973 Z" fill="#000000" fill-rule="evenodd" fill-opacity="1" /><path clip-path="url(#clip110)" d="M 0 0 M-90.7821 971.055 L-85.8979 971.055 L-85.8979 976.935 L-90.7821 976.935 L-90.7821 971.055 Z" fill="#000000" fill-rule="evenodd" fill-opacity="1" /><path clip-path="url(#clip110)" d="M 0 0 M-65.7128 945.454 Q-69.3239 945.454 -71.1526 949.018 Q-72.9582 952.56 -72.9582 959.69 Q-72.9582 966.796 -71.1526 970.361 Q-69.3239 973.903 -65.7128 973.903 Q-62.0786 973.903 -60.2731 970.361 Q-58.4444 966.796 -58.4444 959.69 Q-58.4444 952.56 -60.2731 949.018 Q-62.0786 945.454 -65.7128 945.454 M-65.7128 941.75 Q-59.9027 941.75 -56.8471 946.356 Q-53.7685 950.94 -53.7685 959.69 Q-53.7685 968.416 -56.8471 973.023 Q-59.9027 977.606 -65.7128 977.606 Q-71.523 977.606 -74.6017 973.023 Q-77.6572 968.416 -77.6572 959.69 Q-77.6572 950.94 -74.6017 946.356 Q-71.523 941.75 -65.7128 941.75 Z" fill="#000000" fill-rule="evenodd" fill-opacity="1" /><path clip-path="url(#clip110)" d="M 0 0 M-17.3798 951.472 L-27.9584 962.097 L-17.3798 972.676 L-20.1344 975.477 L-30.7593 964.852 L-41.3843 975.477 L-44.1157 972.676 L-33.5602 962.097 L-44.1157 951.472 L-41.3843 948.671 L-30.7593 959.296 L-20.1344 948.671 L-17.3798 951.472 Z" fill="#000000" fill-rule="evenodd" fill-opacity="1" /><path clip-path="url(#clip110)" d="M 0 0 M-5.01872 973 L2.62013 973 L2.62013 946.634 L-5.69001 948.301 L-5.69001 944.042 L2.57383 942.375 L7.24974 942.375 L7.24974 973 L14.8886 973 L14.8886 976.935 L-5.01872 976.935 L-5.01872 973 Z" fill="#000000" fill-rule="evenodd" fill-opacity="1" /><path clip-path="url(#clip110)" d="M 0 0 M34.3329 945.454 Q30.7218 945.454 28.8931 949.018 Q27.0876 952.56 27.0876 959.69 Q27.0876 966.796 28.8931 970.361 Q30.7218 973.903 34.3329 973.903 Q37.9672 973.903 39.7727 970.361 Q41.6014 966.796 41.6014 959.69 Q41.6014 952.56 39.7727 949.018 Q37.9672 945.454 34.3329 945.454 M34.3329 941.75 Q40.1431 941.75 43.1986 946.356 Q46.2773 950.94 46.2773 959.69 Q46.2773 968.416 43.1986 973.023 Q40.1431 977.606 34.3329 977.606 Q28.5228 977.606 25.4441 973.023 Q22.3885 968.416 22.3885 959.69 Q22.3885 950.94 25.4441 946.356 Q28.5228 941.75 34.3329 941.75 Z" fill="#000000" fill-rule="evenodd" fill-opacity="1" /><path clip-path="url(#clip110)" d="M 0 0 M58.9537 924.755 L49.3618 939.744 L58.9537 939.744 L58.9537 924.755 M57.9569 921.445 L62.7341 921.445 L62.7341 939.744 L66.7402 939.744 L66.7402 942.904 L62.7341 942.904 L62.7341 949.525 L58.9537 949.525 L58.9537 942.904 L46.2773 942.904 L46.2773 939.237 L57.9569 921.445 Z" fill="#000000" fill-rule="evenodd" fill-opacity="1" /><path clip-path="url(#clip110)" d="M 0 0 M-106.777 702.907 Q-103.421 703.624 -101.546 705.893 Q-99.6478 708.161 -99.6478 711.495 Q-99.6478 716.61 -103.166 719.411 Q-106.685 722.212 -113.166 722.212 Q-115.342 722.212 -117.657 721.772 Q-119.949 721.356 -122.402 720.499 L-122.402 715.985 Q-120.458 717.12 -118.143 717.698 Q-115.828 718.277 -113.305 718.277 Q-108.907 718.277 -106.615 716.541 Q-104.301 714.805 -104.301 711.495 Q-104.301 708.439 -106.453 706.726 Q-108.583 704.99 -112.402 704.99 L-116.43 704.99 L-116.43 701.148 L-112.217 701.148 Q-108.768 701.148 -106.939 699.782 Q-105.111 698.393 -105.111 695.8 Q-105.111 693.138 -107.009 691.726 Q-108.884 690.291 -112.402 690.291 Q-114.324 690.291 -116.523 690.708 Q-118.722 691.124 -121.361 692.004 L-121.361 687.837 Q-118.699 687.097 -116.384 686.726 Q-114.046 686.356 -111.986 686.356 Q-106.662 686.356 -103.56 688.787 Q-100.458 691.194 -100.458 695.314 Q-100.458 698.185 -102.102 700.175 Q-103.745 702.143 -106.777 702.907 Z" fill="#000000" fill-rule="evenodd" fill-opacity="1" /><path clip-path="url(#clip110)" d="M 0 0 M-90.7821 715.661 L-85.8979 715.661 L-85.8979 721.541 L-90.7821 721.541 L-90.7821 715.661 Z" fill="#000000" fill-rule="evenodd" fill-opacity="1" /><path clip-path="url(#clip110)" d="M 0 0 M-65.7128 690.06 Q-69.3239 690.06 -71.1526 693.624 Q-72.9582 697.166 -72.9582 704.296 Q-72.9582 711.402 -71.1526 714.967 Q-69.3239 718.509 -65.7128 718.509 Q-62.0786 718.509 -60.2731 714.967 Q-58.4444 711.402 -58.4444 704.296 Q-58.4444 697.166 -60.2731 693.624 Q-62.0786 690.06 -65.7128 690.06 M-65.7128 686.356 Q-59.9027 686.356 -56.8471 690.962 Q-53.7685 695.546 -53.7685 704.296 Q-53.7685 713.022 -56.8471 717.629 Q-59.9027 722.212 -65.7128 722.212 Q-71.523 722.212 -74.6017 717.629 Q-77.6572 713.022 -77.6572 704.296 Q-77.6572 695.546 -74.6017 690.962 Q-71.523 686.356 -65.7128 686.356 Z" fill="#000000" fill-rule="evenodd" fill-opacity="1" /><path clip-path="url(#clip110)" d="M 0 0 M-17.3798 696.078 L-27.9584 706.703 L-17.3798 717.282 L-20.1344 720.083 L-30.7593 709.458 L-41.3843 720.083 L-44.1157 717.282 L-33.5602 706.703 L-44.1157 696.078 L-41.3843 693.277 L-30.7593 703.902 L-20.1344 693.277 L-17.3798 696.078 Z" fill="#000000" fill-rule="evenodd" fill-opacity="1" /><path clip-path="url(#clip110)" d="M 0 0 M-5.01872 717.606 L2.62013 717.606 L2.62013 691.24 L-5.69001 692.907 L-5.69001 688.648 L2.57383 686.981 L7.24974 686.981 L7.24974 717.606 L14.8886 717.606 L14.8886 721.541 L-5.01872 721.541 L-5.01872 717.606 Z" fill="#000000" fill-rule="evenodd" fill-opacity="1" /><path clip-path="url(#clip110)" d="M 0 0 M34.3329 690.06 Q30.7218 690.06 28.8931 693.624 Q27.0876 697.166 27.0876 704.296 Q27.0876 711.402 28.8931 714.967 Q30.7218 718.509 34.3329 718.509 Q37.9672 718.509 39.7727 714.967 Q41.6014 711.402 41.6014 704.296 Q41.6014 697.166 39.7727 693.624 Q37.9672 690.06 34.3329 690.06 M34.3329 686.356 Q40.1431 686.356 43.1986 690.962 Q46.2773 695.546 46.2773 704.296 Q46.2773 713.022 43.1986 717.629 Q40.1431 722.212 34.3329 722.212 Q28.5228 722.212 25.4441 717.629 Q22.3885 713.022 22.3885 704.296 Q22.3885 695.546 25.4441 690.962 Q28.5228 686.356 34.3329 686.356 Z" fill="#000000" fill-rule="evenodd" fill-opacity="1" /><path clip-path="url(#clip110)" d="M 0 0 M58.9537 669.361 L49.3618 684.351 L58.9537 684.351 L58.9537 669.361 M57.9569 666.051 L62.7341 666.051 L62.7341 684.351 L66.7402 684.351 L66.7402 687.51 L62.7341 687.51 L62.7341 694.131 L58.9537 694.131 L58.9537 687.51 L46.2773 687.51 L46.2773 683.843 L57.9569 666.051 Z" fill="#000000" fill-rule="evenodd" fill-opacity="1" /><path clip-path="url(#clip110)" d="M 0 0 M-108.097 435.661 L-119.902 454.11 L-108.097 454.11 L-108.097 435.661 M-109.324 431.587 L-103.444 431.587 L-103.444 454.11 L-98.5136 454.11 L-98.5136 457.999 L-103.444 457.999 L-103.444 466.147 L-108.097 466.147 L-108.097 457.999 L-123.699 457.999 L-123.699 453.485 L-109.324 431.587 Z" fill="#000000" fill-rule="evenodd" fill-opacity="1" /><path clip-path="url(#clip110)" d="M 0 0 M-90.7821 460.267 L-85.8979 460.267 L-85.8979 466.147 L-90.7821 466.147 L-90.7821 460.267 Z" fill="#000000" fill-rule="evenodd" fill-opacity="1" /><path clip-path="url(#clip110)" d="M 0 0 M-65.7128 434.666 Q-69.3239 434.666 -71.1526 438.23 Q-72.9582 441.772 -72.9582 448.902 Q-72.9582 456.008 -71.1526 459.573 Q-69.3239 463.115 -65.7128 463.115 Q-62.0786 463.115 -60.2731 459.573 Q-58.4444 456.008 -58.4444 448.902 Q-58.4444 441.772 -60.2731 438.23 Q-62.0786 434.666 -65.7128 434.666 M-65.7128 430.962 Q-59.9027 430.962 -56.8471 435.568 Q-53.7685 440.152 -53.7685 448.902 Q-53.7685 457.629 -56.8471 462.235 Q-59.9027 466.818 -65.7128 466.818 Q-71.523 466.818 -74.6017 462.235 Q-77.6572 457.629 -77.6572 448.902 Q-77.6572 440.152 -74.6017 435.568 Q-71.523 430.962 -65.7128 430.962 Z" fill="#000000" fill-rule="evenodd" fill-opacity="1" /><path clip-path="url(#clip110)" d="M 0 0 M-17.3798 440.684 L-27.9584 451.309 L-17.3798 461.888 L-20.1344 464.689 L-30.7593 454.064 L-41.3843 464.689 L-44.1157 461.888 L-33.5602 451.309 L-44.1157 440.684 L-41.3843 437.883 L-30.7593 448.508 L-20.1344 437.883 L-17.3798 440.684 Z" fill="#000000" fill-rule="evenodd" fill-opacity="1" /><path clip-path="url(#clip110)" d="M 0 0 M-5.01872 462.212 L2.62013 462.212 L2.62013 435.846 L-5.69001 437.513 L-5.69001 433.254 L2.57383 431.587 L7.24974 431.587 L7.24974 462.212 L14.8886 462.212 L14.8886 466.147 L-5.01872 466.147 L-5.01872 462.212 Z" fill="#000000" fill-rule="evenodd" fill-opacity="1" /><path clip-path="url(#clip110)" d="M 0 0 M34.3329 434.666 Q30.7218 434.666 28.8931 438.23 Q27.0876 441.772 27.0876 448.902 Q27.0876 456.008 28.8931 459.573 Q30.7218 463.115 34.3329 463.115 Q37.9672 463.115 39.7727 459.573 Q41.6014 456.008 41.6014 448.902 Q41.6014 441.772 39.7727 438.23 Q37.9672 434.666 34.3329 434.666 M34.3329 430.962 Q40.1431 430.962 43.1986 435.568 Q46.2773 440.152 46.2773 448.902 Q46.2773 457.629 43.1986 462.235 Q40.1431 466.818 34.3329 466.818 Q28.5228 466.818 25.4441 462.235 Q22.3885 457.629 22.3885 448.902 Q22.3885 440.152 25.4441 435.568 Q28.5228 430.962 34.3329 430.962 Z" fill="#000000" fill-rule="evenodd" fill-opacity="1" /><path clip-path="url(#clip110)" d="M 0 0 M58.9537 413.967 L49.3618 428.957 L58.9537 428.957 L58.9537 413.967 M57.9569 410.657 L62.7341 410.657 L62.7341 428.957 L66.7402 428.957 L66.7402 432.116 L62.7341 432.116 L62.7341 438.737 L58.9537 438.737 L58.9537 432.116 L46.2773 432.116 L46.2773 428.449 L57.9569 410.657 Z" fill="#000000" fill-rule="evenodd" fill-opacity="1" /><path clip-path="url(#clip110)" d="M 0 0 M-120.898 176.193 L-102.541 176.193 L-102.541 180.128 L-116.615 180.128 L-116.615 188.6 Q-115.597 188.253 -114.578 188.091 Q-113.56 187.906 -112.541 187.906 Q-106.754 187.906 -103.375 191.077 Q-99.9951 194.248 -99.9951 199.665 Q-99.9951 205.244 -103.467 208.346 Q-106.939 211.424 -113.259 211.424 Q-115.435 211.424 -117.703 211.054 Q-119.949 210.684 -122.356 209.943 L-122.356 205.244 Q-120.273 206.378 -118.051 206.934 Q-115.828 207.489 -113.351 207.489 Q-109.347 207.489 -107.009 205.383 Q-104.671 203.276 -104.671 199.665 Q-104.671 196.054 -107.009 193.948 Q-109.347 191.841 -113.351 191.841 Q-115.226 191.841 -117.101 192.258 Q-118.953 192.674 -120.898 193.554 L-120.898 176.193 Z" fill="#000000" fill-rule="evenodd" fill-opacity="1" /><path clip-path="url(#clip110)" d="M 0 0 M-90.7821 204.873 L-85.8979 204.873 L-85.8979 210.753 L-90.7821 210.753 L-90.7821 204.873 Z" fill="#000000" fill-rule="evenodd" fill-opacity="1" /><path clip-path="url(#clip110)" d="M 0 0 M-65.7128 179.272 Q-69.3239 179.272 -71.1526 182.837 Q-72.9582 186.378 -72.9582 193.508 Q-72.9582 200.614 -71.1526 204.179 Q-69.3239 207.721 -65.7128 207.721 Q-62.0786 207.721 -60.2731 204.179 Q-58.4444 200.614 -58.4444 193.508 Q-58.4444 186.378 -60.2731 182.837 Q-62.0786 179.272 -65.7128 179.272 M-65.7128 175.568 Q-59.9027 175.568 -56.8471 180.174 Q-53.7685 184.758 -53.7685 193.508 Q-53.7685 202.235 -56.8471 206.841 Q-59.9027 211.424 -65.7128 211.424 Q-71.523 211.424 -74.6017 206.841 Q-77.6572 202.235 -77.6572 193.508 Q-77.6572 184.758 -74.6017 180.174 Q-71.523 175.568 -65.7128 175.568 Z" fill="#000000" fill-rule="evenodd" fill-opacity="1" /><path clip-path="url(#clip110)" d="M 0 0 M-17.3798 185.29 L-27.9584 195.915 L-17.3798 206.494 L-20.1344 209.295 L-30.7593 198.67 L-41.3843 209.295 L-44.1157 206.494 L-33.5602 195.915 L-44.1157 185.29 L-41.3843 182.489 L-30.7593 193.114 L-20.1344 182.489 L-17.3798 185.29 Z" fill="#000000" fill-rule="evenodd" fill-opacity="1" /><path clip-path="url(#clip110)" d="M 0 0 M-5.01872 206.818 L2.62013 206.818 L2.62013 180.452 L-5.69001 182.119 L-5.69001 177.86 L2.57383 176.193 L7.24974 176.193 L7.24974 206.818 L14.8886 206.818 L14.8886 210.753 L-5.01872 210.753 L-5.01872 206.818 Z" fill="#000000" fill-rule="evenodd" fill-opacity="1" /><path clip-path="url(#clip110)" d="M 0 0 M34.3329 179.272 Q30.7218 179.272 28.8931 182.837 Q27.0876 186.378 27.0876 193.508 Q27.0876 200.614 28.8931 204.179 Q30.7218 207.721 34.3329 207.721 Q37.9672 207.721 39.7727 204.179 Q41.6014 200.614 41.6014 193.508 Q41.6014 186.378 39.7727 182.837 Q37.9672 179.272 34.3329 179.272 M34.3329 175.568 Q40.1431 175.568 43.1986 180.174 Q46.2773 184.758 46.2773 193.508 Q46.2773 202.235 43.1986 206.841 Q40.1431 211.424 34.3329 211.424 Q28.5228 211.424 25.4441 206.841 Q22.3885 202.235 22.3885 193.508 Q22.3885 184.758 25.4441 180.174 Q28.5228 175.568 34.3329 175.568 Z" fill="#000000" fill-rule="evenodd" fill-opacity="1" /><path clip-path="url(#clip110)" d="M 0 0 M58.9537 158.573 L49.3618 173.563 L58.9537 173.563 L58.9537 158.573 M57.9569 155.263 L62.7341 155.263 L62.7341 173.563 L66.7402 173.563 L66.7402 176.722 L62.7341 176.722 L62.7341 183.343 L58.9537 183.343 L58.9537 176.722 L46.2773 176.722 L46.2773 173.055 L57.9569 155.263 Z" fill="#000000" fill-rule="evenodd" fill-opacity="1" /><path clip-path="url(#clip110)" d="M 0 0 M-221.475 906.081 L-221.475 865.881 L-216.064 865.881 L-216.064 882.75 L-173.955 882.75 L-173.955 889.211 L-216.064 889.211 L-216.064 906.081 L-221.475 906.081 Z" fill="#000000" fill-rule="evenodd" fill-opacity="1" /><path clip-path="url(#clip110)" d="M 0 0 M-209.603 861.934 L-209.603 856.078 L-173.955 856.078 L-173.955 861.934 L-209.603 861.934 M-223.48 861.934 L-223.48 856.078 L-216.064 856.078 L-216.064 861.934 L-223.48 861.934 Z" fill="#000000" fill-rule="evenodd" fill-opacity="1" /><path clip-path="url(#clip110)" d="M 0 0 M-202.759 816.069 Q-206.706 813.873 -208.584 810.818 Q-210.462 807.762 -210.462 803.625 Q-210.462 798.055 -206.547 795.031 Q-202.664 792.007 -195.471 792.007 L-173.955 792.007 L-173.955 797.895 L-195.28 797.895 Q-200.404 797.895 -202.887 799.71 Q-205.369 801.524 -205.369 805.248 Q-205.369 809.799 -202.346 812.441 Q-199.322 815.083 -194.102 815.083 L-173.955 815.083 L-173.955 820.971 L-195.28 820.971 Q-200.436 820.971 -202.887 822.785 Q-205.369 824.6 -205.369 828.387 Q-205.369 832.875 -202.314 835.517 Q-199.29 838.158 -194.102 838.158 L-173.955 838.158 L-173.955 844.047 L-209.603 844.047 L-209.603 838.158 L-204.064 838.158 Q-207.343 836.153 -208.902 833.352 Q-210.462 830.551 -210.462 826.7 Q-210.462 822.817 -208.489 820.112 Q-206.515 817.374 -202.759 816.069 Z" fill="#000000" fill-rule="evenodd" fill-opacity="1" /><path clip-path="url(#clip110)" d="M 0 0 M-193.243 749.834 L-190.378 749.834 L-190.378 776.761 Q-184.331 776.379 -181.148 773.133 Q-177.997 769.854 -177.997 764.03 Q-177.997 760.656 -178.824 757.505 Q-179.652 754.322 -181.307 751.203 L-175.769 751.203 Q-174.432 754.354 -173.732 757.664 Q-173.032 760.974 -173.032 764.38 Q-173.032 772.91 -177.997 777.907 Q-182.962 782.872 -191.429 782.872 Q-200.181 782.872 -205.306 778.162 Q-210.462 773.419 -210.462 765.398 Q-210.462 758.205 -205.815 754.036 Q-201.2 749.834 -193.243 749.834 M-194.961 755.691 Q-199.768 755.754 -202.632 758.396 Q-205.497 761.006 -205.497 765.335 Q-205.497 770.236 -202.728 773.196 Q-199.959 776.125 -194.93 776.57 L-194.961 755.691 Z" fill="#000000" fill-rule="evenodd" fill-opacity="1" /><path clip-path="url(#clip110)" d="M 0 0 M-223.416 705.433 Q-216.096 709.699 -208.934 711.767 Q-201.773 713.836 -194.42 713.836 Q-187.068 713.836 -179.843 711.767 Q-172.65 709.667 -165.361 705.433 L-165.361 710.526 Q-172.841 715.3 -180.066 717.687 Q-187.291 720.043 -194.42 720.043 Q-201.518 720.043 -208.711 717.687 Q-215.905 715.332 -223.416 710.526 L-223.416 705.433 Z" fill="#000000" fill-rule="evenodd" fill-opacity="1" /><path clip-path="url(#clip110)" d="M 0 0 M-208.552 671.345 L-203.014 671.345 Q-204.287 673.828 -204.924 676.501 Q-205.56 679.175 -205.56 682.04 Q-205.56 686.4 -204.224 688.596 Q-202.887 690.761 -200.213 690.761 Q-198.176 690.761 -196.998 689.201 Q-195.853 687.641 -194.802 682.931 L-194.357 680.926 Q-193.02 674.687 -190.569 672.077 Q-188.15 669.435 -183.79 669.435 Q-178.824 669.435 -175.928 673.382 Q-173.032 677.297 -173.032 684.172 Q-173.032 687.037 -173.605 690.156 Q-174.146 693.243 -175.26 696.681 L-181.307 696.681 Q-179.62 693.434 -178.761 690.283 Q-177.933 687.132 -177.933 684.045 Q-177.933 679.907 -179.334 677.679 Q-180.766 675.451 -183.344 675.451 Q-185.731 675.451 -187.004 677.074 Q-188.277 678.666 -189.455 684.108 L-189.933 686.145 Q-191.078 691.588 -193.434 694.007 Q-195.821 696.426 -199.959 696.426 Q-204.987 696.426 -207.725 692.861 Q-210.462 689.296 -210.462 682.74 Q-210.462 679.493 -209.985 676.629 Q-209.507 673.764 -208.552 671.345 Z" fill="#000000" fill-rule="evenodd" fill-opacity="1" /><path clip-path="url(#clip110)" d="M 0 0 M-223.416 661.033 L-223.416 655.94 Q-215.905 651.166 -208.711 648.811 Q-201.518 646.423 -194.42 646.423 Q-187.291 646.423 -180.066 648.811 Q-172.841 651.166 -165.361 655.94 L-165.361 661.033 Q-172.65 656.799 -179.843 654.731 Q-187.068 652.63 -194.42 652.63 Q-201.773 652.63 -208.934 654.731 Q-216.096 656.799 -223.416 661.033 Z" fill="#000000" fill-rule="evenodd" fill-opacity="1" /><path clip-path="url(#clip112)" d="
M226.495 88.5087 L226.495 1464 L560.246 1464 L560.246 88.5087 L226.495 88.5087 L226.495 88.5087  Z
  " fill="#009af9" fill-rule="evenodd" fill-opacity="1"/>
<polyline clip-path="url(#clip112)" style="stroke:#000000; stroke-width:4; stroke-opacity:1; fill:none" points="
  226.495,88.5087 226.495,1464 560.246,1464 560.246,88.5087 226.495,88.5087 
  "/>
<path clip-path="url(#clip112)" d="
M643.684 678.297 L643.684 1464 L977.435 1464 L977.435 678.297 L643.684 678.297 L643.684 678.297  Z
  " fill="#009af9" fill-rule="evenodd" fill-opacity="1"/>
<polyline clip-path="url(#clip112)" style="stroke:#000000; stroke-width:4; stroke-opacity:1; fill:none" points="
  643.684,678.297 643.684,1464 977.435,1464 977.435,678.297 643.684,678.297 
  "/>
<path clip-path="url(#clip112)" d="
M1060.87 1069.28 L1060.87 1464 L1394.62 1464 L1394.62 1069.28 L1060.87 1069.28 L1060.87 1069.28  Z
  " fill="#009af9" fill-rule="evenodd" fill-opacity="1"/>
<polyline clip-path="url(#clip112)" style="stroke:#000000; stroke-width:4; stroke-opacity:1; fill:none" points="
  1060.87,1069.28 1060.87,1464 1394.62,1464 1394.62,1069.28 1060.87,1069.28 
  "/>
<path clip-path="url(#clip112)" d="
M1478.06 1258.11 L1478.06 1464 L1811.81 1464 L1811.81 1258.11 L1478.06 1258.11 L1478.06 1258.11  Z
  " fill="#009af9" fill-rule="evenodd" fill-opacity="1"/>
<polyline clip-path="url(#clip112)" style="stroke:#000000; stroke-width:4; stroke-opacity:1; fill:none" points="
  1478.06,1258.11 1478.06,1464 1811.81,1464 1811.81,1258.11 1478.06,1258.11 
  "/>
<path clip-path="url(#clip112)" d="
M1895.25 1262.62 L1895.25 1464 L2229 1464 L2229 1262.62 L1895.25 1262.62 L1895.25 1262.62  Z
  " fill="#009af9" fill-rule="evenodd" fill-opacity="1"/>
<polyline clip-path="url(#clip112)" style="stroke:#000000; stroke-width:4; stroke-opacity:1; fill:none" points="
  1895.25,1262.62 1895.25,1464 2229,1464 2229,1262.62 1895.25,1262.62 
  "/>
</svg>
