<?xml version="1.0" encoding="utf-8"?>
<svg xmlns="http://www.w3.org/2000/svg" xmlns:xlink="http://www.w3.org/1999/xlink" width="600" height="400" viewBox="0 0 2400 1600">
<defs>
  <clipPath id="clip020">
    <rect x="0" y="0" width="2400" height="1600"/>
  </clipPath>
</defs>
<path clip-path="url(#clip020)" d="
M0 1600 L2400 1600 L2400 0 L0 0  Z
  " fill="#ffffff" fill-rule="evenodd" fill-opacity="1"/>
<defs>
  <clipPath id="clip021">
    <rect x="480" y="0" width="1681" height="1600"/>
  </clipPath>
</defs>
<path clip-path="url(#clip020)" d="
M102.74 1505.26 L2352.76 1505.26 L2352.76 47.2441 L102.74 47.2441  Z
  " fill="#ffffff" fill-rule="evenodd" fill-opacity="1"/>
<defs>
  <clipPath id="clip022">
    <rect x="102" y="47" width="2251" height="1459"/>
  </clipPath>
</defs>
<polyline clip-path="url(#clip022)" style="stroke:#000000; stroke-width:2; stroke-opacity:0.1; fill:none" points="
  317.518,1505.26 317.518,47.2441 
  "/>
<polyline clip-path="url(#clip022)" style="stroke:#000000; stroke-width:2; stroke-opacity:0.1; fill:none" points="
  545.076,1505.26 545.076,47.2441 
  "/>
<polyline clip-path="url(#clip022)" style="stroke:#000000; stroke-width:2; stroke-opacity:0.1; fill:none" points="
  772.633,1505.26 772.633,47.2441 
  "/>
<polyline clip-path="url(#clip022)" style="stroke:#000000; stroke-width:2; stroke-opacity:0.1; fill:none" points="
  1000.19,1505.26 1000.19,47.2441 
  "/>
<polyline clip-path="url(#clip022)" style="stroke:#000000; stroke-width:2; stroke-opacity:0.1; fill:none" points="
  1227.75,1505.26 1227.75,47.2441 
  "/>
<polyline clip-path="url(#clip022)" style="stroke:#000000; stroke-width:2; stroke-opacity:0.1; fill:none" points="
  1455.31,1505.26 1455.31,47.2441 
  "/>
<polyline clip-path="url(#clip022)" style="stroke:#000000; stroke-width:2; stroke-opacity:0.1; fill:none" points="
  1682.86,1505.26 1682.86,47.2441 
  "/>
<polyline clip-path="url(#clip022)" style="stroke:#000000; stroke-width:2; stroke-opacity:0.1; fill:none" points="
  1910.42,1505.26 1910.42,47.2441 
  "/>
<polyline clip-path="url(#clip022)" style="stroke:#000000; stroke-width:2; stroke-opacity:0.1; fill:none" points="
  2137.98,1505.26 2137.98,47.2441 
  "/>
<polyline clip-path="url(#clip020)" style="stroke:#000000; stroke-width:4; stroke-opacity:1; fill:none" points="
  102.74,1505.26 2352.76,1505.26 
  "/>
<polyline clip-path="url(#clip020)" style="stroke:#000000; stroke-width:4; stroke-opacity:1; fill:none" points="
  317.518,1505.26 317.518,1487.76 
  "/>
<polyline clip-path="url(#clip020)" style="stroke:#000000; stroke-width:4; stroke-opacity:1; fill:none" points="
  545.076,1505.26 545.076,1487.76 
  "/>
<polyline clip-path="url(#clip020)" style="stroke:#000000; stroke-width:4; stroke-opacity:1; fill:none" points="
  772.633,1505.26 772.633,1487.76 
  "/>
<polyline clip-path="url(#clip020)" style="stroke:#000000; stroke-width:4; stroke-opacity:1; fill:none" points="
  1000.19,1505.26 1000.19,1487.76 
  "/>
<polyline clip-path="url(#clip020)" style="stroke:#000000; stroke-width:4; stroke-opacity:1; fill:none" points="
  1227.75,1505.26 1227.75,1487.76 
  "/>
<polyline clip-path="url(#clip020)" style="stroke:#000000; stroke-width:4; stroke-opacity:1; fill:none" points="
  1455.31,1505.26 1455.31,1487.76 
  "/>
<polyline clip-path="url(#clip020)" style="stroke:#000000; stroke-width:4; stroke-opacity:1; fill:none" points="
  1682.86,1505.26 1682.86,1487.76 
  "/>
<polyline clip-path="url(#clip020)" style="stroke:#000000; stroke-width:4; stroke-opacity:1; fill:none" points="
  1910.42,1505.26 1910.42,1487.76 
  "/>
<polyline clip-path="url(#clip020)" style="stroke:#000000; stroke-width:4; stroke-opacity:1; fill:none" points="
  2137.98,1505.26 2137.98,1487.76 
  "/>
<path clip-path="url(#clip020)" d="M 0 0 M312.171 1562 L328.49 1562 L328.49 1565.93 L306.546 1565.93 L306.546 1562 Q309.208 1559.24 313.791 1554.61 Q318.398 1549.96 319.578 1548.62 Q321.824 1546.09 322.703 1544.36 Q323.606 1542.6 323.606 1540.91 Q323.606 1538.15 321.662 1536.42 Q319.74 1534.68 316.638 1534.68 Q314.439 1534.68 311.986 1535.45 Q309.555 1536.21 306.777 1537.76 L306.777 1533.04 Q309.601 1531.9 312.055 1531.33 Q314.509 1530.75 316.546 1530.75 Q321.916 1530.75 325.111 1533.43 Q328.305 1536.12 328.305 1540.61 Q328.305 1542.74 327.495 1544.66 Q326.708 1546.56 324.601 1549.15 Q324.023 1549.82 320.921 1553.04 Q317.819 1556.23 312.171 1562 Z" fill="#000000" fill-rule="evenodd" fill-opacity="1" /><path clip-path="url(#clip020)" d="M 0 0 M548.085 1535.45 L536.279 1553.89 L548.085 1553.89 L548.085 1535.45 M546.858 1531.37 L552.738 1531.37 L552.738 1553.89 L557.668 1553.89 L557.668 1557.78 L552.738 1557.78 L552.738 1565.93 L548.085 1565.93 L548.085 1557.78 L532.483 1557.78 L532.483 1553.27 L546.858 1531.37 Z" fill="#000000" fill-rule="evenodd" fill-opacity="1" /><path clip-path="url(#clip020)" d="M 0 0 M772.633 1549.52 Q769.3 1549.52 767.378 1551.3 Q765.48 1553.08 765.48 1556.21 Q765.48 1559.33 767.378 1561.12 Q769.3 1562.9 772.633 1562.9 Q775.966 1562.9 777.888 1561.12 Q779.809 1559.31 779.809 1556.21 Q779.809 1553.08 777.888 1551.3 Q775.989 1549.52 772.633 1549.52 M767.957 1547.53 Q764.948 1546.79 763.258 1544.73 Q761.591 1542.67 761.591 1539.71 Q761.591 1535.56 764.531 1533.15 Q767.494 1530.75 772.633 1530.75 Q777.795 1530.75 780.735 1533.15 Q783.675 1535.56 783.675 1539.71 Q783.675 1542.67 781.985 1544.73 Q780.318 1546.79 777.332 1547.53 Q780.712 1548.32 782.587 1550.61 Q784.485 1552.9 784.485 1556.21 Q784.485 1561.23 781.406 1563.92 Q778.351 1566.6 772.633 1566.6 Q766.915 1566.6 763.837 1563.92 Q760.781 1561.23 760.781 1556.21 Q760.781 1552.9 762.679 1550.61 Q764.578 1548.32 767.957 1547.53 M766.244 1540.14 Q766.244 1542.83 767.911 1544.33 Q769.601 1545.84 772.633 1545.84 Q775.642 1545.84 777.332 1544.33 Q779.045 1542.83 779.045 1540.14 Q779.045 1537.46 777.332 1535.96 Q775.642 1534.45 772.633 1534.45 Q769.601 1534.45 767.911 1535.96 Q766.244 1537.46 766.244 1540.14 Z" fill="#000000" fill-rule="evenodd" fill-opacity="1" /><path clip-path="url(#clip020)" d="M 0 0 M974.797 1562 L982.436 1562 L982.436 1535.63 L974.126 1537.3 L974.126 1533.04 L982.39 1531.37 L987.066 1531.37 L987.066 1562 L994.704 1562 L994.704 1565.93 L974.797 1565.93 L974.797 1562 Z" fill="#000000" fill-rule="evenodd" fill-opacity="1" /><path clip-path="url(#clip020)" d="M 0 0 M1014.73 1546.79 Q1011.58 1546.79 1009.73 1548.94 Q1007.9 1551.09 1007.9 1554.84 Q1007.9 1558.57 1009.73 1560.75 Q1011.58 1562.9 1014.73 1562.9 Q1017.88 1562.9 1019.7 1560.75 Q1021.56 1558.57 1021.56 1554.84 Q1021.56 1551.09 1019.7 1548.94 Q1017.88 1546.79 1014.73 1546.79 M1024.01 1532.14 L1024.01 1536.39 Q1022.25 1535.56 1020.45 1535.12 Q1018.66 1534.68 1016.9 1534.68 Q1012.27 1534.68 1009.82 1537.81 Q1007.39 1540.93 1007.04 1547.25 Q1008.41 1545.24 1010.47 1544.17 Q1012.53 1543.08 1015.01 1543.08 Q1020.21 1543.08 1023.22 1546.26 Q1026.26 1549.4 1026.26 1554.84 Q1026.26 1560.17 1023.11 1563.39 Q1019.96 1566.6 1014.73 1566.6 Q1008.73 1566.6 1005.56 1562.02 Q1002.39 1557.41 1002.39 1548.69 Q1002.39 1540.49 1006.28 1535.63 Q1010.17 1530.75 1016.72 1530.75 Q1018.48 1530.75 1020.26 1531.09 Q1022.07 1531.44 1024.01 1532.14 Z" fill="#000000" fill-rule="evenodd" fill-opacity="1" /><path clip-path="url(#clip020)" d="M 0 0 M1217.39 1547.3 Q1220.75 1548.02 1222.62 1550.28 Q1224.52 1552.55 1224.52 1555.89 Q1224.52 1561 1221 1563.8 Q1217.48 1566.6 1211 1566.6 Q1208.82 1566.6 1206.51 1566.16 Q1204.22 1565.75 1201.76 1564.89 L1201.76 1560.38 Q1203.71 1561.51 1206.02 1562.09 Q1208.34 1562.67 1210.86 1562.67 Q1215.26 1562.67 1217.55 1560.93 Q1219.87 1559.2 1219.87 1555.89 Q1219.87 1552.83 1217.71 1551.12 Q1215.58 1549.38 1211.76 1549.38 L1207.74 1549.38 L1207.74 1545.54 L1211.95 1545.54 Q1215.4 1545.54 1217.23 1544.17 Q1219.06 1542.78 1219.06 1540.19 Q1219.06 1537.53 1217.16 1536.12 Q1215.28 1534.68 1211.76 1534.68 Q1209.84 1534.68 1207.64 1535.1 Q1205.44 1535.52 1202.81 1536.39 L1202.81 1532.23 Q1205.47 1531.49 1207.78 1531.12 Q1210.12 1530.75 1212.18 1530.75 Q1217.51 1530.75 1220.61 1533.18 Q1223.71 1535.58 1223.71 1539.71 Q1223.71 1542.58 1222.07 1544.57 Q1220.42 1546.53 1217.39 1547.3 Z" fill="#000000" fill-rule="evenodd" fill-opacity="1" /><path clip-path="url(#clip020)" d="M 0 0 M1237.41 1562 L1253.73 1562 L1253.73 1565.93 L1231.79 1565.93 L1231.79 1562 Q1234.45 1559.24 1239.03 1554.61 Q1243.64 1549.96 1244.82 1548.62 Q1247.07 1546.09 1247.94 1544.36 Q1248.85 1542.6 1248.85 1540.91 Q1248.85 1538.15 1246.9 1536.42 Q1244.98 1534.68 1241.88 1534.68 Q1239.68 1534.68 1237.23 1535.45 Q1234.8 1536.21 1232.02 1537.76 L1232.02 1533.04 Q1234.84 1531.9 1237.3 1531.33 Q1239.75 1530.75 1241.79 1530.75 Q1247.16 1530.75 1250.35 1533.43 Q1253.55 1536.12 1253.55 1540.61 Q1253.55 1542.74 1252.74 1544.66 Q1251.95 1546.56 1249.84 1549.15 Q1249.26 1549.82 1246.16 1553.04 Q1243.06 1556.23 1237.41 1562 Z" fill="#000000" fill-rule="evenodd" fill-opacity="1" /><path clip-path="url(#clip020)" d="M 0 0 M1443.52 1535.45 L1431.72 1553.89 L1443.52 1553.89 L1443.52 1535.45 M1442.3 1531.37 L1448.18 1531.37 L1448.18 1553.89 L1453.11 1553.89 L1453.11 1557.78 L1448.18 1557.78 L1448.18 1565.93 L1443.52 1565.93 L1443.52 1557.78 L1427.92 1557.78 L1427.92 1553.27 L1442.3 1531.37 Z" fill="#000000" fill-rule="evenodd" fill-opacity="1" /><path clip-path="url(#clip020)" d="M 0 0 M1470.84 1549.52 Q1467.5 1549.52 1465.58 1551.3 Q1463.69 1553.08 1463.69 1556.21 Q1463.69 1559.33 1465.58 1561.12 Q1467.5 1562.9 1470.84 1562.9 Q1474.17 1562.9 1476.09 1561.12 Q1478.01 1559.31 1478.01 1556.21 Q1478.01 1553.08 1476.09 1551.3 Q1474.19 1549.52 1470.84 1549.52 M1466.16 1547.53 Q1463.15 1546.79 1461.46 1544.73 Q1459.8 1542.67 1459.8 1539.71 Q1459.8 1535.56 1462.74 1533.15 Q1465.7 1530.75 1470.84 1530.75 Q1476 1530.75 1478.94 1533.15 Q1481.88 1535.56 1481.88 1539.71 Q1481.88 1542.67 1480.19 1544.73 Q1478.52 1546.79 1475.54 1547.53 Q1478.92 1548.32 1480.79 1550.61 Q1482.69 1552.9 1482.69 1556.21 Q1482.69 1561.23 1479.61 1563.92 Q1476.56 1566.6 1470.84 1566.6 Q1465.12 1566.6 1462.04 1563.92 Q1458.99 1561.23 1458.99 1556.21 Q1458.99 1552.9 1460.88 1550.61 Q1462.78 1548.32 1466.16 1547.53 M1464.45 1540.14 Q1464.45 1542.83 1466.12 1544.33 Q1467.81 1545.84 1470.84 1545.84 Q1473.85 1545.84 1475.54 1544.33 Q1477.25 1542.83 1477.25 1540.14 Q1477.25 1537.46 1475.54 1535.96 Q1473.85 1534.45 1470.84 1534.45 Q1467.81 1534.45 1466.12 1535.96 Q1464.45 1537.46 1464.45 1540.14 Z" fill="#000000" fill-rule="evenodd" fill-opacity="1" /><path clip-path="url(#clip020)" d="M 0 0 M1668.03 1546.79 Q1664.88 1546.79 1663.03 1548.94 Q1661.2 1551.09 1661.2 1554.84 Q1661.2 1558.57 1663.03 1560.75 Q1664.88 1562.9 1668.03 1562.9 Q1671.17 1562.9 1673 1560.75 Q1674.85 1558.57 1674.85 1554.84 Q1674.85 1551.09 1673 1548.94 Q1671.17 1546.79 1668.03 1546.79 M1677.31 1532.14 L1677.31 1536.39 Q1675.55 1535.56 1673.74 1535.12 Q1671.96 1534.68 1670.2 1534.68 Q1665.57 1534.68 1663.12 1537.81 Q1660.69 1540.93 1660.34 1547.25 Q1661.71 1545.24 1663.77 1544.17 Q1665.83 1543.08 1668.3 1543.08 Q1673.51 1543.08 1676.52 1546.26 Q1679.55 1549.4 1679.55 1554.84 Q1679.55 1560.17 1676.4 1563.39 Q1673.26 1566.6 1668.03 1566.6 Q1662.03 1566.6 1658.86 1562.02 Q1655.69 1557.41 1655.69 1548.69 Q1655.69 1540.49 1659.58 1535.63 Q1663.46 1530.75 1670.02 1530.75 Q1671.78 1530.75 1673.56 1531.09 Q1675.36 1531.44 1677.31 1532.14 Z" fill="#000000" fill-rule="evenodd" fill-opacity="1" /><path clip-path="url(#clip020)" d="M 0 0 M1700.46 1535.45 L1688.65 1553.89 L1700.46 1553.89 L1700.46 1535.45 M1699.23 1531.37 L1705.11 1531.37 L1705.11 1553.89 L1710.04 1553.89 L1710.04 1557.78 L1705.11 1557.78 L1705.11 1565.93 L1700.46 1565.93 L1700.46 1557.78 L1684.85 1557.78 L1684.85 1553.27 L1699.23 1531.37 Z" fill="#000000" fill-rule="evenodd" fill-opacity="1" /><path clip-path="url(#clip020)" d="M 0 0 M1895.29 1549.52 Q1891.96 1549.52 1890.04 1551.3 Q1888.14 1553.08 1888.14 1556.21 Q1888.14 1559.33 1890.04 1561.12 Q1891.96 1562.9 1895.29 1562.9 Q1898.63 1562.9 1900.55 1561.12 Q1902.47 1559.31 1902.47 1556.21 Q1902.47 1553.08 1900.55 1551.3 Q1898.65 1549.52 1895.29 1549.52 M1890.62 1547.53 Q1887.61 1546.79 1885.92 1544.73 Q1884.25 1542.67 1884.25 1539.71 Q1884.25 1535.56 1887.19 1533.15 Q1890.15 1530.75 1895.29 1530.75 Q1900.46 1530.75 1903.4 1533.15 Q1906.33 1535.56 1906.33 1539.71 Q1906.33 1542.67 1904.65 1544.73 Q1902.98 1546.79 1899.99 1547.53 Q1903.37 1548.32 1905.25 1550.61 Q1907.15 1552.9 1907.15 1556.21 Q1907.15 1561.23 1904.07 1563.92 Q1901.01 1566.6 1895.29 1566.6 Q1889.58 1566.6 1886.5 1563.92 Q1883.44 1561.23 1883.44 1556.21 Q1883.44 1552.9 1885.34 1550.61 Q1887.24 1548.32 1890.62 1547.53 M1888.9 1540.14 Q1888.9 1542.83 1890.57 1544.33 Q1892.26 1545.84 1895.29 1545.84 Q1898.3 1545.84 1899.99 1544.33 Q1901.71 1542.83 1901.71 1540.14 Q1901.71 1537.46 1899.99 1535.96 Q1898.3 1534.45 1895.29 1534.45 Q1892.26 1534.45 1890.57 1535.96 Q1888.9 1537.46 1888.9 1540.14 Z" fill="#000000" fill-rule="evenodd" fill-opacity="1" /><path clip-path="url(#clip020)" d="M 0 0 M1925.46 1534.45 Q1921.84 1534.45 1920.02 1538.02 Q1918.21 1541.56 1918.21 1548.69 Q1918.21 1555.79 1920.02 1559.36 Q1921.84 1562.9 1925.46 1562.9 Q1929.09 1562.9 1930.89 1559.36 Q1932.72 1555.79 1932.72 1548.69 Q1932.72 1541.56 1930.89 1538.02 Q1929.09 1534.45 1925.46 1534.45 M1925.46 1530.75 Q1931.27 1530.75 1934.32 1535.35 Q1937.4 1539.94 1937.4 1548.69 Q1937.4 1557.41 1934.32 1562.02 Q1931.27 1566.6 1925.46 1566.6 Q1919.65 1566.6 1916.57 1562.02 Q1913.51 1557.41 1913.51 1548.69 Q1913.51 1539.94 1916.57 1535.35 Q1919.65 1530.75 1925.46 1530.75 Z" fill="#000000" fill-rule="evenodd" fill-opacity="1" /><path clip-path="url(#clip020)" d="M 0 0 M2113.02 1565.21 L2113.02 1560.96 Q2114.78 1561.79 2116.59 1562.23 Q2118.39 1562.67 2120.13 1562.67 Q2124.76 1562.67 2127.19 1559.57 Q2129.64 1556.44 2129.99 1550.1 Q2128.65 1552.09 2126.59 1553.15 Q2124.53 1554.22 2122.03 1554.22 Q2116.84 1554.22 2113.81 1551.09 Q2110.8 1547.95 2110.8 1542.51 Q2110.8 1537.18 2113.95 1533.96 Q2117.1 1530.75 2122.33 1530.75 Q2128.33 1530.75 2131.47 1535.35 Q2134.64 1539.94 2134.64 1548.69 Q2134.64 1556.86 2130.76 1561.74 Q2126.89 1566.6 2120.34 1566.6 Q2118.58 1566.6 2116.77 1566.26 Q2114.97 1565.91 2113.02 1565.21 M2122.33 1550.56 Q2125.48 1550.56 2127.31 1548.41 Q2129.16 1546.26 2129.16 1542.51 Q2129.16 1538.78 2127.31 1536.63 Q2125.48 1534.45 2122.33 1534.45 Q2119.18 1534.45 2117.33 1536.63 Q2115.5 1538.78 2115.5 1542.51 Q2115.5 1546.26 2117.33 1548.41 Q2119.18 1550.56 2122.33 1550.56 Z" fill="#000000" fill-rule="evenodd" fill-opacity="1" /><path clip-path="url(#clip020)" d="M 0 0 M2153.63 1546.79 Q2150.48 1546.79 2148.63 1548.94 Q2146.8 1551.09 2146.8 1554.84 Q2146.8 1558.57 2148.63 1560.75 Q2150.48 1562.9 2153.63 1562.9 Q2156.77 1562.9 2158.6 1560.75 Q2160.45 1558.57 2160.45 1554.84 Q2160.45 1551.09 2158.6 1548.94 Q2156.77 1546.79 2153.63 1546.79 M2162.91 1532.14 L2162.91 1536.39 Q2161.15 1535.56 2159.34 1535.12 Q2157.56 1534.68 2155.8 1534.68 Q2151.17 1534.68 2148.72 1537.81 Q2146.29 1540.93 2145.94 1547.25 Q2147.31 1545.24 2149.37 1544.17 Q2151.43 1543.08 2153.9 1543.08 Q2159.11 1543.08 2162.12 1546.26 Q2165.15 1549.4 2165.15 1554.84 Q2165.15 1560.17 2162.01 1563.39 Q2158.86 1566.6 2153.63 1566.6 Q2147.63 1566.6 2144.46 1562.02 Q2141.29 1557.41 2141.29 1548.69 Q2141.29 1540.49 2145.18 1535.63 Q2149.07 1530.75 2155.62 1530.75 Q2157.38 1530.75 2159.16 1531.09 Q2160.96 1531.44 2162.91 1532.14 Z" fill="#000000" fill-rule="evenodd" fill-opacity="1" /><path clip-path="url(#clip020)" d="M 0 0 M1078.3 1607.89 L1078.3 1625.74 L1086.38 1625.74 Q1090.87 1625.74 1093.32 1623.42 Q1095.77 1621.1 1095.77 1616.8 Q1095.77 1612.53 1093.32 1610.21 Q1090.87 1607.89 1086.38 1607.89 L1078.3 1607.89 M1071.87 1602.6 L1086.38 1602.6 Q1094.37 1602.6 1098.44 1606.23 Q1102.55 1609.83 1102.55 1616.8 Q1102.55 1623.83 1098.44 1627.43 Q1094.37 1631.03 1086.38 1631.03 L1078.3 1631.03 L1078.3 1650.12 L1071.87 1650.12 L1071.87 1602.6 Z" fill="#000000" fill-rule="evenodd" fill-opacity="1" /><path clip-path="url(#clip020)" d="M 0 0 M1130.43 1619.95 Q1129.45 1619.38 1128.27 1619.12 Q1127.12 1618.84 1125.72 1618.84 Q1120.76 1618.84 1118.08 1622.08 Q1115.44 1625.3 1115.44 1631.35 L1115.44 1650.12 L1109.55 1650.12 L1109.55 1614.48 L1115.44 1614.48 L1115.44 1620.01 Q1117.29 1616.77 1120.25 1615.21 Q1123.21 1613.62 1127.44 1613.62 Q1128.05 1613.62 1128.78 1613.71 Q1129.51 1613.78 1130.4 1613.93 L1130.43 1619.95 Z" fill="#000000" fill-rule="evenodd" fill-opacity="1" /><path clip-path="url(#clip020)" d="M 0 0 M1148.96 1618.58 Q1144.25 1618.58 1141.51 1622.27 Q1138.77 1625.93 1138.77 1632.33 Q1138.77 1638.73 1141.48 1642.42 Q1144.21 1646.08 1148.96 1646.08 Q1153.64 1646.08 1156.37 1642.39 Q1159.11 1638.7 1159.11 1632.33 Q1159.11 1626 1156.37 1622.31 Q1153.64 1618.58 1148.96 1618.58 M1148.96 1613.62 Q1156.6 1613.62 1160.96 1618.58 Q1165.32 1623.55 1165.32 1632.33 Q1165.32 1641.08 1160.96 1646.08 Q1156.6 1651.05 1148.96 1651.05 Q1141.29 1651.05 1136.93 1646.08 Q1132.6 1641.08 1132.6 1632.33 Q1132.6 1623.55 1136.93 1618.58 Q1141.29 1613.62 1148.96 1613.62 Z" fill="#000000" fill-rule="evenodd" fill-opacity="1" /><path clip-path="url(#clip020)" d="M 0 0 M1200.68 1615.84 L1200.68 1621.32 Q1198.2 1619.95 1195.68 1619.28 Q1193.2 1618.58 1190.65 1618.58 Q1184.95 1618.58 1181.8 1622.21 Q1178.65 1625.81 1178.65 1632.33 Q1178.65 1638.86 1181.8 1642.48 Q1184.95 1646.08 1190.65 1646.08 Q1193.2 1646.08 1195.68 1645.41 Q1198.2 1644.71 1200.68 1643.34 L1200.68 1648.76 Q1198.23 1649.9 1195.59 1650.47 Q1192.98 1651.05 1190.02 1651.05 Q1181.96 1651.05 1177.22 1645.99 Q1172.48 1640.93 1172.48 1632.33 Q1172.48 1623.61 1177.25 1618.61 Q1182.06 1613.62 1190.4 1613.62 Q1193.1 1613.62 1195.68 1614.19 Q1198.26 1614.73 1200.68 1615.84 Z" fill="#000000" fill-rule="evenodd" fill-opacity="1" /><path clip-path="url(#clip020)" d="M 0 0 M1241.35 1630.84 L1241.35 1633.7 L1214.43 1633.7 Q1214.81 1639.75 1218.06 1642.93 Q1221.33 1646.08 1227.16 1646.08 Q1230.53 1646.08 1233.68 1645.25 Q1236.87 1644.43 1239.99 1642.77 L1239.99 1648.31 Q1236.84 1649.65 1233.52 1650.35 Q1230.21 1651.05 1226.81 1651.05 Q1218.28 1651.05 1213.28 1646.08 Q1208.32 1641.12 1208.32 1632.65 Q1208.32 1623.9 1213.03 1618.77 Q1217.77 1613.62 1225.79 1613.62 Q1232.98 1613.62 1237.15 1618.26 Q1241.35 1622.88 1241.35 1630.84 M1235.5 1629.12 Q1235.43 1624.31 1232.79 1621.45 Q1230.18 1618.58 1225.85 1618.58 Q1220.95 1618.58 1217.99 1621.35 Q1215.06 1624.12 1214.62 1629.15 L1235.5 1629.12 Z" fill="#000000" fill-rule="evenodd" fill-opacity="1" /><path clip-path="url(#clip020)" d="M 0 0 M1273.69 1615.53 L1273.69 1621.06 Q1271.21 1619.79 1268.54 1619.15 Q1265.86 1618.52 1263 1618.52 Q1258.64 1618.52 1256.44 1619.85 Q1254.28 1621.19 1254.28 1623.87 Q1254.28 1625.9 1255.84 1627.08 Q1257.4 1628.23 1262.11 1629.28 L1264.11 1629.72 Q1270.35 1631.06 1272.96 1633.51 Q1275.6 1635.93 1275.6 1640.29 Q1275.6 1645.25 1271.66 1648.15 Q1267.74 1651.05 1260.87 1651.05 Q1258 1651.05 1254.88 1650.47 Q1251.79 1649.93 1248.36 1648.82 L1248.36 1642.77 Q1251.6 1644.46 1254.75 1645.32 Q1257.91 1646.15 1260.99 1646.15 Q1265.13 1646.15 1267.36 1644.74 Q1269.59 1643.31 1269.59 1640.73 Q1269.59 1638.35 1267.96 1637.07 Q1266.37 1635.8 1260.93 1634.62 L1258.89 1634.15 Q1253.45 1633 1251.03 1630.64 Q1248.61 1628.26 1248.61 1624.12 Q1248.61 1619.09 1252.18 1616.35 Q1255.74 1613.62 1262.3 1613.62 Q1265.54 1613.62 1268.41 1614.09 Q1271.27 1614.57 1273.69 1615.53 Z" fill="#000000" fill-rule="evenodd" fill-opacity="1" /><path clip-path="url(#clip020)" d="M 0 0 M1307.65 1615.53 L1307.65 1621.06 Q1305.17 1619.79 1302.5 1619.15 Q1299.82 1618.52 1296.96 1618.52 Q1292.6 1618.52 1290.4 1619.85 Q1288.24 1621.19 1288.24 1623.87 Q1288.24 1625.9 1289.8 1627.08 Q1291.36 1628.23 1296.07 1629.28 L1298.07 1629.72 Q1304.31 1631.06 1306.92 1633.51 Q1309.56 1635.93 1309.56 1640.29 Q1309.56 1645.25 1305.62 1648.15 Q1301.7 1651.05 1294.83 1651.05 Q1291.96 1651.05 1288.84 1650.47 Q1285.76 1649.93 1282.32 1648.82 L1282.32 1642.77 Q1285.56 1644.46 1288.72 1645.32 Q1291.87 1646.15 1294.95 1646.15 Q1299.09 1646.15 1301.32 1644.74 Q1303.55 1643.31 1303.55 1640.73 Q1303.55 1638.35 1301.92 1637.07 Q1300.33 1635.8 1294.89 1634.62 L1292.85 1634.15 Q1287.41 1633 1284.99 1630.64 Q1282.57 1628.26 1282.57 1624.12 Q1282.57 1619.09 1286.14 1616.35 Q1289.7 1613.62 1296.26 1613.62 Q1299.51 1613.62 1302.37 1614.09 Q1305.23 1614.57 1307.65 1615.53 Z" fill="#000000" fill-rule="evenodd" fill-opacity="1" /><path clip-path="url(#clip020)" d="M 0 0 M1349.38 1630.84 L1349.38 1633.7 L1322.45 1633.7 Q1322.84 1639.75 1326.08 1642.93 Q1329.36 1646.08 1335.19 1646.08 Q1338.56 1646.08 1341.71 1645.25 Q1344.89 1644.43 1348.01 1642.77 L1348.01 1648.31 Q1344.86 1649.65 1341.55 1650.35 Q1338.24 1651.05 1334.84 1651.05 Q1326.31 1651.05 1321.31 1646.08 Q1316.34 1641.12 1316.34 1632.65 Q1316.34 1623.9 1321.05 1618.77 Q1325.8 1613.62 1333.82 1613.62 Q1341.01 1613.62 1345.18 1618.26 Q1349.38 1622.88 1349.38 1630.84 M1343.52 1629.12 Q1343.46 1624.31 1340.82 1621.45 Q1338.21 1618.58 1333.88 1618.58 Q1328.98 1618.58 1326.02 1621.35 Q1323.09 1624.12 1322.64 1629.15 L1343.52 1629.12 Z" fill="#000000" fill-rule="evenodd" fill-opacity="1" /><path clip-path="url(#clip020)" d="M 0 0 M1381.72 1615.53 L1381.72 1621.06 Q1379.24 1619.79 1376.56 1619.15 Q1373.89 1618.52 1371.02 1618.52 Q1366.66 1618.52 1364.47 1619.85 Q1362.3 1621.19 1362.3 1623.87 Q1362.3 1625.9 1363.86 1627.08 Q1365.42 1628.23 1370.13 1629.28 L1372.14 1629.72 Q1378.38 1631.06 1380.99 1633.51 Q1383.63 1635.93 1383.63 1640.29 Q1383.63 1645.25 1379.68 1648.15 Q1375.77 1651.05 1368.89 1651.05 Q1366.03 1651.05 1362.91 1650.47 Q1359.82 1649.93 1356.38 1648.82 L1356.38 1642.77 Q1359.63 1644.46 1362.78 1645.32 Q1365.93 1646.15 1369.02 1646.15 Q1373.16 1646.15 1375.38 1644.74 Q1377.61 1643.31 1377.61 1640.73 Q1377.61 1638.35 1375.99 1637.07 Q1374.4 1635.8 1368.96 1634.62 L1366.92 1634.15 Q1361.48 1633 1359.06 1630.64 Q1356.64 1628.26 1356.64 1624.12 Q1356.64 1619.09 1360.2 1616.35 Q1363.77 1613.62 1370.32 1613.62 Q1373.57 1613.62 1376.44 1614.09 Q1379.3 1614.57 1381.72 1615.53 Z" fill="#000000" fill-rule="evenodd" fill-opacity="1" /><polyline clip-path="url(#clip022)" style="stroke:#000000; stroke-width:2; stroke-opacity:0.1; fill:none" points="
  102.74,1464 2352.76,1464 
  "/>
<polyline clip-path="url(#clip022)" style="stroke:#000000; stroke-width:2; stroke-opacity:0.1; fill:none" points="
  102.74,1257.45 2352.76,1257.45 
  "/>
<polyline clip-path="url(#clip022)" style="stroke:#000000; stroke-width:2; stroke-opacity:0.1; fill:none" points="
  102.74,1050.9 2352.76,1050.9 
  "/>
<polyline clip-path="url(#clip022)" style="stroke:#000000; stroke-width:2; stroke-opacity:0.1; fill:none" points="
  102.74,844.351 2352.76,844.351 
  "/>
<polyline clip-path="url(#clip022)" style="stroke:#000000; stroke-width:2; stroke-opacity:0.1; fill:none" points="
  102.74,637.803 2352.76,637.803 
  "/>
<polyline clip-path="url(#clip022)" style="stroke:#000000; stroke-width:2; stroke-opacity:0.1; fill:none" points="
  102.74,431.255 2352.76,431.255 
  "/>
<polyline clip-path="url(#clip022)" style="stroke:#000000; stroke-width:2; stroke-opacity:0.1; fill:none" points="
  102.74,224.707 2352.76,224.707 
  "/>
<polyline clip-path="url(#clip020)" style="stroke:#000000; stroke-width:4; stroke-opacity:1; fill:none" points="
  102.74,1505.26 102.74,47.2441 
  "/>
<polyline clip-path="url(#clip020)" style="stroke:#000000; stroke-width:4; stroke-opacity:1; fill:none" points="
  102.74,1464 129.74,1464 
  "/>
<polyline clip-path="url(#clip020)" style="stroke:#000000; stroke-width:4; stroke-opacity:1; fill:none" points="
  102.74,1257.45 129.74,1257.45 
  "/>
<polyline clip-path="url(#clip020)" style="stroke:#000000; stroke-width:4; stroke-opacity:1; fill:none" points="
  102.74,1050.9 129.74,1050.9 
  "/>
<polyline clip-path="url(#clip020)" style="stroke:#000000; stroke-width:4; stroke-opacity:1; fill:none" points="
  102.74,844.351 129.74,844.351 
  "/>
<polyline clip-path="url(#clip020)" style="stroke:#000000; stroke-width:4; stroke-opacity:1; fill:none" points="
  102.74,637.803 129.74,637.803 
  "/>
<polyline clip-path="url(#clip020)" style="stroke:#000000; stroke-width:4; stroke-opacity:1; fill:none" points="
  102.74,431.255 129.74,431.255 
  "/>
<polyline clip-path="url(#clip020)" style="stroke:#000000; stroke-width:4; stroke-opacity:1; fill:none" points="
  102.74,224.707 129.74,224.707 
  "/>
<path clip-path="url(#clip020)" d="M 0 0 M54.7958 1449.79 Q51.1847 1449.79 49.356 1453.36 Q47.5504 1456.9 47.5504 1464.03 Q47.5504 1471.14 49.356 1474.7 Q51.1847 1478.24 54.7958 1478.24 Q58.43 1478.24 60.2356 1474.7 Q62.0643 1471.14 62.0643 1464.03 Q62.0643 1456.9 60.2356 1453.36 Q58.43 1449.79 54.7958 1449.79 M54.7958 1446.09 Q60.6059 1446.09 63.6615 1450.7 Q66.7402 1455.28 66.7402 1464.03 Q66.7402 1472.76 63.6615 1477.36 Q60.6059 1481.95 54.7958 1481.95 Q48.9856 1481.95 45.9069 1477.36 Q42.8514 1472.76 42.8514 1464.03 Q42.8514 1455.28 45.9069 1450.7 Q48.9856 1446.09 54.7958 1446.09 Z" fill="#000000" fill-rule="evenodd" fill-opacity="1" /><path clip-path="url(#clip020)" d="M 0 0 M-147.078 1277.24 L-130.759 1277.24 L-130.759 1281.17 L-152.703 1281.17 L-152.703 1277.24 Q-150.041 1274.48 -145.458 1269.86 Q-140.851 1265.2 -139.671 1263.86 Q-137.425 1261.34 -136.546 1259.6 Q-135.643 1257.84 -135.643 1256.15 Q-135.643 1253.4 -137.587 1251.66 Q-139.509 1249.92 -142.611 1249.92 Q-144.81 1249.92 -147.263 1250.69 Q-149.694 1251.45 -152.472 1253 L-152.472 1248.28 Q-149.648 1247.15 -147.194 1246.57 Q-144.74 1245.99 -142.703 1245.99 Q-137.333 1245.99 -134.138 1248.67 Q-130.944 1251.36 -130.944 1255.85 Q-130.944 1257.98 -131.754 1259.9 Q-132.541 1261.8 -134.648 1264.39 Q-135.226 1265.06 -138.328 1268.28 Q-141.43 1271.48 -147.078 1277.24 Z" fill="#000000" fill-rule="evenodd" fill-opacity="1" /><path clip-path="url(#clip020)" d="M 0 0 M-120.944 1275.3 L-116.06 1275.3 L-116.06 1281.17 L-120.944 1281.17 L-120.944 1275.3 Z" fill="#000000" fill-rule="evenodd" fill-opacity="1" /><path clip-path="url(#clip020)" d="M 0 0 M-95.8747 1249.69 Q-99.4858 1249.69 -101.314 1253.26 Q-103.12 1256.8 -103.12 1263.93 Q-103.12 1271.04 -101.314 1274.6 Q-99.4858 1278.14 -95.8747 1278.14 Q-92.2405 1278.14 -90.4349 1274.6 Q-88.6062 1271.04 -88.6062 1263.93 Q-88.6062 1256.8 -90.4349 1253.26 Q-92.2405 1249.69 -95.8747 1249.69 M-95.8747 1245.99 Q-90.0646 1245.99 -87.009 1250.6 Q-83.9303 1255.18 -83.9303 1263.93 Q-83.9303 1272.66 -87.009 1277.26 Q-90.0646 1281.85 -95.8747 1281.85 Q-101.685 1281.85 -104.764 1277.26 Q-107.819 1272.66 -107.819 1263.93 Q-107.819 1255.18 -104.764 1250.6 Q-101.685 1245.99 -95.8747 1245.99 Z" fill="#000000" fill-rule="evenodd" fill-opacity="1" /><path clip-path="url(#clip020)" d="M 0 0 M-65.7128 1249.69 Q-69.3239 1249.69 -71.1526 1253.26 Q-72.9582 1256.8 -72.9582 1263.93 Q-72.9582 1271.04 -71.1526 1274.6 Q-69.3239 1278.14 -65.7128 1278.14 Q-62.0786 1278.14 -60.2731 1274.6 Q-58.4444 1271.04 -58.4444 1263.93 Q-58.4444 1256.8 -60.2731 1253.26 Q-62.0786 1249.69 -65.7128 1249.69 M-65.7128 1245.99 Q-59.9027 1245.99 -56.8471 1250.6 Q-53.7685 1255.18 -53.7685 1263.93 Q-53.7685 1272.66 -56.8471 1277.26 Q-59.9027 1281.85 -65.7128 1281.85 Q-71.523 1281.85 -74.6017 1277.26 Q-77.6572 1272.66 -77.6572 1263.93 Q-77.6572 1255.18 -74.6017 1250.6 Q-71.523 1245.99 -65.7128 1245.99 Z" fill="#000000" fill-rule="evenodd" fill-opacity="1" /><path clip-path="url(#clip020)" d="M 0 0 M-17.3798 1255.71 L-27.9584 1266.34 L-17.3798 1276.92 L-20.1344 1279.72 L-30.7593 1269.09 L-41.3843 1279.72 L-44.1157 1276.92 L-33.5602 1266.34 L-44.1157 1255.71 L-41.3843 1252.91 L-30.7593 1263.54 L-20.1344 1252.91 L-17.3798 1255.71 Z" fill="#000000" fill-rule="evenodd" fill-opacity="1" /><path clip-path="url(#clip020)" d="M 0 0 M-5.01872 1277.24 L2.62013 1277.24 L2.62013 1250.87 L-5.69001 1252.54 L-5.69001 1248.28 L2.57383 1246.61 L7.24974 1246.61 L7.24974 1277.24 L14.8886 1277.24 L14.8886 1281.17 L-5.01872 1281.17 L-5.01872 1277.24 Z" fill="#000000" fill-rule="evenodd" fill-opacity="1" /><path clip-path="url(#clip020)" d="M 0 0 M34.3329 1249.69 Q30.7218 1249.69 28.8931 1253.26 Q27.0876 1256.8 27.0876 1263.93 Q27.0876 1271.04 28.8931 1274.6 Q30.7218 1278.14 34.3329 1278.14 Q37.9672 1278.14 39.7727 1274.6 Q41.6014 1271.04 41.6014 1263.93 Q41.6014 1256.8 39.7727 1253.26 Q37.9672 1249.69 34.3329 1249.69 M34.3329 1245.99 Q40.1431 1245.99 43.1986 1250.6 Q46.2773 1255.18 46.2773 1263.93 Q46.2773 1272.66 43.1986 1277.26 Q40.1431 1281.85 34.3329 1281.85 Q28.5228 1281.85 25.4441 1277.26 Q22.3885 1272.66 22.3885 1263.93 Q22.3885 1255.18 25.4441 1250.6 Q28.5228 1245.99 34.3329 1245.99 Z" fill="#000000" fill-rule="evenodd" fill-opacity="1" /><path clip-path="url(#clip020)" d="M 0 0 M58.9537 1228.99 L49.3618 1243.98 L58.9537 1243.98 L58.9537 1228.99 M57.9569 1225.68 L62.7341 1225.68 L62.7341 1243.98 L66.7402 1243.98 L66.7402 1247.14 L62.7341 1247.14 L62.7341 1253.76 L58.9537 1253.76 L58.9537 1247.14 L46.2773 1247.14 L46.2773 1243.48 L57.9569 1225.68 Z" fill="#000000" fill-rule="evenodd" fill-opacity="1" /><path clip-path="url(#clip020)" d="M 0 0 M-138.259 1044.14 L-150.064 1062.59 L-138.259 1062.59 L-138.259 1044.14 M-139.486 1040.07 L-133.606 1040.07 L-133.606 1062.59 L-128.675 1062.59 L-128.675 1066.48 L-133.606 1066.48 L-133.606 1074.63 L-138.259 1074.63 L-138.259 1066.48 L-153.861 1066.48 L-153.861 1061.96 L-139.486 1040.07 Z" fill="#000000" fill-rule="evenodd" fill-opacity="1" /><path clip-path="url(#clip020)" d="M 0 0 M-120.944 1068.75 L-116.06 1068.75 L-116.06 1074.63 L-120.944 1074.63 L-120.944 1068.75 Z" fill="#000000" fill-rule="evenodd" fill-opacity="1" /><path clip-path="url(#clip020)" d="M 0 0 M-95.8747 1043.15 Q-99.4858 1043.15 -101.314 1046.71 Q-103.12 1050.25 -103.12 1057.38 Q-103.12 1064.49 -101.314 1068.05 Q-99.4858 1071.59 -95.8747 1071.59 Q-92.2405 1071.59 -90.4349 1068.05 Q-88.6062 1064.49 -88.6062 1057.38 Q-88.6062 1050.25 -90.4349 1046.71 Q-92.2405 1043.15 -95.8747 1043.15 M-95.8747 1039.44 Q-90.0646 1039.44 -87.009 1044.05 Q-83.9303 1048.63 -83.9303 1057.38 Q-83.9303 1066.11 -87.009 1070.71 Q-90.0646 1075.3 -95.8747 1075.3 Q-101.685 1075.3 -104.764 1070.71 Q-107.819 1066.11 -107.819 1057.38 Q-107.819 1048.63 -104.764 1044.05 Q-101.685 1039.44 -95.8747 1039.44 Z" fill="#000000" fill-rule="evenodd" fill-opacity="1" /><path clip-path="url(#clip020)" d="M 0 0 M-65.7128 1043.15 Q-69.3239 1043.15 -71.1526 1046.71 Q-72.9582 1050.25 -72.9582 1057.38 Q-72.9582 1064.49 -71.1526 1068.05 Q-69.3239 1071.59 -65.7128 1071.59 Q-62.0786 1071.59 -60.2731 1068.05 Q-58.4444 1064.49 -58.4444 1057.38 Q-58.4444 1050.25 -60.2731 1046.71 Q-62.0786 1043.15 -65.7128 1043.15 M-65.7128 1039.44 Q-59.9027 1039.44 -56.8471 1044.05 Q-53.7685 1048.63 -53.7685 1057.38 Q-53.7685 1066.11 -56.8471 1070.71 Q-59.9027 1075.3 -65.7128 1075.3 Q-71.523 1075.3 -74.6017 1070.71 Q-77.6572 1066.11 -77.6572 1057.38 Q-77.6572 1048.63 -74.6017 1044.05 Q-71.523 1039.44 -65.7128 1039.44 Z" fill="#000000" fill-rule="evenodd" fill-opacity="1" /><path clip-path="url(#clip020)" d="M 0 0 M-17.3798 1049.16 L-27.9584 1059.79 L-17.3798 1070.37 L-20.1344 1073.17 L-30.7593 1062.54 L-41.3843 1073.17 L-44.1157 1070.37 L-33.5602 1059.79 L-44.1157 1049.16 L-41.3843 1046.36 L-30.7593 1056.99 L-20.1344 1046.36 L-17.3798 1049.16 Z" fill="#000000" fill-rule="evenodd" fill-opacity="1" /><path clip-path="url(#clip020)" d="M 0 0 M-5.01872 1070.69 L2.62013 1070.69 L2.62013 1044.33 L-5.69001 1045.99 L-5.69001 1041.73 L2.57383 1040.07 L7.24974 1040.07 L7.24974 1070.69 L14.8886 1070.69 L14.8886 1074.63 L-5.01872 1074.63 L-5.01872 1070.69 Z" fill="#000000" fill-rule="evenodd" fill-opacity="1" /><path clip-path="url(#clip020)" d="M 0 0 M34.3329 1043.15 Q30.7218 1043.15 28.8931 1046.71 Q27.0876 1050.25 27.0876 1057.38 Q27.0876 1064.49 28.8931 1068.05 Q30.7218 1071.59 34.3329 1071.59 Q37.9672 1071.59 39.7727 1068.05 Q41.6014 1064.49 41.6014 1057.38 Q41.6014 1050.25 39.7727 1046.71 Q37.9672 1043.15 34.3329 1043.15 M34.3329 1039.44 Q40.1431 1039.44 43.1986 1044.05 Q46.2773 1048.63 46.2773 1057.38 Q46.2773 1066.11 43.1986 1070.71 Q40.1431 1075.3 34.3329 1075.3 Q28.5228 1075.3 25.4441 1070.71 Q22.3885 1066.11 22.3885 1057.38 Q22.3885 1048.63 25.4441 1044.05 Q28.5228 1039.44 34.3329 1039.44 Z" fill="#000000" fill-rule="evenodd" fill-opacity="1" /><path clip-path="url(#clip020)" d="M 0 0 M58.9537 1022.45 L49.3618 1037.44 L58.9537 1037.44 L58.9537 1022.45 M57.9569 1019.14 L62.7341 1019.14 L62.7341 1037.44 L66.7402 1037.44 L66.7402 1040.6 L62.7341 1040.6 L62.7341 1047.22 L58.9537 1047.22 L58.9537 1040.6 L46.2773 1040.6 L46.2773 1036.93 L57.9569 1019.14 Z" fill="#000000" fill-rule="evenodd" fill-opacity="1" /><path clip-path="url(#clip020)" d="M 0 0 M-140.527 848.935 Q-143.675 848.935 -145.527 851.088 Q-147.356 853.241 -147.356 856.991 Q-147.356 860.717 -145.527 862.893 Q-143.675 865.046 -140.527 865.046 Q-137.379 865.046 -135.55 862.893 Q-133.699 860.717 -133.699 856.991 Q-133.699 853.241 -135.55 851.088 Q-137.379 848.935 -140.527 848.935 M-131.245 834.282 L-131.245 838.542 Q-133.004 837.708 -134.81 837.268 Q-136.592 836.829 -138.351 836.829 Q-142.981 836.829 -145.435 839.954 Q-147.865 843.079 -148.212 849.398 Q-146.847 847.384 -144.786 846.319 Q-142.726 845.231 -140.249 845.231 Q-135.041 845.231 -132.032 848.403 Q-129 851.551 -129 856.991 Q-129 862.315 -132.148 865.532 Q-135.296 868.75 -140.527 868.75 Q-146.523 868.75 -149.694 864.166 Q-152.865 859.56 -152.865 850.833 Q-152.865 842.639 -148.976 837.778 Q-145.087 832.893 -138.537 832.893 Q-136.777 832.893 -134.995 833.241 Q-133.189 833.588 -131.245 834.282 Z" fill="#000000" fill-rule="evenodd" fill-opacity="1" /><path clip-path="url(#clip020)" d="M 0 0 M-120.944 862.199 L-116.06 862.199 L-116.06 868.078 L-120.944 868.078 L-120.944 862.199 Z" fill="#000000" fill-rule="evenodd" fill-opacity="1" /><path clip-path="url(#clip020)" d="M 0 0 M-95.8747 836.597 Q-99.4858 836.597 -101.314 840.162 Q-103.12 843.704 -103.12 850.833 Q-103.12 857.94 -101.314 861.504 Q-99.4858 865.046 -95.8747 865.046 Q-92.2405 865.046 -90.4349 861.504 Q-88.6062 857.94 -88.6062 850.833 Q-88.6062 843.704 -90.4349 840.162 Q-92.2405 836.597 -95.8747 836.597 M-95.8747 832.893 Q-90.0646 832.893 -87.009 837.5 Q-83.9303 842.083 -83.9303 850.833 Q-83.9303 859.56 -87.009 864.166 Q-90.0646 868.75 -95.8747 868.75 Q-101.685 868.75 -104.764 864.166 Q-107.819 859.56 -107.819 850.833 Q-107.819 842.083 -104.764 837.5 Q-101.685 832.893 -95.8747 832.893 Z" fill="#000000" fill-rule="evenodd" fill-opacity="1" /><path clip-path="url(#clip020)" d="M 0 0 M-65.7128 836.597 Q-69.3239 836.597 -71.1526 840.162 Q-72.9582 843.704 -72.9582 850.833 Q-72.9582 857.94 -71.1526 861.504 Q-69.3239 865.046 -65.7128 865.046 Q-62.0786 865.046 -60.2731 861.504 Q-58.4444 857.94 -58.4444 850.833 Q-58.4444 843.704 -60.2731 840.162 Q-62.0786 836.597 -65.7128 836.597 M-65.7128 832.893 Q-59.9027 832.893 -56.8471 837.5 Q-53.7685 842.083 -53.7685 850.833 Q-53.7685 859.56 -56.8471 864.166 Q-59.9027 868.75 -65.7128 868.75 Q-71.523 868.75 -74.6017 864.166 Q-77.6572 859.56 -77.6572 850.833 Q-77.6572 842.083 -74.6017 837.5 Q-71.523 832.893 -65.7128 832.893 Z" fill="#000000" fill-rule="evenodd" fill-opacity="1" /><path clip-path="url(#clip020)" d="M 0 0 M-17.3798 842.616 L-27.9584 853.241 L-17.3798 863.819 L-20.1344 866.62 L-30.7593 855.995 L-41.3843 866.62 L-44.1157 863.819 L-33.5602 853.241 L-44.1157 842.616 L-41.3843 839.815 L-30.7593 850.44 L-20.1344 839.815 L-17.3798 842.616 Z" fill="#000000" fill-rule="evenodd" fill-opacity="1" /><path clip-path="url(#clip020)" d="M 0 0 M-5.01872 864.143 L2.62013 864.143 L2.62013 837.778 L-5.69001 839.444 L-5.69001 835.185 L2.57383 833.518 L7.24974 833.518 L7.24974 864.143 L14.8886 864.143 L14.8886 868.078 L-5.01872 868.078 L-5.01872 864.143 Z" fill="#000000" fill-rule="evenodd" fill-opacity="1" /><path clip-path="url(#clip020)" d="M 0 0 M34.3329 836.597 Q30.7218 836.597 28.8931 840.162 Q27.0876 843.704 27.0876 850.833 Q27.0876 857.94 28.8931 861.504 Q30.7218 865.046 34.3329 865.046 Q37.9672 865.046 39.7727 861.504 Q41.6014 857.94 41.6014 850.833 Q41.6014 843.704 39.7727 840.162 Q37.9672 836.597 34.3329 836.597 M34.3329 832.893 Q40.1431 832.893 43.1986 837.5 Q46.2773 842.083 46.2773 850.833 Q46.2773 859.56 43.1986 864.166 Q40.1431 868.75 34.3329 868.75 Q28.5228 868.75 25.4441 864.166 Q22.3885 859.56 22.3885 850.833 Q22.3885 842.083 25.4441 837.5 Q28.5228 832.893 34.3329 832.893 Z" fill="#000000" fill-rule="evenodd" fill-opacity="1" /><path clip-path="url(#clip020)" d="M 0 0 M58.9537 815.898 L49.3618 830.888 L58.9537 830.888 L58.9537 815.898 M57.9569 812.588 L62.7341 812.588 L62.7341 830.888 L66.7402 830.888 L66.7402 834.048 L62.7341 834.048 L62.7341 840.668 L58.9537 840.668 L58.9537 834.048 L46.2773 834.048 L46.2773 830.38 L57.9569 812.588 Z" fill="#000000" fill-rule="evenodd" fill-opacity="1" /><path clip-path="url(#clip020)" d="M 0 0 M-141.106 645.118 Q-144.439 645.118 -146.361 646.901 Q-148.259 648.683 -148.259 651.808 Q-148.259 654.933 -146.361 656.716 Q-144.439 658.498 -141.106 658.498 Q-137.773 658.498 -135.851 656.716 Q-133.93 654.91 -133.93 651.808 Q-133.93 648.683 -135.851 646.901 Q-137.749 645.118 -141.106 645.118 M-145.782 643.128 Q-148.791 642.387 -150.481 640.327 Q-152.148 638.267 -152.148 635.304 Q-152.148 631.16 -149.208 628.753 Q-146.245 626.345 -141.106 626.345 Q-135.944 626.345 -133.004 628.753 Q-130.064 631.16 -130.064 635.304 Q-130.064 638.267 -131.754 640.327 Q-133.421 642.387 -136.407 643.128 Q-133.027 643.915 -131.152 646.206 Q-129.254 648.498 -129.254 651.808 Q-129.254 656.831 -132.333 659.516 Q-135.388 662.202 -141.106 662.202 Q-146.824 662.202 -149.902 659.516 Q-152.958 656.831 -152.958 651.808 Q-152.958 648.498 -151.06 646.206 Q-149.161 643.915 -145.782 643.128 M-147.495 635.743 Q-147.495 638.429 -145.828 639.933 Q-144.138 641.438 -141.106 641.438 Q-138.097 641.438 -136.407 639.933 Q-134.694 638.429 -134.694 635.743 Q-134.694 633.058 -136.407 631.554 Q-138.097 630.049 -141.106 630.049 Q-144.138 630.049 -145.828 631.554 Q-147.495 633.058 -147.495 635.743 Z" fill="#000000" fill-rule="evenodd" fill-opacity="1" /><path clip-path="url(#clip020)" d="M 0 0 M-120.944 655.651 L-116.06 655.651 L-116.06 661.53 L-120.944 661.53 L-120.944 655.651 Z" fill="#000000" fill-rule="evenodd" fill-opacity="1" /><path clip-path="url(#clip020)" d="M 0 0 M-95.8747 630.049 Q-99.4858 630.049 -101.314 633.614 Q-103.12 637.155 -103.12 644.285 Q-103.12 651.392 -101.314 654.956 Q-99.4858 658.498 -95.8747 658.498 Q-92.2405 658.498 -90.4349 654.956 Q-88.6062 651.392 -88.6062 644.285 Q-88.6062 637.155 -90.4349 633.614 Q-92.2405 630.049 -95.8747 630.049 M-95.8747 626.345 Q-90.0646 626.345 -87.009 630.952 Q-83.9303 635.535 -83.9303 644.285 Q-83.9303 653.012 -87.009 657.618 Q-90.0646 662.202 -95.8747 662.202 Q-101.685 662.202 -104.764 657.618 Q-107.819 653.012 -107.819 644.285 Q-107.819 635.535 -104.764 630.952 Q-101.685 626.345 -95.8747 626.345 Z" fill="#000000" fill-rule="evenodd" fill-opacity="1" /><path clip-path="url(#clip020)" d="M 0 0 M-65.7128 630.049 Q-69.3239 630.049 -71.1526 633.614 Q-72.9582 637.155 -72.9582 644.285 Q-72.9582 651.392 -71.1526 654.956 Q-69.3239 658.498 -65.7128 658.498 Q-62.0786 658.498 -60.2731 654.956 Q-58.4444 651.392 -58.4444 644.285 Q-58.4444 637.155 -60.2731 633.614 Q-62.0786 630.049 -65.7128 630.049 M-65.7128 626.345 Q-59.9027 626.345 -56.8471 630.952 Q-53.7685 635.535 -53.7685 644.285 Q-53.7685 653.012 -56.8471 657.618 Q-59.9027 662.202 -65.7128 662.202 Q-71.523 662.202 -74.6017 657.618 Q-77.6572 653.012 -77.6572 644.285 Q-77.6572 635.535 -74.6017 630.952 Q-71.523 626.345 -65.7128 626.345 Z" fill="#000000" fill-rule="evenodd" fill-opacity="1" /><path clip-path="url(#clip020)" d="M 0 0 M-17.3798 636.068 L-27.9584 646.692 L-17.3798 657.271 L-20.1344 660.072 L-30.7593 649.447 L-41.3843 660.072 L-44.1157 657.271 L-33.5602 646.692 L-44.1157 636.068 L-41.3843 633.267 L-30.7593 643.892 L-20.1344 633.267 L-17.3798 636.068 Z" fill="#000000" fill-rule="evenodd" fill-opacity="1" /><path clip-path="url(#clip020)" d="M 0 0 M-5.01872 657.595 L2.62013 657.595 L2.62013 631.23 L-5.69001 632.896 L-5.69001 628.637 L2.57383 626.97 L7.24974 626.97 L7.24974 657.595 L14.8886 657.595 L14.8886 661.53 L-5.01872 661.53 L-5.01872 657.595 Z" fill="#000000" fill-rule="evenodd" fill-opacity="1" /><path clip-path="url(#clip020)" d="M 0 0 M34.3329 630.049 Q30.7218 630.049 28.8931 633.614 Q27.0876 637.155 27.0876 644.285 Q27.0876 651.392 28.8931 654.956 Q30.7218 658.498 34.3329 658.498 Q37.9672 658.498 39.7727 654.956 Q41.6014 651.392 41.6014 644.285 Q41.6014 637.155 39.7727 633.614 Q37.9672 630.049 34.3329 630.049 M34.3329 626.345 Q40.1431 626.345 43.1986 630.952 Q46.2773 635.535 46.2773 644.285 Q46.2773 653.012 43.1986 657.618 Q40.1431 662.202 34.3329 662.202 Q28.5228 662.202 25.4441 657.618 Q22.3885 653.012 22.3885 644.285 Q22.3885 635.535 25.4441 630.952 Q28.5228 626.345 34.3329 626.345 Z" fill="#000000" fill-rule="evenodd" fill-opacity="1" /><path clip-path="url(#clip020)" d="M 0 0 M58.9537 609.35 L49.3618 624.34 L58.9537 624.34 L58.9537 609.35 M57.9569 606.04 L62.7341 606.04 L62.7341 624.34 L66.7402 624.34 L66.7402 627.5 L62.7341 627.5 L62.7341 634.12 L58.9537 634.12 L58.9537 627.5 L46.2773 627.5 L46.2773 623.832 L57.9569 606.04 Z" fill="#000000" fill-rule="evenodd" fill-opacity="1" /><path clip-path="url(#clip020)" d="M 0 0 M-148.001 451.047 L-140.362 451.047 L-140.362 424.681 L-148.672 426.348 L-148.672 422.089 L-140.409 420.422 L-135.733 420.422 L-135.733 451.047 L-128.094 451.047 L-128.094 454.982 L-148.001 454.982 L-148.001 451.047 Z" fill="#000000" fill-rule="evenodd" fill-opacity="1" /><path clip-path="url(#clip020)" d="M 0 0 M-118.649 449.103 L-113.765 449.103 L-113.765 454.982 L-118.649 454.982 L-118.649 449.103 Z" fill="#000000" fill-rule="evenodd" fill-opacity="1" /><path clip-path="url(#clip020)" d="M 0 0 M-93.5802 423.501 Q-97.1913 423.501 -99.0199 427.066 Q-100.825 430.607 -100.825 437.737 Q-100.825 444.843 -99.0199 448.408 Q-97.1913 451.95 -93.5802 451.95 Q-89.9459 451.95 -88.1404 448.408 Q-86.3117 444.843 -86.3117 437.737 Q-86.3117 430.607 -88.1404 427.066 Q-89.9459 423.501 -93.5802 423.501 M-93.5802 419.797 Q-87.77 419.797 -84.7145 424.404 Q-81.6358 428.987 -81.6358 437.737 Q-81.6358 446.464 -84.7145 451.07 Q-87.77 455.654 -93.5802 455.654 Q-99.3903 455.654 -102.469 451.07 Q-105.525 446.464 -105.525 437.737 Q-105.525 428.987 -102.469 424.404 Q-99.3903 419.797 -93.5802 419.797 Z" fill="#000000" fill-rule="evenodd" fill-opacity="1" /><path clip-path="url(#clip020)" d="M 0 0 M-63.4183 423.501 Q-67.0294 423.501 -68.8581 427.066 Q-70.6636 430.607 -70.6636 437.737 Q-70.6636 444.843 -68.8581 448.408 Q-67.0294 451.95 -63.4183 451.95 Q-59.784 451.95 -57.9785 448.408 Q-56.1498 444.843 -56.1498 437.737 Q-56.1498 430.607 -57.9785 427.066 Q-59.784 423.501 -63.4183 423.501 M-63.4183 419.797 Q-57.6081 419.797 -54.5526 424.404 Q-51.4739 428.987 -51.4739 437.737 Q-51.4739 446.464 -54.5526 451.07 Q-57.6081 455.654 -63.4183 455.654 Q-69.2284 455.654 -72.3071 451.07 Q-75.3627 446.464 -75.3627 437.737 Q-75.3627 428.987 -72.3071 424.404 Q-69.2284 419.797 -63.4183 419.797 Z" fill="#000000" fill-rule="evenodd" fill-opacity="1" /><path clip-path="url(#clip020)" d="M 0 0 M-15.0852 429.519 L-25.6639 440.144 L-15.0852 450.723 L-17.8398 453.524 L-28.4648 442.899 L-39.0897 453.524 L-41.8212 450.723 L-31.2657 440.144 L-41.8212 429.519 L-39.0897 426.719 L-28.4648 437.343 L-17.8398 426.719 L-15.0852 429.519 Z" fill="#000000" fill-rule="evenodd" fill-opacity="1" /><path clip-path="url(#clip020)" d="M 0 0 M-2.72417 451.047 L4.91468 451.047 L4.91468 424.681 L-3.39546 426.348 L-3.39546 422.089 L4.86838 420.422 L9.54428 420.422 L9.54428 451.047 L17.1831 451.047 L17.1831 454.982 L-2.72417 454.982 L-2.72417 451.047 Z" fill="#000000" fill-rule="evenodd" fill-opacity="1" /><path clip-path="url(#clip020)" d="M 0 0 M36.6275 423.501 Q33.0164 423.501 31.1877 427.066 Q29.3821 430.607 29.3821 437.737 Q29.3821 444.843 31.1877 448.408 Q33.0164 451.95 36.6275 451.95 Q40.2617 451.95 42.0673 448.408 Q43.896 444.843 43.896 437.737 Q43.896 430.607 42.0673 427.066 Q40.2617 423.501 36.6275 423.501 M36.6275 419.797 Q42.4376 419.797 45.4932 424.404 Q48.5719 428.987 48.5719 437.737 Q48.5719 446.464 45.4932 451.07 Q42.4376 455.654 36.6275 455.654 Q30.8173 455.654 27.7386 451.07 Q24.6831 446.464 24.6831 437.737 Q24.6831 428.987 27.7386 424.404 Q30.8173 419.797 36.6275 419.797 Z" fill="#000000" fill-rule="evenodd" fill-opacity="1" /><path clip-path="url(#clip020)" d="M 0 0 M49.7567 399.492 L64.6713 399.492 L64.6713 402.689 L53.2362 402.689 L53.2362 409.573 Q54.0637 409.291 54.8913 409.159 Q55.7188 409.009 56.5463 409.009 Q61.2483 409.009 63.9942 411.585 Q66.7402 414.162 66.7402 418.563 Q66.7402 423.096 63.919 425.616 Q61.0978 428.117 55.9633 428.117 Q54.1954 428.117 52.3522 427.816 Q50.5279 427.515 48.5719 426.914 L48.5719 423.096 Q50.2646 424.017 52.0701 424.469 Q53.8756 424.92 55.8881 424.92 Q59.1418 424.92 61.0414 423.208 Q62.941 421.497 62.941 418.563 Q62.941 415.629 61.0414 413.917 Q59.1418 412.206 55.8881 412.206 Q54.3646 412.206 52.8412 412.544 Q51.3366 412.883 49.7567 413.598 L49.7567 399.492 Z" fill="#000000" fill-rule="evenodd" fill-opacity="1" /><path clip-path="url(#clip020)" d="M 0 0 M-148.001 244.499 L-140.362 244.499 L-140.362 218.133 L-148.672 219.8 L-148.672 215.541 L-140.409 213.874 L-135.733 213.874 L-135.733 244.499 L-128.094 244.499 L-128.094 248.434 L-148.001 248.434 L-148.001 244.499 Z" fill="#000000" fill-rule="evenodd" fill-opacity="1" /><path clip-path="url(#clip020)" d="M 0 0 M-118.649 242.555 L-113.765 242.555 L-113.765 248.434 L-118.649 248.434 L-118.649 242.555 Z" fill="#000000" fill-rule="evenodd" fill-opacity="1" /><path clip-path="url(#clip020)" d="M 0 0 M-99.5524 244.499 L-83.233 244.499 L-83.233 248.434 L-105.177 248.434 L-105.177 244.499 Q-102.515 241.744 -97.932 237.115 Q-93.3255 232.462 -92.145 231.119 Q-89.8996 228.596 -89.02 226.86 Q-88.1172 225.101 -88.1172 223.411 Q-88.1172 220.656 -90.0617 218.92 Q-91.983 217.184 -95.0848 217.184 Q-97.2838 217.184 -99.7375 217.948 Q-102.168 218.712 -104.946 220.263 L-104.946 215.541 Q-102.122 214.407 -99.6681 213.828 Q-97.2144 213.249 -95.1774 213.249 Q-89.807 213.249 -86.6126 215.934 Q-83.4182 218.619 -83.4182 223.11 Q-83.4182 225.24 -84.2284 227.161 Q-85.0154 229.059 -87.1219 231.652 Q-87.7006 232.323 -90.8024 235.541 Q-93.9042 238.735 -99.5524 244.499 Z" fill="#000000" fill-rule="evenodd" fill-opacity="1" /><path clip-path="url(#clip020)" d="M 0 0 M-63.4183 216.953 Q-67.0294 216.953 -68.8581 220.518 Q-70.6636 224.059 -70.6636 231.189 Q-70.6636 238.295 -68.8581 241.86 Q-67.0294 245.402 -63.4183 245.402 Q-59.784 245.402 -57.9785 241.86 Q-56.1498 238.295 -56.1498 231.189 Q-56.1498 224.059 -57.9785 220.518 Q-59.784 216.953 -63.4183 216.953 M-63.4183 213.249 Q-57.6081 213.249 -54.5526 217.856 Q-51.4739 222.439 -51.4739 231.189 Q-51.4739 239.916 -54.5526 244.522 Q-57.6081 249.105 -63.4183 249.105 Q-69.2284 249.105 -72.3071 244.522 Q-75.3627 239.916 -75.3627 231.189 Q-75.3627 222.439 -72.3071 217.856 Q-69.2284 213.249 -63.4183 213.249 Z" fill="#000000" fill-rule="evenodd" fill-opacity="1" /><path clip-path="url(#clip020)" d="M 0 0 M-15.0852 222.971 L-25.6639 233.596 L-15.0852 244.175 L-17.8398 246.976 L-28.4648 236.351 L-39.0897 246.976 L-41.8212 244.175 L-31.2657 233.596 L-41.8212 222.971 L-39.0897 220.17 L-28.4648 230.795 L-17.8398 220.17 L-15.0852 222.971 Z" fill="#000000" fill-rule="evenodd" fill-opacity="1" /><path clip-path="url(#clip020)" d="M 0 0 M-2.72417 244.499 L4.91468 244.499 L4.91468 218.133 L-3.39546 219.8 L-3.39546 215.541 L4.86838 213.874 L9.54428 213.874 L9.54428 244.499 L17.1831 244.499 L17.1831 248.434 L-2.72417 248.434 L-2.72417 244.499 Z" fill="#000000" fill-rule="evenodd" fill-opacity="1" /><path clip-path="url(#clip020)" d="M 0 0 M36.6275 216.953 Q33.0164 216.953 31.1877 220.518 Q29.3821 224.059 29.3821 231.189 Q29.3821 238.295 31.1877 241.86 Q33.0164 245.402 36.6275 245.402 Q40.2617 245.402 42.0673 241.86 Q43.896 238.295 43.896 231.189 Q43.896 224.059 42.0673 220.518 Q40.2617 216.953 36.6275 216.953 M36.6275 213.249 Q42.4376 213.249 45.4932 217.856 Q48.5719 222.439 48.5719 231.189 Q48.5719 239.916 45.4932 244.522 Q42.4376 249.105 36.6275 249.105 Q30.8173 249.105 27.7386 244.522 Q24.6831 239.916 24.6831 231.189 Q24.6831 222.439 27.7386 217.856 Q30.8173 213.249 36.6275 213.249 Z" fill="#000000" fill-rule="evenodd" fill-opacity="1" /><path clip-path="url(#clip020)" d="M 0 0 M49.7567 192.944 L64.6713 192.944 L64.6713 196.141 L53.2362 196.141 L53.2362 203.025 Q54.0637 202.743 54.8913 202.611 Q55.7188 202.46 56.5463 202.46 Q61.2483 202.46 63.9942 205.037 Q66.7402 207.614 66.7402 212.015 Q66.7402 216.547 63.919 219.068 Q61.0978 221.569 55.9633 221.569 Q54.1954 221.569 52.3522 221.268 Q50.5279 220.967 48.5719 220.365 L48.5719 216.547 Q50.2646 217.469 52.0701 217.92 Q53.8756 218.372 55.8881 218.372 Q59.1418 218.372 61.0414 216.66 Q62.941 214.949 62.941 212.015 Q62.941 209.081 61.0414 207.369 Q59.1418 205.658 55.8881 205.658 Q54.3646 205.658 52.8412 205.996 Q51.3366 206.335 49.7567 207.05 L49.7567 192.944 Z" fill="#000000" fill-rule="evenodd" fill-opacity="1" /><path clip-path="url(#clip020)" d="M 0 0 M-251.637 906.081 L-251.637 865.881 L-246.226 865.881 L-246.226 882.75 L-204.117 882.75 L-204.117 889.211 L-246.226 889.211 L-246.226 906.081 L-251.637 906.081 Z" fill="#000000" fill-rule="evenodd" fill-opacity="1" /><path clip-path="url(#clip020)" d="M 0 0 M-239.764 861.934 L-239.764 856.078 L-204.117 856.078 L-204.117 861.934 L-239.764 861.934 M-253.642 861.934 L-253.642 856.078 L-246.226 856.078 L-246.226 861.934 L-253.642 861.934 Z" fill="#000000" fill-rule="evenodd" fill-opacity="1" /><path clip-path="url(#clip020)" d="M 0 0 M-232.921 816.069 Q-236.868 813.873 -238.746 810.818 Q-240.624 807.762 -240.624 803.625 Q-240.624 798.055 -236.709 795.031 Q-232.826 792.007 -225.633 792.007 L-204.117 792.007 L-204.117 797.895 L-225.442 797.895 Q-230.566 797.895 -233.049 799.71 Q-235.531 801.524 -235.531 805.248 Q-235.531 809.799 -232.508 812.441 Q-229.484 815.083 -224.264 815.083 L-204.117 815.083 L-204.117 820.971 L-225.442 820.971 Q-230.598 820.971 -233.049 822.785 Q-235.531 824.6 -235.531 828.387 Q-235.531 832.875 -232.476 835.517 Q-229.452 838.158 -224.264 838.158 L-204.117 838.158 L-204.117 844.047 L-239.764 844.047 L-239.764 838.158 L-234.226 838.158 Q-237.505 836.153 -239.064 833.352 Q-240.624 830.551 -240.624 826.7 Q-240.624 822.817 -238.65 820.112 Q-236.677 817.374 -232.921 816.069 Z" fill="#000000" fill-rule="evenodd" fill-opacity="1" /><path clip-path="url(#clip020)" d="M 0 0 M-223.405 749.834 L-220.54 749.834 L-220.54 776.761 Q-214.493 776.379 -211.31 773.133 Q-208.159 769.854 -208.159 764.03 Q-208.159 760.656 -208.986 757.505 Q-209.814 754.322 -211.469 751.203 L-205.931 751.203 Q-204.594 754.354 -203.894 757.664 Q-203.193 760.974 -203.193 764.38 Q-203.193 772.91 -208.159 777.907 Q-213.124 782.872 -221.59 782.872 Q-230.343 782.872 -235.468 778.162 Q-240.624 773.419 -240.624 765.398 Q-240.624 758.205 -235.977 754.036 Q-231.362 749.834 -223.405 749.834 M-225.123 755.691 Q-229.929 755.754 -232.794 758.396 Q-235.659 761.006 -235.659 765.335 Q-235.659 770.236 -232.89 773.196 Q-230.12 776.125 -225.092 776.57 L-225.123 755.691 Z" fill="#000000" fill-rule="evenodd" fill-opacity="1" /><path clip-path="url(#clip020)" d="M 0 0 M-253.578 705.433 Q-246.257 709.699 -239.096 711.767 Q-231.935 713.836 -224.582 713.836 Q-217.23 713.836 -210.005 711.767 Q-202.812 709.667 -195.523 705.433 L-195.523 710.526 Q-203.003 715.3 -210.228 717.687 Q-217.453 720.043 -224.582 720.043 Q-231.68 720.043 -238.873 717.687 Q-246.067 715.332 -253.578 710.526 L-253.578 705.433 Z" fill="#000000" fill-rule="evenodd" fill-opacity="1" /><path clip-path="url(#clip020)" d="M 0 0 M-238.714 671.345 L-233.176 671.345 Q-234.449 673.828 -235.086 676.501 Q-235.722 679.175 -235.722 682.04 Q-235.722 686.4 -234.385 688.596 Q-233.049 690.761 -230.375 690.761 Q-228.338 690.761 -227.16 689.201 Q-226.015 687.641 -224.964 682.931 L-224.519 680.926 Q-223.182 674.687 -220.731 672.077 Q-218.312 669.435 -213.952 669.435 Q-208.986 669.435 -206.09 673.382 Q-203.193 677.297 -203.193 684.172 Q-203.193 687.037 -203.766 690.156 Q-204.307 693.243 -205.421 696.681 L-211.469 696.681 Q-209.782 693.434 -208.923 690.283 Q-208.095 687.132 -208.095 684.045 Q-208.095 679.907 -209.496 677.679 Q-210.928 675.451 -213.506 675.451 Q-215.893 675.451 -217.166 677.074 Q-218.439 678.666 -219.617 684.108 L-220.094 686.145 Q-221.24 691.588 -223.596 694.007 Q-225.983 696.426 -230.12 696.426 Q-235.149 696.426 -237.887 692.861 Q-240.624 689.296 -240.624 682.74 Q-240.624 679.493 -240.146 676.629 Q-239.669 673.764 -238.714 671.345 Z" fill="#000000" fill-rule="evenodd" fill-opacity="1" /><path clip-path="url(#clip020)" d="M 0 0 M-253.578 661.033 L-253.578 655.94 Q-246.067 651.166 -238.873 648.811 Q-231.68 646.423 -224.582 646.423 Q-217.453 646.423 -210.228 648.811 Q-203.003 651.166 -195.523 655.94 L-195.523 661.033 Q-202.812 656.799 -210.005 654.731 Q-217.23 652.63 -224.582 652.63 Q-231.935 652.63 -239.096 654.731 Q-246.257 656.799 -253.578 661.033 Z" fill="#000000" fill-rule="evenodd" fill-opacity="1" /><path clip-path="url(#clip022)" d="
M226.495 88.5087 L226.495 1464 L408.541 1464 L408.541 88.5087 L226.495 88.5087 L226.495 88.5087  Z
  " fill="#009af9" fill-rule="evenodd" fill-opacity="1"/>
<polyline clip-path="url(#clip022)" style="stroke:#000000; stroke-width:4; stroke-opacity:1; fill:none" points="
  226.495,88.5087 226.495,1464 408.541,1464 408.541,88.5087 226.495,88.5087 
  "/>
<path clip-path="url(#clip022)" d="
M454.053 777.276 L454.053 1464 L636.099 1464 L636.099 777.276 L454.053 777.276 L454.053 777.276  Z
  " fill="#009af9" fill-rule="evenodd" fill-opacity="1"/>
<polyline clip-path="url(#clip022)" style="stroke:#000000; stroke-width:4; stroke-opacity:1; fill:none" points="
  454.053,777.276 454.053,1464 636.099,1464 636.099,777.276 454.053,777.276 
  "/>
<path clip-path="url(#clip022)" d="
M681.61 1114.75 L681.61 1464 L863.656 1464 L863.656 1114.75 L681.61 1114.75 L681.61 1114.75  Z
  " fill="#009af9" fill-rule="evenodd" fill-opacity="1"/>
<polyline clip-path="url(#clip022)" style="stroke:#000000; stroke-width:4; stroke-opacity:1; fill:none" points="
  681.61,1114.75 681.61,1464 863.656,1464 863.656,1114.75 681.61,1114.75 
  "/>
<path clip-path="url(#clip022)" d="
M909.168 1120.37 L909.168 1464 L1091.21 1464 L1091.21 1120.37 L909.168 1120.37 L909.168 1120.37  Z
  " fill="#009af9" fill-rule="evenodd" fill-opacity="1"/>
<polyline clip-path="url(#clip022)" style="stroke:#000000; stroke-width:4; stroke-opacity:1; fill:none" points="
  909.168,1120.37 909.168,1464 1091.21,1464 1091.21,1120.37 909.168,1120.37 
  "/>
<path clip-path="url(#clip022)" d="
M1136.73 1114.55 L1136.73 1464 L1318.77 1464 L1318.77 1114.55 L1136.73 1114.55 L1136.73 1114.55  Z
  " fill="#009af9" fill-rule="evenodd" fill-opacity="1"/>
<polyline clip-path="url(#clip022)" style="stroke:#000000; stroke-width:4; stroke-opacity:1; fill:none" points="
  1136.73,1114.55 1136.73,1464 1318.77,1464 1318.77,1114.55 1136.73,1114.55 
  "/>
<path clip-path="url(#clip022)" d="
M1364.28 1116.96 L1364.28 1464 L1546.33 1464 L1546.33 1116.96 L1364.28 1116.96 L1364.28 1116.96  Z
  " fill="#009af9" fill-rule="evenodd" fill-opacity="1"/>
<polyline clip-path="url(#clip022)" style="stroke:#000000; stroke-width:4; stroke-opacity:1; fill:none" points="
  1364.28,1116.96 1364.28,1464 1546.33,1464 1546.33,1116.96 1364.28,1116.96 
  "/>
<path clip-path="url(#clip022)" d="
M1591.84 1113.54 L1591.84 1464 L1773.89 1464 L1773.89 1113.54 L1591.84 1113.54 L1591.84 1113.54  Z
  " fill="#009af9" fill-rule="evenodd" fill-opacity="1"/>
<polyline clip-path="url(#clip022)" style="stroke:#000000; stroke-width:4; stroke-opacity:1; fill:none" points="
  1591.84,1113.54 1591.84,1464 1773.89,1464 1773.89,1113.54 1591.84,1113.54 
  "/>
<path clip-path="url(#clip022)" d="
M1819.4 1118.33 L1819.4 1464 L2001.44 1464 L2001.44 1118.33 L1819.4 1118.33 L1819.4 1118.33  Z
  " fill="#009af9" fill-rule="evenodd" fill-opacity="1"/>
<polyline clip-path="url(#clip022)" style="stroke:#000000; stroke-width:4; stroke-opacity:1; fill:none" points="
  1819.4,1118.33 1819.4,1464 2001.44,1464 2001.44,1118.33 1819.4,1118.33 
  "/>
<path clip-path="url(#clip022)" d="
M2046.96 1120.94 L2046.96 1464 L2229 1464 L2229 1120.94 L2046.96 1120.94 L2046.96 1120.94  Z
  " fill="#009af9" fill-rule="evenodd" fill-opacity="1"/>
<polyline clip-path="url(#clip022)" style="stroke:#000000; stroke-width:4; stroke-opacity:1; fill:none" points="
  2046.96,1120.94 2046.96,1464 2229,1464 2229,1120.94 2046.96,1120.94 
  "/>
</svg>
