<?xml version="1.0" encoding="utf-8"?>
<svg xmlns="http://www.w3.org/2000/svg" xmlns:xlink="http://www.w3.org/1999/xlink" width="600" height="400" viewBox="0 0 2400 1600">
<defs>
  <clipPath id="clip990">
    <rect x="0" y="0" width="2400" height="1600"/>
  </clipPath>
</defs>
<path clip-path="url(#clip990)" d="
M0 1600 L2400 1600 L2400 0 L0 0  Z
  " fill="#ffffff" fill-rule="evenodd" fill-opacity="1"/>
<defs>
  <clipPath id="clip991">
    <rect x="480" y="0" width="1681" height="1600"/>
  </clipPath>
</defs>
<path clip-path="url(#clip990)" d="
M102.74 1505.26 L2352.76 1505.26 L2352.76 47.2441 L102.74 47.2441  Z
  " fill="#ffffff" fill-rule="evenodd" fill-opacity="1"/>
<defs>
  <clipPath id="clip992">
    <rect x="102" y="47" width="2251" height="1459"/>
  </clipPath>
</defs>
<polyline clip-path="url(#clip992)" style="stroke:#000000; stroke-width:2; stroke-opacity:0.1; fill:none" points="
  317.518,1505.26 317.518,47.2441 
  "/>
<polyline clip-path="url(#clip992)" style="stroke:#000000; stroke-width:2; stroke-opacity:0.1; fill:none" points="
  545.076,1505.26 545.076,47.2441 
  "/>
<polyline clip-path="url(#clip992)" style="stroke:#000000; stroke-width:2; stroke-opacity:0.1; fill:none" points="
  772.633,1505.26 772.633,47.2441 
  "/>
<polyline clip-path="url(#clip992)" style="stroke:#000000; stroke-width:2; stroke-opacity:0.1; fill:none" points="
  1000.19,1505.26 1000.19,47.2441 
  "/>
<polyline clip-path="url(#clip992)" style="stroke:#000000; stroke-width:2; stroke-opacity:0.1; fill:none" points="
  1227.75,1505.26 1227.75,47.2441 
  "/>
<polyline clip-path="url(#clip992)" style="stroke:#000000; stroke-width:2; stroke-opacity:0.1; fill:none" points="
  1455.31,1505.26 1455.31,47.2441 
  "/>
<polyline clip-path="url(#clip992)" style="stroke:#000000; stroke-width:2; stroke-opacity:0.1; fill:none" points="
  1682.86,1505.26 1682.86,47.2441 
  "/>
<polyline clip-path="url(#clip992)" style="stroke:#000000; stroke-width:2; stroke-opacity:0.1; fill:none" points="
  1910.42,1505.26 1910.42,47.2441 
  "/>
<polyline clip-path="url(#clip992)" style="stroke:#000000; stroke-width:2; stroke-opacity:0.1; fill:none" points="
  2137.98,1505.26 2137.98,47.2441 
  "/>
<polyline clip-path="url(#clip990)" style="stroke:#000000; stroke-width:4; stroke-opacity:1; fill:none" points="
  102.74,1505.26 2352.76,1505.26 
  "/>
<polyline clip-path="url(#clip990)" style="stroke:#000000; stroke-width:4; stroke-opacity:1; fill:none" points="
  317.518,1505.26 317.518,1487.76 
  "/>
<polyline clip-path="url(#clip990)" style="stroke:#000000; stroke-width:4; stroke-opacity:1; fill:none" points="
  545.076,1505.26 545.076,1487.76 
  "/>
<polyline clip-path="url(#clip990)" style="stroke:#000000; stroke-width:4; stroke-opacity:1; fill:none" points="
  772.633,1505.26 772.633,1487.76 
  "/>
<polyline clip-path="url(#clip990)" style="stroke:#000000; stroke-width:4; stroke-opacity:1; fill:none" points="
  1000.19,1505.26 1000.19,1487.76 
  "/>
<polyline clip-path="url(#clip990)" style="stroke:#000000; stroke-width:4; stroke-opacity:1; fill:none" points="
  1227.75,1505.26 1227.75,1487.76 
  "/>
<polyline clip-path="url(#clip990)" style="stroke:#000000; stroke-width:4; stroke-opacity:1; fill:none" points="
  1455.31,1505.26 1455.31,1487.76 
  "/>
<polyline clip-path="url(#clip990)" style="stroke:#000000; stroke-width:4; stroke-opacity:1; fill:none" points="
  1682.86,1505.26 1682.86,1487.76 
  "/>
<polyline clip-path="url(#clip990)" style="stroke:#000000; stroke-width:4; stroke-opacity:1; fill:none" points="
  1910.42,1505.26 1910.42,1487.76 
  "/>
<polyline clip-path="url(#clip990)" style="stroke:#000000; stroke-width:4; stroke-opacity:1; fill:none" points="
  2137.98,1505.26 2137.98,1487.76 
  "/>
<path clip-path="url(#clip990)" d="M 0 0 M312.171 1562 L328.49 1562 L328.49 1565.93 L306.546 1565.93 L306.546 1562 Q309.208 1559.24 313.791 1554.61 Q318.398 1549.96 319.578 1548.62 Q321.824 1546.09 322.703 1544.36 Q323.606 1542.6 323.606 1540.91 Q323.606 1538.15 321.662 1536.42 Q319.74 1534.68 316.638 1534.68 Q314.439 1534.68 311.986 1535.45 Q309.555 1536.21 306.777 1537.76 L306.777 1533.04 Q309.601 1531.9 312.055 1531.33 Q314.509 1530.75 316.546 1530.75 Q321.916 1530.75 325.111 1533.43 Q328.305 1536.12 328.305 1540.61 Q328.305 1542.74 327.495 1544.66 Q326.708 1546.56 324.601 1549.15 Q324.023 1549.82 320.921 1553.04 Q317.819 1556.23 312.171 1562 Z" fill="#000000" fill-rule="evenodd" fill-opacity="1" /><path clip-path="url(#clip990)" d="M 0 0 M548.085 1535.45 L536.279 1553.89 L548.085 1553.89 L548.085 1535.45 M546.858 1531.37 L552.738 1531.37 L552.738 1553.89 L557.668 1553.89 L557.668 1557.78 L552.738 1557.78 L552.738 1565.93 L548.085 1565.93 L548.085 1557.78 L532.483 1557.78 L532.483 1553.27 L546.858 1531.37 Z" fill="#000000" fill-rule="evenodd" fill-opacity="1" /><path clip-path="url(#clip990)" d="M 0 0 M772.633 1549.52 Q769.3 1549.52 767.378 1551.3 Q765.48 1553.08 765.48 1556.21 Q765.48 1559.33 767.378 1561.12 Q769.3 1562.9 772.633 1562.9 Q775.966 1562.9 777.888 1561.12 Q779.809 1559.31 779.809 1556.21 Q779.809 1553.08 777.888 1551.3 Q775.989 1549.52 772.633 1549.52 M767.957 1547.53 Q764.948 1546.79 763.258 1544.73 Q761.591 1542.67 761.591 1539.71 Q761.591 1535.56 764.531 1533.15 Q767.494 1530.75 772.633 1530.75 Q777.795 1530.75 780.735 1533.15 Q783.675 1535.56 783.675 1539.71 Q783.675 1542.67 781.985 1544.73 Q780.318 1546.79 777.332 1547.53 Q780.712 1548.32 782.587 1550.61 Q784.485 1552.9 784.485 1556.21 Q784.485 1561.23 781.406 1563.92 Q778.351 1566.6 772.633 1566.6 Q766.915 1566.6 763.837 1563.92 Q760.781 1561.23 760.781 1556.21 Q760.781 1552.9 762.679 1550.61 Q764.578 1548.32 767.957 1547.53 M766.244 1540.14 Q766.244 1542.83 767.911 1544.33 Q769.601 1545.84 772.633 1545.84 Q775.642 1545.84 777.332 1544.33 Q779.045 1542.83 779.045 1540.14 Q779.045 1537.46 777.332 1535.96 Q775.642 1534.45 772.633 1534.45 Q769.601 1534.45 767.911 1535.96 Q766.244 1537.46 766.244 1540.14 Z" fill="#000000" fill-rule="evenodd" fill-opacity="1" /><path clip-path="url(#clip990)" d="M 0 0 M974.797 1562 L982.436 1562 L982.436 1535.63 L974.126 1537.3 L974.126 1533.04 L982.39 1531.37 L987.066 1531.37 L987.066 1562 L994.704 1562 L994.704 1565.93 L974.797 1565.93 L974.797 1562 Z" fill="#000000" fill-rule="evenodd" fill-opacity="1" /><path clip-path="url(#clip990)" d="M 0 0 M1014.73 1546.79 Q1011.58 1546.79 1009.73 1548.94 Q1007.9 1551.09 1007.9 1554.84 Q1007.9 1558.57 1009.73 1560.75 Q1011.58 1562.9 1014.73 1562.9 Q1017.88 1562.9 1019.7 1560.75 Q1021.56 1558.57 1021.56 1554.84 Q1021.56 1551.09 1019.7 1548.94 Q1017.88 1546.79 1014.73 1546.79 M1024.01 1532.14 L1024.01 1536.39 Q1022.25 1535.56 1020.45 1535.12 Q1018.66 1534.68 1016.9 1534.68 Q1012.27 1534.68 1009.82 1537.81 Q1007.39 1540.93 1007.04 1547.25 Q1008.41 1545.24 1010.47 1544.17 Q1012.53 1543.08 1015.01 1543.08 Q1020.21 1543.08 1023.22 1546.26 Q1026.26 1549.4 1026.26 1554.84 Q1026.26 1560.17 1023.11 1563.39 Q1019.96 1566.6 1014.73 1566.6 Q1008.73 1566.6 1005.56 1562.02 Q1002.39 1557.41 1002.39 1548.69 Q1002.39 1540.49 1006.28 1535.63 Q1010.17 1530.75 1016.72 1530.75 Q1018.48 1530.75 1020.26 1531.09 Q1022.07 1531.44 1024.01 1532.14 Z" fill="#000000" fill-rule="evenodd" fill-opacity="1" /><path clip-path="url(#clip990)" d="M 0 0 M1217.39 1547.3 Q1220.75 1548.02 1222.62 1550.28 Q1224.52 1552.55 1224.52 1555.89 Q1224.52 1561 1221 1563.8 Q1217.48 1566.6 1211 1566.6 Q1208.82 1566.6 1206.51 1566.16 Q1204.22 1565.75 1201.76 1564.89 L1201.76 1560.38 Q1203.71 1561.51 1206.02 1562.09 Q1208.34 1562.67 1210.86 1562.67 Q1215.26 1562.67 1217.55 1560.93 Q1219.87 1559.2 1219.87 1555.89 Q1219.87 1552.83 1217.71 1551.12 Q1215.58 1549.38 1211.76 1549.38 L1207.74 1549.38 L1207.74 1545.54 L1211.95 1545.54 Q1215.4 1545.54 1217.23 1544.17 Q1219.06 1542.78 1219.06 1540.19 Q1219.06 1537.53 1217.16 1536.12 Q1215.28 1534.68 1211.76 1534.68 Q1209.84 1534.68 1207.64 1535.1 Q1205.44 1535.52 1202.81 1536.39 L1202.81 1532.23 Q1205.47 1531.49 1207.78 1531.12 Q1210.12 1530.75 1212.18 1530.75 Q1217.51 1530.75 1220.61 1533.18 Q1223.71 1535.58 1223.71 1539.71 Q1223.71 1542.58 1222.07 1544.57 Q1220.42 1546.53 1217.39 1547.3 Z" fill="#000000" fill-rule="evenodd" fill-opacity="1" /><path clip-path="url(#clip990)" d="M 0 0 M1237.41 1562 L1253.73 1562 L1253.73 1565.93 L1231.79 1565.93 L1231.79 1562 Q1234.45 1559.24 1239.03 1554.61 Q1243.64 1549.96 1244.82 1548.62 Q1247.07 1546.09 1247.94 1544.36 Q1248.85 1542.6 1248.85 1540.91 Q1248.85 1538.15 1246.9 1536.42 Q1244.98 1534.68 1241.88 1534.68 Q1239.68 1534.68 1237.23 1535.45 Q1234.8 1536.21 1232.02 1537.76 L1232.02 1533.04 Q1234.84 1531.9 1237.3 1531.33 Q1239.75 1530.75 1241.79 1530.75 Q1247.16 1530.75 1250.35 1533.43 Q1253.55 1536.12 1253.55 1540.61 Q1253.55 1542.74 1252.74 1544.66 Q1251.95 1546.56 1249.84 1549.15 Q1249.26 1549.82 1246.16 1553.04 Q1243.06 1556.23 1237.41 1562 Z" fill="#000000" fill-rule="evenodd" fill-opacity="1" /><path clip-path="url(#clip990)" d="M 0 0 M1443.52 1535.45 L1431.72 1553.89 L1443.52 1553.89 L1443.52 1535.45 M1442.3 1531.37 L1448.18 1531.37 L1448.18 1553.89 L1453.11 1553.89 L1453.11 1557.78 L1448.18 1557.78 L1448.18 1565.93 L1443.52 1565.93 L1443.52 1557.78 L1427.92 1557.78 L1427.92 1553.27 L1442.3 1531.37 Z" fill="#000000" fill-rule="evenodd" fill-opacity="1" /><path clip-path="url(#clip990)" d="M 0 0 M1470.84 1549.52 Q1467.5 1549.52 1465.58 1551.3 Q1463.69 1553.08 1463.69 1556.21 Q1463.69 1559.33 1465.58 1561.12 Q1467.5 1562.9 1470.84 1562.9 Q1474.17 1562.9 1476.09 1561.12 Q1478.01 1559.31 1478.01 1556.21 Q1478.01 1553.08 1476.09 1551.3 Q1474.19 1549.52 1470.84 1549.52 M1466.16 1547.53 Q1463.15 1546.79 1461.46 1544.73 Q1459.8 1542.67 1459.8 1539.71 Q1459.8 1535.56 1462.74 1533.15 Q1465.7 1530.75 1470.84 1530.75 Q1476 1530.75 1478.94 1533.15 Q1481.88 1535.56 1481.88 1539.71 Q1481.88 1542.67 1480.19 1544.73 Q1478.52 1546.79 1475.54 1547.53 Q1478.92 1548.32 1480.79 1550.61 Q1482.69 1552.9 1482.69 1556.21 Q1482.69 1561.23 1479.61 1563.92 Q1476.56 1566.6 1470.84 1566.6 Q1465.12 1566.6 1462.04 1563.92 Q1458.99 1561.23 1458.99 1556.21 Q1458.99 1552.9 1460.88 1550.61 Q1462.78 1548.32 1466.16 1547.53 M1464.45 1540.14 Q1464.45 1542.83 1466.12 1544.33 Q1467.81 1545.84 1470.84 1545.84 Q1473.85 1545.84 1475.54 1544.33 Q1477.25 1542.83 1477.25 1540.14 Q1477.25 1537.46 1475.54 1535.96 Q1473.85 1534.45 1470.84 1534.45 Q1467.81 1534.45 1466.12 1535.96 Q1464.45 1537.46 1464.45 1540.14 Z" fill="#000000" fill-rule="evenodd" fill-opacity="1" /><path clip-path="url(#clip990)" d="M 0 0 M1668.03 1546.79 Q1664.88 1546.79 1663.03 1548.94 Q1661.2 1551.09 1661.2 1554.84 Q1661.2 1558.57 1663.03 1560.75 Q1664.88 1562.9 1668.03 1562.9 Q1671.17 1562.9 1673 1560.75 Q1674.85 1558.57 1674.85 1554.84 Q1674.85 1551.09 1673 1548.94 Q1671.17 1546.79 1668.03 1546.79 M1677.31 1532.14 L1677.31 1536.39 Q1675.55 1535.56 1673.74 1535.12 Q1671.96 1534.68 1670.2 1534.68 Q1665.57 1534.68 1663.12 1537.81 Q1660.69 1540.93 1660.34 1547.25 Q1661.71 1545.24 1663.77 1544.17 Q1665.83 1543.08 1668.3 1543.08 Q1673.51 1543.08 1676.52 1546.26 Q1679.55 1549.4 1679.55 1554.84 Q1679.55 1560.17 1676.4 1563.39 Q1673.26 1566.6 1668.03 1566.6 Q1662.03 1566.6 1658.86 1562.02 Q1655.69 1557.41 1655.69 1548.69 Q1655.69 1540.49 1659.58 1535.63 Q1663.46 1530.75 1670.02 1530.75 Q1671.78 1530.75 1673.56 1531.09 Q1675.36 1531.44 1677.31 1532.14 Z" fill="#000000" fill-rule="evenodd" fill-opacity="1" /><path clip-path="url(#clip990)" d="M 0 0 M1700.46 1535.45 L1688.65 1553.89 L1700.46 1553.89 L1700.46 1535.45 M1699.23 1531.37 L1705.11 1531.37 L1705.11 1553.89 L1710.04 1553.89 L1710.04 1557.78 L1705.11 1557.78 L1705.11 1565.93 L1700.46 1565.93 L1700.46 1557.78 L1684.85 1557.78 L1684.85 1553.27 L1699.23 1531.37 Z" fill="#000000" fill-rule="evenodd" fill-opacity="1" /><path clip-path="url(#clip990)" d="M 0 0 M1895.29 1549.52 Q1891.96 1549.52 1890.04 1551.3 Q1888.14 1553.08 1888.14 1556.21 Q1888.14 1559.33 1890.04 1561.12 Q1891.96 1562.9 1895.29 1562.9 Q1898.63 1562.9 1900.55 1561.12 Q1902.47 1559.31 1902.47 1556.21 Q1902.47 1553.08 1900.55 1551.3 Q1898.65 1549.52 1895.29 1549.52 M1890.62 1547.53 Q1887.61 1546.79 1885.92 1544.73 Q1884.25 1542.67 1884.25 1539.71 Q1884.25 1535.56 1887.19 1533.15 Q1890.15 1530.75 1895.29 1530.75 Q1900.46 1530.75 1903.4 1533.15 Q1906.33 1535.56 1906.33 1539.71 Q1906.33 1542.67 1904.65 1544.73 Q1902.98 1546.79 1899.99 1547.53 Q1903.37 1548.32 1905.25 1550.61 Q1907.15 1552.9 1907.15 1556.21 Q1907.15 1561.23 1904.07 1563.92 Q1901.01 1566.6 1895.29 1566.6 Q1889.58 1566.6 1886.5 1563.92 Q1883.44 1561.23 1883.44 1556.21 Q1883.44 1552.9 1885.34 1550.61 Q1887.24 1548.32 1890.62 1547.53 M1888.9 1540.14 Q1888.9 1542.83 1890.57 1544.33 Q1892.26 1545.84 1895.29 1545.84 Q1898.3 1545.84 1899.99 1544.33 Q1901.71 1542.83 1901.71 1540.14 Q1901.71 1537.46 1899.99 1535.96 Q1898.3 1534.45 1895.29 1534.45 Q1892.26 1534.45 1890.57 1535.96 Q1888.9 1537.46 1888.9 1540.14 Z" fill="#000000" fill-rule="evenodd" fill-opacity="1" /><path clip-path="url(#clip990)" d="M 0 0 M1925.46 1534.45 Q1921.84 1534.45 1920.02 1538.02 Q1918.21 1541.56 1918.21 1548.69 Q1918.21 1555.79 1920.02 1559.36 Q1921.84 1562.9 1925.46 1562.9 Q1929.09 1562.9 1930.89 1559.36 Q1932.72 1555.79 1932.72 1548.69 Q1932.72 1541.56 1930.89 1538.02 Q1929.09 1534.45 1925.46 1534.45 M1925.46 1530.75 Q1931.27 1530.75 1934.32 1535.35 Q1937.4 1539.94 1937.4 1548.69 Q1937.4 1557.41 1934.32 1562.02 Q1931.27 1566.6 1925.46 1566.6 Q1919.65 1566.6 1916.57 1562.02 Q1913.51 1557.41 1913.51 1548.69 Q1913.51 1539.94 1916.57 1535.35 Q1919.65 1530.75 1925.46 1530.75 Z" fill="#000000" fill-rule="evenodd" fill-opacity="1" /><path clip-path="url(#clip990)" d="M 0 0 M2113.02 1565.21 L2113.02 1560.96 Q2114.78 1561.79 2116.59 1562.23 Q2118.39 1562.67 2120.13 1562.67 Q2124.76 1562.67 2127.19 1559.57 Q2129.64 1556.44 2129.99 1550.1 Q2128.65 1552.09 2126.59 1553.15 Q2124.53 1554.22 2122.03 1554.22 Q2116.84 1554.22 2113.81 1551.09 Q2110.8 1547.95 2110.8 1542.51 Q2110.8 1537.18 2113.95 1533.96 Q2117.1 1530.75 2122.33 1530.75 Q2128.33 1530.75 2131.47 1535.35 Q2134.64 1539.94 2134.64 1548.69 Q2134.64 1556.86 2130.76 1561.74 Q2126.89 1566.6 2120.34 1566.6 Q2118.58 1566.6 2116.77 1566.26 Q2114.97 1565.91 2113.02 1565.21 M2122.33 1550.56 Q2125.48 1550.56 2127.31 1548.41 Q2129.16 1546.26 2129.16 1542.51 Q2129.16 1538.78 2127.31 1536.63 Q2125.48 1534.45 2122.33 1534.45 Q2119.18 1534.45 2117.33 1536.63 Q2115.5 1538.78 2115.5 1542.51 Q2115.5 1546.26 2117.33 1548.41 Q2119.18 1550.56 2122.33 1550.56 Z" fill="#000000" fill-rule="evenodd" fill-opacity="1" /><path clip-path="url(#clip990)" d="M 0 0 M2153.63 1546.79 Q2150.48 1546.79 2148.63 1548.94 Q2146.8 1551.09 2146.8 1554.84 Q2146.8 1558.57 2148.63 1560.75 Q2150.48 1562.9 2153.63 1562.9 Q2156.77 1562.9 2158.6 1560.75 Q2160.45 1558.57 2160.45 1554.84 Q2160.45 1551.09 2158.6 1548.94 Q2156.77 1546.79 2153.63 1546.79 M2162.91 1532.14 L2162.91 1536.39 Q2161.15 1535.56 2159.34 1535.12 Q2157.56 1534.68 2155.8 1534.68 Q2151.17 1534.68 2148.72 1537.81 Q2146.29 1540.93 2145.94 1547.25 Q2147.31 1545.24 2149.37 1544.17 Q2151.43 1543.08 2153.9 1543.08 Q2159.11 1543.08 2162.12 1546.26 Q2165.15 1549.4 2165.15 1554.84 Q2165.15 1560.17 2162.01 1563.39 Q2158.86 1566.6 2153.63 1566.6 Q2147.63 1566.6 2144.46 1562.02 Q2141.29 1557.41 2141.29 1548.69 Q2141.29 1540.49 2145.18 1535.63 Q2149.07 1530.75 2155.62 1530.75 Q2157.38 1530.75 2159.16 1531.09 Q2160.96 1531.44 2162.91 1532.14 Z" fill="#000000" fill-rule="evenodd" fill-opacity="1" /><path clip-path="url(#clip990)" d="M 0 0 M1078.3 1607.89 L1078.3 1625.74 L1086.38 1625.74 Q1090.87 1625.74 1093.32 1623.42 Q1095.77 1621.1 1095.77 1616.8 Q1095.77 1612.53 1093.32 1610.21 Q1090.87 1607.89 1086.38 1607.89 L1078.3 1607.89 M1071.87 1602.6 L1086.38 1602.6 Q1094.37 1602.6 1098.44 1606.23 Q1102.55 1609.83 1102.55 1616.8 Q1102.55 1623.83 1098.44 1627.43 Q1094.37 1631.03 1086.38 1631.03 L1078.3 1631.03 L1078.3 1650.12 L1071.87 1650.12 L1071.87 1602.6 Z" fill="#000000" fill-rule="evenodd" fill-opacity="1" /><path clip-path="url(#clip990)" d="M 0 0 M1130.43 1619.95 Q1129.45 1619.38 1128.27 1619.12 Q1127.12 1618.84 1125.72 1618.84 Q1120.76 1618.84 1118.08 1622.08 Q1115.44 1625.3 1115.44 1631.35 L1115.44 1650.12 L1109.55 1650.12 L1109.55 1614.48 L1115.44 1614.48 L1115.44 1620.01 Q1117.29 1616.77 1120.25 1615.21 Q1123.21 1613.62 1127.44 1613.62 Q1128.05 1613.62 1128.78 1613.71 Q1129.51 1613.78 1130.4 1613.93 L1130.43 1619.95 Z" fill="#000000" fill-rule="evenodd" fill-opacity="1" /><path clip-path="url(#clip990)" d="M 0 0 M1148.96 1618.58 Q1144.25 1618.58 1141.51 1622.27 Q1138.77 1625.93 1138.77 1632.33 Q1138.77 1638.73 1141.48 1642.42 Q1144.21 1646.08 1148.96 1646.08 Q1153.64 1646.08 1156.37 1642.39 Q1159.11 1638.7 1159.11 1632.33 Q1159.11 1626 1156.37 1622.31 Q1153.64 1618.58 1148.96 1618.58 M1148.96 1613.62 Q1156.6 1613.62 1160.96 1618.58 Q1165.32 1623.55 1165.32 1632.33 Q1165.32 1641.08 1160.96 1646.08 Q1156.6 1651.05 1148.96 1651.05 Q1141.29 1651.05 1136.93 1646.08 Q1132.6 1641.08 1132.6 1632.33 Q1132.6 1623.55 1136.93 1618.58 Q1141.29 1613.62 1148.96 1613.62 Z" fill="#000000" fill-rule="evenodd" fill-opacity="1" /><path clip-path="url(#clip990)" d="M 0 0 M1200.68 1615.84 L1200.68 1621.32 Q1198.2 1619.95 1195.68 1619.28 Q1193.2 1618.58 1190.65 1618.58 Q1184.95 1618.58 1181.8 1622.21 Q1178.65 1625.81 1178.65 1632.33 Q1178.65 1638.86 1181.8 1642.48 Q1184.95 1646.08 1190.65 1646.08 Q1193.2 1646.08 1195.68 1645.41 Q1198.2 1644.71 1200.68 1643.34 L1200.68 1648.76 Q1198.23 1649.9 1195.59 1650.47 Q1192.98 1651.05 1190.02 1651.05 Q1181.96 1651.05 1177.22 1645.99 Q1172.48 1640.93 1172.48 1632.33 Q1172.48 1623.61 1177.25 1618.61 Q1182.06 1613.62 1190.4 1613.62 Q1193.1 1613.62 1195.68 1614.19 Q1198.26 1614.73 1200.68 1615.84 Z" fill="#000000" fill-rule="evenodd" fill-opacity="1" /><path clip-path="url(#clip990)" d="M 0 0 M1241.35 1630.84 L1241.35 1633.7 L1214.43 1633.7 Q1214.81 1639.75 1218.06 1642.93 Q1221.33 1646.08 1227.16 1646.08 Q1230.53 1646.08 1233.68 1645.25 Q1236.87 1644.43 1239.99 1642.77 L1239.99 1648.31 Q1236.84 1649.65 1233.52 1650.35 Q1230.21 1651.05 1226.81 1651.05 Q1218.28 1651.05 1213.28 1646.08 Q1208.32 1641.12 1208.32 1632.65 Q1208.32 1623.9 1213.03 1618.77 Q1217.77 1613.62 1225.79 1613.62 Q1232.98 1613.62 1237.15 1618.26 Q1241.35 1622.88 1241.35 1630.84 M1235.5 1629.12 Q1235.43 1624.31 1232.79 1621.45 Q1230.18 1618.58 1225.85 1618.58 Q1220.95 1618.58 1217.99 1621.35 Q1215.06 1624.12 1214.62 1629.15 L1235.5 1629.12 Z" fill="#000000" fill-rule="evenodd" fill-opacity="1" /><path clip-path="url(#clip990)" d="M 0 0 M1273.69 1615.53 L1273.69 1621.06 Q1271.21 1619.79 1268.54 1619.15 Q1265.86 1618.52 1263 1618.52 Q1258.64 1618.52 1256.44 1619.85 Q1254.28 1621.19 1254.28 1623.87 Q1254.28 1625.9 1255.84 1627.08 Q1257.4 1628.23 1262.11 1629.28 L1264.11 1629.72 Q1270.35 1631.06 1272.96 1633.51 Q1275.6 1635.93 1275.6 1640.29 Q1275.6 1645.25 1271.66 1648.15 Q1267.74 1651.05 1260.87 1651.05 Q1258 1651.05 1254.88 1650.47 Q1251.79 1649.93 1248.36 1648.82 L1248.36 1642.77 Q1251.6 1644.46 1254.75 1645.32 Q1257.91 1646.15 1260.99 1646.15 Q1265.13 1646.15 1267.36 1644.74 Q1269.59 1643.31 1269.59 1640.73 Q1269.59 1638.35 1267.96 1637.07 Q1266.37 1635.8 1260.93 1634.62 L1258.89 1634.15 Q1253.45 1633 1251.03 1630.64 Q1248.61 1628.26 1248.61 1624.12 Q1248.61 1619.09 1252.18 1616.35 Q1255.74 1613.62 1262.3 1613.62 Q1265.54 1613.62 1268.41 1614.09 Q1271.27 1614.57 1273.69 1615.53 Z" fill="#000000" fill-rule="evenodd" fill-opacity="1" /><path clip-path="url(#clip990)" d="M 0 0 M1307.65 1615.53 L1307.65 1621.06 Q1305.17 1619.79 1302.5 1619.15 Q1299.82 1618.52 1296.96 1618.52 Q1292.6 1618.52 1290.4 1619.85 Q1288.24 1621.19 1288.24 1623.87 Q1288.24 1625.9 1289.8 1627.08 Q1291.36 1628.23 1296.07 1629.28 L1298.07 1629.72 Q1304.31 1631.06 1306.92 1633.51 Q1309.56 1635.93 1309.56 1640.29 Q1309.56 1645.25 1305.62 1648.15 Q1301.7 1651.05 1294.83 1651.05 Q1291.96 1651.05 1288.84 1650.47 Q1285.76 1649.93 1282.32 1648.82 L1282.32 1642.77 Q1285.56 1644.46 1288.72 1645.32 Q1291.87 1646.15 1294.95 1646.15 Q1299.09 1646.15 1301.32 1644.74 Q1303.55 1643.31 1303.55 1640.73 Q1303.55 1638.35 1301.92 1637.07 Q1300.33 1635.8 1294.89 1634.62 L1292.85 1634.15 Q1287.41 1633 1284.99 1630.64 Q1282.57 1628.26 1282.57 1624.12 Q1282.57 1619.09 1286.14 1616.35 Q1289.7 1613.62 1296.26 1613.62 Q1299.51 1613.62 1302.37 1614.09 Q1305.23 1614.57 1307.65 1615.53 Z" fill="#000000" fill-rule="evenodd" fill-opacity="1" /><path clip-path="url(#clip990)" d="M 0 0 M1349.38 1630.84 L1349.38 1633.7 L1322.45 1633.7 Q1322.84 1639.75 1326.08 1642.93 Q1329.36 1646.08 1335.19 1646.08 Q1338.56 1646.08 1341.71 1645.25 Q1344.89 1644.43 1348.01 1642.77 L1348.01 1648.31 Q1344.86 1649.65 1341.55 1650.35 Q1338.24 1651.05 1334.84 1651.05 Q1326.31 1651.05 1321.31 1646.08 Q1316.34 1641.12 1316.34 1632.65 Q1316.34 1623.9 1321.05 1618.77 Q1325.8 1613.62 1333.82 1613.62 Q1341.01 1613.62 1345.18 1618.26 Q1349.38 1622.88 1349.38 1630.84 M1343.52 1629.12 Q1343.46 1624.31 1340.82 1621.45 Q1338.21 1618.58 1333.88 1618.58 Q1328.98 1618.58 1326.02 1621.35 Q1323.09 1624.12 1322.64 1629.15 L1343.52 1629.12 Z" fill="#000000" fill-rule="evenodd" fill-opacity="1" /><path clip-path="url(#clip990)" d="M 0 0 M1381.72 1615.53 L1381.72 1621.06 Q1379.24 1619.79 1376.56 1619.15 Q1373.89 1618.52 1371.02 1618.52 Q1366.66 1618.52 1364.47 1619.85 Q1362.3 1621.19 1362.3 1623.87 Q1362.3 1625.9 1363.86 1627.08 Q1365.42 1628.23 1370.13 1629.28 L1372.14 1629.72 Q1378.38 1631.06 1380.99 1633.51 Q1383.63 1635.93 1383.63 1640.29 Q1383.63 1645.25 1379.68 1648.15 Q1375.77 1651.05 1368.89 1651.05 Q1366.03 1651.05 1362.91 1650.47 Q1359.82 1649.93 1356.38 1648.82 L1356.38 1642.77 Q1359.63 1644.46 1362.78 1645.32 Q1365.93 1646.15 1369.02 1646.15 Q1373.16 1646.15 1375.38 1644.74 Q1377.61 1643.31 1377.61 1640.73 Q1377.61 1638.35 1375.99 1637.07 Q1374.4 1635.8 1368.96 1634.62 L1366.92 1634.15 Q1361.48 1633 1359.06 1630.64 Q1356.64 1628.26 1356.64 1624.12 Q1356.64 1619.09 1360.2 1616.35 Q1363.77 1613.62 1370.32 1613.62 Q1373.57 1613.62 1376.44 1614.09 Q1379.3 1614.57 1381.72 1615.53 Z" fill="#000000" fill-rule="evenodd" fill-opacity="1" /><polyline clip-path="url(#clip992)" style="stroke:#000000; stroke-width:2; stroke-opacity:0.1; fill:none" points="
  102.74,1464 2352.76,1464 
  "/>
<polyline clip-path="url(#clip992)" style="stroke:#000000; stroke-width:2; stroke-opacity:0.1; fill:none" points="
  102.74,1207.55 2352.76,1207.55 
  "/>
<polyline clip-path="url(#clip992)" style="stroke:#000000; stroke-width:2; stroke-opacity:0.1; fill:none" points="
  102.74,951.1 2352.76,951.1 
  "/>
<polyline clip-path="url(#clip992)" style="stroke:#000000; stroke-width:2; stroke-opacity:0.1; fill:none" points="
  102.74,694.652 2352.76,694.652 
  "/>
<polyline clip-path="url(#clip992)" style="stroke:#000000; stroke-width:2; stroke-opacity:0.1; fill:none" points="
  102.74,438.204 2352.76,438.204 
  "/>
<polyline clip-path="url(#clip992)" style="stroke:#000000; stroke-width:2; stroke-opacity:0.1; fill:none" points="
  102.74,181.756 2352.76,181.756 
  "/>
<polyline clip-path="url(#clip990)" style="stroke:#000000; stroke-width:4; stroke-opacity:1; fill:none" points="
  102.74,1505.26 102.74,47.2441 
  "/>
<polyline clip-path="url(#clip990)" style="stroke:#000000; stroke-width:4; stroke-opacity:1; fill:none" points="
  102.74,1464 129.74,1464 
  "/>
<polyline clip-path="url(#clip990)" style="stroke:#000000; stroke-width:4; stroke-opacity:1; fill:none" points="
  102.74,1207.55 129.74,1207.55 
  "/>
<polyline clip-path="url(#clip990)" style="stroke:#000000; stroke-width:4; stroke-opacity:1; fill:none" points="
  102.74,951.1 129.74,951.1 
  "/>
<polyline clip-path="url(#clip990)" style="stroke:#000000; stroke-width:4; stroke-opacity:1; fill:none" points="
  102.74,694.652 129.74,694.652 
  "/>
<polyline clip-path="url(#clip990)" style="stroke:#000000; stroke-width:4; stroke-opacity:1; fill:none" points="
  102.74,438.204 129.74,438.204 
  "/>
<polyline clip-path="url(#clip990)" style="stroke:#000000; stroke-width:4; stroke-opacity:1; fill:none" points="
  102.74,181.756 129.74,181.756 
  "/>
<path clip-path="url(#clip990)" d="M 0 0 M54.7958 1449.79 Q51.1847 1449.79 49.356 1453.36 Q47.5504 1456.9 47.5504 1464.03 Q47.5504 1471.14 49.356 1474.7 Q51.1847 1478.24 54.7958 1478.24 Q58.43 1478.24 60.2356 1474.7 Q62.0643 1471.14 62.0643 1464.03 Q62.0643 1456.9 60.2356 1453.36 Q58.43 1449.79 54.7958 1449.79 M54.7958 1446.09 Q60.6059 1446.09 63.6615 1450.7 Q66.7402 1455.28 66.7402 1464.03 Q66.7402 1472.76 63.6615 1477.36 Q60.6059 1481.95 54.7958 1481.95 Q48.9856 1481.95 45.9069 1477.36 Q42.8514 1472.76 42.8514 1464.03 Q42.8514 1455.28 45.9069 1450.7 Q48.9856 1446.09 54.7958 1446.09 Z" fill="#000000" fill-rule="evenodd" fill-opacity="1" /><path clip-path="url(#clip990)" d="M 0 0 M-149.085 1196.72 L-130.728 1196.72 L-130.728 1200.65 L-144.802 1200.65 L-144.802 1209.12 Q-143.784 1208.78 -142.765 1208.61 Q-141.747 1208.43 -140.728 1208.43 Q-134.941 1208.43 -131.562 1211.6 Q-128.182 1214.77 -128.182 1220.19 Q-128.182 1225.77 -131.654 1228.87 Q-135.127 1231.95 -141.446 1231.95 Q-143.622 1231.95 -145.89 1231.58 Q-148.136 1231.21 -150.543 1230.46 L-150.543 1225.77 Q-148.46 1226.9 -146.238 1227.46 Q-144.015 1228.01 -141.539 1228.01 Q-137.534 1228.01 -135.196 1225.9 Q-132.858 1223.8 -132.858 1220.19 Q-132.858 1216.58 -135.196 1214.47 Q-137.534 1212.36 -141.539 1212.36 Q-143.414 1212.36 -145.289 1212.78 Q-147.14 1213.2 -149.085 1214.08 L-149.085 1196.72 Z" fill="#000000" fill-rule="evenodd" fill-opacity="1" /><path clip-path="url(#clip990)" d="M 0 0 M-118.969 1225.4 L-114.085 1225.4 L-114.085 1231.28 L-118.969 1231.28 L-118.969 1225.4 Z" fill="#000000" fill-rule="evenodd" fill-opacity="1" /><path clip-path="url(#clip990)" d="M 0 0 M-93.8999 1199.79 Q-97.511 1199.79 -99.3397 1203.36 Q-101.145 1206.9 -101.145 1214.03 Q-101.145 1221.14 -99.3397 1224.7 Q-97.511 1228.24 -93.8999 1228.24 Q-90.2657 1228.24 -88.4601 1224.7 Q-86.6314 1221.14 -86.6314 1214.03 Q-86.6314 1206.9 -88.4601 1203.36 Q-90.2657 1199.79 -93.8999 1199.79 M-93.8999 1196.09 Q-88.0897 1196.09 -85.0342 1200.7 Q-81.9555 1205.28 -81.9555 1214.03 Q-81.9555 1222.76 -85.0342 1227.36 Q-88.0897 1231.95 -93.8999 1231.95 Q-99.7101 1231.95 -102.789 1227.36 Q-105.844 1222.76 -105.844 1214.03 Q-105.844 1205.28 -102.789 1200.7 Q-99.7101 1196.09 -93.8999 1196.09 Z" fill="#000000" fill-rule="evenodd" fill-opacity="1" /><path clip-path="url(#clip990)" d="M 0 0 M-63.738 1199.79 Q-67.3491 1199.79 -69.1778 1203.36 Q-70.9834 1206.9 -70.9834 1214.03 Q-70.9834 1221.14 -69.1778 1224.7 Q-67.3491 1228.24 -63.738 1228.24 Q-60.1038 1228.24 -58.2982 1224.7 Q-56.4695 1221.14 -56.4695 1214.03 Q-56.4695 1206.9 -58.2982 1203.36 Q-60.1038 1199.79 -63.738 1199.79 M-63.738 1196.09 Q-57.9279 1196.09 -54.8723 1200.7 Q-51.7936 1205.28 -51.7936 1214.03 Q-51.7936 1222.76 -54.8723 1227.36 Q-57.9279 1231.95 -63.738 1231.95 Q-69.5482 1231.95 -72.6269 1227.36 Q-75.6824 1222.76 -75.6824 1214.03 Q-75.6824 1205.28 -72.6269 1200.7 Q-69.5482 1196.09 -63.738 1196.09 Z" fill="#000000" fill-rule="evenodd" fill-opacity="1" /><path clip-path="url(#clip990)" d="M 0 0 M-15.4049 1205.81 L-25.9836 1216.44 L-15.4049 1227.02 L-18.1596 1229.82 L-28.7845 1219.19 L-39.4094 1229.82 L-42.1409 1227.02 L-31.5854 1216.44 L-42.1409 1205.81 L-39.4094 1203.01 L-28.7845 1213.64 L-18.1596 1203.01 L-15.4049 1205.81 Z" fill="#000000" fill-rule="evenodd" fill-opacity="1" /><path clip-path="url(#clip990)" d="M 0 0 M-3.0439 1227.34 L4.59495 1227.34 L4.59495 1200.97 L-3.71519 1202.64 L-3.71519 1198.38 L4.54865 1196.72 L9.22455 1196.72 L9.22455 1227.34 L16.8634 1227.34 L16.8634 1231.28 L-3.0439 1231.28 L-3.0439 1227.34 Z" fill="#000000" fill-rule="evenodd" fill-opacity="1" /><path clip-path="url(#clip990)" d="M 0 0 M36.3077 1199.79 Q32.6966 1199.79 30.868 1203.36 Q29.0624 1206.9 29.0624 1214.03 Q29.0624 1221.14 30.868 1224.7 Q32.6966 1228.24 36.3077 1228.24 Q39.942 1228.24 41.7475 1224.7 Q43.5762 1221.14 43.5762 1214.03 Q43.5762 1206.9 41.7475 1203.36 Q39.942 1199.79 36.3077 1199.79 M36.3077 1196.09 Q42.1179 1196.09 45.1734 1200.7 Q48.2521 1205.28 48.2521 1214.03 Q48.2521 1222.76 45.1734 1227.36 Q42.1179 1231.95 36.3077 1231.95 Q30.4976 1231.95 27.4189 1227.36 Q24.3634 1222.76 24.3634 1214.03 Q24.3634 1205.28 27.4189 1200.7 Q30.4976 1196.09 36.3077 1196.09 Z" fill="#000000" fill-rule="evenodd" fill-opacity="1" /><path clip-path="url(#clip990)" d="M 0 0 M60.9474 1188.72 Q63.6745 1189.31 65.1979 1191.15 Q66.7402 1192.99 66.7402 1195.7 Q66.7402 1199.86 63.8814 1202.13 Q61.0226 1204.41 55.7564 1204.41 Q53.9885 1204.41 52.1077 1204.05 Q50.2457 1203.71 48.2521 1203.02 L48.2521 1199.35 Q49.832 1200.27 51.7127 1200.74 Q53.5935 1201.21 55.6436 1201.21 Q59.217 1201.21 61.079 1199.8 Q62.9598 1198.39 62.9598 1195.7 Q62.9598 1193.22 61.2107 1191.83 Q59.4804 1190.42 56.3771 1190.42 L53.1045 1190.42 L53.1045 1187.29 L56.5275 1187.29 Q59.3299 1187.29 60.8157 1186.19 Q62.3015 1185.06 62.3015 1182.95 Q62.3015 1180.79 60.7593 1179.64 Q59.2359 1178.47 56.3771 1178.47 Q54.816 1178.47 53.0293 1178.81 Q51.2426 1179.15 49.0985 1179.87 L49.0985 1176.48 Q51.2614 1175.88 53.1421 1175.58 Q55.0417 1175.28 56.7156 1175.28 Q61.0414 1175.28 63.5616 1177.25 Q66.0819 1179.21 66.0819 1182.56 Q66.0819 1184.89 64.7465 1186.51 Q63.4112 1188.1 60.9474 1188.72 Z" fill="#000000" fill-rule="evenodd" fill-opacity="1" /><path clip-path="url(#clip990)" d="M 0 0 M-150.296 970.892 L-142.657 970.892 L-142.657 944.526 L-150.967 946.193 L-150.967 941.934 L-142.703 940.267 L-138.027 940.267 L-138.027 970.892 L-130.388 970.892 L-130.388 974.827 L-150.296 974.827 L-150.296 970.892 Z" fill="#000000" fill-rule="evenodd" fill-opacity="1" /><path clip-path="url(#clip990)" d="M 0 0 M-120.944 968.948 L-116.06 968.948 L-116.06 974.827 L-120.944 974.827 L-120.944 968.948 Z" fill="#000000" fill-rule="evenodd" fill-opacity="1" /><path clip-path="url(#clip990)" d="M 0 0 M-95.8747 943.346 Q-99.4858 943.346 -101.314 946.911 Q-103.12 950.452 -103.12 957.582 Q-103.12 964.688 -101.314 968.253 Q-99.4858 971.795 -95.8747 971.795 Q-92.2405 971.795 -90.4349 968.253 Q-88.6062 964.688 -88.6062 957.582 Q-88.6062 950.452 -90.4349 946.911 Q-92.2405 943.346 -95.8747 943.346 M-95.8747 939.642 Q-90.0646 939.642 -87.009 944.249 Q-83.9303 948.832 -83.9303 957.582 Q-83.9303 966.309 -87.009 970.915 Q-90.0646 975.498 -95.8747 975.498 Q-101.685 975.498 -104.764 970.915 Q-107.819 966.309 -107.819 957.582 Q-107.819 948.832 -104.764 944.249 Q-101.685 939.642 -95.8747 939.642 Z" fill="#000000" fill-rule="evenodd" fill-opacity="1" /><path clip-path="url(#clip990)" d="M 0 0 M-65.7128 943.346 Q-69.3239 943.346 -71.1526 946.911 Q-72.9582 950.452 -72.9582 957.582 Q-72.9582 964.688 -71.1526 968.253 Q-69.3239 971.795 -65.7128 971.795 Q-62.0786 971.795 -60.2731 968.253 Q-58.4444 964.688 -58.4444 957.582 Q-58.4444 950.452 -60.2731 946.911 Q-62.0786 943.346 -65.7128 943.346 M-65.7128 939.642 Q-59.9027 939.642 -56.8471 944.249 Q-53.7685 948.832 -53.7685 957.582 Q-53.7685 966.309 -56.8471 970.915 Q-59.9027 975.498 -65.7128 975.498 Q-71.523 975.498 -74.6017 970.915 Q-77.6572 966.309 -77.6572 957.582 Q-77.6572 948.832 -74.6017 944.249 Q-71.523 939.642 -65.7128 939.642 Z" fill="#000000" fill-rule="evenodd" fill-opacity="1" /><path clip-path="url(#clip990)" d="M 0 0 M-17.3798 949.364 L-27.9584 959.989 L-17.3798 970.568 L-20.1344 973.369 L-30.7593 962.744 L-41.3843 973.369 L-44.1157 970.568 L-33.5602 959.989 L-44.1157 949.364 L-41.3843 946.563 L-30.7593 957.188 L-20.1344 946.563 L-17.3798 949.364 Z" fill="#000000" fill-rule="evenodd" fill-opacity="1" /><path clip-path="url(#clip990)" d="M 0 0 M-5.01872 970.892 L2.62013 970.892 L2.62013 944.526 L-5.69001 946.193 L-5.69001 941.934 L2.57383 940.267 L7.24974 940.267 L7.24974 970.892 L14.8886 970.892 L14.8886 974.827 L-5.01872 974.827 L-5.01872 970.892 Z" fill="#000000" fill-rule="evenodd" fill-opacity="1" /><path clip-path="url(#clip990)" d="M 0 0 M34.3329 943.346 Q30.7218 943.346 28.8931 946.911 Q27.0876 950.452 27.0876 957.582 Q27.0876 964.688 28.8931 968.253 Q30.7218 971.795 34.3329 971.795 Q37.9672 971.795 39.7727 968.253 Q41.6014 964.688 41.6014 957.582 Q41.6014 950.452 39.7727 946.911 Q37.9672 943.346 34.3329 943.346 M34.3329 939.642 Q40.1431 939.642 43.1986 944.249 Q46.2773 948.832 46.2773 957.582 Q46.2773 966.309 43.1986 970.915 Q40.1431 975.498 34.3329 975.498 Q28.5228 975.498 25.4441 970.915 Q22.3885 966.309 22.3885 957.582 Q22.3885 948.832 25.4441 944.249 Q28.5228 939.642 34.3329 939.642 Z" fill="#000000" fill-rule="evenodd" fill-opacity="1" /><path clip-path="url(#clip990)" d="M 0 0 M58.9537 922.647 L49.3618 937.637 L58.9537 937.637 L58.9537 922.647 M57.9569 919.337 L62.7341 919.337 L62.7341 937.637 L66.7402 937.637 L66.7402 940.796 L62.7341 940.796 L62.7341 947.417 L58.9537 947.417 L58.9537 940.796 L46.2773 940.796 L46.2773 937.129 L57.9569 919.337 Z" fill="#000000" fill-rule="evenodd" fill-opacity="1" /><path clip-path="url(#clip990)" d="M 0 0 M-150.296 714.444 L-142.657 714.444 L-142.657 688.079 L-150.967 689.745 L-150.967 685.486 L-142.703 683.819 L-138.027 683.819 L-138.027 714.444 L-130.388 714.444 L-130.388 718.379 L-150.296 718.379 L-150.296 714.444 Z" fill="#000000" fill-rule="evenodd" fill-opacity="1" /><path clip-path="url(#clip990)" d="M 0 0 M-120.944 712.5 L-116.06 712.5 L-116.06 718.379 L-120.944 718.379 L-120.944 712.5 Z" fill="#000000" fill-rule="evenodd" fill-opacity="1" /><path clip-path="url(#clip990)" d="M 0 0 M-105.828 683.819 L-87.472 683.819 L-87.472 687.754 L-101.546 687.754 L-101.546 696.227 Q-100.527 695.879 -99.509 695.717 Q-98.4904 695.532 -97.4719 695.532 Q-91.6849 695.532 -88.3053 698.704 Q-84.9257 701.875 -84.9257 707.291 Q-84.9257 712.87 -88.3979 715.972 Q-91.8701 719.051 -98.1895 719.051 Q-100.365 719.051 -102.634 718.68 Q-104.879 718.31 -107.287 717.569 L-107.287 712.87 Q-105.203 714.004 -102.981 714.56 Q-100.759 715.115 -98.2821 715.115 Q-94.2775 715.115 -91.9395 713.009 Q-89.6016 710.903 -89.6016 707.291 Q-89.6016 703.68 -91.9395 701.574 Q-94.2775 699.467 -98.2821 699.467 Q-100.157 699.467 -102.032 699.884 Q-103.884 700.301 -105.828 701.18 L-105.828 683.819 Z" fill="#000000" fill-rule="evenodd" fill-opacity="1" /><path clip-path="url(#clip990)" d="M 0 0 M-65.7128 686.898 Q-69.3239 686.898 -71.1526 690.463 Q-72.9582 694.004 -72.9582 701.134 Q-72.9582 708.24 -71.1526 711.805 Q-69.3239 715.347 -65.7128 715.347 Q-62.0786 715.347 -60.2731 711.805 Q-58.4444 708.24 -58.4444 701.134 Q-58.4444 694.004 -60.2731 690.463 Q-62.0786 686.898 -65.7128 686.898 M-65.7128 683.194 Q-59.9027 683.194 -56.8471 687.801 Q-53.7685 692.384 -53.7685 701.134 Q-53.7685 709.861 -56.8471 714.467 Q-59.9027 719.051 -65.7128 719.051 Q-71.523 719.051 -74.6017 714.467 Q-77.6572 709.861 -77.6572 701.134 Q-77.6572 692.384 -74.6017 687.801 Q-71.523 683.194 -65.7128 683.194 Z" fill="#000000" fill-rule="evenodd" fill-opacity="1" /><path clip-path="url(#clip990)" d="M 0 0 M-17.3798 692.917 L-27.9584 703.541 L-17.3798 714.12 L-20.1344 716.921 L-30.7593 706.296 L-41.3843 716.921 L-44.1157 714.12 L-33.5602 703.541 L-44.1157 692.917 L-41.3843 690.116 L-30.7593 700.741 L-20.1344 690.116 L-17.3798 692.917 Z" fill="#000000" fill-rule="evenodd" fill-opacity="1" /><path clip-path="url(#clip990)" d="M 0 0 M-5.01872 714.444 L2.62013 714.444 L2.62013 688.079 L-5.69001 689.745 L-5.69001 685.486 L2.57383 683.819 L7.24974 683.819 L7.24974 714.444 L14.8886 714.444 L14.8886 718.379 L-5.01872 718.379 L-5.01872 714.444 Z" fill="#000000" fill-rule="evenodd" fill-opacity="1" /><path clip-path="url(#clip990)" d="M 0 0 M34.3329 686.898 Q30.7218 686.898 28.8931 690.463 Q27.0876 694.004 27.0876 701.134 Q27.0876 708.24 28.8931 711.805 Q30.7218 715.347 34.3329 715.347 Q37.9672 715.347 39.7727 711.805 Q41.6014 708.24 41.6014 701.134 Q41.6014 694.004 39.7727 690.463 Q37.9672 686.898 34.3329 686.898 M34.3329 683.194 Q40.1431 683.194 43.1986 687.801 Q46.2773 692.384 46.2773 701.134 Q46.2773 709.861 43.1986 714.467 Q40.1431 719.051 34.3329 719.051 Q28.5228 719.051 25.4441 714.467 Q22.3885 709.861 22.3885 701.134 Q22.3885 692.384 25.4441 687.801 Q28.5228 683.194 34.3329 683.194 Z" fill="#000000" fill-rule="evenodd" fill-opacity="1" /><path clip-path="url(#clip990)" d="M 0 0 M58.9537 666.199 L49.3618 681.189 L58.9537 681.189 L58.9537 666.199 M57.9569 662.889 L62.7341 662.889 L62.7341 681.189 L66.7402 681.189 L66.7402 684.349 L62.7341 684.349 L62.7341 690.969 L58.9537 690.969 L58.9537 684.349 L46.2773 684.349 L46.2773 680.681 L57.9569 662.889 Z" fill="#000000" fill-rule="evenodd" fill-opacity="1" /><path clip-path="url(#clip990)" d="M 0 0 M-147.078 457.996 L-130.759 457.996 L-130.759 461.931 L-152.703 461.931 L-152.703 457.996 Q-150.041 455.242 -145.458 450.612 Q-140.851 445.959 -139.671 444.617 Q-137.425 442.094 -136.546 440.358 Q-135.643 438.598 -135.643 436.908 Q-135.643 434.154 -137.587 432.418 Q-139.509 430.682 -142.611 430.682 Q-144.81 430.682 -147.263 431.446 Q-149.694 432.209 -152.472 433.76 L-152.472 429.038 Q-149.648 427.904 -147.194 427.325 Q-144.74 426.746 -142.703 426.746 Q-137.333 426.746 -134.138 429.432 Q-130.944 432.117 -130.944 436.608 Q-130.944 438.737 -131.754 440.658 Q-132.541 442.557 -134.648 445.149 Q-135.226 445.82 -138.328 449.038 Q-141.43 452.232 -147.078 457.996 Z" fill="#000000" fill-rule="evenodd" fill-opacity="1" /><path clip-path="url(#clip990)" d="M 0 0 M-120.944 456.052 L-116.06 456.052 L-116.06 461.931 L-120.944 461.931 L-120.944 456.052 Z" fill="#000000" fill-rule="evenodd" fill-opacity="1" /><path clip-path="url(#clip990)" d="M 0 0 M-95.8747 430.45 Q-99.4858 430.45 -101.314 434.015 Q-103.12 437.557 -103.12 444.686 Q-103.12 451.793 -101.314 455.357 Q-99.4858 458.899 -95.8747 458.899 Q-92.2405 458.899 -90.4349 455.357 Q-88.6062 451.793 -88.6062 444.686 Q-88.6062 437.557 -90.4349 434.015 Q-92.2405 430.45 -95.8747 430.45 M-95.8747 426.746 Q-90.0646 426.746 -87.009 431.353 Q-83.9303 435.936 -83.9303 444.686 Q-83.9303 453.413 -87.009 458.019 Q-90.0646 462.603 -95.8747 462.603 Q-101.685 462.603 -104.764 458.019 Q-107.819 453.413 -107.819 444.686 Q-107.819 435.936 -104.764 431.353 Q-101.685 426.746 -95.8747 426.746 Z" fill="#000000" fill-rule="evenodd" fill-opacity="1" /><path clip-path="url(#clip990)" d="M 0 0 M-65.7128 430.45 Q-69.3239 430.45 -71.1526 434.015 Q-72.9582 437.557 -72.9582 444.686 Q-72.9582 451.793 -71.1526 455.357 Q-69.3239 458.899 -65.7128 458.899 Q-62.0786 458.899 -60.2731 455.357 Q-58.4444 451.793 -58.4444 444.686 Q-58.4444 437.557 -60.2731 434.015 Q-62.0786 430.45 -65.7128 430.45 M-65.7128 426.746 Q-59.9027 426.746 -56.8471 431.353 Q-53.7685 435.936 -53.7685 444.686 Q-53.7685 453.413 -56.8471 458.019 Q-59.9027 462.603 -65.7128 462.603 Q-71.523 462.603 -74.6017 458.019 Q-77.6572 453.413 -77.6572 444.686 Q-77.6572 435.936 -74.6017 431.353 Q-71.523 426.746 -65.7128 426.746 Z" fill="#000000" fill-rule="evenodd" fill-opacity="1" /><path clip-path="url(#clip990)" d="M 0 0 M-17.3798 436.469 L-27.9584 447.094 L-17.3798 457.672 L-20.1344 460.473 L-30.7593 449.848 L-41.3843 460.473 L-44.1157 457.672 L-33.5602 447.094 L-44.1157 436.469 L-41.3843 433.668 L-30.7593 444.293 L-20.1344 433.668 L-17.3798 436.469 Z" fill="#000000" fill-rule="evenodd" fill-opacity="1" /><path clip-path="url(#clip990)" d="M 0 0 M-5.01872 457.996 L2.62013 457.996 L2.62013 431.631 L-5.69001 433.297 L-5.69001 429.038 L2.57383 427.371 L7.24974 427.371 L7.24974 457.996 L14.8886 457.996 L14.8886 461.931 L-5.01872 461.931 L-5.01872 457.996 Z" fill="#000000" fill-rule="evenodd" fill-opacity="1" /><path clip-path="url(#clip990)" d="M 0 0 M34.3329 430.45 Q30.7218 430.45 28.8931 434.015 Q27.0876 437.557 27.0876 444.686 Q27.0876 451.793 28.8931 455.357 Q30.7218 458.899 34.3329 458.899 Q37.9672 458.899 39.7727 455.357 Q41.6014 451.793 41.6014 444.686 Q41.6014 437.557 39.7727 434.015 Q37.9672 430.45 34.3329 430.45 M34.3329 426.746 Q40.1431 426.746 43.1986 431.353 Q46.2773 435.936 46.2773 444.686 Q46.2773 453.413 43.1986 458.019 Q40.1431 462.603 34.3329 462.603 Q28.5228 462.603 25.4441 458.019 Q22.3885 453.413 22.3885 444.686 Q22.3885 435.936 25.4441 431.353 Q28.5228 426.746 34.3329 426.746 Z" fill="#000000" fill-rule="evenodd" fill-opacity="1" /><path clip-path="url(#clip990)" d="M 0 0 M58.9537 409.751 L49.3618 424.741 L58.9537 424.741 L58.9537 409.751 M57.9569 406.441 L62.7341 406.441 L62.7341 424.741 L66.7402 424.741 L66.7402 427.901 L62.7341 427.901 L62.7341 434.521 L58.9537 434.521 L58.9537 427.901 L46.2773 427.901 L46.2773 424.233 L57.9569 406.441 Z" fill="#000000" fill-rule="evenodd" fill-opacity="1" /><path clip-path="url(#clip990)" d="M 0 0 M-147.078 201.548 L-130.759 201.548 L-130.759 205.484 L-152.703 205.484 L-152.703 201.548 Q-150.041 198.794 -145.458 194.164 Q-140.851 189.512 -139.671 188.169 Q-137.425 185.646 -136.546 183.91 Q-135.643 182.15 -135.643 180.461 Q-135.643 177.706 -137.587 175.97 Q-139.509 174.234 -142.611 174.234 Q-144.81 174.234 -147.263 174.998 Q-149.694 175.762 -152.472 177.313 L-152.472 172.59 Q-149.648 171.456 -147.194 170.877 Q-144.74 170.299 -142.703 170.299 Q-137.333 170.299 -134.138 172.984 Q-130.944 175.669 -130.944 180.16 Q-130.944 182.289 -131.754 184.211 Q-132.541 186.109 -134.648 188.701 Q-135.226 189.373 -138.328 192.59 Q-141.43 195.785 -147.078 201.548 Z" fill="#000000" fill-rule="evenodd" fill-opacity="1" /><path clip-path="url(#clip990)" d="M 0 0 M-120.944 199.604 L-116.06 199.604 L-116.06 205.484 L-120.944 205.484 L-120.944 199.604 Z" fill="#000000" fill-rule="evenodd" fill-opacity="1" /><path clip-path="url(#clip990)" d="M 0 0 M-105.828 170.924 L-87.472 170.924 L-87.472 174.859 L-101.546 174.859 L-101.546 183.331 Q-100.527 182.984 -99.509 182.822 Q-98.4904 182.637 -97.4719 182.637 Q-91.6849 182.637 -88.3053 185.808 Q-84.9257 188.979 -84.9257 194.396 Q-84.9257 199.974 -88.3979 203.076 Q-91.8701 206.155 -98.1895 206.155 Q-100.365 206.155 -102.634 205.785 Q-104.879 205.414 -107.287 204.673 L-107.287 199.974 Q-105.203 201.109 -102.981 201.664 Q-100.759 202.22 -98.2821 202.22 Q-94.2775 202.22 -91.9395 200.113 Q-89.6016 198.007 -89.6016 194.396 Q-89.6016 190.785 -91.9395 188.678 Q-94.2775 186.572 -98.2821 186.572 Q-100.157 186.572 -102.032 186.988 Q-103.884 187.405 -105.828 188.285 L-105.828 170.924 Z" fill="#000000" fill-rule="evenodd" fill-opacity="1" /><path clip-path="url(#clip990)" d="M 0 0 M-65.7128 174.002 Q-69.3239 174.002 -71.1526 177.567 Q-72.9582 181.109 -72.9582 188.238 Q-72.9582 195.345 -71.1526 198.91 Q-69.3239 202.451 -65.7128 202.451 Q-62.0786 202.451 -60.2731 198.91 Q-58.4444 195.345 -58.4444 188.238 Q-58.4444 181.109 -60.2731 177.567 Q-62.0786 174.002 -65.7128 174.002 M-65.7128 170.299 Q-59.9027 170.299 -56.8471 174.905 Q-53.7685 179.488 -53.7685 188.238 Q-53.7685 196.965 -56.8471 201.572 Q-59.9027 206.155 -65.7128 206.155 Q-71.523 206.155 -74.6017 201.572 Q-77.6572 196.965 -77.6572 188.238 Q-77.6572 179.488 -74.6017 174.905 Q-71.523 170.299 -65.7128 170.299 Z" fill="#000000" fill-rule="evenodd" fill-opacity="1" /><path clip-path="url(#clip990)" d="M 0 0 M-17.3798 180.021 L-27.9584 190.646 L-17.3798 201.224 L-20.1344 204.025 L-30.7593 193.4 L-41.3843 204.025 L-44.1157 201.224 L-33.5602 190.646 L-44.1157 180.021 L-41.3843 177.22 L-30.7593 187.845 L-20.1344 177.22 L-17.3798 180.021 Z" fill="#000000" fill-rule="evenodd" fill-opacity="1" /><path clip-path="url(#clip990)" d="M 0 0 M-5.01872 201.548 L2.62013 201.548 L2.62013 175.183 L-5.69001 176.85 L-5.69001 172.59 L2.57383 170.924 L7.24974 170.924 L7.24974 201.548 L14.8886 201.548 L14.8886 205.484 L-5.01872 205.484 L-5.01872 201.548 Z" fill="#000000" fill-rule="evenodd" fill-opacity="1" /><path clip-path="url(#clip990)" d="M 0 0 M34.3329 174.002 Q30.7218 174.002 28.8931 177.567 Q27.0876 181.109 27.0876 188.238 Q27.0876 195.345 28.8931 198.91 Q30.7218 202.451 34.3329 202.451 Q37.9672 202.451 39.7727 198.91 Q41.6014 195.345 41.6014 188.238 Q41.6014 181.109 39.7727 177.567 Q37.9672 174.002 34.3329 174.002 M34.3329 170.299 Q40.1431 170.299 43.1986 174.905 Q46.2773 179.488 46.2773 188.238 Q46.2773 196.965 43.1986 201.572 Q40.1431 206.155 34.3329 206.155 Q28.5228 206.155 25.4441 201.572 Q22.3885 196.965 22.3885 188.238 Q22.3885 179.488 25.4441 174.905 Q28.5228 170.299 34.3329 170.299 Z" fill="#000000" fill-rule="evenodd" fill-opacity="1" /><path clip-path="url(#clip990)" d="M 0 0 M58.9537 153.303 L49.3618 168.293 L58.9537 168.293 L58.9537 153.303 M57.9569 149.993 L62.7341 149.993 L62.7341 168.293 L66.7402 168.293 L66.7402 171.453 L62.7341 171.453 L62.7341 178.073 L58.9537 178.073 L58.9537 171.453 L46.2773 171.453 L46.2773 167.785 L57.9569 149.993 Z" fill="#000000" fill-rule="evenodd" fill-opacity="1" /><path clip-path="url(#clip990)" d="M 0 0 M-250.479 906.081 L-250.479 865.881 L-245.068 865.881 L-245.068 882.75 L-202.959 882.75 L-202.959 889.211 L-245.068 889.211 L-245.068 906.081 L-250.479 906.081 Z" fill="#000000" fill-rule="evenodd" fill-opacity="1" /><path clip-path="url(#clip990)" d="M 0 0 M-238.607 861.934 L-238.607 856.078 L-202.959 856.078 L-202.959 861.934 L-238.607 861.934 M-252.484 861.934 L-252.484 856.078 L-245.068 856.078 L-245.068 861.934 L-252.484 861.934 Z" fill="#000000" fill-rule="evenodd" fill-opacity="1" /><path clip-path="url(#clip990)" d="M 0 0 M-231.764 816.069 Q-235.711 813.873 -237.589 810.818 Q-239.466 807.762 -239.466 803.625 Q-239.466 798.055 -235.552 795.031 Q-231.668 792.007 -224.475 792.007 L-202.959 792.007 L-202.959 797.895 L-224.284 797.895 Q-229.409 797.895 -231.891 799.71 Q-234.374 801.524 -234.374 805.248 Q-234.374 809.799 -231.35 812.441 Q-228.326 815.083 -223.107 815.083 L-202.959 815.083 L-202.959 820.971 L-224.284 820.971 Q-229.44 820.971 -231.891 822.785 Q-234.374 824.6 -234.374 828.387 Q-234.374 832.875 -231.318 835.517 Q-228.295 838.158 -223.107 838.158 L-202.959 838.158 L-202.959 844.047 L-238.607 844.047 L-238.607 838.158 L-233.069 838.158 Q-236.347 836.153 -237.907 833.352 Q-239.466 830.551 -239.466 826.7 Q-239.466 822.817 -237.493 820.112 Q-235.52 817.374 -231.764 816.069 Z" fill="#000000" fill-rule="evenodd" fill-opacity="1" /><path clip-path="url(#clip990)" d="M 0 0 M-222.247 749.834 L-219.383 749.834 L-219.383 776.761 Q-213.335 776.379 -210.152 773.133 Q-207.001 769.854 -207.001 764.03 Q-207.001 760.656 -207.829 757.505 Q-208.656 754.322 -210.312 751.203 L-204.773 751.203 Q-203.437 754.354 -202.736 757.664 Q-202.036 760.974 -202.036 764.38 Q-202.036 772.91 -207.001 777.907 Q-211.967 782.872 -220.433 782.872 Q-229.186 782.872 -234.31 778.162 Q-239.466 773.419 -239.466 765.398 Q-239.466 758.205 -234.819 754.036 Q-230.204 749.834 -222.247 749.834 M-223.966 755.691 Q-228.772 755.754 -231.637 758.396 Q-234.501 761.006 -234.501 765.335 Q-234.501 770.236 -231.732 773.196 Q-228.963 776.125 -223.934 776.57 L-223.966 755.691 Z" fill="#000000" fill-rule="evenodd" fill-opacity="1" /><path clip-path="url(#clip990)" d="M 0 0 M-252.421 705.433 Q-245.1 709.699 -237.939 711.767 Q-230.777 713.836 -223.425 713.836 Q-216.072 713.836 -208.847 711.767 Q-201.654 709.667 -194.365 705.433 L-194.365 710.526 Q-201.845 715.3 -209.07 717.687 Q-216.295 720.043 -223.425 720.043 Q-230.523 720.043 -237.716 717.687 Q-244.909 715.332 -252.421 710.526 L-252.421 705.433 Z" fill="#000000" fill-rule="evenodd" fill-opacity="1" /><path clip-path="url(#clip990)" d="M 0 0 M-237.557 671.345 L-232.019 671.345 Q-233.292 673.828 -233.928 676.501 Q-234.565 679.175 -234.565 682.04 Q-234.565 686.4 -233.228 688.596 Q-231.891 690.761 -229.218 690.761 Q-227.181 690.761 -226.003 689.201 Q-224.857 687.641 -223.807 682.931 L-223.361 680.926 Q-222.024 674.687 -219.574 672.077 Q-217.155 669.435 -212.794 669.435 Q-207.829 669.435 -204.932 673.382 Q-202.036 677.297 -202.036 684.172 Q-202.036 687.037 -202.609 690.156 Q-203.15 693.243 -204.264 696.681 L-210.312 696.681 Q-208.625 693.434 -207.765 690.283 Q-206.938 687.132 -206.938 684.045 Q-206.938 679.907 -208.338 677.679 Q-209.77 675.451 -212.349 675.451 Q-214.736 675.451 -216.009 677.074 Q-217.282 678.666 -218.46 684.108 L-218.937 686.145 Q-220.083 691.588 -222.438 694.007 Q-224.825 696.426 -228.963 696.426 Q-233.992 696.426 -236.729 692.861 Q-239.466 689.296 -239.466 682.74 Q-239.466 679.493 -238.989 676.629 Q-238.512 673.764 -237.557 671.345 Z" fill="#000000" fill-rule="evenodd" fill-opacity="1" /><path clip-path="url(#clip990)" d="M 0 0 M-252.421 661.033 L-252.421 655.94 Q-244.909 651.166 -237.716 648.811 Q-230.523 646.423 -223.425 646.423 Q-216.295 646.423 -209.07 648.811 Q-201.845 651.166 -194.365 655.94 L-194.365 661.033 Q-201.654 656.799 -208.847 654.731 Q-216.072 652.63 -223.425 652.63 Q-230.777 652.63 -237.939 654.731 Q-245.1 656.799 -252.421 661.033 Z" fill="#000000" fill-rule="evenodd" fill-opacity="1" /><path clip-path="url(#clip992)" d="
M226.495 88.5087 L226.495 1464 L408.541 1464 L408.541 88.5087 L226.495 88.5087 L226.495 88.5087  Z
  " fill="#009af9" fill-rule="evenodd" fill-opacity="1"/>
<polyline clip-path="url(#clip992)" style="stroke:#000000; stroke-width:4; stroke-opacity:1; fill:none" points="
  226.495,88.5087 226.495,1464 408.541,1464 408.541,88.5087 226.495,88.5087 
  "/>
<path clip-path="url(#clip992)" d="
M454.053 780.772 L454.053 1464 L636.099 1464 L636.099 780.772 L454.053 780.772 L454.053 780.772  Z
  " fill="#009af9" fill-rule="evenodd" fill-opacity="1"/>
<polyline clip-path="url(#clip992)" style="stroke:#000000; stroke-width:4; stroke-opacity:1; fill:none" points="
  454.053,780.772 454.053,1464 636.099,1464 636.099,780.772 454.053,780.772 
  "/>
<path clip-path="url(#clip992)" d="
M681.61 1114.29 L681.61 1464 L863.656 1464 L863.656 1114.29 L681.61 1114.29 L681.61 1114.29  Z
  " fill="#009af9" fill-rule="evenodd" fill-opacity="1"/>
<polyline clip-path="url(#clip992)" style="stroke:#000000; stroke-width:4; stroke-opacity:1; fill:none" points="
  681.61,1114.29 681.61,1464 863.656,1464 863.656,1114.29 681.61,1114.29 
  "/>
<path clip-path="url(#clip992)" d="
M909.168 1117.5 L909.168 1464 L1091.21 1464 L1091.21 1117.5 L909.168 1117.5 L909.168 1117.5  Z
  " fill="#009af9" fill-rule="evenodd" fill-opacity="1"/>
<polyline clip-path="url(#clip992)" style="stroke:#000000; stroke-width:4; stroke-opacity:1; fill:none" points="
  909.168,1117.5 909.168,1464 1091.21,1464 1091.21,1117.5 909.168,1117.5 
  "/>
<path clip-path="url(#clip992)" d="
M1136.73 1116.76 L1136.73 1464 L1318.77 1464 L1318.77 1116.76 L1136.73 1116.76 L1136.73 1116.76  Z
  " fill="#009af9" fill-rule="evenodd" fill-opacity="1"/>
<polyline clip-path="url(#clip992)" style="stroke:#000000; stroke-width:4; stroke-opacity:1; fill:none" points="
  1136.73,1116.76 1136.73,1464 1318.77,1464 1318.77,1116.76 1136.73,1116.76 
  "/>
<path clip-path="url(#clip992)" d="
M1364.28 1117.89 L1364.28 1464 L1546.33 1464 L1546.33 1117.89 L1364.28 1117.89 L1364.28 1117.89  Z
  " fill="#009af9" fill-rule="evenodd" fill-opacity="1"/>
<polyline clip-path="url(#clip992)" style="stroke:#000000; stroke-width:4; stroke-opacity:1; fill:none" points="
  1364.28,1117.89 1364.28,1464 1546.33,1464 1546.33,1117.89 1364.28,1117.89 
  "/>
<path clip-path="url(#clip992)" d="
M1591.84 1112.48 L1591.84 1464 L1773.89 1464 L1773.89 1112.48 L1591.84 1112.48 L1591.84 1112.48  Z
  " fill="#009af9" fill-rule="evenodd" fill-opacity="1"/>
<polyline clip-path="url(#clip992)" style="stroke:#000000; stroke-width:4; stroke-opacity:1; fill:none" points="
  1591.84,1112.48 1591.84,1464 1773.89,1464 1773.89,1112.48 1591.84,1112.48 
  "/>
<path clip-path="url(#clip992)" d="
M1819.4 1114.66 L1819.4 1464 L2001.44 1464 L2001.44 1114.66 L1819.4 1114.66 L1819.4 1114.66  Z
  " fill="#009af9" fill-rule="evenodd" fill-opacity="1"/>
<polyline clip-path="url(#clip992)" style="stroke:#000000; stroke-width:4; stroke-opacity:1; fill:none" points="
  1819.4,1114.66 1819.4,1464 2001.44,1464 2001.44,1114.66 1819.4,1114.66 
  "/>
<path clip-path="url(#clip992)" d="
M2046.96 1118.53 L2046.96 1464 L2229 1464 L2229 1118.53 L2046.96 1118.53 L2046.96 1118.53  Z
  " fill="#009af9" fill-rule="evenodd" fill-opacity="1"/>
<polyline clip-path="url(#clip992)" style="stroke:#000000; stroke-width:4; stroke-opacity:1; fill:none" points="
  2046.96,1118.53 2046.96,1464 2229,1464 2229,1118.53 2046.96,1118.53 
  "/>
</svg>
